M48
; DRILL file {KiCad 8.0.8} date 2025-02-24T22:21:29-0700
; FORMAT={-:-/ absolute / metric / decimal}
; #@! TF.CreationDate,2025-02-24T22:21:29-07:00
; #@! TF.GenerationSoftware,Kicad,Pcbnew,8.0.8
; #@! TF.FileFunction,Plated,1,2,PTH
FMAT,2
METRIC
; #@! TA.AperFunction,Plated,PTH,ComponentDrill
T1C1.000
; #@! TA.AperFunction,Plated,PTH,ComponentDrill
T2C2.700
%
G90
G05
T1
X204.975Y-138.525
X204.975Y-141.065
X207.515Y-138.525
X207.515Y-141.065
X210.055Y-138.525
X210.055Y-141.065
X212.595Y-138.525
X212.595Y-141.065
X215.135Y-138.525
X215.135Y-141.065
X217.675Y-138.525
X217.675Y-141.065
X220.215Y-138.525
X220.215Y-141.065
X222.755Y-138.525
X222.755Y-141.065
X225.295Y-138.525
X225.295Y-141.065
X227.835Y-138.525
X227.835Y-141.065
X230.375Y-138.525
X230.375Y-141.065
X232.915Y-138.525
X232.915Y-141.065
X235.455Y-138.525
X235.455Y-141.065
X237.995Y-138.525
X237.995Y-141.065
X240.535Y-138.525
X240.535Y-141.065
X243.075Y-138.525
X243.075Y-141.065
X245.615Y-138.525
X245.615Y-141.065
X248.155Y-138.525
X248.155Y-141.065
X250.695Y-138.525
X250.695Y-141.065
X253.235Y-138.525
X253.235Y-141.065
X265.86Y-118.39
X265.86Y-120.93
X265.86Y-123.47
X265.86Y-126.01
X265.86Y-128.55
X265.86Y-131.09
X265.86Y-133.63
X265.86Y-136.17
X265.86Y-138.71
X265.86Y-141.25
X268.4Y-118.39
X268.4Y-120.93
X268.4Y-123.47
X268.4Y-126.01
X268.4Y-128.55
X268.4Y-131.09
X268.4Y-133.63
X268.4Y-136.17
X268.4Y-138.71
X268.4Y-141.25
T2
X200.15Y-139.75
X258.15Y-139.75
X258.175Y-116.75
M30
