%TF.GenerationSoftware,KiCad,Pcbnew,8.0.8*%
%TF.CreationDate,2025-02-15T02:41:19-07:00*%
%TF.ProjectId,ECE Capstone PCB Design,45434520-4361-4707-9374-6f6e65205043,rev?*%
%TF.SameCoordinates,Original*%
%TF.FileFunction,Legend,Bot*%
%TF.FilePolarity,Positive*%
%FSLAX46Y46*%
G04 Gerber Fmt 4.6, Leading zero omitted, Abs format (unit mm)*
G04 Created by KiCad (PCBNEW 8.0.8) date 2025-02-15 02:41:19*
%MOMM*%
%LPD*%
G01*
G04 APERTURE LIST*
%ADD10C,0.508000*%
%ADD11R,1.700000X1.700000*%
%ADD12O,1.700000X1.700000*%
%ADD13C,5.400000*%
%ADD14R,0.850000X0.850000*%
%ADD15O,0.850000X0.850000*%
%ADD16C,1.854200*%
%ADD17C,1.752600*%
G04 APERTURE END LIST*
D10*
%TO.C,J2*%
X111941000Y-101860300D02*
G75*
G02*
X111179000Y-101860300I-381000J0D01*
G01*
X111179000Y-101860300D02*
G75*
G02*
X111941000Y-101860300I381000J0D01*
G01*
%TO.C,J1*%
X109241000Y-65480000D02*
G75*
G02*
X108479000Y-65480000I-381000J0D01*
G01*
X108479000Y-65480000D02*
G75*
G02*
X109241000Y-65480000I381000J0D01*
G01*
%TO.C,J3*%
X141254755Y-65443100D02*
G75*
G02*
X140492755Y-65443100I-381000J0D01*
G01*
X140492755Y-65443100D02*
G75*
G02*
X141254755Y-65443100I381000J0D01*
G01*
%TD*%
%LPC*%
D11*
%TO.C,REF\u002A\u002A*%
X132560000Y-85620000D03*
D12*
X135100000Y-85620000D03*
X132560000Y-88160000D03*
X135100000Y-88160000D03*
X132560000Y-90700000D03*
X135100000Y-90700000D03*
X132560000Y-93240000D03*
X135100000Y-93240000D03*
X132560000Y-95780000D03*
X135100000Y-95780000D03*
X132560000Y-98320000D03*
X135100000Y-98320000D03*
X132560000Y-100860000D03*
X135100000Y-100860000D03*
X132560000Y-103400000D03*
X135100000Y-103400000D03*
X132560000Y-105940000D03*
X135100000Y-105940000D03*
X132560000Y-108480000D03*
X135100000Y-108480000D03*
%TD*%
D13*
%TO.C,REF\u002A\u002A*%
X212560000Y-47480000D03*
%TD*%
%TO.C,REF\u002A\u002A*%
X104560000Y-107480000D03*
%TD*%
D14*
%TO.C,REF\u002A\u002A*%
X188360000Y-62480000D03*
D15*
X189360000Y-62480000D03*
X190360000Y-62480000D03*
X191360000Y-62480000D03*
X192360000Y-62480000D03*
%TD*%
D16*
%TO.C,J2*%
X104379999Y-89380000D03*
X104379999Y-99380000D03*
D17*
X111560000Y-99380000D03*
X111560000Y-96880000D03*
X111560000Y-94380000D03*
X111560000Y-91880000D03*
X111560000Y-89380000D03*
%TD*%
D16*
%TO.C,J1*%
X104379999Y-55480000D03*
X104379999Y-65480000D03*
D17*
X111560000Y-65480000D03*
X111560000Y-62980000D03*
X111560000Y-60480000D03*
X111560000Y-57980000D03*
X111560000Y-55480000D03*
%TD*%
D13*
%TO.C,*%
X191960000Y-47580000D03*
%TD*%
%TO.C,REF\u002A\u002A*%
X104660000Y-47580000D03*
%TD*%
D14*
%TO.C,REF\u002A\u002A*%
X196360000Y-59480000D03*
D15*
X195360000Y-59480000D03*
X194360000Y-59480000D03*
X193360000Y-59480000D03*
X192360000Y-59480000D03*
%TD*%
D11*
%TO.C,REF\u002A\u002A*%
X103060000Y-80755000D03*
D12*
X103060000Y-78215000D03*
X103060000Y-75675000D03*
%TD*%
%LPD*%
M02*
