%TF.GenerationSoftware,KiCad,Pcbnew,8.0.8*%
%TF.CreationDate,2025-02-15T02:41:27-07:00*%
%TF.ProjectId,ECE Capstone PCB Design,45434520-4361-4707-9374-6f6e65205043,rev?*%
%TF.SameCoordinates,Original*%
%TF.FileFunction,Drillmap*%
%TF.FilePolarity,Positive*%
%FSLAX45Y45*%
G04 Gerber Fmt 4.5, Leading zero omitted, Abs format (unit mm)*
G04 Created by KiCad (PCBNEW 8.0.8) date 2025-02-15 02:41:27*
%MOMM*%
%LPD*%
G01*
G04 APERTURE LIST*
%ADD10C,0.050000*%
%ADD11C,0.200000*%
%ADD12C,0.100000*%
%ADD13C,0.124460*%
%ADD14C,0.270000*%
G04 APERTURE END LIST*
D10*
X10466000Y-4408000D02*
X21256000Y-4408000D01*
X13926000Y-10748000D02*
G75*
G02*
X13576000Y-11098000I-350000J0D01*
G01*
X13576000Y-11098000D02*
X10466000Y-11098000D01*
X21606000Y-7698000D02*
G75*
G02*
X21256000Y-8048000I-350000J0D01*
G01*
X21606000Y-4758000D02*
X21606000Y-7698000D01*
X10116000Y-10748000D02*
X10116000Y-4758000D01*
X16842000Y-7148000D02*
X16842000Y-8048000D01*
X13927000Y-7148000D02*
X16842000Y-7148000D01*
X21256000Y-4408000D02*
G75*
G02*
X21606000Y-4758000I0J-350000D01*
G01*
X10116000Y-4758000D02*
G75*
G02*
X10466000Y-4408000I350000J0D01*
G01*
X10466000Y-11098000D02*
G75*
G02*
X10116000Y-10748000I0J350000D01*
G01*
X13926000Y-10748000D02*
X13927000Y-7148000D01*
X21256000Y-8048000D02*
X16842000Y-8048000D01*
D11*
D12*
X10241000Y-8283000D02*
X10271000Y-8313000D01*
X10271000Y-8283000D02*
X10241000Y-8313000D01*
X10241000Y-8483000D02*
X10271000Y-8513000D01*
X10271000Y-8483000D02*
X10241000Y-8513000D01*
X10241000Y-8683000D02*
X10271000Y-8713000D01*
X10271000Y-8683000D02*
X10241000Y-8713000D01*
X10261000Y-6933000D02*
X10291000Y-6963000D01*
X10291000Y-6933000D02*
X10261000Y-6963000D01*
X10341000Y-5183000D02*
X10371000Y-5213000D01*
X10371000Y-5183000D02*
X10341000Y-5213000D01*
X10341000Y-6033000D02*
X10371000Y-6063000D01*
X10371000Y-6033000D02*
X10341000Y-6063000D01*
X10341000Y-9683000D02*
X10371000Y-9713000D01*
X10371000Y-9683000D02*
X10341000Y-9713000D01*
X10441000Y-7083000D02*
X10471000Y-7113000D01*
X10471000Y-7083000D02*
X10441000Y-7113000D01*
X10441000Y-7283000D02*
X10471000Y-7313000D01*
X10471000Y-7283000D02*
X10441000Y-7313000D01*
X10441000Y-7483000D02*
X10471000Y-7513000D01*
X10471000Y-7483000D02*
X10441000Y-7513000D01*
X10441000Y-7683000D02*
X10471000Y-7713000D01*
X10471000Y-7683000D02*
X10441000Y-7713000D01*
X10441000Y-8283000D02*
X10471000Y-8313000D01*
X10471000Y-8283000D02*
X10441000Y-8313000D01*
X10441000Y-8483000D02*
X10471000Y-8513000D01*
X10471000Y-8483000D02*
X10441000Y-8513000D01*
X10441000Y-8683000D02*
X10471000Y-8713000D01*
X10471000Y-8683000D02*
X10441000Y-8713000D01*
X10541000Y-7383000D02*
X10571000Y-7413000D01*
X10571000Y-7383000D02*
X10541000Y-7413000D01*
X10591000Y-5183000D02*
X10621000Y-5213000D01*
X10621000Y-5183000D02*
X10591000Y-5213000D01*
X10591000Y-7183000D02*
X10621000Y-7213000D01*
X10621000Y-7183000D02*
X10591000Y-7213000D01*
X10621000Y-6953000D02*
X10651000Y-6983000D01*
X10651000Y-6953000D02*
X10621000Y-6983000D01*
X10641000Y-7483000D02*
X10671000Y-7513000D01*
X10671000Y-7483000D02*
X10641000Y-7513000D01*
X10641000Y-7683000D02*
X10671000Y-7713000D01*
X10671000Y-7683000D02*
X10641000Y-7713000D01*
X10641000Y-7883000D02*
X10671000Y-7913000D01*
X10671000Y-7883000D02*
X10641000Y-7913000D01*
X10641000Y-8283000D02*
X10671000Y-8313000D01*
X10671000Y-8283000D02*
X10641000Y-8313000D01*
X10641000Y-8483000D02*
X10671000Y-8513000D01*
X10671000Y-8483000D02*
X10641000Y-8513000D01*
X10641000Y-8683000D02*
X10671000Y-8713000D01*
X10671000Y-8683000D02*
X10641000Y-8713000D01*
X10711000Y-6853000D02*
X10741000Y-6883000D01*
X10741000Y-6853000D02*
X10711000Y-6883000D01*
X10731000Y-6413000D02*
X10761000Y-6443000D01*
X10761000Y-6413000D02*
X10731000Y-6443000D01*
X10741000Y-5563000D02*
X10771000Y-5593000D01*
X10771000Y-5563000D02*
X10741000Y-5593000D01*
X10741000Y-7383000D02*
X10771000Y-7413000D01*
X10771000Y-7383000D02*
X10741000Y-7413000D01*
X10801000Y-6853000D02*
X10831000Y-6883000D01*
X10831000Y-6853000D02*
X10801000Y-6883000D01*
X10831000Y-7903000D02*
X10861000Y-7933000D01*
X10861000Y-7903000D02*
X10831000Y-7933000D01*
X10841000Y-4683000D02*
X10871000Y-4713000D01*
X10871000Y-4683000D02*
X10841000Y-4713000D01*
X10841000Y-4933000D02*
X10871000Y-4963000D01*
X10871000Y-4933000D02*
X10841000Y-4963000D01*
X10841000Y-5183000D02*
X10871000Y-5213000D01*
X10871000Y-5183000D02*
X10841000Y-5213000D01*
X10841000Y-7483000D02*
X10871000Y-7513000D01*
X10871000Y-7483000D02*
X10841000Y-7513000D01*
X10841000Y-8083000D02*
X10871000Y-8113000D01*
X10871000Y-8083000D02*
X10841000Y-8113000D01*
X10841000Y-8283000D02*
X10871000Y-8313000D01*
X10871000Y-8283000D02*
X10841000Y-8313000D01*
X10841000Y-8483000D02*
X10871000Y-8513000D01*
X10871000Y-8483000D02*
X10841000Y-8513000D01*
X10841000Y-8683000D02*
X10871000Y-8713000D01*
X10871000Y-8683000D02*
X10841000Y-8713000D01*
X10841000Y-8883000D02*
X10871000Y-8913000D01*
X10871000Y-8883000D02*
X10841000Y-8913000D01*
X10841000Y-9083000D02*
X10871000Y-9113000D01*
X10871000Y-9083000D02*
X10841000Y-9113000D01*
X10841000Y-9483000D02*
X10871000Y-9513000D01*
X10871000Y-9483000D02*
X10841000Y-9513000D01*
X10841000Y-9683000D02*
X10871000Y-9713000D01*
X10871000Y-9683000D02*
X10841000Y-9713000D01*
X10841000Y-9883000D02*
X10871000Y-9913000D01*
X10871000Y-9883000D02*
X10841000Y-9913000D01*
X10841000Y-10083000D02*
X10871000Y-10113000D01*
X10871000Y-10083000D02*
X10841000Y-10113000D01*
X11011000Y-6853000D02*
X11041000Y-6883000D01*
X11041000Y-6853000D02*
X11011000Y-6883000D01*
X11016000Y-5658000D02*
X11046000Y-5688000D01*
X11046000Y-5658000D02*
X11016000Y-5688000D01*
X11016000Y-5908000D02*
X11046000Y-5938000D01*
X11046000Y-5908000D02*
X11016000Y-5938000D01*
X11016000Y-6158000D02*
X11046000Y-6188000D01*
X11046000Y-6158000D02*
X11016000Y-6188000D01*
X11041000Y-8483000D02*
X11071000Y-8513000D01*
X11071000Y-8483000D02*
X11041000Y-8513000D01*
X11041000Y-8683000D02*
X11071000Y-8713000D01*
X11071000Y-8683000D02*
X11041000Y-8713000D01*
X11041000Y-10083000D02*
X11071000Y-10113000D01*
X11071000Y-10083000D02*
X11041000Y-10113000D01*
X11091000Y-4683000D02*
X11121000Y-4713000D01*
X11121000Y-4683000D02*
X11091000Y-4713000D01*
X11091000Y-4933000D02*
X11121000Y-4963000D01*
X11121000Y-4933000D02*
X11091000Y-4963000D01*
X11091000Y-7483000D02*
X11121000Y-7513000D01*
X11121000Y-7483000D02*
X11091000Y-7513000D01*
X11091000Y-7903000D02*
X11121000Y-7933000D01*
X11121000Y-7903000D02*
X11091000Y-7933000D01*
X11141000Y-8083000D02*
X11171000Y-8113000D01*
X11171000Y-8083000D02*
X11141000Y-8113000D01*
X11141000Y-8283000D02*
X11171000Y-8313000D01*
X11171000Y-8283000D02*
X11141000Y-8313000D01*
X11171000Y-6843000D02*
X11201000Y-6873000D01*
X11201000Y-6843000D02*
X11171000Y-6873000D01*
X11191000Y-7383000D02*
X11221000Y-7413000D01*
X11221000Y-7383000D02*
X11191000Y-7413000D01*
X11241000Y-5333000D02*
X11271000Y-5363000D01*
X11271000Y-5333000D02*
X11241000Y-5363000D01*
X11241000Y-8683000D02*
X11271000Y-8713000D01*
X11271000Y-8683000D02*
X11241000Y-8713000D01*
X11241000Y-10083000D02*
X11271000Y-10113000D01*
X11271000Y-10083000D02*
X11241000Y-10113000D01*
X11251000Y-6843000D02*
X11281000Y-6873000D01*
X11281000Y-6843000D02*
X11251000Y-6873000D01*
X11341000Y-4683000D02*
X11371000Y-4713000D01*
X11371000Y-4683000D02*
X11341000Y-4713000D01*
X11341000Y-4933000D02*
X11371000Y-4963000D01*
X11371000Y-4933000D02*
X11341000Y-4963000D01*
X11341000Y-6843000D02*
X11371000Y-6873000D01*
X11371000Y-6843000D02*
X11341000Y-6873000D01*
X11341000Y-6943000D02*
X11371000Y-6973000D01*
X11371000Y-6943000D02*
X11341000Y-6973000D01*
X11341000Y-7483000D02*
X11371000Y-7513000D01*
X11371000Y-7483000D02*
X11341000Y-7513000D01*
X11341000Y-7903000D02*
X11371000Y-7933000D01*
X11371000Y-7903000D02*
X11341000Y-7933000D01*
X11341000Y-8083000D02*
X11371000Y-8113000D01*
X11371000Y-8083000D02*
X11341000Y-8113000D01*
X11341000Y-8283000D02*
X11371000Y-8313000D01*
X11371000Y-8283000D02*
X11341000Y-8313000D01*
X11341000Y-8483000D02*
X11371000Y-8513000D01*
X11371000Y-8483000D02*
X11341000Y-8513000D01*
X11341000Y-10683000D02*
X11371000Y-10713000D01*
X11371000Y-10683000D02*
X11341000Y-10713000D01*
X11441000Y-6133000D02*
X11471000Y-6163000D01*
X11471000Y-6133000D02*
X11441000Y-6163000D01*
X11441000Y-6283000D02*
X11471000Y-6313000D01*
X11471000Y-6283000D02*
X11441000Y-6313000D01*
X11441000Y-8883000D02*
X11471000Y-8913000D01*
X11471000Y-8883000D02*
X11441000Y-8913000D01*
X11441000Y-9083000D02*
X11471000Y-9113000D01*
X11471000Y-9083000D02*
X11441000Y-9113000D01*
X11441000Y-10083000D02*
X11471000Y-10113000D01*
X11471000Y-10083000D02*
X11441000Y-10113000D01*
X11451000Y-5943000D02*
X11481000Y-5973000D01*
X11481000Y-5943000D02*
X11451000Y-5973000D01*
X11491000Y-5343000D02*
X11521000Y-5373000D01*
X11521000Y-5343000D02*
X11491000Y-5373000D01*
X11521000Y-6923000D02*
X11551000Y-6953000D01*
X11551000Y-6923000D02*
X11521000Y-6953000D01*
X11541000Y-7033000D02*
X11571000Y-7063000D01*
X11571000Y-7033000D02*
X11541000Y-7063000D01*
X11591000Y-4683000D02*
X11621000Y-4713000D01*
X11621000Y-4683000D02*
X11591000Y-4713000D01*
X11591000Y-4933000D02*
X11621000Y-4963000D01*
X11621000Y-4933000D02*
X11591000Y-4963000D01*
X11621000Y-6853000D02*
X11651000Y-6883000D01*
X11651000Y-6853000D02*
X11621000Y-6883000D01*
X11621000Y-7903000D02*
X11651000Y-7933000D01*
X11651000Y-7903000D02*
X11621000Y-7933000D01*
X11641000Y-6133000D02*
X11671000Y-6163000D01*
X11671000Y-6133000D02*
X11641000Y-6163000D01*
X11641000Y-6283000D02*
X11671000Y-6313000D01*
X11671000Y-6283000D02*
X11641000Y-6313000D01*
X11641000Y-9083000D02*
X11671000Y-9113000D01*
X11671000Y-9083000D02*
X11641000Y-9113000D01*
X11641000Y-10083000D02*
X11671000Y-10113000D01*
X11671000Y-10083000D02*
X11641000Y-10113000D01*
X11841000Y-4683000D02*
X11871000Y-4713000D01*
X11871000Y-4683000D02*
X11841000Y-4713000D01*
X11841000Y-6133000D02*
X11871000Y-6163000D01*
X11871000Y-6133000D02*
X11841000Y-6163000D01*
X11841000Y-6283000D02*
X11871000Y-6313000D01*
X11871000Y-6283000D02*
X11841000Y-6313000D01*
X11841000Y-7933000D02*
X11871000Y-7963000D01*
X11871000Y-7933000D02*
X11841000Y-7963000D01*
X11841000Y-10083000D02*
X11871000Y-10113000D01*
X11871000Y-10083000D02*
X11841000Y-10113000D01*
X11871000Y-7253000D02*
X11901000Y-7283000D01*
X11901000Y-7253000D02*
X11871000Y-7283000D01*
X11891000Y-8383000D02*
X11921000Y-8413000D01*
X11921000Y-8383000D02*
X11891000Y-8413000D01*
X11921000Y-6843000D02*
X11951000Y-6873000D01*
X11951000Y-6843000D02*
X11921000Y-6873000D01*
X11921000Y-7033000D02*
X11951000Y-7063000D01*
X11951000Y-7033000D02*
X11921000Y-7063000D01*
X11931000Y-7603000D02*
X11961000Y-7633000D01*
X11961000Y-7603000D02*
X11931000Y-7633000D01*
X11931000Y-9183000D02*
X11961000Y-9213000D01*
X11961000Y-9183000D02*
X11931000Y-9213000D01*
X11991000Y-5933000D02*
X12021000Y-5963000D01*
X12021000Y-5933000D02*
X11991000Y-5963000D01*
X12031000Y-6133000D02*
X12061000Y-6163000D01*
X12061000Y-6133000D02*
X12031000Y-6163000D01*
X12041000Y-6283000D02*
X12071000Y-6313000D01*
X12071000Y-6283000D02*
X12041000Y-6313000D01*
X12041000Y-10083000D02*
X12071000Y-10113000D01*
X12071000Y-10083000D02*
X12041000Y-10113000D01*
X12091000Y-4683000D02*
X12121000Y-4713000D01*
X12121000Y-4683000D02*
X12091000Y-4713000D01*
X12091000Y-8383000D02*
X12121000Y-8413000D01*
X12121000Y-8383000D02*
X12091000Y-8413000D01*
X12181000Y-8753000D02*
X12211000Y-8783000D01*
X12211000Y-8753000D02*
X12181000Y-8783000D01*
X12181000Y-8933000D02*
X12211000Y-8963000D01*
X12211000Y-8933000D02*
X12181000Y-8963000D01*
X12191000Y-7683000D02*
X12221000Y-7713000D01*
X12221000Y-7683000D02*
X12191000Y-7713000D01*
X12191000Y-8233000D02*
X12221000Y-8263000D01*
X12221000Y-8233000D02*
X12191000Y-8263000D01*
X12211000Y-6283000D02*
X12241000Y-6313000D01*
X12241000Y-6283000D02*
X12211000Y-6313000D01*
X12241000Y-9183000D02*
X12271000Y-9213000D01*
X12271000Y-9183000D02*
X12241000Y-9213000D01*
X12241000Y-10083000D02*
X12271000Y-10113000D01*
X12271000Y-10083000D02*
X12241000Y-10113000D01*
X12291000Y-6833000D02*
X12321000Y-6863000D01*
X12321000Y-6833000D02*
X12291000Y-6863000D01*
X12311000Y-6023000D02*
X12341000Y-6053000D01*
X12341000Y-6023000D02*
X12311000Y-6053000D01*
X12341000Y-4683000D02*
X12371000Y-4713000D01*
X12371000Y-4683000D02*
X12341000Y-4713000D01*
X12341000Y-7283000D02*
X12371000Y-7313000D01*
X12371000Y-7283000D02*
X12341000Y-7313000D01*
X12341000Y-7483000D02*
X12371000Y-7513000D01*
X12371000Y-7483000D02*
X12341000Y-7513000D01*
X12341000Y-8383000D02*
X12371000Y-8413000D01*
X12371000Y-8383000D02*
X12341000Y-8413000D01*
X12341000Y-10683000D02*
X12371000Y-10713000D01*
X12371000Y-10683000D02*
X12341000Y-10713000D01*
X12391000Y-8233000D02*
X12421000Y-8263000D01*
X12421000Y-8233000D02*
X12391000Y-8263000D01*
X12391000Y-8733000D02*
X12421000Y-8763000D01*
X12421000Y-8733000D02*
X12391000Y-8763000D01*
X12441000Y-5708000D02*
X12471000Y-5738000D01*
X12471000Y-5708000D02*
X12441000Y-5738000D01*
X12441000Y-7183000D02*
X12471000Y-7213000D01*
X12471000Y-7183000D02*
X12441000Y-7213000D01*
X12441000Y-7383000D02*
X12471000Y-7413000D01*
X12471000Y-7383000D02*
X12441000Y-7413000D01*
X12441000Y-7583000D02*
X12471000Y-7613000D01*
X12471000Y-7583000D02*
X12441000Y-7613000D01*
X12441000Y-8983000D02*
X12471000Y-9013000D01*
X12471000Y-8983000D02*
X12441000Y-9013000D01*
X12441000Y-9183000D02*
X12471000Y-9213000D01*
X12471000Y-9183000D02*
X12441000Y-9213000D01*
X12441000Y-10083000D02*
X12471000Y-10113000D01*
X12471000Y-10083000D02*
X12441000Y-10113000D01*
X12461000Y-6283000D02*
X12491000Y-6313000D01*
X12491000Y-6283000D02*
X12461000Y-6313000D01*
X12467000Y-9309000D02*
X12497000Y-9339000D01*
X12497000Y-9309000D02*
X12467000Y-9339000D01*
X12481000Y-5283000D02*
X12511000Y-5313000D01*
X12511000Y-5283000D02*
X12481000Y-5313000D01*
X12491000Y-6833000D02*
X12521000Y-6863000D01*
X12521000Y-6833000D02*
X12491000Y-6863000D01*
X12491000Y-8533000D02*
X12521000Y-8563000D01*
X12521000Y-8533000D02*
X12491000Y-8563000D01*
X12591000Y-4683000D02*
X12621000Y-4713000D01*
X12621000Y-4683000D02*
X12591000Y-4713000D01*
X12616000Y-5883000D02*
X12646000Y-5913000D01*
X12646000Y-5883000D02*
X12616000Y-5913000D01*
X12661000Y-6153000D02*
X12691000Y-6183000D01*
X12691000Y-6153000D02*
X12661000Y-6183000D01*
X12766000Y-6213000D02*
X12796000Y-6243000D01*
X12796000Y-6213000D02*
X12766000Y-6243000D01*
X12841000Y-4683000D02*
X12871000Y-4713000D01*
X12871000Y-4683000D02*
X12841000Y-4713000D01*
X12841000Y-4933000D02*
X12871000Y-4963000D01*
X12871000Y-4933000D02*
X12841000Y-4963000D01*
X12841000Y-5133000D02*
X12871000Y-5163000D01*
X12871000Y-5133000D02*
X12841000Y-5163000D01*
X12841000Y-8783000D02*
X12871000Y-8813000D01*
X12871000Y-8783000D02*
X12841000Y-8813000D01*
X12841000Y-8983000D02*
X12871000Y-9013000D01*
X12871000Y-8983000D02*
X12841000Y-9013000D01*
X12841000Y-9183000D02*
X12871000Y-9213000D01*
X12871000Y-9183000D02*
X12841000Y-9213000D01*
X12841000Y-10503000D02*
X12871000Y-10533000D01*
X12871000Y-10503000D02*
X12841000Y-10533000D01*
X12851000Y-6293000D02*
X12881000Y-6323000D01*
X12881000Y-6293000D02*
X12851000Y-6323000D01*
X12891000Y-8083000D02*
X12921000Y-8113000D01*
X12921000Y-8083000D02*
X12891000Y-8113000D01*
X12891000Y-8283000D02*
X12921000Y-8313000D01*
X12921000Y-8283000D02*
X12891000Y-8313000D01*
X12901000Y-6123000D02*
X12931000Y-6153000D01*
X12931000Y-6123000D02*
X12901000Y-6153000D01*
X12916000Y-6398000D02*
X12946000Y-6428000D01*
X12946000Y-6398000D02*
X12916000Y-6428000D01*
X12941000Y-6783000D02*
X12971000Y-6813000D01*
X12971000Y-6783000D02*
X12941000Y-6813000D01*
X12941000Y-7483000D02*
X12971000Y-7513000D01*
X12971000Y-7483000D02*
X12941000Y-7513000D01*
X12941000Y-7783000D02*
X12971000Y-7813000D01*
X12971000Y-7783000D02*
X12941000Y-7813000D01*
X12941000Y-10183000D02*
X12971000Y-10213000D01*
X12971000Y-10183000D02*
X12941000Y-10213000D01*
X12991000Y-5133000D02*
X13021000Y-5163000D01*
X13021000Y-5133000D02*
X12991000Y-5163000D01*
X13021000Y-8713000D02*
X13051000Y-8743000D01*
X13051000Y-8713000D02*
X13021000Y-8743000D01*
X13041000Y-8183000D02*
X13071000Y-8213000D01*
X13071000Y-8183000D02*
X13041000Y-8213000D01*
X13041000Y-8383000D02*
X13071000Y-8413000D01*
X13071000Y-8383000D02*
X13041000Y-8413000D01*
X13041000Y-8983000D02*
X13071000Y-9013000D01*
X13071000Y-8983000D02*
X13041000Y-9013000D01*
X13041000Y-9183000D02*
X13071000Y-9213000D01*
X13071000Y-9183000D02*
X13041000Y-9213000D01*
X13041000Y-10033000D02*
X13071000Y-10063000D01*
X13071000Y-10033000D02*
X13041000Y-10063000D01*
X13041000Y-10983000D02*
X13071000Y-11013000D01*
X13071000Y-10983000D02*
X13041000Y-11013000D01*
X13091000Y-4683000D02*
X13121000Y-4713000D01*
X13121000Y-4683000D02*
X13091000Y-4713000D01*
X13091000Y-4933000D02*
X13121000Y-4963000D01*
X13121000Y-4933000D02*
X13091000Y-4963000D01*
X13101000Y-10533000D02*
X13131000Y-10563000D01*
X13131000Y-10533000D02*
X13101000Y-10563000D01*
X13116000Y-5133000D02*
X13146000Y-5163000D01*
X13146000Y-5133000D02*
X13116000Y-5163000D01*
X13131000Y-7245780D02*
X13161000Y-7275780D01*
X13161000Y-7245780D02*
X13131000Y-7275780D01*
X13191000Y-6533000D02*
X13221000Y-6563000D01*
X13221000Y-6533000D02*
X13191000Y-6563000D01*
X13241000Y-6333000D02*
X13271000Y-6363000D01*
X13271000Y-6333000D02*
X13241000Y-6363000D01*
X13241000Y-7783000D02*
X13271000Y-7813000D01*
X13271000Y-7783000D02*
X13241000Y-7813000D01*
X13241000Y-8083000D02*
X13271000Y-8113000D01*
X13271000Y-8083000D02*
X13241000Y-8113000D01*
X13261000Y-6113000D02*
X13291000Y-6143000D01*
X13291000Y-6113000D02*
X13261000Y-6143000D01*
X13266000Y-5133000D02*
X13296000Y-5163000D01*
X13296000Y-5133000D02*
X13266000Y-5163000D01*
X13291000Y-6533000D02*
X13321000Y-6563000D01*
X13321000Y-6533000D02*
X13291000Y-6563000D01*
X13341000Y-4683000D02*
X13371000Y-4713000D01*
X13371000Y-4683000D02*
X13341000Y-4713000D01*
X13341000Y-4933000D02*
X13371000Y-4963000D01*
X13371000Y-4933000D02*
X13341000Y-4963000D01*
X13341000Y-7483000D02*
X13371000Y-7513000D01*
X13371000Y-7483000D02*
X13341000Y-7513000D01*
X13391000Y-5183000D02*
X13421000Y-5213000D01*
X13421000Y-5183000D02*
X13391000Y-5213000D01*
X13441000Y-6333000D02*
X13471000Y-6363000D01*
X13471000Y-6333000D02*
X13441000Y-6363000D01*
X13441000Y-6533000D02*
X13471000Y-6563000D01*
X13471000Y-6533000D02*
X13441000Y-6563000D01*
X13521000Y-8193000D02*
X13551000Y-8223000D01*
X13551000Y-8193000D02*
X13521000Y-8223000D01*
X13541000Y-7483000D02*
X13571000Y-7513000D01*
X13571000Y-7483000D02*
X13541000Y-7513000D01*
X13541000Y-7683000D02*
X13571000Y-7713000D01*
X13571000Y-7683000D02*
X13541000Y-7713000D01*
X13541000Y-10983000D02*
X13571000Y-11013000D01*
X13571000Y-10983000D02*
X13541000Y-11013000D01*
X13591000Y-4683000D02*
X13621000Y-4713000D01*
X13621000Y-4683000D02*
X13591000Y-4713000D01*
X13591000Y-4933000D02*
X13621000Y-4963000D01*
X13621000Y-4933000D02*
X13591000Y-4963000D01*
X13591000Y-5183000D02*
X13621000Y-5213000D01*
X13621000Y-5183000D02*
X13591000Y-5213000D01*
X13591000Y-6533000D02*
X13621000Y-6563000D01*
X13621000Y-6533000D02*
X13591000Y-6563000D01*
X13591000Y-6683000D02*
X13621000Y-6713000D01*
X13621000Y-6683000D02*
X13591000Y-6713000D01*
X13691000Y-5283000D02*
X13721000Y-5313000D01*
X13721000Y-5283000D02*
X13691000Y-5313000D01*
X13691000Y-7033000D02*
X13721000Y-7063000D01*
X13721000Y-7033000D02*
X13691000Y-7063000D01*
X13711000Y-6263000D02*
X13741000Y-6293000D01*
X13741000Y-6263000D02*
X13711000Y-6293000D01*
X13716000Y-5683000D02*
X13746000Y-5713000D01*
X13746000Y-5683000D02*
X13716000Y-5713000D01*
X13716000Y-5958000D02*
X13746000Y-5988000D01*
X13746000Y-5958000D02*
X13716000Y-5988000D01*
X13741000Y-5083000D02*
X13771000Y-5113000D01*
X13771000Y-5083000D02*
X13741000Y-5113000D01*
X13741000Y-6533000D02*
X13771000Y-6563000D01*
X13771000Y-6533000D02*
X13741000Y-6563000D01*
X13741000Y-6683000D02*
X13771000Y-6713000D01*
X13771000Y-6683000D02*
X13741000Y-6713000D01*
X13741000Y-8143000D02*
X13771000Y-8173000D01*
X13771000Y-8143000D02*
X13741000Y-8173000D01*
X13741000Y-8483000D02*
X13771000Y-8513000D01*
X13771000Y-8483000D02*
X13741000Y-8513000D01*
X13741000Y-8683000D02*
X13771000Y-8713000D01*
X13771000Y-8683000D02*
X13741000Y-8713000D01*
X13741000Y-8883000D02*
X13771000Y-8913000D01*
X13771000Y-8883000D02*
X13741000Y-8913000D01*
X13741000Y-9083000D02*
X13771000Y-9113000D01*
X13771000Y-9083000D02*
X13741000Y-9113000D01*
X13741000Y-9283000D02*
X13771000Y-9313000D01*
X13771000Y-9283000D02*
X13741000Y-9313000D01*
X13741000Y-9483000D02*
X13771000Y-9513000D01*
X13771000Y-9483000D02*
X13741000Y-9513000D01*
X13741000Y-9683000D02*
X13771000Y-9713000D01*
X13771000Y-9683000D02*
X13741000Y-9713000D01*
X13741000Y-9883000D02*
X13771000Y-9913000D01*
X13771000Y-9883000D02*
X13741000Y-9913000D01*
X13741000Y-10083000D02*
X13771000Y-10113000D01*
X13771000Y-10083000D02*
X13741000Y-10113000D01*
X13741000Y-10283000D02*
X13771000Y-10313000D01*
X13771000Y-10283000D02*
X13741000Y-10313000D01*
X13741000Y-10583000D02*
X13771000Y-10613000D01*
X13771000Y-10583000D02*
X13741000Y-10613000D01*
X13741000Y-10783000D02*
X13771000Y-10813000D01*
X13771000Y-10783000D02*
X13741000Y-10813000D01*
X13781000Y-10673000D02*
X13811000Y-10703000D01*
X13811000Y-10673000D02*
X13781000Y-10703000D01*
X13841000Y-4683000D02*
X13871000Y-4713000D01*
X13871000Y-4683000D02*
X13841000Y-4713000D01*
X13841000Y-4883000D02*
X13871000Y-4913000D01*
X13871000Y-4883000D02*
X13841000Y-4913000D01*
X13891000Y-6533000D02*
X13921000Y-6563000D01*
X13921000Y-6533000D02*
X13891000Y-6563000D01*
X13891000Y-6683000D02*
X13921000Y-6713000D01*
X13921000Y-6683000D02*
X13891000Y-6713000D01*
X13981000Y-6023000D02*
X14011000Y-6053000D01*
X14011000Y-6023000D02*
X13981000Y-6053000D01*
X13991000Y-5283000D02*
X14021000Y-5313000D01*
X14021000Y-5283000D02*
X13991000Y-5313000D01*
X14091000Y-4683000D02*
X14121000Y-4713000D01*
X14121000Y-4683000D02*
X14091000Y-4713000D01*
X14091000Y-4883000D02*
X14121000Y-4913000D01*
X14121000Y-4883000D02*
X14091000Y-4913000D01*
X14241000Y-5183000D02*
X14271000Y-5213000D01*
X14271000Y-5183000D02*
X14241000Y-5213000D01*
X14241000Y-6483000D02*
X14271000Y-6513000D01*
X14271000Y-6483000D02*
X14241000Y-6513000D01*
X14291000Y-6133000D02*
X14321000Y-6163000D01*
X14321000Y-6133000D02*
X14291000Y-6163000D01*
X14341000Y-4683000D02*
X14371000Y-4713000D01*
X14371000Y-4683000D02*
X14341000Y-4713000D01*
X14341000Y-4883000D02*
X14371000Y-4913000D01*
X14371000Y-4883000D02*
X14341000Y-4913000D01*
X14391000Y-6733000D02*
X14421000Y-6763000D01*
X14421000Y-6733000D02*
X14391000Y-6763000D01*
X14501000Y-6353000D02*
X14531000Y-6383000D01*
X14531000Y-6353000D02*
X14501000Y-6383000D01*
X14546378Y-6653000D02*
X14576378Y-6683000D01*
X14576378Y-6653000D02*
X14546378Y-6683000D01*
X14591000Y-4683000D02*
X14621000Y-4713000D01*
X14621000Y-4683000D02*
X14591000Y-4713000D01*
X14591000Y-4933000D02*
X14621000Y-4963000D01*
X14621000Y-4933000D02*
X14591000Y-4963000D01*
X14621000Y-6953000D02*
X14651000Y-6983000D01*
X14651000Y-6953000D02*
X14621000Y-6983000D01*
X14641000Y-5483000D02*
X14671000Y-5513000D01*
X14671000Y-5483000D02*
X14641000Y-5513000D01*
X14641000Y-5683000D02*
X14671000Y-5713000D01*
X14671000Y-5683000D02*
X14641000Y-5713000D01*
X14716000Y-5108000D02*
X14746000Y-5138000D01*
X14746000Y-5108000D02*
X14716000Y-5138000D01*
X14741000Y-6683000D02*
X14771000Y-6713000D01*
X14771000Y-6683000D02*
X14741000Y-6713000D01*
X14841000Y-4683000D02*
X14871000Y-4713000D01*
X14871000Y-4683000D02*
X14841000Y-4713000D01*
X14841000Y-4933000D02*
X14871000Y-4963000D01*
X14871000Y-4933000D02*
X14841000Y-4963000D01*
X14841000Y-5483000D02*
X14871000Y-5513000D01*
X14871000Y-5483000D02*
X14841000Y-5513000D01*
X14841000Y-5683000D02*
X14871000Y-5713000D01*
X14871000Y-5683000D02*
X14841000Y-5713000D01*
X14941000Y-6683000D02*
X14971000Y-6713000D01*
X14971000Y-6683000D02*
X14941000Y-6713000D01*
X14996491Y-5333000D02*
X15026491Y-5363000D01*
X15026491Y-5333000D02*
X14996491Y-5363000D01*
X14996491Y-6388491D02*
X15026491Y-6418491D01*
X15026491Y-6388491D02*
X14996491Y-6418491D01*
X15046504Y-5408000D02*
X15076504Y-5438000D01*
X15076504Y-5408000D02*
X15046504Y-5438000D01*
X15046504Y-6288504D02*
X15076504Y-6318504D01*
X15076504Y-6288504D02*
X15046504Y-6318504D01*
X15091000Y-4683000D02*
X15121000Y-4713000D01*
X15121000Y-4683000D02*
X15091000Y-4713000D01*
X15096516Y-5333000D02*
X15126516Y-5363000D01*
X15126516Y-5333000D02*
X15096516Y-5363000D01*
X15096516Y-6388516D02*
X15126516Y-6418516D01*
X15126516Y-6388516D02*
X15096516Y-6418516D01*
X15141000Y-6683000D02*
X15171000Y-6713000D01*
X15171000Y-6683000D02*
X15141000Y-6713000D01*
X15146529Y-5408000D02*
X15176529Y-5438000D01*
X15176529Y-5408000D02*
X15146529Y-5438000D01*
X15146529Y-6288529D02*
X15176529Y-6318529D01*
X15176529Y-6288529D02*
X15146529Y-6318529D01*
X15196541Y-5333000D02*
X15226541Y-5363000D01*
X15226541Y-5333000D02*
X15196541Y-5363000D01*
X15196541Y-6388541D02*
X15226541Y-6418541D01*
X15226541Y-6388541D02*
X15196541Y-6418541D01*
X15246554Y-5408000D02*
X15276554Y-5438000D01*
X15276554Y-5408000D02*
X15246554Y-5438000D01*
X15246554Y-6288554D02*
X15276554Y-6318554D01*
X15276554Y-6288554D02*
X15246554Y-6318554D01*
X15251000Y-6953000D02*
X15281000Y-6983000D01*
X15281000Y-6953000D02*
X15251000Y-6983000D01*
X15296567Y-5333000D02*
X15326567Y-5363000D01*
X15326567Y-5333000D02*
X15296567Y-5363000D01*
X15296567Y-6388567D02*
X15326567Y-6418567D01*
X15326567Y-6388567D02*
X15296567Y-6418567D01*
X15341000Y-6683000D02*
X15371000Y-6713000D01*
X15371000Y-6683000D02*
X15341000Y-6713000D01*
X15346579Y-5408000D02*
X15376579Y-5438000D01*
X15376579Y-5408000D02*
X15346579Y-5438000D01*
X15346579Y-6288579D02*
X15376579Y-6318579D01*
X15376579Y-6288579D02*
X15346579Y-6318579D01*
X15396592Y-4833000D02*
X15426592Y-4863000D01*
X15426592Y-4833000D02*
X15396592Y-4863000D01*
X15396592Y-6388592D02*
X15426592Y-6418592D01*
X15426592Y-6388592D02*
X15396592Y-6418592D01*
X15446604Y-4908000D02*
X15476604Y-4938000D01*
X15476604Y-4908000D02*
X15446604Y-4938000D01*
X15446604Y-6288604D02*
X15476604Y-6318604D01*
X15476604Y-6288604D02*
X15446604Y-6318604D01*
X15496617Y-4833000D02*
X15526617Y-4863000D01*
X15526617Y-4833000D02*
X15496617Y-4863000D01*
X15496617Y-6388617D02*
X15526617Y-6418617D01*
X15526617Y-6388617D02*
X15496617Y-6418617D01*
X15541000Y-6683000D02*
X15571000Y-6713000D01*
X15571000Y-6683000D02*
X15541000Y-6713000D01*
X15546630Y-4908000D02*
X15576630Y-4938000D01*
X15576630Y-4908000D02*
X15546630Y-4938000D01*
X15546630Y-6288630D02*
X15576630Y-6318630D01*
X15576630Y-6288630D02*
X15546630Y-6318630D01*
X15596642Y-4833000D02*
X15626642Y-4863000D01*
X15626642Y-4833000D02*
X15596642Y-4863000D01*
X15596642Y-6388642D02*
X15626642Y-6418642D01*
X15626642Y-6388642D02*
X15596642Y-6418642D01*
X15646655Y-4908000D02*
X15676655Y-4938000D01*
X15676655Y-4908000D02*
X15646655Y-4938000D01*
X15646655Y-6288655D02*
X15676655Y-6318655D01*
X15676655Y-6288655D02*
X15646655Y-6318655D01*
X15696667Y-4833000D02*
X15726667Y-4863000D01*
X15726667Y-4833000D02*
X15696667Y-4863000D01*
X15696667Y-6388667D02*
X15726667Y-6418667D01*
X15726667Y-6388667D02*
X15696667Y-6418667D01*
X15741000Y-6983000D02*
X15771000Y-7013000D01*
X15771000Y-6983000D02*
X15741000Y-7013000D01*
X15746680Y-4908000D02*
X15776680Y-4938000D01*
X15776680Y-4908000D02*
X15746680Y-4938000D01*
X15746680Y-6288680D02*
X15776680Y-6318680D01*
X15776680Y-6288680D02*
X15746680Y-6318680D01*
X15831000Y-6653000D02*
X15861000Y-6683000D01*
X15861000Y-6653000D02*
X15831000Y-6683000D01*
X15861000Y-5963000D02*
X15891000Y-5993000D01*
X15891000Y-5963000D02*
X15861000Y-5993000D01*
X15891000Y-6183000D02*
X15921000Y-6213000D01*
X15921000Y-6183000D02*
X15891000Y-6213000D01*
X15941000Y-6383000D02*
X15971000Y-6413000D01*
X15971000Y-6383000D02*
X15941000Y-6413000D01*
X15941000Y-6733000D02*
X15971000Y-6763000D01*
X15971000Y-6733000D02*
X15941000Y-6763000D01*
X16011000Y-5403000D02*
X16041000Y-5433000D01*
X16041000Y-5403000D02*
X16011000Y-5433000D01*
X16041000Y-6033000D02*
X16071000Y-6063000D01*
X16071000Y-6033000D02*
X16041000Y-6063000D01*
X16041000Y-6983000D02*
X16071000Y-7013000D01*
X16071000Y-6983000D02*
X16041000Y-7013000D01*
X16051000Y-6283000D02*
X16081000Y-6313000D01*
X16081000Y-6283000D02*
X16051000Y-6313000D01*
X16051000Y-6413000D02*
X16081000Y-6443000D01*
X16081000Y-6413000D02*
X16051000Y-6443000D01*
X16151000Y-4903000D02*
X16181000Y-4933000D01*
X16181000Y-4903000D02*
X16151000Y-4933000D01*
X16191000Y-6733000D02*
X16221000Y-6763000D01*
X16221000Y-6733000D02*
X16191000Y-6763000D01*
X16241000Y-6033000D02*
X16271000Y-6063000D01*
X16271000Y-6033000D02*
X16241000Y-6063000D01*
X16241000Y-6383000D02*
X16271000Y-6413000D01*
X16271000Y-6383000D02*
X16241000Y-6413000D01*
X16261000Y-6233000D02*
X16291000Y-6263000D01*
X16291000Y-6233000D02*
X16261000Y-6263000D01*
X16391000Y-7033000D02*
X16421000Y-7063000D01*
X16421000Y-7033000D02*
X16391000Y-7063000D01*
X16541000Y-6483000D02*
X16571000Y-6513000D01*
X16571000Y-6483000D02*
X16541000Y-6513000D01*
X16671000Y-6503000D02*
X16701000Y-6533000D01*
X16701000Y-6503000D02*
X16671000Y-6533000D01*
X16771000Y-6503000D02*
X16801000Y-6533000D01*
X16801000Y-6503000D02*
X16771000Y-6533000D01*
X16791000Y-7033000D02*
X16821000Y-7063000D01*
X16821000Y-7033000D02*
X16791000Y-7063000D01*
X16821000Y-6103000D02*
X16851000Y-6133000D01*
X16851000Y-6103000D02*
X16821000Y-6133000D01*
X16841000Y-5423000D02*
X16871000Y-5453000D01*
X16871000Y-5423000D02*
X16841000Y-5453000D01*
X16841000Y-6733000D02*
X16871000Y-6763000D01*
X16871000Y-6733000D02*
X16841000Y-6763000D01*
X16941000Y-7583000D02*
X16971000Y-7613000D01*
X16971000Y-7583000D02*
X16941000Y-7613000D01*
X16941000Y-7783000D02*
X16971000Y-7813000D01*
X16971000Y-7783000D02*
X16941000Y-7813000D01*
X16966000Y-7158000D02*
X16996000Y-7188000D01*
X16996000Y-7158000D02*
X16966000Y-7188000D01*
X17016000Y-7958000D02*
X17046000Y-7988000D01*
X17046000Y-7958000D02*
X17016000Y-7988000D01*
X17041000Y-6583000D02*
X17071000Y-6613000D01*
X17071000Y-6583000D02*
X17041000Y-6613000D01*
X17116000Y-5883000D02*
X17146000Y-5913000D01*
X17146000Y-5883000D02*
X17116000Y-5913000D01*
X17116000Y-7433000D02*
X17146000Y-7463000D01*
X17146000Y-7433000D02*
X17116000Y-7463000D01*
X17191000Y-6458000D02*
X17221000Y-6488000D01*
X17221000Y-6458000D02*
X17191000Y-6488000D01*
X17241000Y-5358000D02*
X17271000Y-5388000D01*
X17271000Y-5358000D02*
X17241000Y-5388000D01*
X17241000Y-6883000D02*
X17271000Y-6913000D01*
X17271000Y-6883000D02*
X17241000Y-6913000D01*
X17241000Y-7958000D02*
X17271000Y-7988000D01*
X17271000Y-7958000D02*
X17241000Y-7988000D01*
X17316000Y-7433000D02*
X17346000Y-7463000D01*
X17346000Y-7433000D02*
X17316000Y-7463000D01*
X17441000Y-6883000D02*
X17471000Y-6913000D01*
X17471000Y-6883000D02*
X17441000Y-6913000D01*
X17461000Y-4983000D02*
X17491000Y-5013000D01*
X17491000Y-4983000D02*
X17461000Y-5013000D01*
X17481000Y-6333000D02*
X17511000Y-6363000D01*
X17511000Y-6333000D02*
X17481000Y-6363000D01*
X17491000Y-7208000D02*
X17521000Y-7238000D01*
X17521000Y-7208000D02*
X17491000Y-7238000D01*
X17491000Y-7958000D02*
X17521000Y-7988000D01*
X17521000Y-7958000D02*
X17491000Y-7988000D01*
X17616000Y-4558000D02*
X17646000Y-4588000D01*
X17646000Y-4558000D02*
X17616000Y-4588000D01*
X17641000Y-6883000D02*
X17671000Y-6913000D01*
X17671000Y-6883000D02*
X17641000Y-6913000D01*
X17741000Y-7208000D02*
X17771000Y-7238000D01*
X17771000Y-7208000D02*
X17741000Y-7238000D01*
X17741000Y-7958000D02*
X17771000Y-7988000D01*
X17771000Y-7958000D02*
X17741000Y-7988000D01*
X17811000Y-4763000D02*
X17841000Y-4793000D01*
X17841000Y-4763000D02*
X17811000Y-4793000D01*
X17841000Y-4558000D02*
X17871000Y-4588000D01*
X17871000Y-4558000D02*
X17841000Y-4588000D01*
X17841000Y-6883000D02*
X17871000Y-6913000D01*
X17871000Y-6883000D02*
X17841000Y-6913000D01*
X17881000Y-4873000D02*
X17911000Y-4903000D01*
X17911000Y-4873000D02*
X17881000Y-4903000D01*
X17891000Y-4458000D02*
X17921000Y-4488000D01*
X17921000Y-4458000D02*
X17891000Y-4488000D01*
X17948840Y-6533000D02*
X17978840Y-6563000D01*
X17978840Y-6533000D02*
X17948840Y-6563000D01*
X17966000Y-4933000D02*
X17996000Y-4963000D01*
X17996000Y-4933000D02*
X17966000Y-4963000D01*
X17991000Y-7208000D02*
X18021000Y-7238000D01*
X18021000Y-7208000D02*
X17991000Y-7238000D01*
X17991000Y-7958000D02*
X18021000Y-7988000D01*
X18021000Y-7958000D02*
X17991000Y-7988000D01*
X18041000Y-6883000D02*
X18071000Y-6913000D01*
X18071000Y-6883000D02*
X18041000Y-6913000D01*
X18098840Y-5250160D02*
X18128840Y-5280160D01*
X18128840Y-5250160D02*
X18098840Y-5280160D01*
X18116000Y-4933000D02*
X18146000Y-4963000D01*
X18146000Y-4933000D02*
X18116000Y-4963000D01*
X18141000Y-4458000D02*
X18171000Y-4488000D01*
X18171000Y-4458000D02*
X18141000Y-4488000D01*
X18191000Y-5353000D02*
X18221000Y-5383000D01*
X18221000Y-5353000D02*
X18191000Y-5383000D01*
X18191000Y-6458000D02*
X18221000Y-6488000D01*
X18221000Y-6458000D02*
X18191000Y-6488000D01*
X18241000Y-4973000D02*
X18271000Y-5003000D01*
X18271000Y-4973000D02*
X18241000Y-5003000D01*
X18241000Y-6883000D02*
X18271000Y-6913000D01*
X18271000Y-6883000D02*
X18241000Y-6913000D01*
X18241000Y-7308000D02*
X18271000Y-7338000D01*
X18271000Y-7308000D02*
X18241000Y-7338000D01*
X18266000Y-7808000D02*
X18296000Y-7838000D01*
X18296000Y-7808000D02*
X18266000Y-7838000D01*
X18266000Y-7958000D02*
X18296000Y-7988000D01*
X18296000Y-7958000D02*
X18266000Y-7988000D01*
X18291000Y-7158000D02*
X18321000Y-7188000D01*
X18321000Y-7158000D02*
X18291000Y-7188000D01*
X18311000Y-4943000D02*
X18341000Y-4973000D01*
X18341000Y-4943000D02*
X18311000Y-4973000D01*
X18391000Y-4458000D02*
X18421000Y-4488000D01*
X18421000Y-4458000D02*
X18391000Y-4488000D01*
X18391000Y-5558000D02*
X18421000Y-5588000D01*
X18421000Y-5558000D02*
X18391000Y-5588000D01*
X18391000Y-5883000D02*
X18421000Y-5913000D01*
X18421000Y-5883000D02*
X18391000Y-5913000D01*
X18391000Y-6063000D02*
X18421000Y-6093000D01*
X18421000Y-6063000D02*
X18391000Y-6093000D01*
X18391000Y-6203000D02*
X18421000Y-6233000D01*
X18421000Y-6203000D02*
X18391000Y-6233000D01*
X18416000Y-7808000D02*
X18446000Y-7838000D01*
X18446000Y-7808000D02*
X18416000Y-7838000D01*
X18416000Y-7958000D02*
X18446000Y-7988000D01*
X18446000Y-7958000D02*
X18416000Y-7988000D01*
X18441000Y-6883000D02*
X18471000Y-6913000D01*
X18471000Y-6883000D02*
X18441000Y-6913000D01*
X18491000Y-4983000D02*
X18521000Y-5013000D01*
X18521000Y-4983000D02*
X18491000Y-5013000D01*
X18491000Y-5083000D02*
X18521000Y-5113000D01*
X18521000Y-5083000D02*
X18491000Y-5113000D01*
X18491000Y-5183000D02*
X18521000Y-5213000D01*
X18521000Y-5183000D02*
X18491000Y-5213000D01*
X18491000Y-7383000D02*
X18521000Y-7413000D01*
X18521000Y-7383000D02*
X18491000Y-7413000D01*
X18531000Y-6593000D02*
X18561000Y-6623000D01*
X18561000Y-6593000D02*
X18531000Y-6623000D01*
X18611000Y-6543000D02*
X18641000Y-6573000D01*
X18641000Y-6543000D02*
X18611000Y-6573000D01*
X18616000Y-4458000D02*
X18646000Y-4488000D01*
X18646000Y-4458000D02*
X18616000Y-4488000D01*
X18641000Y-4983000D02*
X18671000Y-5013000D01*
X18671000Y-4983000D02*
X18641000Y-5013000D01*
X18641000Y-5083000D02*
X18671000Y-5113000D01*
X18671000Y-5083000D02*
X18641000Y-5113000D01*
X18641000Y-5183000D02*
X18671000Y-5213000D01*
X18671000Y-5183000D02*
X18641000Y-5213000D01*
X18641000Y-6733000D02*
X18671000Y-6763000D01*
X18671000Y-6733000D02*
X18641000Y-6763000D01*
X18641000Y-6933000D02*
X18671000Y-6963000D01*
X18671000Y-6933000D02*
X18641000Y-6963000D01*
X18641000Y-7583000D02*
X18671000Y-7613000D01*
X18671000Y-7583000D02*
X18641000Y-7613000D01*
X18641000Y-7783000D02*
X18671000Y-7813000D01*
X18671000Y-7783000D02*
X18641000Y-7813000D01*
X18641000Y-7958000D02*
X18671000Y-7988000D01*
X18671000Y-7958000D02*
X18641000Y-7988000D01*
X18666000Y-7183000D02*
X18696000Y-7213000D01*
X18696000Y-7183000D02*
X18666000Y-7213000D01*
X18791000Y-5483000D02*
X18821000Y-5513000D01*
X18821000Y-5483000D02*
X18791000Y-5513000D01*
X18841000Y-6933000D02*
X18871000Y-6963000D01*
X18871000Y-6933000D02*
X18841000Y-6963000D01*
X18841000Y-7183000D02*
X18871000Y-7213000D01*
X18871000Y-7183000D02*
X18841000Y-7213000D01*
X18841000Y-7383000D02*
X18871000Y-7413000D01*
X18871000Y-7383000D02*
X18841000Y-7413000D01*
X18841000Y-7583000D02*
X18871000Y-7613000D01*
X18871000Y-7583000D02*
X18841000Y-7613000D01*
X18841000Y-7783000D02*
X18871000Y-7813000D01*
X18871000Y-7783000D02*
X18841000Y-7813000D01*
X18841000Y-7958000D02*
X18871000Y-7988000D01*
X18871000Y-7958000D02*
X18841000Y-7988000D01*
X18846000Y-6784000D02*
X18876000Y-6814000D01*
X18876000Y-6784000D02*
X18846000Y-6814000D01*
X18891000Y-5393000D02*
X18921000Y-5423000D01*
X18921000Y-5393000D02*
X18891000Y-5423000D01*
X18891000Y-5483000D02*
X18921000Y-5513000D01*
X18921000Y-5483000D02*
X18891000Y-5513000D01*
X18951000Y-6113000D02*
X18981000Y-6143000D01*
X18981000Y-6113000D02*
X18951000Y-6143000D01*
X19016000Y-5908000D02*
X19046000Y-5938000D01*
X19046000Y-5908000D02*
X19016000Y-5938000D01*
X19041000Y-5283000D02*
X19071000Y-5313000D01*
X19071000Y-5283000D02*
X19041000Y-5313000D01*
X19041000Y-5383000D02*
X19071000Y-5413000D01*
X19071000Y-5383000D02*
X19041000Y-5413000D01*
X19041000Y-5483000D02*
X19071000Y-5513000D01*
X19071000Y-5483000D02*
X19041000Y-5513000D01*
X19041000Y-6733000D02*
X19071000Y-6763000D01*
X19071000Y-6733000D02*
X19041000Y-6763000D01*
X19041000Y-6933000D02*
X19071000Y-6963000D01*
X19071000Y-6933000D02*
X19041000Y-6963000D01*
X19041000Y-7183000D02*
X19071000Y-7213000D01*
X19071000Y-7183000D02*
X19041000Y-7213000D01*
X19041000Y-7383000D02*
X19071000Y-7413000D01*
X19071000Y-7383000D02*
X19041000Y-7413000D01*
X19041000Y-7583000D02*
X19071000Y-7613000D01*
X19071000Y-7583000D02*
X19041000Y-7613000D01*
X19041000Y-7783000D02*
X19071000Y-7813000D01*
X19071000Y-7783000D02*
X19041000Y-7813000D01*
X19041000Y-7958000D02*
X19071000Y-7988000D01*
X19071000Y-7958000D02*
X19041000Y-7988000D01*
X19091000Y-6383000D02*
X19121000Y-6413000D01*
X19121000Y-6383000D02*
X19091000Y-6413000D01*
X19091000Y-6583000D02*
X19121000Y-6613000D01*
X19121000Y-6583000D02*
X19091000Y-6613000D01*
X19218000Y-5691000D02*
X19248000Y-5721000D01*
X19248000Y-5691000D02*
X19218000Y-5721000D01*
X19241000Y-5283000D02*
X19271000Y-5313000D01*
X19271000Y-5283000D02*
X19241000Y-5313000D01*
X19241000Y-5383000D02*
X19271000Y-5413000D01*
X19271000Y-5383000D02*
X19241000Y-5413000D01*
X19241000Y-5483000D02*
X19271000Y-5513000D01*
X19271000Y-5483000D02*
X19241000Y-5513000D01*
X19241000Y-6533000D02*
X19271000Y-6563000D01*
X19271000Y-6533000D02*
X19241000Y-6563000D01*
X19241000Y-6733000D02*
X19271000Y-6763000D01*
X19271000Y-6733000D02*
X19241000Y-6763000D01*
X19441000Y-5283000D02*
X19471000Y-5313000D01*
X19471000Y-5283000D02*
X19441000Y-5313000D01*
X19441000Y-5383000D02*
X19471000Y-5413000D01*
X19471000Y-5383000D02*
X19441000Y-5413000D01*
X19441000Y-5583000D02*
X19471000Y-5613000D01*
X19471000Y-5583000D02*
X19441000Y-5613000D01*
X19441000Y-6533000D02*
X19471000Y-6563000D01*
X19471000Y-6533000D02*
X19441000Y-6563000D01*
X19441000Y-6733000D02*
X19471000Y-6763000D01*
X19471000Y-6733000D02*
X19441000Y-6763000D01*
X19541000Y-4583000D02*
X19571000Y-4613000D01*
X19571000Y-4583000D02*
X19541000Y-4613000D01*
X19541000Y-4783000D02*
X19571000Y-4813000D01*
X19571000Y-4783000D02*
X19541000Y-4813000D01*
X19541000Y-4983000D02*
X19571000Y-5013000D01*
X19571000Y-4983000D02*
X19541000Y-5013000D01*
X19541000Y-5683000D02*
X19571000Y-5713000D01*
X19571000Y-5683000D02*
X19541000Y-5713000D01*
X19541000Y-6083000D02*
X19571000Y-6113000D01*
X19571000Y-6083000D02*
X19541000Y-6113000D01*
X19541000Y-6283000D02*
X19571000Y-6313000D01*
X19571000Y-6283000D02*
X19541000Y-6313000D01*
X19641000Y-5283000D02*
X19671000Y-5313000D01*
X19671000Y-5283000D02*
X19641000Y-5313000D01*
X19641000Y-5383000D02*
X19671000Y-5413000D01*
X19671000Y-5383000D02*
X19641000Y-5413000D01*
X19641000Y-5583000D02*
X19671000Y-5613000D01*
X19671000Y-5583000D02*
X19641000Y-5613000D01*
X19641000Y-5783000D02*
X19671000Y-5813000D01*
X19671000Y-5783000D02*
X19641000Y-5813000D01*
X19641000Y-6183000D02*
X19671000Y-6213000D01*
X19671000Y-6183000D02*
X19641000Y-6213000D01*
X19641000Y-6383000D02*
X19671000Y-6413000D01*
X19671000Y-6383000D02*
X19641000Y-6413000D01*
X19641000Y-6533000D02*
X19671000Y-6563000D01*
X19671000Y-6533000D02*
X19641000Y-6563000D01*
X19641000Y-6733000D02*
X19671000Y-6763000D01*
X19671000Y-6733000D02*
X19641000Y-6763000D01*
X19741000Y-4583000D02*
X19771000Y-4613000D01*
X19771000Y-4583000D02*
X19741000Y-4613000D01*
X19741000Y-4783000D02*
X19771000Y-4813000D01*
X19771000Y-4783000D02*
X19741000Y-4813000D01*
X19741000Y-5083000D02*
X19771000Y-5113000D01*
X19771000Y-5083000D02*
X19741000Y-5113000D01*
X19841000Y-5383000D02*
X19871000Y-5413000D01*
X19871000Y-5383000D02*
X19841000Y-5413000D01*
X19841000Y-5583000D02*
X19871000Y-5613000D01*
X19871000Y-5583000D02*
X19841000Y-5613000D01*
X19841000Y-5783000D02*
X19871000Y-5813000D01*
X19871000Y-5783000D02*
X19841000Y-5813000D01*
X19841000Y-5958000D02*
X19871000Y-5988000D01*
X19871000Y-5958000D02*
X19841000Y-5988000D01*
X19841000Y-6158000D02*
X19871000Y-6188000D01*
X19871000Y-6158000D02*
X19841000Y-6188000D01*
X19841000Y-6358000D02*
X19871000Y-6388000D01*
X19871000Y-6358000D02*
X19841000Y-6388000D01*
X19841000Y-6533000D02*
X19871000Y-6563000D01*
X19871000Y-6533000D02*
X19841000Y-6563000D01*
X19841000Y-6733000D02*
X19871000Y-6763000D01*
X19871000Y-6733000D02*
X19841000Y-6763000D01*
X19841000Y-7683000D02*
X19871000Y-7713000D01*
X19871000Y-7683000D02*
X19841000Y-7713000D01*
X19941000Y-4583000D02*
X19971000Y-4613000D01*
X19971000Y-4583000D02*
X19941000Y-4613000D01*
X19941000Y-4783000D02*
X19971000Y-4813000D01*
X19971000Y-4783000D02*
X19941000Y-4813000D01*
X20041000Y-5783000D02*
X20071000Y-5813000D01*
X20071000Y-5783000D02*
X20041000Y-5813000D01*
X20141000Y-4583000D02*
X20171000Y-4613000D01*
X20171000Y-4583000D02*
X20141000Y-4613000D01*
X20141000Y-4783000D02*
X20171000Y-4813000D01*
X20171000Y-4783000D02*
X20141000Y-4813000D01*
X20141000Y-4983000D02*
X20171000Y-5013000D01*
X20171000Y-4983000D02*
X20141000Y-5013000D01*
X20241000Y-5783000D02*
X20271000Y-5813000D01*
X20271000Y-5783000D02*
X20241000Y-5813000D01*
X20341000Y-4583000D02*
X20371000Y-4613000D01*
X20371000Y-4583000D02*
X20341000Y-4613000D01*
X20341000Y-4783000D02*
X20371000Y-4813000D01*
X20371000Y-4783000D02*
X20341000Y-4813000D01*
X20341000Y-4983000D02*
X20371000Y-5013000D01*
X20371000Y-4983000D02*
X20341000Y-5013000D01*
X20341000Y-6683000D02*
X20371000Y-6713000D01*
X20371000Y-6683000D02*
X20341000Y-6713000D01*
X20441000Y-5783000D02*
X20471000Y-5813000D01*
X20471000Y-5783000D02*
X20441000Y-5813000D01*
X20541000Y-4583000D02*
X20571000Y-4613000D01*
X20571000Y-4583000D02*
X20541000Y-4613000D01*
X20541000Y-4783000D02*
X20571000Y-4813000D01*
X20571000Y-4783000D02*
X20541000Y-4813000D01*
X20541000Y-4983000D02*
X20571000Y-5013000D01*
X20571000Y-4983000D02*
X20541000Y-5013000D01*
X20641000Y-5783000D02*
X20671000Y-5813000D01*
X20671000Y-5783000D02*
X20641000Y-5813000D01*
X20741000Y-4583000D02*
X20771000Y-4613000D01*
X20771000Y-4583000D02*
X20741000Y-4613000D01*
X20741000Y-4783000D02*
X20771000Y-4813000D01*
X20771000Y-4783000D02*
X20741000Y-4813000D01*
X20741000Y-4983000D02*
X20771000Y-5013000D01*
X20771000Y-4983000D02*
X20741000Y-5013000D01*
X20841000Y-5783000D02*
X20871000Y-5813000D01*
X20871000Y-5783000D02*
X20841000Y-5813000D01*
X20841000Y-7683000D02*
X20871000Y-7713000D01*
X20871000Y-7683000D02*
X20841000Y-7713000D01*
X20941000Y-4983000D02*
X20971000Y-5013000D01*
X20971000Y-4983000D02*
X20941000Y-5013000D01*
X21041000Y-5783000D02*
X21071000Y-5813000D01*
X21071000Y-5783000D02*
X21041000Y-5813000D01*
X21241000Y-5183000D02*
X21271000Y-5213000D01*
X21271000Y-5183000D02*
X21241000Y-5213000D01*
X21241000Y-5383000D02*
X21271000Y-5413000D01*
X21271000Y-5383000D02*
X21241000Y-5413000D01*
X21241000Y-5583000D02*
X21271000Y-5613000D01*
X21271000Y-5583000D02*
X21241000Y-5613000D01*
X21241000Y-5783000D02*
X21271000Y-5813000D01*
X21271000Y-5783000D02*
X21241000Y-5813000D01*
X21341000Y-5183000D02*
X21371000Y-5213000D01*
X21371000Y-5183000D02*
X21341000Y-5213000D01*
X21341000Y-6683000D02*
X21371000Y-6713000D01*
X21371000Y-6683000D02*
X21341000Y-6713000D01*
X11681000Y-7617440D02*
G75*
G02*
X11631000Y-7617440I-25000J0D01*
G01*
X11631000Y-7617440D02*
G75*
G02*
X11681000Y-7617440I25000J0D01*
G01*
X11691000Y-7058000D02*
G75*
G02*
X11641000Y-7058000I-25000J0D01*
G01*
X11641000Y-7058000D02*
G75*
G02*
X11691000Y-7058000I25000J0D01*
G01*
X12095980Y-8233020D02*
G75*
G02*
X12045980Y-8233020I-25000J0D01*
G01*
X12045980Y-8233020D02*
G75*
G02*
X12095980Y-8233020I25000J0D01*
G01*
X12506000Y-7068000D02*
G75*
G02*
X12456000Y-7068000I-25000J0D01*
G01*
X12456000Y-7068000D02*
G75*
G02*
X12506000Y-7068000I25000J0D01*
G01*
X13056000Y-6973000D02*
G75*
G02*
X13006000Y-6973000I-25000J0D01*
G01*
X13006000Y-6973000D02*
G75*
G02*
X13056000Y-6973000I25000J0D01*
G01*
X18341000Y-7708000D02*
G75*
G02*
X18291000Y-7708000I-25000J0D01*
G01*
X18291000Y-7708000D02*
G75*
G02*
X18341000Y-7708000I25000J0D01*
G01*
X18401000Y-7348000D02*
G75*
G02*
X18351000Y-7348000I-25000J0D01*
G01*
X18351000Y-7348000D02*
G75*
G02*
X18401000Y-7348000I25000J0D01*
G01*
X18761000Y-4598000D02*
G75*
G02*
X18711000Y-4598000I-25000J0D01*
G01*
X18711000Y-4598000D02*
G75*
G02*
X18761000Y-4598000I25000J0D01*
G01*
X19816000Y-4928000D02*
G75*
G02*
X19766000Y-4928000I-25000J0D01*
G01*
X19766000Y-4928000D02*
G75*
G02*
X19816000Y-4928000I25000J0D01*
G01*
X18836000Y-6223000D02*
X18836000Y-6273000D01*
X18811000Y-6248000D02*
X18861000Y-6248000D01*
X18936000Y-6223000D02*
X18936000Y-6273000D01*
X18911000Y-6248000D02*
X18961000Y-6248000D01*
X19036000Y-6223000D02*
X19036000Y-6273000D01*
X19011000Y-6248000D02*
X19061000Y-6248000D01*
X19136000Y-6223000D02*
X19136000Y-6273000D01*
X19111000Y-6248000D02*
X19161000Y-6248000D01*
X19236000Y-5923000D02*
X19236000Y-5973000D01*
X19211000Y-5948000D02*
X19261000Y-5948000D01*
X19236000Y-6223000D02*
X19236000Y-6273000D01*
X19211000Y-6248000D02*
X19261000Y-6248000D01*
X19336000Y-5923000D02*
X19336000Y-5973000D01*
X19311000Y-5948000D02*
X19361000Y-5948000D01*
X19436000Y-5923000D02*
X19436000Y-5973000D01*
X19411000Y-5948000D02*
X19461000Y-5948000D01*
X19536000Y-5923000D02*
X19536000Y-5973000D01*
X19511000Y-5948000D02*
X19561000Y-5948000D01*
X19636000Y-5923000D02*
X19636000Y-5973000D01*
X19611000Y-5948000D02*
X19661000Y-5948000D01*
X11230749Y-5212749D02*
X11230749Y-5163251D01*
X11181251Y-5163251D01*
X11181251Y-5212749D01*
X11230749Y-5212749D01*
X11580749Y-8852749D02*
X11580749Y-8803251D01*
X11531251Y-8803251D01*
X11531251Y-8852749D01*
X11580749Y-8852749D01*
X11806109Y-9273109D02*
X11806109Y-9223611D01*
X11756611Y-9223611D01*
X11756611Y-9273109D01*
X11806109Y-9273109D01*
X11840749Y-5372749D02*
X11840749Y-5323251D01*
X11791251Y-5323251D01*
X11791251Y-5372749D01*
X11840749Y-5372749D01*
X12480749Y-5422749D02*
X12480749Y-5373251D01*
X12431251Y-5373251D01*
X12431251Y-5422749D01*
X12480749Y-5422749D01*
X12480749Y-5597749D02*
X12480749Y-5548251D01*
X12431251Y-5548251D01*
X12431251Y-5597749D01*
X12480749Y-5597749D01*
X12630749Y-5422749D02*
X12630749Y-5373251D01*
X12581251Y-5373251D01*
X12581251Y-5422749D01*
X12630749Y-5422749D01*
X10306000Y-7617500D02*
X10356000Y-7567500D01*
X10306000Y-7517500D01*
X10256000Y-7567500D01*
X10306000Y-7617500D01*
X10306000Y-7871500D02*
X10356000Y-7821500D01*
X10306000Y-7771500D01*
X10256000Y-7821500D01*
X10306000Y-7871500D01*
X10306000Y-8125500D02*
X10356000Y-8075500D01*
X10306000Y-8025500D01*
X10256000Y-8075500D01*
X10306000Y-8125500D01*
X13256000Y-8612000D02*
X13306000Y-8562000D01*
X13256000Y-8512000D01*
X13206000Y-8562000D01*
X13256000Y-8612000D01*
X13256000Y-8866000D02*
X13306000Y-8816000D01*
X13256000Y-8766000D01*
X13206000Y-8816000D01*
X13256000Y-8866000D01*
X13256000Y-9120000D02*
X13306000Y-9070000D01*
X13256000Y-9020000D01*
X13206000Y-9070000D01*
X13256000Y-9120000D01*
X13256000Y-9374000D02*
X13306000Y-9324000D01*
X13256000Y-9274000D01*
X13206000Y-9324000D01*
X13256000Y-9374000D01*
X13256000Y-9628000D02*
X13306000Y-9578000D01*
X13256000Y-9528000D01*
X13206000Y-9578000D01*
X13256000Y-9628000D01*
X13256000Y-9882000D02*
X13306000Y-9832000D01*
X13256000Y-9782000D01*
X13206000Y-9832000D01*
X13256000Y-9882000D01*
X13256000Y-10136000D02*
X13306000Y-10086000D01*
X13256000Y-10036000D01*
X13206000Y-10086000D01*
X13256000Y-10136000D01*
X13256000Y-10390000D02*
X13306000Y-10340000D01*
X13256000Y-10290000D01*
X13206000Y-10340000D01*
X13256000Y-10390000D01*
X13256000Y-10644000D02*
X13306000Y-10594000D01*
X13256000Y-10544000D01*
X13206000Y-10594000D01*
X13256000Y-10644000D01*
X13256000Y-10898000D02*
X13306000Y-10848000D01*
X13256000Y-10798000D01*
X13206000Y-10848000D01*
X13256000Y-10898000D01*
X13510000Y-8612000D02*
X13560000Y-8562000D01*
X13510000Y-8512000D01*
X13460000Y-8562000D01*
X13510000Y-8612000D01*
X13510000Y-8866000D02*
X13560000Y-8816000D01*
X13510000Y-8766000D01*
X13460000Y-8816000D01*
X13510000Y-8866000D01*
X13510000Y-9120000D02*
X13560000Y-9070000D01*
X13510000Y-9020000D01*
X13460000Y-9070000D01*
X13510000Y-9120000D01*
X13510000Y-9374000D02*
X13560000Y-9324000D01*
X13510000Y-9274000D01*
X13460000Y-9324000D01*
X13510000Y-9374000D01*
X13510000Y-9628000D02*
X13560000Y-9578000D01*
X13510000Y-9528000D01*
X13460000Y-9578000D01*
X13510000Y-9628000D01*
X13510000Y-9882000D02*
X13560000Y-9832000D01*
X13510000Y-9782000D01*
X13460000Y-9832000D01*
X13510000Y-9882000D01*
X13510000Y-10136000D02*
X13560000Y-10086000D01*
X13510000Y-10036000D01*
X13460000Y-10086000D01*
X13510000Y-10136000D01*
X13510000Y-10390000D02*
X13560000Y-10340000D01*
X13510000Y-10290000D01*
X13460000Y-10340000D01*
X13510000Y-10390000D01*
X13510000Y-10644000D02*
X13560000Y-10594000D01*
X13510000Y-10544000D01*
X13460000Y-10594000D01*
X13510000Y-10644000D01*
X13510000Y-10898000D02*
X13560000Y-10848000D01*
X13510000Y-10798000D01*
X13460000Y-10848000D01*
X13510000Y-10898000D01*
D13*
X11093770Y-5485770D02*
X11218230Y-5610230D01*
X11218230Y-5485770D02*
X11093770Y-5610230D01*
X11218230Y-5548000D02*
G75*
G02*
X11093770Y-5548000I-62230J0D01*
G01*
X11093770Y-5548000D02*
G75*
G02*
X11218230Y-5548000I62230J0D01*
G01*
X11093770Y-5735770D02*
X11218230Y-5860230D01*
X11218230Y-5735770D02*
X11093770Y-5860230D01*
X11218230Y-5798000D02*
G75*
G02*
X11093770Y-5798000I-62230J0D01*
G01*
X11093770Y-5798000D02*
G75*
G02*
X11218230Y-5798000I62230J0D01*
G01*
X11093770Y-5985770D02*
X11218230Y-6110230D01*
X11218230Y-5985770D02*
X11093770Y-6110230D01*
X11218230Y-6048000D02*
G75*
G02*
X11093770Y-6048000I-62230J0D01*
G01*
X11093770Y-6048000D02*
G75*
G02*
X11218230Y-6048000I62230J0D01*
G01*
X11093770Y-6235770D02*
X11218230Y-6360230D01*
X11218230Y-6235770D02*
X11093770Y-6360230D01*
X11218230Y-6298000D02*
G75*
G02*
X11093770Y-6298000I-62230J0D01*
G01*
X11093770Y-6298000D02*
G75*
G02*
X11218230Y-6298000I62230J0D01*
G01*
X11093770Y-6485770D02*
X11218230Y-6610230D01*
X11218230Y-6485770D02*
X11093770Y-6610230D01*
X11218230Y-6548000D02*
G75*
G02*
X11093770Y-6548000I-62230J0D01*
G01*
X11093770Y-6548000D02*
G75*
G02*
X11218230Y-6548000I62230J0D01*
G01*
X11093770Y-8875770D02*
X11218230Y-9000230D01*
X11218230Y-8875770D02*
X11093770Y-9000230D01*
X11218230Y-8938000D02*
G75*
G02*
X11093770Y-8938000I-62230J0D01*
G01*
X11093770Y-8938000D02*
G75*
G02*
X11218230Y-8938000I62230J0D01*
G01*
X11093770Y-9125770D02*
X11218230Y-9250230D01*
X11218230Y-9125770D02*
X11093770Y-9250230D01*
X11218230Y-9188000D02*
G75*
G02*
X11093770Y-9188000I-62230J0D01*
G01*
X11093770Y-9188000D02*
G75*
G02*
X11218230Y-9188000I62230J0D01*
G01*
X11093770Y-9375770D02*
X11218230Y-9500230D01*
X11218230Y-9375770D02*
X11093770Y-9500230D01*
X11218230Y-9438000D02*
G75*
G02*
X11093770Y-9438000I-62230J0D01*
G01*
X11093770Y-9438000D02*
G75*
G02*
X11218230Y-9438000I62230J0D01*
G01*
X11093770Y-9625770D02*
X11218230Y-9750230D01*
X11218230Y-9625770D02*
X11093770Y-9750230D01*
X11218230Y-9688000D02*
G75*
G02*
X11093770Y-9688000I-62230J0D01*
G01*
X11093770Y-9688000D02*
G75*
G02*
X11218230Y-9688000I62230J0D01*
G01*
X11093770Y-9875770D02*
X11218230Y-10000230D01*
X11218230Y-9875770D02*
X11093770Y-10000230D01*
X11218230Y-9938000D02*
G75*
G02*
X11093770Y-9938000I-62230J0D01*
G01*
X11093770Y-9938000D02*
G75*
G02*
X11218230Y-9938000I62230J0D01*
G01*
D14*
X10321000Y-10613000D02*
X10591000Y-10883000D01*
X10591000Y-10613000D02*
X10321000Y-10883000D01*
X10456000Y-10613000D02*
X10456000Y-10883000D01*
X10321000Y-10748000D02*
X10591000Y-10748000D01*
X10331000Y-4623000D02*
X10601000Y-4893000D01*
X10601000Y-4623000D02*
X10331000Y-4893000D01*
X10466000Y-4623000D02*
X10466000Y-4893000D01*
X10331000Y-4758000D02*
X10601000Y-4758000D01*
X19061000Y-4623000D02*
X19331000Y-4893000D01*
X19331000Y-4623000D02*
X19061000Y-4893000D01*
X19196000Y-4623000D02*
X19196000Y-4893000D01*
X19061000Y-4758000D02*
X19331000Y-4758000D01*
X21121000Y-4613000D02*
X21391000Y-4883000D01*
X21391000Y-4613000D02*
X21121000Y-4883000D01*
X21256000Y-4613000D02*
X21256000Y-4883000D01*
X21121000Y-4748000D02*
X21391000Y-4748000D01*
D11*
X10374277Y-11411984D02*
X10374277Y-11211984D01*
X10374277Y-11211984D02*
X10421896Y-11211984D01*
X10421896Y-11211984D02*
X10450467Y-11221508D01*
X10450467Y-11221508D02*
X10469515Y-11240555D01*
X10469515Y-11240555D02*
X10479039Y-11259603D01*
X10479039Y-11259603D02*
X10488563Y-11297698D01*
X10488563Y-11297698D02*
X10488563Y-11326269D01*
X10488563Y-11326269D02*
X10479039Y-11364365D01*
X10479039Y-11364365D02*
X10469515Y-11383412D01*
X10469515Y-11383412D02*
X10450467Y-11402460D01*
X10450467Y-11402460D02*
X10421896Y-11411984D01*
X10421896Y-11411984D02*
X10374277Y-11411984D01*
X10574277Y-11411984D02*
X10574277Y-11278650D01*
X10574277Y-11316746D02*
X10583801Y-11297698D01*
X10583801Y-11297698D02*
X10593324Y-11288174D01*
X10593324Y-11288174D02*
X10612372Y-11278650D01*
X10612372Y-11278650D02*
X10631420Y-11278650D01*
X10698086Y-11411984D02*
X10698086Y-11278650D01*
X10698086Y-11211984D02*
X10688563Y-11221508D01*
X10688563Y-11221508D02*
X10698086Y-11231031D01*
X10698086Y-11231031D02*
X10707610Y-11221508D01*
X10707610Y-11221508D02*
X10698086Y-11211984D01*
X10698086Y-11211984D02*
X10698086Y-11231031D01*
X10821896Y-11411984D02*
X10802848Y-11402460D01*
X10802848Y-11402460D02*
X10793324Y-11383412D01*
X10793324Y-11383412D02*
X10793324Y-11211984D01*
X10926658Y-11411984D02*
X10907610Y-11402460D01*
X10907610Y-11402460D02*
X10898086Y-11383412D01*
X10898086Y-11383412D02*
X10898086Y-11211984D01*
X11155229Y-11411984D02*
X11155229Y-11211984D01*
X11155229Y-11211984D02*
X11221896Y-11354841D01*
X11221896Y-11354841D02*
X11288562Y-11211984D01*
X11288562Y-11211984D02*
X11288562Y-11411984D01*
X11469515Y-11411984D02*
X11469515Y-11307222D01*
X11469515Y-11307222D02*
X11459991Y-11288174D01*
X11459991Y-11288174D02*
X11440943Y-11278650D01*
X11440943Y-11278650D02*
X11402848Y-11278650D01*
X11402848Y-11278650D02*
X11383801Y-11288174D01*
X11469515Y-11402460D02*
X11450467Y-11411984D01*
X11450467Y-11411984D02*
X11402848Y-11411984D01*
X11402848Y-11411984D02*
X11383801Y-11402460D01*
X11383801Y-11402460D02*
X11374277Y-11383412D01*
X11374277Y-11383412D02*
X11374277Y-11364365D01*
X11374277Y-11364365D02*
X11383801Y-11345317D01*
X11383801Y-11345317D02*
X11402848Y-11335793D01*
X11402848Y-11335793D02*
X11450467Y-11335793D01*
X11450467Y-11335793D02*
X11469515Y-11326269D01*
X11564753Y-11278650D02*
X11564753Y-11478650D01*
X11564753Y-11288174D02*
X11583801Y-11278650D01*
X11583801Y-11278650D02*
X11621896Y-11278650D01*
X11621896Y-11278650D02*
X11640943Y-11288174D01*
X11640943Y-11288174D02*
X11650467Y-11297698D01*
X11650467Y-11297698D02*
X11659991Y-11316746D01*
X11659991Y-11316746D02*
X11659991Y-11373888D01*
X11659991Y-11373888D02*
X11650467Y-11392936D01*
X11650467Y-11392936D02*
X11640943Y-11402460D01*
X11640943Y-11402460D02*
X11621896Y-11411984D01*
X11621896Y-11411984D02*
X11583801Y-11411984D01*
X11583801Y-11411984D02*
X11564753Y-11402460D01*
X11745705Y-11392936D02*
X11755229Y-11402460D01*
X11755229Y-11402460D02*
X11745705Y-11411984D01*
X11745705Y-11411984D02*
X11736182Y-11402460D01*
X11736182Y-11402460D02*
X11745705Y-11392936D01*
X11745705Y-11392936D02*
X11745705Y-11411984D01*
X11745705Y-11288174D02*
X11755229Y-11297698D01*
X11755229Y-11297698D02*
X11745705Y-11307222D01*
X11745705Y-11307222D02*
X11736182Y-11297698D01*
X11736182Y-11297698D02*
X11745705Y-11288174D01*
X11745705Y-11288174D02*
X11745705Y-11307222D01*
D12*
X10083500Y-11725500D02*
X10113500Y-11755500D01*
X10113500Y-11725500D02*
X10083500Y-11755500D01*
D11*
X10412372Y-11631984D02*
X10431420Y-11631984D01*
X10431420Y-11631984D02*
X10450467Y-11641508D01*
X10450467Y-11641508D02*
X10459991Y-11651031D01*
X10459991Y-11651031D02*
X10469515Y-11670079D01*
X10469515Y-11670079D02*
X10479039Y-11708174D01*
X10479039Y-11708174D02*
X10479039Y-11755793D01*
X10479039Y-11755793D02*
X10469515Y-11793888D01*
X10469515Y-11793888D02*
X10459991Y-11812936D01*
X10459991Y-11812936D02*
X10450467Y-11822460D01*
X10450467Y-11822460D02*
X10431420Y-11831984D01*
X10431420Y-11831984D02*
X10412372Y-11831984D01*
X10412372Y-11831984D02*
X10393324Y-11822460D01*
X10393324Y-11822460D02*
X10383801Y-11812936D01*
X10383801Y-11812936D02*
X10374277Y-11793888D01*
X10374277Y-11793888D02*
X10364753Y-11755793D01*
X10364753Y-11755793D02*
X10364753Y-11708174D01*
X10364753Y-11708174D02*
X10374277Y-11670079D01*
X10374277Y-11670079D02*
X10383801Y-11651031D01*
X10383801Y-11651031D02*
X10393324Y-11641508D01*
X10393324Y-11641508D02*
X10412372Y-11631984D01*
X10564753Y-11812936D02*
X10574277Y-11822460D01*
X10574277Y-11822460D02*
X10564753Y-11831984D01*
X10564753Y-11831984D02*
X10555229Y-11822460D01*
X10555229Y-11822460D02*
X10564753Y-11812936D01*
X10564753Y-11812936D02*
X10564753Y-11831984D01*
X10640944Y-11631984D02*
X10764753Y-11631984D01*
X10764753Y-11631984D02*
X10698086Y-11708174D01*
X10698086Y-11708174D02*
X10726658Y-11708174D01*
X10726658Y-11708174D02*
X10745705Y-11717698D01*
X10745705Y-11717698D02*
X10755229Y-11727222D01*
X10755229Y-11727222D02*
X10764753Y-11746269D01*
X10764753Y-11746269D02*
X10764753Y-11793888D01*
X10764753Y-11793888D02*
X10755229Y-11812936D01*
X10755229Y-11812936D02*
X10745705Y-11822460D01*
X10745705Y-11822460D02*
X10726658Y-11831984D01*
X10726658Y-11831984D02*
X10669515Y-11831984D01*
X10669515Y-11831984D02*
X10650467Y-11822460D01*
X10650467Y-11822460D02*
X10640944Y-11812936D01*
X10888563Y-11631984D02*
X10907610Y-11631984D01*
X10907610Y-11631984D02*
X10926658Y-11641508D01*
X10926658Y-11641508D02*
X10936182Y-11651031D01*
X10936182Y-11651031D02*
X10945705Y-11670079D01*
X10945705Y-11670079D02*
X10955229Y-11708174D01*
X10955229Y-11708174D02*
X10955229Y-11755793D01*
X10955229Y-11755793D02*
X10945705Y-11793888D01*
X10945705Y-11793888D02*
X10936182Y-11812936D01*
X10936182Y-11812936D02*
X10926658Y-11822460D01*
X10926658Y-11822460D02*
X10907610Y-11831984D01*
X10907610Y-11831984D02*
X10888563Y-11831984D01*
X10888563Y-11831984D02*
X10869515Y-11822460D01*
X10869515Y-11822460D02*
X10859991Y-11812936D01*
X10859991Y-11812936D02*
X10850467Y-11793888D01*
X10850467Y-11793888D02*
X10840944Y-11755793D01*
X10840944Y-11755793D02*
X10840944Y-11708174D01*
X10840944Y-11708174D02*
X10850467Y-11670079D01*
X10850467Y-11670079D02*
X10859991Y-11651031D01*
X10859991Y-11651031D02*
X10869515Y-11641508D01*
X10869515Y-11641508D02*
X10888563Y-11631984D01*
X11079039Y-11631984D02*
X11098086Y-11631984D01*
X11098086Y-11631984D02*
X11117134Y-11641508D01*
X11117134Y-11641508D02*
X11126658Y-11651031D01*
X11126658Y-11651031D02*
X11136182Y-11670079D01*
X11136182Y-11670079D02*
X11145705Y-11708174D01*
X11145705Y-11708174D02*
X11145705Y-11755793D01*
X11145705Y-11755793D02*
X11136182Y-11793888D01*
X11136182Y-11793888D02*
X11126658Y-11812936D01*
X11126658Y-11812936D02*
X11117134Y-11822460D01*
X11117134Y-11822460D02*
X11098086Y-11831984D01*
X11098086Y-11831984D02*
X11079039Y-11831984D01*
X11079039Y-11831984D02*
X11059991Y-11822460D01*
X11059991Y-11822460D02*
X11050467Y-11812936D01*
X11050467Y-11812936D02*
X11040944Y-11793888D01*
X11040944Y-11793888D02*
X11031420Y-11755793D01*
X11031420Y-11755793D02*
X11031420Y-11708174D01*
X11031420Y-11708174D02*
X11040944Y-11670079D01*
X11040944Y-11670079D02*
X11050467Y-11651031D01*
X11050467Y-11651031D02*
X11059991Y-11641508D01*
X11059991Y-11641508D02*
X11079039Y-11631984D01*
X11231420Y-11831984D02*
X11231420Y-11698650D01*
X11231420Y-11717698D02*
X11240943Y-11708174D01*
X11240943Y-11708174D02*
X11259991Y-11698650D01*
X11259991Y-11698650D02*
X11288563Y-11698650D01*
X11288563Y-11698650D02*
X11307610Y-11708174D01*
X11307610Y-11708174D02*
X11317134Y-11727222D01*
X11317134Y-11727222D02*
X11317134Y-11831984D01*
X11317134Y-11727222D02*
X11326658Y-11708174D01*
X11326658Y-11708174D02*
X11345705Y-11698650D01*
X11345705Y-11698650D02*
X11374277Y-11698650D01*
X11374277Y-11698650D02*
X11393324Y-11708174D01*
X11393324Y-11708174D02*
X11402848Y-11727222D01*
X11402848Y-11727222D02*
X11402848Y-11831984D01*
X11498086Y-11831984D02*
X11498086Y-11698650D01*
X11498086Y-11717698D02*
X11507610Y-11708174D01*
X11507610Y-11708174D02*
X11526658Y-11698650D01*
X11526658Y-11698650D02*
X11555229Y-11698650D01*
X11555229Y-11698650D02*
X11574277Y-11708174D01*
X11574277Y-11708174D02*
X11583801Y-11727222D01*
X11583801Y-11727222D02*
X11583801Y-11831984D01*
X11583801Y-11727222D02*
X11593324Y-11708174D01*
X11593324Y-11708174D02*
X11612372Y-11698650D01*
X11612372Y-11698650D02*
X11640943Y-11698650D01*
X11640943Y-11698650D02*
X11659991Y-11708174D01*
X11659991Y-11708174D02*
X11669515Y-11727222D01*
X11669515Y-11727222D02*
X11669515Y-11831984D01*
X12059991Y-11622460D02*
X11888563Y-11879603D01*
X12317134Y-11631984D02*
X12336182Y-11631984D01*
X12336182Y-11631984D02*
X12355229Y-11641508D01*
X12355229Y-11641508D02*
X12364753Y-11651031D01*
X12364753Y-11651031D02*
X12374277Y-11670079D01*
X12374277Y-11670079D02*
X12383801Y-11708174D01*
X12383801Y-11708174D02*
X12383801Y-11755793D01*
X12383801Y-11755793D02*
X12374277Y-11793888D01*
X12374277Y-11793888D02*
X12364753Y-11812936D01*
X12364753Y-11812936D02*
X12355229Y-11822460D01*
X12355229Y-11822460D02*
X12336182Y-11831984D01*
X12336182Y-11831984D02*
X12317134Y-11831984D01*
X12317134Y-11831984D02*
X12298086Y-11822460D01*
X12298086Y-11822460D02*
X12288563Y-11812936D01*
X12288563Y-11812936D02*
X12279039Y-11793888D01*
X12279039Y-11793888D02*
X12269515Y-11755793D01*
X12269515Y-11755793D02*
X12269515Y-11708174D01*
X12269515Y-11708174D02*
X12279039Y-11670079D01*
X12279039Y-11670079D02*
X12288563Y-11651031D01*
X12288563Y-11651031D02*
X12298086Y-11641508D01*
X12298086Y-11641508D02*
X12317134Y-11631984D01*
X12469515Y-11812936D02*
X12479039Y-11822460D01*
X12479039Y-11822460D02*
X12469515Y-11831984D01*
X12469515Y-11831984D02*
X12459991Y-11822460D01*
X12459991Y-11822460D02*
X12469515Y-11812936D01*
X12469515Y-11812936D02*
X12469515Y-11831984D01*
X12602848Y-11631984D02*
X12621896Y-11631984D01*
X12621896Y-11631984D02*
X12640944Y-11641508D01*
X12640944Y-11641508D02*
X12650467Y-11651031D01*
X12650467Y-11651031D02*
X12659991Y-11670079D01*
X12659991Y-11670079D02*
X12669515Y-11708174D01*
X12669515Y-11708174D02*
X12669515Y-11755793D01*
X12669515Y-11755793D02*
X12659991Y-11793888D01*
X12659991Y-11793888D02*
X12650467Y-11812936D01*
X12650467Y-11812936D02*
X12640944Y-11822460D01*
X12640944Y-11822460D02*
X12621896Y-11831984D01*
X12621896Y-11831984D02*
X12602848Y-11831984D01*
X12602848Y-11831984D02*
X12583801Y-11822460D01*
X12583801Y-11822460D02*
X12574277Y-11812936D01*
X12574277Y-11812936D02*
X12564753Y-11793888D01*
X12564753Y-11793888D02*
X12555229Y-11755793D01*
X12555229Y-11755793D02*
X12555229Y-11708174D01*
X12555229Y-11708174D02*
X12564753Y-11670079D01*
X12564753Y-11670079D02*
X12574277Y-11651031D01*
X12574277Y-11651031D02*
X12583801Y-11641508D01*
X12583801Y-11641508D02*
X12602848Y-11631984D01*
X12859991Y-11831984D02*
X12745706Y-11831984D01*
X12802848Y-11831984D02*
X12802848Y-11631984D01*
X12802848Y-11631984D02*
X12783801Y-11660555D01*
X12783801Y-11660555D02*
X12764753Y-11679603D01*
X12764753Y-11679603D02*
X12745706Y-11689127D01*
X13050467Y-11831984D02*
X12936182Y-11831984D01*
X12993325Y-11831984D02*
X12993325Y-11631984D01*
X12993325Y-11631984D02*
X12974277Y-11660555D01*
X12974277Y-11660555D02*
X12955229Y-11679603D01*
X12955229Y-11679603D02*
X12936182Y-11689127D01*
X13164753Y-11717698D02*
X13145706Y-11708174D01*
X13145706Y-11708174D02*
X13136182Y-11698650D01*
X13136182Y-11698650D02*
X13126658Y-11679603D01*
X13126658Y-11679603D02*
X13126658Y-11670079D01*
X13126658Y-11670079D02*
X13136182Y-11651031D01*
X13136182Y-11651031D02*
X13145706Y-11641508D01*
X13145706Y-11641508D02*
X13164753Y-11631984D01*
X13164753Y-11631984D02*
X13202848Y-11631984D01*
X13202848Y-11631984D02*
X13221896Y-11641508D01*
X13221896Y-11641508D02*
X13231420Y-11651031D01*
X13231420Y-11651031D02*
X13240944Y-11670079D01*
X13240944Y-11670079D02*
X13240944Y-11679603D01*
X13240944Y-11679603D02*
X13231420Y-11698650D01*
X13231420Y-11698650D02*
X13221896Y-11708174D01*
X13221896Y-11708174D02*
X13202848Y-11717698D01*
X13202848Y-11717698D02*
X13164753Y-11717698D01*
X13164753Y-11717698D02*
X13145706Y-11727222D01*
X13145706Y-11727222D02*
X13136182Y-11736746D01*
X13136182Y-11736746D02*
X13126658Y-11755793D01*
X13126658Y-11755793D02*
X13126658Y-11793888D01*
X13126658Y-11793888D02*
X13136182Y-11812936D01*
X13136182Y-11812936D02*
X13145706Y-11822460D01*
X13145706Y-11822460D02*
X13164753Y-11831984D01*
X13164753Y-11831984D02*
X13202848Y-11831984D01*
X13202848Y-11831984D02*
X13221896Y-11822460D01*
X13221896Y-11822460D02*
X13231420Y-11812936D01*
X13231420Y-11812936D02*
X13240944Y-11793888D01*
X13240944Y-11793888D02*
X13240944Y-11755793D01*
X13240944Y-11755793D02*
X13231420Y-11736746D01*
X13231420Y-11736746D02*
X13221896Y-11727222D01*
X13221896Y-11727222D02*
X13202848Y-11717698D01*
X13317134Y-11631984D02*
X13317134Y-11670079D01*
X13393325Y-11631984D02*
X13393325Y-11670079D01*
X13688563Y-11908174D02*
X13679039Y-11898650D01*
X13679039Y-11898650D02*
X13659991Y-11870079D01*
X13659991Y-11870079D02*
X13650468Y-11851031D01*
X13650468Y-11851031D02*
X13640944Y-11822460D01*
X13640944Y-11822460D02*
X13631420Y-11774841D01*
X13631420Y-11774841D02*
X13631420Y-11736746D01*
X13631420Y-11736746D02*
X13640944Y-11689127D01*
X13640944Y-11689127D02*
X13650468Y-11660555D01*
X13650468Y-11660555D02*
X13659991Y-11641508D01*
X13659991Y-11641508D02*
X13679039Y-11612936D01*
X13679039Y-11612936D02*
X13688563Y-11603412D01*
X13850468Y-11698650D02*
X13850468Y-11831984D01*
X13802848Y-11622460D02*
X13755229Y-11765317D01*
X13755229Y-11765317D02*
X13879039Y-11765317D01*
X14050468Y-11631984D02*
X13955229Y-11631984D01*
X13955229Y-11631984D02*
X13945706Y-11727222D01*
X13945706Y-11727222D02*
X13955229Y-11717698D01*
X13955229Y-11717698D02*
X13974277Y-11708174D01*
X13974277Y-11708174D02*
X14021896Y-11708174D01*
X14021896Y-11708174D02*
X14040944Y-11717698D01*
X14040944Y-11717698D02*
X14050468Y-11727222D01*
X14050468Y-11727222D02*
X14059991Y-11746269D01*
X14059991Y-11746269D02*
X14059991Y-11793888D01*
X14059991Y-11793888D02*
X14050468Y-11812936D01*
X14050468Y-11812936D02*
X14040944Y-11822460D01*
X14040944Y-11822460D02*
X14021896Y-11831984D01*
X14021896Y-11831984D02*
X13974277Y-11831984D01*
X13974277Y-11831984D02*
X13955229Y-11822460D01*
X13955229Y-11822460D02*
X13945706Y-11812936D01*
X14174277Y-11717698D02*
X14155229Y-11708174D01*
X14155229Y-11708174D02*
X14145706Y-11698650D01*
X14145706Y-11698650D02*
X14136182Y-11679603D01*
X14136182Y-11679603D02*
X14136182Y-11670079D01*
X14136182Y-11670079D02*
X14145706Y-11651031D01*
X14145706Y-11651031D02*
X14155229Y-11641508D01*
X14155229Y-11641508D02*
X14174277Y-11631984D01*
X14174277Y-11631984D02*
X14212372Y-11631984D01*
X14212372Y-11631984D02*
X14231420Y-11641508D01*
X14231420Y-11641508D02*
X14240944Y-11651031D01*
X14240944Y-11651031D02*
X14250468Y-11670079D01*
X14250468Y-11670079D02*
X14250468Y-11679603D01*
X14250468Y-11679603D02*
X14240944Y-11698650D01*
X14240944Y-11698650D02*
X14231420Y-11708174D01*
X14231420Y-11708174D02*
X14212372Y-11717698D01*
X14212372Y-11717698D02*
X14174277Y-11717698D01*
X14174277Y-11717698D02*
X14155229Y-11727222D01*
X14155229Y-11727222D02*
X14145706Y-11736746D01*
X14145706Y-11736746D02*
X14136182Y-11755793D01*
X14136182Y-11755793D02*
X14136182Y-11793888D01*
X14136182Y-11793888D02*
X14145706Y-11812936D01*
X14145706Y-11812936D02*
X14155229Y-11822460D01*
X14155229Y-11822460D02*
X14174277Y-11831984D01*
X14174277Y-11831984D02*
X14212372Y-11831984D01*
X14212372Y-11831984D02*
X14231420Y-11822460D01*
X14231420Y-11822460D02*
X14240944Y-11812936D01*
X14240944Y-11812936D02*
X14250468Y-11793888D01*
X14250468Y-11793888D02*
X14250468Y-11755793D01*
X14250468Y-11755793D02*
X14240944Y-11736746D01*
X14240944Y-11736746D02*
X14231420Y-11727222D01*
X14231420Y-11727222D02*
X14212372Y-11717698D01*
X14488563Y-11831984D02*
X14488563Y-11631984D01*
X14574277Y-11831984D02*
X14574277Y-11727222D01*
X14574277Y-11727222D02*
X14564753Y-11708174D01*
X14564753Y-11708174D02*
X14545706Y-11698650D01*
X14545706Y-11698650D02*
X14517134Y-11698650D01*
X14517134Y-11698650D02*
X14498087Y-11708174D01*
X14498087Y-11708174D02*
X14488563Y-11717698D01*
X14698087Y-11831984D02*
X14679039Y-11822460D01*
X14679039Y-11822460D02*
X14669515Y-11812936D01*
X14669515Y-11812936D02*
X14659991Y-11793888D01*
X14659991Y-11793888D02*
X14659991Y-11736746D01*
X14659991Y-11736746D02*
X14669515Y-11717698D01*
X14669515Y-11717698D02*
X14679039Y-11708174D01*
X14679039Y-11708174D02*
X14698087Y-11698650D01*
X14698087Y-11698650D02*
X14726658Y-11698650D01*
X14726658Y-11698650D02*
X14745706Y-11708174D01*
X14745706Y-11708174D02*
X14755230Y-11717698D01*
X14755230Y-11717698D02*
X14764753Y-11736746D01*
X14764753Y-11736746D02*
X14764753Y-11793888D01*
X14764753Y-11793888D02*
X14755230Y-11812936D01*
X14755230Y-11812936D02*
X14745706Y-11822460D01*
X14745706Y-11822460D02*
X14726658Y-11831984D01*
X14726658Y-11831984D02*
X14698087Y-11831984D01*
X14879039Y-11831984D02*
X14859991Y-11822460D01*
X14859991Y-11822460D02*
X14850468Y-11803412D01*
X14850468Y-11803412D02*
X14850468Y-11631984D01*
X15031420Y-11822460D02*
X15012372Y-11831984D01*
X15012372Y-11831984D02*
X14974277Y-11831984D01*
X14974277Y-11831984D02*
X14955230Y-11822460D01*
X14955230Y-11822460D02*
X14945706Y-11803412D01*
X14945706Y-11803412D02*
X14945706Y-11727222D01*
X14945706Y-11727222D02*
X14955230Y-11708174D01*
X14955230Y-11708174D02*
X14974277Y-11698650D01*
X14974277Y-11698650D02*
X15012372Y-11698650D01*
X15012372Y-11698650D02*
X15031420Y-11708174D01*
X15031420Y-11708174D02*
X15040944Y-11727222D01*
X15040944Y-11727222D02*
X15040944Y-11746269D01*
X15040944Y-11746269D02*
X14945706Y-11765317D01*
X15117134Y-11822460D02*
X15136182Y-11831984D01*
X15136182Y-11831984D02*
X15174277Y-11831984D01*
X15174277Y-11831984D02*
X15193325Y-11822460D01*
X15193325Y-11822460D02*
X15202849Y-11803412D01*
X15202849Y-11803412D02*
X15202849Y-11793888D01*
X15202849Y-11793888D02*
X15193325Y-11774841D01*
X15193325Y-11774841D02*
X15174277Y-11765317D01*
X15174277Y-11765317D02*
X15145706Y-11765317D01*
X15145706Y-11765317D02*
X15126658Y-11755793D01*
X15126658Y-11755793D02*
X15117134Y-11736746D01*
X15117134Y-11736746D02*
X15117134Y-11727222D01*
X15117134Y-11727222D02*
X15126658Y-11708174D01*
X15126658Y-11708174D02*
X15145706Y-11698650D01*
X15145706Y-11698650D02*
X15174277Y-11698650D01*
X15174277Y-11698650D02*
X15193325Y-11708174D01*
X15269515Y-11908174D02*
X15279039Y-11898650D01*
X15279039Y-11898650D02*
X15298087Y-11870079D01*
X15298087Y-11870079D02*
X15307611Y-11851031D01*
X15307611Y-11851031D02*
X15317134Y-11822460D01*
X15317134Y-11822460D02*
X15326658Y-11774841D01*
X15326658Y-11774841D02*
X15326658Y-11736746D01*
X15326658Y-11736746D02*
X15317134Y-11689127D01*
X15317134Y-11689127D02*
X15307611Y-11660555D01*
X15307611Y-11660555D02*
X15298087Y-11641508D01*
X15298087Y-11641508D02*
X15279039Y-11612936D01*
X15279039Y-11612936D02*
X15269515Y-11603412D01*
D12*
X10113500Y-12004500D02*
G75*
G02*
X10063500Y-12004500I-25000J0D01*
G01*
X10063500Y-12004500D02*
G75*
G02*
X10113500Y-12004500I25000J0D01*
G01*
D11*
X10412372Y-11895984D02*
X10431420Y-11895984D01*
X10431420Y-11895984D02*
X10450467Y-11905508D01*
X10450467Y-11905508D02*
X10459991Y-11915031D01*
X10459991Y-11915031D02*
X10469515Y-11934079D01*
X10469515Y-11934079D02*
X10479039Y-11972174D01*
X10479039Y-11972174D02*
X10479039Y-12019793D01*
X10479039Y-12019793D02*
X10469515Y-12057888D01*
X10469515Y-12057888D02*
X10459991Y-12076936D01*
X10459991Y-12076936D02*
X10450467Y-12086460D01*
X10450467Y-12086460D02*
X10431420Y-12095984D01*
X10431420Y-12095984D02*
X10412372Y-12095984D01*
X10412372Y-12095984D02*
X10393324Y-12086460D01*
X10393324Y-12086460D02*
X10383801Y-12076936D01*
X10383801Y-12076936D02*
X10374277Y-12057888D01*
X10374277Y-12057888D02*
X10364753Y-12019793D01*
X10364753Y-12019793D02*
X10364753Y-11972174D01*
X10364753Y-11972174D02*
X10374277Y-11934079D01*
X10374277Y-11934079D02*
X10383801Y-11915031D01*
X10383801Y-11915031D02*
X10393324Y-11905508D01*
X10393324Y-11905508D02*
X10412372Y-11895984D01*
X10564753Y-12076936D02*
X10574277Y-12086460D01*
X10574277Y-12086460D02*
X10564753Y-12095984D01*
X10564753Y-12095984D02*
X10555229Y-12086460D01*
X10555229Y-12086460D02*
X10564753Y-12076936D01*
X10564753Y-12076936D02*
X10564753Y-12095984D01*
X10755229Y-11895984D02*
X10659991Y-11895984D01*
X10659991Y-11895984D02*
X10650467Y-11991222D01*
X10650467Y-11991222D02*
X10659991Y-11981698D01*
X10659991Y-11981698D02*
X10679039Y-11972174D01*
X10679039Y-11972174D02*
X10726658Y-11972174D01*
X10726658Y-11972174D02*
X10745705Y-11981698D01*
X10745705Y-11981698D02*
X10755229Y-11991222D01*
X10755229Y-11991222D02*
X10764753Y-12010269D01*
X10764753Y-12010269D02*
X10764753Y-12057888D01*
X10764753Y-12057888D02*
X10755229Y-12076936D01*
X10755229Y-12076936D02*
X10745705Y-12086460D01*
X10745705Y-12086460D02*
X10726658Y-12095984D01*
X10726658Y-12095984D02*
X10679039Y-12095984D01*
X10679039Y-12095984D02*
X10659991Y-12086460D01*
X10659991Y-12086460D02*
X10650467Y-12076936D01*
X10888563Y-11895984D02*
X10907610Y-11895984D01*
X10907610Y-11895984D02*
X10926658Y-11905508D01*
X10926658Y-11905508D02*
X10936182Y-11915031D01*
X10936182Y-11915031D02*
X10945705Y-11934079D01*
X10945705Y-11934079D02*
X10955229Y-11972174D01*
X10955229Y-11972174D02*
X10955229Y-12019793D01*
X10955229Y-12019793D02*
X10945705Y-12057888D01*
X10945705Y-12057888D02*
X10936182Y-12076936D01*
X10936182Y-12076936D02*
X10926658Y-12086460D01*
X10926658Y-12086460D02*
X10907610Y-12095984D01*
X10907610Y-12095984D02*
X10888563Y-12095984D01*
X10888563Y-12095984D02*
X10869515Y-12086460D01*
X10869515Y-12086460D02*
X10859991Y-12076936D01*
X10859991Y-12076936D02*
X10850467Y-12057888D01*
X10850467Y-12057888D02*
X10840944Y-12019793D01*
X10840944Y-12019793D02*
X10840944Y-11972174D01*
X10840944Y-11972174D02*
X10850467Y-11934079D01*
X10850467Y-11934079D02*
X10859991Y-11915031D01*
X10859991Y-11915031D02*
X10869515Y-11905508D01*
X10869515Y-11905508D02*
X10888563Y-11895984D01*
X11079039Y-11895984D02*
X11098086Y-11895984D01*
X11098086Y-11895984D02*
X11117134Y-11905508D01*
X11117134Y-11905508D02*
X11126658Y-11915031D01*
X11126658Y-11915031D02*
X11136182Y-11934079D01*
X11136182Y-11934079D02*
X11145705Y-11972174D01*
X11145705Y-11972174D02*
X11145705Y-12019793D01*
X11145705Y-12019793D02*
X11136182Y-12057888D01*
X11136182Y-12057888D02*
X11126658Y-12076936D01*
X11126658Y-12076936D02*
X11117134Y-12086460D01*
X11117134Y-12086460D02*
X11098086Y-12095984D01*
X11098086Y-12095984D02*
X11079039Y-12095984D01*
X11079039Y-12095984D02*
X11059991Y-12086460D01*
X11059991Y-12086460D02*
X11050467Y-12076936D01*
X11050467Y-12076936D02*
X11040944Y-12057888D01*
X11040944Y-12057888D02*
X11031420Y-12019793D01*
X11031420Y-12019793D02*
X11031420Y-11972174D01*
X11031420Y-11972174D02*
X11040944Y-11934079D01*
X11040944Y-11934079D02*
X11050467Y-11915031D01*
X11050467Y-11915031D02*
X11059991Y-11905508D01*
X11059991Y-11905508D02*
X11079039Y-11895984D01*
X11231420Y-12095984D02*
X11231420Y-11962650D01*
X11231420Y-11981698D02*
X11240943Y-11972174D01*
X11240943Y-11972174D02*
X11259991Y-11962650D01*
X11259991Y-11962650D02*
X11288563Y-11962650D01*
X11288563Y-11962650D02*
X11307610Y-11972174D01*
X11307610Y-11972174D02*
X11317134Y-11991222D01*
X11317134Y-11991222D02*
X11317134Y-12095984D01*
X11317134Y-11991222D02*
X11326658Y-11972174D01*
X11326658Y-11972174D02*
X11345705Y-11962650D01*
X11345705Y-11962650D02*
X11374277Y-11962650D01*
X11374277Y-11962650D02*
X11393324Y-11972174D01*
X11393324Y-11972174D02*
X11402848Y-11991222D01*
X11402848Y-11991222D02*
X11402848Y-12095984D01*
X11498086Y-12095984D02*
X11498086Y-11962650D01*
X11498086Y-11981698D02*
X11507610Y-11972174D01*
X11507610Y-11972174D02*
X11526658Y-11962650D01*
X11526658Y-11962650D02*
X11555229Y-11962650D01*
X11555229Y-11962650D02*
X11574277Y-11972174D01*
X11574277Y-11972174D02*
X11583801Y-11991222D01*
X11583801Y-11991222D02*
X11583801Y-12095984D01*
X11583801Y-11991222D02*
X11593324Y-11972174D01*
X11593324Y-11972174D02*
X11612372Y-11962650D01*
X11612372Y-11962650D02*
X11640943Y-11962650D01*
X11640943Y-11962650D02*
X11659991Y-11972174D01*
X11659991Y-11972174D02*
X11669515Y-11991222D01*
X11669515Y-11991222D02*
X11669515Y-12095984D01*
X12059991Y-11886460D02*
X11888563Y-12143603D01*
X12317134Y-11895984D02*
X12336182Y-11895984D01*
X12336182Y-11895984D02*
X12355229Y-11905508D01*
X12355229Y-11905508D02*
X12364753Y-11915031D01*
X12364753Y-11915031D02*
X12374277Y-11934079D01*
X12374277Y-11934079D02*
X12383801Y-11972174D01*
X12383801Y-11972174D02*
X12383801Y-12019793D01*
X12383801Y-12019793D02*
X12374277Y-12057888D01*
X12374277Y-12057888D02*
X12364753Y-12076936D01*
X12364753Y-12076936D02*
X12355229Y-12086460D01*
X12355229Y-12086460D02*
X12336182Y-12095984D01*
X12336182Y-12095984D02*
X12317134Y-12095984D01*
X12317134Y-12095984D02*
X12298086Y-12086460D01*
X12298086Y-12086460D02*
X12288563Y-12076936D01*
X12288563Y-12076936D02*
X12279039Y-12057888D01*
X12279039Y-12057888D02*
X12269515Y-12019793D01*
X12269515Y-12019793D02*
X12269515Y-11972174D01*
X12269515Y-11972174D02*
X12279039Y-11934079D01*
X12279039Y-11934079D02*
X12288563Y-11915031D01*
X12288563Y-11915031D02*
X12298086Y-11905508D01*
X12298086Y-11905508D02*
X12317134Y-11895984D01*
X12469515Y-12076936D02*
X12479039Y-12086460D01*
X12479039Y-12086460D02*
X12469515Y-12095984D01*
X12469515Y-12095984D02*
X12459991Y-12086460D01*
X12459991Y-12086460D02*
X12469515Y-12076936D01*
X12469515Y-12076936D02*
X12469515Y-12095984D01*
X12602848Y-11895984D02*
X12621896Y-11895984D01*
X12621896Y-11895984D02*
X12640944Y-11905508D01*
X12640944Y-11905508D02*
X12650467Y-11915031D01*
X12650467Y-11915031D02*
X12659991Y-11934079D01*
X12659991Y-11934079D02*
X12669515Y-11972174D01*
X12669515Y-11972174D02*
X12669515Y-12019793D01*
X12669515Y-12019793D02*
X12659991Y-12057888D01*
X12659991Y-12057888D02*
X12650467Y-12076936D01*
X12650467Y-12076936D02*
X12640944Y-12086460D01*
X12640944Y-12086460D02*
X12621896Y-12095984D01*
X12621896Y-12095984D02*
X12602848Y-12095984D01*
X12602848Y-12095984D02*
X12583801Y-12086460D01*
X12583801Y-12086460D02*
X12574277Y-12076936D01*
X12574277Y-12076936D02*
X12564753Y-12057888D01*
X12564753Y-12057888D02*
X12555229Y-12019793D01*
X12555229Y-12019793D02*
X12555229Y-11972174D01*
X12555229Y-11972174D02*
X12564753Y-11934079D01*
X12564753Y-11934079D02*
X12574277Y-11915031D01*
X12574277Y-11915031D02*
X12583801Y-11905508D01*
X12583801Y-11905508D02*
X12602848Y-11895984D01*
X12859991Y-12095984D02*
X12745706Y-12095984D01*
X12802848Y-12095984D02*
X12802848Y-11895984D01*
X12802848Y-11895984D02*
X12783801Y-11924555D01*
X12783801Y-11924555D02*
X12764753Y-11943603D01*
X12764753Y-11943603D02*
X12745706Y-11953127D01*
X12955229Y-12095984D02*
X12993325Y-12095984D01*
X12993325Y-12095984D02*
X13012372Y-12086460D01*
X13012372Y-12086460D02*
X13021896Y-12076936D01*
X13021896Y-12076936D02*
X13040944Y-12048365D01*
X13040944Y-12048365D02*
X13050467Y-12010269D01*
X13050467Y-12010269D02*
X13050467Y-11934079D01*
X13050467Y-11934079D02*
X13040944Y-11915031D01*
X13040944Y-11915031D02*
X13031420Y-11905508D01*
X13031420Y-11905508D02*
X13012372Y-11895984D01*
X13012372Y-11895984D02*
X12974277Y-11895984D01*
X12974277Y-11895984D02*
X12955229Y-11905508D01*
X12955229Y-11905508D02*
X12945706Y-11915031D01*
X12945706Y-11915031D02*
X12936182Y-11934079D01*
X12936182Y-11934079D02*
X12936182Y-11981698D01*
X12936182Y-11981698D02*
X12945706Y-12000746D01*
X12945706Y-12000746D02*
X12955229Y-12010269D01*
X12955229Y-12010269D02*
X12974277Y-12019793D01*
X12974277Y-12019793D02*
X13012372Y-12019793D01*
X13012372Y-12019793D02*
X13031420Y-12010269D01*
X13031420Y-12010269D02*
X13040944Y-12000746D01*
X13040944Y-12000746D02*
X13050467Y-11981698D01*
X13117134Y-11895984D02*
X13250467Y-11895984D01*
X13250467Y-11895984D02*
X13164753Y-12095984D01*
X13317134Y-11895984D02*
X13317134Y-11934079D01*
X13393325Y-11895984D02*
X13393325Y-11934079D01*
X13688563Y-12172174D02*
X13679039Y-12162650D01*
X13679039Y-12162650D02*
X13659991Y-12134079D01*
X13659991Y-12134079D02*
X13650468Y-12115031D01*
X13650468Y-12115031D02*
X13640944Y-12086460D01*
X13640944Y-12086460D02*
X13631420Y-12038841D01*
X13631420Y-12038841D02*
X13631420Y-12000746D01*
X13631420Y-12000746D02*
X13640944Y-11953127D01*
X13640944Y-11953127D02*
X13650468Y-11924555D01*
X13650468Y-11924555D02*
X13659991Y-11905508D01*
X13659991Y-11905508D02*
X13679039Y-11876936D01*
X13679039Y-11876936D02*
X13688563Y-11867412D01*
X13774277Y-12095984D02*
X13812372Y-12095984D01*
X13812372Y-12095984D02*
X13831420Y-12086460D01*
X13831420Y-12086460D02*
X13840944Y-12076936D01*
X13840944Y-12076936D02*
X13859991Y-12048365D01*
X13859991Y-12048365D02*
X13869515Y-12010269D01*
X13869515Y-12010269D02*
X13869515Y-11934079D01*
X13869515Y-11934079D02*
X13859991Y-11915031D01*
X13859991Y-11915031D02*
X13850468Y-11905508D01*
X13850468Y-11905508D02*
X13831420Y-11895984D01*
X13831420Y-11895984D02*
X13793325Y-11895984D01*
X13793325Y-11895984D02*
X13774277Y-11905508D01*
X13774277Y-11905508D02*
X13764753Y-11915031D01*
X13764753Y-11915031D02*
X13755229Y-11934079D01*
X13755229Y-11934079D02*
X13755229Y-11981698D01*
X13755229Y-11981698D02*
X13764753Y-12000746D01*
X13764753Y-12000746D02*
X13774277Y-12010269D01*
X13774277Y-12010269D02*
X13793325Y-12019793D01*
X13793325Y-12019793D02*
X13831420Y-12019793D01*
X13831420Y-12019793D02*
X13850468Y-12010269D01*
X13850468Y-12010269D02*
X13859991Y-12000746D01*
X13859991Y-12000746D02*
X13869515Y-11981698D01*
X14107610Y-12095984D02*
X14107610Y-11895984D01*
X14193325Y-12095984D02*
X14193325Y-11991222D01*
X14193325Y-11991222D02*
X14183801Y-11972174D01*
X14183801Y-11972174D02*
X14164753Y-11962650D01*
X14164753Y-11962650D02*
X14136182Y-11962650D01*
X14136182Y-11962650D02*
X14117134Y-11972174D01*
X14117134Y-11972174D02*
X14107610Y-11981698D01*
X14317134Y-12095984D02*
X14298087Y-12086460D01*
X14298087Y-12086460D02*
X14288563Y-12076936D01*
X14288563Y-12076936D02*
X14279039Y-12057888D01*
X14279039Y-12057888D02*
X14279039Y-12000746D01*
X14279039Y-12000746D02*
X14288563Y-11981698D01*
X14288563Y-11981698D02*
X14298087Y-11972174D01*
X14298087Y-11972174D02*
X14317134Y-11962650D01*
X14317134Y-11962650D02*
X14345706Y-11962650D01*
X14345706Y-11962650D02*
X14364753Y-11972174D01*
X14364753Y-11972174D02*
X14374277Y-11981698D01*
X14374277Y-11981698D02*
X14383801Y-12000746D01*
X14383801Y-12000746D02*
X14383801Y-12057888D01*
X14383801Y-12057888D02*
X14374277Y-12076936D01*
X14374277Y-12076936D02*
X14364753Y-12086460D01*
X14364753Y-12086460D02*
X14345706Y-12095984D01*
X14345706Y-12095984D02*
X14317134Y-12095984D01*
X14498087Y-12095984D02*
X14479039Y-12086460D01*
X14479039Y-12086460D02*
X14469515Y-12067412D01*
X14469515Y-12067412D02*
X14469515Y-11895984D01*
X14650468Y-12086460D02*
X14631420Y-12095984D01*
X14631420Y-12095984D02*
X14593325Y-12095984D01*
X14593325Y-12095984D02*
X14574277Y-12086460D01*
X14574277Y-12086460D02*
X14564753Y-12067412D01*
X14564753Y-12067412D02*
X14564753Y-11991222D01*
X14564753Y-11991222D02*
X14574277Y-11972174D01*
X14574277Y-11972174D02*
X14593325Y-11962650D01*
X14593325Y-11962650D02*
X14631420Y-11962650D01*
X14631420Y-11962650D02*
X14650468Y-11972174D01*
X14650468Y-11972174D02*
X14659991Y-11991222D01*
X14659991Y-11991222D02*
X14659991Y-12010269D01*
X14659991Y-12010269D02*
X14564753Y-12029317D01*
X14736182Y-12086460D02*
X14755230Y-12095984D01*
X14755230Y-12095984D02*
X14793325Y-12095984D01*
X14793325Y-12095984D02*
X14812372Y-12086460D01*
X14812372Y-12086460D02*
X14821896Y-12067412D01*
X14821896Y-12067412D02*
X14821896Y-12057888D01*
X14821896Y-12057888D02*
X14812372Y-12038841D01*
X14812372Y-12038841D02*
X14793325Y-12029317D01*
X14793325Y-12029317D02*
X14764753Y-12029317D01*
X14764753Y-12029317D02*
X14745706Y-12019793D01*
X14745706Y-12019793D02*
X14736182Y-12000746D01*
X14736182Y-12000746D02*
X14736182Y-11991222D01*
X14736182Y-11991222D02*
X14745706Y-11972174D01*
X14745706Y-11972174D02*
X14764753Y-11962650D01*
X14764753Y-11962650D02*
X14793325Y-11962650D01*
X14793325Y-11962650D02*
X14812372Y-11972174D01*
X14888563Y-12172174D02*
X14898087Y-12162650D01*
X14898087Y-12162650D02*
X14917134Y-12134079D01*
X14917134Y-12134079D02*
X14926658Y-12115031D01*
X14926658Y-12115031D02*
X14936182Y-12086460D01*
X14936182Y-12086460D02*
X14945706Y-12038841D01*
X14945706Y-12038841D02*
X14945706Y-12000746D01*
X14945706Y-12000746D02*
X14936182Y-11953127D01*
X14936182Y-11953127D02*
X14926658Y-11924555D01*
X14926658Y-11924555D02*
X14917134Y-11905508D01*
X14917134Y-11905508D02*
X14898087Y-11876936D01*
X14898087Y-11876936D02*
X14888563Y-11867412D01*
D12*
X10088500Y-12243500D02*
X10088500Y-12293500D01*
X10063500Y-12268500D02*
X10113500Y-12268500D01*
D11*
X10412372Y-12159984D02*
X10431420Y-12159984D01*
X10431420Y-12159984D02*
X10450467Y-12169508D01*
X10450467Y-12169508D02*
X10459991Y-12179031D01*
X10459991Y-12179031D02*
X10469515Y-12198079D01*
X10469515Y-12198079D02*
X10479039Y-12236174D01*
X10479039Y-12236174D02*
X10479039Y-12283793D01*
X10479039Y-12283793D02*
X10469515Y-12321888D01*
X10469515Y-12321888D02*
X10459991Y-12340936D01*
X10459991Y-12340936D02*
X10450467Y-12350460D01*
X10450467Y-12350460D02*
X10431420Y-12359984D01*
X10431420Y-12359984D02*
X10412372Y-12359984D01*
X10412372Y-12359984D02*
X10393324Y-12350460D01*
X10393324Y-12350460D02*
X10383801Y-12340936D01*
X10383801Y-12340936D02*
X10374277Y-12321888D01*
X10374277Y-12321888D02*
X10364753Y-12283793D01*
X10364753Y-12283793D02*
X10364753Y-12236174D01*
X10364753Y-12236174D02*
X10374277Y-12198079D01*
X10374277Y-12198079D02*
X10383801Y-12179031D01*
X10383801Y-12179031D02*
X10393324Y-12169508D01*
X10393324Y-12169508D02*
X10412372Y-12159984D01*
X10564753Y-12340936D02*
X10574277Y-12350460D01*
X10574277Y-12350460D02*
X10564753Y-12359984D01*
X10564753Y-12359984D02*
X10555229Y-12350460D01*
X10555229Y-12350460D02*
X10564753Y-12340936D01*
X10564753Y-12340936D02*
X10564753Y-12359984D01*
X10755229Y-12159984D02*
X10659991Y-12159984D01*
X10659991Y-12159984D02*
X10650467Y-12255222D01*
X10650467Y-12255222D02*
X10659991Y-12245698D01*
X10659991Y-12245698D02*
X10679039Y-12236174D01*
X10679039Y-12236174D02*
X10726658Y-12236174D01*
X10726658Y-12236174D02*
X10745705Y-12245698D01*
X10745705Y-12245698D02*
X10755229Y-12255222D01*
X10755229Y-12255222D02*
X10764753Y-12274269D01*
X10764753Y-12274269D02*
X10764753Y-12321888D01*
X10764753Y-12321888D02*
X10755229Y-12340936D01*
X10755229Y-12340936D02*
X10745705Y-12350460D01*
X10745705Y-12350460D02*
X10726658Y-12359984D01*
X10726658Y-12359984D02*
X10679039Y-12359984D01*
X10679039Y-12359984D02*
X10659991Y-12350460D01*
X10659991Y-12350460D02*
X10650467Y-12340936D01*
X10888563Y-12159984D02*
X10907610Y-12159984D01*
X10907610Y-12159984D02*
X10926658Y-12169508D01*
X10926658Y-12169508D02*
X10936182Y-12179031D01*
X10936182Y-12179031D02*
X10945705Y-12198079D01*
X10945705Y-12198079D02*
X10955229Y-12236174D01*
X10955229Y-12236174D02*
X10955229Y-12283793D01*
X10955229Y-12283793D02*
X10945705Y-12321888D01*
X10945705Y-12321888D02*
X10936182Y-12340936D01*
X10936182Y-12340936D02*
X10926658Y-12350460D01*
X10926658Y-12350460D02*
X10907610Y-12359984D01*
X10907610Y-12359984D02*
X10888563Y-12359984D01*
X10888563Y-12359984D02*
X10869515Y-12350460D01*
X10869515Y-12350460D02*
X10859991Y-12340936D01*
X10859991Y-12340936D02*
X10850467Y-12321888D01*
X10850467Y-12321888D02*
X10840944Y-12283793D01*
X10840944Y-12283793D02*
X10840944Y-12236174D01*
X10840944Y-12236174D02*
X10850467Y-12198079D01*
X10850467Y-12198079D02*
X10859991Y-12179031D01*
X10859991Y-12179031D02*
X10869515Y-12169508D01*
X10869515Y-12169508D02*
X10888563Y-12159984D01*
X11079039Y-12159984D02*
X11098086Y-12159984D01*
X11098086Y-12159984D02*
X11117134Y-12169508D01*
X11117134Y-12169508D02*
X11126658Y-12179031D01*
X11126658Y-12179031D02*
X11136182Y-12198079D01*
X11136182Y-12198079D02*
X11145705Y-12236174D01*
X11145705Y-12236174D02*
X11145705Y-12283793D01*
X11145705Y-12283793D02*
X11136182Y-12321888D01*
X11136182Y-12321888D02*
X11126658Y-12340936D01*
X11126658Y-12340936D02*
X11117134Y-12350460D01*
X11117134Y-12350460D02*
X11098086Y-12359984D01*
X11098086Y-12359984D02*
X11079039Y-12359984D01*
X11079039Y-12359984D02*
X11059991Y-12350460D01*
X11059991Y-12350460D02*
X11050467Y-12340936D01*
X11050467Y-12340936D02*
X11040944Y-12321888D01*
X11040944Y-12321888D02*
X11031420Y-12283793D01*
X11031420Y-12283793D02*
X11031420Y-12236174D01*
X11031420Y-12236174D02*
X11040944Y-12198079D01*
X11040944Y-12198079D02*
X11050467Y-12179031D01*
X11050467Y-12179031D02*
X11059991Y-12169508D01*
X11059991Y-12169508D02*
X11079039Y-12159984D01*
X11231420Y-12359984D02*
X11231420Y-12226650D01*
X11231420Y-12245698D02*
X11240943Y-12236174D01*
X11240943Y-12236174D02*
X11259991Y-12226650D01*
X11259991Y-12226650D02*
X11288563Y-12226650D01*
X11288563Y-12226650D02*
X11307610Y-12236174D01*
X11307610Y-12236174D02*
X11317134Y-12255222D01*
X11317134Y-12255222D02*
X11317134Y-12359984D01*
X11317134Y-12255222D02*
X11326658Y-12236174D01*
X11326658Y-12236174D02*
X11345705Y-12226650D01*
X11345705Y-12226650D02*
X11374277Y-12226650D01*
X11374277Y-12226650D02*
X11393324Y-12236174D01*
X11393324Y-12236174D02*
X11402848Y-12255222D01*
X11402848Y-12255222D02*
X11402848Y-12359984D01*
X11498086Y-12359984D02*
X11498086Y-12226650D01*
X11498086Y-12245698D02*
X11507610Y-12236174D01*
X11507610Y-12236174D02*
X11526658Y-12226650D01*
X11526658Y-12226650D02*
X11555229Y-12226650D01*
X11555229Y-12226650D02*
X11574277Y-12236174D01*
X11574277Y-12236174D02*
X11583801Y-12255222D01*
X11583801Y-12255222D02*
X11583801Y-12359984D01*
X11583801Y-12255222D02*
X11593324Y-12236174D01*
X11593324Y-12236174D02*
X11612372Y-12226650D01*
X11612372Y-12226650D02*
X11640943Y-12226650D01*
X11640943Y-12226650D02*
X11659991Y-12236174D01*
X11659991Y-12236174D02*
X11669515Y-12255222D01*
X11669515Y-12255222D02*
X11669515Y-12359984D01*
X12059991Y-12150460D02*
X11888563Y-12407603D01*
X12317134Y-12159984D02*
X12336182Y-12159984D01*
X12336182Y-12159984D02*
X12355229Y-12169508D01*
X12355229Y-12169508D02*
X12364753Y-12179031D01*
X12364753Y-12179031D02*
X12374277Y-12198079D01*
X12374277Y-12198079D02*
X12383801Y-12236174D01*
X12383801Y-12236174D02*
X12383801Y-12283793D01*
X12383801Y-12283793D02*
X12374277Y-12321888D01*
X12374277Y-12321888D02*
X12364753Y-12340936D01*
X12364753Y-12340936D02*
X12355229Y-12350460D01*
X12355229Y-12350460D02*
X12336182Y-12359984D01*
X12336182Y-12359984D02*
X12317134Y-12359984D01*
X12317134Y-12359984D02*
X12298086Y-12350460D01*
X12298086Y-12350460D02*
X12288563Y-12340936D01*
X12288563Y-12340936D02*
X12279039Y-12321888D01*
X12279039Y-12321888D02*
X12269515Y-12283793D01*
X12269515Y-12283793D02*
X12269515Y-12236174D01*
X12269515Y-12236174D02*
X12279039Y-12198079D01*
X12279039Y-12198079D02*
X12288563Y-12179031D01*
X12288563Y-12179031D02*
X12298086Y-12169508D01*
X12298086Y-12169508D02*
X12317134Y-12159984D01*
X12469515Y-12340936D02*
X12479039Y-12350460D01*
X12479039Y-12350460D02*
X12469515Y-12359984D01*
X12469515Y-12359984D02*
X12459991Y-12350460D01*
X12459991Y-12350460D02*
X12469515Y-12340936D01*
X12469515Y-12340936D02*
X12469515Y-12359984D01*
X12602848Y-12159984D02*
X12621896Y-12159984D01*
X12621896Y-12159984D02*
X12640944Y-12169508D01*
X12640944Y-12169508D02*
X12650467Y-12179031D01*
X12650467Y-12179031D02*
X12659991Y-12198079D01*
X12659991Y-12198079D02*
X12669515Y-12236174D01*
X12669515Y-12236174D02*
X12669515Y-12283793D01*
X12669515Y-12283793D02*
X12659991Y-12321888D01*
X12659991Y-12321888D02*
X12650467Y-12340936D01*
X12650467Y-12340936D02*
X12640944Y-12350460D01*
X12640944Y-12350460D02*
X12621896Y-12359984D01*
X12621896Y-12359984D02*
X12602848Y-12359984D01*
X12602848Y-12359984D02*
X12583801Y-12350460D01*
X12583801Y-12350460D02*
X12574277Y-12340936D01*
X12574277Y-12340936D02*
X12564753Y-12321888D01*
X12564753Y-12321888D02*
X12555229Y-12283793D01*
X12555229Y-12283793D02*
X12555229Y-12236174D01*
X12555229Y-12236174D02*
X12564753Y-12198079D01*
X12564753Y-12198079D02*
X12574277Y-12179031D01*
X12574277Y-12179031D02*
X12583801Y-12169508D01*
X12583801Y-12169508D02*
X12602848Y-12159984D01*
X12859991Y-12359984D02*
X12745706Y-12359984D01*
X12802848Y-12359984D02*
X12802848Y-12159984D01*
X12802848Y-12159984D02*
X12783801Y-12188555D01*
X12783801Y-12188555D02*
X12764753Y-12207603D01*
X12764753Y-12207603D02*
X12745706Y-12217127D01*
X12955229Y-12359984D02*
X12993325Y-12359984D01*
X12993325Y-12359984D02*
X13012372Y-12350460D01*
X13012372Y-12350460D02*
X13021896Y-12340936D01*
X13021896Y-12340936D02*
X13040944Y-12312365D01*
X13040944Y-12312365D02*
X13050467Y-12274269D01*
X13050467Y-12274269D02*
X13050467Y-12198079D01*
X13050467Y-12198079D02*
X13040944Y-12179031D01*
X13040944Y-12179031D02*
X13031420Y-12169508D01*
X13031420Y-12169508D02*
X13012372Y-12159984D01*
X13012372Y-12159984D02*
X12974277Y-12159984D01*
X12974277Y-12159984D02*
X12955229Y-12169508D01*
X12955229Y-12169508D02*
X12945706Y-12179031D01*
X12945706Y-12179031D02*
X12936182Y-12198079D01*
X12936182Y-12198079D02*
X12936182Y-12245698D01*
X12936182Y-12245698D02*
X12945706Y-12264746D01*
X12945706Y-12264746D02*
X12955229Y-12274269D01*
X12955229Y-12274269D02*
X12974277Y-12283793D01*
X12974277Y-12283793D02*
X13012372Y-12283793D01*
X13012372Y-12283793D02*
X13031420Y-12274269D01*
X13031420Y-12274269D02*
X13040944Y-12264746D01*
X13040944Y-12264746D02*
X13050467Y-12245698D01*
X13117134Y-12159984D02*
X13250467Y-12159984D01*
X13250467Y-12159984D02*
X13164753Y-12359984D01*
X13317134Y-12159984D02*
X13317134Y-12198079D01*
X13393325Y-12159984D02*
X13393325Y-12198079D01*
X13688563Y-12436174D02*
X13679039Y-12426650D01*
X13679039Y-12426650D02*
X13659991Y-12398079D01*
X13659991Y-12398079D02*
X13650468Y-12379031D01*
X13650468Y-12379031D02*
X13640944Y-12350460D01*
X13640944Y-12350460D02*
X13631420Y-12302841D01*
X13631420Y-12302841D02*
X13631420Y-12264746D01*
X13631420Y-12264746D02*
X13640944Y-12217127D01*
X13640944Y-12217127D02*
X13650468Y-12188555D01*
X13650468Y-12188555D02*
X13659991Y-12169508D01*
X13659991Y-12169508D02*
X13679039Y-12140936D01*
X13679039Y-12140936D02*
X13688563Y-12131412D01*
X13869515Y-12359984D02*
X13755229Y-12359984D01*
X13812372Y-12359984D02*
X13812372Y-12159984D01*
X13812372Y-12159984D02*
X13793325Y-12188555D01*
X13793325Y-12188555D02*
X13774277Y-12207603D01*
X13774277Y-12207603D02*
X13755229Y-12217127D01*
X13993325Y-12159984D02*
X14012372Y-12159984D01*
X14012372Y-12159984D02*
X14031420Y-12169508D01*
X14031420Y-12169508D02*
X14040944Y-12179031D01*
X14040944Y-12179031D02*
X14050468Y-12198079D01*
X14050468Y-12198079D02*
X14059991Y-12236174D01*
X14059991Y-12236174D02*
X14059991Y-12283793D01*
X14059991Y-12283793D02*
X14050468Y-12321888D01*
X14050468Y-12321888D02*
X14040944Y-12340936D01*
X14040944Y-12340936D02*
X14031420Y-12350460D01*
X14031420Y-12350460D02*
X14012372Y-12359984D01*
X14012372Y-12359984D02*
X13993325Y-12359984D01*
X13993325Y-12359984D02*
X13974277Y-12350460D01*
X13974277Y-12350460D02*
X13964753Y-12340936D01*
X13964753Y-12340936D02*
X13955229Y-12321888D01*
X13955229Y-12321888D02*
X13945706Y-12283793D01*
X13945706Y-12283793D02*
X13945706Y-12236174D01*
X13945706Y-12236174D02*
X13955229Y-12198079D01*
X13955229Y-12198079D02*
X13964753Y-12179031D01*
X13964753Y-12179031D02*
X13974277Y-12169508D01*
X13974277Y-12169508D02*
X13993325Y-12159984D01*
X14298087Y-12359984D02*
X14298087Y-12159984D01*
X14383801Y-12359984D02*
X14383801Y-12255222D01*
X14383801Y-12255222D02*
X14374277Y-12236174D01*
X14374277Y-12236174D02*
X14355230Y-12226650D01*
X14355230Y-12226650D02*
X14326658Y-12226650D01*
X14326658Y-12226650D02*
X14307610Y-12236174D01*
X14307610Y-12236174D02*
X14298087Y-12245698D01*
X14507610Y-12359984D02*
X14488563Y-12350460D01*
X14488563Y-12350460D02*
X14479039Y-12340936D01*
X14479039Y-12340936D02*
X14469515Y-12321888D01*
X14469515Y-12321888D02*
X14469515Y-12264746D01*
X14469515Y-12264746D02*
X14479039Y-12245698D01*
X14479039Y-12245698D02*
X14488563Y-12236174D01*
X14488563Y-12236174D02*
X14507610Y-12226650D01*
X14507610Y-12226650D02*
X14536182Y-12226650D01*
X14536182Y-12226650D02*
X14555230Y-12236174D01*
X14555230Y-12236174D02*
X14564753Y-12245698D01*
X14564753Y-12245698D02*
X14574277Y-12264746D01*
X14574277Y-12264746D02*
X14574277Y-12321888D01*
X14574277Y-12321888D02*
X14564753Y-12340936D01*
X14564753Y-12340936D02*
X14555230Y-12350460D01*
X14555230Y-12350460D02*
X14536182Y-12359984D01*
X14536182Y-12359984D02*
X14507610Y-12359984D01*
X14688563Y-12359984D02*
X14669515Y-12350460D01*
X14669515Y-12350460D02*
X14659991Y-12331412D01*
X14659991Y-12331412D02*
X14659991Y-12159984D01*
X14840944Y-12350460D02*
X14821896Y-12359984D01*
X14821896Y-12359984D02*
X14783801Y-12359984D01*
X14783801Y-12359984D02*
X14764753Y-12350460D01*
X14764753Y-12350460D02*
X14755230Y-12331412D01*
X14755230Y-12331412D02*
X14755230Y-12255222D01*
X14755230Y-12255222D02*
X14764753Y-12236174D01*
X14764753Y-12236174D02*
X14783801Y-12226650D01*
X14783801Y-12226650D02*
X14821896Y-12226650D01*
X14821896Y-12226650D02*
X14840944Y-12236174D01*
X14840944Y-12236174D02*
X14850468Y-12255222D01*
X14850468Y-12255222D02*
X14850468Y-12274269D01*
X14850468Y-12274269D02*
X14755230Y-12293317D01*
X14926658Y-12350460D02*
X14945706Y-12359984D01*
X14945706Y-12359984D02*
X14983801Y-12359984D01*
X14983801Y-12359984D02*
X15002849Y-12350460D01*
X15002849Y-12350460D02*
X15012372Y-12331412D01*
X15012372Y-12331412D02*
X15012372Y-12321888D01*
X15012372Y-12321888D02*
X15002849Y-12302841D01*
X15002849Y-12302841D02*
X14983801Y-12293317D01*
X14983801Y-12293317D02*
X14955230Y-12293317D01*
X14955230Y-12293317D02*
X14936182Y-12283793D01*
X14936182Y-12283793D02*
X14926658Y-12264746D01*
X14926658Y-12264746D02*
X14926658Y-12255222D01*
X14926658Y-12255222D02*
X14936182Y-12236174D01*
X14936182Y-12236174D02*
X14955230Y-12226650D01*
X14955230Y-12226650D02*
X14983801Y-12226650D01*
X14983801Y-12226650D02*
X15002849Y-12236174D01*
X15079039Y-12436174D02*
X15088563Y-12426650D01*
X15088563Y-12426650D02*
X15107611Y-12398079D01*
X15107611Y-12398079D02*
X15117134Y-12379031D01*
X15117134Y-12379031D02*
X15126658Y-12350460D01*
X15126658Y-12350460D02*
X15136182Y-12302841D01*
X15136182Y-12302841D02*
X15136182Y-12264746D01*
X15136182Y-12264746D02*
X15126658Y-12217127D01*
X15126658Y-12217127D02*
X15117134Y-12188555D01*
X15117134Y-12188555D02*
X15107611Y-12169508D01*
X15107611Y-12169508D02*
X15088563Y-12140936D01*
X15088563Y-12140936D02*
X15079039Y-12131412D01*
D12*
X10103249Y-12557249D02*
X10103249Y-12507751D01*
X10053751Y-12507751D01*
X10053751Y-12557249D01*
X10103249Y-12557249D01*
D11*
X10412372Y-12423984D02*
X10431420Y-12423984D01*
X10431420Y-12423984D02*
X10450467Y-12433508D01*
X10450467Y-12433508D02*
X10459991Y-12443031D01*
X10459991Y-12443031D02*
X10469515Y-12462079D01*
X10469515Y-12462079D02*
X10479039Y-12500174D01*
X10479039Y-12500174D02*
X10479039Y-12547793D01*
X10479039Y-12547793D02*
X10469515Y-12585888D01*
X10469515Y-12585888D02*
X10459991Y-12604936D01*
X10459991Y-12604936D02*
X10450467Y-12614460D01*
X10450467Y-12614460D02*
X10431420Y-12623984D01*
X10431420Y-12623984D02*
X10412372Y-12623984D01*
X10412372Y-12623984D02*
X10393324Y-12614460D01*
X10393324Y-12614460D02*
X10383801Y-12604936D01*
X10383801Y-12604936D02*
X10374277Y-12585888D01*
X10374277Y-12585888D02*
X10364753Y-12547793D01*
X10364753Y-12547793D02*
X10364753Y-12500174D01*
X10364753Y-12500174D02*
X10374277Y-12462079D01*
X10374277Y-12462079D02*
X10383801Y-12443031D01*
X10383801Y-12443031D02*
X10393324Y-12433508D01*
X10393324Y-12433508D02*
X10412372Y-12423984D01*
X10564753Y-12604936D02*
X10574277Y-12614460D01*
X10574277Y-12614460D02*
X10564753Y-12623984D01*
X10564753Y-12623984D02*
X10555229Y-12614460D01*
X10555229Y-12614460D02*
X10564753Y-12604936D01*
X10564753Y-12604936D02*
X10564753Y-12623984D01*
X10640944Y-12423984D02*
X10774277Y-12423984D01*
X10774277Y-12423984D02*
X10688563Y-12623984D01*
X10888563Y-12423984D02*
X10907610Y-12423984D01*
X10907610Y-12423984D02*
X10926658Y-12433508D01*
X10926658Y-12433508D02*
X10936182Y-12443031D01*
X10936182Y-12443031D02*
X10945705Y-12462079D01*
X10945705Y-12462079D02*
X10955229Y-12500174D01*
X10955229Y-12500174D02*
X10955229Y-12547793D01*
X10955229Y-12547793D02*
X10945705Y-12585888D01*
X10945705Y-12585888D02*
X10936182Y-12604936D01*
X10936182Y-12604936D02*
X10926658Y-12614460D01*
X10926658Y-12614460D02*
X10907610Y-12623984D01*
X10907610Y-12623984D02*
X10888563Y-12623984D01*
X10888563Y-12623984D02*
X10869515Y-12614460D01*
X10869515Y-12614460D02*
X10859991Y-12604936D01*
X10859991Y-12604936D02*
X10850467Y-12585888D01*
X10850467Y-12585888D02*
X10840944Y-12547793D01*
X10840944Y-12547793D02*
X10840944Y-12500174D01*
X10840944Y-12500174D02*
X10850467Y-12462079D01*
X10850467Y-12462079D02*
X10859991Y-12443031D01*
X10859991Y-12443031D02*
X10869515Y-12433508D01*
X10869515Y-12433508D02*
X10888563Y-12423984D01*
X11079039Y-12423984D02*
X11098086Y-12423984D01*
X11098086Y-12423984D02*
X11117134Y-12433508D01*
X11117134Y-12433508D02*
X11126658Y-12443031D01*
X11126658Y-12443031D02*
X11136182Y-12462079D01*
X11136182Y-12462079D02*
X11145705Y-12500174D01*
X11145705Y-12500174D02*
X11145705Y-12547793D01*
X11145705Y-12547793D02*
X11136182Y-12585888D01*
X11136182Y-12585888D02*
X11126658Y-12604936D01*
X11126658Y-12604936D02*
X11117134Y-12614460D01*
X11117134Y-12614460D02*
X11098086Y-12623984D01*
X11098086Y-12623984D02*
X11079039Y-12623984D01*
X11079039Y-12623984D02*
X11059991Y-12614460D01*
X11059991Y-12614460D02*
X11050467Y-12604936D01*
X11050467Y-12604936D02*
X11040944Y-12585888D01*
X11040944Y-12585888D02*
X11031420Y-12547793D01*
X11031420Y-12547793D02*
X11031420Y-12500174D01*
X11031420Y-12500174D02*
X11040944Y-12462079D01*
X11040944Y-12462079D02*
X11050467Y-12443031D01*
X11050467Y-12443031D02*
X11059991Y-12433508D01*
X11059991Y-12433508D02*
X11079039Y-12423984D01*
X11231420Y-12623984D02*
X11231420Y-12490650D01*
X11231420Y-12509698D02*
X11240943Y-12500174D01*
X11240943Y-12500174D02*
X11259991Y-12490650D01*
X11259991Y-12490650D02*
X11288563Y-12490650D01*
X11288563Y-12490650D02*
X11307610Y-12500174D01*
X11307610Y-12500174D02*
X11317134Y-12519222D01*
X11317134Y-12519222D02*
X11317134Y-12623984D01*
X11317134Y-12519222D02*
X11326658Y-12500174D01*
X11326658Y-12500174D02*
X11345705Y-12490650D01*
X11345705Y-12490650D02*
X11374277Y-12490650D01*
X11374277Y-12490650D02*
X11393324Y-12500174D01*
X11393324Y-12500174D02*
X11402848Y-12519222D01*
X11402848Y-12519222D02*
X11402848Y-12623984D01*
X11498086Y-12623984D02*
X11498086Y-12490650D01*
X11498086Y-12509698D02*
X11507610Y-12500174D01*
X11507610Y-12500174D02*
X11526658Y-12490650D01*
X11526658Y-12490650D02*
X11555229Y-12490650D01*
X11555229Y-12490650D02*
X11574277Y-12500174D01*
X11574277Y-12500174D02*
X11583801Y-12519222D01*
X11583801Y-12519222D02*
X11583801Y-12623984D01*
X11583801Y-12519222D02*
X11593324Y-12500174D01*
X11593324Y-12500174D02*
X11612372Y-12490650D01*
X11612372Y-12490650D02*
X11640943Y-12490650D01*
X11640943Y-12490650D02*
X11659991Y-12500174D01*
X11659991Y-12500174D02*
X11669515Y-12519222D01*
X11669515Y-12519222D02*
X11669515Y-12623984D01*
X12059991Y-12414460D02*
X11888563Y-12671603D01*
X12317134Y-12423984D02*
X12336182Y-12423984D01*
X12336182Y-12423984D02*
X12355229Y-12433508D01*
X12355229Y-12433508D02*
X12364753Y-12443031D01*
X12364753Y-12443031D02*
X12374277Y-12462079D01*
X12374277Y-12462079D02*
X12383801Y-12500174D01*
X12383801Y-12500174D02*
X12383801Y-12547793D01*
X12383801Y-12547793D02*
X12374277Y-12585888D01*
X12374277Y-12585888D02*
X12364753Y-12604936D01*
X12364753Y-12604936D02*
X12355229Y-12614460D01*
X12355229Y-12614460D02*
X12336182Y-12623984D01*
X12336182Y-12623984D02*
X12317134Y-12623984D01*
X12317134Y-12623984D02*
X12298086Y-12614460D01*
X12298086Y-12614460D02*
X12288563Y-12604936D01*
X12288563Y-12604936D02*
X12279039Y-12585888D01*
X12279039Y-12585888D02*
X12269515Y-12547793D01*
X12269515Y-12547793D02*
X12269515Y-12500174D01*
X12269515Y-12500174D02*
X12279039Y-12462079D01*
X12279039Y-12462079D02*
X12288563Y-12443031D01*
X12288563Y-12443031D02*
X12298086Y-12433508D01*
X12298086Y-12433508D02*
X12317134Y-12423984D01*
X12469515Y-12604936D02*
X12479039Y-12614460D01*
X12479039Y-12614460D02*
X12469515Y-12623984D01*
X12469515Y-12623984D02*
X12459991Y-12614460D01*
X12459991Y-12614460D02*
X12469515Y-12604936D01*
X12469515Y-12604936D02*
X12469515Y-12623984D01*
X12602848Y-12423984D02*
X12621896Y-12423984D01*
X12621896Y-12423984D02*
X12640944Y-12433508D01*
X12640944Y-12433508D02*
X12650467Y-12443031D01*
X12650467Y-12443031D02*
X12659991Y-12462079D01*
X12659991Y-12462079D02*
X12669515Y-12500174D01*
X12669515Y-12500174D02*
X12669515Y-12547793D01*
X12669515Y-12547793D02*
X12659991Y-12585888D01*
X12659991Y-12585888D02*
X12650467Y-12604936D01*
X12650467Y-12604936D02*
X12640944Y-12614460D01*
X12640944Y-12614460D02*
X12621896Y-12623984D01*
X12621896Y-12623984D02*
X12602848Y-12623984D01*
X12602848Y-12623984D02*
X12583801Y-12614460D01*
X12583801Y-12614460D02*
X12574277Y-12604936D01*
X12574277Y-12604936D02*
X12564753Y-12585888D01*
X12564753Y-12585888D02*
X12555229Y-12547793D01*
X12555229Y-12547793D02*
X12555229Y-12500174D01*
X12555229Y-12500174D02*
X12564753Y-12462079D01*
X12564753Y-12462079D02*
X12574277Y-12443031D01*
X12574277Y-12443031D02*
X12583801Y-12433508D01*
X12583801Y-12433508D02*
X12602848Y-12423984D01*
X12745706Y-12443031D02*
X12755229Y-12433508D01*
X12755229Y-12433508D02*
X12774277Y-12423984D01*
X12774277Y-12423984D02*
X12821896Y-12423984D01*
X12821896Y-12423984D02*
X12840944Y-12433508D01*
X12840944Y-12433508D02*
X12850467Y-12443031D01*
X12850467Y-12443031D02*
X12859991Y-12462079D01*
X12859991Y-12462079D02*
X12859991Y-12481127D01*
X12859991Y-12481127D02*
X12850467Y-12509698D01*
X12850467Y-12509698D02*
X12736182Y-12623984D01*
X12736182Y-12623984D02*
X12859991Y-12623984D01*
X12926658Y-12423984D02*
X13059991Y-12423984D01*
X13059991Y-12423984D02*
X12974277Y-12623984D01*
X13221896Y-12423984D02*
X13183801Y-12423984D01*
X13183801Y-12423984D02*
X13164753Y-12433508D01*
X13164753Y-12433508D02*
X13155229Y-12443031D01*
X13155229Y-12443031D02*
X13136182Y-12471603D01*
X13136182Y-12471603D02*
X13126658Y-12509698D01*
X13126658Y-12509698D02*
X13126658Y-12585888D01*
X13126658Y-12585888D02*
X13136182Y-12604936D01*
X13136182Y-12604936D02*
X13145706Y-12614460D01*
X13145706Y-12614460D02*
X13164753Y-12623984D01*
X13164753Y-12623984D02*
X13202848Y-12623984D01*
X13202848Y-12623984D02*
X13221896Y-12614460D01*
X13221896Y-12614460D02*
X13231420Y-12604936D01*
X13231420Y-12604936D02*
X13240944Y-12585888D01*
X13240944Y-12585888D02*
X13240944Y-12538269D01*
X13240944Y-12538269D02*
X13231420Y-12519222D01*
X13231420Y-12519222D02*
X13221896Y-12509698D01*
X13221896Y-12509698D02*
X13202848Y-12500174D01*
X13202848Y-12500174D02*
X13164753Y-12500174D01*
X13164753Y-12500174D02*
X13145706Y-12509698D01*
X13145706Y-12509698D02*
X13136182Y-12519222D01*
X13136182Y-12519222D02*
X13126658Y-12538269D01*
X13317134Y-12423984D02*
X13317134Y-12462079D01*
X13393325Y-12423984D02*
X13393325Y-12462079D01*
X13688563Y-12700174D02*
X13679039Y-12690650D01*
X13679039Y-12690650D02*
X13659991Y-12662079D01*
X13659991Y-12662079D02*
X13650468Y-12643031D01*
X13650468Y-12643031D02*
X13640944Y-12614460D01*
X13640944Y-12614460D02*
X13631420Y-12566841D01*
X13631420Y-12566841D02*
X13631420Y-12528746D01*
X13631420Y-12528746D02*
X13640944Y-12481127D01*
X13640944Y-12481127D02*
X13650468Y-12452555D01*
X13650468Y-12452555D02*
X13659991Y-12433508D01*
X13659991Y-12433508D02*
X13679039Y-12404936D01*
X13679039Y-12404936D02*
X13688563Y-12395412D01*
X13745706Y-12423984D02*
X13879039Y-12423984D01*
X13879039Y-12423984D02*
X13793325Y-12623984D01*
X14107610Y-12623984D02*
X14107610Y-12423984D01*
X14193325Y-12623984D02*
X14193325Y-12519222D01*
X14193325Y-12519222D02*
X14183801Y-12500174D01*
X14183801Y-12500174D02*
X14164753Y-12490650D01*
X14164753Y-12490650D02*
X14136182Y-12490650D01*
X14136182Y-12490650D02*
X14117134Y-12500174D01*
X14117134Y-12500174D02*
X14107610Y-12509698D01*
X14317134Y-12623984D02*
X14298087Y-12614460D01*
X14298087Y-12614460D02*
X14288563Y-12604936D01*
X14288563Y-12604936D02*
X14279039Y-12585888D01*
X14279039Y-12585888D02*
X14279039Y-12528746D01*
X14279039Y-12528746D02*
X14288563Y-12509698D01*
X14288563Y-12509698D02*
X14298087Y-12500174D01*
X14298087Y-12500174D02*
X14317134Y-12490650D01*
X14317134Y-12490650D02*
X14345706Y-12490650D01*
X14345706Y-12490650D02*
X14364753Y-12500174D01*
X14364753Y-12500174D02*
X14374277Y-12509698D01*
X14374277Y-12509698D02*
X14383801Y-12528746D01*
X14383801Y-12528746D02*
X14383801Y-12585888D01*
X14383801Y-12585888D02*
X14374277Y-12604936D01*
X14374277Y-12604936D02*
X14364753Y-12614460D01*
X14364753Y-12614460D02*
X14345706Y-12623984D01*
X14345706Y-12623984D02*
X14317134Y-12623984D01*
X14498087Y-12623984D02*
X14479039Y-12614460D01*
X14479039Y-12614460D02*
X14469515Y-12595412D01*
X14469515Y-12595412D02*
X14469515Y-12423984D01*
X14650468Y-12614460D02*
X14631420Y-12623984D01*
X14631420Y-12623984D02*
X14593325Y-12623984D01*
X14593325Y-12623984D02*
X14574277Y-12614460D01*
X14574277Y-12614460D02*
X14564753Y-12595412D01*
X14564753Y-12595412D02*
X14564753Y-12519222D01*
X14564753Y-12519222D02*
X14574277Y-12500174D01*
X14574277Y-12500174D02*
X14593325Y-12490650D01*
X14593325Y-12490650D02*
X14631420Y-12490650D01*
X14631420Y-12490650D02*
X14650468Y-12500174D01*
X14650468Y-12500174D02*
X14659991Y-12519222D01*
X14659991Y-12519222D02*
X14659991Y-12538269D01*
X14659991Y-12538269D02*
X14564753Y-12557317D01*
X14736182Y-12614460D02*
X14755230Y-12623984D01*
X14755230Y-12623984D02*
X14793325Y-12623984D01*
X14793325Y-12623984D02*
X14812372Y-12614460D01*
X14812372Y-12614460D02*
X14821896Y-12595412D01*
X14821896Y-12595412D02*
X14821896Y-12585888D01*
X14821896Y-12585888D02*
X14812372Y-12566841D01*
X14812372Y-12566841D02*
X14793325Y-12557317D01*
X14793325Y-12557317D02*
X14764753Y-12557317D01*
X14764753Y-12557317D02*
X14745706Y-12547793D01*
X14745706Y-12547793D02*
X14736182Y-12528746D01*
X14736182Y-12528746D02*
X14736182Y-12519222D01*
X14736182Y-12519222D02*
X14745706Y-12500174D01*
X14745706Y-12500174D02*
X14764753Y-12490650D01*
X14764753Y-12490650D02*
X14793325Y-12490650D01*
X14793325Y-12490650D02*
X14812372Y-12500174D01*
X14888563Y-12700174D02*
X14898087Y-12690650D01*
X14898087Y-12690650D02*
X14917134Y-12662079D01*
X14917134Y-12662079D02*
X14926658Y-12643031D01*
X14926658Y-12643031D02*
X14936182Y-12614460D01*
X14936182Y-12614460D02*
X14945706Y-12566841D01*
X14945706Y-12566841D02*
X14945706Y-12528746D01*
X14945706Y-12528746D02*
X14936182Y-12481127D01*
X14936182Y-12481127D02*
X14926658Y-12452555D01*
X14926658Y-12452555D02*
X14917134Y-12433508D01*
X14917134Y-12433508D02*
X14898087Y-12404936D01*
X14898087Y-12404936D02*
X14888563Y-12395412D01*
D12*
X10063500Y-12846500D02*
X10113500Y-12796500D01*
X10063500Y-12746500D01*
X10013500Y-12796500D01*
X10063500Y-12846500D01*
D11*
X10479039Y-12887984D02*
X10364753Y-12887984D01*
X10421896Y-12887984D02*
X10421896Y-12687984D01*
X10421896Y-12687984D02*
X10402848Y-12716555D01*
X10402848Y-12716555D02*
X10383801Y-12735603D01*
X10383801Y-12735603D02*
X10364753Y-12745127D01*
X10564753Y-12868936D02*
X10574277Y-12878460D01*
X10574277Y-12878460D02*
X10564753Y-12887984D01*
X10564753Y-12887984D02*
X10555229Y-12878460D01*
X10555229Y-12878460D02*
X10564753Y-12868936D01*
X10564753Y-12868936D02*
X10564753Y-12887984D01*
X10698086Y-12687984D02*
X10717134Y-12687984D01*
X10717134Y-12687984D02*
X10736182Y-12697508D01*
X10736182Y-12697508D02*
X10745705Y-12707031D01*
X10745705Y-12707031D02*
X10755229Y-12726079D01*
X10755229Y-12726079D02*
X10764753Y-12764174D01*
X10764753Y-12764174D02*
X10764753Y-12811793D01*
X10764753Y-12811793D02*
X10755229Y-12849888D01*
X10755229Y-12849888D02*
X10745705Y-12868936D01*
X10745705Y-12868936D02*
X10736182Y-12878460D01*
X10736182Y-12878460D02*
X10717134Y-12887984D01*
X10717134Y-12887984D02*
X10698086Y-12887984D01*
X10698086Y-12887984D02*
X10679039Y-12878460D01*
X10679039Y-12878460D02*
X10669515Y-12868936D01*
X10669515Y-12868936D02*
X10659991Y-12849888D01*
X10659991Y-12849888D02*
X10650467Y-12811793D01*
X10650467Y-12811793D02*
X10650467Y-12764174D01*
X10650467Y-12764174D02*
X10659991Y-12726079D01*
X10659991Y-12726079D02*
X10669515Y-12707031D01*
X10669515Y-12707031D02*
X10679039Y-12697508D01*
X10679039Y-12697508D02*
X10698086Y-12687984D01*
X10888563Y-12687984D02*
X10907610Y-12687984D01*
X10907610Y-12687984D02*
X10926658Y-12697508D01*
X10926658Y-12697508D02*
X10936182Y-12707031D01*
X10936182Y-12707031D02*
X10945705Y-12726079D01*
X10945705Y-12726079D02*
X10955229Y-12764174D01*
X10955229Y-12764174D02*
X10955229Y-12811793D01*
X10955229Y-12811793D02*
X10945705Y-12849888D01*
X10945705Y-12849888D02*
X10936182Y-12868936D01*
X10936182Y-12868936D02*
X10926658Y-12878460D01*
X10926658Y-12878460D02*
X10907610Y-12887984D01*
X10907610Y-12887984D02*
X10888563Y-12887984D01*
X10888563Y-12887984D02*
X10869515Y-12878460D01*
X10869515Y-12878460D02*
X10859991Y-12868936D01*
X10859991Y-12868936D02*
X10850467Y-12849888D01*
X10850467Y-12849888D02*
X10840944Y-12811793D01*
X10840944Y-12811793D02*
X10840944Y-12764174D01*
X10840944Y-12764174D02*
X10850467Y-12726079D01*
X10850467Y-12726079D02*
X10859991Y-12707031D01*
X10859991Y-12707031D02*
X10869515Y-12697508D01*
X10869515Y-12697508D02*
X10888563Y-12687984D01*
X11079039Y-12687984D02*
X11098086Y-12687984D01*
X11098086Y-12687984D02*
X11117134Y-12697508D01*
X11117134Y-12697508D02*
X11126658Y-12707031D01*
X11126658Y-12707031D02*
X11136182Y-12726079D01*
X11136182Y-12726079D02*
X11145705Y-12764174D01*
X11145705Y-12764174D02*
X11145705Y-12811793D01*
X11145705Y-12811793D02*
X11136182Y-12849888D01*
X11136182Y-12849888D02*
X11126658Y-12868936D01*
X11126658Y-12868936D02*
X11117134Y-12878460D01*
X11117134Y-12878460D02*
X11098086Y-12887984D01*
X11098086Y-12887984D02*
X11079039Y-12887984D01*
X11079039Y-12887984D02*
X11059991Y-12878460D01*
X11059991Y-12878460D02*
X11050467Y-12868936D01*
X11050467Y-12868936D02*
X11040944Y-12849888D01*
X11040944Y-12849888D02*
X11031420Y-12811793D01*
X11031420Y-12811793D02*
X11031420Y-12764174D01*
X11031420Y-12764174D02*
X11040944Y-12726079D01*
X11040944Y-12726079D02*
X11050467Y-12707031D01*
X11050467Y-12707031D02*
X11059991Y-12697508D01*
X11059991Y-12697508D02*
X11079039Y-12687984D01*
X11231420Y-12887984D02*
X11231420Y-12754650D01*
X11231420Y-12773698D02*
X11240943Y-12764174D01*
X11240943Y-12764174D02*
X11259991Y-12754650D01*
X11259991Y-12754650D02*
X11288563Y-12754650D01*
X11288563Y-12754650D02*
X11307610Y-12764174D01*
X11307610Y-12764174D02*
X11317134Y-12783222D01*
X11317134Y-12783222D02*
X11317134Y-12887984D01*
X11317134Y-12783222D02*
X11326658Y-12764174D01*
X11326658Y-12764174D02*
X11345705Y-12754650D01*
X11345705Y-12754650D02*
X11374277Y-12754650D01*
X11374277Y-12754650D02*
X11393324Y-12764174D01*
X11393324Y-12764174D02*
X11402848Y-12783222D01*
X11402848Y-12783222D02*
X11402848Y-12887984D01*
X11498086Y-12887984D02*
X11498086Y-12754650D01*
X11498086Y-12773698D02*
X11507610Y-12764174D01*
X11507610Y-12764174D02*
X11526658Y-12754650D01*
X11526658Y-12754650D02*
X11555229Y-12754650D01*
X11555229Y-12754650D02*
X11574277Y-12764174D01*
X11574277Y-12764174D02*
X11583801Y-12783222D01*
X11583801Y-12783222D02*
X11583801Y-12887984D01*
X11583801Y-12783222D02*
X11593324Y-12764174D01*
X11593324Y-12764174D02*
X11612372Y-12754650D01*
X11612372Y-12754650D02*
X11640943Y-12754650D01*
X11640943Y-12754650D02*
X11659991Y-12764174D01*
X11659991Y-12764174D02*
X11669515Y-12783222D01*
X11669515Y-12783222D02*
X11669515Y-12887984D01*
X12059991Y-12678460D02*
X11888563Y-12935603D01*
X12317134Y-12687984D02*
X12336182Y-12687984D01*
X12336182Y-12687984D02*
X12355229Y-12697508D01*
X12355229Y-12697508D02*
X12364753Y-12707031D01*
X12364753Y-12707031D02*
X12374277Y-12726079D01*
X12374277Y-12726079D02*
X12383801Y-12764174D01*
X12383801Y-12764174D02*
X12383801Y-12811793D01*
X12383801Y-12811793D02*
X12374277Y-12849888D01*
X12374277Y-12849888D02*
X12364753Y-12868936D01*
X12364753Y-12868936D02*
X12355229Y-12878460D01*
X12355229Y-12878460D02*
X12336182Y-12887984D01*
X12336182Y-12887984D02*
X12317134Y-12887984D01*
X12317134Y-12887984D02*
X12298086Y-12878460D01*
X12298086Y-12878460D02*
X12288563Y-12868936D01*
X12288563Y-12868936D02*
X12279039Y-12849888D01*
X12279039Y-12849888D02*
X12269515Y-12811793D01*
X12269515Y-12811793D02*
X12269515Y-12764174D01*
X12269515Y-12764174D02*
X12279039Y-12726079D01*
X12279039Y-12726079D02*
X12288563Y-12707031D01*
X12288563Y-12707031D02*
X12298086Y-12697508D01*
X12298086Y-12697508D02*
X12317134Y-12687984D01*
X12469515Y-12868936D02*
X12479039Y-12878460D01*
X12479039Y-12878460D02*
X12469515Y-12887984D01*
X12469515Y-12887984D02*
X12459991Y-12878460D01*
X12459991Y-12878460D02*
X12469515Y-12868936D01*
X12469515Y-12868936D02*
X12469515Y-12887984D01*
X12602848Y-12687984D02*
X12621896Y-12687984D01*
X12621896Y-12687984D02*
X12640944Y-12697508D01*
X12640944Y-12697508D02*
X12650467Y-12707031D01*
X12650467Y-12707031D02*
X12659991Y-12726079D01*
X12659991Y-12726079D02*
X12669515Y-12764174D01*
X12669515Y-12764174D02*
X12669515Y-12811793D01*
X12669515Y-12811793D02*
X12659991Y-12849888D01*
X12659991Y-12849888D02*
X12650467Y-12868936D01*
X12650467Y-12868936D02*
X12640944Y-12878460D01*
X12640944Y-12878460D02*
X12621896Y-12887984D01*
X12621896Y-12887984D02*
X12602848Y-12887984D01*
X12602848Y-12887984D02*
X12583801Y-12878460D01*
X12583801Y-12878460D02*
X12574277Y-12868936D01*
X12574277Y-12868936D02*
X12564753Y-12849888D01*
X12564753Y-12849888D02*
X12555229Y-12811793D01*
X12555229Y-12811793D02*
X12555229Y-12764174D01*
X12555229Y-12764174D02*
X12564753Y-12726079D01*
X12564753Y-12726079D02*
X12574277Y-12707031D01*
X12574277Y-12707031D02*
X12583801Y-12697508D01*
X12583801Y-12697508D02*
X12602848Y-12687984D01*
X12736182Y-12687984D02*
X12859991Y-12687984D01*
X12859991Y-12687984D02*
X12793325Y-12764174D01*
X12793325Y-12764174D02*
X12821896Y-12764174D01*
X12821896Y-12764174D02*
X12840944Y-12773698D01*
X12840944Y-12773698D02*
X12850467Y-12783222D01*
X12850467Y-12783222D02*
X12859991Y-12802269D01*
X12859991Y-12802269D02*
X12859991Y-12849888D01*
X12859991Y-12849888D02*
X12850467Y-12868936D01*
X12850467Y-12868936D02*
X12840944Y-12878460D01*
X12840944Y-12878460D02*
X12821896Y-12887984D01*
X12821896Y-12887984D02*
X12764753Y-12887984D01*
X12764753Y-12887984D02*
X12745706Y-12878460D01*
X12745706Y-12878460D02*
X12736182Y-12868936D01*
X12955229Y-12887984D02*
X12993325Y-12887984D01*
X12993325Y-12887984D02*
X13012372Y-12878460D01*
X13012372Y-12878460D02*
X13021896Y-12868936D01*
X13021896Y-12868936D02*
X13040944Y-12840365D01*
X13040944Y-12840365D02*
X13050467Y-12802269D01*
X13050467Y-12802269D02*
X13050467Y-12726079D01*
X13050467Y-12726079D02*
X13040944Y-12707031D01*
X13040944Y-12707031D02*
X13031420Y-12697508D01*
X13031420Y-12697508D02*
X13012372Y-12687984D01*
X13012372Y-12687984D02*
X12974277Y-12687984D01*
X12974277Y-12687984D02*
X12955229Y-12697508D01*
X12955229Y-12697508D02*
X12945706Y-12707031D01*
X12945706Y-12707031D02*
X12936182Y-12726079D01*
X12936182Y-12726079D02*
X12936182Y-12773698D01*
X12936182Y-12773698D02*
X12945706Y-12792746D01*
X12945706Y-12792746D02*
X12955229Y-12802269D01*
X12955229Y-12802269D02*
X12974277Y-12811793D01*
X12974277Y-12811793D02*
X13012372Y-12811793D01*
X13012372Y-12811793D02*
X13031420Y-12802269D01*
X13031420Y-12802269D02*
X13040944Y-12792746D01*
X13040944Y-12792746D02*
X13050467Y-12773698D01*
X13221896Y-12754650D02*
X13221896Y-12887984D01*
X13174277Y-12678460D02*
X13126658Y-12821317D01*
X13126658Y-12821317D02*
X13250467Y-12821317D01*
X13317134Y-12687984D02*
X13317134Y-12726079D01*
X13393325Y-12687984D02*
X13393325Y-12726079D01*
X13688563Y-12964174D02*
X13679039Y-12954650D01*
X13679039Y-12954650D02*
X13659991Y-12926079D01*
X13659991Y-12926079D02*
X13650468Y-12907031D01*
X13650468Y-12907031D02*
X13640944Y-12878460D01*
X13640944Y-12878460D02*
X13631420Y-12830841D01*
X13631420Y-12830841D02*
X13631420Y-12792746D01*
X13631420Y-12792746D02*
X13640944Y-12745127D01*
X13640944Y-12745127D02*
X13650468Y-12716555D01*
X13650468Y-12716555D02*
X13659991Y-12697508D01*
X13659991Y-12697508D02*
X13679039Y-12668936D01*
X13679039Y-12668936D02*
X13688563Y-12659412D01*
X13755229Y-12707031D02*
X13764753Y-12697508D01*
X13764753Y-12697508D02*
X13783801Y-12687984D01*
X13783801Y-12687984D02*
X13831420Y-12687984D01*
X13831420Y-12687984D02*
X13850468Y-12697508D01*
X13850468Y-12697508D02*
X13859991Y-12707031D01*
X13859991Y-12707031D02*
X13869515Y-12726079D01*
X13869515Y-12726079D02*
X13869515Y-12745127D01*
X13869515Y-12745127D02*
X13859991Y-12773698D01*
X13859991Y-12773698D02*
X13745706Y-12887984D01*
X13745706Y-12887984D02*
X13869515Y-12887984D01*
X13936182Y-12687984D02*
X14059991Y-12687984D01*
X14059991Y-12687984D02*
X13993325Y-12764174D01*
X13993325Y-12764174D02*
X14021896Y-12764174D01*
X14021896Y-12764174D02*
X14040944Y-12773698D01*
X14040944Y-12773698D02*
X14050468Y-12783222D01*
X14050468Y-12783222D02*
X14059991Y-12802269D01*
X14059991Y-12802269D02*
X14059991Y-12849888D01*
X14059991Y-12849888D02*
X14050468Y-12868936D01*
X14050468Y-12868936D02*
X14040944Y-12878460D01*
X14040944Y-12878460D02*
X14021896Y-12887984D01*
X14021896Y-12887984D02*
X13964753Y-12887984D01*
X13964753Y-12887984D02*
X13945706Y-12878460D01*
X13945706Y-12878460D02*
X13936182Y-12868936D01*
X14298087Y-12887984D02*
X14298087Y-12687984D01*
X14383801Y-12887984D02*
X14383801Y-12783222D01*
X14383801Y-12783222D02*
X14374277Y-12764174D01*
X14374277Y-12764174D02*
X14355230Y-12754650D01*
X14355230Y-12754650D02*
X14326658Y-12754650D01*
X14326658Y-12754650D02*
X14307610Y-12764174D01*
X14307610Y-12764174D02*
X14298087Y-12773698D01*
X14507610Y-12887984D02*
X14488563Y-12878460D01*
X14488563Y-12878460D02*
X14479039Y-12868936D01*
X14479039Y-12868936D02*
X14469515Y-12849888D01*
X14469515Y-12849888D02*
X14469515Y-12792746D01*
X14469515Y-12792746D02*
X14479039Y-12773698D01*
X14479039Y-12773698D02*
X14488563Y-12764174D01*
X14488563Y-12764174D02*
X14507610Y-12754650D01*
X14507610Y-12754650D02*
X14536182Y-12754650D01*
X14536182Y-12754650D02*
X14555230Y-12764174D01*
X14555230Y-12764174D02*
X14564753Y-12773698D01*
X14564753Y-12773698D02*
X14574277Y-12792746D01*
X14574277Y-12792746D02*
X14574277Y-12849888D01*
X14574277Y-12849888D02*
X14564753Y-12868936D01*
X14564753Y-12868936D02*
X14555230Y-12878460D01*
X14555230Y-12878460D02*
X14536182Y-12887984D01*
X14536182Y-12887984D02*
X14507610Y-12887984D01*
X14688563Y-12887984D02*
X14669515Y-12878460D01*
X14669515Y-12878460D02*
X14659991Y-12859412D01*
X14659991Y-12859412D02*
X14659991Y-12687984D01*
X14840944Y-12878460D02*
X14821896Y-12887984D01*
X14821896Y-12887984D02*
X14783801Y-12887984D01*
X14783801Y-12887984D02*
X14764753Y-12878460D01*
X14764753Y-12878460D02*
X14755230Y-12859412D01*
X14755230Y-12859412D02*
X14755230Y-12783222D01*
X14755230Y-12783222D02*
X14764753Y-12764174D01*
X14764753Y-12764174D02*
X14783801Y-12754650D01*
X14783801Y-12754650D02*
X14821896Y-12754650D01*
X14821896Y-12754650D02*
X14840944Y-12764174D01*
X14840944Y-12764174D02*
X14850468Y-12783222D01*
X14850468Y-12783222D02*
X14850468Y-12802269D01*
X14850468Y-12802269D02*
X14755230Y-12821317D01*
X14926658Y-12878460D02*
X14945706Y-12887984D01*
X14945706Y-12887984D02*
X14983801Y-12887984D01*
X14983801Y-12887984D02*
X15002849Y-12878460D01*
X15002849Y-12878460D02*
X15012372Y-12859412D01*
X15012372Y-12859412D02*
X15012372Y-12849888D01*
X15012372Y-12849888D02*
X15002849Y-12830841D01*
X15002849Y-12830841D02*
X14983801Y-12821317D01*
X14983801Y-12821317D02*
X14955230Y-12821317D01*
X14955230Y-12821317D02*
X14936182Y-12811793D01*
X14936182Y-12811793D02*
X14926658Y-12792746D01*
X14926658Y-12792746D02*
X14926658Y-12783222D01*
X14926658Y-12783222D02*
X14936182Y-12764174D01*
X14936182Y-12764174D02*
X14955230Y-12754650D01*
X14955230Y-12754650D02*
X14983801Y-12754650D01*
X14983801Y-12754650D02*
X15002849Y-12764174D01*
X15079039Y-12964174D02*
X15088563Y-12954650D01*
X15088563Y-12954650D02*
X15107611Y-12926079D01*
X15107611Y-12926079D02*
X15117134Y-12907031D01*
X15117134Y-12907031D02*
X15126658Y-12878460D01*
X15126658Y-12878460D02*
X15136182Y-12830841D01*
X15136182Y-12830841D02*
X15136182Y-12792746D01*
X15136182Y-12792746D02*
X15126658Y-12745127D01*
X15126658Y-12745127D02*
X15117134Y-12716555D01*
X15117134Y-12716555D02*
X15107611Y-12697508D01*
X15107611Y-12697508D02*
X15088563Y-12668936D01*
X15088563Y-12668936D02*
X15079039Y-12659412D01*
D13*
X9989040Y-12998270D02*
X10113500Y-13122730D01*
X10113500Y-12998270D02*
X9989040Y-13122730D01*
X10113500Y-13060500D02*
G75*
G02*
X9989040Y-13060500I-62230J0D01*
G01*
X9989040Y-13060500D02*
G75*
G02*
X10113500Y-13060500I62230J0D01*
G01*
D11*
X10479039Y-13151984D02*
X10364753Y-13151984D01*
X10421896Y-13151984D02*
X10421896Y-12951984D01*
X10421896Y-12951984D02*
X10402848Y-12980555D01*
X10402848Y-12980555D02*
X10383801Y-12999603D01*
X10383801Y-12999603D02*
X10364753Y-13009127D01*
X10564753Y-13132936D02*
X10574277Y-13142460D01*
X10574277Y-13142460D02*
X10564753Y-13151984D01*
X10564753Y-13151984D02*
X10555229Y-13142460D01*
X10555229Y-13142460D02*
X10564753Y-13132936D01*
X10564753Y-13132936D02*
X10564753Y-13151984D01*
X10650467Y-12971031D02*
X10659991Y-12961508D01*
X10659991Y-12961508D02*
X10679039Y-12951984D01*
X10679039Y-12951984D02*
X10726658Y-12951984D01*
X10726658Y-12951984D02*
X10745705Y-12961508D01*
X10745705Y-12961508D02*
X10755229Y-12971031D01*
X10755229Y-12971031D02*
X10764753Y-12990079D01*
X10764753Y-12990079D02*
X10764753Y-13009127D01*
X10764753Y-13009127D02*
X10755229Y-13037698D01*
X10755229Y-13037698D02*
X10640944Y-13151984D01*
X10640944Y-13151984D02*
X10764753Y-13151984D01*
X10936182Y-13018650D02*
X10936182Y-13151984D01*
X10888563Y-12942460D02*
X10840944Y-13085317D01*
X10840944Y-13085317D02*
X10964753Y-13085317D01*
X11136182Y-12951984D02*
X11040944Y-12951984D01*
X11040944Y-12951984D02*
X11031420Y-13047222D01*
X11031420Y-13047222D02*
X11040944Y-13037698D01*
X11040944Y-13037698D02*
X11059991Y-13028174D01*
X11059991Y-13028174D02*
X11107610Y-13028174D01*
X11107610Y-13028174D02*
X11126658Y-13037698D01*
X11126658Y-13037698D02*
X11136182Y-13047222D01*
X11136182Y-13047222D02*
X11145705Y-13066269D01*
X11145705Y-13066269D02*
X11145705Y-13113888D01*
X11145705Y-13113888D02*
X11136182Y-13132936D01*
X11136182Y-13132936D02*
X11126658Y-13142460D01*
X11126658Y-13142460D02*
X11107610Y-13151984D01*
X11107610Y-13151984D02*
X11059991Y-13151984D01*
X11059991Y-13151984D02*
X11040944Y-13142460D01*
X11040944Y-13142460D02*
X11031420Y-13132936D01*
X11231420Y-13151984D02*
X11231420Y-13018650D01*
X11231420Y-13037698D02*
X11240943Y-13028174D01*
X11240943Y-13028174D02*
X11259991Y-13018650D01*
X11259991Y-13018650D02*
X11288563Y-13018650D01*
X11288563Y-13018650D02*
X11307610Y-13028174D01*
X11307610Y-13028174D02*
X11317134Y-13047222D01*
X11317134Y-13047222D02*
X11317134Y-13151984D01*
X11317134Y-13047222D02*
X11326658Y-13028174D01*
X11326658Y-13028174D02*
X11345705Y-13018650D01*
X11345705Y-13018650D02*
X11374277Y-13018650D01*
X11374277Y-13018650D02*
X11393324Y-13028174D01*
X11393324Y-13028174D02*
X11402848Y-13047222D01*
X11402848Y-13047222D02*
X11402848Y-13151984D01*
X11498086Y-13151984D02*
X11498086Y-13018650D01*
X11498086Y-13037698D02*
X11507610Y-13028174D01*
X11507610Y-13028174D02*
X11526658Y-13018650D01*
X11526658Y-13018650D02*
X11555229Y-13018650D01*
X11555229Y-13018650D02*
X11574277Y-13028174D01*
X11574277Y-13028174D02*
X11583801Y-13047222D01*
X11583801Y-13047222D02*
X11583801Y-13151984D01*
X11583801Y-13047222D02*
X11593324Y-13028174D01*
X11593324Y-13028174D02*
X11612372Y-13018650D01*
X11612372Y-13018650D02*
X11640943Y-13018650D01*
X11640943Y-13018650D02*
X11659991Y-13028174D01*
X11659991Y-13028174D02*
X11669515Y-13047222D01*
X11669515Y-13047222D02*
X11669515Y-13151984D01*
X12059991Y-12942460D02*
X11888563Y-13199603D01*
X12317134Y-12951984D02*
X12336182Y-12951984D01*
X12336182Y-12951984D02*
X12355229Y-12961508D01*
X12355229Y-12961508D02*
X12364753Y-12971031D01*
X12364753Y-12971031D02*
X12374277Y-12990079D01*
X12374277Y-12990079D02*
X12383801Y-13028174D01*
X12383801Y-13028174D02*
X12383801Y-13075793D01*
X12383801Y-13075793D02*
X12374277Y-13113888D01*
X12374277Y-13113888D02*
X12364753Y-13132936D01*
X12364753Y-13132936D02*
X12355229Y-13142460D01*
X12355229Y-13142460D02*
X12336182Y-13151984D01*
X12336182Y-13151984D02*
X12317134Y-13151984D01*
X12317134Y-13151984D02*
X12298086Y-13142460D01*
X12298086Y-13142460D02*
X12288563Y-13132936D01*
X12288563Y-13132936D02*
X12279039Y-13113888D01*
X12279039Y-13113888D02*
X12269515Y-13075793D01*
X12269515Y-13075793D02*
X12269515Y-13028174D01*
X12269515Y-13028174D02*
X12279039Y-12990079D01*
X12279039Y-12990079D02*
X12288563Y-12971031D01*
X12288563Y-12971031D02*
X12298086Y-12961508D01*
X12298086Y-12961508D02*
X12317134Y-12951984D01*
X12469515Y-13132936D02*
X12479039Y-13142460D01*
X12479039Y-13142460D02*
X12469515Y-13151984D01*
X12469515Y-13151984D02*
X12459991Y-13142460D01*
X12459991Y-13142460D02*
X12469515Y-13132936D01*
X12469515Y-13132936D02*
X12469515Y-13151984D01*
X12602848Y-12951984D02*
X12621896Y-12951984D01*
X12621896Y-12951984D02*
X12640944Y-12961508D01*
X12640944Y-12961508D02*
X12650467Y-12971031D01*
X12650467Y-12971031D02*
X12659991Y-12990079D01*
X12659991Y-12990079D02*
X12669515Y-13028174D01*
X12669515Y-13028174D02*
X12669515Y-13075793D01*
X12669515Y-13075793D02*
X12659991Y-13113888D01*
X12659991Y-13113888D02*
X12650467Y-13132936D01*
X12650467Y-13132936D02*
X12640944Y-13142460D01*
X12640944Y-13142460D02*
X12621896Y-13151984D01*
X12621896Y-13151984D02*
X12602848Y-13151984D01*
X12602848Y-13151984D02*
X12583801Y-13142460D01*
X12583801Y-13142460D02*
X12574277Y-13132936D01*
X12574277Y-13132936D02*
X12564753Y-13113888D01*
X12564753Y-13113888D02*
X12555229Y-13075793D01*
X12555229Y-13075793D02*
X12555229Y-13028174D01*
X12555229Y-13028174D02*
X12564753Y-12990079D01*
X12564753Y-12990079D02*
X12574277Y-12971031D01*
X12574277Y-12971031D02*
X12583801Y-12961508D01*
X12583801Y-12961508D02*
X12602848Y-12951984D01*
X12840944Y-13018650D02*
X12840944Y-13151984D01*
X12793325Y-12942460D02*
X12745706Y-13085317D01*
X12745706Y-13085317D02*
X12869515Y-13085317D01*
X12955229Y-13151984D02*
X12993325Y-13151984D01*
X12993325Y-13151984D02*
X13012372Y-13142460D01*
X13012372Y-13142460D02*
X13021896Y-13132936D01*
X13021896Y-13132936D02*
X13040944Y-13104365D01*
X13040944Y-13104365D02*
X13050467Y-13066269D01*
X13050467Y-13066269D02*
X13050467Y-12990079D01*
X13050467Y-12990079D02*
X13040944Y-12971031D01*
X13040944Y-12971031D02*
X13031420Y-12961508D01*
X13031420Y-12961508D02*
X13012372Y-12951984D01*
X13012372Y-12951984D02*
X12974277Y-12951984D01*
X12974277Y-12951984D02*
X12955229Y-12961508D01*
X12955229Y-12961508D02*
X12945706Y-12971031D01*
X12945706Y-12971031D02*
X12936182Y-12990079D01*
X12936182Y-12990079D02*
X12936182Y-13037698D01*
X12936182Y-13037698D02*
X12945706Y-13056746D01*
X12945706Y-13056746D02*
X12955229Y-13066269D01*
X12955229Y-13066269D02*
X12974277Y-13075793D01*
X12974277Y-13075793D02*
X13012372Y-13075793D01*
X13012372Y-13075793D02*
X13031420Y-13066269D01*
X13031420Y-13066269D02*
X13040944Y-13056746D01*
X13040944Y-13056746D02*
X13050467Y-13037698D01*
X13174277Y-12951984D02*
X13193325Y-12951984D01*
X13193325Y-12951984D02*
X13212372Y-12961508D01*
X13212372Y-12961508D02*
X13221896Y-12971031D01*
X13221896Y-12971031D02*
X13231420Y-12990079D01*
X13231420Y-12990079D02*
X13240944Y-13028174D01*
X13240944Y-13028174D02*
X13240944Y-13075793D01*
X13240944Y-13075793D02*
X13231420Y-13113888D01*
X13231420Y-13113888D02*
X13221896Y-13132936D01*
X13221896Y-13132936D02*
X13212372Y-13142460D01*
X13212372Y-13142460D02*
X13193325Y-13151984D01*
X13193325Y-13151984D02*
X13174277Y-13151984D01*
X13174277Y-13151984D02*
X13155229Y-13142460D01*
X13155229Y-13142460D02*
X13145706Y-13132936D01*
X13145706Y-13132936D02*
X13136182Y-13113888D01*
X13136182Y-13113888D02*
X13126658Y-13075793D01*
X13126658Y-13075793D02*
X13126658Y-13028174D01*
X13126658Y-13028174D02*
X13136182Y-12990079D01*
X13136182Y-12990079D02*
X13145706Y-12971031D01*
X13145706Y-12971031D02*
X13155229Y-12961508D01*
X13155229Y-12961508D02*
X13174277Y-12951984D01*
X13317134Y-12951984D02*
X13317134Y-12990079D01*
X13393325Y-12951984D02*
X13393325Y-12990079D01*
X13688563Y-13228174D02*
X13679039Y-13218650D01*
X13679039Y-13218650D02*
X13659991Y-13190079D01*
X13659991Y-13190079D02*
X13650468Y-13171031D01*
X13650468Y-13171031D02*
X13640944Y-13142460D01*
X13640944Y-13142460D02*
X13631420Y-13094841D01*
X13631420Y-13094841D02*
X13631420Y-13056746D01*
X13631420Y-13056746D02*
X13640944Y-13009127D01*
X13640944Y-13009127D02*
X13650468Y-12980555D01*
X13650468Y-12980555D02*
X13659991Y-12961508D01*
X13659991Y-12961508D02*
X13679039Y-12932936D01*
X13679039Y-12932936D02*
X13688563Y-12923412D01*
X13869515Y-13151984D02*
X13755229Y-13151984D01*
X13812372Y-13151984D02*
X13812372Y-12951984D01*
X13812372Y-12951984D02*
X13793325Y-12980555D01*
X13793325Y-12980555D02*
X13774277Y-12999603D01*
X13774277Y-12999603D02*
X13755229Y-13009127D01*
X13993325Y-12951984D02*
X14012372Y-12951984D01*
X14012372Y-12951984D02*
X14031420Y-12961508D01*
X14031420Y-12961508D02*
X14040944Y-12971031D01*
X14040944Y-12971031D02*
X14050468Y-12990079D01*
X14050468Y-12990079D02*
X14059991Y-13028174D01*
X14059991Y-13028174D02*
X14059991Y-13075793D01*
X14059991Y-13075793D02*
X14050468Y-13113888D01*
X14050468Y-13113888D02*
X14040944Y-13132936D01*
X14040944Y-13132936D02*
X14031420Y-13142460D01*
X14031420Y-13142460D02*
X14012372Y-13151984D01*
X14012372Y-13151984D02*
X13993325Y-13151984D01*
X13993325Y-13151984D02*
X13974277Y-13142460D01*
X13974277Y-13142460D02*
X13964753Y-13132936D01*
X13964753Y-13132936D02*
X13955229Y-13113888D01*
X13955229Y-13113888D02*
X13945706Y-13075793D01*
X13945706Y-13075793D02*
X13945706Y-13028174D01*
X13945706Y-13028174D02*
X13955229Y-12990079D01*
X13955229Y-12990079D02*
X13964753Y-12971031D01*
X13964753Y-12971031D02*
X13974277Y-12961508D01*
X13974277Y-12961508D02*
X13993325Y-12951984D01*
X14298087Y-13151984D02*
X14298087Y-12951984D01*
X14383801Y-13151984D02*
X14383801Y-13047222D01*
X14383801Y-13047222D02*
X14374277Y-13028174D01*
X14374277Y-13028174D02*
X14355230Y-13018650D01*
X14355230Y-13018650D02*
X14326658Y-13018650D01*
X14326658Y-13018650D02*
X14307610Y-13028174D01*
X14307610Y-13028174D02*
X14298087Y-13037698D01*
X14507610Y-13151984D02*
X14488563Y-13142460D01*
X14488563Y-13142460D02*
X14479039Y-13132936D01*
X14479039Y-13132936D02*
X14469515Y-13113888D01*
X14469515Y-13113888D02*
X14469515Y-13056746D01*
X14469515Y-13056746D02*
X14479039Y-13037698D01*
X14479039Y-13037698D02*
X14488563Y-13028174D01*
X14488563Y-13028174D02*
X14507610Y-13018650D01*
X14507610Y-13018650D02*
X14536182Y-13018650D01*
X14536182Y-13018650D02*
X14555230Y-13028174D01*
X14555230Y-13028174D02*
X14564753Y-13037698D01*
X14564753Y-13037698D02*
X14574277Y-13056746D01*
X14574277Y-13056746D02*
X14574277Y-13113888D01*
X14574277Y-13113888D02*
X14564753Y-13132936D01*
X14564753Y-13132936D02*
X14555230Y-13142460D01*
X14555230Y-13142460D02*
X14536182Y-13151984D01*
X14536182Y-13151984D02*
X14507610Y-13151984D01*
X14688563Y-13151984D02*
X14669515Y-13142460D01*
X14669515Y-13142460D02*
X14659991Y-13123412D01*
X14659991Y-13123412D02*
X14659991Y-12951984D01*
X14840944Y-13142460D02*
X14821896Y-13151984D01*
X14821896Y-13151984D02*
X14783801Y-13151984D01*
X14783801Y-13151984D02*
X14764753Y-13142460D01*
X14764753Y-13142460D02*
X14755230Y-13123412D01*
X14755230Y-13123412D02*
X14755230Y-13047222D01*
X14755230Y-13047222D02*
X14764753Y-13028174D01*
X14764753Y-13028174D02*
X14783801Y-13018650D01*
X14783801Y-13018650D02*
X14821896Y-13018650D01*
X14821896Y-13018650D02*
X14840944Y-13028174D01*
X14840944Y-13028174D02*
X14850468Y-13047222D01*
X14850468Y-13047222D02*
X14850468Y-13066269D01*
X14850468Y-13066269D02*
X14755230Y-13085317D01*
X14926658Y-13142460D02*
X14945706Y-13151984D01*
X14945706Y-13151984D02*
X14983801Y-13151984D01*
X14983801Y-13151984D02*
X15002849Y-13142460D01*
X15002849Y-13142460D02*
X15012372Y-13123412D01*
X15012372Y-13123412D02*
X15012372Y-13113888D01*
X15012372Y-13113888D02*
X15002849Y-13094841D01*
X15002849Y-13094841D02*
X14983801Y-13085317D01*
X14983801Y-13085317D02*
X14955230Y-13085317D01*
X14955230Y-13085317D02*
X14936182Y-13075793D01*
X14936182Y-13075793D02*
X14926658Y-13056746D01*
X14926658Y-13056746D02*
X14926658Y-13047222D01*
X14926658Y-13047222D02*
X14936182Y-13028174D01*
X14936182Y-13028174D02*
X14955230Y-13018650D01*
X14955230Y-13018650D02*
X14983801Y-13018650D01*
X14983801Y-13018650D02*
X15002849Y-13028174D01*
X15079039Y-13228174D02*
X15088563Y-13218650D01*
X15088563Y-13218650D02*
X15107611Y-13190079D01*
X15107611Y-13190079D02*
X15117134Y-13171031D01*
X15117134Y-13171031D02*
X15126658Y-13142460D01*
X15126658Y-13142460D02*
X15136182Y-13094841D01*
X15136182Y-13094841D02*
X15136182Y-13056746D01*
X15136182Y-13056746D02*
X15126658Y-13009127D01*
X15126658Y-13009127D02*
X15117134Y-12980555D01*
X15117134Y-12980555D02*
X15107611Y-12961508D01*
X15107611Y-12961508D02*
X15088563Y-12932936D01*
X15088563Y-12932936D02*
X15079039Y-12923412D01*
X9913500Y-13224500D02*
X10113500Y-13424500D01*
X10113500Y-13224500D02*
X9913500Y-13424500D01*
X10013500Y-13224500D02*
X10013500Y-13424500D01*
X9913500Y-13324500D02*
X10113500Y-13324500D01*
X10364753Y-13235031D02*
X10374277Y-13225508D01*
X10374277Y-13225508D02*
X10393324Y-13215984D01*
X10393324Y-13215984D02*
X10440944Y-13215984D01*
X10440944Y-13215984D02*
X10459991Y-13225508D01*
X10459991Y-13225508D02*
X10469515Y-13235031D01*
X10469515Y-13235031D02*
X10479039Y-13254079D01*
X10479039Y-13254079D02*
X10479039Y-13273127D01*
X10479039Y-13273127D02*
X10469515Y-13301698D01*
X10469515Y-13301698D02*
X10355229Y-13415984D01*
X10355229Y-13415984D02*
X10479039Y-13415984D01*
X10564753Y-13396936D02*
X10574277Y-13406460D01*
X10574277Y-13406460D02*
X10564753Y-13415984D01*
X10564753Y-13415984D02*
X10555229Y-13406460D01*
X10555229Y-13406460D02*
X10564753Y-13396936D01*
X10564753Y-13396936D02*
X10564753Y-13415984D01*
X10640944Y-13215984D02*
X10774277Y-13215984D01*
X10774277Y-13215984D02*
X10688563Y-13415984D01*
X10888563Y-13215984D02*
X10907610Y-13215984D01*
X10907610Y-13215984D02*
X10926658Y-13225508D01*
X10926658Y-13225508D02*
X10936182Y-13235031D01*
X10936182Y-13235031D02*
X10945705Y-13254079D01*
X10945705Y-13254079D02*
X10955229Y-13292174D01*
X10955229Y-13292174D02*
X10955229Y-13339793D01*
X10955229Y-13339793D02*
X10945705Y-13377888D01*
X10945705Y-13377888D02*
X10936182Y-13396936D01*
X10936182Y-13396936D02*
X10926658Y-13406460D01*
X10926658Y-13406460D02*
X10907610Y-13415984D01*
X10907610Y-13415984D02*
X10888563Y-13415984D01*
X10888563Y-13415984D02*
X10869515Y-13406460D01*
X10869515Y-13406460D02*
X10859991Y-13396936D01*
X10859991Y-13396936D02*
X10850467Y-13377888D01*
X10850467Y-13377888D02*
X10840944Y-13339793D01*
X10840944Y-13339793D02*
X10840944Y-13292174D01*
X10840944Y-13292174D02*
X10850467Y-13254079D01*
X10850467Y-13254079D02*
X10859991Y-13235031D01*
X10859991Y-13235031D02*
X10869515Y-13225508D01*
X10869515Y-13225508D02*
X10888563Y-13215984D01*
X11079039Y-13215984D02*
X11098086Y-13215984D01*
X11098086Y-13215984D02*
X11117134Y-13225508D01*
X11117134Y-13225508D02*
X11126658Y-13235031D01*
X11126658Y-13235031D02*
X11136182Y-13254079D01*
X11136182Y-13254079D02*
X11145705Y-13292174D01*
X11145705Y-13292174D02*
X11145705Y-13339793D01*
X11145705Y-13339793D02*
X11136182Y-13377888D01*
X11136182Y-13377888D02*
X11126658Y-13396936D01*
X11126658Y-13396936D02*
X11117134Y-13406460D01*
X11117134Y-13406460D02*
X11098086Y-13415984D01*
X11098086Y-13415984D02*
X11079039Y-13415984D01*
X11079039Y-13415984D02*
X11059991Y-13406460D01*
X11059991Y-13406460D02*
X11050467Y-13396936D01*
X11050467Y-13396936D02*
X11040944Y-13377888D01*
X11040944Y-13377888D02*
X11031420Y-13339793D01*
X11031420Y-13339793D02*
X11031420Y-13292174D01*
X11031420Y-13292174D02*
X11040944Y-13254079D01*
X11040944Y-13254079D02*
X11050467Y-13235031D01*
X11050467Y-13235031D02*
X11059991Y-13225508D01*
X11059991Y-13225508D02*
X11079039Y-13215984D01*
X11231420Y-13415984D02*
X11231420Y-13282650D01*
X11231420Y-13301698D02*
X11240943Y-13292174D01*
X11240943Y-13292174D02*
X11259991Y-13282650D01*
X11259991Y-13282650D02*
X11288563Y-13282650D01*
X11288563Y-13282650D02*
X11307610Y-13292174D01*
X11307610Y-13292174D02*
X11317134Y-13311222D01*
X11317134Y-13311222D02*
X11317134Y-13415984D01*
X11317134Y-13311222D02*
X11326658Y-13292174D01*
X11326658Y-13292174D02*
X11345705Y-13282650D01*
X11345705Y-13282650D02*
X11374277Y-13282650D01*
X11374277Y-13282650D02*
X11393324Y-13292174D01*
X11393324Y-13292174D02*
X11402848Y-13311222D01*
X11402848Y-13311222D02*
X11402848Y-13415984D01*
X11498086Y-13415984D02*
X11498086Y-13282650D01*
X11498086Y-13301698D02*
X11507610Y-13292174D01*
X11507610Y-13292174D02*
X11526658Y-13282650D01*
X11526658Y-13282650D02*
X11555229Y-13282650D01*
X11555229Y-13282650D02*
X11574277Y-13292174D01*
X11574277Y-13292174D02*
X11583801Y-13311222D01*
X11583801Y-13311222D02*
X11583801Y-13415984D01*
X11583801Y-13311222D02*
X11593324Y-13292174D01*
X11593324Y-13292174D02*
X11612372Y-13282650D01*
X11612372Y-13282650D02*
X11640943Y-13282650D01*
X11640943Y-13282650D02*
X11659991Y-13292174D01*
X11659991Y-13292174D02*
X11669515Y-13311222D01*
X11669515Y-13311222D02*
X11669515Y-13415984D01*
X12059991Y-13206460D02*
X11888563Y-13463603D01*
X12317134Y-13215984D02*
X12336182Y-13215984D01*
X12336182Y-13215984D02*
X12355229Y-13225508D01*
X12355229Y-13225508D02*
X12364753Y-13235031D01*
X12364753Y-13235031D02*
X12374277Y-13254079D01*
X12374277Y-13254079D02*
X12383801Y-13292174D01*
X12383801Y-13292174D02*
X12383801Y-13339793D01*
X12383801Y-13339793D02*
X12374277Y-13377888D01*
X12374277Y-13377888D02*
X12364753Y-13396936D01*
X12364753Y-13396936D02*
X12355229Y-13406460D01*
X12355229Y-13406460D02*
X12336182Y-13415984D01*
X12336182Y-13415984D02*
X12317134Y-13415984D01*
X12317134Y-13415984D02*
X12298086Y-13406460D01*
X12298086Y-13406460D02*
X12288563Y-13396936D01*
X12288563Y-13396936D02*
X12279039Y-13377888D01*
X12279039Y-13377888D02*
X12269515Y-13339793D01*
X12269515Y-13339793D02*
X12269515Y-13292174D01*
X12269515Y-13292174D02*
X12279039Y-13254079D01*
X12279039Y-13254079D02*
X12288563Y-13235031D01*
X12288563Y-13235031D02*
X12298086Y-13225508D01*
X12298086Y-13225508D02*
X12317134Y-13215984D01*
X12469515Y-13396936D02*
X12479039Y-13406460D01*
X12479039Y-13406460D02*
X12469515Y-13415984D01*
X12469515Y-13415984D02*
X12459991Y-13406460D01*
X12459991Y-13406460D02*
X12469515Y-13396936D01*
X12469515Y-13396936D02*
X12469515Y-13415984D01*
X12669515Y-13415984D02*
X12555229Y-13415984D01*
X12612372Y-13415984D02*
X12612372Y-13215984D01*
X12612372Y-13215984D02*
X12593325Y-13244555D01*
X12593325Y-13244555D02*
X12574277Y-13263603D01*
X12574277Y-13263603D02*
X12555229Y-13273127D01*
X12793325Y-13215984D02*
X12812372Y-13215984D01*
X12812372Y-13215984D02*
X12831420Y-13225508D01*
X12831420Y-13225508D02*
X12840944Y-13235031D01*
X12840944Y-13235031D02*
X12850467Y-13254079D01*
X12850467Y-13254079D02*
X12859991Y-13292174D01*
X12859991Y-13292174D02*
X12859991Y-13339793D01*
X12859991Y-13339793D02*
X12850467Y-13377888D01*
X12850467Y-13377888D02*
X12840944Y-13396936D01*
X12840944Y-13396936D02*
X12831420Y-13406460D01*
X12831420Y-13406460D02*
X12812372Y-13415984D01*
X12812372Y-13415984D02*
X12793325Y-13415984D01*
X12793325Y-13415984D02*
X12774277Y-13406460D01*
X12774277Y-13406460D02*
X12764753Y-13396936D01*
X12764753Y-13396936D02*
X12755229Y-13377888D01*
X12755229Y-13377888D02*
X12745706Y-13339793D01*
X12745706Y-13339793D02*
X12745706Y-13292174D01*
X12745706Y-13292174D02*
X12755229Y-13254079D01*
X12755229Y-13254079D02*
X12764753Y-13235031D01*
X12764753Y-13235031D02*
X12774277Y-13225508D01*
X12774277Y-13225508D02*
X12793325Y-13215984D01*
X13031420Y-13215984D02*
X12993325Y-13215984D01*
X12993325Y-13215984D02*
X12974277Y-13225508D01*
X12974277Y-13225508D02*
X12964753Y-13235031D01*
X12964753Y-13235031D02*
X12945706Y-13263603D01*
X12945706Y-13263603D02*
X12936182Y-13301698D01*
X12936182Y-13301698D02*
X12936182Y-13377888D01*
X12936182Y-13377888D02*
X12945706Y-13396936D01*
X12945706Y-13396936D02*
X12955229Y-13406460D01*
X12955229Y-13406460D02*
X12974277Y-13415984D01*
X12974277Y-13415984D02*
X13012372Y-13415984D01*
X13012372Y-13415984D02*
X13031420Y-13406460D01*
X13031420Y-13406460D02*
X13040944Y-13396936D01*
X13040944Y-13396936D02*
X13050467Y-13377888D01*
X13050467Y-13377888D02*
X13050467Y-13330269D01*
X13050467Y-13330269D02*
X13040944Y-13311222D01*
X13040944Y-13311222D02*
X13031420Y-13301698D01*
X13031420Y-13301698D02*
X13012372Y-13292174D01*
X13012372Y-13292174D02*
X12974277Y-13292174D01*
X12974277Y-13292174D02*
X12955229Y-13301698D01*
X12955229Y-13301698D02*
X12945706Y-13311222D01*
X12945706Y-13311222D02*
X12936182Y-13330269D01*
X13117134Y-13215984D02*
X13240944Y-13215984D01*
X13240944Y-13215984D02*
X13174277Y-13292174D01*
X13174277Y-13292174D02*
X13202848Y-13292174D01*
X13202848Y-13292174D02*
X13221896Y-13301698D01*
X13221896Y-13301698D02*
X13231420Y-13311222D01*
X13231420Y-13311222D02*
X13240944Y-13330269D01*
X13240944Y-13330269D02*
X13240944Y-13377888D01*
X13240944Y-13377888D02*
X13231420Y-13396936D01*
X13231420Y-13396936D02*
X13221896Y-13406460D01*
X13221896Y-13406460D02*
X13202848Y-13415984D01*
X13202848Y-13415984D02*
X13145706Y-13415984D01*
X13145706Y-13415984D02*
X13126658Y-13406460D01*
X13126658Y-13406460D02*
X13117134Y-13396936D01*
X13317134Y-13215984D02*
X13317134Y-13254079D01*
X13393325Y-13215984D02*
X13393325Y-13254079D01*
X13688563Y-13492174D02*
X13679039Y-13482650D01*
X13679039Y-13482650D02*
X13659991Y-13454079D01*
X13659991Y-13454079D02*
X13650468Y-13435031D01*
X13650468Y-13435031D02*
X13640944Y-13406460D01*
X13640944Y-13406460D02*
X13631420Y-13358841D01*
X13631420Y-13358841D02*
X13631420Y-13320746D01*
X13631420Y-13320746D02*
X13640944Y-13273127D01*
X13640944Y-13273127D02*
X13650468Y-13244555D01*
X13650468Y-13244555D02*
X13659991Y-13225508D01*
X13659991Y-13225508D02*
X13679039Y-13196936D01*
X13679039Y-13196936D02*
X13688563Y-13187412D01*
X13850468Y-13282650D02*
X13850468Y-13415984D01*
X13802848Y-13206460D02*
X13755229Y-13349317D01*
X13755229Y-13349317D02*
X13879039Y-13349317D01*
X14107610Y-13415984D02*
X14107610Y-13215984D01*
X14193325Y-13415984D02*
X14193325Y-13311222D01*
X14193325Y-13311222D02*
X14183801Y-13292174D01*
X14183801Y-13292174D02*
X14164753Y-13282650D01*
X14164753Y-13282650D02*
X14136182Y-13282650D01*
X14136182Y-13282650D02*
X14117134Y-13292174D01*
X14117134Y-13292174D02*
X14107610Y-13301698D01*
X14317134Y-13415984D02*
X14298087Y-13406460D01*
X14298087Y-13406460D02*
X14288563Y-13396936D01*
X14288563Y-13396936D02*
X14279039Y-13377888D01*
X14279039Y-13377888D02*
X14279039Y-13320746D01*
X14279039Y-13320746D02*
X14288563Y-13301698D01*
X14288563Y-13301698D02*
X14298087Y-13292174D01*
X14298087Y-13292174D02*
X14317134Y-13282650D01*
X14317134Y-13282650D02*
X14345706Y-13282650D01*
X14345706Y-13282650D02*
X14364753Y-13292174D01*
X14364753Y-13292174D02*
X14374277Y-13301698D01*
X14374277Y-13301698D02*
X14383801Y-13320746D01*
X14383801Y-13320746D02*
X14383801Y-13377888D01*
X14383801Y-13377888D02*
X14374277Y-13396936D01*
X14374277Y-13396936D02*
X14364753Y-13406460D01*
X14364753Y-13406460D02*
X14345706Y-13415984D01*
X14345706Y-13415984D02*
X14317134Y-13415984D01*
X14498087Y-13415984D02*
X14479039Y-13406460D01*
X14479039Y-13406460D02*
X14469515Y-13387412D01*
X14469515Y-13387412D02*
X14469515Y-13215984D01*
X14650468Y-13406460D02*
X14631420Y-13415984D01*
X14631420Y-13415984D02*
X14593325Y-13415984D01*
X14593325Y-13415984D02*
X14574277Y-13406460D01*
X14574277Y-13406460D02*
X14564753Y-13387412D01*
X14564753Y-13387412D02*
X14564753Y-13311222D01*
X14564753Y-13311222D02*
X14574277Y-13292174D01*
X14574277Y-13292174D02*
X14593325Y-13282650D01*
X14593325Y-13282650D02*
X14631420Y-13282650D01*
X14631420Y-13282650D02*
X14650468Y-13292174D01*
X14650468Y-13292174D02*
X14659991Y-13311222D01*
X14659991Y-13311222D02*
X14659991Y-13330269D01*
X14659991Y-13330269D02*
X14564753Y-13349317D01*
X14736182Y-13406460D02*
X14755230Y-13415984D01*
X14755230Y-13415984D02*
X14793325Y-13415984D01*
X14793325Y-13415984D02*
X14812372Y-13406460D01*
X14812372Y-13406460D02*
X14821896Y-13387412D01*
X14821896Y-13387412D02*
X14821896Y-13377888D01*
X14821896Y-13377888D02*
X14812372Y-13358841D01*
X14812372Y-13358841D02*
X14793325Y-13349317D01*
X14793325Y-13349317D02*
X14764753Y-13349317D01*
X14764753Y-13349317D02*
X14745706Y-13339793D01*
X14745706Y-13339793D02*
X14736182Y-13320746D01*
X14736182Y-13320746D02*
X14736182Y-13311222D01*
X14736182Y-13311222D02*
X14745706Y-13292174D01*
X14745706Y-13292174D02*
X14764753Y-13282650D01*
X14764753Y-13282650D02*
X14793325Y-13282650D01*
X14793325Y-13282650D02*
X14812372Y-13292174D01*
X14888563Y-13492174D02*
X14898087Y-13482650D01*
X14898087Y-13482650D02*
X14917134Y-13454079D01*
X14917134Y-13454079D02*
X14926658Y-13435031D01*
X14926658Y-13435031D02*
X14936182Y-13406460D01*
X14936182Y-13406460D02*
X14945706Y-13358841D01*
X14945706Y-13358841D02*
X14945706Y-13320746D01*
X14945706Y-13320746D02*
X14936182Y-13273127D01*
X14936182Y-13273127D02*
X14926658Y-13244555D01*
X14926658Y-13244555D02*
X14917134Y-13225508D01*
X14917134Y-13225508D02*
X14898087Y-13196936D01*
X14898087Y-13196936D02*
X14888563Y-13187412D01*
M02*
