%TF.GenerationSoftware,KiCad,Pcbnew,8.0.8*%
%TF.CreationDate,2025-02-15T02:41:19-07:00*%
%TF.ProjectId,ECE Capstone PCB Design,45434520-4361-4707-9374-6f6e65205043,rev?*%
%TF.SameCoordinates,Original*%
%TF.FileFunction,Legend,Top*%
%TF.FilePolarity,Positive*%
%FSLAX46Y46*%
G04 Gerber Fmt 4.6, Leading zero omitted, Abs format (unit mm)*
G04 Created by KiCad (PCBNEW 8.0.8) date 2025-02-15 02:41:19*
%MOMM*%
%LPD*%
G01*
G04 APERTURE LIST*
G04 Aperture macros list*
%AMRoundRect*
0 Rectangle with rounded corners*
0 $1 Rounding radius*
0 $2 $3 $4 $5 $6 $7 $8 $9 X,Y pos of 4 corners*
0 Add a 4 corners polygon primitive as box body*
4,1,4,$2,$3,$4,$5,$6,$7,$8,$9,$2,$3,0*
0 Add four circle primitives for the rounded corners*
1,1,$1+$1,$2,$3*
1,1,$1+$1,$4,$5*
1,1,$1+$1,$6,$7*
1,1,$1+$1,$8,$9*
0 Add four rect primitives between the rounded corners*
20,1,$1+$1,$2,$3,$4,$5,0*
20,1,$1+$1,$4,$5,$6,$7,0*
20,1,$1+$1,$6,$7,$8,$9,0*
20,1,$1+$1,$8,$9,$2,$3,0*%
G04 Aperture macros list end*
%ADD10C,0.150000*%
%ADD11C,0.098425*%
%ADD12C,0.152400*%
%ADD13C,0.120000*%
%ADD14C,0.508000*%
%ADD15C,0.200000*%
%ADD16C,0.000000*%
%ADD17C,0.127000*%
%ADD18R,1.752600X1.168400*%
%ADD19R,1.700000X1.700000*%
%ADD20O,1.700000X1.700000*%
%ADD21R,1.168400X1.803400*%
%ADD22R,1.600000X0.855600*%
%ADD23R,0.939800X0.965200*%
%ADD24C,5.400000*%
%ADD25R,1.803400X1.168400*%
%ADD26R,0.584200X0.203200*%
%ADD27R,0.850000X0.850000*%
%ADD28O,0.850000X0.850000*%
%ADD29R,1.981200X0.558800*%
%ADD30C,1.854200*%
%ADD31C,1.752600*%
%ADD32R,0.850900X2.006600*%
%ADD33R,1.600200X1.117600*%
%ADD34R,0.800001X0.549999*%
%ADD35R,0.558800X1.397000*%
%ADD36R,1.117600X1.600200*%
%ADD37RoundRect,0.102000X0.860000X-0.525000X0.860000X0.525000X-0.860000X0.525000X-0.860000X-0.525000X0*%
%ADD38R,1.168400X1.752600*%
%ADD39R,0.609600X4.114800*%
%ADD40R,1.752600X1.016000*%
%ADD41R,0.381000X1.346200*%
%ADD42R,2.540000X1.854200*%
%ADD43RoundRect,0.099250X0.627750X0.297750X-0.627750X0.297750X-0.627750X-0.297750X0.627750X-0.297750X0*%
%ADD44R,2.006600X0.850900*%
%ADD45R,1.447800X0.609600*%
%ADD46RoundRect,0.099250X-0.297750X0.627750X-0.297750X-0.627750X0.297750X-0.627750X0.297750X0.627750X0*%
%ADD47R,0.762000X1.219200*%
%ADD48RoundRect,0.102000X-0.139700X0.736600X-0.139700X-0.736600X0.139700X-0.736600X0.139700X0.736600X0*%
%ADD49RoundRect,0.102000X-0.736600X0.139700X-0.736600X-0.139700X0.736600X-0.139700X0.736600X0.139700X0*%
%ADD50RoundRect,0.102000X-2.997200X2.997200X-2.997200X-2.997200X2.997200X-2.997200X2.997200X2.997200X0*%
%ADD51R,1.701800X1.016000*%
G04 APERTURE END LIST*
D10*
X123380695Y-79146485D02*
X123342600Y-79117913D01*
X123342600Y-79117913D02*
X123304504Y-79032199D01*
X123304504Y-79032199D02*
X123304504Y-78975056D01*
X123304504Y-78975056D02*
X123342600Y-78889342D01*
X123342600Y-78889342D02*
X123418790Y-78832199D01*
X123418790Y-78832199D02*
X123494980Y-78803628D01*
X123494980Y-78803628D02*
X123647361Y-78775056D01*
X123647361Y-78775056D02*
X123761647Y-78775056D01*
X123761647Y-78775056D02*
X123914028Y-78803628D01*
X123914028Y-78803628D02*
X123990219Y-78832199D01*
X123990219Y-78832199D02*
X124066409Y-78889342D01*
X124066409Y-78889342D02*
X124104504Y-78975056D01*
X124104504Y-78975056D02*
X124104504Y-79032199D01*
X124104504Y-79032199D02*
X124066409Y-79117913D01*
X124066409Y-79117913D02*
X124028314Y-79146485D01*
X124104504Y-79346485D02*
X124104504Y-79717913D01*
X124104504Y-79717913D02*
X123799742Y-79517913D01*
X123799742Y-79517913D02*
X123799742Y-79603628D01*
X123799742Y-79603628D02*
X123761647Y-79660771D01*
X123761647Y-79660771D02*
X123723552Y-79689342D01*
X123723552Y-79689342D02*
X123647361Y-79717913D01*
X123647361Y-79717913D02*
X123456885Y-79717913D01*
X123456885Y-79717913D02*
X123380695Y-79689342D01*
X123380695Y-79689342D02*
X123342600Y-79660771D01*
X123342600Y-79660771D02*
X123304504Y-79603628D01*
X123304504Y-79603628D02*
X123304504Y-79432199D01*
X123304504Y-79432199D02*
X123342600Y-79375056D01*
X123342600Y-79375056D02*
X123380695Y-79346485D01*
X124104504Y-80232200D02*
X124104504Y-80117914D01*
X124104504Y-80117914D02*
X124066409Y-80060771D01*
X124066409Y-80060771D02*
X124028314Y-80032200D01*
X124028314Y-80032200D02*
X123914028Y-79975057D01*
X123914028Y-79975057D02*
X123761647Y-79946485D01*
X123761647Y-79946485D02*
X123456885Y-79946485D01*
X123456885Y-79946485D02*
X123380695Y-79975057D01*
X123380695Y-79975057D02*
X123342600Y-80003628D01*
X123342600Y-80003628D02*
X123304504Y-80060771D01*
X123304504Y-80060771D02*
X123304504Y-80175057D01*
X123304504Y-80175057D02*
X123342600Y-80232200D01*
X123342600Y-80232200D02*
X123380695Y-80260771D01*
X123380695Y-80260771D02*
X123456885Y-80289342D01*
X123456885Y-80289342D02*
X123647361Y-80289342D01*
X123647361Y-80289342D02*
X123723552Y-80260771D01*
X123723552Y-80260771D02*
X123761647Y-80232200D01*
X123761647Y-80232200D02*
X123799742Y-80175057D01*
X123799742Y-80175057D02*
X123799742Y-80060771D01*
X123799742Y-80060771D02*
X123761647Y-80003628D01*
X123761647Y-80003628D02*
X123723552Y-79975057D01*
X123723552Y-79975057D02*
X123647361Y-79946485D01*
X132496666Y-83744819D02*
X132163333Y-83268628D01*
X131925238Y-83744819D02*
X131925238Y-82744819D01*
X131925238Y-82744819D02*
X132306190Y-82744819D01*
X132306190Y-82744819D02*
X132401428Y-82792438D01*
X132401428Y-82792438D02*
X132449047Y-82840057D01*
X132449047Y-82840057D02*
X132496666Y-82935295D01*
X132496666Y-82935295D02*
X132496666Y-83078152D01*
X132496666Y-83078152D02*
X132449047Y-83173390D01*
X132449047Y-83173390D02*
X132401428Y-83221009D01*
X132401428Y-83221009D02*
X132306190Y-83268628D01*
X132306190Y-83268628D02*
X131925238Y-83268628D01*
X132925238Y-83221009D02*
X133258571Y-83221009D01*
X133401428Y-83744819D02*
X132925238Y-83744819D01*
X132925238Y-83744819D02*
X132925238Y-82744819D01*
X132925238Y-82744819D02*
X133401428Y-82744819D01*
X134163333Y-83221009D02*
X133830000Y-83221009D01*
X133830000Y-83744819D02*
X133830000Y-82744819D01*
X133830000Y-82744819D02*
X134306190Y-82744819D01*
X134830000Y-82744819D02*
X134830000Y-82982914D01*
X134591905Y-82887676D02*
X134830000Y-82982914D01*
X134830000Y-82982914D02*
X135068095Y-82887676D01*
X134687143Y-83173390D02*
X134830000Y-82982914D01*
X134830000Y-82982914D02*
X134972857Y-83173390D01*
X135591905Y-82744819D02*
X135591905Y-82982914D01*
X135353810Y-82887676D02*
X135591905Y-82982914D01*
X135591905Y-82982914D02*
X135830000Y-82887676D01*
X135449048Y-83173390D02*
X135591905Y-82982914D01*
X135591905Y-82982914D02*
X135734762Y-83173390D01*
X118901085Y-91066104D02*
X118872513Y-91104200D01*
X118872513Y-91104200D02*
X118786799Y-91142295D01*
X118786799Y-91142295D02*
X118729656Y-91142295D01*
X118729656Y-91142295D02*
X118643942Y-91104200D01*
X118643942Y-91104200D02*
X118586799Y-91028009D01*
X118586799Y-91028009D02*
X118558228Y-90951819D01*
X118558228Y-90951819D02*
X118529656Y-90799438D01*
X118529656Y-90799438D02*
X118529656Y-90685152D01*
X118529656Y-90685152D02*
X118558228Y-90532771D01*
X118558228Y-90532771D02*
X118586799Y-90456580D01*
X118586799Y-90456580D02*
X118643942Y-90380390D01*
X118643942Y-90380390D02*
X118729656Y-90342295D01*
X118729656Y-90342295D02*
X118786799Y-90342295D01*
X118786799Y-90342295D02*
X118872513Y-90380390D01*
X118872513Y-90380390D02*
X118901085Y-90418485D01*
X119101085Y-90342295D02*
X119472513Y-90342295D01*
X119472513Y-90342295D02*
X119272513Y-90647057D01*
X119272513Y-90647057D02*
X119358228Y-90647057D01*
X119358228Y-90647057D02*
X119415371Y-90685152D01*
X119415371Y-90685152D02*
X119443942Y-90723247D01*
X119443942Y-90723247D02*
X119472513Y-90799438D01*
X119472513Y-90799438D02*
X119472513Y-90989914D01*
X119472513Y-90989914D02*
X119443942Y-91066104D01*
X119443942Y-91066104D02*
X119415371Y-91104200D01*
X119415371Y-91104200D02*
X119358228Y-91142295D01*
X119358228Y-91142295D02*
X119186799Y-91142295D01*
X119186799Y-91142295D02*
X119129656Y-91104200D01*
X119129656Y-91104200D02*
X119101085Y-91066104D01*
X120043942Y-91142295D02*
X119701085Y-91142295D01*
X119872514Y-91142295D02*
X119872514Y-90342295D01*
X119872514Y-90342295D02*
X119815371Y-90456580D01*
X119815371Y-90456580D02*
X119758228Y-90532771D01*
X119758228Y-90532771D02*
X119701085Y-90570866D01*
X136573895Y-73522086D02*
X136535800Y-73493514D01*
X136535800Y-73493514D02*
X136497704Y-73407800D01*
X136497704Y-73407800D02*
X136497704Y-73350657D01*
X136497704Y-73350657D02*
X136535800Y-73264943D01*
X136535800Y-73264943D02*
X136611990Y-73207800D01*
X136611990Y-73207800D02*
X136688180Y-73179229D01*
X136688180Y-73179229D02*
X136840561Y-73150657D01*
X136840561Y-73150657D02*
X136954847Y-73150657D01*
X136954847Y-73150657D02*
X137107228Y-73179229D01*
X137107228Y-73179229D02*
X137183419Y-73207800D01*
X137183419Y-73207800D02*
X137259609Y-73264943D01*
X137259609Y-73264943D02*
X137297704Y-73350657D01*
X137297704Y-73350657D02*
X137297704Y-73407800D01*
X137297704Y-73407800D02*
X137259609Y-73493514D01*
X137259609Y-73493514D02*
X137221514Y-73522086D01*
X137297704Y-73722086D02*
X137297704Y-74093514D01*
X137297704Y-74093514D02*
X136992942Y-73893514D01*
X136992942Y-73893514D02*
X136992942Y-73979229D01*
X136992942Y-73979229D02*
X136954847Y-74036372D01*
X136954847Y-74036372D02*
X136916752Y-74064943D01*
X136916752Y-74064943D02*
X136840561Y-74093514D01*
X136840561Y-74093514D02*
X136650085Y-74093514D01*
X136650085Y-74093514D02*
X136573895Y-74064943D01*
X136573895Y-74064943D02*
X136535800Y-74036372D01*
X136535800Y-74036372D02*
X136497704Y-73979229D01*
X136497704Y-73979229D02*
X136497704Y-73807800D01*
X136497704Y-73807800D02*
X136535800Y-73750657D01*
X136535800Y-73750657D02*
X136573895Y-73722086D01*
X136954847Y-74436372D02*
X136992942Y-74379229D01*
X136992942Y-74379229D02*
X137031038Y-74350658D01*
X137031038Y-74350658D02*
X137107228Y-74322086D01*
X137107228Y-74322086D02*
X137145323Y-74322086D01*
X137145323Y-74322086D02*
X137221514Y-74350658D01*
X137221514Y-74350658D02*
X137259609Y-74379229D01*
X137259609Y-74379229D02*
X137297704Y-74436372D01*
X137297704Y-74436372D02*
X137297704Y-74550658D01*
X137297704Y-74550658D02*
X137259609Y-74607801D01*
X137259609Y-74607801D02*
X137221514Y-74636372D01*
X137221514Y-74636372D02*
X137145323Y-74664943D01*
X137145323Y-74664943D02*
X137107228Y-74664943D01*
X137107228Y-74664943D02*
X137031038Y-74636372D01*
X137031038Y-74636372D02*
X136992942Y-74607801D01*
X136992942Y-74607801D02*
X136954847Y-74550658D01*
X136954847Y-74550658D02*
X136954847Y-74436372D01*
X136954847Y-74436372D02*
X136916752Y-74379229D01*
X136916752Y-74379229D02*
X136878657Y-74350658D01*
X136878657Y-74350658D02*
X136802466Y-74322086D01*
X136802466Y-74322086D02*
X136650085Y-74322086D01*
X136650085Y-74322086D02*
X136573895Y-74350658D01*
X136573895Y-74350658D02*
X136535800Y-74379229D01*
X136535800Y-74379229D02*
X136497704Y-74436372D01*
X136497704Y-74436372D02*
X136497704Y-74550658D01*
X136497704Y-74550658D02*
X136535800Y-74607801D01*
X136535800Y-74607801D02*
X136573895Y-74636372D01*
X136573895Y-74636372D02*
X136650085Y-74664943D01*
X136650085Y-74664943D02*
X136802466Y-74664943D01*
X136802466Y-74664943D02*
X136878657Y-74636372D01*
X136878657Y-74636372D02*
X136916752Y-74607801D01*
X136916752Y-74607801D02*
X136954847Y-74550658D01*
X118176104Y-50443332D02*
X118214200Y-50481428D01*
X118214200Y-50481428D02*
X118252295Y-50595713D01*
X118252295Y-50595713D02*
X118252295Y-50671904D01*
X118252295Y-50671904D02*
X118214200Y-50786190D01*
X118214200Y-50786190D02*
X118138009Y-50862380D01*
X118138009Y-50862380D02*
X118061819Y-50900475D01*
X118061819Y-50900475D02*
X117909438Y-50938571D01*
X117909438Y-50938571D02*
X117795152Y-50938571D01*
X117795152Y-50938571D02*
X117642771Y-50900475D01*
X117642771Y-50900475D02*
X117566580Y-50862380D01*
X117566580Y-50862380D02*
X117490390Y-50786190D01*
X117490390Y-50786190D02*
X117452295Y-50671904D01*
X117452295Y-50671904D02*
X117452295Y-50595713D01*
X117452295Y-50595713D02*
X117490390Y-50481428D01*
X117490390Y-50481428D02*
X117528485Y-50443332D01*
X117452295Y-49757618D02*
X117452295Y-49909999D01*
X117452295Y-49909999D02*
X117490390Y-49986190D01*
X117490390Y-49986190D02*
X117528485Y-50024285D01*
X117528485Y-50024285D02*
X117642771Y-50100475D01*
X117642771Y-50100475D02*
X117795152Y-50138571D01*
X117795152Y-50138571D02*
X118099914Y-50138571D01*
X118099914Y-50138571D02*
X118176104Y-50100475D01*
X118176104Y-50100475D02*
X118214200Y-50062380D01*
X118214200Y-50062380D02*
X118252295Y-49986190D01*
X118252295Y-49986190D02*
X118252295Y-49833809D01*
X118252295Y-49833809D02*
X118214200Y-49757618D01*
X118214200Y-49757618D02*
X118176104Y-49719523D01*
X118176104Y-49719523D02*
X118099914Y-49681428D01*
X118099914Y-49681428D02*
X117909438Y-49681428D01*
X117909438Y-49681428D02*
X117833247Y-49719523D01*
X117833247Y-49719523D02*
X117795152Y-49757618D01*
X117795152Y-49757618D02*
X117757057Y-49833809D01*
X117757057Y-49833809D02*
X117757057Y-49986190D01*
X117757057Y-49986190D02*
X117795152Y-50062380D01*
X117795152Y-50062380D02*
X117833247Y-50100475D01*
X117833247Y-50100475D02*
X117909438Y-50138571D01*
X173423895Y-71646485D02*
X173385800Y-71617913D01*
X173385800Y-71617913D02*
X173347704Y-71532199D01*
X173347704Y-71532199D02*
X173347704Y-71475056D01*
X173347704Y-71475056D02*
X173385800Y-71389342D01*
X173385800Y-71389342D02*
X173461990Y-71332199D01*
X173461990Y-71332199D02*
X173538180Y-71303628D01*
X173538180Y-71303628D02*
X173690561Y-71275056D01*
X173690561Y-71275056D02*
X173804847Y-71275056D01*
X173804847Y-71275056D02*
X173957228Y-71303628D01*
X173957228Y-71303628D02*
X174033419Y-71332199D01*
X174033419Y-71332199D02*
X174109609Y-71389342D01*
X174109609Y-71389342D02*
X174147704Y-71475056D01*
X174147704Y-71475056D02*
X174147704Y-71532199D01*
X174147704Y-71532199D02*
X174109609Y-71617913D01*
X174109609Y-71617913D02*
X174071514Y-71646485D01*
X173347704Y-72217913D02*
X173347704Y-71875056D01*
X173347704Y-72046485D02*
X174147704Y-72046485D01*
X174147704Y-72046485D02*
X174033419Y-71989342D01*
X174033419Y-71989342D02*
X173957228Y-71932199D01*
X173957228Y-71932199D02*
X173919133Y-71875056D01*
X173347704Y-72503628D02*
X173347704Y-72617914D01*
X173347704Y-72617914D02*
X173385800Y-72675057D01*
X173385800Y-72675057D02*
X173423895Y-72703628D01*
X173423895Y-72703628D02*
X173538180Y-72760771D01*
X173538180Y-72760771D02*
X173690561Y-72789342D01*
X173690561Y-72789342D02*
X173995323Y-72789342D01*
X173995323Y-72789342D02*
X174071514Y-72760771D01*
X174071514Y-72760771D02*
X174109609Y-72732200D01*
X174109609Y-72732200D02*
X174147704Y-72675057D01*
X174147704Y-72675057D02*
X174147704Y-72560771D01*
X174147704Y-72560771D02*
X174109609Y-72503628D01*
X174109609Y-72503628D02*
X174071514Y-72475057D01*
X174071514Y-72475057D02*
X173995323Y-72446485D01*
X173995323Y-72446485D02*
X173804847Y-72446485D01*
X173804847Y-72446485D02*
X173728657Y-72475057D01*
X173728657Y-72475057D02*
X173690561Y-72503628D01*
X173690561Y-72503628D02*
X173652466Y-72560771D01*
X173652466Y-72560771D02*
X173652466Y-72675057D01*
X173652466Y-72675057D02*
X173690561Y-72732200D01*
X173690561Y-72732200D02*
X173728657Y-72760771D01*
X173728657Y-72760771D02*
X173804847Y-72789342D01*
X123898303Y-50487730D02*
X123936399Y-50525826D01*
X123936399Y-50525826D02*
X123974494Y-50640111D01*
X123974494Y-50640111D02*
X123974494Y-50716302D01*
X123974494Y-50716302D02*
X123936399Y-50830588D01*
X123936399Y-50830588D02*
X123860208Y-50906778D01*
X123860208Y-50906778D02*
X123784018Y-50944873D01*
X123784018Y-50944873D02*
X123631637Y-50982969D01*
X123631637Y-50982969D02*
X123517351Y-50982969D01*
X123517351Y-50982969D02*
X123364970Y-50944873D01*
X123364970Y-50944873D02*
X123288779Y-50906778D01*
X123288779Y-50906778D02*
X123212589Y-50830588D01*
X123212589Y-50830588D02*
X123174494Y-50716302D01*
X123174494Y-50716302D02*
X123174494Y-50640111D01*
X123174494Y-50640111D02*
X123212589Y-50525826D01*
X123212589Y-50525826D02*
X123250684Y-50487730D01*
X123174494Y-50221064D02*
X123174494Y-49725826D01*
X123174494Y-49725826D02*
X123479256Y-49992492D01*
X123479256Y-49992492D02*
X123479256Y-49878207D01*
X123479256Y-49878207D02*
X123517351Y-49802016D01*
X123517351Y-49802016D02*
X123555446Y-49763921D01*
X123555446Y-49763921D02*
X123631637Y-49725826D01*
X123631637Y-49725826D02*
X123822113Y-49725826D01*
X123822113Y-49725826D02*
X123898303Y-49763921D01*
X123898303Y-49763921D02*
X123936399Y-49802016D01*
X123936399Y-49802016D02*
X123974494Y-49878207D01*
X123974494Y-49878207D02*
X123974494Y-50106778D01*
X123974494Y-50106778D02*
X123936399Y-50182969D01*
X123936399Y-50182969D02*
X123898303Y-50221064D01*
X202126095Y-53794285D02*
X202088000Y-53765713D01*
X202088000Y-53765713D02*
X202049904Y-53679999D01*
X202049904Y-53679999D02*
X202049904Y-53622856D01*
X202049904Y-53622856D02*
X202088000Y-53537142D01*
X202088000Y-53537142D02*
X202164190Y-53479999D01*
X202164190Y-53479999D02*
X202240380Y-53451428D01*
X202240380Y-53451428D02*
X202392761Y-53422856D01*
X202392761Y-53422856D02*
X202507047Y-53422856D01*
X202507047Y-53422856D02*
X202659428Y-53451428D01*
X202659428Y-53451428D02*
X202735619Y-53479999D01*
X202735619Y-53479999D02*
X202811809Y-53537142D01*
X202811809Y-53537142D02*
X202849904Y-53622856D01*
X202849904Y-53622856D02*
X202849904Y-53679999D01*
X202849904Y-53679999D02*
X202811809Y-53765713D01*
X202811809Y-53765713D02*
X202773714Y-53794285D01*
X202773714Y-54022856D02*
X202811809Y-54051428D01*
X202811809Y-54051428D02*
X202849904Y-54108571D01*
X202849904Y-54108571D02*
X202849904Y-54251428D01*
X202849904Y-54251428D02*
X202811809Y-54308571D01*
X202811809Y-54308571D02*
X202773714Y-54337142D01*
X202773714Y-54337142D02*
X202697523Y-54365713D01*
X202697523Y-54365713D02*
X202621333Y-54365713D01*
X202621333Y-54365713D02*
X202507047Y-54337142D01*
X202507047Y-54337142D02*
X202049904Y-53994285D01*
X202049904Y-53994285D02*
X202049904Y-54365713D01*
X202849904Y-54737142D02*
X202849904Y-54794285D01*
X202849904Y-54794285D02*
X202811809Y-54851428D01*
X202811809Y-54851428D02*
X202773714Y-54880000D01*
X202773714Y-54880000D02*
X202697523Y-54908571D01*
X202697523Y-54908571D02*
X202545142Y-54937142D01*
X202545142Y-54937142D02*
X202354666Y-54937142D01*
X202354666Y-54937142D02*
X202202285Y-54908571D01*
X202202285Y-54908571D02*
X202126095Y-54880000D01*
X202126095Y-54880000D02*
X202088000Y-54851428D01*
X202088000Y-54851428D02*
X202049904Y-54794285D01*
X202049904Y-54794285D02*
X202049904Y-54737142D01*
X202049904Y-54737142D02*
X202088000Y-54680000D01*
X202088000Y-54680000D02*
X202126095Y-54651428D01*
X202126095Y-54651428D02*
X202202285Y-54622857D01*
X202202285Y-54622857D02*
X202354666Y-54594285D01*
X202354666Y-54594285D02*
X202545142Y-54594285D01*
X202545142Y-54594285D02*
X202697523Y-54622857D01*
X202697523Y-54622857D02*
X202773714Y-54651428D01*
X202773714Y-54651428D02*
X202811809Y-54680000D01*
X202811809Y-54680000D02*
X202849904Y-54737142D01*
X175923895Y-71636483D02*
X175885800Y-71607911D01*
X175885800Y-71607911D02*
X175847704Y-71522197D01*
X175847704Y-71522197D02*
X175847704Y-71465054D01*
X175847704Y-71465054D02*
X175885800Y-71379340D01*
X175885800Y-71379340D02*
X175961990Y-71322197D01*
X175961990Y-71322197D02*
X176038180Y-71293626D01*
X176038180Y-71293626D02*
X176190561Y-71265054D01*
X176190561Y-71265054D02*
X176304847Y-71265054D01*
X176304847Y-71265054D02*
X176457228Y-71293626D01*
X176457228Y-71293626D02*
X176533419Y-71322197D01*
X176533419Y-71322197D02*
X176609609Y-71379340D01*
X176609609Y-71379340D02*
X176647704Y-71465054D01*
X176647704Y-71465054D02*
X176647704Y-71522197D01*
X176647704Y-71522197D02*
X176609609Y-71607911D01*
X176609609Y-71607911D02*
X176571514Y-71636483D01*
X175847704Y-72207911D02*
X175847704Y-71865054D01*
X175847704Y-72036483D02*
X176647704Y-72036483D01*
X176647704Y-72036483D02*
X176533419Y-71979340D01*
X176533419Y-71979340D02*
X176457228Y-71922197D01*
X176457228Y-71922197D02*
X176419133Y-71865054D01*
X176647704Y-72750769D02*
X176647704Y-72465055D01*
X176647704Y-72465055D02*
X176266752Y-72436483D01*
X176266752Y-72436483D02*
X176304847Y-72465055D01*
X176304847Y-72465055D02*
X176342942Y-72522198D01*
X176342942Y-72522198D02*
X176342942Y-72665055D01*
X176342942Y-72665055D02*
X176304847Y-72722198D01*
X176304847Y-72722198D02*
X176266752Y-72750769D01*
X176266752Y-72750769D02*
X176190561Y-72779340D01*
X176190561Y-72779340D02*
X176000085Y-72779340D01*
X176000085Y-72779340D02*
X175923895Y-72750769D01*
X175923895Y-72750769D02*
X175885800Y-72722198D01*
X175885800Y-72722198D02*
X175847704Y-72665055D01*
X175847704Y-72665055D02*
X175847704Y-72522198D01*
X175847704Y-72522198D02*
X175885800Y-72465055D01*
X175885800Y-72465055D02*
X175923895Y-72436483D01*
X137146104Y-78821316D02*
X137184200Y-78849888D01*
X137184200Y-78849888D02*
X137222295Y-78935602D01*
X137222295Y-78935602D02*
X137222295Y-78992745D01*
X137222295Y-78992745D02*
X137184200Y-79078459D01*
X137184200Y-79078459D02*
X137108009Y-79135602D01*
X137108009Y-79135602D02*
X137031819Y-79164173D01*
X137031819Y-79164173D02*
X136879438Y-79192745D01*
X136879438Y-79192745D02*
X136765152Y-79192745D01*
X136765152Y-79192745D02*
X136612771Y-79164173D01*
X136612771Y-79164173D02*
X136536580Y-79135602D01*
X136536580Y-79135602D02*
X136460390Y-79078459D01*
X136460390Y-79078459D02*
X136422295Y-78992745D01*
X136422295Y-78992745D02*
X136422295Y-78935602D01*
X136422295Y-78935602D02*
X136460390Y-78849888D01*
X136460390Y-78849888D02*
X136498485Y-78821316D01*
X136422295Y-78621316D02*
X136422295Y-78249888D01*
X136422295Y-78249888D02*
X136727057Y-78449888D01*
X136727057Y-78449888D02*
X136727057Y-78364173D01*
X136727057Y-78364173D02*
X136765152Y-78307031D01*
X136765152Y-78307031D02*
X136803247Y-78278459D01*
X136803247Y-78278459D02*
X136879438Y-78249888D01*
X136879438Y-78249888D02*
X137069914Y-78249888D01*
X137069914Y-78249888D02*
X137146104Y-78278459D01*
X137146104Y-78278459D02*
X137184200Y-78307031D01*
X137184200Y-78307031D02*
X137222295Y-78364173D01*
X137222295Y-78364173D02*
X137222295Y-78535602D01*
X137222295Y-78535602D02*
X137184200Y-78592745D01*
X137184200Y-78592745D02*
X137146104Y-78621316D01*
X137222295Y-77964173D02*
X137222295Y-77849887D01*
X137222295Y-77849887D02*
X137184200Y-77792744D01*
X137184200Y-77792744D02*
X137146104Y-77764173D01*
X137146104Y-77764173D02*
X137031819Y-77707030D01*
X137031819Y-77707030D02*
X136879438Y-77678459D01*
X136879438Y-77678459D02*
X136574676Y-77678459D01*
X136574676Y-77678459D02*
X136498485Y-77707030D01*
X136498485Y-77707030D02*
X136460390Y-77735602D01*
X136460390Y-77735602D02*
X136422295Y-77792744D01*
X136422295Y-77792744D02*
X136422295Y-77907030D01*
X136422295Y-77907030D02*
X136460390Y-77964173D01*
X136460390Y-77964173D02*
X136498485Y-77992744D01*
X136498485Y-77992744D02*
X136574676Y-78021316D01*
X136574676Y-78021316D02*
X136765152Y-78021316D01*
X136765152Y-78021316D02*
X136841342Y-77992744D01*
X136841342Y-77992744D02*
X136879438Y-77964173D01*
X136879438Y-77964173D02*
X136917533Y-77907030D01*
X136917533Y-77907030D02*
X136917533Y-77792744D01*
X136917533Y-77792744D02*
X136879438Y-77735602D01*
X136879438Y-77735602D02*
X136841342Y-77707030D01*
X136841342Y-77707030D02*
X136765152Y-77678459D01*
X181023895Y-71888865D02*
X180985800Y-71850769D01*
X180985800Y-71850769D02*
X180947704Y-71736484D01*
X180947704Y-71736484D02*
X180947704Y-71660293D01*
X180947704Y-71660293D02*
X180985800Y-71546007D01*
X180985800Y-71546007D02*
X181061990Y-71469817D01*
X181061990Y-71469817D02*
X181138180Y-71431722D01*
X181138180Y-71431722D02*
X181290561Y-71393626D01*
X181290561Y-71393626D02*
X181404847Y-71393626D01*
X181404847Y-71393626D02*
X181557228Y-71431722D01*
X181557228Y-71431722D02*
X181633419Y-71469817D01*
X181633419Y-71469817D02*
X181709609Y-71546007D01*
X181709609Y-71546007D02*
X181747704Y-71660293D01*
X181747704Y-71660293D02*
X181747704Y-71736484D01*
X181747704Y-71736484D02*
X181709609Y-71850769D01*
X181709609Y-71850769D02*
X181671514Y-71888865D01*
X181404847Y-72346007D02*
X181442942Y-72269817D01*
X181442942Y-72269817D02*
X181481038Y-72231722D01*
X181481038Y-72231722D02*
X181557228Y-72193626D01*
X181557228Y-72193626D02*
X181595323Y-72193626D01*
X181595323Y-72193626D02*
X181671514Y-72231722D01*
X181671514Y-72231722D02*
X181709609Y-72269817D01*
X181709609Y-72269817D02*
X181747704Y-72346007D01*
X181747704Y-72346007D02*
X181747704Y-72498388D01*
X181747704Y-72498388D02*
X181709609Y-72574579D01*
X181709609Y-72574579D02*
X181671514Y-72612674D01*
X181671514Y-72612674D02*
X181595323Y-72650769D01*
X181595323Y-72650769D02*
X181557228Y-72650769D01*
X181557228Y-72650769D02*
X181481038Y-72612674D01*
X181481038Y-72612674D02*
X181442942Y-72574579D01*
X181442942Y-72574579D02*
X181404847Y-72498388D01*
X181404847Y-72498388D02*
X181404847Y-72346007D01*
X181404847Y-72346007D02*
X181366752Y-72269817D01*
X181366752Y-72269817D02*
X181328657Y-72231722D01*
X181328657Y-72231722D02*
X181252466Y-72193626D01*
X181252466Y-72193626D02*
X181100085Y-72193626D01*
X181100085Y-72193626D02*
X181023895Y-72231722D01*
X181023895Y-72231722D02*
X180985800Y-72269817D01*
X180985800Y-72269817D02*
X180947704Y-72346007D01*
X180947704Y-72346007D02*
X180947704Y-72498388D01*
X180947704Y-72498388D02*
X180985800Y-72574579D01*
X180985800Y-72574579D02*
X181023895Y-72612674D01*
X181023895Y-72612674D02*
X181100085Y-72650769D01*
X181100085Y-72650769D02*
X181252466Y-72650769D01*
X181252466Y-72650769D02*
X181328657Y-72612674D01*
X181328657Y-72612674D02*
X181366752Y-72574579D01*
X181366752Y-72574579D02*
X181404847Y-72498388D01*
X206226666Y-45934819D02*
X205893333Y-45458628D01*
X205655238Y-45934819D02*
X205655238Y-44934819D01*
X205655238Y-44934819D02*
X206036190Y-44934819D01*
X206036190Y-44934819D02*
X206131428Y-44982438D01*
X206131428Y-44982438D02*
X206179047Y-45030057D01*
X206179047Y-45030057D02*
X206226666Y-45125295D01*
X206226666Y-45125295D02*
X206226666Y-45268152D01*
X206226666Y-45268152D02*
X206179047Y-45363390D01*
X206179047Y-45363390D02*
X206131428Y-45411009D01*
X206131428Y-45411009D02*
X206036190Y-45458628D01*
X206036190Y-45458628D02*
X205655238Y-45458628D01*
X206655238Y-45411009D02*
X206988571Y-45411009D01*
X207131428Y-45934819D02*
X206655238Y-45934819D01*
X206655238Y-45934819D02*
X206655238Y-44934819D01*
X206655238Y-44934819D02*
X207131428Y-44934819D01*
X207893333Y-45411009D02*
X207560000Y-45411009D01*
X207560000Y-45934819D02*
X207560000Y-44934819D01*
X207560000Y-44934819D02*
X208036190Y-44934819D01*
X208560000Y-44934819D02*
X208560000Y-45172914D01*
X208321905Y-45077676D02*
X208560000Y-45172914D01*
X208560000Y-45172914D02*
X208798095Y-45077676D01*
X208417143Y-45363390D02*
X208560000Y-45172914D01*
X208560000Y-45172914D02*
X208702857Y-45363390D01*
X209321905Y-44934819D02*
X209321905Y-45172914D01*
X209083810Y-45077676D02*
X209321905Y-45172914D01*
X209321905Y-45172914D02*
X209560000Y-45077676D01*
X209179048Y-45363390D02*
X209321905Y-45172914D01*
X209321905Y-45172914D02*
X209464762Y-45363390D01*
X123947095Y-65194285D02*
X123909000Y-65165713D01*
X123909000Y-65165713D02*
X123870904Y-65079999D01*
X123870904Y-65079999D02*
X123870904Y-65022856D01*
X123870904Y-65022856D02*
X123909000Y-64937142D01*
X123909000Y-64937142D02*
X123985190Y-64879999D01*
X123985190Y-64879999D02*
X124061380Y-64851428D01*
X124061380Y-64851428D02*
X124213761Y-64822856D01*
X124213761Y-64822856D02*
X124328047Y-64822856D01*
X124328047Y-64822856D02*
X124480428Y-64851428D01*
X124480428Y-64851428D02*
X124556619Y-64879999D01*
X124556619Y-64879999D02*
X124632809Y-64937142D01*
X124632809Y-64937142D02*
X124670904Y-65022856D01*
X124670904Y-65022856D02*
X124670904Y-65079999D01*
X124670904Y-65079999D02*
X124632809Y-65165713D01*
X124632809Y-65165713D02*
X124594714Y-65194285D01*
X124594714Y-65422856D02*
X124632809Y-65451428D01*
X124632809Y-65451428D02*
X124670904Y-65508571D01*
X124670904Y-65508571D02*
X124670904Y-65651428D01*
X124670904Y-65651428D02*
X124632809Y-65708571D01*
X124632809Y-65708571D02*
X124594714Y-65737142D01*
X124594714Y-65737142D02*
X124518523Y-65765713D01*
X124518523Y-65765713D02*
X124442333Y-65765713D01*
X124442333Y-65765713D02*
X124328047Y-65737142D01*
X124328047Y-65737142D02*
X123870904Y-65394285D01*
X123870904Y-65394285D02*
X123870904Y-65765713D01*
X124670904Y-65965714D02*
X124670904Y-66365714D01*
X124670904Y-66365714D02*
X123870904Y-66108571D01*
X112596104Y-78087913D02*
X112634200Y-78116485D01*
X112634200Y-78116485D02*
X112672295Y-78202199D01*
X112672295Y-78202199D02*
X112672295Y-78259342D01*
X112672295Y-78259342D02*
X112634200Y-78345056D01*
X112634200Y-78345056D02*
X112558009Y-78402199D01*
X112558009Y-78402199D02*
X112481819Y-78430770D01*
X112481819Y-78430770D02*
X112329438Y-78459342D01*
X112329438Y-78459342D02*
X112215152Y-78459342D01*
X112215152Y-78459342D02*
X112062771Y-78430770D01*
X112062771Y-78430770D02*
X111986580Y-78402199D01*
X111986580Y-78402199D02*
X111910390Y-78345056D01*
X111910390Y-78345056D02*
X111872295Y-78259342D01*
X111872295Y-78259342D02*
X111872295Y-78202199D01*
X111872295Y-78202199D02*
X111910390Y-78116485D01*
X111910390Y-78116485D02*
X111948485Y-78087913D01*
X111872295Y-77887913D02*
X111872295Y-77516485D01*
X111872295Y-77516485D02*
X112177057Y-77716485D01*
X112177057Y-77716485D02*
X112177057Y-77630770D01*
X112177057Y-77630770D02*
X112215152Y-77573628D01*
X112215152Y-77573628D02*
X112253247Y-77545056D01*
X112253247Y-77545056D02*
X112329438Y-77516485D01*
X112329438Y-77516485D02*
X112519914Y-77516485D01*
X112519914Y-77516485D02*
X112596104Y-77545056D01*
X112596104Y-77545056D02*
X112634200Y-77573628D01*
X112634200Y-77573628D02*
X112672295Y-77630770D01*
X112672295Y-77630770D02*
X112672295Y-77802199D01*
X112672295Y-77802199D02*
X112634200Y-77859342D01*
X112634200Y-77859342D02*
X112596104Y-77887913D01*
X112138961Y-77002199D02*
X112672295Y-77002199D01*
X111834200Y-77145056D02*
X112405628Y-77287913D01*
X112405628Y-77287913D02*
X112405628Y-76916484D01*
X178573895Y-77042085D02*
X178535800Y-77013513D01*
X178535800Y-77013513D02*
X178497704Y-76927799D01*
X178497704Y-76927799D02*
X178497704Y-76870656D01*
X178497704Y-76870656D02*
X178535800Y-76784942D01*
X178535800Y-76784942D02*
X178611990Y-76727799D01*
X178611990Y-76727799D02*
X178688180Y-76699228D01*
X178688180Y-76699228D02*
X178840561Y-76670656D01*
X178840561Y-76670656D02*
X178954847Y-76670656D01*
X178954847Y-76670656D02*
X179107228Y-76699228D01*
X179107228Y-76699228D02*
X179183419Y-76727799D01*
X179183419Y-76727799D02*
X179259609Y-76784942D01*
X179259609Y-76784942D02*
X179297704Y-76870656D01*
X179297704Y-76870656D02*
X179297704Y-76927799D01*
X179297704Y-76927799D02*
X179259609Y-77013513D01*
X179259609Y-77013513D02*
X179221514Y-77042085D01*
X178497704Y-77613513D02*
X178497704Y-77270656D01*
X178497704Y-77442085D02*
X179297704Y-77442085D01*
X179297704Y-77442085D02*
X179183419Y-77384942D01*
X179183419Y-77384942D02*
X179107228Y-77327799D01*
X179107228Y-77327799D02*
X179069133Y-77270656D01*
X179297704Y-77984942D02*
X179297704Y-78042085D01*
X179297704Y-78042085D02*
X179259609Y-78099228D01*
X179259609Y-78099228D02*
X179221514Y-78127800D01*
X179221514Y-78127800D02*
X179145323Y-78156371D01*
X179145323Y-78156371D02*
X178992942Y-78184942D01*
X178992942Y-78184942D02*
X178802466Y-78184942D01*
X178802466Y-78184942D02*
X178650085Y-78156371D01*
X178650085Y-78156371D02*
X178573895Y-78127800D01*
X178573895Y-78127800D02*
X178535800Y-78099228D01*
X178535800Y-78099228D02*
X178497704Y-78042085D01*
X178497704Y-78042085D02*
X178497704Y-77984942D01*
X178497704Y-77984942D02*
X178535800Y-77927800D01*
X178535800Y-77927800D02*
X178573895Y-77899228D01*
X178573895Y-77899228D02*
X178650085Y-77870657D01*
X178650085Y-77870657D02*
X178802466Y-77842085D01*
X178802466Y-77842085D02*
X178992942Y-77842085D01*
X178992942Y-77842085D02*
X179145323Y-77870657D01*
X179145323Y-77870657D02*
X179221514Y-77899228D01*
X179221514Y-77899228D02*
X179259609Y-77927800D01*
X179259609Y-77927800D02*
X179297704Y-77984942D01*
X166207095Y-52244286D02*
X165826142Y-52510953D01*
X166207095Y-52701429D02*
X165407095Y-52701429D01*
X165407095Y-52701429D02*
X165407095Y-52396667D01*
X165407095Y-52396667D02*
X165445190Y-52320477D01*
X165445190Y-52320477D02*
X165483285Y-52282382D01*
X165483285Y-52282382D02*
X165559476Y-52244286D01*
X165559476Y-52244286D02*
X165673761Y-52244286D01*
X165673761Y-52244286D02*
X165749952Y-52282382D01*
X165749952Y-52282382D02*
X165788047Y-52320477D01*
X165788047Y-52320477D02*
X165826142Y-52396667D01*
X165826142Y-52396667D02*
X165826142Y-52701429D01*
X166207095Y-51482382D02*
X166207095Y-51939525D01*
X166207095Y-51710953D02*
X165407095Y-51710953D01*
X165407095Y-51710953D02*
X165521380Y-51787144D01*
X165521380Y-51787144D02*
X165597571Y-51863334D01*
X165597571Y-51863334D02*
X165635666Y-51939525D01*
X165407095Y-50987143D02*
X165407095Y-50910953D01*
X165407095Y-50910953D02*
X165445190Y-50834762D01*
X165445190Y-50834762D02*
X165483285Y-50796667D01*
X165483285Y-50796667D02*
X165559476Y-50758572D01*
X165559476Y-50758572D02*
X165711857Y-50720477D01*
X165711857Y-50720477D02*
X165902333Y-50720477D01*
X165902333Y-50720477D02*
X166054714Y-50758572D01*
X166054714Y-50758572D02*
X166130904Y-50796667D01*
X166130904Y-50796667D02*
X166169000Y-50834762D01*
X166169000Y-50834762D02*
X166207095Y-50910953D01*
X166207095Y-50910953D02*
X166207095Y-50987143D01*
X166207095Y-50987143D02*
X166169000Y-51063334D01*
X166169000Y-51063334D02*
X166130904Y-51101429D01*
X166130904Y-51101429D02*
X166054714Y-51139524D01*
X166054714Y-51139524D02*
X165902333Y-51177620D01*
X165902333Y-51177620D02*
X165711857Y-51177620D01*
X165711857Y-51177620D02*
X165559476Y-51139524D01*
X165559476Y-51139524D02*
X165483285Y-51101429D01*
X165483285Y-51101429D02*
X165445190Y-51063334D01*
X165445190Y-51063334D02*
X165407095Y-50987143D01*
X165860000Y-49834819D02*
X165860000Y-50072914D01*
X165621905Y-49977676D02*
X165860000Y-50072914D01*
X165860000Y-50072914D02*
X166098095Y-49977676D01*
X165717143Y-50263390D02*
X165860000Y-50072914D01*
X165860000Y-50072914D02*
X166002857Y-50263390D01*
X165779599Y-53627760D02*
X165779599Y-53389665D01*
X166017694Y-53484903D02*
X165779599Y-53389665D01*
X165779599Y-53389665D02*
X165541504Y-53484903D01*
X165922456Y-53199189D02*
X165779599Y-53389665D01*
X165779599Y-53389665D02*
X165636742Y-53199189D01*
X173573895Y-76989885D02*
X173535800Y-76961313D01*
X173535800Y-76961313D02*
X173497704Y-76875599D01*
X173497704Y-76875599D02*
X173497704Y-76818456D01*
X173497704Y-76818456D02*
X173535800Y-76732742D01*
X173535800Y-76732742D02*
X173611990Y-76675599D01*
X173611990Y-76675599D02*
X173688180Y-76647028D01*
X173688180Y-76647028D02*
X173840561Y-76618456D01*
X173840561Y-76618456D02*
X173954847Y-76618456D01*
X173954847Y-76618456D02*
X174107228Y-76647028D01*
X174107228Y-76647028D02*
X174183419Y-76675599D01*
X174183419Y-76675599D02*
X174259609Y-76732742D01*
X174259609Y-76732742D02*
X174297704Y-76818456D01*
X174297704Y-76818456D02*
X174297704Y-76875599D01*
X174297704Y-76875599D02*
X174259609Y-76961313D01*
X174259609Y-76961313D02*
X174221514Y-76989885D01*
X173497704Y-77561313D02*
X173497704Y-77218456D01*
X173497704Y-77389885D02*
X174297704Y-77389885D01*
X174297704Y-77389885D02*
X174183419Y-77332742D01*
X174183419Y-77332742D02*
X174107228Y-77275599D01*
X174107228Y-77275599D02*
X174069133Y-77218456D01*
X173954847Y-77904171D02*
X173992942Y-77847028D01*
X173992942Y-77847028D02*
X174031038Y-77818457D01*
X174031038Y-77818457D02*
X174107228Y-77789885D01*
X174107228Y-77789885D02*
X174145323Y-77789885D01*
X174145323Y-77789885D02*
X174221514Y-77818457D01*
X174221514Y-77818457D02*
X174259609Y-77847028D01*
X174259609Y-77847028D02*
X174297704Y-77904171D01*
X174297704Y-77904171D02*
X174297704Y-78018457D01*
X174297704Y-78018457D02*
X174259609Y-78075600D01*
X174259609Y-78075600D02*
X174221514Y-78104171D01*
X174221514Y-78104171D02*
X174145323Y-78132742D01*
X174145323Y-78132742D02*
X174107228Y-78132742D01*
X174107228Y-78132742D02*
X174031038Y-78104171D01*
X174031038Y-78104171D02*
X173992942Y-78075600D01*
X173992942Y-78075600D02*
X173954847Y-78018457D01*
X173954847Y-78018457D02*
X173954847Y-77904171D01*
X173954847Y-77904171D02*
X173916752Y-77847028D01*
X173916752Y-77847028D02*
X173878657Y-77818457D01*
X173878657Y-77818457D02*
X173802466Y-77789885D01*
X173802466Y-77789885D02*
X173650085Y-77789885D01*
X173650085Y-77789885D02*
X173573895Y-77818457D01*
X173573895Y-77818457D02*
X173535800Y-77847028D01*
X173535800Y-77847028D02*
X173497704Y-77904171D01*
X173497704Y-77904171D02*
X173497704Y-78018457D01*
X173497704Y-78018457D02*
X173535800Y-78075600D01*
X173535800Y-78075600D02*
X173573895Y-78104171D01*
X173573895Y-78104171D02*
X173650085Y-78132742D01*
X173650085Y-78132742D02*
X173802466Y-78132742D01*
X173802466Y-78132742D02*
X173878657Y-78104171D01*
X173878657Y-78104171D02*
X173916752Y-78075600D01*
X173916752Y-78075600D02*
X173954847Y-78018457D01*
X103226666Y-103434819D02*
X102893333Y-102958628D01*
X102655238Y-103434819D02*
X102655238Y-102434819D01*
X102655238Y-102434819D02*
X103036190Y-102434819D01*
X103036190Y-102434819D02*
X103131428Y-102482438D01*
X103131428Y-102482438D02*
X103179047Y-102530057D01*
X103179047Y-102530057D02*
X103226666Y-102625295D01*
X103226666Y-102625295D02*
X103226666Y-102768152D01*
X103226666Y-102768152D02*
X103179047Y-102863390D01*
X103179047Y-102863390D02*
X103131428Y-102911009D01*
X103131428Y-102911009D02*
X103036190Y-102958628D01*
X103036190Y-102958628D02*
X102655238Y-102958628D01*
X103655238Y-102911009D02*
X103988571Y-102911009D01*
X104131428Y-103434819D02*
X103655238Y-103434819D01*
X103655238Y-103434819D02*
X103655238Y-102434819D01*
X103655238Y-102434819D02*
X104131428Y-102434819D01*
X104893333Y-102911009D02*
X104560000Y-102911009D01*
X104560000Y-103434819D02*
X104560000Y-102434819D01*
X104560000Y-102434819D02*
X105036190Y-102434819D01*
X105560000Y-102434819D02*
X105560000Y-102672914D01*
X105321905Y-102577676D02*
X105560000Y-102672914D01*
X105560000Y-102672914D02*
X105798095Y-102577676D01*
X105417143Y-102863390D02*
X105560000Y-102672914D01*
X105560000Y-102672914D02*
X105702857Y-102863390D01*
X106321905Y-102434819D02*
X106321905Y-102672914D01*
X106083810Y-102577676D02*
X106321905Y-102672914D01*
X106321905Y-102672914D02*
X106560000Y-102577676D01*
X106179048Y-102863390D02*
X106321905Y-102672914D01*
X106321905Y-102672914D02*
X106464762Y-102863390D01*
X187426666Y-61034819D02*
X187093333Y-60558628D01*
X186855238Y-61034819D02*
X186855238Y-60034819D01*
X186855238Y-60034819D02*
X187236190Y-60034819D01*
X187236190Y-60034819D02*
X187331428Y-60082438D01*
X187331428Y-60082438D02*
X187379047Y-60130057D01*
X187379047Y-60130057D02*
X187426666Y-60225295D01*
X187426666Y-60225295D02*
X187426666Y-60368152D01*
X187426666Y-60368152D02*
X187379047Y-60463390D01*
X187379047Y-60463390D02*
X187331428Y-60511009D01*
X187331428Y-60511009D02*
X187236190Y-60558628D01*
X187236190Y-60558628D02*
X186855238Y-60558628D01*
X187855238Y-60511009D02*
X188188571Y-60511009D01*
X188331428Y-61034819D02*
X187855238Y-61034819D01*
X187855238Y-61034819D02*
X187855238Y-60034819D01*
X187855238Y-60034819D02*
X188331428Y-60034819D01*
X189093333Y-60511009D02*
X188760000Y-60511009D01*
X188760000Y-61034819D02*
X188760000Y-60034819D01*
X188760000Y-60034819D02*
X189236190Y-60034819D01*
X189760000Y-60034819D02*
X189760000Y-60272914D01*
X189521905Y-60177676D02*
X189760000Y-60272914D01*
X189760000Y-60272914D02*
X189998095Y-60177676D01*
X189617143Y-60463390D02*
X189760000Y-60272914D01*
X189760000Y-60272914D02*
X189902857Y-60463390D01*
X190521905Y-60034819D02*
X190521905Y-60272914D01*
X190283810Y-60177676D02*
X190521905Y-60272914D01*
X190521905Y-60272914D02*
X190760000Y-60177676D01*
X190379048Y-60463390D02*
X190521905Y-60272914D01*
X190521905Y-60272914D02*
X190664762Y-60463390D01*
X166157095Y-47225437D02*
X165776142Y-47558770D01*
X166157095Y-47796865D02*
X165357095Y-47796865D01*
X165357095Y-47796865D02*
X165357095Y-47415913D01*
X165357095Y-47415913D02*
X165395190Y-47320675D01*
X165395190Y-47320675D02*
X165433285Y-47273056D01*
X165433285Y-47273056D02*
X165509476Y-47225437D01*
X165509476Y-47225437D02*
X165623761Y-47225437D01*
X165623761Y-47225437D02*
X165699952Y-47273056D01*
X165699952Y-47273056D02*
X165738047Y-47320675D01*
X165738047Y-47320675D02*
X165776142Y-47415913D01*
X165776142Y-47415913D02*
X165776142Y-47796865D01*
X166157095Y-46273056D02*
X166157095Y-46844484D01*
X166157095Y-46558770D02*
X165357095Y-46558770D01*
X165357095Y-46558770D02*
X165471380Y-46654008D01*
X165471380Y-46654008D02*
X165547571Y-46749246D01*
X165547571Y-46749246D02*
X165585666Y-46844484D01*
X166157095Y-45320675D02*
X166157095Y-45892103D01*
X166157095Y-45606389D02*
X165357095Y-45606389D01*
X165357095Y-45606389D02*
X165471380Y-45701627D01*
X165471380Y-45701627D02*
X165547571Y-45796865D01*
X165547571Y-45796865D02*
X165585666Y-45892103D01*
X165829600Y-48134819D02*
X165829600Y-48372914D01*
X165591505Y-48277676D02*
X165829600Y-48372914D01*
X165829600Y-48372914D02*
X166067695Y-48277676D01*
X165686743Y-48563390D02*
X165829600Y-48372914D01*
X165829600Y-48372914D02*
X165972457Y-48563390D01*
X165729599Y-45327760D02*
X165729599Y-45089665D01*
X165967694Y-45184903D02*
X165729599Y-45089665D01*
X165729599Y-45089665D02*
X165491504Y-45184903D01*
X165872456Y-44899189D02*
X165729599Y-45089665D01*
X165729599Y-45089665D02*
X165586742Y-44899189D01*
X109928095Y-70686385D02*
X109890000Y-70657813D01*
X109890000Y-70657813D02*
X109851904Y-70572099D01*
X109851904Y-70572099D02*
X109851904Y-70514956D01*
X109851904Y-70514956D02*
X109890000Y-70429242D01*
X109890000Y-70429242D02*
X109966190Y-70372099D01*
X109966190Y-70372099D02*
X110042380Y-70343528D01*
X110042380Y-70343528D02*
X110194761Y-70314956D01*
X110194761Y-70314956D02*
X110309047Y-70314956D01*
X110309047Y-70314956D02*
X110461428Y-70343528D01*
X110461428Y-70343528D02*
X110537619Y-70372099D01*
X110537619Y-70372099D02*
X110613809Y-70429242D01*
X110613809Y-70429242D02*
X110651904Y-70514956D01*
X110651904Y-70514956D02*
X110651904Y-70572099D01*
X110651904Y-70572099D02*
X110613809Y-70657813D01*
X110613809Y-70657813D02*
X110575714Y-70686385D01*
X110575714Y-70914956D02*
X110613809Y-70943528D01*
X110613809Y-70943528D02*
X110651904Y-71000671D01*
X110651904Y-71000671D02*
X110651904Y-71143528D01*
X110651904Y-71143528D02*
X110613809Y-71200671D01*
X110613809Y-71200671D02*
X110575714Y-71229242D01*
X110575714Y-71229242D02*
X110499523Y-71257813D01*
X110499523Y-71257813D02*
X110423333Y-71257813D01*
X110423333Y-71257813D02*
X110309047Y-71229242D01*
X110309047Y-71229242D02*
X109851904Y-70886385D01*
X109851904Y-70886385D02*
X109851904Y-71257813D01*
X109851904Y-71543528D02*
X109851904Y-71657814D01*
X109851904Y-71657814D02*
X109890000Y-71714957D01*
X109890000Y-71714957D02*
X109928095Y-71743528D01*
X109928095Y-71743528D02*
X110042380Y-71800671D01*
X110042380Y-71800671D02*
X110194761Y-71829242D01*
X110194761Y-71829242D02*
X110499523Y-71829242D01*
X110499523Y-71829242D02*
X110575714Y-71800671D01*
X110575714Y-71800671D02*
X110613809Y-71772100D01*
X110613809Y-71772100D02*
X110651904Y-71714957D01*
X110651904Y-71714957D02*
X110651904Y-71600671D01*
X110651904Y-71600671D02*
X110613809Y-71543528D01*
X110613809Y-71543528D02*
X110575714Y-71514957D01*
X110575714Y-71514957D02*
X110499523Y-71486385D01*
X110499523Y-71486385D02*
X110309047Y-71486385D01*
X110309047Y-71486385D02*
X110232857Y-71514957D01*
X110232857Y-71514957D02*
X110194761Y-71543528D01*
X110194761Y-71543528D02*
X110156666Y-71600671D01*
X110156666Y-71600671D02*
X110156666Y-71714957D01*
X110156666Y-71714957D02*
X110194761Y-71772100D01*
X110194761Y-71772100D02*
X110232857Y-71800671D01*
X110232857Y-71800671D02*
X110309047Y-71829242D01*
X126426104Y-50515531D02*
X126464200Y-50553627D01*
X126464200Y-50553627D02*
X126502295Y-50667912D01*
X126502295Y-50667912D02*
X126502295Y-50744103D01*
X126502295Y-50744103D02*
X126464200Y-50858389D01*
X126464200Y-50858389D02*
X126388009Y-50934579D01*
X126388009Y-50934579D02*
X126311819Y-50972674D01*
X126311819Y-50972674D02*
X126159438Y-51010770D01*
X126159438Y-51010770D02*
X126045152Y-51010770D01*
X126045152Y-51010770D02*
X125892771Y-50972674D01*
X125892771Y-50972674D02*
X125816580Y-50934579D01*
X125816580Y-50934579D02*
X125740390Y-50858389D01*
X125740390Y-50858389D02*
X125702295Y-50744103D01*
X125702295Y-50744103D02*
X125702295Y-50667912D01*
X125702295Y-50667912D02*
X125740390Y-50553627D01*
X125740390Y-50553627D02*
X125778485Y-50515531D01*
X125968961Y-49829817D02*
X126502295Y-49829817D01*
X125664200Y-50020293D02*
X126235628Y-50210770D01*
X126235628Y-50210770D02*
X126235628Y-49715531D01*
X120605180Y-56018095D02*
X119795657Y-56018095D01*
X119795657Y-56018095D02*
X119700419Y-56065714D01*
X119700419Y-56065714D02*
X119652800Y-56113333D01*
X119652800Y-56113333D02*
X119605180Y-56208571D01*
X119605180Y-56208571D02*
X119605180Y-56399047D01*
X119605180Y-56399047D02*
X119652800Y-56494285D01*
X119652800Y-56494285D02*
X119700419Y-56541904D01*
X119700419Y-56541904D02*
X119795657Y-56589523D01*
X119795657Y-56589523D02*
X120605180Y-56589523D01*
X120509942Y-57018095D02*
X120557561Y-57065714D01*
X120557561Y-57065714D02*
X120605180Y-57160952D01*
X120605180Y-57160952D02*
X120605180Y-57399047D01*
X120605180Y-57399047D02*
X120557561Y-57494285D01*
X120557561Y-57494285D02*
X120509942Y-57541904D01*
X120509942Y-57541904D02*
X120414704Y-57589523D01*
X120414704Y-57589523D02*
X120319466Y-57589523D01*
X120319466Y-57589523D02*
X120176609Y-57541904D01*
X120176609Y-57541904D02*
X119605180Y-56970476D01*
X119605180Y-56970476D02*
X119605180Y-57589523D01*
X122777800Y-59841619D02*
X122777800Y-60079714D01*
X122539705Y-59984476D02*
X122777800Y-60079714D01*
X122777800Y-60079714D02*
X123015895Y-59984476D01*
X122634943Y-60270190D02*
X122777800Y-60079714D01*
X122777800Y-60079714D02*
X122920657Y-60270190D01*
X122777799Y-60931980D02*
X122777799Y-60693885D01*
X123015894Y-60789123D02*
X122777799Y-60693885D01*
X122777799Y-60693885D02*
X122539704Y-60789123D01*
X122920656Y-60503409D02*
X122777799Y-60693885D01*
X122777799Y-60693885D02*
X122634942Y-60503409D01*
X185546104Y-47497915D02*
X185584200Y-47526487D01*
X185584200Y-47526487D02*
X185622295Y-47612201D01*
X185622295Y-47612201D02*
X185622295Y-47669344D01*
X185622295Y-47669344D02*
X185584200Y-47755058D01*
X185584200Y-47755058D02*
X185508009Y-47812201D01*
X185508009Y-47812201D02*
X185431819Y-47840772D01*
X185431819Y-47840772D02*
X185279438Y-47869344D01*
X185279438Y-47869344D02*
X185165152Y-47869344D01*
X185165152Y-47869344D02*
X185012771Y-47840772D01*
X185012771Y-47840772D02*
X184936580Y-47812201D01*
X184936580Y-47812201D02*
X184860390Y-47755058D01*
X184860390Y-47755058D02*
X184822295Y-47669344D01*
X184822295Y-47669344D02*
X184822295Y-47612201D01*
X184822295Y-47612201D02*
X184860390Y-47526487D01*
X184860390Y-47526487D02*
X184898485Y-47497915D01*
X184898485Y-47269344D02*
X184860390Y-47240772D01*
X184860390Y-47240772D02*
X184822295Y-47183630D01*
X184822295Y-47183630D02*
X184822295Y-47040772D01*
X184822295Y-47040772D02*
X184860390Y-46983630D01*
X184860390Y-46983630D02*
X184898485Y-46955058D01*
X184898485Y-46955058D02*
X184974676Y-46926487D01*
X184974676Y-46926487D02*
X185050866Y-46926487D01*
X185050866Y-46926487D02*
X185165152Y-46955058D01*
X185165152Y-46955058D02*
X185622295Y-47297915D01*
X185622295Y-47297915D02*
X185622295Y-46926487D01*
X185622295Y-46355058D02*
X185622295Y-46697915D01*
X185622295Y-46526486D02*
X184822295Y-46526486D01*
X184822295Y-46526486D02*
X184936580Y-46583629D01*
X184936580Y-46583629D02*
X185012771Y-46640772D01*
X185012771Y-46640772D02*
X185050866Y-46697915D01*
X120926666Y-86202295D02*
X120545714Y-86202295D01*
X120545714Y-86202295D02*
X120545714Y-85402295D01*
X121155237Y-85478485D02*
X121193333Y-85440390D01*
X121193333Y-85440390D02*
X121269523Y-85402295D01*
X121269523Y-85402295D02*
X121459999Y-85402295D01*
X121459999Y-85402295D02*
X121536190Y-85440390D01*
X121536190Y-85440390D02*
X121574285Y-85478485D01*
X121574285Y-85478485D02*
X121612380Y-85554676D01*
X121612380Y-85554676D02*
X121612380Y-85630866D01*
X121612380Y-85630866D02*
X121574285Y-85745152D01*
X121574285Y-85745152D02*
X121117142Y-86202295D01*
X121117142Y-86202295D02*
X121612380Y-86202295D01*
X115262295Y-65982332D02*
X114881342Y-66248999D01*
X115262295Y-66439475D02*
X114462295Y-66439475D01*
X114462295Y-66439475D02*
X114462295Y-66134713D01*
X114462295Y-66134713D02*
X114500390Y-66058523D01*
X114500390Y-66058523D02*
X114538485Y-66020428D01*
X114538485Y-66020428D02*
X114614676Y-65982332D01*
X114614676Y-65982332D02*
X114728961Y-65982332D01*
X114728961Y-65982332D02*
X114805152Y-66020428D01*
X114805152Y-66020428D02*
X114843247Y-66058523D01*
X114843247Y-66058523D02*
X114881342Y-66134713D01*
X114881342Y-66134713D02*
X114881342Y-66439475D01*
X114728961Y-65296618D02*
X115262295Y-65296618D01*
X114424200Y-65487094D02*
X114995628Y-65677571D01*
X114995628Y-65677571D02*
X114995628Y-65182332D01*
X111973895Y-70656185D02*
X111935800Y-70627613D01*
X111935800Y-70627613D02*
X111897704Y-70541899D01*
X111897704Y-70541899D02*
X111897704Y-70484756D01*
X111897704Y-70484756D02*
X111935800Y-70399042D01*
X111935800Y-70399042D02*
X112011990Y-70341899D01*
X112011990Y-70341899D02*
X112088180Y-70313328D01*
X112088180Y-70313328D02*
X112240561Y-70284756D01*
X112240561Y-70284756D02*
X112354847Y-70284756D01*
X112354847Y-70284756D02*
X112507228Y-70313328D01*
X112507228Y-70313328D02*
X112583419Y-70341899D01*
X112583419Y-70341899D02*
X112659609Y-70399042D01*
X112659609Y-70399042D02*
X112697704Y-70484756D01*
X112697704Y-70484756D02*
X112697704Y-70541899D01*
X112697704Y-70541899D02*
X112659609Y-70627613D01*
X112659609Y-70627613D02*
X112621514Y-70656185D01*
X112621514Y-70884756D02*
X112659609Y-70913328D01*
X112659609Y-70913328D02*
X112697704Y-70970471D01*
X112697704Y-70970471D02*
X112697704Y-71113328D01*
X112697704Y-71113328D02*
X112659609Y-71170471D01*
X112659609Y-71170471D02*
X112621514Y-71199042D01*
X112621514Y-71199042D02*
X112545323Y-71227613D01*
X112545323Y-71227613D02*
X112469133Y-71227613D01*
X112469133Y-71227613D02*
X112354847Y-71199042D01*
X112354847Y-71199042D02*
X111897704Y-70856185D01*
X111897704Y-70856185D02*
X111897704Y-71227613D01*
X112697704Y-71741900D02*
X112697704Y-71627614D01*
X112697704Y-71627614D02*
X112659609Y-71570471D01*
X112659609Y-71570471D02*
X112621514Y-71541900D01*
X112621514Y-71541900D02*
X112507228Y-71484757D01*
X112507228Y-71484757D02*
X112354847Y-71456185D01*
X112354847Y-71456185D02*
X112050085Y-71456185D01*
X112050085Y-71456185D02*
X111973895Y-71484757D01*
X111973895Y-71484757D02*
X111935800Y-71513328D01*
X111935800Y-71513328D02*
X111897704Y-71570471D01*
X111897704Y-71570471D02*
X111897704Y-71684757D01*
X111897704Y-71684757D02*
X111935800Y-71741900D01*
X111935800Y-71741900D02*
X111973895Y-71770471D01*
X111973895Y-71770471D02*
X112050085Y-71799042D01*
X112050085Y-71799042D02*
X112240561Y-71799042D01*
X112240561Y-71799042D02*
X112316752Y-71770471D01*
X112316752Y-71770471D02*
X112354847Y-71741900D01*
X112354847Y-71741900D02*
X112392942Y-71684757D01*
X112392942Y-71684757D02*
X112392942Y-71570471D01*
X112392942Y-71570471D02*
X112354847Y-71513328D01*
X112354847Y-71513328D02*
X112316752Y-71484757D01*
X112316752Y-71484757D02*
X112240561Y-71456185D01*
X132646104Y-68621316D02*
X132684200Y-68649888D01*
X132684200Y-68649888D02*
X132722295Y-68735602D01*
X132722295Y-68735602D02*
X132722295Y-68792745D01*
X132722295Y-68792745D02*
X132684200Y-68878459D01*
X132684200Y-68878459D02*
X132608009Y-68935602D01*
X132608009Y-68935602D02*
X132531819Y-68964173D01*
X132531819Y-68964173D02*
X132379438Y-68992745D01*
X132379438Y-68992745D02*
X132265152Y-68992745D01*
X132265152Y-68992745D02*
X132112771Y-68964173D01*
X132112771Y-68964173D02*
X132036580Y-68935602D01*
X132036580Y-68935602D02*
X131960390Y-68878459D01*
X131960390Y-68878459D02*
X131922295Y-68792745D01*
X131922295Y-68792745D02*
X131922295Y-68735602D01*
X131922295Y-68735602D02*
X131960390Y-68649888D01*
X131960390Y-68649888D02*
X131998485Y-68621316D01*
X131922295Y-68421316D02*
X131922295Y-68049888D01*
X131922295Y-68049888D02*
X132227057Y-68249888D01*
X132227057Y-68249888D02*
X132227057Y-68164173D01*
X132227057Y-68164173D02*
X132265152Y-68107031D01*
X132265152Y-68107031D02*
X132303247Y-68078459D01*
X132303247Y-68078459D02*
X132379438Y-68049888D01*
X132379438Y-68049888D02*
X132569914Y-68049888D01*
X132569914Y-68049888D02*
X132646104Y-68078459D01*
X132646104Y-68078459D02*
X132684200Y-68107031D01*
X132684200Y-68107031D02*
X132722295Y-68164173D01*
X132722295Y-68164173D02*
X132722295Y-68335602D01*
X132722295Y-68335602D02*
X132684200Y-68392745D01*
X132684200Y-68392745D02*
X132646104Y-68421316D01*
X131922295Y-67849887D02*
X131922295Y-67449887D01*
X131922295Y-67449887D02*
X132722295Y-67707030D01*
X133239818Y-72741904D02*
X134049341Y-72741904D01*
X134049341Y-72741904D02*
X134144579Y-72694285D01*
X134144579Y-72694285D02*
X134192199Y-72646666D01*
X134192199Y-72646666D02*
X134239818Y-72551428D01*
X134239818Y-72551428D02*
X134239818Y-72360952D01*
X134239818Y-72360952D02*
X134192199Y-72265714D01*
X134192199Y-72265714D02*
X134144579Y-72218095D01*
X134144579Y-72218095D02*
X134049341Y-72170476D01*
X134049341Y-72170476D02*
X133239818Y-72170476D01*
X133239818Y-71265714D02*
X133239818Y-71456190D01*
X133239818Y-71456190D02*
X133287437Y-71551428D01*
X133287437Y-71551428D02*
X133335056Y-71599047D01*
X133335056Y-71599047D02*
X133477913Y-71694285D01*
X133477913Y-71694285D02*
X133668389Y-71741904D01*
X133668389Y-71741904D02*
X134049341Y-71741904D01*
X134049341Y-71741904D02*
X134144579Y-71694285D01*
X134144579Y-71694285D02*
X134192199Y-71646666D01*
X134192199Y-71646666D02*
X134239818Y-71551428D01*
X134239818Y-71551428D02*
X134239818Y-71360952D01*
X134239818Y-71360952D02*
X134192199Y-71265714D01*
X134192199Y-71265714D02*
X134144579Y-71218095D01*
X134144579Y-71218095D02*
X134049341Y-71170476D01*
X134049341Y-71170476D02*
X133811246Y-71170476D01*
X133811246Y-71170476D02*
X133716008Y-71218095D01*
X133716008Y-71218095D02*
X133668389Y-71265714D01*
X133668389Y-71265714D02*
X133620770Y-71360952D01*
X133620770Y-71360952D02*
X133620770Y-71551428D01*
X133620770Y-71551428D02*
X133668389Y-71646666D01*
X133668389Y-71646666D02*
X133716008Y-71694285D01*
X133716008Y-71694285D02*
X133811246Y-71741904D01*
X131762295Y-57235223D02*
X132409914Y-57235223D01*
X132409914Y-57235223D02*
X132486104Y-57197128D01*
X132486104Y-57197128D02*
X132524200Y-57159033D01*
X132524200Y-57159033D02*
X132562295Y-57082842D01*
X132562295Y-57082842D02*
X132562295Y-56930461D01*
X132562295Y-56930461D02*
X132524200Y-56854271D01*
X132524200Y-56854271D02*
X132486104Y-56816176D01*
X132486104Y-56816176D02*
X132409914Y-56778080D01*
X132409914Y-56778080D02*
X131762295Y-56778080D01*
X132562295Y-55978081D02*
X132562295Y-56435224D01*
X132562295Y-56206652D02*
X131762295Y-56206652D01*
X131762295Y-56206652D02*
X131876580Y-56282843D01*
X131876580Y-56282843D02*
X131952771Y-56359033D01*
X131952771Y-56359033D02*
X131990866Y-56435224D01*
X126143019Y-59533999D02*
X126381114Y-59533999D01*
X126285876Y-59772094D02*
X126381114Y-59533999D01*
X126381114Y-59533999D02*
X126285876Y-59295904D01*
X126571590Y-59676856D02*
X126381114Y-59533999D01*
X126381114Y-59533999D02*
X126571590Y-59391142D01*
X209626095Y-53988865D02*
X209588000Y-53950769D01*
X209588000Y-53950769D02*
X209549904Y-53836484D01*
X209549904Y-53836484D02*
X209549904Y-53760293D01*
X209549904Y-53760293D02*
X209588000Y-53646007D01*
X209588000Y-53646007D02*
X209664190Y-53569817D01*
X209664190Y-53569817D02*
X209740380Y-53531722D01*
X209740380Y-53531722D02*
X209892761Y-53493626D01*
X209892761Y-53493626D02*
X210007047Y-53493626D01*
X210007047Y-53493626D02*
X210159428Y-53531722D01*
X210159428Y-53531722D02*
X210235619Y-53569817D01*
X210235619Y-53569817D02*
X210311809Y-53646007D01*
X210311809Y-53646007D02*
X210349904Y-53760293D01*
X210349904Y-53760293D02*
X210349904Y-53836484D01*
X210349904Y-53836484D02*
X210311809Y-53950769D01*
X210311809Y-53950769D02*
X210273714Y-53988865D01*
X209549904Y-54369817D02*
X209549904Y-54522198D01*
X209549904Y-54522198D02*
X209588000Y-54598388D01*
X209588000Y-54598388D02*
X209626095Y-54636484D01*
X209626095Y-54636484D02*
X209740380Y-54712674D01*
X209740380Y-54712674D02*
X209892761Y-54750769D01*
X209892761Y-54750769D02*
X210197523Y-54750769D01*
X210197523Y-54750769D02*
X210273714Y-54712674D01*
X210273714Y-54712674D02*
X210311809Y-54674579D01*
X210311809Y-54674579D02*
X210349904Y-54598388D01*
X210349904Y-54598388D02*
X210349904Y-54446007D01*
X210349904Y-54446007D02*
X210311809Y-54369817D01*
X210311809Y-54369817D02*
X210273714Y-54331722D01*
X210273714Y-54331722D02*
X210197523Y-54293626D01*
X210197523Y-54293626D02*
X210007047Y-54293626D01*
X210007047Y-54293626D02*
X209930857Y-54331722D01*
X209930857Y-54331722D02*
X209892761Y-54369817D01*
X209892761Y-54369817D02*
X209854666Y-54446007D01*
X209854666Y-54446007D02*
X209854666Y-54598388D01*
X209854666Y-54598388D02*
X209892761Y-54674579D01*
X209892761Y-54674579D02*
X209930857Y-54712674D01*
X209930857Y-54712674D02*
X210007047Y-54750769D01*
X107805180Y-60146666D02*
X107090895Y-60146666D01*
X107090895Y-60146666D02*
X106948038Y-60099047D01*
X106948038Y-60099047D02*
X106852800Y-60003809D01*
X106852800Y-60003809D02*
X106805180Y-59860952D01*
X106805180Y-59860952D02*
X106805180Y-59765714D01*
X106805180Y-61146666D02*
X106805180Y-60575238D01*
X106805180Y-60860952D02*
X107805180Y-60860952D01*
X107805180Y-60860952D02*
X107662323Y-60765714D01*
X107662323Y-60765714D02*
X107567085Y-60670476D01*
X107567085Y-60670476D02*
X107519466Y-60575238D01*
X181073895Y-77236665D02*
X181035800Y-77198569D01*
X181035800Y-77198569D02*
X180997704Y-77084284D01*
X180997704Y-77084284D02*
X180997704Y-77008093D01*
X180997704Y-77008093D02*
X181035800Y-76893807D01*
X181035800Y-76893807D02*
X181111990Y-76817617D01*
X181111990Y-76817617D02*
X181188180Y-76779522D01*
X181188180Y-76779522D02*
X181340561Y-76741426D01*
X181340561Y-76741426D02*
X181454847Y-76741426D01*
X181454847Y-76741426D02*
X181607228Y-76779522D01*
X181607228Y-76779522D02*
X181683419Y-76817617D01*
X181683419Y-76817617D02*
X181759609Y-76893807D01*
X181759609Y-76893807D02*
X181797704Y-77008093D01*
X181797704Y-77008093D02*
X181797704Y-77084284D01*
X181797704Y-77084284D02*
X181759609Y-77198569D01*
X181759609Y-77198569D02*
X181721514Y-77236665D01*
X181797704Y-77503331D02*
X181797704Y-78036665D01*
X181797704Y-78036665D02*
X180997704Y-77693807D01*
X116547132Y-85267704D02*
X116813799Y-85648657D01*
X117004275Y-85267704D02*
X117004275Y-86067704D01*
X117004275Y-86067704D02*
X116699513Y-86067704D01*
X116699513Y-86067704D02*
X116623323Y-86029609D01*
X116623323Y-86029609D02*
X116585228Y-85991514D01*
X116585228Y-85991514D02*
X116547132Y-85915323D01*
X116547132Y-85915323D02*
X116547132Y-85801038D01*
X116547132Y-85801038D02*
X116585228Y-85724847D01*
X116585228Y-85724847D02*
X116623323Y-85686752D01*
X116623323Y-85686752D02*
X116699513Y-85648657D01*
X116699513Y-85648657D02*
X117004275Y-85648657D01*
X115823323Y-86067704D02*
X116204275Y-86067704D01*
X116204275Y-86067704D02*
X116242371Y-85686752D01*
X116242371Y-85686752D02*
X116204275Y-85724847D01*
X116204275Y-85724847D02*
X116128085Y-85762942D01*
X116128085Y-85762942D02*
X115937609Y-85762942D01*
X115937609Y-85762942D02*
X115861418Y-85724847D01*
X115861418Y-85724847D02*
X115823323Y-85686752D01*
X115823323Y-85686752D02*
X115785228Y-85610561D01*
X115785228Y-85610561D02*
X115785228Y-85420085D01*
X115785228Y-85420085D02*
X115823323Y-85343895D01*
X115823323Y-85343895D02*
X115861418Y-85305800D01*
X115861418Y-85305800D02*
X115937609Y-85267704D01*
X115937609Y-85267704D02*
X116128085Y-85267704D01*
X116128085Y-85267704D02*
X116204275Y-85305800D01*
X116204275Y-85305800D02*
X116242371Y-85343895D01*
X200991009Y-50238542D02*
X200991009Y-50571875D01*
X201514819Y-50571875D02*
X200514819Y-50571875D01*
X200514819Y-50571875D02*
X200514819Y-50095685D01*
X200991009Y-49381399D02*
X201038628Y-49238542D01*
X201038628Y-49238542D02*
X201086247Y-49190923D01*
X201086247Y-49190923D02*
X201181485Y-49143304D01*
X201181485Y-49143304D02*
X201324342Y-49143304D01*
X201324342Y-49143304D02*
X201419580Y-49190923D01*
X201419580Y-49190923D02*
X201467200Y-49238542D01*
X201467200Y-49238542D02*
X201514819Y-49333780D01*
X201514819Y-49333780D02*
X201514819Y-49714732D01*
X201514819Y-49714732D02*
X200514819Y-49714732D01*
X200514819Y-49714732D02*
X200514819Y-49381399D01*
X200514819Y-49381399D02*
X200562438Y-49286161D01*
X200562438Y-49286161D02*
X200610057Y-49238542D01*
X200610057Y-49238542D02*
X200705295Y-49190923D01*
X200705295Y-49190923D02*
X200800533Y-49190923D01*
X200800533Y-49190923D02*
X200895771Y-49238542D01*
X200895771Y-49238542D02*
X200943390Y-49286161D01*
X200943390Y-49286161D02*
X200991009Y-49381399D01*
X200991009Y-49381399D02*
X200991009Y-49714732D01*
X120676104Y-50443332D02*
X120714200Y-50481428D01*
X120714200Y-50481428D02*
X120752295Y-50595713D01*
X120752295Y-50595713D02*
X120752295Y-50671904D01*
X120752295Y-50671904D02*
X120714200Y-50786190D01*
X120714200Y-50786190D02*
X120638009Y-50862380D01*
X120638009Y-50862380D02*
X120561819Y-50900475D01*
X120561819Y-50900475D02*
X120409438Y-50938571D01*
X120409438Y-50938571D02*
X120295152Y-50938571D01*
X120295152Y-50938571D02*
X120142771Y-50900475D01*
X120142771Y-50900475D02*
X120066580Y-50862380D01*
X120066580Y-50862380D02*
X119990390Y-50786190D01*
X119990390Y-50786190D02*
X119952295Y-50671904D01*
X119952295Y-50671904D02*
X119952295Y-50595713D01*
X119952295Y-50595713D02*
X119990390Y-50481428D01*
X119990390Y-50481428D02*
X120028485Y-50443332D01*
X119952295Y-49719523D02*
X119952295Y-50100475D01*
X119952295Y-50100475D02*
X120333247Y-50138571D01*
X120333247Y-50138571D02*
X120295152Y-50100475D01*
X120295152Y-50100475D02*
X120257057Y-50024285D01*
X120257057Y-50024285D02*
X120257057Y-49833809D01*
X120257057Y-49833809D02*
X120295152Y-49757618D01*
X120295152Y-49757618D02*
X120333247Y-49719523D01*
X120333247Y-49719523D02*
X120409438Y-49681428D01*
X120409438Y-49681428D02*
X120599914Y-49681428D01*
X120599914Y-49681428D02*
X120676104Y-49719523D01*
X120676104Y-49719523D02*
X120714200Y-49757618D01*
X120714200Y-49757618D02*
X120752295Y-49833809D01*
X120752295Y-49833809D02*
X120752295Y-50024285D01*
X120752295Y-50024285D02*
X120714200Y-50100475D01*
X120714200Y-50100475D02*
X120676104Y-50138571D01*
X176073895Y-77042085D02*
X176035800Y-77013513D01*
X176035800Y-77013513D02*
X175997704Y-76927799D01*
X175997704Y-76927799D02*
X175997704Y-76870656D01*
X175997704Y-76870656D02*
X176035800Y-76784942D01*
X176035800Y-76784942D02*
X176111990Y-76727799D01*
X176111990Y-76727799D02*
X176188180Y-76699228D01*
X176188180Y-76699228D02*
X176340561Y-76670656D01*
X176340561Y-76670656D02*
X176454847Y-76670656D01*
X176454847Y-76670656D02*
X176607228Y-76699228D01*
X176607228Y-76699228D02*
X176683419Y-76727799D01*
X176683419Y-76727799D02*
X176759609Y-76784942D01*
X176759609Y-76784942D02*
X176797704Y-76870656D01*
X176797704Y-76870656D02*
X176797704Y-76927799D01*
X176797704Y-76927799D02*
X176759609Y-77013513D01*
X176759609Y-77013513D02*
X176721514Y-77042085D01*
X175997704Y-77613513D02*
X175997704Y-77270656D01*
X175997704Y-77442085D02*
X176797704Y-77442085D01*
X176797704Y-77442085D02*
X176683419Y-77384942D01*
X176683419Y-77384942D02*
X176607228Y-77327799D01*
X176607228Y-77327799D02*
X176569133Y-77270656D01*
X176531038Y-78127800D02*
X175997704Y-78127800D01*
X176835800Y-77984942D02*
X176264371Y-77842085D01*
X176264371Y-77842085D02*
X176264371Y-78213514D01*
X166207095Y-56863333D02*
X165826142Y-57130000D01*
X166207095Y-57320476D02*
X165407095Y-57320476D01*
X165407095Y-57320476D02*
X165407095Y-57015714D01*
X165407095Y-57015714D02*
X165445190Y-56939524D01*
X165445190Y-56939524D02*
X165483285Y-56901429D01*
X165483285Y-56901429D02*
X165559476Y-56863333D01*
X165559476Y-56863333D02*
X165673761Y-56863333D01*
X165673761Y-56863333D02*
X165749952Y-56901429D01*
X165749952Y-56901429D02*
X165788047Y-56939524D01*
X165788047Y-56939524D02*
X165826142Y-57015714D01*
X165826142Y-57015714D02*
X165826142Y-57320476D01*
X166207095Y-56482381D02*
X166207095Y-56330000D01*
X166207095Y-56330000D02*
X166169000Y-56253810D01*
X166169000Y-56253810D02*
X166130904Y-56215714D01*
X166130904Y-56215714D02*
X166016619Y-56139524D01*
X166016619Y-56139524D02*
X165864238Y-56101429D01*
X165864238Y-56101429D02*
X165559476Y-56101429D01*
X165559476Y-56101429D02*
X165483285Y-56139524D01*
X165483285Y-56139524D02*
X165445190Y-56177619D01*
X165445190Y-56177619D02*
X165407095Y-56253810D01*
X165407095Y-56253810D02*
X165407095Y-56406191D01*
X165407095Y-56406191D02*
X165445190Y-56482381D01*
X165445190Y-56482381D02*
X165483285Y-56520476D01*
X165483285Y-56520476D02*
X165559476Y-56558572D01*
X165559476Y-56558572D02*
X165749952Y-56558572D01*
X165749952Y-56558572D02*
X165826142Y-56520476D01*
X165826142Y-56520476D02*
X165864238Y-56482381D01*
X165864238Y-56482381D02*
X165902333Y-56406191D01*
X165902333Y-56406191D02*
X165902333Y-56253810D01*
X165902333Y-56253810D02*
X165864238Y-56177619D01*
X165864238Y-56177619D02*
X165826142Y-56139524D01*
X165826142Y-56139524D02*
X165749952Y-56101429D01*
X165779599Y-58427758D02*
X165779599Y-58189663D01*
X166017694Y-58284901D02*
X165779599Y-58189663D01*
X165779599Y-58189663D02*
X165541504Y-58284901D01*
X165922456Y-57999187D02*
X165779599Y-58189663D01*
X165779599Y-58189663D02*
X165636742Y-57999187D01*
X165779600Y-54934819D02*
X165779600Y-55172914D01*
X165541505Y-55077676D02*
X165779600Y-55172914D01*
X165779600Y-55172914D02*
X166017695Y-55077676D01*
X165636743Y-55363390D02*
X165779600Y-55172914D01*
X165779600Y-55172914D02*
X165922457Y-55363390D01*
X178523895Y-71636483D02*
X178485800Y-71607911D01*
X178485800Y-71607911D02*
X178447704Y-71522197D01*
X178447704Y-71522197D02*
X178447704Y-71465054D01*
X178447704Y-71465054D02*
X178485800Y-71379340D01*
X178485800Y-71379340D02*
X178561990Y-71322197D01*
X178561990Y-71322197D02*
X178638180Y-71293626D01*
X178638180Y-71293626D02*
X178790561Y-71265054D01*
X178790561Y-71265054D02*
X178904847Y-71265054D01*
X178904847Y-71265054D02*
X179057228Y-71293626D01*
X179057228Y-71293626D02*
X179133419Y-71322197D01*
X179133419Y-71322197D02*
X179209609Y-71379340D01*
X179209609Y-71379340D02*
X179247704Y-71465054D01*
X179247704Y-71465054D02*
X179247704Y-71522197D01*
X179247704Y-71522197D02*
X179209609Y-71607911D01*
X179209609Y-71607911D02*
X179171514Y-71636483D01*
X178447704Y-72207911D02*
X178447704Y-71865054D01*
X178447704Y-72036483D02*
X179247704Y-72036483D01*
X179247704Y-72036483D02*
X179133419Y-71979340D01*
X179133419Y-71979340D02*
X179057228Y-71922197D01*
X179057228Y-71922197D02*
X179019133Y-71865054D01*
X178447704Y-72779340D02*
X178447704Y-72436483D01*
X178447704Y-72607912D02*
X179247704Y-72607912D01*
X179247704Y-72607912D02*
X179133419Y-72550769D01*
X179133419Y-72550769D02*
X179057228Y-72493626D01*
X179057228Y-72493626D02*
X179019133Y-72436483D01*
X107373895Y-70656185D02*
X107335800Y-70627613D01*
X107335800Y-70627613D02*
X107297704Y-70541899D01*
X107297704Y-70541899D02*
X107297704Y-70484756D01*
X107297704Y-70484756D02*
X107335800Y-70399042D01*
X107335800Y-70399042D02*
X107411990Y-70341899D01*
X107411990Y-70341899D02*
X107488180Y-70313328D01*
X107488180Y-70313328D02*
X107640561Y-70284756D01*
X107640561Y-70284756D02*
X107754847Y-70284756D01*
X107754847Y-70284756D02*
X107907228Y-70313328D01*
X107907228Y-70313328D02*
X107983419Y-70341899D01*
X107983419Y-70341899D02*
X108059609Y-70399042D01*
X108059609Y-70399042D02*
X108097704Y-70484756D01*
X108097704Y-70484756D02*
X108097704Y-70541899D01*
X108097704Y-70541899D02*
X108059609Y-70627613D01*
X108059609Y-70627613D02*
X108021514Y-70656185D01*
X108021514Y-70884756D02*
X108059609Y-70913328D01*
X108059609Y-70913328D02*
X108097704Y-70970471D01*
X108097704Y-70970471D02*
X108097704Y-71113328D01*
X108097704Y-71113328D02*
X108059609Y-71170471D01*
X108059609Y-71170471D02*
X108021514Y-71199042D01*
X108021514Y-71199042D02*
X107945323Y-71227613D01*
X107945323Y-71227613D02*
X107869133Y-71227613D01*
X107869133Y-71227613D02*
X107754847Y-71199042D01*
X107754847Y-71199042D02*
X107297704Y-70856185D01*
X107297704Y-70856185D02*
X107297704Y-71227613D01*
X107754847Y-71570471D02*
X107792942Y-71513328D01*
X107792942Y-71513328D02*
X107831038Y-71484757D01*
X107831038Y-71484757D02*
X107907228Y-71456185D01*
X107907228Y-71456185D02*
X107945323Y-71456185D01*
X107945323Y-71456185D02*
X108021514Y-71484757D01*
X108021514Y-71484757D02*
X108059609Y-71513328D01*
X108059609Y-71513328D02*
X108097704Y-71570471D01*
X108097704Y-71570471D02*
X108097704Y-71684757D01*
X108097704Y-71684757D02*
X108059609Y-71741900D01*
X108059609Y-71741900D02*
X108021514Y-71770471D01*
X108021514Y-71770471D02*
X107945323Y-71799042D01*
X107945323Y-71799042D02*
X107907228Y-71799042D01*
X107907228Y-71799042D02*
X107831038Y-71770471D01*
X107831038Y-71770471D02*
X107792942Y-71741900D01*
X107792942Y-71741900D02*
X107754847Y-71684757D01*
X107754847Y-71684757D02*
X107754847Y-71570471D01*
X107754847Y-71570471D02*
X107716752Y-71513328D01*
X107716752Y-71513328D02*
X107678657Y-71484757D01*
X107678657Y-71484757D02*
X107602466Y-71456185D01*
X107602466Y-71456185D02*
X107450085Y-71456185D01*
X107450085Y-71456185D02*
X107373895Y-71484757D01*
X107373895Y-71484757D02*
X107335800Y-71513328D01*
X107335800Y-71513328D02*
X107297704Y-71570471D01*
X107297704Y-71570471D02*
X107297704Y-71684757D01*
X107297704Y-71684757D02*
X107335800Y-71741900D01*
X107335800Y-71741900D02*
X107373895Y-71770471D01*
X107373895Y-71770471D02*
X107450085Y-71799042D01*
X107450085Y-71799042D02*
X107602466Y-71799042D01*
X107602466Y-71799042D02*
X107678657Y-71770471D01*
X107678657Y-71770471D02*
X107716752Y-71741900D01*
X107716752Y-71741900D02*
X107754847Y-71684757D01*
D11*
X117514976Y-65958532D02*
X117134023Y-66225199D01*
X117514976Y-66415675D02*
X116714976Y-66415675D01*
X116714976Y-66415675D02*
X116714976Y-66110913D01*
X116714976Y-66110913D02*
X116753071Y-66034723D01*
X116753071Y-66034723D02*
X116791166Y-65996628D01*
X116791166Y-65996628D02*
X116867357Y-65958532D01*
X116867357Y-65958532D02*
X116981642Y-65958532D01*
X116981642Y-65958532D02*
X117057833Y-65996628D01*
X117057833Y-65996628D02*
X117095928Y-66034723D01*
X117095928Y-66034723D02*
X117134023Y-66110913D01*
X117134023Y-66110913D02*
X117134023Y-66415675D01*
X116714976Y-65691866D02*
X116714976Y-65196628D01*
X116714976Y-65196628D02*
X117019738Y-65463294D01*
X117019738Y-65463294D02*
X117019738Y-65349009D01*
X117019738Y-65349009D02*
X117057833Y-65272818D01*
X117057833Y-65272818D02*
X117095928Y-65234723D01*
X117095928Y-65234723D02*
X117172119Y-65196628D01*
X117172119Y-65196628D02*
X117362595Y-65196628D01*
X117362595Y-65196628D02*
X117438785Y-65234723D01*
X117438785Y-65234723D02*
X117476881Y-65272818D01*
X117476881Y-65272818D02*
X117514976Y-65349009D01*
X117514976Y-65349009D02*
X117514976Y-65577580D01*
X117514976Y-65577580D02*
X117476881Y-65653771D01*
X117476881Y-65653771D02*
X117438785Y-65691866D01*
D10*
X115096104Y-78087913D02*
X115134200Y-78116485D01*
X115134200Y-78116485D02*
X115172295Y-78202199D01*
X115172295Y-78202199D02*
X115172295Y-78259342D01*
X115172295Y-78259342D02*
X115134200Y-78345056D01*
X115134200Y-78345056D02*
X115058009Y-78402199D01*
X115058009Y-78402199D02*
X114981819Y-78430770D01*
X114981819Y-78430770D02*
X114829438Y-78459342D01*
X114829438Y-78459342D02*
X114715152Y-78459342D01*
X114715152Y-78459342D02*
X114562771Y-78430770D01*
X114562771Y-78430770D02*
X114486580Y-78402199D01*
X114486580Y-78402199D02*
X114410390Y-78345056D01*
X114410390Y-78345056D02*
X114372295Y-78259342D01*
X114372295Y-78259342D02*
X114372295Y-78202199D01*
X114372295Y-78202199D02*
X114410390Y-78116485D01*
X114410390Y-78116485D02*
X114448485Y-78087913D01*
X114372295Y-77887913D02*
X114372295Y-77516485D01*
X114372295Y-77516485D02*
X114677057Y-77716485D01*
X114677057Y-77716485D02*
X114677057Y-77630770D01*
X114677057Y-77630770D02*
X114715152Y-77573628D01*
X114715152Y-77573628D02*
X114753247Y-77545056D01*
X114753247Y-77545056D02*
X114829438Y-77516485D01*
X114829438Y-77516485D02*
X115019914Y-77516485D01*
X115019914Y-77516485D02*
X115096104Y-77545056D01*
X115096104Y-77545056D02*
X115134200Y-77573628D01*
X115134200Y-77573628D02*
X115172295Y-77630770D01*
X115172295Y-77630770D02*
X115172295Y-77802199D01*
X115172295Y-77802199D02*
X115134200Y-77859342D01*
X115134200Y-77859342D02*
X115096104Y-77887913D01*
X114448485Y-77287913D02*
X114410390Y-77259341D01*
X114410390Y-77259341D02*
X114372295Y-77202199D01*
X114372295Y-77202199D02*
X114372295Y-77059341D01*
X114372295Y-77059341D02*
X114410390Y-77002199D01*
X114410390Y-77002199D02*
X114448485Y-76973627D01*
X114448485Y-76973627D02*
X114524676Y-76945056D01*
X114524676Y-76945056D02*
X114600866Y-76945056D01*
X114600866Y-76945056D02*
X114715152Y-76973627D01*
X114715152Y-76973627D02*
X115172295Y-77316484D01*
X115172295Y-77316484D02*
X115172295Y-76945056D01*
X171073895Y-76989885D02*
X171035800Y-76961313D01*
X171035800Y-76961313D02*
X170997704Y-76875599D01*
X170997704Y-76875599D02*
X170997704Y-76818456D01*
X170997704Y-76818456D02*
X171035800Y-76732742D01*
X171035800Y-76732742D02*
X171111990Y-76675599D01*
X171111990Y-76675599D02*
X171188180Y-76647028D01*
X171188180Y-76647028D02*
X171340561Y-76618456D01*
X171340561Y-76618456D02*
X171454847Y-76618456D01*
X171454847Y-76618456D02*
X171607228Y-76647028D01*
X171607228Y-76647028D02*
X171683419Y-76675599D01*
X171683419Y-76675599D02*
X171759609Y-76732742D01*
X171759609Y-76732742D02*
X171797704Y-76818456D01*
X171797704Y-76818456D02*
X171797704Y-76875599D01*
X171797704Y-76875599D02*
X171759609Y-76961313D01*
X171759609Y-76961313D02*
X171721514Y-76989885D01*
X171721514Y-77218456D02*
X171759609Y-77247028D01*
X171759609Y-77247028D02*
X171797704Y-77304171D01*
X171797704Y-77304171D02*
X171797704Y-77447028D01*
X171797704Y-77447028D02*
X171759609Y-77504171D01*
X171759609Y-77504171D02*
X171721514Y-77532742D01*
X171721514Y-77532742D02*
X171645323Y-77561313D01*
X171645323Y-77561313D02*
X171569133Y-77561313D01*
X171569133Y-77561313D02*
X171454847Y-77532742D01*
X171454847Y-77532742D02*
X170997704Y-77189885D01*
X170997704Y-77189885D02*
X170997704Y-77561313D01*
X171721514Y-77789885D02*
X171759609Y-77818457D01*
X171759609Y-77818457D02*
X171797704Y-77875600D01*
X171797704Y-77875600D02*
X171797704Y-78018457D01*
X171797704Y-78018457D02*
X171759609Y-78075600D01*
X171759609Y-78075600D02*
X171721514Y-78104171D01*
X171721514Y-78104171D02*
X171645323Y-78132742D01*
X171645323Y-78132742D02*
X171569133Y-78132742D01*
X171569133Y-78132742D02*
X171454847Y-78104171D01*
X171454847Y-78104171D02*
X170997704Y-77761314D01*
X170997704Y-77761314D02*
X170997704Y-78132742D01*
X120017885Y-74339304D02*
X119989313Y-74377400D01*
X119989313Y-74377400D02*
X119903599Y-74415495D01*
X119903599Y-74415495D02*
X119846456Y-74415495D01*
X119846456Y-74415495D02*
X119760742Y-74377400D01*
X119760742Y-74377400D02*
X119703599Y-74301209D01*
X119703599Y-74301209D02*
X119675028Y-74225019D01*
X119675028Y-74225019D02*
X119646456Y-74072638D01*
X119646456Y-74072638D02*
X119646456Y-73958352D01*
X119646456Y-73958352D02*
X119675028Y-73805971D01*
X119675028Y-73805971D02*
X119703599Y-73729780D01*
X119703599Y-73729780D02*
X119760742Y-73653590D01*
X119760742Y-73653590D02*
X119846456Y-73615495D01*
X119846456Y-73615495D02*
X119903599Y-73615495D01*
X119903599Y-73615495D02*
X119989313Y-73653590D01*
X119989313Y-73653590D02*
X120017885Y-73691685D01*
X120217885Y-73615495D02*
X120589313Y-73615495D01*
X120589313Y-73615495D02*
X120389313Y-73920257D01*
X120389313Y-73920257D02*
X120475028Y-73920257D01*
X120475028Y-73920257D02*
X120532171Y-73958352D01*
X120532171Y-73958352D02*
X120560742Y-73996447D01*
X120560742Y-73996447D02*
X120589313Y-74072638D01*
X120589313Y-74072638D02*
X120589313Y-74263114D01*
X120589313Y-74263114D02*
X120560742Y-74339304D01*
X120560742Y-74339304D02*
X120532171Y-74377400D01*
X120532171Y-74377400D02*
X120475028Y-74415495D01*
X120475028Y-74415495D02*
X120303599Y-74415495D01*
X120303599Y-74415495D02*
X120246456Y-74377400D01*
X120246456Y-74377400D02*
X120217885Y-74339304D01*
X120960742Y-73615495D02*
X121017885Y-73615495D01*
X121017885Y-73615495D02*
X121075028Y-73653590D01*
X121075028Y-73653590D02*
X121103600Y-73691685D01*
X121103600Y-73691685D02*
X121132171Y-73767876D01*
X121132171Y-73767876D02*
X121160742Y-73920257D01*
X121160742Y-73920257D02*
X121160742Y-74110733D01*
X121160742Y-74110733D02*
X121132171Y-74263114D01*
X121132171Y-74263114D02*
X121103600Y-74339304D01*
X121103600Y-74339304D02*
X121075028Y-74377400D01*
X121075028Y-74377400D02*
X121017885Y-74415495D01*
X121017885Y-74415495D02*
X120960742Y-74415495D01*
X120960742Y-74415495D02*
X120903600Y-74377400D01*
X120903600Y-74377400D02*
X120875028Y-74339304D01*
X120875028Y-74339304D02*
X120846457Y-74263114D01*
X120846457Y-74263114D02*
X120817885Y-74110733D01*
X120817885Y-74110733D02*
X120817885Y-73920257D01*
X120817885Y-73920257D02*
X120846457Y-73767876D01*
X120846457Y-73767876D02*
X120875028Y-73691685D01*
X120875028Y-73691685D02*
X120903600Y-73653590D01*
X120903600Y-73653590D02*
X120960742Y-73615495D01*
X141098992Y-58283637D02*
X141051373Y-58378875D01*
X141051373Y-58378875D02*
X141003754Y-58426494D01*
X141003754Y-58426494D02*
X140908516Y-58474113D01*
X140908516Y-58474113D02*
X140860897Y-58474113D01*
X140860897Y-58474113D02*
X140765659Y-58426494D01*
X140765659Y-58426494D02*
X140718040Y-58378875D01*
X140718040Y-58378875D02*
X140670421Y-58283637D01*
X140670421Y-58283637D02*
X140670421Y-58093161D01*
X140670421Y-58093161D02*
X140718040Y-57997923D01*
X140718040Y-57997923D02*
X140765659Y-57950304D01*
X140765659Y-57950304D02*
X140860897Y-57902685D01*
X140860897Y-57902685D02*
X140908516Y-57902685D01*
X140908516Y-57902685D02*
X141003754Y-57950304D01*
X141003754Y-57950304D02*
X141051373Y-57997923D01*
X141051373Y-57997923D02*
X141098992Y-58093161D01*
X141098992Y-58093161D02*
X141098992Y-58283637D01*
X141098992Y-58283637D02*
X141146611Y-58378875D01*
X141146611Y-58378875D02*
X141194230Y-58426494D01*
X141194230Y-58426494D02*
X141289468Y-58474113D01*
X141289468Y-58474113D02*
X141479944Y-58474113D01*
X141479944Y-58474113D02*
X141575182Y-58426494D01*
X141575182Y-58426494D02*
X141622802Y-58378875D01*
X141622802Y-58378875D02*
X141670421Y-58283637D01*
X141670421Y-58283637D02*
X141670421Y-58093161D01*
X141670421Y-58093161D02*
X141622802Y-57997923D01*
X141622802Y-57997923D02*
X141575182Y-57950304D01*
X141575182Y-57950304D02*
X141479944Y-57902685D01*
X141479944Y-57902685D02*
X141289468Y-57902685D01*
X141289468Y-57902685D02*
X141194230Y-57950304D01*
X141194230Y-57950304D02*
X141146611Y-57997923D01*
X141146611Y-57997923D02*
X141098992Y-58093161D01*
X141670421Y-57474113D02*
X140670421Y-57474113D01*
X140670421Y-57474113D02*
X141384706Y-57140780D01*
X141384706Y-57140780D02*
X140670421Y-56807447D01*
X140670421Y-56807447D02*
X141670421Y-56807447D01*
X141670421Y-56331256D02*
X140670421Y-56331256D01*
X141146611Y-56331256D02*
X141146611Y-55759828D01*
X141670421Y-55759828D02*
X140670421Y-55759828D01*
X141003754Y-55378875D02*
X141003754Y-54855066D01*
X141003754Y-54855066D02*
X141670421Y-55378875D01*
X141670421Y-55378875D02*
X141670421Y-54855066D01*
X143070421Y-56488399D02*
X143308516Y-56488399D01*
X143213278Y-56726494D02*
X143308516Y-56488399D01*
X143308516Y-56488399D02*
X143213278Y-56250304D01*
X143498992Y-56631256D02*
X143308516Y-56488399D01*
X143308516Y-56488399D02*
X143498992Y-56345542D01*
X139170421Y-56788399D02*
X139408516Y-56788399D01*
X139313278Y-57026494D02*
X139408516Y-56788399D01*
X139408516Y-56788399D02*
X139313278Y-56550304D01*
X139598992Y-56931256D02*
X139408516Y-56788399D01*
X139408516Y-56788399D02*
X139598992Y-56645542D01*
X114197704Y-56769067D02*
X114578657Y-56502400D01*
X114197704Y-56311924D02*
X114997704Y-56311924D01*
X114997704Y-56311924D02*
X114997704Y-56616686D01*
X114997704Y-56616686D02*
X114959609Y-56692876D01*
X114959609Y-56692876D02*
X114921514Y-56730971D01*
X114921514Y-56730971D02*
X114845323Y-56769067D01*
X114845323Y-56769067D02*
X114731038Y-56769067D01*
X114731038Y-56769067D02*
X114654847Y-56730971D01*
X114654847Y-56730971D02*
X114616752Y-56692876D01*
X114616752Y-56692876D02*
X114578657Y-56616686D01*
X114578657Y-56616686D02*
X114578657Y-56311924D01*
X114197704Y-57530971D02*
X114197704Y-57073828D01*
X114197704Y-57302400D02*
X114997704Y-57302400D01*
X114997704Y-57302400D02*
X114883419Y-57226209D01*
X114883419Y-57226209D02*
X114807228Y-57150019D01*
X114807228Y-57150019D02*
X114769133Y-57073828D01*
X204626095Y-53846485D02*
X204588000Y-53817913D01*
X204588000Y-53817913D02*
X204549904Y-53732199D01*
X204549904Y-53732199D02*
X204549904Y-53675056D01*
X204549904Y-53675056D02*
X204588000Y-53589342D01*
X204588000Y-53589342D02*
X204664190Y-53532199D01*
X204664190Y-53532199D02*
X204740380Y-53503628D01*
X204740380Y-53503628D02*
X204892761Y-53475056D01*
X204892761Y-53475056D02*
X205007047Y-53475056D01*
X205007047Y-53475056D02*
X205159428Y-53503628D01*
X205159428Y-53503628D02*
X205235619Y-53532199D01*
X205235619Y-53532199D02*
X205311809Y-53589342D01*
X205311809Y-53589342D02*
X205349904Y-53675056D01*
X205349904Y-53675056D02*
X205349904Y-53732199D01*
X205349904Y-53732199D02*
X205311809Y-53817913D01*
X205311809Y-53817913D02*
X205273714Y-53846485D01*
X204549904Y-54417913D02*
X204549904Y-54075056D01*
X204549904Y-54246485D02*
X205349904Y-54246485D01*
X205349904Y-54246485D02*
X205235619Y-54189342D01*
X205235619Y-54189342D02*
X205159428Y-54132199D01*
X205159428Y-54132199D02*
X205121333Y-54075056D01*
X205349904Y-54932200D02*
X205349904Y-54817914D01*
X205349904Y-54817914D02*
X205311809Y-54760771D01*
X205311809Y-54760771D02*
X205273714Y-54732200D01*
X205273714Y-54732200D02*
X205159428Y-54675057D01*
X205159428Y-54675057D02*
X205007047Y-54646485D01*
X205007047Y-54646485D02*
X204702285Y-54646485D01*
X204702285Y-54646485D02*
X204626095Y-54675057D01*
X204626095Y-54675057D02*
X204588000Y-54703628D01*
X204588000Y-54703628D02*
X204549904Y-54760771D01*
X204549904Y-54760771D02*
X204549904Y-54875057D01*
X204549904Y-54875057D02*
X204588000Y-54932200D01*
X204588000Y-54932200D02*
X204626095Y-54960771D01*
X204626095Y-54960771D02*
X204702285Y-54989342D01*
X204702285Y-54989342D02*
X204892761Y-54989342D01*
X204892761Y-54989342D02*
X204968952Y-54960771D01*
X204968952Y-54960771D02*
X205007047Y-54932200D01*
X205007047Y-54932200D02*
X205045142Y-54875057D01*
X205045142Y-54875057D02*
X205045142Y-54760771D01*
X205045142Y-54760771D02*
X205007047Y-54703628D01*
X205007047Y-54703628D02*
X204968952Y-54675057D01*
X204968952Y-54675057D02*
X204892761Y-54646485D01*
X149226666Y-68434819D02*
X149226666Y-69149104D01*
X149226666Y-69149104D02*
X149179047Y-69291961D01*
X149179047Y-69291961D02*
X149083809Y-69387200D01*
X149083809Y-69387200D02*
X148940952Y-69434819D01*
X148940952Y-69434819D02*
X148845714Y-69434819D01*
X149607619Y-68434819D02*
X150226666Y-68434819D01*
X150226666Y-68434819D02*
X149893333Y-68815771D01*
X149893333Y-68815771D02*
X150036190Y-68815771D01*
X150036190Y-68815771D02*
X150131428Y-68863390D01*
X150131428Y-68863390D02*
X150179047Y-68911009D01*
X150179047Y-68911009D02*
X150226666Y-69006247D01*
X150226666Y-69006247D02*
X150226666Y-69244342D01*
X150226666Y-69244342D02*
X150179047Y-69339580D01*
X150179047Y-69339580D02*
X150131428Y-69387200D01*
X150131428Y-69387200D02*
X150036190Y-69434819D01*
X150036190Y-69434819D02*
X149750476Y-69434819D01*
X149750476Y-69434819D02*
X149655238Y-69387200D01*
X149655238Y-69387200D02*
X149607619Y-69339580D01*
X117958695Y-72312723D02*
X118606314Y-72312723D01*
X118606314Y-72312723D02*
X118682504Y-72274628D01*
X118682504Y-72274628D02*
X118720600Y-72236533D01*
X118720600Y-72236533D02*
X118758695Y-72160342D01*
X118758695Y-72160342D02*
X118758695Y-72007961D01*
X118758695Y-72007961D02*
X118720600Y-71931771D01*
X118720600Y-71931771D02*
X118682504Y-71893676D01*
X118682504Y-71893676D02*
X118606314Y-71855580D01*
X118606314Y-71855580D02*
X117958695Y-71855580D01*
X117958695Y-71550819D02*
X117958695Y-71017485D01*
X117958695Y-71017485D02*
X118758695Y-71360343D01*
X171023895Y-71646485D02*
X170985800Y-71617913D01*
X170985800Y-71617913D02*
X170947704Y-71532199D01*
X170947704Y-71532199D02*
X170947704Y-71475056D01*
X170947704Y-71475056D02*
X170985800Y-71389342D01*
X170985800Y-71389342D02*
X171061990Y-71332199D01*
X171061990Y-71332199D02*
X171138180Y-71303628D01*
X171138180Y-71303628D02*
X171290561Y-71275056D01*
X171290561Y-71275056D02*
X171404847Y-71275056D01*
X171404847Y-71275056D02*
X171557228Y-71303628D01*
X171557228Y-71303628D02*
X171633419Y-71332199D01*
X171633419Y-71332199D02*
X171709609Y-71389342D01*
X171709609Y-71389342D02*
X171747704Y-71475056D01*
X171747704Y-71475056D02*
X171747704Y-71532199D01*
X171747704Y-71532199D02*
X171709609Y-71617913D01*
X171709609Y-71617913D02*
X171671514Y-71646485D01*
X171671514Y-71875056D02*
X171709609Y-71903628D01*
X171709609Y-71903628D02*
X171747704Y-71960771D01*
X171747704Y-71960771D02*
X171747704Y-72103628D01*
X171747704Y-72103628D02*
X171709609Y-72160771D01*
X171709609Y-72160771D02*
X171671514Y-72189342D01*
X171671514Y-72189342D02*
X171595323Y-72217913D01*
X171595323Y-72217913D02*
X171519133Y-72217913D01*
X171519133Y-72217913D02*
X171404847Y-72189342D01*
X171404847Y-72189342D02*
X170947704Y-71846485D01*
X170947704Y-71846485D02*
X170947704Y-72217913D01*
X171747704Y-72417914D02*
X171747704Y-72789342D01*
X171747704Y-72789342D02*
X171442942Y-72589342D01*
X171442942Y-72589342D02*
X171442942Y-72675057D01*
X171442942Y-72675057D02*
X171404847Y-72732200D01*
X171404847Y-72732200D02*
X171366752Y-72760771D01*
X171366752Y-72760771D02*
X171290561Y-72789342D01*
X171290561Y-72789342D02*
X171100085Y-72789342D01*
X171100085Y-72789342D02*
X171023895Y-72760771D01*
X171023895Y-72760771D02*
X170985800Y-72732200D01*
X170985800Y-72732200D02*
X170947704Y-72675057D01*
X170947704Y-72675057D02*
X170947704Y-72503628D01*
X170947704Y-72503628D02*
X170985800Y-72446485D01*
X170985800Y-72446485D02*
X171023895Y-72417914D01*
X166157095Y-62872858D02*
X165776142Y-63206191D01*
X166157095Y-63444286D02*
X165357095Y-63444286D01*
X165357095Y-63444286D02*
X165357095Y-63063334D01*
X165357095Y-63063334D02*
X165395190Y-62968096D01*
X165395190Y-62968096D02*
X165433285Y-62920477D01*
X165433285Y-62920477D02*
X165509476Y-62872858D01*
X165509476Y-62872858D02*
X165623761Y-62872858D01*
X165623761Y-62872858D02*
X165699952Y-62920477D01*
X165699952Y-62920477D02*
X165738047Y-62968096D01*
X165738047Y-62968096D02*
X165776142Y-63063334D01*
X165776142Y-63063334D02*
X165776142Y-63444286D01*
X166157095Y-61920477D02*
X166157095Y-62491905D01*
X166157095Y-62206191D02*
X165357095Y-62206191D01*
X165357095Y-62206191D02*
X165471380Y-62301429D01*
X165471380Y-62301429D02*
X165547571Y-62396667D01*
X165547571Y-62396667D02*
X165585666Y-62491905D01*
X165433285Y-61539524D02*
X165395190Y-61491905D01*
X165395190Y-61491905D02*
X165357095Y-61396667D01*
X165357095Y-61396667D02*
X165357095Y-61158572D01*
X165357095Y-61158572D02*
X165395190Y-61063334D01*
X165395190Y-61063334D02*
X165433285Y-61015715D01*
X165433285Y-61015715D02*
X165509476Y-60968096D01*
X165509476Y-60968096D02*
X165585666Y-60968096D01*
X165585666Y-60968096D02*
X165699952Y-61015715D01*
X165699952Y-61015715D02*
X166157095Y-61587143D01*
X166157095Y-61587143D02*
X166157095Y-60968096D01*
X165794800Y-63634819D02*
X165794800Y-63872914D01*
X165556705Y-63777676D02*
X165794800Y-63872914D01*
X165794800Y-63872914D02*
X166032895Y-63777676D01*
X165651943Y-64063390D02*
X165794800Y-63872914D01*
X165794800Y-63872914D02*
X165937657Y-64063390D01*
X165829599Y-60827759D02*
X165829599Y-60589664D01*
X166067694Y-60684902D02*
X165829599Y-60589664D01*
X165829599Y-60589664D02*
X165591504Y-60684902D01*
X165972456Y-60399188D02*
X165829599Y-60589664D01*
X165829599Y-60589664D02*
X165686742Y-60399188D01*
X121489104Y-70619866D02*
X121489104Y-70238914D01*
X121489104Y-70238914D02*
X122289104Y-70238914D01*
X121489104Y-71305580D02*
X121489104Y-70848437D01*
X121489104Y-71077009D02*
X122289104Y-71077009D01*
X122289104Y-71077009D02*
X122174819Y-71000818D01*
X122174819Y-71000818D02*
X122098628Y-70924628D01*
X122098628Y-70924628D02*
X122060533Y-70848437D01*
X118995180Y-65580933D02*
X119471371Y-65247600D01*
X118995180Y-65009505D02*
X119995180Y-65009505D01*
X119995180Y-65009505D02*
X119995180Y-65390457D01*
X119995180Y-65390457D02*
X119947561Y-65485695D01*
X119947561Y-65485695D02*
X119899942Y-65533314D01*
X119899942Y-65533314D02*
X119804704Y-65580933D01*
X119804704Y-65580933D02*
X119661847Y-65580933D01*
X119661847Y-65580933D02*
X119566609Y-65533314D01*
X119566609Y-65533314D02*
X119518990Y-65485695D01*
X119518990Y-65485695D02*
X119471371Y-65390457D01*
X119471371Y-65390457D02*
X119471371Y-65009505D01*
X119899942Y-65961886D02*
X119947561Y-66009505D01*
X119947561Y-66009505D02*
X119995180Y-66104743D01*
X119995180Y-66104743D02*
X119995180Y-66342838D01*
X119995180Y-66342838D02*
X119947561Y-66438076D01*
X119947561Y-66438076D02*
X119899942Y-66485695D01*
X119899942Y-66485695D02*
X119804704Y-66533314D01*
X119804704Y-66533314D02*
X119709466Y-66533314D01*
X119709466Y-66533314D02*
X119566609Y-66485695D01*
X119566609Y-66485695D02*
X118995180Y-65914267D01*
X118995180Y-65914267D02*
X118995180Y-66533314D01*
X116544132Y-80807704D02*
X116810799Y-81188657D01*
X117001275Y-80807704D02*
X117001275Y-81607704D01*
X117001275Y-81607704D02*
X116696513Y-81607704D01*
X116696513Y-81607704D02*
X116620323Y-81569609D01*
X116620323Y-81569609D02*
X116582228Y-81531514D01*
X116582228Y-81531514D02*
X116544132Y-81455323D01*
X116544132Y-81455323D02*
X116544132Y-81341038D01*
X116544132Y-81341038D02*
X116582228Y-81264847D01*
X116582228Y-81264847D02*
X116620323Y-81226752D01*
X116620323Y-81226752D02*
X116696513Y-81188657D01*
X116696513Y-81188657D02*
X117001275Y-81188657D01*
X116277466Y-81607704D02*
X115744132Y-81607704D01*
X115744132Y-81607704D02*
X116086990Y-80807704D01*
X116280467Y-83772295D02*
X116013800Y-83391342D01*
X115823324Y-83772295D02*
X115823324Y-82972295D01*
X115823324Y-82972295D02*
X116128086Y-82972295D01*
X116128086Y-82972295D02*
X116204276Y-83010390D01*
X116204276Y-83010390D02*
X116242371Y-83048485D01*
X116242371Y-83048485D02*
X116280467Y-83124676D01*
X116280467Y-83124676D02*
X116280467Y-83238961D01*
X116280467Y-83238961D02*
X116242371Y-83315152D01*
X116242371Y-83315152D02*
X116204276Y-83353247D01*
X116204276Y-83353247D02*
X116128086Y-83391342D01*
X116128086Y-83391342D02*
X115823324Y-83391342D01*
X116966181Y-82972295D02*
X116813800Y-82972295D01*
X116813800Y-82972295D02*
X116737609Y-83010390D01*
X116737609Y-83010390D02*
X116699514Y-83048485D01*
X116699514Y-83048485D02*
X116623324Y-83162771D01*
X116623324Y-83162771D02*
X116585228Y-83315152D01*
X116585228Y-83315152D02*
X116585228Y-83619914D01*
X116585228Y-83619914D02*
X116623324Y-83696104D01*
X116623324Y-83696104D02*
X116661419Y-83734200D01*
X116661419Y-83734200D02*
X116737609Y-83772295D01*
X116737609Y-83772295D02*
X116889990Y-83772295D01*
X116889990Y-83772295D02*
X116966181Y-83734200D01*
X116966181Y-83734200D02*
X117004276Y-83696104D01*
X117004276Y-83696104D02*
X117042371Y-83619914D01*
X117042371Y-83619914D02*
X117042371Y-83429438D01*
X117042371Y-83429438D02*
X117004276Y-83353247D01*
X117004276Y-83353247D02*
X116966181Y-83315152D01*
X116966181Y-83315152D02*
X116889990Y-83277057D01*
X116889990Y-83277057D02*
X116737609Y-83277057D01*
X116737609Y-83277057D02*
X116661419Y-83315152D01*
X116661419Y-83315152D02*
X116623324Y-83353247D01*
X116623324Y-83353247D02*
X116585228Y-83429438D01*
X118901085Y-88566104D02*
X118872513Y-88604200D01*
X118872513Y-88604200D02*
X118786799Y-88642295D01*
X118786799Y-88642295D02*
X118729656Y-88642295D01*
X118729656Y-88642295D02*
X118643942Y-88604200D01*
X118643942Y-88604200D02*
X118586799Y-88528009D01*
X118586799Y-88528009D02*
X118558228Y-88451819D01*
X118558228Y-88451819D02*
X118529656Y-88299438D01*
X118529656Y-88299438D02*
X118529656Y-88185152D01*
X118529656Y-88185152D02*
X118558228Y-88032771D01*
X118558228Y-88032771D02*
X118586799Y-87956580D01*
X118586799Y-87956580D02*
X118643942Y-87880390D01*
X118643942Y-87880390D02*
X118729656Y-87842295D01*
X118729656Y-87842295D02*
X118786799Y-87842295D01*
X118786799Y-87842295D02*
X118872513Y-87880390D01*
X118872513Y-87880390D02*
X118901085Y-87918485D01*
X119101085Y-87842295D02*
X119472513Y-87842295D01*
X119472513Y-87842295D02*
X119272513Y-88147057D01*
X119272513Y-88147057D02*
X119358228Y-88147057D01*
X119358228Y-88147057D02*
X119415371Y-88185152D01*
X119415371Y-88185152D02*
X119443942Y-88223247D01*
X119443942Y-88223247D02*
X119472513Y-88299438D01*
X119472513Y-88299438D02*
X119472513Y-88489914D01*
X119472513Y-88489914D02*
X119443942Y-88566104D01*
X119443942Y-88566104D02*
X119415371Y-88604200D01*
X119415371Y-88604200D02*
X119358228Y-88642295D01*
X119358228Y-88642295D02*
X119186799Y-88642295D01*
X119186799Y-88642295D02*
X119129656Y-88604200D01*
X119129656Y-88604200D02*
X119101085Y-88566104D01*
X119672514Y-87842295D02*
X120043942Y-87842295D01*
X120043942Y-87842295D02*
X119843942Y-88147057D01*
X119843942Y-88147057D02*
X119929657Y-88147057D01*
X119929657Y-88147057D02*
X119986800Y-88185152D01*
X119986800Y-88185152D02*
X120015371Y-88223247D01*
X120015371Y-88223247D02*
X120043942Y-88299438D01*
X120043942Y-88299438D02*
X120043942Y-88489914D01*
X120043942Y-88489914D02*
X120015371Y-88566104D01*
X120015371Y-88566104D02*
X119986800Y-88604200D01*
X119986800Y-88604200D02*
X119929657Y-88642295D01*
X119929657Y-88642295D02*
X119758228Y-88642295D01*
X119758228Y-88642295D02*
X119701085Y-88604200D01*
X119701085Y-88604200D02*
X119672514Y-88566104D01*
X180546104Y-47425716D02*
X180584200Y-47454288D01*
X180584200Y-47454288D02*
X180622295Y-47540002D01*
X180622295Y-47540002D02*
X180622295Y-47597145D01*
X180622295Y-47597145D02*
X180584200Y-47682859D01*
X180584200Y-47682859D02*
X180508009Y-47740002D01*
X180508009Y-47740002D02*
X180431819Y-47768573D01*
X180431819Y-47768573D02*
X180279438Y-47797145D01*
X180279438Y-47797145D02*
X180165152Y-47797145D01*
X180165152Y-47797145D02*
X180012771Y-47768573D01*
X180012771Y-47768573D02*
X179936580Y-47740002D01*
X179936580Y-47740002D02*
X179860390Y-47682859D01*
X179860390Y-47682859D02*
X179822295Y-47597145D01*
X179822295Y-47597145D02*
X179822295Y-47540002D01*
X179822295Y-47540002D02*
X179860390Y-47454288D01*
X179860390Y-47454288D02*
X179898485Y-47425716D01*
X180622295Y-46854288D02*
X180622295Y-47197145D01*
X180622295Y-47025716D02*
X179822295Y-47025716D01*
X179822295Y-47025716D02*
X179936580Y-47082859D01*
X179936580Y-47082859D02*
X180012771Y-47140002D01*
X180012771Y-47140002D02*
X180050866Y-47197145D01*
X179822295Y-46654287D02*
X179822295Y-46282859D01*
X179822295Y-46282859D02*
X180127057Y-46482859D01*
X180127057Y-46482859D02*
X180127057Y-46397144D01*
X180127057Y-46397144D02*
X180165152Y-46340002D01*
X180165152Y-46340002D02*
X180203247Y-46311430D01*
X180203247Y-46311430D02*
X180279438Y-46282859D01*
X180279438Y-46282859D02*
X180469914Y-46282859D01*
X180469914Y-46282859D02*
X180546104Y-46311430D01*
X180546104Y-46311430D02*
X180584200Y-46340002D01*
X180584200Y-46340002D02*
X180622295Y-46397144D01*
X180622295Y-46397144D02*
X180622295Y-46568573D01*
X180622295Y-46568573D02*
X180584200Y-46625716D01*
X180584200Y-46625716D02*
X180546104Y-46654287D01*
X121473895Y-65221085D02*
X121435800Y-65192513D01*
X121435800Y-65192513D02*
X121397704Y-65106799D01*
X121397704Y-65106799D02*
X121397704Y-65049656D01*
X121397704Y-65049656D02*
X121435800Y-64963942D01*
X121435800Y-64963942D02*
X121511990Y-64906799D01*
X121511990Y-64906799D02*
X121588180Y-64878228D01*
X121588180Y-64878228D02*
X121740561Y-64849656D01*
X121740561Y-64849656D02*
X121854847Y-64849656D01*
X121854847Y-64849656D02*
X122007228Y-64878228D01*
X122007228Y-64878228D02*
X122083419Y-64906799D01*
X122083419Y-64906799D02*
X122159609Y-64963942D01*
X122159609Y-64963942D02*
X122197704Y-65049656D01*
X122197704Y-65049656D02*
X122197704Y-65106799D01*
X122197704Y-65106799D02*
X122159609Y-65192513D01*
X122159609Y-65192513D02*
X122121514Y-65221085D01*
X122121514Y-65449656D02*
X122159609Y-65478228D01*
X122159609Y-65478228D02*
X122197704Y-65535371D01*
X122197704Y-65535371D02*
X122197704Y-65678228D01*
X122197704Y-65678228D02*
X122159609Y-65735371D01*
X122159609Y-65735371D02*
X122121514Y-65763942D01*
X122121514Y-65763942D02*
X122045323Y-65792513D01*
X122045323Y-65792513D02*
X121969133Y-65792513D01*
X121969133Y-65792513D02*
X121854847Y-65763942D01*
X121854847Y-65763942D02*
X121397704Y-65421085D01*
X121397704Y-65421085D02*
X121397704Y-65792513D01*
X122197704Y-66335371D02*
X122197704Y-66049657D01*
X122197704Y-66049657D02*
X121816752Y-66021085D01*
X121816752Y-66021085D02*
X121854847Y-66049657D01*
X121854847Y-66049657D02*
X121892942Y-66106800D01*
X121892942Y-66106800D02*
X121892942Y-66249657D01*
X121892942Y-66249657D02*
X121854847Y-66306800D01*
X121854847Y-66306800D02*
X121816752Y-66335371D01*
X121816752Y-66335371D02*
X121740561Y-66363942D01*
X121740561Y-66363942D02*
X121550085Y-66363942D01*
X121550085Y-66363942D02*
X121473895Y-66335371D01*
X121473895Y-66335371D02*
X121435800Y-66306800D01*
X121435800Y-66306800D02*
X121397704Y-66249657D01*
X121397704Y-66249657D02*
X121397704Y-66106800D01*
X121397704Y-66106800D02*
X121435800Y-66049657D01*
X121435800Y-66049657D02*
X121473895Y-66021085D01*
X130322295Y-72435501D02*
X130322295Y-72721215D01*
X130322295Y-72721215D02*
X129522295Y-72721215D01*
X129522295Y-72292644D02*
X129522295Y-71921216D01*
X129522295Y-71921216D02*
X129827057Y-72121216D01*
X129827057Y-72121216D02*
X129827057Y-72035501D01*
X129827057Y-72035501D02*
X129865152Y-71978359D01*
X129865152Y-71978359D02*
X129903247Y-71949787D01*
X129903247Y-71949787D02*
X129979438Y-71921216D01*
X129979438Y-71921216D02*
X130169914Y-71921216D01*
X130169914Y-71921216D02*
X130246104Y-71949787D01*
X130246104Y-71949787D02*
X130284200Y-71978359D01*
X130284200Y-71978359D02*
X130322295Y-72035501D01*
X130322295Y-72035501D02*
X130322295Y-72206930D01*
X130322295Y-72206930D02*
X130284200Y-72264073D01*
X130284200Y-72264073D02*
X130246104Y-72292644D01*
X120019395Y-83176823D02*
X120667014Y-83176823D01*
X120667014Y-83176823D02*
X120743204Y-83138728D01*
X120743204Y-83138728D02*
X120781300Y-83100633D01*
X120781300Y-83100633D02*
X120819395Y-83024442D01*
X120819395Y-83024442D02*
X120819395Y-82872061D01*
X120819395Y-82872061D02*
X120781300Y-82795871D01*
X120781300Y-82795871D02*
X120743204Y-82757776D01*
X120743204Y-82757776D02*
X120667014Y-82719680D01*
X120667014Y-82719680D02*
X120019395Y-82719680D01*
X120019395Y-81957776D02*
X120019395Y-82338728D01*
X120019395Y-82338728D02*
X120400347Y-82376824D01*
X120400347Y-82376824D02*
X120362252Y-82338728D01*
X120362252Y-82338728D02*
X120324157Y-82262538D01*
X120324157Y-82262538D02*
X120324157Y-82072062D01*
X120324157Y-82072062D02*
X120362252Y-81995871D01*
X120362252Y-81995871D02*
X120400347Y-81957776D01*
X120400347Y-81957776D02*
X120476538Y-81919681D01*
X120476538Y-81919681D02*
X120667014Y-81919681D01*
X120667014Y-81919681D02*
X120743204Y-81957776D01*
X120743204Y-81957776D02*
X120781300Y-81995871D01*
X120781300Y-81995871D02*
X120819395Y-82072062D01*
X120819395Y-82072062D02*
X120819395Y-82262538D01*
X120819395Y-82262538D02*
X120781300Y-82338728D01*
X120781300Y-82338728D02*
X120743204Y-82376824D01*
X207126095Y-53846485D02*
X207088000Y-53817913D01*
X207088000Y-53817913D02*
X207049904Y-53732199D01*
X207049904Y-53732199D02*
X207049904Y-53675056D01*
X207049904Y-53675056D02*
X207088000Y-53589342D01*
X207088000Y-53589342D02*
X207164190Y-53532199D01*
X207164190Y-53532199D02*
X207240380Y-53503628D01*
X207240380Y-53503628D02*
X207392761Y-53475056D01*
X207392761Y-53475056D02*
X207507047Y-53475056D01*
X207507047Y-53475056D02*
X207659428Y-53503628D01*
X207659428Y-53503628D02*
X207735619Y-53532199D01*
X207735619Y-53532199D02*
X207811809Y-53589342D01*
X207811809Y-53589342D02*
X207849904Y-53675056D01*
X207849904Y-53675056D02*
X207849904Y-53732199D01*
X207849904Y-53732199D02*
X207811809Y-53817913D01*
X207811809Y-53817913D02*
X207773714Y-53846485D01*
X207049904Y-54417913D02*
X207049904Y-54075056D01*
X207049904Y-54246485D02*
X207849904Y-54246485D01*
X207849904Y-54246485D02*
X207735619Y-54189342D01*
X207735619Y-54189342D02*
X207659428Y-54132199D01*
X207659428Y-54132199D02*
X207621333Y-54075056D01*
X207773714Y-54646485D02*
X207811809Y-54675057D01*
X207811809Y-54675057D02*
X207849904Y-54732200D01*
X207849904Y-54732200D02*
X207849904Y-54875057D01*
X207849904Y-54875057D02*
X207811809Y-54932200D01*
X207811809Y-54932200D02*
X207773714Y-54960771D01*
X207773714Y-54960771D02*
X207697523Y-54989342D01*
X207697523Y-54989342D02*
X207621333Y-54989342D01*
X207621333Y-54989342D02*
X207507047Y-54960771D01*
X207507047Y-54960771D02*
X207049904Y-54617914D01*
X207049904Y-54617914D02*
X207049904Y-54989342D01*
X145379580Y-53326666D02*
X145427200Y-53374285D01*
X145427200Y-53374285D02*
X145474819Y-53517142D01*
X145474819Y-53517142D02*
X145474819Y-53612380D01*
X145474819Y-53612380D02*
X145427200Y-53755237D01*
X145427200Y-53755237D02*
X145331961Y-53850475D01*
X145331961Y-53850475D02*
X145236723Y-53898094D01*
X145236723Y-53898094D02*
X145046247Y-53945713D01*
X145046247Y-53945713D02*
X144903390Y-53945713D01*
X144903390Y-53945713D02*
X144712914Y-53898094D01*
X144712914Y-53898094D02*
X144617676Y-53850475D01*
X144617676Y-53850475D02*
X144522438Y-53755237D01*
X144522438Y-53755237D02*
X144474819Y-53612380D01*
X144474819Y-53612380D02*
X144474819Y-53517142D01*
X144474819Y-53517142D02*
X144522438Y-53374285D01*
X144522438Y-53374285D02*
X144570057Y-53326666D01*
X144570057Y-52945713D02*
X144522438Y-52898094D01*
X144522438Y-52898094D02*
X144474819Y-52802856D01*
X144474819Y-52802856D02*
X144474819Y-52564761D01*
X144474819Y-52564761D02*
X144522438Y-52469523D01*
X144522438Y-52469523D02*
X144570057Y-52421904D01*
X144570057Y-52421904D02*
X144665295Y-52374285D01*
X144665295Y-52374285D02*
X144760533Y-52374285D01*
X144760533Y-52374285D02*
X144903390Y-52421904D01*
X144903390Y-52421904D02*
X145474819Y-52993332D01*
X145474819Y-52993332D02*
X145474819Y-52374285D01*
X183046104Y-47417914D02*
X183084200Y-47446486D01*
X183084200Y-47446486D02*
X183122295Y-47532200D01*
X183122295Y-47532200D02*
X183122295Y-47589343D01*
X183122295Y-47589343D02*
X183084200Y-47675057D01*
X183084200Y-47675057D02*
X183008009Y-47732200D01*
X183008009Y-47732200D02*
X182931819Y-47760771D01*
X182931819Y-47760771D02*
X182779438Y-47789343D01*
X182779438Y-47789343D02*
X182665152Y-47789343D01*
X182665152Y-47789343D02*
X182512771Y-47760771D01*
X182512771Y-47760771D02*
X182436580Y-47732200D01*
X182436580Y-47732200D02*
X182360390Y-47675057D01*
X182360390Y-47675057D02*
X182322295Y-47589343D01*
X182322295Y-47589343D02*
X182322295Y-47532200D01*
X182322295Y-47532200D02*
X182360390Y-47446486D01*
X182360390Y-47446486D02*
X182398485Y-47417914D01*
X183122295Y-46846486D02*
X183122295Y-47189343D01*
X183122295Y-47017914D02*
X182322295Y-47017914D01*
X182322295Y-47017914D02*
X182436580Y-47075057D01*
X182436580Y-47075057D02*
X182512771Y-47132200D01*
X182512771Y-47132200D02*
X182550866Y-47189343D01*
X182322295Y-46646485D02*
X182322295Y-46246485D01*
X182322295Y-46246485D02*
X183122295Y-46503628D01*
X199626095Y-53874286D02*
X199588000Y-53845714D01*
X199588000Y-53845714D02*
X199549904Y-53760000D01*
X199549904Y-53760000D02*
X199549904Y-53702857D01*
X199549904Y-53702857D02*
X199588000Y-53617143D01*
X199588000Y-53617143D02*
X199664190Y-53560000D01*
X199664190Y-53560000D02*
X199740380Y-53531429D01*
X199740380Y-53531429D02*
X199892761Y-53502857D01*
X199892761Y-53502857D02*
X200007047Y-53502857D01*
X200007047Y-53502857D02*
X200159428Y-53531429D01*
X200159428Y-53531429D02*
X200235619Y-53560000D01*
X200235619Y-53560000D02*
X200311809Y-53617143D01*
X200311809Y-53617143D02*
X200349904Y-53702857D01*
X200349904Y-53702857D02*
X200349904Y-53760000D01*
X200349904Y-53760000D02*
X200311809Y-53845714D01*
X200311809Y-53845714D02*
X200273714Y-53874286D01*
X200273714Y-54102857D02*
X200311809Y-54131429D01*
X200311809Y-54131429D02*
X200349904Y-54188572D01*
X200349904Y-54188572D02*
X200349904Y-54331429D01*
X200349904Y-54331429D02*
X200311809Y-54388572D01*
X200311809Y-54388572D02*
X200273714Y-54417143D01*
X200273714Y-54417143D02*
X200197523Y-54445714D01*
X200197523Y-54445714D02*
X200121333Y-54445714D01*
X200121333Y-54445714D02*
X200007047Y-54417143D01*
X200007047Y-54417143D02*
X199549904Y-54074286D01*
X199549904Y-54074286D02*
X199549904Y-54445714D01*
X200083238Y-54960001D02*
X199549904Y-54960001D01*
X200388000Y-54817143D02*
X199816571Y-54674286D01*
X199816571Y-54674286D02*
X199816571Y-55045715D01*
X144763895Y-57926667D02*
X144725800Y-57888571D01*
X144725800Y-57888571D02*
X144687704Y-57774286D01*
X144687704Y-57774286D02*
X144687704Y-57698095D01*
X144687704Y-57698095D02*
X144725800Y-57583809D01*
X144725800Y-57583809D02*
X144801990Y-57507619D01*
X144801990Y-57507619D02*
X144878180Y-57469524D01*
X144878180Y-57469524D02*
X145030561Y-57431428D01*
X145030561Y-57431428D02*
X145144847Y-57431428D01*
X145144847Y-57431428D02*
X145297228Y-57469524D01*
X145297228Y-57469524D02*
X145373419Y-57507619D01*
X145373419Y-57507619D02*
X145449609Y-57583809D01*
X145449609Y-57583809D02*
X145487704Y-57698095D01*
X145487704Y-57698095D02*
X145487704Y-57774286D01*
X145487704Y-57774286D02*
X145449609Y-57888571D01*
X145449609Y-57888571D02*
X145411514Y-57926667D01*
X144687704Y-58688571D02*
X144687704Y-58231428D01*
X144687704Y-58460000D02*
X145487704Y-58460000D01*
X145487704Y-58460000D02*
X145373419Y-58383809D01*
X145373419Y-58383809D02*
X145297228Y-58307619D01*
X145297228Y-58307619D02*
X145259133Y-58231428D01*
X134314819Y-78945895D02*
X133314819Y-78945895D01*
X133314819Y-78945895D02*
X133314819Y-78707800D01*
X133314819Y-78707800D02*
X133362438Y-78564943D01*
X133362438Y-78564943D02*
X133457676Y-78469705D01*
X133457676Y-78469705D02*
X133552914Y-78422086D01*
X133552914Y-78422086D02*
X133743390Y-78374467D01*
X133743390Y-78374467D02*
X133886247Y-78374467D01*
X133886247Y-78374467D02*
X134076723Y-78422086D01*
X134076723Y-78422086D02*
X134171961Y-78469705D01*
X134171961Y-78469705D02*
X134267200Y-78564943D01*
X134267200Y-78564943D02*
X134314819Y-78707800D01*
X134314819Y-78707800D02*
X134314819Y-78945895D01*
X134314819Y-77422086D02*
X134314819Y-77993514D01*
X134314819Y-77707800D02*
X133314819Y-77707800D01*
X133314819Y-77707800D02*
X133457676Y-77803038D01*
X133457676Y-77803038D02*
X133552914Y-77898276D01*
X133552914Y-77898276D02*
X133600533Y-77993514D01*
X133614819Y-75079999D02*
X133852914Y-75079999D01*
X133757676Y-75318094D02*
X133852914Y-75079999D01*
X133852914Y-75079999D02*
X133757676Y-74841904D01*
X134043390Y-75222856D02*
X133852914Y-75079999D01*
X133852914Y-75079999D02*
X134043390Y-74937142D01*
X133614819Y-81079999D02*
X133852914Y-81079999D01*
X133757676Y-81318094D02*
X133852914Y-81079999D01*
X133852914Y-81079999D02*
X133757676Y-80841904D01*
X134043390Y-81222856D02*
X133852914Y-81079999D01*
X133852914Y-81079999D02*
X134043390Y-80937142D01*
X185150695Y-51089523D02*
X185798314Y-51089523D01*
X185798314Y-51089523D02*
X185874504Y-51051428D01*
X185874504Y-51051428D02*
X185912600Y-51013333D01*
X185912600Y-51013333D02*
X185950695Y-50937142D01*
X185950695Y-50937142D02*
X185950695Y-50784761D01*
X185950695Y-50784761D02*
X185912600Y-50708571D01*
X185912600Y-50708571D02*
X185874504Y-50670476D01*
X185874504Y-50670476D02*
X185798314Y-50632380D01*
X185798314Y-50632380D02*
X185150695Y-50632380D01*
X185150695Y-50327619D02*
X185150695Y-49832381D01*
X185150695Y-49832381D02*
X185455457Y-50099047D01*
X185455457Y-50099047D02*
X185455457Y-49984762D01*
X185455457Y-49984762D02*
X185493552Y-49908571D01*
X185493552Y-49908571D02*
X185531647Y-49870476D01*
X185531647Y-49870476D02*
X185607838Y-49832381D01*
X185607838Y-49832381D02*
X185798314Y-49832381D01*
X185798314Y-49832381D02*
X185874504Y-49870476D01*
X185874504Y-49870476D02*
X185912600Y-49908571D01*
X185912600Y-49908571D02*
X185950695Y-49984762D01*
X185950695Y-49984762D02*
X185950695Y-50213333D01*
X185950695Y-50213333D02*
X185912600Y-50289524D01*
X185912600Y-50289524D02*
X185874504Y-50327619D01*
X108726666Y-45934819D02*
X108393333Y-45458628D01*
X108155238Y-45934819D02*
X108155238Y-44934819D01*
X108155238Y-44934819D02*
X108536190Y-44934819D01*
X108536190Y-44934819D02*
X108631428Y-44982438D01*
X108631428Y-44982438D02*
X108679047Y-45030057D01*
X108679047Y-45030057D02*
X108726666Y-45125295D01*
X108726666Y-45125295D02*
X108726666Y-45268152D01*
X108726666Y-45268152D02*
X108679047Y-45363390D01*
X108679047Y-45363390D02*
X108631428Y-45411009D01*
X108631428Y-45411009D02*
X108536190Y-45458628D01*
X108536190Y-45458628D02*
X108155238Y-45458628D01*
X109155238Y-45411009D02*
X109488571Y-45411009D01*
X109631428Y-45934819D02*
X109155238Y-45934819D01*
X109155238Y-45934819D02*
X109155238Y-44934819D01*
X109155238Y-44934819D02*
X109631428Y-44934819D01*
X110393333Y-45411009D02*
X110060000Y-45411009D01*
X110060000Y-45934819D02*
X110060000Y-44934819D01*
X110060000Y-44934819D02*
X110536190Y-44934819D01*
X111060000Y-44934819D02*
X111060000Y-45172914D01*
X110821905Y-45077676D02*
X111060000Y-45172914D01*
X111060000Y-45172914D02*
X111298095Y-45077676D01*
X110917143Y-45363390D02*
X111060000Y-45172914D01*
X111060000Y-45172914D02*
X111202857Y-45363390D01*
X111821905Y-44934819D02*
X111821905Y-45172914D01*
X111583810Y-45077676D02*
X111821905Y-45172914D01*
X111821905Y-45172914D02*
X112060000Y-45077676D01*
X111679048Y-45363390D02*
X111821905Y-45172914D01*
X111821905Y-45172914D02*
X111964762Y-45363390D01*
X200026666Y-60234819D02*
X199693333Y-59758628D01*
X199455238Y-60234819D02*
X199455238Y-59234819D01*
X199455238Y-59234819D02*
X199836190Y-59234819D01*
X199836190Y-59234819D02*
X199931428Y-59282438D01*
X199931428Y-59282438D02*
X199979047Y-59330057D01*
X199979047Y-59330057D02*
X200026666Y-59425295D01*
X200026666Y-59425295D02*
X200026666Y-59568152D01*
X200026666Y-59568152D02*
X199979047Y-59663390D01*
X199979047Y-59663390D02*
X199931428Y-59711009D01*
X199931428Y-59711009D02*
X199836190Y-59758628D01*
X199836190Y-59758628D02*
X199455238Y-59758628D01*
X200455238Y-59711009D02*
X200788571Y-59711009D01*
X200931428Y-60234819D02*
X200455238Y-60234819D01*
X200455238Y-60234819D02*
X200455238Y-59234819D01*
X200455238Y-59234819D02*
X200931428Y-59234819D01*
X201693333Y-59711009D02*
X201360000Y-59711009D01*
X201360000Y-60234819D02*
X201360000Y-59234819D01*
X201360000Y-59234819D02*
X201836190Y-59234819D01*
X202360000Y-59234819D02*
X202360000Y-59472914D01*
X202121905Y-59377676D02*
X202360000Y-59472914D01*
X202360000Y-59472914D02*
X202598095Y-59377676D01*
X202217143Y-59663390D02*
X202360000Y-59472914D01*
X202360000Y-59472914D02*
X202502857Y-59663390D01*
X203121905Y-59234819D02*
X203121905Y-59472914D01*
X202883810Y-59377676D02*
X203121905Y-59472914D01*
X203121905Y-59472914D02*
X203360000Y-59377676D01*
X202979048Y-59663390D02*
X203121905Y-59472914D01*
X203121905Y-59472914D02*
X203264762Y-59663390D01*
X134997294Y-68391131D02*
X134616341Y-68657798D01*
X134997294Y-68848274D02*
X134197294Y-68848274D01*
X134197294Y-68848274D02*
X134197294Y-68543512D01*
X134197294Y-68543512D02*
X134235389Y-68467322D01*
X134235389Y-68467322D02*
X134273484Y-68429227D01*
X134273484Y-68429227D02*
X134349675Y-68391131D01*
X134349675Y-68391131D02*
X134463960Y-68391131D01*
X134463960Y-68391131D02*
X134540151Y-68429227D01*
X134540151Y-68429227D02*
X134578246Y-68467322D01*
X134578246Y-68467322D02*
X134616341Y-68543512D01*
X134616341Y-68543512D02*
X134616341Y-68848274D01*
X134540151Y-67933989D02*
X134502056Y-68010179D01*
X134502056Y-68010179D02*
X134463960Y-68048274D01*
X134463960Y-68048274D02*
X134387770Y-68086370D01*
X134387770Y-68086370D02*
X134349675Y-68086370D01*
X134349675Y-68086370D02*
X134273484Y-68048274D01*
X134273484Y-68048274D02*
X134235389Y-68010179D01*
X134235389Y-68010179D02*
X134197294Y-67933989D01*
X134197294Y-67933989D02*
X134197294Y-67781608D01*
X134197294Y-67781608D02*
X134235389Y-67705417D01*
X134235389Y-67705417D02*
X134273484Y-67667322D01*
X134273484Y-67667322D02*
X134349675Y-67629227D01*
X134349675Y-67629227D02*
X134387770Y-67629227D01*
X134387770Y-67629227D02*
X134463960Y-67667322D01*
X134463960Y-67667322D02*
X134502056Y-67705417D01*
X134502056Y-67705417D02*
X134540151Y-67781608D01*
X134540151Y-67781608D02*
X134540151Y-67933989D01*
X134540151Y-67933989D02*
X134578246Y-68010179D01*
X134578246Y-68010179D02*
X134616341Y-68048274D01*
X134616341Y-68048274D02*
X134692532Y-68086370D01*
X134692532Y-68086370D02*
X134844913Y-68086370D01*
X134844913Y-68086370D02*
X134921103Y-68048274D01*
X134921103Y-68048274D02*
X134959199Y-68010179D01*
X134959199Y-68010179D02*
X134997294Y-67933989D01*
X134997294Y-67933989D02*
X134997294Y-67781608D01*
X134997294Y-67781608D02*
X134959199Y-67705417D01*
X134959199Y-67705417D02*
X134921103Y-67667322D01*
X134921103Y-67667322D02*
X134844913Y-67629227D01*
X134844913Y-67629227D02*
X134692532Y-67629227D01*
X134692532Y-67629227D02*
X134616341Y-67667322D01*
X134616341Y-67667322D02*
X134578246Y-67705417D01*
X134578246Y-67705417D02*
X134540151Y-67781608D01*
X110096104Y-78087913D02*
X110134200Y-78116485D01*
X110134200Y-78116485D02*
X110172295Y-78202199D01*
X110172295Y-78202199D02*
X110172295Y-78259342D01*
X110172295Y-78259342D02*
X110134200Y-78345056D01*
X110134200Y-78345056D02*
X110058009Y-78402199D01*
X110058009Y-78402199D02*
X109981819Y-78430770D01*
X109981819Y-78430770D02*
X109829438Y-78459342D01*
X109829438Y-78459342D02*
X109715152Y-78459342D01*
X109715152Y-78459342D02*
X109562771Y-78430770D01*
X109562771Y-78430770D02*
X109486580Y-78402199D01*
X109486580Y-78402199D02*
X109410390Y-78345056D01*
X109410390Y-78345056D02*
X109372295Y-78259342D01*
X109372295Y-78259342D02*
X109372295Y-78202199D01*
X109372295Y-78202199D02*
X109410390Y-78116485D01*
X109410390Y-78116485D02*
X109448485Y-78087913D01*
X109372295Y-77887913D02*
X109372295Y-77516485D01*
X109372295Y-77516485D02*
X109677057Y-77716485D01*
X109677057Y-77716485D02*
X109677057Y-77630770D01*
X109677057Y-77630770D02*
X109715152Y-77573628D01*
X109715152Y-77573628D02*
X109753247Y-77545056D01*
X109753247Y-77545056D02*
X109829438Y-77516485D01*
X109829438Y-77516485D02*
X110019914Y-77516485D01*
X110019914Y-77516485D02*
X110096104Y-77545056D01*
X110096104Y-77545056D02*
X110134200Y-77573628D01*
X110134200Y-77573628D02*
X110172295Y-77630770D01*
X110172295Y-77630770D02*
X110172295Y-77802199D01*
X110172295Y-77802199D02*
X110134200Y-77859342D01*
X110134200Y-77859342D02*
X110096104Y-77887913D01*
X109372295Y-76973627D02*
X109372295Y-77259341D01*
X109372295Y-77259341D02*
X109753247Y-77287913D01*
X109753247Y-77287913D02*
X109715152Y-77259341D01*
X109715152Y-77259341D02*
X109677057Y-77202199D01*
X109677057Y-77202199D02*
X109677057Y-77059341D01*
X109677057Y-77059341D02*
X109715152Y-77002199D01*
X109715152Y-77002199D02*
X109753247Y-76973627D01*
X109753247Y-76973627D02*
X109829438Y-76945056D01*
X109829438Y-76945056D02*
X110019914Y-76945056D01*
X110019914Y-76945056D02*
X110096104Y-76973627D01*
X110096104Y-76973627D02*
X110134200Y-77002199D01*
X110134200Y-77002199D02*
X110172295Y-77059341D01*
X110172295Y-77059341D02*
X110172295Y-77202199D01*
X110172295Y-77202199D02*
X110134200Y-77259341D01*
X110134200Y-77259341D02*
X110096104Y-77287913D01*
D12*
%TO.C,C36*%
X122663500Y-78976150D02*
X122663500Y-80088250D01*
X124670100Y-80088250D02*
X124670100Y-78976150D01*
X123743000Y-76662000D02*
G75*
G02*
X123590600Y-76662000I-76200J0D01*
G01*
X123590600Y-76662000D02*
G75*
G02*
X123743000Y-76662000I76200J0D01*
G01*
D13*
%TO.C,REF\u002A\u002A*%
X131230000Y-84290000D02*
X132560000Y-84290000D01*
X131230000Y-85620000D02*
X131230000Y-84290000D01*
X131230000Y-86890000D02*
X131230000Y-109810000D01*
X131230000Y-86890000D02*
X133830000Y-86890000D01*
X131230000Y-109810000D02*
X136430000Y-109810000D01*
X133830000Y-84290000D02*
X136430000Y-84290000D01*
X133830000Y-86890000D02*
X133830000Y-84290000D01*
X136430000Y-84290000D02*
X136430000Y-109810000D01*
D12*
%TO.C,C31*%
X118705350Y-91808700D02*
X119868250Y-91808700D01*
X119868250Y-89751300D02*
X118705350Y-89751300D01*
%TO.C,C38*%
X135933000Y-73115350D02*
X135933000Y-74700252D01*
X137787000Y-74700252D02*
X137787000Y-73115350D01*
%TO.C,C6*%
X116963000Y-49517549D02*
X116963000Y-51102451D01*
X118817000Y-51102451D02*
X118817000Y-49517549D01*
%TO.C,C19*%
X172806700Y-71476150D02*
X172806700Y-72588250D01*
X174813300Y-72588250D02*
X174813300Y-71476150D01*
X173886200Y-69162000D02*
G75*
G02*
X173733800Y-69162000I-76200J0D01*
G01*
X173733800Y-69162000D02*
G75*
G02*
X173886200Y-69162000I76200J0D01*
G01*
%TO.C,C3*%
X122685199Y-49561947D02*
X122685199Y-51146849D01*
X124539199Y-51146849D02*
X124539199Y-49561947D01*
%TO.C,C20*%
X201408900Y-53623950D02*
X201408900Y-54736050D01*
X203415500Y-54736050D02*
X203415500Y-53623950D01*
X202488400Y-51309800D02*
G75*
G02*
X202336000Y-51309800I-76200J0D01*
G01*
X202336000Y-51309800D02*
G75*
G02*
X202488400Y-51309800I76200J0D01*
G01*
%TO.C,C15*%
X175306700Y-71476150D02*
X175306700Y-72588250D01*
X177313300Y-72588250D02*
X177313300Y-71476150D01*
X176386200Y-69162000D02*
G75*
G02*
X176233800Y-69162000I-76200J0D01*
G01*
X176233800Y-69162000D02*
G75*
G02*
X176386200Y-69162000I76200J0D01*
G01*
%TO.C,C39*%
X135933000Y-77643151D02*
X135933000Y-79228053D01*
X137787000Y-79228053D02*
X137787000Y-77643151D01*
%TO.C,C8*%
X180306700Y-71423950D02*
X180306700Y-72536050D01*
X182313300Y-72536050D02*
X182313300Y-71423950D01*
X181386200Y-69109800D02*
G75*
G02*
X181233800Y-69109800I-76200J0D01*
G01*
X181233800Y-69109800D02*
G75*
G02*
X181386200Y-69109800I76200J0D01*
G01*
%TO.C,C27*%
X123204500Y-64998550D02*
X123204500Y-66161450D01*
X125261900Y-66161450D02*
X125261900Y-64998550D01*
%TO.C,C34*%
X111383000Y-76909748D02*
X111383000Y-78494650D01*
X113237000Y-78494650D02*
X113237000Y-76909748D01*
%TO.C,C10*%
X177856700Y-76871750D02*
X177856700Y-77983850D01*
X179863300Y-77983850D02*
X179863300Y-76871750D01*
X178936200Y-74557600D02*
G75*
G02*
X178783800Y-74557600I-76200J0D01*
G01*
X178783800Y-74557600D02*
G75*
G02*
X178936200Y-74557600I76200J0D01*
G01*
%TO.C,R10*%
X166341289Y-49596401D02*
X165348311Y-49596401D01*
X166341289Y-53863601D02*
X165348311Y-53863601D01*
%TO.C,C18*%
X172856700Y-76819550D02*
X172856700Y-77931650D01*
X174863300Y-77931650D02*
X174863300Y-76819550D01*
X173936200Y-74505400D02*
G75*
G02*
X173783800Y-74505400I-76200J0D01*
G01*
X173783800Y-74505400D02*
G75*
G02*
X173936200Y-74505400I76200J0D01*
G01*
D13*
%TO.C,REF\u002A\u002A*%
X187675000Y-63175000D02*
X187675000Y-62480000D01*
X188360000Y-63175000D02*
X187675000Y-63175000D01*
X189045000Y-61785000D02*
X192920000Y-61785000D01*
X189045000Y-61871724D02*
X189045000Y-61785000D01*
X189045000Y-63175000D02*
X189045000Y-63088276D01*
X189045000Y-63175000D02*
X192920000Y-63175000D01*
X192920000Y-62085507D02*
X192920000Y-61785000D01*
X192920000Y-63175000D02*
X192920000Y-62874493D01*
D12*
%TO.C,R11*%
X166291289Y-44596401D02*
X165298311Y-44596401D01*
X166291289Y-48863601D02*
X165298311Y-48863601D01*
%TO.C,C29*%
X108856700Y-70516050D02*
X108856700Y-71628150D01*
X110863300Y-71628150D02*
X110863300Y-70516050D01*
X109936200Y-68201900D02*
G75*
G02*
X109783800Y-68201900I-76200J0D01*
G01*
X109783800Y-68201900D02*
G75*
G02*
X109936200Y-68201900I76200J0D01*
G01*
%TO.C,C4*%
X125213000Y-49589748D02*
X125213000Y-51174650D01*
X127067000Y-51174650D02*
X127067000Y-49589748D01*
%TO.C,U2*%
X117977200Y-59358100D02*
X122142800Y-59358100D01*
X122142800Y-54201900D02*
X117977200Y-54201900D01*
%TO.C,C21*%
X184333000Y-46319750D02*
X184333000Y-47904652D01*
X186187000Y-47904652D02*
X186187000Y-46319750D01*
%TO.C,J2*%
X101360000Y-101225300D02*
X109767000Y-101225300D01*
X109767000Y-101225300D02*
X109767000Y-87534700D01*
X109817000Y-87534700D02*
X101360000Y-87534700D01*
D14*
X111941000Y-101860300D02*
G75*
G02*
X111179000Y-101860300I-381000J0D01*
G01*
X111179000Y-101860300D02*
G75*
G02*
X111941000Y-101860300I381000J0D01*
G01*
D12*
%TO.C,L2*%
X120516650Y-86970300D02*
X121603350Y-86970300D01*
X121603350Y-84709700D02*
X120516650Y-84709700D01*
X118672400Y-85840000D02*
G75*
G02*
X118520000Y-85840000I-76200J0D01*
G01*
X118520000Y-85840000D02*
G75*
G02*
X118672400Y-85840000I76200J0D01*
G01*
%TO.C,R4*%
X113972900Y-65318350D02*
X113972900Y-66379650D01*
X115827100Y-66379650D02*
X115827100Y-65318350D01*
%TO.C,C26*%
X111333000Y-70249449D02*
X111333000Y-71834351D01*
X113187000Y-71834351D02*
X113187000Y-70249449D01*
%TO.C,C37*%
X131433000Y-67443151D02*
X131433000Y-69028053D01*
X133287000Y-69028053D02*
X133287000Y-67443151D01*
D15*
%TO.C,U6*%
X132210001Y-70782800D02*
X134309999Y-70782800D01*
X133235000Y-73832802D02*
X134309999Y-73832802D01*
D12*
%TO.C,U1*%
X127742300Y-54542900D02*
X127742300Y-58708500D01*
X136657700Y-58708500D02*
X136657700Y-54542900D01*
D16*
G36*
X133660500Y-53018900D02*
G01*
X133279500Y-53018900D01*
X133279500Y-52764900D01*
X133660500Y-52764900D01*
X133660500Y-53018900D01*
G37*
D12*
%TO.C,C9*%
X208908900Y-53623950D02*
X208908900Y-54736050D01*
X210915500Y-54736050D02*
X210915500Y-53623950D01*
X209988400Y-51309800D02*
G75*
G02*
X209836000Y-51309800I-76200J0D01*
G01*
X209836000Y-51309800D02*
G75*
G02*
X209988400Y-51309800I76200J0D01*
G01*
%TO.C,J1*%
X101360000Y-67325300D02*
X109767000Y-67325300D01*
X109767000Y-53634700D02*
X101360000Y-53634700D01*
X109767000Y-67325300D02*
X109767000Y-53634700D01*
D14*
X109241000Y-65480000D02*
G75*
G02*
X108479000Y-65480000I-381000J0D01*
G01*
X108479000Y-65480000D02*
G75*
G02*
X109241000Y-65480000I381000J0D01*
G01*
D12*
%TO.C,C7*%
X180356700Y-76871750D02*
X180356700Y-77983850D01*
X182363300Y-77983850D02*
X182363300Y-76871750D01*
X181436200Y-74557600D02*
G75*
G02*
X181283800Y-74557600I-76200J0D01*
G01*
X181283800Y-74557600D02*
G75*
G02*
X181436200Y-74557600I76200J0D01*
G01*
%TO.C,R5*%
X115883150Y-86557100D02*
X116944450Y-86557100D01*
X116944450Y-84702900D02*
X115883150Y-84702900D01*
%TO.C,C5*%
X119463000Y-49517549D02*
X119463000Y-51102451D01*
X121317000Y-51102451D02*
X121317000Y-49517549D01*
%TO.C,C14*%
X175356700Y-76871750D02*
X175356700Y-77983850D01*
X177363300Y-77983850D02*
X177363300Y-76871750D01*
X176436200Y-74557600D02*
G75*
G02*
X176283800Y-74557600I-76200J0D01*
G01*
X176283800Y-74557600D02*
G75*
G02*
X176436200Y-74557600I76200J0D01*
G01*
%TO.C,R9*%
X166341289Y-54596401D02*
X165348311Y-54596401D01*
X166341289Y-58863601D02*
X165348311Y-58863601D01*
%TO.C,C11*%
X177806700Y-71476150D02*
X177806700Y-72588250D01*
X179813300Y-72588250D02*
X179813300Y-71476150D01*
X178886200Y-69162000D02*
G75*
G02*
X178733800Y-69162000I-76200J0D01*
G01*
X178733800Y-69162000D02*
G75*
G02*
X178886200Y-69162000I76200J0D01*
G01*
%TO.C,C28*%
X106733000Y-70249449D02*
X106733000Y-71834351D01*
X108587000Y-71834351D02*
X108587000Y-70249449D01*
D17*
%TO.C,R3*%
X116300000Y-66445200D02*
X116300000Y-65205200D01*
X118000000Y-66445200D02*
X118000000Y-65205200D01*
D12*
%TO.C,C32*%
X113883000Y-76909748D02*
X113883000Y-78494650D01*
X115737000Y-78494650D02*
X115737000Y-76909748D01*
%TO.C,C22*%
X170433000Y-76583149D02*
X170433000Y-78168051D01*
X172287000Y-78168051D02*
X172287000Y-76583149D01*
%TO.C,C30*%
X119847550Y-75056500D02*
X120959650Y-75056500D01*
X120959650Y-73049900D02*
X119847550Y-73049900D01*
X123350000Y-74053200D02*
G75*
G02*
X123197600Y-74053200I-76200J0D01*
G01*
X123197600Y-74053200D02*
G75*
G02*
X123350000Y-74053200I76200J0D01*
G01*
%TO.C,8MHz*%
X138883500Y-50854900D02*
X138883500Y-62513500D01*
X138883500Y-62513500D02*
X140722460Y-62513500D01*
X140722460Y-50854900D02*
X138883500Y-50854900D01*
X141997540Y-62513500D02*
X143836500Y-62513500D01*
X143836500Y-50854900D02*
X141997540Y-50854900D01*
X143836500Y-62513500D02*
X143836500Y-50854900D01*
%TO.C,R1*%
X113556700Y-56295550D02*
X113556700Y-57509250D01*
X115563300Y-57509250D02*
X115563300Y-56295550D01*
%TO.C,C16*%
X203908900Y-53676150D02*
X203908900Y-54788250D01*
X205915500Y-54788250D02*
X205915500Y-53676150D01*
X204988400Y-51362000D02*
G75*
G02*
X204836000Y-51362000I-76200J0D01*
G01*
X204836000Y-51362000D02*
G75*
G02*
X204988400Y-51362000I76200J0D01*
G01*
%TO.C,J3*%
X141508755Y-65989200D02*
X141508755Y-67533261D01*
X141508755Y-70052941D02*
X141508755Y-71323200D01*
X141508755Y-71323200D02*
X166222955Y-71323200D01*
X143590158Y-65989200D02*
X141508755Y-65989200D01*
X166222955Y-65989200D02*
X164141552Y-65989200D01*
X166222955Y-67533261D02*
X166222955Y-65989200D01*
X166222955Y-71323200D02*
X166222955Y-70052941D01*
D14*
X141254755Y-65443100D02*
G75*
G02*
X140492755Y-65443100I-381000J0D01*
G01*
X140492755Y-65443100D02*
G75*
G02*
X141254755Y-65443100I381000J0D01*
G01*
D17*
%TO.C,U7*%
X116351400Y-70976900D02*
X114751400Y-70976900D01*
X116351400Y-74106900D02*
X114751400Y-74106900D01*
D15*
X118051400Y-73741900D02*
G75*
G02*
X117851400Y-73741900I-100000J0D01*
G01*
X117851400Y-73741900D02*
G75*
G02*
X118051400Y-73741900I100000J0D01*
G01*
D12*
%TO.C,C23*%
X170383000Y-71239749D02*
X170383000Y-72824651D01*
X172237000Y-72824651D02*
X172237000Y-71239749D01*
%TO.C,R12*%
X166291289Y-60096401D02*
X165298311Y-60096401D01*
X166291289Y-64363601D02*
X165298311Y-64363601D01*
%TO.C,L1*%
X120721100Y-70209850D02*
X120721100Y-71296550D01*
X122981700Y-71296550D02*
X122981700Y-70209850D01*
X121927600Y-68289400D02*
G75*
G02*
X121775200Y-68289400I-76200J0D01*
G01*
X121775200Y-68289400D02*
G75*
G02*
X121927600Y-68289400I76200J0D01*
G01*
%TO.C,R2*%
X118446700Y-65140750D02*
X118446700Y-66354450D01*
X120453300Y-66354450D02*
X120453300Y-65140750D01*
%TO.C,R7*%
X115880150Y-82097100D02*
X116941450Y-82097100D01*
X116941450Y-80242900D02*
X115880150Y-80242900D01*
%TO.C,R6*%
X115883150Y-84337100D02*
X116944450Y-84337100D01*
X116944450Y-82482900D02*
X115883150Y-82482900D01*
%TO.C,C33*%
X118705350Y-89308700D02*
X119868250Y-89308700D01*
X119868250Y-87251300D02*
X118705350Y-87251300D01*
%TO.C,C13*%
X179256700Y-46476150D02*
X179256700Y-47588250D01*
X181263300Y-47588250D02*
X181263300Y-46476150D01*
X180336200Y-49902400D02*
G75*
G02*
X180183800Y-49902400I-76200J0D01*
G01*
X180183800Y-49902400D02*
G75*
G02*
X180336200Y-49902400I76200J0D01*
G01*
%TO.C,C25*%
X120731300Y-65025350D02*
X120731300Y-66188250D01*
X122788700Y-66188250D02*
X122788700Y-65025350D01*
%TO.C,L3*%
X129109100Y-72120051D02*
X129109100Y-72495551D01*
X130810900Y-72495551D02*
X130810900Y-72120051D01*
X130036200Y-74174701D02*
G75*
G02*
X129883800Y-74174701I-76200J0D01*
G01*
X129883800Y-74174701D02*
G75*
G02*
X130036200Y-74174701I76200J0D01*
G01*
D17*
%TO.C,U5*%
X119144800Y-78865000D02*
X119144800Y-80465000D01*
X122274800Y-78865000D02*
X122274800Y-80465000D01*
D15*
X122009800Y-77265000D02*
G75*
G02*
X121809800Y-77265000I-100000J0D01*
G01*
X121809800Y-77265000D02*
G75*
G02*
X122009800Y-77265000I100000J0D01*
G01*
D12*
%TO.C,C12*%
X206408900Y-53676150D02*
X206408900Y-54788250D01*
X208415500Y-54788250D02*
X208415500Y-53676150D01*
X207488400Y-51362000D02*
G75*
G02*
X207336000Y-51362000I-76200J0D01*
G01*
X207336000Y-51362000D02*
G75*
G02*
X207488400Y-51362000I76200J0D01*
G01*
%TO.C,C2*%
X144093000Y-52367549D02*
X144093000Y-53952451D01*
X145947000Y-53952451D02*
X145947000Y-52367549D01*
%TO.C,C17*%
X181756700Y-46476150D02*
X181756700Y-47588250D01*
X183763300Y-47588250D02*
X183763300Y-46476150D01*
X182836200Y-49902400D02*
G75*
G02*
X182683800Y-49902400I-76200J0D01*
G01*
X182683800Y-49902400D02*
G75*
G02*
X182836200Y-49902400I76200J0D01*
G01*
%TO.C,C24*%
X198985200Y-53467550D02*
X198985200Y-55052452D01*
X200839200Y-55052452D02*
X200839200Y-53467550D01*
%TO.C,C1*%
X144123000Y-57267549D02*
X144123000Y-58852451D01*
X145977000Y-58852451D02*
X145977000Y-57267549D01*
%TO.C,D1*%
X132831300Y-76658401D02*
X132831300Y-79757201D01*
X132831300Y-79757201D02*
X133146260Y-79757201D01*
X133146260Y-76658401D02*
X132831300Y-76658401D01*
X134573740Y-79757201D02*
X134888700Y-79757201D01*
X134888700Y-76658401D02*
X134573740Y-76658401D01*
X134888700Y-79757201D02*
X134888700Y-76658401D01*
%TO.C,U3*%
X170526400Y-51868000D02*
X170526400Y-52503000D01*
X170526400Y-65457000D02*
X170526400Y-66092000D01*
X170526400Y-66092000D02*
X171161400Y-66092000D01*
X171161400Y-51868000D02*
X170526400Y-51868000D01*
X184115400Y-66092000D02*
X184750400Y-66092000D01*
X184750400Y-51868000D02*
X184115400Y-51868000D01*
X184750400Y-52503000D02*
X184750400Y-51868000D01*
X184750400Y-66092000D02*
X184750400Y-65457000D01*
D13*
%TO.C,REF\u002A\u002A*%
X191800000Y-58785000D02*
X191800000Y-59085507D01*
X191800000Y-59874493D02*
X191800000Y-60175000D01*
X195675000Y-58785000D02*
X191800000Y-58785000D01*
X195675000Y-58785000D02*
X195675000Y-58871724D01*
X195675000Y-60088276D02*
X195675000Y-60175000D01*
X195675000Y-60175000D02*
X191800000Y-60175000D01*
X196360000Y-58785000D02*
X197045000Y-58785000D01*
X197045000Y-58785000D02*
X197045000Y-59480000D01*
D12*
%TO.C,R8*%
X133657099Y-67625549D02*
X133657099Y-68890049D01*
X135612899Y-68890049D02*
X135612899Y-67625549D01*
%TO.C,C35*%
X108806700Y-77146149D02*
X108806700Y-78258249D01*
X110813300Y-78258249D02*
X110813300Y-77146149D01*
X109886200Y-80572399D02*
G75*
G02*
X109733800Y-80572399I-76200J0D01*
G01*
X109733800Y-80572399D02*
G75*
G02*
X109886200Y-80572399I76200J0D01*
G01*
D13*
%TO.C,REF\u002A\u002A*%
X101730000Y-79485000D02*
X101730000Y-74345000D01*
X104390000Y-74345000D02*
X101730000Y-74345000D01*
X104390000Y-79485000D02*
X101730000Y-79485000D01*
X104390000Y-79485000D02*
X104390000Y-74345000D01*
X104390000Y-80755000D02*
X104390000Y-82085000D01*
X104390000Y-82085000D02*
X103060000Y-82085000D01*
%TD*%
%LPC*%
D18*
%TO.C,C36*%
X123666800Y-78084400D03*
X123666800Y-80980000D03*
%TD*%
D19*
%TO.C,REF\u002A\u002A*%
X132560000Y-85620000D03*
D20*
X135100000Y-85620000D03*
X132560000Y-88160000D03*
X135100000Y-88160000D03*
X132560000Y-90700000D03*
X135100000Y-90700000D03*
X132560000Y-93240000D03*
X135100000Y-93240000D03*
X132560000Y-95780000D03*
X135100000Y-95780000D03*
X132560000Y-98320000D03*
X135100000Y-98320000D03*
X132560000Y-100860000D03*
X135100000Y-100860000D03*
X132560000Y-103400000D03*
X135100000Y-103400000D03*
X132560000Y-105940000D03*
X135100000Y-105940000D03*
X132560000Y-108480000D03*
X135100000Y-108480000D03*
%TD*%
D21*
%TO.C,C31*%
X117813600Y-90780000D03*
X120760000Y-90780000D03*
%TD*%
D22*
%TO.C,C38*%
X136860000Y-72380000D03*
X136860000Y-75435602D03*
%TD*%
%TO.C,C6*%
X117890000Y-51837801D03*
X117890000Y-48782199D03*
%TD*%
D18*
%TO.C,C19*%
X173810000Y-70584400D03*
X173810000Y-73480000D03*
%TD*%
D22*
%TO.C,C3*%
X123612199Y-51882199D03*
X123612199Y-48826597D03*
%TD*%
D23*
%TO.C,FB1*%
X184560000Y-77029300D03*
X184560000Y-75530700D03*
%TD*%
D18*
%TO.C,C20*%
X202412200Y-52732200D03*
X202412200Y-55627800D03*
%TD*%
%TO.C,C15*%
X176310000Y-70584400D03*
X176310000Y-73480000D03*
%TD*%
D22*
%TO.C,C39*%
X136860000Y-79963403D03*
X136860000Y-76907801D03*
%TD*%
D18*
%TO.C,C8*%
X181310000Y-70532200D03*
X181310000Y-73427800D03*
%TD*%
D24*
%TO.C,REF\u002A\u002A*%
X212560000Y-47480000D03*
%TD*%
D25*
%TO.C,C27*%
X124233200Y-64106800D03*
X124233200Y-67053200D03*
%TD*%
D22*
%TO.C,C34*%
X112310000Y-79230000D03*
X112310000Y-76174398D03*
%TD*%
D18*
%TO.C,C10*%
X178860000Y-75980000D03*
X178860000Y-78875600D03*
%TD*%
D26*
%TO.C,R10*%
X166810000Y-53480000D03*
X166810000Y-52980001D03*
X166810000Y-52480002D03*
X166810000Y-51980001D03*
X166810000Y-51480001D03*
X166810000Y-50980000D03*
X166810000Y-50480001D03*
X166810000Y-49980002D03*
X164879600Y-49980002D03*
X164879600Y-50480001D03*
X164879600Y-50980000D03*
X164879600Y-51480001D03*
X164879600Y-51980001D03*
X164879600Y-52480002D03*
X164879600Y-52980001D03*
X164879600Y-53480000D03*
%TD*%
D18*
%TO.C,C18*%
X173860000Y-75927800D03*
X173860000Y-78823400D03*
%TD*%
D24*
%TO.C,REF\u002A\u002A*%
X104560000Y-107480000D03*
%TD*%
D27*
%TO.C,REF\u002A\u002A*%
X188360000Y-62480000D03*
D28*
X189360000Y-62480000D03*
X190360000Y-62480000D03*
X191360000Y-62480000D03*
X192360000Y-62480000D03*
%TD*%
D26*
%TO.C,R11*%
X166760000Y-48480000D03*
X166760000Y-47980001D03*
X166760000Y-47480002D03*
X166760000Y-46980001D03*
X166760000Y-46480001D03*
X166760000Y-45980000D03*
X166760000Y-45480001D03*
X166760000Y-44980002D03*
X164829600Y-44980002D03*
X164829600Y-45480001D03*
X164829600Y-45980000D03*
X164829600Y-46480001D03*
X164829600Y-46980001D03*
X164829600Y-47480002D03*
X164829600Y-47980001D03*
X164829600Y-48480000D03*
%TD*%
D18*
%TO.C,C29*%
X109860000Y-69624300D03*
X109860000Y-72519900D03*
%TD*%
D22*
%TO.C,C4*%
X126140000Y-51910000D03*
X126140000Y-48854398D03*
%TD*%
D29*
%TO.C,U2*%
X122523800Y-58685000D03*
X122523800Y-57415000D03*
X122523800Y-56145000D03*
X122523800Y-54875000D03*
X117596200Y-54875000D03*
X117596200Y-56145000D03*
X117596200Y-57415000D03*
X117596200Y-58685000D03*
%TD*%
D22*
%TO.C,C21*%
X185260000Y-48640002D03*
X185260000Y-45584400D03*
%TD*%
D30*
%TO.C,J2*%
X104379999Y-89380000D03*
X104379999Y-99380000D03*
D31*
X111560000Y-99380000D03*
X111560000Y-96880000D03*
X111560000Y-94380000D03*
X111560000Y-91880000D03*
X111560000Y-89380000D03*
%TD*%
D32*
%TO.C,L2*%
X119783650Y-85840000D03*
X122336350Y-85840000D03*
%TD*%
D33*
%TO.C,R4*%
X114900000Y-67246000D03*
X114900000Y-64452000D03*
%TD*%
D22*
%TO.C,C26*%
X112260000Y-69514099D03*
X112260000Y-72569701D03*
%TD*%
%TO.C,C37*%
X132360000Y-69763403D03*
X132360000Y-66707801D03*
%TD*%
D34*
%TO.C,U6*%
X132484999Y-71357800D03*
X132484999Y-72307801D03*
X132484999Y-73257799D03*
X135034999Y-73257799D03*
X135034999Y-72307801D03*
X135034999Y-71357800D03*
%TD*%
D35*
%TO.C,U1*%
X128390000Y-59280000D03*
X129660000Y-59280000D03*
X130930000Y-59280000D03*
X132200000Y-59280000D03*
X133470000Y-59280000D03*
X134740000Y-59280000D03*
X136010000Y-59280000D03*
X136010000Y-53971400D03*
X134740000Y-53971400D03*
X133470000Y-53971400D03*
X132200000Y-53971400D03*
X130930000Y-53971400D03*
X129660000Y-53971400D03*
X128390000Y-53971400D03*
%TD*%
D23*
%TO.C,FB4*%
X187360000Y-47041402D03*
X187360000Y-48540002D03*
%TD*%
D18*
%TO.C,C9*%
X209912200Y-52732200D03*
X209912200Y-55627800D03*
%TD*%
D30*
%TO.C,J1*%
X104379999Y-55480000D03*
X104379999Y-65480000D03*
D31*
X111560000Y-65480000D03*
X111560000Y-62980000D03*
X111560000Y-60480000D03*
X111560000Y-57980000D03*
X111560000Y-55480000D03*
%TD*%
D18*
%TO.C,C7*%
X181360000Y-75980000D03*
X181360000Y-78875600D03*
%TD*%
D36*
%TO.C,R5*%
X117810800Y-85630000D03*
X115016800Y-85630000D03*
%TD*%
D23*
%TO.C,FB*%
X199560000Y-49181400D03*
X199560000Y-50680000D03*
%TD*%
D22*
%TO.C,C5*%
X120390000Y-51837801D03*
X120390000Y-48782199D03*
%TD*%
D18*
%TO.C,C14*%
X176360000Y-75980000D03*
X176360000Y-78875600D03*
%TD*%
D26*
%TO.C,R9*%
X166810000Y-58480000D03*
X166810000Y-57980001D03*
X166810000Y-57480002D03*
X166810000Y-56980001D03*
X166810000Y-56480001D03*
X166810000Y-55980000D03*
X166810000Y-55480001D03*
X166810000Y-54980002D03*
X164879600Y-54980002D03*
X164879600Y-55480001D03*
X164879600Y-55980000D03*
X164879600Y-56480001D03*
X164879600Y-56980001D03*
X164879600Y-57480002D03*
X164879600Y-57980001D03*
X164879600Y-58480000D03*
%TD*%
D18*
%TO.C,C11*%
X178810000Y-70584400D03*
X178810000Y-73480000D03*
%TD*%
D22*
%TO.C,C28*%
X107660000Y-69514099D03*
X107660000Y-72569701D03*
%TD*%
D37*
%TO.C,R3*%
X117150000Y-67285200D03*
X117150000Y-64365200D03*
%TD*%
D22*
%TO.C,C32*%
X114810000Y-79230000D03*
X114810000Y-76174398D03*
%TD*%
%TO.C,C22*%
X171360000Y-75847799D03*
X171360000Y-78903401D03*
%TD*%
D38*
%TO.C,C30*%
X121851400Y-74053200D03*
X118955800Y-74053200D03*
%TD*%
D39*
%TO.C,8MHz*%
X141360000Y-61180000D03*
X141360000Y-52188400D03*
%TD*%
D40*
%TO.C,R1*%
X114560000Y-55480000D03*
X114560000Y-58324800D03*
%TD*%
D18*
%TO.C,C16*%
X204912200Y-52784400D03*
X204912200Y-55680000D03*
%TD*%
D41*
%TO.C,J3*%
X144113398Y-65443100D03*
X144613524Y-65443100D03*
X145113650Y-65443100D03*
X145613776Y-65443100D03*
X146113902Y-65443100D03*
X146614028Y-65443100D03*
X147114154Y-65443100D03*
X147614280Y-65443100D03*
X148114406Y-65443100D03*
X148614532Y-65443100D03*
X149114658Y-65443100D03*
X149614784Y-65443100D03*
X150114910Y-65443100D03*
X150615036Y-65443100D03*
X151115162Y-65443100D03*
X151615288Y-65443100D03*
X152115414Y-65443100D03*
X152615540Y-65443100D03*
X153115666Y-65443100D03*
X153615792Y-65443100D03*
X154115918Y-65443100D03*
X154616044Y-65443100D03*
X155116170Y-65443100D03*
X155616296Y-65443100D03*
X156116422Y-65443100D03*
X156616548Y-65443100D03*
X157116674Y-65443100D03*
X157616800Y-65443100D03*
X158116926Y-65443100D03*
X158617052Y-65443100D03*
X159117178Y-65443100D03*
X159617304Y-65443100D03*
X160117430Y-65443100D03*
X160617556Y-65443100D03*
X161117682Y-65443100D03*
X161617808Y-65443100D03*
X162117934Y-65443100D03*
X162618060Y-65443100D03*
X163118186Y-65443100D03*
X163618312Y-65443100D03*
D42*
X141965856Y-68793101D03*
X165765854Y-68793101D03*
%TD*%
D43*
%TO.C,U7*%
X116806400Y-73491900D03*
X116806400Y-72541900D03*
X116806400Y-71591900D03*
X114296400Y-71591900D03*
X114296400Y-72541900D03*
X114296400Y-73491900D03*
%TD*%
D22*
%TO.C,C23*%
X171310000Y-70504399D03*
X171310000Y-73560001D03*
%TD*%
D26*
%TO.C,R12*%
X166760000Y-63980000D03*
X166760000Y-63480001D03*
X166760000Y-62980002D03*
X166760000Y-62480001D03*
X166760000Y-61980001D03*
X166760000Y-61480000D03*
X166760000Y-60980001D03*
X166760000Y-60480002D03*
X164829600Y-60480002D03*
X164829600Y-60980001D03*
X164829600Y-61480000D03*
X164829600Y-61980001D03*
X164829600Y-62480001D03*
X164829600Y-62980002D03*
X164829600Y-63480001D03*
X164829600Y-63980000D03*
%TD*%
D44*
%TO.C,L1*%
X121851400Y-69476850D03*
X121851400Y-72029550D03*
%TD*%
D40*
%TO.C,R2*%
X119450000Y-64325200D03*
X119450000Y-67170000D03*
%TD*%
D36*
%TO.C,R7*%
X117807800Y-81170000D03*
X115013800Y-81170000D03*
%TD*%
%TO.C,R6*%
X115016800Y-83410000D03*
X117810800Y-83410000D03*
%TD*%
D23*
%TO.C,FB2*%
X184610000Y-71979300D03*
X184610000Y-70480700D03*
%TD*%
D21*
%TO.C,C33*%
X117813600Y-88280000D03*
X120760000Y-88280000D03*
%TD*%
D24*
%TO.C,*%
X191960000Y-47580000D03*
%TD*%
D18*
%TO.C,C13*%
X180260000Y-48480000D03*
X180260000Y-45584400D03*
%TD*%
D25*
%TO.C,C25*%
X121760000Y-64133600D03*
X121760000Y-67080000D03*
%TD*%
D45*
%TO.C,L3*%
X129960000Y-73107901D03*
X129960000Y-71507701D03*
%TD*%
D46*
%TO.C,U5*%
X121659800Y-78410000D03*
X120709800Y-78410000D03*
X119759800Y-78410000D03*
X119759800Y-80920000D03*
X120709800Y-80920000D03*
X121659800Y-80920000D03*
%TD*%
D18*
%TO.C,C12*%
X207412200Y-52784400D03*
X207412200Y-55680000D03*
%TD*%
D22*
%TO.C,C2*%
X145020000Y-54687801D03*
X145020000Y-51632199D03*
%TD*%
D18*
%TO.C,C17*%
X182760000Y-48480000D03*
X182760000Y-45584400D03*
%TD*%
D22*
%TO.C,C24*%
X199912200Y-52732200D03*
X199912200Y-55787802D03*
%TD*%
%TO.C,C1*%
X145050000Y-56532199D03*
X145050000Y-59587801D03*
%TD*%
D47*
%TO.C,D1*%
X133860000Y-79884201D03*
X133860000Y-76531401D03*
%TD*%
D48*
%TO.C,U3*%
X183638400Y-51258400D03*
X183138400Y-51258400D03*
X182642200Y-51258400D03*
X182134200Y-51258400D03*
X181638400Y-51258400D03*
X181138400Y-51258400D03*
X180635600Y-51258400D03*
X180138400Y-51258400D03*
X179638400Y-51258400D03*
X179137000Y-51258400D03*
X178629000Y-51258400D03*
X178138400Y-51258400D03*
X177638400Y-51258400D03*
X177130400Y-51258400D03*
X176638400Y-51258400D03*
X176139800Y-51258400D03*
X175631800Y-51258400D03*
X175138400Y-51258400D03*
X174641200Y-51258400D03*
X174133200Y-51258400D03*
X173638400Y-51258400D03*
X173142600Y-51258400D03*
X172634600Y-51258400D03*
X172126600Y-51258400D03*
X171638400Y-51258400D03*
D49*
X169916800Y-52985600D03*
X169916800Y-53480000D03*
X169916800Y-53976200D03*
X169916800Y-54484200D03*
X169916800Y-54980000D03*
X169916800Y-55474800D03*
X169916800Y-55982800D03*
X169916800Y-56490800D03*
X169916800Y-56980000D03*
X169916800Y-57481400D03*
X169916800Y-57980000D03*
X169916800Y-58480000D03*
X169916800Y-58980000D03*
X169916800Y-59480000D03*
X169916800Y-59980000D03*
X169916800Y-60478600D03*
X169916800Y-60980000D03*
X169916800Y-61480000D03*
X169916800Y-61977200D03*
X169916800Y-62485200D03*
X169916800Y-62980000D03*
X169916800Y-63475800D03*
X169916800Y-63983800D03*
X169916800Y-64480000D03*
X169916800Y-64980000D03*
D48*
X171644000Y-66701600D03*
X172138400Y-66701600D03*
X172634600Y-66701600D03*
X173142600Y-66701600D03*
X173638400Y-66701600D03*
X174138400Y-66701600D03*
X174641200Y-66701600D03*
X175138400Y-66701600D03*
X175638400Y-66701600D03*
X176139800Y-66701600D03*
X176638400Y-66701600D03*
X177138400Y-66701600D03*
X177638400Y-66701600D03*
X178138400Y-66701600D03*
X178638400Y-66701600D03*
X179137000Y-66701600D03*
X179638400Y-66701600D03*
X180138400Y-66701600D03*
X180635600Y-66701600D03*
X181138400Y-66701600D03*
X181638400Y-66701600D03*
X182134200Y-66701600D03*
X182642200Y-66701600D03*
X183150200Y-66701600D03*
X183638400Y-66701600D03*
D49*
X185360000Y-64980000D03*
X185360000Y-64480000D03*
X185360000Y-63983800D03*
X185360000Y-63475800D03*
X185360000Y-62980000D03*
X185360000Y-62480000D03*
X185360000Y-61977200D03*
X185360000Y-61480000D03*
X185360000Y-60980000D03*
X185360000Y-60478600D03*
X185360000Y-59980000D03*
X185360000Y-59480000D03*
X185360000Y-58980000D03*
X185360000Y-58480000D03*
X185360000Y-57980000D03*
X185360000Y-57481400D03*
X185360000Y-56980000D03*
X185360000Y-56480000D03*
X185360000Y-55982800D03*
X185360000Y-55480000D03*
X185360000Y-54980000D03*
X185360000Y-54484200D03*
X185360000Y-53976200D03*
X185360000Y-53480000D03*
X185360000Y-52980000D03*
D50*
X177638400Y-58980000D03*
%TD*%
D24*
%TO.C,REF\u002A\u002A*%
X104660000Y-47580000D03*
%TD*%
D27*
%TO.C,REF\u002A\u002A*%
X196360000Y-59480000D03*
D28*
X195360000Y-59480000D03*
X194360000Y-59480000D03*
X193360000Y-59480000D03*
X192360000Y-59480000D03*
%TD*%
D51*
%TO.C,R8*%
X134634999Y-69705599D03*
X134634999Y-66809999D03*
%TD*%
D18*
%TO.C,C35*%
X109810000Y-79149999D03*
X109810000Y-76254399D03*
%TD*%
D19*
%TO.C,REF\u002A\u002A*%
X103060000Y-80755000D03*
D20*
X103060000Y-78215000D03*
X103060000Y-75675000D03*
%TD*%
%LPD*%
M02*
