M48
; DRILL file {KiCad 8.0.8} date 2025-02-15T02:41:26-0700
; FORMAT={-:-/ absolute / metric / decimal}
; #@! TF.CreationDate,2025-02-15T02:41:26-07:00
; #@! TF.GenerationSoftware,Kicad,Pcbnew,8.0.8
; #@! TF.FileFunction,Plated,1,2,PTH
FMAT,2
METRIC
; #@! TA.AperFunction,Plated,PTH,ViaDrill
T1C0.300
; #@! TA.AperFunction,Plated,PTH,ViaDrill
T2C0.500
; #@! TA.AperFunction,Plated,PTH,ComponentDrill
T3C0.500
; #@! TA.AperFunction,Plated,PTH,ViaDrill
T4C0.700
; #@! TA.AperFunction,Plated,PTH,ComponentDrill
T5C1.000
; #@! TA.AperFunction,Plated,PTH,ComponentDrill
T6C1.245
; #@! TA.AperFunction,Plated,PTH,ComponentDrill
T7C2.700
%
G90
G05
T1
X102.56Y-82.98
X102.56Y-84.98
X102.56Y-86.98
X102.76Y-69.48
X103.56Y-51.98
X103.56Y-60.48
X103.56Y-96.98
X104.56Y-70.98
X104.56Y-72.98
X104.56Y-74.98
X104.56Y-76.98
X104.56Y-82.98
X104.56Y-84.98
X104.56Y-86.98
X105.56Y-73.98
X106.06Y-51.98
X106.06Y-71.98
X106.36Y-69.68
X106.56Y-74.98
X106.56Y-76.98
X106.56Y-78.98
X106.56Y-82.98
X106.56Y-84.98
X106.56Y-86.98
X107.26Y-68.68
X107.46Y-64.28
X107.56Y-55.78
X107.56Y-73.98
X108.16Y-68.68
X108.46Y-79.18
X108.56Y-46.98
X108.56Y-49.48
X108.56Y-51.98
X108.56Y-74.98
X108.56Y-80.98
X108.56Y-82.98
X108.56Y-84.98
X108.56Y-86.98
X108.56Y-88.98
X108.56Y-90.98
X108.56Y-94.98
X108.56Y-96.98
X108.56Y-98.98
X108.56Y-100.98
X110.26Y-68.68
X110.31Y-56.73
X110.31Y-59.23
X110.31Y-61.73
X110.56Y-84.98
X110.56Y-86.98
X110.56Y-100.98
X111.06Y-46.98
X111.06Y-49.48
X111.06Y-74.98
X111.06Y-79.18
X111.56Y-80.98
X111.56Y-82.98
X111.86Y-68.58
X112.06Y-73.98
X112.56Y-53.48
X112.56Y-86.98
X112.56Y-100.98
X112.66Y-68.58
X113.56Y-46.98
X113.56Y-49.48
X113.56Y-68.58
X113.56Y-69.58
X113.56Y-74.98
X113.56Y-79.18
X113.56Y-80.98
X113.56Y-82.98
X113.56Y-84.98
X113.56Y-106.98
X114.56Y-61.48
X114.56Y-62.98
X114.56Y-88.98
X114.56Y-90.98
X114.56Y-100.98
X114.66Y-59.58
X115.06Y-53.58
X115.36Y-69.38
X115.56Y-70.48
X116.06Y-46.98
X116.06Y-49.48
X116.36Y-68.68
X116.36Y-79.18
X116.56Y-61.48
X116.56Y-62.98
X116.56Y-90.98
X116.56Y-100.98
X118.56Y-46.98
X118.56Y-61.48
X118.56Y-62.98
X118.56Y-79.48
X118.56Y-100.98
X118.86Y-72.68
X119.06Y-83.98
X119.36Y-68.58
X119.36Y-70.48
X119.46Y-76.18
X119.46Y-91.98
X120.06Y-59.48
X120.46Y-61.48
X120.56Y-62.98
X120.56Y-100.98
X121.06Y-46.98
X121.06Y-83.98
X121.96Y-87.68
X121.96Y-89.48
X122.06Y-76.98
X122.06Y-82.48
X122.26Y-62.98
X122.56Y-91.98
X122.56Y-100.98
X123.06Y-68.48
X123.26Y-60.38
X123.56Y-46.98
X123.56Y-72.98
X123.56Y-74.98
X123.56Y-83.98
X123.56Y-106.98
X124.06Y-82.48
X124.06Y-87.48
X124.56Y-57.23
X124.56Y-71.98
X124.56Y-73.98
X124.56Y-75.98
X124.56Y-89.98
X124.56Y-91.98
X124.56Y-100.98
X124.76Y-62.98
X124.82Y-93.24
X124.96Y-52.98
X125.06Y-68.48
X125.06Y-85.48
X126.06Y-46.98
X126.31Y-58.98
X126.76Y-61.68
X127.81Y-62.28
X128.56Y-46.98
X128.56Y-49.48
X128.56Y-51.48
X128.56Y-87.98
X128.56Y-89.98
X128.56Y-91.98
X128.56Y-105.18
X128.66Y-63.08
X129.06Y-80.98
X129.06Y-82.98
X129.16Y-61.38
X129.31Y-64.13
X129.56Y-67.98
X129.56Y-74.98
X129.56Y-77.98
X129.56Y-101.98
X130.06Y-51.48
X130.36Y-87.28
X130.56Y-81.98
X130.56Y-83.98
X130.56Y-89.98
X130.56Y-91.98
X130.56Y-100.48
X130.56Y-109.98
X131.06Y-46.98
X131.06Y-49.48
X131.16Y-105.48
X131.31Y-51.48
X131.46Y-72.608
X132.06Y-65.48
X132.56Y-63.48
X132.56Y-77.98
X132.56Y-80.98
X132.76Y-61.28
X132.81Y-51.48
X133.06Y-65.48
X133.56Y-46.98
X133.56Y-49.48
X133.56Y-74.98
X134.06Y-51.98
X134.56Y-63.48
X134.56Y-65.48
X135.36Y-82.08
X135.56Y-74.98
X135.56Y-76.98
X135.56Y-109.98
X136.06Y-46.98
X136.06Y-49.48
X136.06Y-51.98
X136.06Y-65.48
X136.06Y-66.98
X137.06Y-52.98
X137.06Y-70.48
X137.26Y-62.78
X137.31Y-56.98
X137.31Y-59.73
X137.56Y-50.98
X137.56Y-65.48
X137.56Y-66.98
X137.56Y-81.58
X137.56Y-84.98
X137.56Y-86.98
X137.56Y-88.98
X137.56Y-90.98
X137.56Y-92.98
X137.56Y-94.98
X137.56Y-96.98
X137.56Y-98.98
X137.56Y-100.98
X137.56Y-102.98
X137.56Y-105.98
X137.56Y-107.98
X137.96Y-106.88
X138.56Y-46.98
X138.56Y-48.98
X139.06Y-65.48
X139.06Y-66.98
X139.96Y-60.38
X140.06Y-52.98
X141.06Y-46.98
X141.06Y-48.98
X142.56Y-51.98
X142.56Y-64.98
X143.06Y-61.48
X143.56Y-46.98
X143.56Y-48.98
X144.06Y-67.48
X145.16Y-63.68
X145.614Y-66.68
X146.06Y-46.98
X146.06Y-49.48
X146.36Y-69.68
X146.56Y-54.98
X146.56Y-56.98
X147.31Y-51.23
X147.56Y-66.98
X148.56Y-46.98
X148.56Y-49.48
X148.56Y-54.98
X148.56Y-56.98
X149.56Y-66.98
X150.115Y-53.48
X150.115Y-64.035
X150.615Y-54.23
X150.615Y-63.035
X151.06Y-46.98
X151.115Y-53.48
X151.115Y-64.035
X151.56Y-66.98
X151.615Y-54.23
X151.615Y-63.035
X152.115Y-53.48
X152.115Y-64.035
X152.616Y-54.23
X152.616Y-63.036
X152.66Y-69.68
X153.116Y-53.48
X153.116Y-64.036
X153.56Y-66.98
X153.616Y-54.23
X153.616Y-63.036
X154.116Y-48.48
X154.116Y-64.036
X154.616Y-49.23
X154.616Y-63.036
X155.116Y-48.48
X155.116Y-64.036
X155.56Y-66.98
X155.616Y-49.23
X155.616Y-63.036
X156.116Y-48.48
X156.116Y-64.036
X156.617Y-49.23
X156.617Y-63.037
X157.117Y-48.48
X157.117Y-64.037
X157.56Y-69.98
X157.617Y-49.23
X157.617Y-63.037
X158.46Y-66.68
X158.76Y-59.78
X159.06Y-61.98
X159.56Y-63.98
X159.56Y-67.48
X160.26Y-54.18
X160.56Y-60.48
X160.56Y-69.98
X160.66Y-62.98
X160.66Y-64.28
X161.66Y-49.18
X162.06Y-67.48
X162.56Y-60.48
X162.56Y-63.98
X162.76Y-62.48
X164.06Y-70.48
X165.56Y-64.98
X166.86Y-65.18
X167.86Y-65.18
X168.06Y-70.48
X168.36Y-61.18
X168.56Y-54.38
X168.56Y-67.48
X169.56Y-75.98
X169.56Y-77.98
X169.81Y-71.73
X170.31Y-79.73
X170.56Y-65.98
X171.31Y-58.98
X171.31Y-74.48
X172.06Y-64.73
X172.56Y-53.73
X172.56Y-68.98
X172.56Y-79.73
X173.31Y-74.48
X174.56Y-68.98
X174.76Y-49.98
X174.96Y-63.48
X175.06Y-72.23
X175.06Y-79.73
X176.31Y-45.73
X176.56Y-68.98
X177.56Y-72.23
X177.56Y-79.73
X178.26Y-47.78
X178.56Y-45.73
X178.56Y-68.98
X178.96Y-48.88
X179.06Y-44.73
X179.638Y-65.48
X179.81Y-49.48
X180.06Y-72.23
X180.06Y-79.73
X180.56Y-68.98
X181.138Y-52.652
X181.31Y-49.48
X181.56Y-44.73
X182.06Y-53.68
X182.06Y-64.73
X182.56Y-49.88
X182.56Y-68.98
X182.56Y-73.23
X182.81Y-78.23
X182.81Y-79.73
X183.06Y-71.73
X183.26Y-49.58
X184.06Y-44.73
X184.06Y-55.73
X184.06Y-58.98
X184.06Y-60.78
X184.06Y-62.18
X184.31Y-78.23
X184.31Y-79.73
X184.56Y-68.98
X185.06Y-49.98
X185.06Y-50.98
X185.06Y-51.98
X185.06Y-73.98
X185.46Y-66.08
X186.26Y-65.58
X186.31Y-44.73
X186.56Y-49.98
X186.56Y-50.98
X186.56Y-51.98
X186.56Y-67.48
X186.56Y-69.48
X186.56Y-75.98
X186.56Y-77.98
X186.56Y-79.73
X186.81Y-71.98
X188.06Y-54.98
X188.56Y-69.48
X188.56Y-71.98
X188.56Y-73.98
X188.56Y-75.98
X188.56Y-77.98
X188.56Y-79.73
X188.61Y-67.99
X189.06Y-54.08
X189.06Y-54.98
X189.66Y-61.28
X190.31Y-59.23
X190.56Y-52.98
X190.56Y-53.98
X190.56Y-54.98
X190.56Y-67.48
X190.56Y-69.48
X190.56Y-71.98
X190.56Y-73.98
X190.56Y-75.98
X190.56Y-77.98
X190.56Y-79.73
X191.06Y-63.98
X191.06Y-65.98
X192.33Y-57.06
X192.56Y-52.98
X192.56Y-53.98
X192.56Y-54.98
X192.56Y-65.48
X192.56Y-67.48
X194.56Y-52.98
X194.56Y-53.98
X194.56Y-55.98
X194.56Y-65.48
X194.56Y-67.48
X195.56Y-45.98
X195.56Y-47.98
X195.56Y-49.98
X195.56Y-56.98
X195.56Y-60.98
X195.56Y-62.98
X196.56Y-52.98
X196.56Y-53.98
X196.56Y-55.98
X196.56Y-57.98
X196.56Y-61.98
X196.56Y-63.98
X196.56Y-65.48
X196.56Y-67.48
X197.56Y-45.98
X197.56Y-47.98
X197.56Y-50.98
X198.56Y-53.98
X198.56Y-55.98
X198.56Y-57.98
X198.56Y-59.73
X198.56Y-61.73
X198.56Y-63.73
X198.56Y-65.48
X198.56Y-67.48
X198.56Y-76.98
X199.56Y-45.98
X199.56Y-47.98
X200.56Y-57.98
X201.56Y-45.98
X201.56Y-47.98
X201.56Y-49.98
X202.56Y-57.98
X203.56Y-45.98
X203.56Y-47.98
X203.56Y-49.98
X203.56Y-66.98
X204.56Y-57.98
X205.56Y-45.98
X205.56Y-47.98
X205.56Y-49.98
X206.56Y-57.98
X207.56Y-45.98
X207.56Y-47.98
X207.56Y-49.98
X208.56Y-57.98
X208.56Y-76.98
X209.56Y-49.98
X210.56Y-57.98
X212.56Y-51.98
X212.56Y-53.98
X212.56Y-55.98
X212.56Y-57.98
X213.56Y-51.98
X213.56Y-66.98
T2
X116.56Y-76.174
X116.66Y-70.58
X120.71Y-82.33
X124.81Y-70.68
X130.31Y-69.73
X183.16Y-77.08
X183.76Y-73.48
X187.36Y-45.98
X197.91Y-49.28
T3
X188.36Y-62.48
X189.36Y-62.48
X190.36Y-62.48
X191.36Y-62.48
X192.36Y-59.48
X192.36Y-62.48
X193.36Y-59.48
X194.36Y-59.48
X195.36Y-59.48
X196.36Y-59.48
T4
X112.06Y-51.88
X115.56Y-88.28
X117.814Y-92.484
X118.16Y-53.48
X124.56Y-53.98
X124.56Y-55.73
X126.06Y-53.98
T5
X103.06Y-75.675
X103.06Y-78.215
X103.06Y-80.755
X132.56Y-85.62
X132.56Y-88.16
X132.56Y-90.7
X132.56Y-93.24
X132.56Y-95.78
X132.56Y-98.32
X132.56Y-100.86
X132.56Y-103.4
X132.56Y-105.94
X132.56Y-108.48
X135.1Y-85.62
X135.1Y-88.16
X135.1Y-90.7
X135.1Y-93.24
X135.1Y-95.78
X135.1Y-98.32
X135.1Y-100.86
X135.1Y-103.4
X135.1Y-105.94
X135.1Y-108.48
T6
X111.56Y-55.48
X111.56Y-57.98
X111.56Y-60.48
X111.56Y-62.98
X111.56Y-65.48
X111.56Y-89.38
X111.56Y-91.88
X111.56Y-94.38
X111.56Y-96.88
X111.56Y-99.38
T7
X104.56Y-107.48
X104.66Y-47.58
X191.96Y-47.58
X212.56Y-47.48
M30
