%TF.GenerationSoftware,KiCad,Pcbnew,8.0.8*%
%TF.CreationDate,2025-02-15T13:00:22-07:00*%
%TF.ProjectId,ECE Capstone PCB Design,45434520-4361-4707-9374-6f6e65205043,rev?*%
%TF.SameCoordinates,Original*%
%TF.FileFunction,Soldermask,Bot*%
%TF.FilePolarity,Negative*%
%FSLAX46Y46*%
G04 Gerber Fmt 4.6, Leading zero omitted, Abs format (unit mm)*
G04 Created by KiCad (PCBNEW 8.0.8) date 2025-02-15 13:00:22*
%MOMM*%
%LPD*%
G01*
G04 APERTURE LIST*
%ADD10C,1.854200*%
%ADD11C,1.752600*%
%ADD12R,1.700000X1.700000*%
%ADD13O,1.700000X1.700000*%
%ADD14C,5.400000*%
%ADD15R,0.850000X0.850000*%
%ADD16O,0.850000X0.850000*%
G04 APERTURE END LIST*
D10*
%TO.C,J2*%
X125819999Y-92400000D03*
X125819999Y-102400000D03*
D11*
X133000000Y-102400000D03*
X133000000Y-99900000D03*
X133000000Y-97400000D03*
X133000000Y-94900000D03*
X133000000Y-92400000D03*
%TD*%
D12*
%TO.C,REF\u002A\u002A*%
X154000000Y-88640000D03*
D13*
X156540000Y-88640000D03*
X154000000Y-91180000D03*
X156540000Y-91180000D03*
X154000000Y-93720000D03*
X156540000Y-93720000D03*
X154000000Y-96260000D03*
X156540000Y-96260000D03*
X154000000Y-98800000D03*
X156540000Y-98800000D03*
X154000000Y-101340000D03*
X156540000Y-101340000D03*
X154000000Y-103880000D03*
X156540000Y-103880000D03*
X154000000Y-106420000D03*
X156540000Y-106420000D03*
X154000000Y-108960000D03*
X156540000Y-108960000D03*
X154000000Y-111500000D03*
X156540000Y-111500000D03*
%TD*%
D12*
%TO.C,REF\u002A\u002A*%
X124500000Y-83775000D03*
D13*
X124500000Y-81235000D03*
X124500000Y-78695000D03*
%TD*%
D14*
%TO.C,REF\u002A\u002A*%
X126100000Y-50600000D03*
%TD*%
D10*
%TO.C,J1*%
X125819999Y-58500000D03*
X125819999Y-68500000D03*
D11*
X133000000Y-68500000D03*
X133000000Y-66000000D03*
X133000000Y-63500000D03*
X133000000Y-61000000D03*
X133000000Y-58500000D03*
%TD*%
D14*
%TO.C,REF\u002A\u002A*%
X234000000Y-50500000D03*
%TD*%
%TO.C,*%
X213400000Y-50600000D03*
%TD*%
D15*
%TO.C,REF\u002A\u002A*%
X209800000Y-65500000D03*
D16*
X210800000Y-65500000D03*
X211800000Y-65500000D03*
X212800000Y-65500000D03*
X213800000Y-65500000D03*
%TD*%
D14*
%TO.C,REF\u002A\u002A*%
X126000000Y-110500000D03*
%TD*%
D15*
%TO.C,REF\u002A\u002A*%
X217800000Y-62500000D03*
D16*
X216800000Y-62500000D03*
X215800000Y-62500000D03*
X214800000Y-62500000D03*
X213800000Y-62500000D03*
%TD*%
M02*
