%TF.GenerationSoftware,KiCad,Pcbnew,8.0.8*%
%TF.CreationDate,2025-02-15T02:41:19-07:00*%
%TF.ProjectId,ECE Capstone PCB Design,45434520-4361-4707-9374-6f6e65205043,rev?*%
%TF.SameCoordinates,Original*%
%TF.FileFunction,Soldermask,Top*%
%TF.FilePolarity,Negative*%
%FSLAX46Y46*%
G04 Gerber Fmt 4.6, Leading zero omitted, Abs format (unit mm)*
G04 Created by KiCad (PCBNEW 8.0.8) date 2025-02-15 02:41:19*
%MOMM*%
%LPD*%
G01*
G04 APERTURE LIST*
G04 Aperture macros list*
%AMRoundRect*
0 Rectangle with rounded corners*
0 $1 Rounding radius*
0 $2 $3 $4 $5 $6 $7 $8 $9 X,Y pos of 4 corners*
0 Add a 4 corners polygon primitive as box body*
4,1,4,$2,$3,$4,$5,$6,$7,$8,$9,$2,$3,0*
0 Add four circle primitives for the rounded corners*
1,1,$1+$1,$2,$3*
1,1,$1+$1,$4,$5*
1,1,$1+$1,$6,$7*
1,1,$1+$1,$8,$9*
0 Add four rect primitives between the rounded corners*
20,1,$1+$1,$2,$3,$4,$5,0*
20,1,$1+$1,$4,$5,$6,$7,0*
20,1,$1+$1,$6,$7,$8,$9,0*
20,1,$1+$1,$8,$9,$2,$3,0*%
G04 Aperture macros list end*
%ADD10R,1.752600X1.168400*%
%ADD11R,1.700000X1.700000*%
%ADD12O,1.700000X1.700000*%
%ADD13R,1.168400X1.803400*%
%ADD14R,1.600000X0.855600*%
%ADD15R,0.939800X0.965200*%
%ADD16C,5.400000*%
%ADD17R,1.803400X1.168400*%
%ADD18R,0.584200X0.203200*%
%ADD19R,0.850000X0.850000*%
%ADD20O,0.850000X0.850000*%
%ADD21R,1.981200X0.558800*%
%ADD22C,1.854200*%
%ADD23C,1.752600*%
%ADD24R,0.850900X2.006600*%
%ADD25R,1.600200X1.117600*%
%ADD26R,0.800001X0.549999*%
%ADD27R,0.558800X1.397000*%
%ADD28R,1.117600X1.600200*%
%ADD29RoundRect,0.102000X0.860000X-0.525000X0.860000X0.525000X-0.860000X0.525000X-0.860000X-0.525000X0*%
%ADD30R,1.168400X1.752600*%
%ADD31R,0.609600X4.114800*%
%ADD32R,1.752600X1.016000*%
%ADD33R,0.381000X1.346200*%
%ADD34R,2.540000X1.854200*%
%ADD35RoundRect,0.099250X0.627750X0.297750X-0.627750X0.297750X-0.627750X-0.297750X0.627750X-0.297750X0*%
%ADD36R,2.006600X0.850900*%
%ADD37R,1.447800X0.609600*%
%ADD38RoundRect,0.099250X-0.297750X0.627750X-0.297750X-0.627750X0.297750X-0.627750X0.297750X0.627750X0*%
%ADD39R,0.762000X1.219200*%
%ADD40RoundRect,0.102000X-0.139700X0.736600X-0.139700X-0.736600X0.139700X-0.736600X0.139700X0.736600X0*%
%ADD41RoundRect,0.102000X-0.736600X0.139700X-0.736600X-0.139700X0.736600X-0.139700X0.736600X0.139700X0*%
%ADD42RoundRect,0.102000X-2.997200X2.997200X-2.997200X-2.997200X2.997200X-2.997200X2.997200X2.997200X0*%
%ADD43R,1.701800X1.016000*%
G04 APERTURE END LIST*
D10*
%TO.C,C36*%
X123666800Y-78084400D03*
X123666800Y-80980000D03*
%TD*%
D11*
%TO.C,REF\u002A\u002A*%
X132560000Y-85620000D03*
D12*
X135100000Y-85620000D03*
X132560000Y-88160000D03*
X135100000Y-88160000D03*
X132560000Y-90700000D03*
X135100000Y-90700000D03*
X132560000Y-93240000D03*
X135100000Y-93240000D03*
X132560000Y-95780000D03*
X135100000Y-95780000D03*
X132560000Y-98320000D03*
X135100000Y-98320000D03*
X132560000Y-100860000D03*
X135100000Y-100860000D03*
X132560000Y-103400000D03*
X135100000Y-103400000D03*
X132560000Y-105940000D03*
X135100000Y-105940000D03*
X132560000Y-108480000D03*
X135100000Y-108480000D03*
%TD*%
D13*
%TO.C,C31*%
X117813600Y-90780000D03*
X120760000Y-90780000D03*
%TD*%
D14*
%TO.C,C38*%
X136860000Y-72380000D03*
X136860000Y-75435602D03*
%TD*%
%TO.C,C6*%
X117890000Y-51837801D03*
X117890000Y-48782199D03*
%TD*%
D10*
%TO.C,C19*%
X173810000Y-70584400D03*
X173810000Y-73480000D03*
%TD*%
D14*
%TO.C,C3*%
X123612199Y-51882199D03*
X123612199Y-48826597D03*
%TD*%
D15*
%TO.C,FB1*%
X184560000Y-77029300D03*
X184560000Y-75530700D03*
%TD*%
D10*
%TO.C,C20*%
X202412200Y-52732200D03*
X202412200Y-55627800D03*
%TD*%
%TO.C,C15*%
X176310000Y-70584400D03*
X176310000Y-73480000D03*
%TD*%
D14*
%TO.C,C39*%
X136860000Y-79963403D03*
X136860000Y-76907801D03*
%TD*%
D10*
%TO.C,C8*%
X181310000Y-70532200D03*
X181310000Y-73427800D03*
%TD*%
D16*
%TO.C,REF\u002A\u002A*%
X212560000Y-47480000D03*
%TD*%
D17*
%TO.C,C27*%
X124233200Y-64106800D03*
X124233200Y-67053200D03*
%TD*%
D14*
%TO.C,C34*%
X112310000Y-79230000D03*
X112310000Y-76174398D03*
%TD*%
D10*
%TO.C,C10*%
X178860000Y-75980000D03*
X178860000Y-78875600D03*
%TD*%
D18*
%TO.C,R10*%
X166810000Y-53480000D03*
X166810000Y-52980001D03*
X166810000Y-52480002D03*
X166810000Y-51980001D03*
X166810000Y-51480001D03*
X166810000Y-50980000D03*
X166810000Y-50480001D03*
X166810000Y-49980002D03*
X164879600Y-49980002D03*
X164879600Y-50480001D03*
X164879600Y-50980000D03*
X164879600Y-51480001D03*
X164879600Y-51980001D03*
X164879600Y-52480002D03*
X164879600Y-52980001D03*
X164879600Y-53480000D03*
%TD*%
D10*
%TO.C,C18*%
X173860000Y-75927800D03*
X173860000Y-78823400D03*
%TD*%
D16*
%TO.C,REF\u002A\u002A*%
X104560000Y-107480000D03*
%TD*%
D19*
%TO.C,REF\u002A\u002A*%
X188360000Y-62480000D03*
D20*
X189360000Y-62480000D03*
X190360000Y-62480000D03*
X191360000Y-62480000D03*
X192360000Y-62480000D03*
%TD*%
D18*
%TO.C,R11*%
X166760000Y-48480000D03*
X166760000Y-47980001D03*
X166760000Y-47480002D03*
X166760000Y-46980001D03*
X166760000Y-46480001D03*
X166760000Y-45980000D03*
X166760000Y-45480001D03*
X166760000Y-44980002D03*
X164829600Y-44980002D03*
X164829600Y-45480001D03*
X164829600Y-45980000D03*
X164829600Y-46480001D03*
X164829600Y-46980001D03*
X164829600Y-47480002D03*
X164829600Y-47980001D03*
X164829600Y-48480000D03*
%TD*%
D10*
%TO.C,C29*%
X109860000Y-69624300D03*
X109860000Y-72519900D03*
%TD*%
D14*
%TO.C,C4*%
X126140000Y-51910000D03*
X126140000Y-48854398D03*
%TD*%
D21*
%TO.C,U2*%
X122523800Y-58685000D03*
X122523800Y-57415000D03*
X122523800Y-56145000D03*
X122523800Y-54875000D03*
X117596200Y-54875000D03*
X117596200Y-56145000D03*
X117596200Y-57415000D03*
X117596200Y-58685000D03*
%TD*%
D14*
%TO.C,C21*%
X185260000Y-48640002D03*
X185260000Y-45584400D03*
%TD*%
D22*
%TO.C,J2*%
X104379999Y-89380000D03*
X104379999Y-99380000D03*
D23*
X111560000Y-99380000D03*
X111560000Y-96880000D03*
X111560000Y-94380000D03*
X111560000Y-91880000D03*
X111560000Y-89380000D03*
%TD*%
D24*
%TO.C,L2*%
X119783650Y-85840000D03*
X122336350Y-85840000D03*
%TD*%
D25*
%TO.C,R4*%
X114900000Y-67246000D03*
X114900000Y-64452000D03*
%TD*%
D14*
%TO.C,C26*%
X112260000Y-69514099D03*
X112260000Y-72569701D03*
%TD*%
%TO.C,C37*%
X132360000Y-69763403D03*
X132360000Y-66707801D03*
%TD*%
D26*
%TO.C,U6*%
X132484999Y-71357800D03*
X132484999Y-72307801D03*
X132484999Y-73257799D03*
X135034999Y-73257799D03*
X135034999Y-72307801D03*
X135034999Y-71357800D03*
%TD*%
D27*
%TO.C,U1*%
X128390000Y-59280000D03*
X129660000Y-59280000D03*
X130930000Y-59280000D03*
X132200000Y-59280000D03*
X133470000Y-59280000D03*
X134740000Y-59280000D03*
X136010000Y-59280000D03*
X136010000Y-53971400D03*
X134740000Y-53971400D03*
X133470000Y-53971400D03*
X132200000Y-53971400D03*
X130930000Y-53971400D03*
X129660000Y-53971400D03*
X128390000Y-53971400D03*
%TD*%
D15*
%TO.C,FB4*%
X187360000Y-47041402D03*
X187360000Y-48540002D03*
%TD*%
D10*
%TO.C,C9*%
X209912200Y-52732200D03*
X209912200Y-55627800D03*
%TD*%
D22*
%TO.C,J1*%
X104379999Y-55480000D03*
X104379999Y-65480000D03*
D23*
X111560000Y-65480000D03*
X111560000Y-62980000D03*
X111560000Y-60480000D03*
X111560000Y-57980000D03*
X111560000Y-55480000D03*
%TD*%
D10*
%TO.C,C7*%
X181360000Y-75980000D03*
X181360000Y-78875600D03*
%TD*%
D28*
%TO.C,R5*%
X117810800Y-85630000D03*
X115016800Y-85630000D03*
%TD*%
D15*
%TO.C,FB*%
X199560000Y-49181400D03*
X199560000Y-50680000D03*
%TD*%
D14*
%TO.C,C5*%
X120390000Y-51837801D03*
X120390000Y-48782199D03*
%TD*%
D10*
%TO.C,C14*%
X176360000Y-75980000D03*
X176360000Y-78875600D03*
%TD*%
D18*
%TO.C,R9*%
X166810000Y-58480000D03*
X166810000Y-57980001D03*
X166810000Y-57480002D03*
X166810000Y-56980001D03*
X166810000Y-56480001D03*
X166810000Y-55980000D03*
X166810000Y-55480001D03*
X166810000Y-54980002D03*
X164879600Y-54980002D03*
X164879600Y-55480001D03*
X164879600Y-55980000D03*
X164879600Y-56480001D03*
X164879600Y-56980001D03*
X164879600Y-57480002D03*
X164879600Y-57980001D03*
X164879600Y-58480000D03*
%TD*%
D10*
%TO.C,C11*%
X178810000Y-70584400D03*
X178810000Y-73480000D03*
%TD*%
D14*
%TO.C,C28*%
X107660000Y-69514099D03*
X107660000Y-72569701D03*
%TD*%
D29*
%TO.C,R3*%
X117150000Y-67285200D03*
X117150000Y-64365200D03*
%TD*%
D14*
%TO.C,C32*%
X114810000Y-79230000D03*
X114810000Y-76174398D03*
%TD*%
%TO.C,C22*%
X171360000Y-75847799D03*
X171360000Y-78903401D03*
%TD*%
D30*
%TO.C,C30*%
X121851400Y-74053200D03*
X118955800Y-74053200D03*
%TD*%
D31*
%TO.C,8MHz*%
X141360000Y-61180000D03*
X141360000Y-52188400D03*
%TD*%
D32*
%TO.C,R1*%
X114560000Y-55480000D03*
X114560000Y-58324800D03*
%TD*%
D10*
%TO.C,C16*%
X204912200Y-52784400D03*
X204912200Y-55680000D03*
%TD*%
D33*
%TO.C,J3*%
X144113398Y-65443100D03*
X144613524Y-65443100D03*
X145113650Y-65443100D03*
X145613776Y-65443100D03*
X146113902Y-65443100D03*
X146614028Y-65443100D03*
X147114154Y-65443100D03*
X147614280Y-65443100D03*
X148114406Y-65443100D03*
X148614532Y-65443100D03*
X149114658Y-65443100D03*
X149614784Y-65443100D03*
X150114910Y-65443100D03*
X150615036Y-65443100D03*
X151115162Y-65443100D03*
X151615288Y-65443100D03*
X152115414Y-65443100D03*
X152615540Y-65443100D03*
X153115666Y-65443100D03*
X153615792Y-65443100D03*
X154115918Y-65443100D03*
X154616044Y-65443100D03*
X155116170Y-65443100D03*
X155616296Y-65443100D03*
X156116422Y-65443100D03*
X156616548Y-65443100D03*
X157116674Y-65443100D03*
X157616800Y-65443100D03*
X158116926Y-65443100D03*
X158617052Y-65443100D03*
X159117178Y-65443100D03*
X159617304Y-65443100D03*
X160117430Y-65443100D03*
X160617556Y-65443100D03*
X161117682Y-65443100D03*
X161617808Y-65443100D03*
X162117934Y-65443100D03*
X162618060Y-65443100D03*
X163118186Y-65443100D03*
X163618312Y-65443100D03*
D34*
X141965856Y-68793101D03*
X165765854Y-68793101D03*
%TD*%
D35*
%TO.C,U7*%
X116806400Y-73491900D03*
X116806400Y-72541900D03*
X116806400Y-71591900D03*
X114296400Y-71591900D03*
X114296400Y-72541900D03*
X114296400Y-73491900D03*
%TD*%
D14*
%TO.C,C23*%
X171310000Y-70504399D03*
X171310000Y-73560001D03*
%TD*%
D18*
%TO.C,R12*%
X166760000Y-63980000D03*
X166760000Y-63480001D03*
X166760000Y-62980002D03*
X166760000Y-62480001D03*
X166760000Y-61980001D03*
X166760000Y-61480000D03*
X166760000Y-60980001D03*
X166760000Y-60480002D03*
X164829600Y-60480002D03*
X164829600Y-60980001D03*
X164829600Y-61480000D03*
X164829600Y-61980001D03*
X164829600Y-62480001D03*
X164829600Y-62980002D03*
X164829600Y-63480001D03*
X164829600Y-63980000D03*
%TD*%
D36*
%TO.C,L1*%
X121851400Y-69476850D03*
X121851400Y-72029550D03*
%TD*%
D32*
%TO.C,R2*%
X119450000Y-64325200D03*
X119450000Y-67170000D03*
%TD*%
D28*
%TO.C,R7*%
X117807800Y-81170000D03*
X115013800Y-81170000D03*
%TD*%
%TO.C,R6*%
X115016800Y-83410000D03*
X117810800Y-83410000D03*
%TD*%
D15*
%TO.C,FB2*%
X184610000Y-71979300D03*
X184610000Y-70480700D03*
%TD*%
D13*
%TO.C,C33*%
X117813600Y-88280000D03*
X120760000Y-88280000D03*
%TD*%
D16*
%TO.C,*%
X191960000Y-47580000D03*
%TD*%
D10*
%TO.C,C13*%
X180260000Y-48480000D03*
X180260000Y-45584400D03*
%TD*%
D17*
%TO.C,C25*%
X121760000Y-64133600D03*
X121760000Y-67080000D03*
%TD*%
D37*
%TO.C,L3*%
X129960000Y-73107901D03*
X129960000Y-71507701D03*
%TD*%
D38*
%TO.C,U5*%
X121659800Y-78410000D03*
X120709800Y-78410000D03*
X119759800Y-78410000D03*
X119759800Y-80920000D03*
X120709800Y-80920000D03*
X121659800Y-80920000D03*
%TD*%
D10*
%TO.C,C12*%
X207412200Y-52784400D03*
X207412200Y-55680000D03*
%TD*%
D14*
%TO.C,C2*%
X145020000Y-54687801D03*
X145020000Y-51632199D03*
%TD*%
D10*
%TO.C,C17*%
X182760000Y-48480000D03*
X182760000Y-45584400D03*
%TD*%
D14*
%TO.C,C24*%
X199912200Y-52732200D03*
X199912200Y-55787802D03*
%TD*%
%TO.C,C1*%
X145050000Y-56532199D03*
X145050000Y-59587801D03*
%TD*%
D39*
%TO.C,D1*%
X133860000Y-79884201D03*
X133860000Y-76531401D03*
%TD*%
D40*
%TO.C,U3*%
X183638400Y-51258400D03*
X183138400Y-51258400D03*
X182642200Y-51258400D03*
X182134200Y-51258400D03*
X181638400Y-51258400D03*
X181138400Y-51258400D03*
X180635600Y-51258400D03*
X180138400Y-51258400D03*
X179638400Y-51258400D03*
X179137000Y-51258400D03*
X178629000Y-51258400D03*
X178138400Y-51258400D03*
X177638400Y-51258400D03*
X177130400Y-51258400D03*
X176638400Y-51258400D03*
X176139800Y-51258400D03*
X175631800Y-51258400D03*
X175138400Y-51258400D03*
X174641200Y-51258400D03*
X174133200Y-51258400D03*
X173638400Y-51258400D03*
X173142600Y-51258400D03*
X172634600Y-51258400D03*
X172126600Y-51258400D03*
X171638400Y-51258400D03*
D41*
X169916800Y-52985600D03*
X169916800Y-53480000D03*
X169916800Y-53976200D03*
X169916800Y-54484200D03*
X169916800Y-54980000D03*
X169916800Y-55474800D03*
X169916800Y-55982800D03*
X169916800Y-56490800D03*
X169916800Y-56980000D03*
X169916800Y-57481400D03*
X169916800Y-57980000D03*
X169916800Y-58480000D03*
X169916800Y-58980000D03*
X169916800Y-59480000D03*
X169916800Y-59980000D03*
X169916800Y-60478600D03*
X169916800Y-60980000D03*
X169916800Y-61480000D03*
X169916800Y-61977200D03*
X169916800Y-62485200D03*
X169916800Y-62980000D03*
X169916800Y-63475800D03*
X169916800Y-63983800D03*
X169916800Y-64480000D03*
X169916800Y-64980000D03*
D40*
X171644000Y-66701600D03*
X172138400Y-66701600D03*
X172634600Y-66701600D03*
X173142600Y-66701600D03*
X173638400Y-66701600D03*
X174138400Y-66701600D03*
X174641200Y-66701600D03*
X175138400Y-66701600D03*
X175638400Y-66701600D03*
X176139800Y-66701600D03*
X176638400Y-66701600D03*
X177138400Y-66701600D03*
X177638400Y-66701600D03*
X178138400Y-66701600D03*
X178638400Y-66701600D03*
X179137000Y-66701600D03*
X179638400Y-66701600D03*
X180138400Y-66701600D03*
X180635600Y-66701600D03*
X181138400Y-66701600D03*
X181638400Y-66701600D03*
X182134200Y-66701600D03*
X182642200Y-66701600D03*
X183150200Y-66701600D03*
X183638400Y-66701600D03*
D41*
X185360000Y-64980000D03*
X185360000Y-64480000D03*
X185360000Y-63983800D03*
X185360000Y-63475800D03*
X185360000Y-62980000D03*
X185360000Y-62480000D03*
X185360000Y-61977200D03*
X185360000Y-61480000D03*
X185360000Y-60980000D03*
X185360000Y-60478600D03*
X185360000Y-59980000D03*
X185360000Y-59480000D03*
X185360000Y-58980000D03*
X185360000Y-58480000D03*
X185360000Y-57980000D03*
X185360000Y-57481400D03*
X185360000Y-56980000D03*
X185360000Y-56480000D03*
X185360000Y-55982800D03*
X185360000Y-55480000D03*
X185360000Y-54980000D03*
X185360000Y-54484200D03*
X185360000Y-53976200D03*
X185360000Y-53480000D03*
X185360000Y-52980000D03*
D42*
X177638400Y-58980000D03*
%TD*%
D16*
%TO.C,REF\u002A\u002A*%
X104660000Y-47580000D03*
%TD*%
D19*
%TO.C,REF\u002A\u002A*%
X196360000Y-59480000D03*
D20*
X195360000Y-59480000D03*
X194360000Y-59480000D03*
X193360000Y-59480000D03*
X192360000Y-59480000D03*
%TD*%
D43*
%TO.C,R8*%
X134634999Y-69705599D03*
X134634999Y-66809999D03*
%TD*%
D10*
%TO.C,C35*%
X109810000Y-79149999D03*
X109810000Y-76254399D03*
%TD*%
D11*
%TO.C,REF\u002A\u002A*%
X103060000Y-80755000D03*
D12*
X103060000Y-78215000D03*
X103060000Y-75675000D03*
%TD*%
M02*
