%TF.GenerationSoftware,KiCad,Pcbnew,8.0.8*%
%TF.CreationDate,2025-02-24T22:18:03-07:00*%
%TF.ProjectId,ECE Capstone PCB Design,45434520-4361-4707-9374-6f6e65205043,rev?*%
%TF.SameCoordinates,Original*%
%TF.FileFunction,Legend,Top*%
%TF.FilePolarity,Positive*%
%FSLAX46Y46*%
G04 Gerber Fmt 4.6, Leading zero omitted, Abs format (unit mm)*
G04 Created by KiCad (PCBNEW 8.0.8) date 2025-02-24 22:18:03*
%MOMM*%
%LPD*%
G01*
G04 APERTURE LIST*
G04 Aperture macros list*
%AMRoundRect*
0 Rectangle with rounded corners*
0 $1 Rounding radius*
0 $2 $3 $4 $5 $6 $7 $8 $9 X,Y pos of 4 corners*
0 Add a 4 corners polygon primitive as box body*
4,1,4,$2,$3,$4,$5,$6,$7,$8,$9,$2,$3,0*
0 Add four circle primitives for the rounded corners*
1,1,$1+$1,$2,$3*
1,1,$1+$1,$4,$5*
1,1,$1+$1,$6,$7*
1,1,$1+$1,$8,$9*
0 Add four rect primitives between the rounded corners*
20,1,$1+$1,$2,$3,$4,$5,0*
20,1,$1+$1,$4,$5,$6,$7,0*
20,1,$1+$1,$6,$7,$8,$9,0*
20,1,$1+$1,$8,$9,$2,$3,0*%
G04 Aperture macros list end*
%ADD10C,0.150000*%
%ADD11C,0.152400*%
%ADD12C,0.508000*%
%ADD13C,0.120000*%
%ADD14C,0.200000*%
%ADD15C,0.127000*%
%ADD16C,0.000000*%
%ADD17R,1.447800X0.609600*%
%ADD18R,0.850900X2.006600*%
%ADD19R,1.752600X1.168400*%
%ADD20C,1.854200*%
%ADD21C,1.752600*%
%ADD22R,1.700000X1.700000*%
%ADD23O,1.700000X1.700000*%
%ADD24R,0.800001X0.549999*%
%ADD25R,0.584200X0.203200*%
%ADD26R,0.381000X1.346200*%
%ADD27R,2.540000X1.854200*%
%ADD28R,1.168400X1.803400*%
%ADD29R,1.600000X0.855600*%
%ADD30R,1.117600X1.600200*%
%ADD31R,1.803400X1.168400*%
%ADD32RoundRect,0.099250X0.627750X0.297750X-0.627750X0.297750X-0.627750X-0.297750X0.627750X-0.297750X0*%
%ADD33R,0.939800X0.965200*%
%ADD34R,2.006600X0.850900*%
%ADD35RoundRect,0.099250X-0.297750X0.627750X-0.297750X-0.627750X0.297750X-0.627750X0.297750X0.627750X0*%
%ADD36RoundRect,0.102000X-0.139700X0.736600X-0.139700X-0.736600X0.139700X-0.736600X0.139700X0.736600X0*%
%ADD37RoundRect,0.102000X-0.736600X0.139700X-0.736600X-0.139700X0.736600X-0.139700X0.736600X0.139700X0*%
%ADD38RoundRect,0.102000X-2.997200X2.997200X-2.997200X-2.997200X2.997200X-2.997200X2.997200X2.997200X0*%
%ADD39C,5.400000*%
%ADD40R,1.701800X1.016000*%
%ADD41R,1.752600X1.016000*%
%ADD42R,1.600200X1.117600*%
%ADD43R,0.609600X4.114800*%
%ADD44R,1.981200X0.558800*%
%ADD45R,0.558800X1.397000*%
%ADD46R,0.850000X0.850000*%
%ADD47O,0.850000X0.850000*%
%ADD48R,1.168400X1.752600*%
%ADD49RoundRect,0.102000X0.860000X-0.525000X0.860000X0.525000X-0.860000X0.525000X-0.860000X-0.525000X0*%
%ADD50R,0.762000X1.219200*%
G04 APERTURE END LIST*
D10*
X151904819Y-77691667D02*
X151904819Y-78025000D01*
X151904819Y-78025000D02*
X150904819Y-78025000D01*
X150904819Y-77525000D02*
X150904819Y-77091666D01*
X150904819Y-77091666D02*
X151285771Y-77325000D01*
X151285771Y-77325000D02*
X151285771Y-77225000D01*
X151285771Y-77225000D02*
X151333390Y-77158333D01*
X151333390Y-77158333D02*
X151381009Y-77125000D01*
X151381009Y-77125000D02*
X151476247Y-77091666D01*
X151476247Y-77091666D02*
X151714342Y-77091666D01*
X151714342Y-77091666D02*
X151809580Y-77125000D01*
X151809580Y-77125000D02*
X151857200Y-77158333D01*
X151857200Y-77158333D02*
X151904819Y-77225000D01*
X151904819Y-77225000D02*
X151904819Y-77425000D01*
X151904819Y-77425000D02*
X151857200Y-77491666D01*
X151857200Y-77491666D02*
X151809580Y-77525000D01*
X142383333Y-89314819D02*
X142049999Y-89314819D01*
X142049999Y-89314819D02*
X142049999Y-88314819D01*
X142583333Y-88410057D02*
X142616666Y-88362438D01*
X142616666Y-88362438D02*
X142683333Y-88314819D01*
X142683333Y-88314819D02*
X142850000Y-88314819D01*
X142850000Y-88314819D02*
X142916666Y-88362438D01*
X142916666Y-88362438D02*
X142950000Y-88410057D01*
X142950000Y-88410057D02*
X142983333Y-88505295D01*
X142983333Y-88505295D02*
X142983333Y-88600533D01*
X142983333Y-88600533D02*
X142950000Y-88743390D01*
X142950000Y-88743390D02*
X142550000Y-89314819D01*
X142550000Y-89314819D02*
X142983333Y-89314819D01*
X204559580Y-50168866D02*
X204607200Y-50202199D01*
X204607200Y-50202199D02*
X204654819Y-50302199D01*
X204654819Y-50302199D02*
X204654819Y-50368866D01*
X204654819Y-50368866D02*
X204607200Y-50468866D01*
X204607200Y-50468866D02*
X204511961Y-50535533D01*
X204511961Y-50535533D02*
X204416723Y-50568866D01*
X204416723Y-50568866D02*
X204226247Y-50602199D01*
X204226247Y-50602199D02*
X204083390Y-50602199D01*
X204083390Y-50602199D02*
X203892914Y-50568866D01*
X203892914Y-50568866D02*
X203797676Y-50535533D01*
X203797676Y-50535533D02*
X203702438Y-50468866D01*
X203702438Y-50468866D02*
X203654819Y-50368866D01*
X203654819Y-50368866D02*
X203654819Y-50302199D01*
X203654819Y-50302199D02*
X203702438Y-50202199D01*
X203702438Y-50202199D02*
X203750057Y-50168866D01*
X203988152Y-49568866D02*
X204654819Y-49568866D01*
X203607200Y-49735533D02*
X204321485Y-49902199D01*
X204321485Y-49902199D02*
X204321485Y-49468866D01*
X154762295Y-75861134D02*
X155409914Y-75861134D01*
X155409914Y-75861134D02*
X155486104Y-75827801D01*
X155486104Y-75827801D02*
X155524200Y-75794467D01*
X155524200Y-75794467D02*
X155562295Y-75727801D01*
X155562295Y-75727801D02*
X155562295Y-75594467D01*
X155562295Y-75594467D02*
X155524200Y-75527801D01*
X155524200Y-75527801D02*
X155486104Y-75494467D01*
X155486104Y-75494467D02*
X155409914Y-75461134D01*
X155409914Y-75461134D02*
X154762295Y-75461134D01*
X154762295Y-74827801D02*
X154762295Y-74961134D01*
X154762295Y-74961134D02*
X154800390Y-75027801D01*
X154800390Y-75027801D02*
X154838485Y-75061134D01*
X154838485Y-75061134D02*
X154952771Y-75127801D01*
X154952771Y-75127801D02*
X155105152Y-75161134D01*
X155105152Y-75161134D02*
X155409914Y-75161134D01*
X155409914Y-75161134D02*
X155486104Y-75127801D01*
X155486104Y-75127801D02*
X155524200Y-75094468D01*
X155524200Y-75094468D02*
X155562295Y-75027801D01*
X155562295Y-75027801D02*
X155562295Y-74894468D01*
X155562295Y-74894468D02*
X155524200Y-74827801D01*
X155524200Y-74827801D02*
X155486104Y-74794468D01*
X155486104Y-74794468D02*
X155409914Y-74761134D01*
X155409914Y-74761134D02*
X155219438Y-74761134D01*
X155219438Y-74761134D02*
X155143247Y-74794468D01*
X155143247Y-74794468D02*
X155105152Y-74827801D01*
X155105152Y-74827801D02*
X155067057Y-74894468D01*
X155067057Y-74894468D02*
X155067057Y-75027801D01*
X155067057Y-75027801D02*
X155105152Y-75094468D01*
X155105152Y-75094468D02*
X155143247Y-75127801D01*
X155143247Y-75127801D02*
X155219438Y-75161134D01*
X202059580Y-50176668D02*
X202107200Y-50210001D01*
X202107200Y-50210001D02*
X202154819Y-50310001D01*
X202154819Y-50310001D02*
X202154819Y-50376668D01*
X202154819Y-50376668D02*
X202107200Y-50476668D01*
X202107200Y-50476668D02*
X202011961Y-50543335D01*
X202011961Y-50543335D02*
X201916723Y-50576668D01*
X201916723Y-50576668D02*
X201726247Y-50610001D01*
X201726247Y-50610001D02*
X201583390Y-50610001D01*
X201583390Y-50610001D02*
X201392914Y-50576668D01*
X201392914Y-50576668D02*
X201297676Y-50543335D01*
X201297676Y-50543335D02*
X201202438Y-50476668D01*
X201202438Y-50476668D02*
X201154819Y-50376668D01*
X201154819Y-50376668D02*
X201154819Y-50310001D01*
X201154819Y-50310001D02*
X201202438Y-50210001D01*
X201202438Y-50210001D02*
X201250057Y-50176668D01*
X201488152Y-49576668D02*
X202154819Y-49576668D01*
X201107200Y-49743335D02*
X201821485Y-49910001D01*
X201821485Y-49910001D02*
X201821485Y-49476668D01*
X170666666Y-71454819D02*
X170666666Y-72169104D01*
X170666666Y-72169104D02*
X170619047Y-72311961D01*
X170619047Y-72311961D02*
X170523809Y-72407200D01*
X170523809Y-72407200D02*
X170380952Y-72454819D01*
X170380952Y-72454819D02*
X170285714Y-72454819D01*
X171047619Y-71454819D02*
X171666666Y-71454819D01*
X171666666Y-71454819D02*
X171333333Y-71835771D01*
X171333333Y-71835771D02*
X171476190Y-71835771D01*
X171476190Y-71835771D02*
X171571428Y-71883390D01*
X171571428Y-71883390D02*
X171619047Y-71931009D01*
X171619047Y-71931009D02*
X171666666Y-72026247D01*
X171666666Y-72026247D02*
X171666666Y-72264342D01*
X171666666Y-72264342D02*
X171619047Y-72359580D01*
X171619047Y-72359580D02*
X171571428Y-72407200D01*
X171571428Y-72407200D02*
X171476190Y-72454819D01*
X171476190Y-72454819D02*
X171190476Y-72454819D01*
X171190476Y-72454819D02*
X171095238Y-72407200D01*
X171095238Y-72407200D02*
X171047619Y-72359580D01*
X140610133Y-94159580D02*
X140576800Y-94207200D01*
X140576800Y-94207200D02*
X140476800Y-94254819D01*
X140476800Y-94254819D02*
X140410133Y-94254819D01*
X140410133Y-94254819D02*
X140310133Y-94207200D01*
X140310133Y-94207200D02*
X140243467Y-94111961D01*
X140243467Y-94111961D02*
X140210133Y-94016723D01*
X140210133Y-94016723D02*
X140176800Y-93826247D01*
X140176800Y-93826247D02*
X140176800Y-93683390D01*
X140176800Y-93683390D02*
X140210133Y-93492914D01*
X140210133Y-93492914D02*
X140243467Y-93397676D01*
X140243467Y-93397676D02*
X140310133Y-93302438D01*
X140310133Y-93302438D02*
X140410133Y-93254819D01*
X140410133Y-93254819D02*
X140476800Y-93254819D01*
X140476800Y-93254819D02*
X140576800Y-93302438D01*
X140576800Y-93302438D02*
X140610133Y-93350057D01*
X141276800Y-94254819D02*
X140876800Y-94254819D01*
X141076800Y-94254819D02*
X141076800Y-93254819D01*
X141076800Y-93254819D02*
X141010133Y-93397676D01*
X141010133Y-93397676D02*
X140943467Y-93492914D01*
X140943467Y-93492914D02*
X140876800Y-93540533D01*
X192390419Y-74935533D02*
X192342800Y-74902200D01*
X192342800Y-74902200D02*
X192295180Y-74802200D01*
X192295180Y-74802200D02*
X192295180Y-74735533D01*
X192295180Y-74735533D02*
X192342800Y-74635533D01*
X192342800Y-74635533D02*
X192438038Y-74568867D01*
X192438038Y-74568867D02*
X192533276Y-74535533D01*
X192533276Y-74535533D02*
X192723752Y-74502200D01*
X192723752Y-74502200D02*
X192866609Y-74502200D01*
X192866609Y-74502200D02*
X193057085Y-74535533D01*
X193057085Y-74535533D02*
X193152323Y-74568867D01*
X193152323Y-74568867D02*
X193247561Y-74635533D01*
X193247561Y-74635533D02*
X193295180Y-74735533D01*
X193295180Y-74735533D02*
X193295180Y-74802200D01*
X193295180Y-74802200D02*
X193247561Y-74902200D01*
X193247561Y-74902200D02*
X193199942Y-74935533D01*
X193199942Y-75202200D02*
X193247561Y-75235533D01*
X193247561Y-75235533D02*
X193295180Y-75302200D01*
X193295180Y-75302200D02*
X193295180Y-75468867D01*
X193295180Y-75468867D02*
X193247561Y-75535533D01*
X193247561Y-75535533D02*
X193199942Y-75568867D01*
X193199942Y-75568867D02*
X193104704Y-75602200D01*
X193104704Y-75602200D02*
X193009466Y-75602200D01*
X193009466Y-75602200D02*
X192866609Y-75568867D01*
X192866609Y-75568867D02*
X192295180Y-75168867D01*
X192295180Y-75168867D02*
X192295180Y-75602200D01*
X228492619Y-57135533D02*
X228445000Y-57102200D01*
X228445000Y-57102200D02*
X228397380Y-57002200D01*
X228397380Y-57002200D02*
X228397380Y-56935533D01*
X228397380Y-56935533D02*
X228445000Y-56835533D01*
X228445000Y-56835533D02*
X228540238Y-56768867D01*
X228540238Y-56768867D02*
X228635476Y-56735533D01*
X228635476Y-56735533D02*
X228825952Y-56702200D01*
X228825952Y-56702200D02*
X228968809Y-56702200D01*
X228968809Y-56702200D02*
X229159285Y-56735533D01*
X229159285Y-56735533D02*
X229254523Y-56768867D01*
X229254523Y-56768867D02*
X229349761Y-56835533D01*
X229349761Y-56835533D02*
X229397380Y-56935533D01*
X229397380Y-56935533D02*
X229397380Y-57002200D01*
X229397380Y-57002200D02*
X229349761Y-57102200D01*
X229349761Y-57102200D02*
X229302142Y-57135533D01*
X229064047Y-57735533D02*
X228397380Y-57735533D01*
X229445000Y-57568867D02*
X228730714Y-57402200D01*
X228730714Y-57402200D02*
X228730714Y-57835533D01*
X166130419Y-60963333D02*
X166082800Y-60930000D01*
X166082800Y-60930000D02*
X166035180Y-60830000D01*
X166035180Y-60830000D02*
X166035180Y-60763333D01*
X166035180Y-60763333D02*
X166082800Y-60663333D01*
X166082800Y-60663333D02*
X166178038Y-60596667D01*
X166178038Y-60596667D02*
X166273276Y-60563333D01*
X166273276Y-60563333D02*
X166463752Y-60530000D01*
X166463752Y-60530000D02*
X166606609Y-60530000D01*
X166606609Y-60530000D02*
X166797085Y-60563333D01*
X166797085Y-60563333D02*
X166892323Y-60596667D01*
X166892323Y-60596667D02*
X166987561Y-60663333D01*
X166987561Y-60663333D02*
X167035180Y-60763333D01*
X167035180Y-60763333D02*
X167035180Y-60830000D01*
X167035180Y-60830000D02*
X166987561Y-60930000D01*
X166987561Y-60930000D02*
X166939942Y-60963333D01*
X167035180Y-61196667D02*
X167035180Y-61663333D01*
X167035180Y-61663333D02*
X166035180Y-61363333D01*
X207059580Y-50248867D02*
X207107200Y-50282200D01*
X207107200Y-50282200D02*
X207154819Y-50382200D01*
X207154819Y-50382200D02*
X207154819Y-50448867D01*
X207154819Y-50448867D02*
X207107200Y-50548867D01*
X207107200Y-50548867D02*
X207011961Y-50615534D01*
X207011961Y-50615534D02*
X206916723Y-50648867D01*
X206916723Y-50648867D02*
X206726247Y-50682200D01*
X206726247Y-50682200D02*
X206583390Y-50682200D01*
X206583390Y-50682200D02*
X206392914Y-50648867D01*
X206392914Y-50648867D02*
X206297676Y-50615534D01*
X206297676Y-50615534D02*
X206202438Y-50548867D01*
X206202438Y-50548867D02*
X206154819Y-50448867D01*
X206154819Y-50448867D02*
X206154819Y-50382200D01*
X206154819Y-50382200D02*
X206202438Y-50282200D01*
X206202438Y-50282200D02*
X206250057Y-50248867D01*
X206250057Y-49982200D02*
X206202438Y-49948867D01*
X206202438Y-49948867D02*
X206154819Y-49882200D01*
X206154819Y-49882200D02*
X206154819Y-49715534D01*
X206154819Y-49715534D02*
X206202438Y-49648867D01*
X206202438Y-49648867D02*
X206250057Y-49615534D01*
X206250057Y-49615534D02*
X206345295Y-49582200D01*
X206345295Y-49582200D02*
X206440533Y-49582200D01*
X206440533Y-49582200D02*
X206583390Y-49615534D01*
X206583390Y-49615534D02*
X207154819Y-50015534D01*
X207154819Y-50015534D02*
X207154819Y-49582200D01*
X137737133Y-86884819D02*
X137503800Y-86408628D01*
X137337133Y-86884819D02*
X137337133Y-85884819D01*
X137337133Y-85884819D02*
X137603800Y-85884819D01*
X137603800Y-85884819D02*
X137670467Y-85932438D01*
X137670467Y-85932438D02*
X137703800Y-85980057D01*
X137703800Y-85980057D02*
X137737133Y-86075295D01*
X137737133Y-86075295D02*
X137737133Y-86218152D01*
X137737133Y-86218152D02*
X137703800Y-86313390D01*
X137703800Y-86313390D02*
X137670467Y-86361009D01*
X137670467Y-86361009D02*
X137603800Y-86408628D01*
X137603800Y-86408628D02*
X137337133Y-86408628D01*
X138337133Y-85884819D02*
X138203800Y-85884819D01*
X138203800Y-85884819D02*
X138137133Y-85932438D01*
X138137133Y-85932438D02*
X138103800Y-85980057D01*
X138103800Y-85980057D02*
X138037133Y-86122914D01*
X138037133Y-86122914D02*
X138003800Y-86313390D01*
X138003800Y-86313390D02*
X138003800Y-86694342D01*
X138003800Y-86694342D02*
X138037133Y-86789580D01*
X138037133Y-86789580D02*
X138070467Y-86837200D01*
X138070467Y-86837200D02*
X138137133Y-86884819D01*
X138137133Y-86884819D02*
X138270467Y-86884819D01*
X138270467Y-86884819D02*
X138337133Y-86837200D01*
X138337133Y-86837200D02*
X138370467Y-86789580D01*
X138370467Y-86789580D02*
X138403800Y-86694342D01*
X138403800Y-86694342D02*
X138403800Y-86456247D01*
X138403800Y-86456247D02*
X138370467Y-86361009D01*
X138370467Y-86361009D02*
X138337133Y-86313390D01*
X138337133Y-86313390D02*
X138270467Y-86265771D01*
X138270467Y-86265771D02*
X138137133Y-86265771D01*
X138137133Y-86265771D02*
X138070467Y-86313390D01*
X138070467Y-86313390D02*
X138037133Y-86361009D01*
X138037133Y-86361009D02*
X138003800Y-86456247D01*
X143559580Y-68743466D02*
X143607200Y-68776799D01*
X143607200Y-68776799D02*
X143654819Y-68876799D01*
X143654819Y-68876799D02*
X143654819Y-68943466D01*
X143654819Y-68943466D02*
X143607200Y-69043466D01*
X143607200Y-69043466D02*
X143511961Y-69110133D01*
X143511961Y-69110133D02*
X143416723Y-69143466D01*
X143416723Y-69143466D02*
X143226247Y-69176799D01*
X143226247Y-69176799D02*
X143083390Y-69176799D01*
X143083390Y-69176799D02*
X142892914Y-69143466D01*
X142892914Y-69143466D02*
X142797676Y-69110133D01*
X142797676Y-69110133D02*
X142702438Y-69043466D01*
X142702438Y-69043466D02*
X142654819Y-68943466D01*
X142654819Y-68943466D02*
X142654819Y-68876799D01*
X142654819Y-68876799D02*
X142702438Y-68776799D01*
X142702438Y-68776799D02*
X142750057Y-68743466D01*
X143654819Y-68076799D02*
X143654819Y-68476799D01*
X143654819Y-68276799D02*
X142654819Y-68276799D01*
X142654819Y-68276799D02*
X142797676Y-68343466D01*
X142797676Y-68343466D02*
X142892914Y-68410133D01*
X142892914Y-68410133D02*
X142940533Y-68476799D01*
X135240476Y-72887295D02*
X135240476Y-73534914D01*
X135240476Y-73534914D02*
X135278571Y-73611104D01*
X135278571Y-73611104D02*
X135316666Y-73649200D01*
X135316666Y-73649200D02*
X135392857Y-73687295D01*
X135392857Y-73687295D02*
X135545238Y-73687295D01*
X135545238Y-73687295D02*
X135621428Y-73649200D01*
X135621428Y-73649200D02*
X135659523Y-73611104D01*
X135659523Y-73611104D02*
X135697619Y-73534914D01*
X135697619Y-73534914D02*
X135697619Y-72887295D01*
X136002380Y-72887295D02*
X136535714Y-72887295D01*
X136535714Y-72887295D02*
X136192856Y-73687295D01*
X145466380Y-82668866D02*
X145514000Y-82702199D01*
X145514000Y-82702199D02*
X145561619Y-82802199D01*
X145561619Y-82802199D02*
X145561619Y-82868866D01*
X145561619Y-82868866D02*
X145514000Y-82968866D01*
X145514000Y-82968866D02*
X145418761Y-83035533D01*
X145418761Y-83035533D02*
X145323523Y-83068866D01*
X145323523Y-83068866D02*
X145133047Y-83102199D01*
X145133047Y-83102199D02*
X144990190Y-83102199D01*
X144990190Y-83102199D02*
X144799714Y-83068866D01*
X144799714Y-83068866D02*
X144704476Y-83035533D01*
X144704476Y-83035533D02*
X144609238Y-82968866D01*
X144609238Y-82968866D02*
X144561619Y-82868866D01*
X144561619Y-82868866D02*
X144561619Y-82802199D01*
X144561619Y-82802199D02*
X144609238Y-82702199D01*
X144609238Y-82702199D02*
X144656857Y-82668866D01*
X144894952Y-82068866D02*
X145561619Y-82068866D01*
X144514000Y-82235533D02*
X145228285Y-82402199D01*
X145228285Y-82402199D02*
X145228285Y-81968866D01*
X192440419Y-80278933D02*
X192392800Y-80245600D01*
X192392800Y-80245600D02*
X192345180Y-80145600D01*
X192345180Y-80145600D02*
X192345180Y-80078933D01*
X192345180Y-80078933D02*
X192392800Y-79978933D01*
X192392800Y-79978933D02*
X192488038Y-79912267D01*
X192488038Y-79912267D02*
X192583276Y-79878933D01*
X192583276Y-79878933D02*
X192773752Y-79845600D01*
X192773752Y-79845600D02*
X192916609Y-79845600D01*
X192916609Y-79845600D02*
X193107085Y-79878933D01*
X193107085Y-79878933D02*
X193202323Y-79912267D01*
X193202323Y-79912267D02*
X193297561Y-79978933D01*
X193297561Y-79978933D02*
X193345180Y-80078933D01*
X193345180Y-80078933D02*
X193345180Y-80145600D01*
X193345180Y-80145600D02*
X193297561Y-80245600D01*
X193297561Y-80245600D02*
X193249942Y-80278933D01*
X193249942Y-80545600D02*
X193297561Y-80578933D01*
X193297561Y-80578933D02*
X193345180Y-80645600D01*
X193345180Y-80645600D02*
X193345180Y-80812267D01*
X193345180Y-80812267D02*
X193297561Y-80878933D01*
X193297561Y-80878933D02*
X193249942Y-80912267D01*
X193249942Y-80912267D02*
X193154704Y-80945600D01*
X193154704Y-80945600D02*
X193059466Y-80945600D01*
X193059466Y-80945600D02*
X192916609Y-80912267D01*
X192916609Y-80912267D02*
X192345180Y-80512267D01*
X192345180Y-80512267D02*
X192345180Y-80945600D01*
X225992619Y-57135533D02*
X225945000Y-57102200D01*
X225945000Y-57102200D02*
X225897380Y-57002200D01*
X225897380Y-57002200D02*
X225897380Y-56935533D01*
X225897380Y-56935533D02*
X225945000Y-56835533D01*
X225945000Y-56835533D02*
X226040238Y-56768867D01*
X226040238Y-56768867D02*
X226135476Y-56735533D01*
X226135476Y-56735533D02*
X226325952Y-56702200D01*
X226325952Y-56702200D02*
X226468809Y-56702200D01*
X226468809Y-56702200D02*
X226659285Y-56735533D01*
X226659285Y-56735533D02*
X226754523Y-56768867D01*
X226754523Y-56768867D02*
X226849761Y-56835533D01*
X226849761Y-56835533D02*
X226897380Y-56935533D01*
X226897380Y-56935533D02*
X226897380Y-57002200D01*
X226897380Y-57002200D02*
X226849761Y-57102200D01*
X226849761Y-57102200D02*
X226802142Y-57135533D01*
X226564047Y-57735533D02*
X225897380Y-57735533D01*
X226945000Y-57568867D02*
X226230714Y-57402200D01*
X226230714Y-57402200D02*
X226230714Y-57835533D01*
X143653695Y-73906533D02*
X143653695Y-74287485D01*
X143653695Y-74287485D02*
X142853695Y-74287485D01*
X143653695Y-73220819D02*
X143653695Y-73677962D01*
X143653695Y-73449390D02*
X142853695Y-73449390D01*
X142853695Y-73449390D02*
X142967980Y-73525581D01*
X142967980Y-73525581D02*
X143044171Y-73601771D01*
X143044171Y-73601771D02*
X143082266Y-73677962D01*
X141565476Y-79462295D02*
X141565476Y-80109914D01*
X141565476Y-80109914D02*
X141603571Y-80186104D01*
X141603571Y-80186104D02*
X141641666Y-80224200D01*
X141641666Y-80224200D02*
X141717857Y-80262295D01*
X141717857Y-80262295D02*
X141870238Y-80262295D01*
X141870238Y-80262295D02*
X141946428Y-80224200D01*
X141946428Y-80224200D02*
X141984523Y-80186104D01*
X141984523Y-80186104D02*
X142022619Y-80109914D01*
X142022619Y-80109914D02*
X142022619Y-79462295D01*
X142784523Y-79462295D02*
X142403571Y-79462295D01*
X142403571Y-79462295D02*
X142365475Y-79843247D01*
X142365475Y-79843247D02*
X142403571Y-79805152D01*
X142403571Y-79805152D02*
X142479761Y-79767057D01*
X142479761Y-79767057D02*
X142670237Y-79767057D01*
X142670237Y-79767057D02*
X142746428Y-79805152D01*
X142746428Y-79805152D02*
X142784523Y-79843247D01*
X142784523Y-79843247D02*
X142822618Y-79919438D01*
X142822618Y-79919438D02*
X142822618Y-80109914D01*
X142822618Y-80109914D02*
X142784523Y-80186104D01*
X142784523Y-80186104D02*
X142746428Y-80224200D01*
X142746428Y-80224200D02*
X142670237Y-80262295D01*
X142670237Y-80262295D02*
X142479761Y-80262295D01*
X142479761Y-80262295D02*
X142403571Y-80224200D01*
X142403571Y-80224200D02*
X142365475Y-80186104D01*
X131609580Y-80838865D02*
X131657200Y-80872198D01*
X131657200Y-80872198D02*
X131704819Y-80972198D01*
X131704819Y-80972198D02*
X131704819Y-81038865D01*
X131704819Y-81038865D02*
X131657200Y-81138865D01*
X131657200Y-81138865D02*
X131561961Y-81205532D01*
X131561961Y-81205532D02*
X131466723Y-81238865D01*
X131466723Y-81238865D02*
X131276247Y-81272198D01*
X131276247Y-81272198D02*
X131133390Y-81272198D01*
X131133390Y-81272198D02*
X130942914Y-81238865D01*
X130942914Y-81238865D02*
X130847676Y-81205532D01*
X130847676Y-81205532D02*
X130752438Y-81138865D01*
X130752438Y-81138865D02*
X130704819Y-81038865D01*
X130704819Y-81038865D02*
X130704819Y-80972198D01*
X130704819Y-80972198D02*
X130752438Y-80872198D01*
X130752438Y-80872198D02*
X130800057Y-80838865D01*
X131038152Y-80238865D02*
X131704819Y-80238865D01*
X130657200Y-80405532D02*
X131371485Y-80572198D01*
X131371485Y-80572198D02*
X131371485Y-80138865D01*
X139689580Y-53446666D02*
X139737200Y-53479999D01*
X139737200Y-53479999D02*
X139784819Y-53579999D01*
X139784819Y-53579999D02*
X139784819Y-53646666D01*
X139784819Y-53646666D02*
X139737200Y-53746666D01*
X139737200Y-53746666D02*
X139641961Y-53813333D01*
X139641961Y-53813333D02*
X139546723Y-53846666D01*
X139546723Y-53846666D02*
X139356247Y-53879999D01*
X139356247Y-53879999D02*
X139213390Y-53879999D01*
X139213390Y-53879999D02*
X139022914Y-53846666D01*
X139022914Y-53846666D02*
X138927676Y-53813333D01*
X138927676Y-53813333D02*
X138832438Y-53746666D01*
X138832438Y-53746666D02*
X138784819Y-53646666D01*
X138784819Y-53646666D02*
X138784819Y-53579999D01*
X138784819Y-53579999D02*
X138832438Y-53479999D01*
X138832438Y-53479999D02*
X138880057Y-53446666D01*
X138784819Y-52846666D02*
X138784819Y-52979999D01*
X138784819Y-52979999D02*
X138832438Y-53046666D01*
X138832438Y-53046666D02*
X138880057Y-53079999D01*
X138880057Y-53079999D02*
X139022914Y-53146666D01*
X139022914Y-53146666D02*
X139213390Y-53179999D01*
X139213390Y-53179999D02*
X139594342Y-53179999D01*
X139594342Y-53179999D02*
X139689580Y-53146666D01*
X139689580Y-53146666D02*
X139737200Y-53113333D01*
X139737200Y-53113333D02*
X139784819Y-53046666D01*
X139784819Y-53046666D02*
X139784819Y-52913333D01*
X139784819Y-52913333D02*
X139737200Y-52846666D01*
X139737200Y-52846666D02*
X139689580Y-52813333D01*
X139689580Y-52813333D02*
X139594342Y-52779999D01*
X139594342Y-52779999D02*
X139356247Y-52779999D01*
X139356247Y-52779999D02*
X139261009Y-52813333D01*
X139261009Y-52813333D02*
X139213390Y-52846666D01*
X139213390Y-52846666D02*
X139165771Y-52913333D01*
X139165771Y-52913333D02*
X139165771Y-53046666D01*
X139165771Y-53046666D02*
X139213390Y-53113333D01*
X139213390Y-53113333D02*
X139261009Y-53146666D01*
X139261009Y-53146666D02*
X139356247Y-53179999D01*
X198590476Y-57162295D02*
X198590476Y-57809914D01*
X198590476Y-57809914D02*
X198628571Y-57886104D01*
X198628571Y-57886104D02*
X198666666Y-57924200D01*
X198666666Y-57924200D02*
X198742857Y-57962295D01*
X198742857Y-57962295D02*
X198895238Y-57962295D01*
X198895238Y-57962295D02*
X198971428Y-57924200D01*
X198971428Y-57924200D02*
X199009523Y-57886104D01*
X199009523Y-57886104D02*
X199047619Y-57809914D01*
X199047619Y-57809914D02*
X199047619Y-57162295D01*
X199352380Y-57162295D02*
X199847618Y-57162295D01*
X199847618Y-57162295D02*
X199580952Y-57467057D01*
X199580952Y-57467057D02*
X199695237Y-57467057D01*
X199695237Y-57467057D02*
X199771428Y-57505152D01*
X199771428Y-57505152D02*
X199809523Y-57543247D01*
X199809523Y-57543247D02*
X199847618Y-57619438D01*
X199847618Y-57619438D02*
X199847618Y-57809914D01*
X199847618Y-57809914D02*
X199809523Y-57886104D01*
X199809523Y-57886104D02*
X199771428Y-57924200D01*
X199771428Y-57924200D02*
X199695237Y-57962295D01*
X199695237Y-57962295D02*
X199466666Y-57962295D01*
X199466666Y-57962295D02*
X199390475Y-57924200D01*
X199390475Y-57924200D02*
X199352380Y-57886104D01*
X154159580Y-71372268D02*
X154207200Y-71405601D01*
X154207200Y-71405601D02*
X154254819Y-71505601D01*
X154254819Y-71505601D02*
X154254819Y-71572268D01*
X154254819Y-71572268D02*
X154207200Y-71672268D01*
X154207200Y-71672268D02*
X154111961Y-71738935D01*
X154111961Y-71738935D02*
X154016723Y-71772268D01*
X154016723Y-71772268D02*
X153826247Y-71805601D01*
X153826247Y-71805601D02*
X153683390Y-71805601D01*
X153683390Y-71805601D02*
X153492914Y-71772268D01*
X153492914Y-71772268D02*
X153397676Y-71738935D01*
X153397676Y-71738935D02*
X153302438Y-71672268D01*
X153302438Y-71672268D02*
X153254819Y-71572268D01*
X153254819Y-71572268D02*
X153254819Y-71505601D01*
X153254819Y-71505601D02*
X153302438Y-71405601D01*
X153302438Y-71405601D02*
X153350057Y-71372268D01*
X153254819Y-71138935D02*
X153254819Y-70705601D01*
X153254819Y-70705601D02*
X153635771Y-70938935D01*
X153635771Y-70938935D02*
X153635771Y-70838935D01*
X153635771Y-70838935D02*
X153683390Y-70772268D01*
X153683390Y-70772268D02*
X153731009Y-70738935D01*
X153731009Y-70738935D02*
X153826247Y-70705601D01*
X153826247Y-70705601D02*
X154064342Y-70705601D01*
X154064342Y-70705601D02*
X154159580Y-70738935D01*
X154159580Y-70738935D02*
X154207200Y-70772268D01*
X154207200Y-70772268D02*
X154254819Y-70838935D01*
X154254819Y-70838935D02*
X154254819Y-71038935D01*
X154254819Y-71038935D02*
X154207200Y-71105601D01*
X154207200Y-71105601D02*
X154159580Y-71138935D01*
X223492619Y-57083333D02*
X223445000Y-57050000D01*
X223445000Y-57050000D02*
X223397380Y-56950000D01*
X223397380Y-56950000D02*
X223397380Y-56883333D01*
X223397380Y-56883333D02*
X223445000Y-56783333D01*
X223445000Y-56783333D02*
X223540238Y-56716667D01*
X223540238Y-56716667D02*
X223635476Y-56683333D01*
X223635476Y-56683333D02*
X223825952Y-56650000D01*
X223825952Y-56650000D02*
X223968809Y-56650000D01*
X223968809Y-56650000D02*
X224159285Y-56683333D01*
X224159285Y-56683333D02*
X224254523Y-56716667D01*
X224254523Y-56716667D02*
X224349761Y-56783333D01*
X224349761Y-56783333D02*
X224397380Y-56883333D01*
X224397380Y-56883333D02*
X224397380Y-56950000D01*
X224397380Y-56950000D02*
X224349761Y-57050000D01*
X224349761Y-57050000D02*
X224302142Y-57083333D01*
X224064047Y-57683333D02*
X223397380Y-57683333D01*
X224445000Y-57516667D02*
X223730714Y-57350000D01*
X223730714Y-57350000D02*
X223730714Y-57783333D01*
X194940419Y-80278933D02*
X194892800Y-80245600D01*
X194892800Y-80245600D02*
X194845180Y-80145600D01*
X194845180Y-80145600D02*
X194845180Y-80078933D01*
X194845180Y-80078933D02*
X194892800Y-79978933D01*
X194892800Y-79978933D02*
X194988038Y-79912267D01*
X194988038Y-79912267D02*
X195083276Y-79878933D01*
X195083276Y-79878933D02*
X195273752Y-79845600D01*
X195273752Y-79845600D02*
X195416609Y-79845600D01*
X195416609Y-79845600D02*
X195607085Y-79878933D01*
X195607085Y-79878933D02*
X195702323Y-79912267D01*
X195702323Y-79912267D02*
X195797561Y-79978933D01*
X195797561Y-79978933D02*
X195845180Y-80078933D01*
X195845180Y-80078933D02*
X195845180Y-80145600D01*
X195845180Y-80145600D02*
X195797561Y-80245600D01*
X195797561Y-80245600D02*
X195749942Y-80278933D01*
X195511847Y-80878933D02*
X194845180Y-80878933D01*
X195892800Y-80712267D02*
X195178514Y-80545600D01*
X195178514Y-80545600D02*
X195178514Y-80978933D01*
X129245180Y-63166666D02*
X128530895Y-63166666D01*
X128530895Y-63166666D02*
X128388038Y-63119047D01*
X128388038Y-63119047D02*
X128292800Y-63023809D01*
X128292800Y-63023809D02*
X128245180Y-62880952D01*
X128245180Y-62880952D02*
X128245180Y-62785714D01*
X128245180Y-64166666D02*
X128245180Y-63595238D01*
X128245180Y-63880952D02*
X129245180Y-63880952D01*
X129245180Y-63880952D02*
X129102323Y-63785714D01*
X129102323Y-63785714D02*
X129007085Y-63690476D01*
X129007085Y-63690476D02*
X128959466Y-63595238D01*
X156529818Y-71394465D02*
X156053627Y-71627798D01*
X156529818Y-71794465D02*
X155529818Y-71794465D01*
X155529818Y-71794465D02*
X155529818Y-71527798D01*
X155529818Y-71527798D02*
X155577437Y-71461132D01*
X155577437Y-71461132D02*
X155625056Y-71427798D01*
X155625056Y-71427798D02*
X155720294Y-71394465D01*
X155720294Y-71394465D02*
X155863151Y-71394465D01*
X155863151Y-71394465D02*
X155958389Y-71427798D01*
X155958389Y-71427798D02*
X156006008Y-71461132D01*
X156006008Y-71461132D02*
X156053627Y-71527798D01*
X156053627Y-71527798D02*
X156053627Y-71794465D01*
X155958389Y-70994465D02*
X155910770Y-71061132D01*
X155910770Y-71061132D02*
X155863151Y-71094465D01*
X155863151Y-71094465D02*
X155767913Y-71127798D01*
X155767913Y-71127798D02*
X155720294Y-71127798D01*
X155720294Y-71127798D02*
X155625056Y-71094465D01*
X155625056Y-71094465D02*
X155577437Y-71061132D01*
X155577437Y-71061132D02*
X155529818Y-70994465D01*
X155529818Y-70994465D02*
X155529818Y-70861132D01*
X155529818Y-70861132D02*
X155577437Y-70794465D01*
X155577437Y-70794465D02*
X155625056Y-70761132D01*
X155625056Y-70761132D02*
X155720294Y-70727798D01*
X155720294Y-70727798D02*
X155767913Y-70727798D01*
X155767913Y-70727798D02*
X155863151Y-70761132D01*
X155863151Y-70761132D02*
X155910770Y-70794465D01*
X155910770Y-70794465D02*
X155958389Y-70861132D01*
X155958389Y-70861132D02*
X155958389Y-70994465D01*
X155958389Y-70994465D02*
X156006008Y-71061132D01*
X156006008Y-71061132D02*
X156053627Y-71094465D01*
X156053627Y-71094465D02*
X156148865Y-71127798D01*
X156148865Y-71127798D02*
X156339341Y-71127798D01*
X156339341Y-71127798D02*
X156434579Y-71094465D01*
X156434579Y-71094465D02*
X156482199Y-71061132D01*
X156482199Y-71061132D02*
X156529818Y-70994465D01*
X156529818Y-70994465D02*
X156529818Y-70861132D01*
X156529818Y-70861132D02*
X156482199Y-70794465D01*
X156482199Y-70794465D02*
X156434579Y-70761132D01*
X156434579Y-70761132D02*
X156339341Y-70727798D01*
X156339341Y-70727798D02*
X156148865Y-70727798D01*
X156148865Y-70727798D02*
X156053627Y-70761132D01*
X156053627Y-70761132D02*
X156006008Y-70794465D01*
X156006008Y-70794465D02*
X155958389Y-70861132D01*
X141344819Y-68884266D02*
X140868628Y-69117599D01*
X141344819Y-69284266D02*
X140344819Y-69284266D01*
X140344819Y-69284266D02*
X140344819Y-69017599D01*
X140344819Y-69017599D02*
X140392438Y-68950933D01*
X140392438Y-68950933D02*
X140440057Y-68917599D01*
X140440057Y-68917599D02*
X140535295Y-68884266D01*
X140535295Y-68884266D02*
X140678152Y-68884266D01*
X140678152Y-68884266D02*
X140773390Y-68917599D01*
X140773390Y-68917599D02*
X140821009Y-68950933D01*
X140821009Y-68950933D02*
X140868628Y-69017599D01*
X140868628Y-69017599D02*
X140868628Y-69284266D01*
X140440057Y-68617599D02*
X140392438Y-68584266D01*
X140392438Y-68584266D02*
X140344819Y-68517599D01*
X140344819Y-68517599D02*
X140344819Y-68350933D01*
X140344819Y-68350933D02*
X140392438Y-68284266D01*
X140392438Y-68284266D02*
X140440057Y-68250933D01*
X140440057Y-68250933D02*
X140535295Y-68217599D01*
X140535295Y-68217599D02*
X140630533Y-68217599D01*
X140630533Y-68217599D02*
X140773390Y-68250933D01*
X140773390Y-68250933D02*
X141344819Y-68650933D01*
X141344819Y-68650933D02*
X141344819Y-68217599D01*
X136794819Y-68985666D02*
X136318628Y-69218999D01*
X136794819Y-69385666D02*
X135794819Y-69385666D01*
X135794819Y-69385666D02*
X135794819Y-69118999D01*
X135794819Y-69118999D02*
X135842438Y-69052333D01*
X135842438Y-69052333D02*
X135890057Y-69018999D01*
X135890057Y-69018999D02*
X135985295Y-68985666D01*
X135985295Y-68985666D02*
X136128152Y-68985666D01*
X136128152Y-68985666D02*
X136223390Y-69018999D01*
X136223390Y-69018999D02*
X136271009Y-69052333D01*
X136271009Y-69052333D02*
X136318628Y-69118999D01*
X136318628Y-69118999D02*
X136318628Y-69385666D01*
X136128152Y-68385666D02*
X136794819Y-68385666D01*
X135747200Y-68552333D02*
X136461485Y-68718999D01*
X136461485Y-68718999D02*
X136461485Y-68285666D01*
X199890419Y-74925531D02*
X199842800Y-74892198D01*
X199842800Y-74892198D02*
X199795180Y-74792198D01*
X199795180Y-74792198D02*
X199795180Y-74725531D01*
X199795180Y-74725531D02*
X199842800Y-74625531D01*
X199842800Y-74625531D02*
X199938038Y-74558865D01*
X199938038Y-74558865D02*
X200033276Y-74525531D01*
X200033276Y-74525531D02*
X200223752Y-74492198D01*
X200223752Y-74492198D02*
X200366609Y-74492198D01*
X200366609Y-74492198D02*
X200557085Y-74525531D01*
X200557085Y-74525531D02*
X200652323Y-74558865D01*
X200652323Y-74558865D02*
X200747561Y-74625531D01*
X200747561Y-74625531D02*
X200795180Y-74725531D01*
X200795180Y-74725531D02*
X200795180Y-74792198D01*
X200795180Y-74792198D02*
X200747561Y-74892198D01*
X200747561Y-74892198D02*
X200699942Y-74925531D01*
X200461847Y-75525531D02*
X199795180Y-75525531D01*
X200842800Y-75358865D02*
X200128514Y-75192198D01*
X200128514Y-75192198D02*
X200128514Y-75625531D01*
X129459580Y-74178566D02*
X129507200Y-74211899D01*
X129507200Y-74211899D02*
X129554819Y-74311899D01*
X129554819Y-74311899D02*
X129554819Y-74378566D01*
X129554819Y-74378566D02*
X129507200Y-74478566D01*
X129507200Y-74478566D02*
X129411961Y-74545233D01*
X129411961Y-74545233D02*
X129316723Y-74578566D01*
X129316723Y-74578566D02*
X129126247Y-74611899D01*
X129126247Y-74611899D02*
X128983390Y-74611899D01*
X128983390Y-74611899D02*
X128792914Y-74578566D01*
X128792914Y-74578566D02*
X128697676Y-74545233D01*
X128697676Y-74545233D02*
X128602438Y-74478566D01*
X128602438Y-74478566D02*
X128554819Y-74378566D01*
X128554819Y-74378566D02*
X128554819Y-74311899D01*
X128554819Y-74311899D02*
X128602438Y-74211899D01*
X128602438Y-74211899D02*
X128650057Y-74178566D01*
X128650057Y-73911899D02*
X128602438Y-73878566D01*
X128602438Y-73878566D02*
X128554819Y-73811899D01*
X128554819Y-73811899D02*
X128554819Y-73645233D01*
X128554819Y-73645233D02*
X128602438Y-73578566D01*
X128602438Y-73578566D02*
X128650057Y-73545233D01*
X128650057Y-73545233D02*
X128745295Y-73511899D01*
X128745295Y-73511899D02*
X128840533Y-73511899D01*
X128840533Y-73511899D02*
X128983390Y-73545233D01*
X128983390Y-73545233D02*
X129554819Y-73945233D01*
X129554819Y-73945233D02*
X129554819Y-73511899D01*
X197440419Y-80331133D02*
X197392800Y-80297800D01*
X197392800Y-80297800D02*
X197345180Y-80197800D01*
X197345180Y-80197800D02*
X197345180Y-80131133D01*
X197345180Y-80131133D02*
X197392800Y-80031133D01*
X197392800Y-80031133D02*
X197488038Y-79964467D01*
X197488038Y-79964467D02*
X197583276Y-79931133D01*
X197583276Y-79931133D02*
X197773752Y-79897800D01*
X197773752Y-79897800D02*
X197916609Y-79897800D01*
X197916609Y-79897800D02*
X198107085Y-79931133D01*
X198107085Y-79931133D02*
X198202323Y-79964467D01*
X198202323Y-79964467D02*
X198297561Y-80031133D01*
X198297561Y-80031133D02*
X198345180Y-80131133D01*
X198345180Y-80131133D02*
X198345180Y-80197800D01*
X198345180Y-80197800D02*
X198297561Y-80297800D01*
X198297561Y-80297800D02*
X198249942Y-80331133D01*
X198011847Y-80931133D02*
X197345180Y-80931133D01*
X198392800Y-80764467D02*
X197678514Y-80597800D01*
X197678514Y-80597800D02*
X197678514Y-81031133D01*
X163015182Y-61015542D02*
X163062802Y-61058399D01*
X163062802Y-61058399D02*
X163110421Y-61186971D01*
X163110421Y-61186971D02*
X163110421Y-61272685D01*
X163110421Y-61272685D02*
X163062802Y-61401256D01*
X163062802Y-61401256D02*
X162967563Y-61486971D01*
X162967563Y-61486971D02*
X162872325Y-61529828D01*
X162872325Y-61529828D02*
X162681849Y-61572685D01*
X162681849Y-61572685D02*
X162538992Y-61572685D01*
X162538992Y-61572685D02*
X162348516Y-61529828D01*
X162348516Y-61529828D02*
X162253278Y-61486971D01*
X162253278Y-61486971D02*
X162158040Y-61401256D01*
X162158040Y-61401256D02*
X162110421Y-61272685D01*
X162110421Y-61272685D02*
X162110421Y-61186971D01*
X162110421Y-61186971D02*
X162158040Y-61058399D01*
X162158040Y-61058399D02*
X162205659Y-61015542D01*
X163110421Y-60115542D02*
X162634230Y-60415542D01*
X163110421Y-60629828D02*
X162110421Y-60629828D01*
X162110421Y-60629828D02*
X162110421Y-60286971D01*
X162110421Y-60286971D02*
X162158040Y-60201256D01*
X162158040Y-60201256D02*
X162205659Y-60158399D01*
X162205659Y-60158399D02*
X162300897Y-60115542D01*
X162300897Y-60115542D02*
X162443754Y-60115542D01*
X162443754Y-60115542D02*
X162538992Y-60158399D01*
X162538992Y-60158399D02*
X162586611Y-60201256D01*
X162586611Y-60201256D02*
X162634230Y-60286971D01*
X162634230Y-60286971D02*
X162634230Y-60629828D01*
X163062802Y-59772685D02*
X163110421Y-59644114D01*
X163110421Y-59644114D02*
X163110421Y-59429828D01*
X163110421Y-59429828D02*
X163062802Y-59344114D01*
X163062802Y-59344114D02*
X163015182Y-59301256D01*
X163015182Y-59301256D02*
X162919944Y-59258399D01*
X162919944Y-59258399D02*
X162824706Y-59258399D01*
X162824706Y-59258399D02*
X162729468Y-59301256D01*
X162729468Y-59301256D02*
X162681849Y-59344114D01*
X162681849Y-59344114D02*
X162634230Y-59429828D01*
X162634230Y-59429828D02*
X162586611Y-59601256D01*
X162586611Y-59601256D02*
X162538992Y-59686971D01*
X162538992Y-59686971D02*
X162491373Y-59729828D01*
X162491373Y-59729828D02*
X162396135Y-59772685D01*
X162396135Y-59772685D02*
X162300897Y-59772685D01*
X162300897Y-59772685D02*
X162205659Y-59729828D01*
X162205659Y-59729828D02*
X162158040Y-59686971D01*
X162158040Y-59686971D02*
X162110421Y-59601256D01*
X162110421Y-59601256D02*
X162110421Y-59386971D01*
X162110421Y-59386971D02*
X162158040Y-59258399D01*
X162110421Y-59001256D02*
X162110421Y-58486971D01*
X163110421Y-58744113D02*
X162110421Y-58744113D01*
X163110421Y-57758399D02*
X163110421Y-58186971D01*
X163110421Y-58186971D02*
X162110421Y-58186971D01*
X136454819Y-60039066D02*
X135978628Y-60272399D01*
X136454819Y-60439066D02*
X135454819Y-60439066D01*
X135454819Y-60439066D02*
X135454819Y-60172399D01*
X135454819Y-60172399D02*
X135502438Y-60105733D01*
X135502438Y-60105733D02*
X135550057Y-60072399D01*
X135550057Y-60072399D02*
X135645295Y-60039066D01*
X135645295Y-60039066D02*
X135788152Y-60039066D01*
X135788152Y-60039066D02*
X135883390Y-60072399D01*
X135883390Y-60072399D02*
X135931009Y-60105733D01*
X135931009Y-60105733D02*
X135978628Y-60172399D01*
X135978628Y-60172399D02*
X135978628Y-60439066D01*
X136454819Y-59372399D02*
X136454819Y-59772399D01*
X136454819Y-59572399D02*
X135454819Y-59572399D01*
X135454819Y-59572399D02*
X135597676Y-59639066D01*
X135597676Y-59639066D02*
X135692914Y-59705733D01*
X135692914Y-59705733D02*
X135740533Y-59772399D01*
X137737133Y-89104819D02*
X137503800Y-88628628D01*
X137337133Y-89104819D02*
X137337133Y-88104819D01*
X137337133Y-88104819D02*
X137603800Y-88104819D01*
X137603800Y-88104819D02*
X137670467Y-88152438D01*
X137670467Y-88152438D02*
X137703800Y-88200057D01*
X137703800Y-88200057D02*
X137737133Y-88295295D01*
X137737133Y-88295295D02*
X137737133Y-88438152D01*
X137737133Y-88438152D02*
X137703800Y-88533390D01*
X137703800Y-88533390D02*
X137670467Y-88581009D01*
X137670467Y-88581009D02*
X137603800Y-88628628D01*
X137603800Y-88628628D02*
X137337133Y-88628628D01*
X138370467Y-88104819D02*
X138037133Y-88104819D01*
X138037133Y-88104819D02*
X138003800Y-88581009D01*
X138003800Y-88581009D02*
X138037133Y-88533390D01*
X138037133Y-88533390D02*
X138103800Y-88485771D01*
X138103800Y-88485771D02*
X138270467Y-88485771D01*
X138270467Y-88485771D02*
X138337133Y-88533390D01*
X138337133Y-88533390D02*
X138370467Y-88581009D01*
X138370467Y-88581009D02*
X138403800Y-88676247D01*
X138403800Y-88676247D02*
X138403800Y-88914342D01*
X138403800Y-88914342D02*
X138370467Y-89009580D01*
X138370467Y-89009580D02*
X138337133Y-89057200D01*
X138337133Y-89057200D02*
X138270467Y-89104819D01*
X138270467Y-89104819D02*
X138103800Y-89104819D01*
X138103800Y-89104819D02*
X138037133Y-89057200D01*
X138037133Y-89057200D02*
X138003800Y-89009580D01*
X146032780Y-68716666D02*
X146080400Y-68749999D01*
X146080400Y-68749999D02*
X146128019Y-68849999D01*
X146128019Y-68849999D02*
X146128019Y-68916666D01*
X146128019Y-68916666D02*
X146080400Y-69016666D01*
X146080400Y-69016666D02*
X145985161Y-69083333D01*
X145985161Y-69083333D02*
X145889923Y-69116666D01*
X145889923Y-69116666D02*
X145699447Y-69149999D01*
X145699447Y-69149999D02*
X145556590Y-69149999D01*
X145556590Y-69149999D02*
X145366114Y-69116666D01*
X145366114Y-69116666D02*
X145270876Y-69083333D01*
X145270876Y-69083333D02*
X145175638Y-69016666D01*
X145175638Y-69016666D02*
X145128019Y-68916666D01*
X145128019Y-68916666D02*
X145128019Y-68849999D01*
X145128019Y-68849999D02*
X145175638Y-68749999D01*
X145175638Y-68749999D02*
X145223257Y-68716666D01*
X146128019Y-68049999D02*
X146128019Y-68449999D01*
X146128019Y-68249999D02*
X145128019Y-68249999D01*
X145128019Y-68249999D02*
X145270876Y-68316666D01*
X145270876Y-68316666D02*
X145366114Y-68383333D01*
X145366114Y-68383333D02*
X145413733Y-68449999D01*
X137734133Y-84644819D02*
X137500800Y-84168628D01*
X137334133Y-84644819D02*
X137334133Y-83644819D01*
X137334133Y-83644819D02*
X137600800Y-83644819D01*
X137600800Y-83644819D02*
X137667467Y-83692438D01*
X137667467Y-83692438D02*
X137700800Y-83740057D01*
X137700800Y-83740057D02*
X137734133Y-83835295D01*
X137734133Y-83835295D02*
X137734133Y-83978152D01*
X137734133Y-83978152D02*
X137700800Y-84073390D01*
X137700800Y-84073390D02*
X137667467Y-84121009D01*
X137667467Y-84121009D02*
X137600800Y-84168628D01*
X137600800Y-84168628D02*
X137334133Y-84168628D01*
X137967467Y-83644819D02*
X138434133Y-83644819D01*
X138434133Y-83644819D02*
X138134133Y-84644819D01*
X147939580Y-53518865D02*
X147987200Y-53552198D01*
X147987200Y-53552198D02*
X148034819Y-53652198D01*
X148034819Y-53652198D02*
X148034819Y-53718865D01*
X148034819Y-53718865D02*
X147987200Y-53818865D01*
X147987200Y-53818865D02*
X147891961Y-53885532D01*
X147891961Y-53885532D02*
X147796723Y-53918865D01*
X147796723Y-53918865D02*
X147606247Y-53952198D01*
X147606247Y-53952198D02*
X147463390Y-53952198D01*
X147463390Y-53952198D02*
X147272914Y-53918865D01*
X147272914Y-53918865D02*
X147177676Y-53885532D01*
X147177676Y-53885532D02*
X147082438Y-53818865D01*
X147082438Y-53818865D02*
X147034819Y-53718865D01*
X147034819Y-53718865D02*
X147034819Y-53652198D01*
X147034819Y-53652198D02*
X147082438Y-53552198D01*
X147082438Y-53552198D02*
X147130057Y-53518865D01*
X147034819Y-52918865D02*
X147034819Y-53052198D01*
X147034819Y-53052198D02*
X147082438Y-53118865D01*
X147082438Y-53118865D02*
X147130057Y-53152198D01*
X147130057Y-53152198D02*
X147272914Y-53218865D01*
X147272914Y-53218865D02*
X147463390Y-53252198D01*
X147463390Y-53252198D02*
X147844342Y-53252198D01*
X147844342Y-53252198D02*
X147939580Y-53218865D01*
X147939580Y-53218865D02*
X147987200Y-53185532D01*
X147987200Y-53185532D02*
X148034819Y-53118865D01*
X148034819Y-53118865D02*
X148034819Y-52985532D01*
X148034819Y-52985532D02*
X147987200Y-52918865D01*
X147987200Y-52918865D02*
X147939580Y-52885532D01*
X147939580Y-52885532D02*
X147844342Y-52852198D01*
X147844342Y-52852198D02*
X147606247Y-52852198D01*
X147606247Y-52852198D02*
X147511009Y-52885532D01*
X147511009Y-52885532D02*
X147463390Y-52918865D01*
X147463390Y-52918865D02*
X147415771Y-52985532D01*
X147415771Y-52985532D02*
X147415771Y-53118865D01*
X147415771Y-53118865D02*
X147463390Y-53185532D01*
X147463390Y-53185532D02*
X147511009Y-53218865D01*
X147511009Y-53218865D02*
X147606247Y-53252198D01*
X142045180Y-59038095D02*
X141235657Y-59038095D01*
X141235657Y-59038095D02*
X141140419Y-59085714D01*
X141140419Y-59085714D02*
X141092800Y-59133333D01*
X141092800Y-59133333D02*
X141045180Y-59228571D01*
X141045180Y-59228571D02*
X141045180Y-59419047D01*
X141045180Y-59419047D02*
X141092800Y-59514285D01*
X141092800Y-59514285D02*
X141140419Y-59561904D01*
X141140419Y-59561904D02*
X141235657Y-59609523D01*
X141235657Y-59609523D02*
X142045180Y-59609523D01*
X141949942Y-60038095D02*
X141997561Y-60085714D01*
X141997561Y-60085714D02*
X142045180Y-60180952D01*
X142045180Y-60180952D02*
X142045180Y-60419047D01*
X142045180Y-60419047D02*
X141997561Y-60514285D01*
X141997561Y-60514285D02*
X141949942Y-60561904D01*
X141949942Y-60561904D02*
X141854704Y-60609523D01*
X141854704Y-60609523D02*
X141759466Y-60609523D01*
X141759466Y-60609523D02*
X141616609Y-60561904D01*
X141616609Y-60561904D02*
X141045180Y-59990476D01*
X141045180Y-59990476D02*
X141045180Y-60609523D01*
X144025000Y-62404819D02*
X144025000Y-62642914D01*
X143786905Y-62547676D02*
X144025000Y-62642914D01*
X144025000Y-62642914D02*
X144263095Y-62547676D01*
X143882143Y-62833390D02*
X144025000Y-62642914D01*
X144025000Y-62642914D02*
X144167857Y-62833390D01*
X230992619Y-57025531D02*
X230945000Y-56992198D01*
X230945000Y-56992198D02*
X230897380Y-56892198D01*
X230897380Y-56892198D02*
X230897380Y-56825531D01*
X230897380Y-56825531D02*
X230945000Y-56725531D01*
X230945000Y-56725531D02*
X231040238Y-56658865D01*
X231040238Y-56658865D02*
X231135476Y-56625531D01*
X231135476Y-56625531D02*
X231325952Y-56592198D01*
X231325952Y-56592198D02*
X231468809Y-56592198D01*
X231468809Y-56592198D02*
X231659285Y-56625531D01*
X231659285Y-56625531D02*
X231754523Y-56658865D01*
X231754523Y-56658865D02*
X231849761Y-56725531D01*
X231849761Y-56725531D02*
X231897380Y-56825531D01*
X231897380Y-56825531D02*
X231897380Y-56892198D01*
X231897380Y-56892198D02*
X231849761Y-56992198D01*
X231849761Y-56992198D02*
X231802142Y-57025531D01*
X231564047Y-57625531D02*
X230897380Y-57625531D01*
X231945000Y-57458865D02*
X231230714Y-57292198D01*
X231230714Y-57292198D02*
X231230714Y-57725531D01*
X140610133Y-91659580D02*
X140576800Y-91707200D01*
X140576800Y-91707200D02*
X140476800Y-91754819D01*
X140476800Y-91754819D02*
X140410133Y-91754819D01*
X140410133Y-91754819D02*
X140310133Y-91707200D01*
X140310133Y-91707200D02*
X140243467Y-91611961D01*
X140243467Y-91611961D02*
X140210133Y-91516723D01*
X140210133Y-91516723D02*
X140176800Y-91326247D01*
X140176800Y-91326247D02*
X140176800Y-91183390D01*
X140176800Y-91183390D02*
X140210133Y-90992914D01*
X140210133Y-90992914D02*
X140243467Y-90897676D01*
X140243467Y-90897676D02*
X140310133Y-90802438D01*
X140310133Y-90802438D02*
X140410133Y-90754819D01*
X140410133Y-90754819D02*
X140476800Y-90754819D01*
X140476800Y-90754819D02*
X140576800Y-90802438D01*
X140576800Y-90802438D02*
X140610133Y-90850057D01*
X141276800Y-91754819D02*
X140876800Y-91754819D01*
X141076800Y-91754819D02*
X141076800Y-90754819D01*
X141076800Y-90754819D02*
X141010133Y-90897676D01*
X141010133Y-90897676D02*
X140943467Y-90992914D01*
X140943467Y-90992914D02*
X140876800Y-91040533D01*
X220992619Y-57163334D02*
X220945000Y-57130001D01*
X220945000Y-57130001D02*
X220897380Y-57030001D01*
X220897380Y-57030001D02*
X220897380Y-56963334D01*
X220897380Y-56963334D02*
X220945000Y-56863334D01*
X220945000Y-56863334D02*
X221040238Y-56796668D01*
X221040238Y-56796668D02*
X221135476Y-56763334D01*
X221135476Y-56763334D02*
X221325952Y-56730001D01*
X221325952Y-56730001D02*
X221468809Y-56730001D01*
X221468809Y-56730001D02*
X221659285Y-56763334D01*
X221659285Y-56763334D02*
X221754523Y-56796668D01*
X221754523Y-56796668D02*
X221849761Y-56863334D01*
X221849761Y-56863334D02*
X221897380Y-56963334D01*
X221897380Y-56963334D02*
X221897380Y-57030001D01*
X221897380Y-57030001D02*
X221849761Y-57130001D01*
X221849761Y-57130001D02*
X221802142Y-57163334D01*
X221802142Y-57430001D02*
X221849761Y-57463334D01*
X221849761Y-57463334D02*
X221897380Y-57530001D01*
X221897380Y-57530001D02*
X221897380Y-57696668D01*
X221897380Y-57696668D02*
X221849761Y-57763334D01*
X221849761Y-57763334D02*
X221802142Y-57796668D01*
X221802142Y-57796668D02*
X221706904Y-57830001D01*
X221706904Y-57830001D02*
X221611666Y-57830001D01*
X221611666Y-57830001D02*
X221468809Y-57796668D01*
X221468809Y-57796668D02*
X220897380Y-57396668D01*
X220897380Y-57396668D02*
X220897380Y-57830001D01*
X166819580Y-56296666D02*
X166867200Y-56329999D01*
X166867200Y-56329999D02*
X166914819Y-56429999D01*
X166914819Y-56429999D02*
X166914819Y-56496666D01*
X166914819Y-56496666D02*
X166867200Y-56596666D01*
X166867200Y-56596666D02*
X166771961Y-56663333D01*
X166771961Y-56663333D02*
X166676723Y-56696666D01*
X166676723Y-56696666D02*
X166486247Y-56729999D01*
X166486247Y-56729999D02*
X166343390Y-56729999D01*
X166343390Y-56729999D02*
X166152914Y-56696666D01*
X166152914Y-56696666D02*
X166057676Y-56663333D01*
X166057676Y-56663333D02*
X165962438Y-56596666D01*
X165962438Y-56596666D02*
X165914819Y-56496666D01*
X165914819Y-56496666D02*
X165914819Y-56429999D01*
X165914819Y-56429999D02*
X165962438Y-56329999D01*
X165962438Y-56329999D02*
X166010057Y-56296666D01*
X165914819Y-56063333D02*
X165914819Y-55596666D01*
X165914819Y-55596666D02*
X166914819Y-55896666D01*
X194790419Y-74935533D02*
X194742800Y-74902200D01*
X194742800Y-74902200D02*
X194695180Y-74802200D01*
X194695180Y-74802200D02*
X194695180Y-74735533D01*
X194695180Y-74735533D02*
X194742800Y-74635533D01*
X194742800Y-74635533D02*
X194838038Y-74568867D01*
X194838038Y-74568867D02*
X194933276Y-74535533D01*
X194933276Y-74535533D02*
X195123752Y-74502200D01*
X195123752Y-74502200D02*
X195266609Y-74502200D01*
X195266609Y-74502200D02*
X195457085Y-74535533D01*
X195457085Y-74535533D02*
X195552323Y-74568867D01*
X195552323Y-74568867D02*
X195647561Y-74635533D01*
X195647561Y-74635533D02*
X195695180Y-74735533D01*
X195695180Y-74735533D02*
X195695180Y-74802200D01*
X195695180Y-74802200D02*
X195647561Y-74902200D01*
X195647561Y-74902200D02*
X195599942Y-74935533D01*
X195361847Y-75535533D02*
X194695180Y-75535533D01*
X195742800Y-75368867D02*
X195028514Y-75202200D01*
X195028514Y-75202200D02*
X195028514Y-75635533D01*
X218792857Y-53731009D02*
X218459524Y-53731009D01*
X218459524Y-54254819D02*
X218459524Y-53254819D01*
X218459524Y-53254819D02*
X218935714Y-53254819D01*
X219650000Y-53731009D02*
X219792857Y-53778628D01*
X219792857Y-53778628D02*
X219840476Y-53826247D01*
X219840476Y-53826247D02*
X219888095Y-53921485D01*
X219888095Y-53921485D02*
X219888095Y-54064342D01*
X219888095Y-54064342D02*
X219840476Y-54159580D01*
X219840476Y-54159580D02*
X219792857Y-54207200D01*
X219792857Y-54207200D02*
X219697619Y-54254819D01*
X219697619Y-54254819D02*
X219316667Y-54254819D01*
X219316667Y-54254819D02*
X219316667Y-53254819D01*
X219316667Y-53254819D02*
X219650000Y-53254819D01*
X219650000Y-53254819D02*
X219745238Y-53302438D01*
X219745238Y-53302438D02*
X219792857Y-53350057D01*
X219792857Y-53350057D02*
X219840476Y-53445295D01*
X219840476Y-53445295D02*
X219840476Y-53540533D01*
X219840476Y-53540533D02*
X219792857Y-53635771D01*
X219792857Y-53635771D02*
X219745238Y-53683390D01*
X219745238Y-53683390D02*
X219650000Y-53731009D01*
X219650000Y-53731009D02*
X219316667Y-53731009D01*
X209842857Y-48231009D02*
X209509524Y-48231009D01*
X209509524Y-48754819D02*
X209509524Y-47754819D01*
X209509524Y-47754819D02*
X209985714Y-47754819D01*
X210700000Y-48231009D02*
X210842857Y-48278628D01*
X210842857Y-48278628D02*
X210890476Y-48326247D01*
X210890476Y-48326247D02*
X210938095Y-48421485D01*
X210938095Y-48421485D02*
X210938095Y-48564342D01*
X210938095Y-48564342D02*
X210890476Y-48659580D01*
X210890476Y-48659580D02*
X210842857Y-48707200D01*
X210842857Y-48707200D02*
X210747619Y-48754819D01*
X210747619Y-48754819D02*
X210366667Y-48754819D01*
X210366667Y-48754819D02*
X210366667Y-47754819D01*
X210366667Y-47754819D02*
X210700000Y-47754819D01*
X210700000Y-47754819D02*
X210795238Y-47802438D01*
X210795238Y-47802438D02*
X210842857Y-47850057D01*
X210842857Y-47850057D02*
X210890476Y-47945295D01*
X210890476Y-47945295D02*
X210890476Y-48040533D01*
X210890476Y-48040533D02*
X210842857Y-48135771D01*
X210842857Y-48135771D02*
X210795238Y-48183390D01*
X210795238Y-48183390D02*
X210700000Y-48231009D01*
X210700000Y-48231009D02*
X210366667Y-48231009D01*
X134059580Y-74178566D02*
X134107200Y-74211899D01*
X134107200Y-74211899D02*
X134154819Y-74311899D01*
X134154819Y-74311899D02*
X134154819Y-74378566D01*
X134154819Y-74378566D02*
X134107200Y-74478566D01*
X134107200Y-74478566D02*
X134011961Y-74545233D01*
X134011961Y-74545233D02*
X133916723Y-74578566D01*
X133916723Y-74578566D02*
X133726247Y-74611899D01*
X133726247Y-74611899D02*
X133583390Y-74611899D01*
X133583390Y-74611899D02*
X133392914Y-74578566D01*
X133392914Y-74578566D02*
X133297676Y-74545233D01*
X133297676Y-74545233D02*
X133202438Y-74478566D01*
X133202438Y-74478566D02*
X133154819Y-74378566D01*
X133154819Y-74378566D02*
X133154819Y-74311899D01*
X133154819Y-74311899D02*
X133202438Y-74211899D01*
X133202438Y-74211899D02*
X133250057Y-74178566D01*
X133250057Y-73911899D02*
X133202438Y-73878566D01*
X133202438Y-73878566D02*
X133154819Y-73811899D01*
X133154819Y-73811899D02*
X133154819Y-73645233D01*
X133154819Y-73645233D02*
X133202438Y-73578566D01*
X133202438Y-73578566D02*
X133250057Y-73545233D01*
X133250057Y-73545233D02*
X133345295Y-73511899D01*
X133345295Y-73511899D02*
X133440533Y-73511899D01*
X133440533Y-73511899D02*
X133583390Y-73545233D01*
X133583390Y-73545233D02*
X134154819Y-73945233D01*
X134154819Y-73945233D02*
X134154819Y-73511899D01*
X153030476Y-59207995D02*
X153030476Y-59855614D01*
X153030476Y-59855614D02*
X153068571Y-59931804D01*
X153068571Y-59931804D02*
X153106666Y-59969900D01*
X153106666Y-59969900D02*
X153182857Y-60007995D01*
X153182857Y-60007995D02*
X153335238Y-60007995D01*
X153335238Y-60007995D02*
X153411428Y-59969900D01*
X153411428Y-59969900D02*
X153449523Y-59931804D01*
X153449523Y-59931804D02*
X153487619Y-59855614D01*
X153487619Y-59855614D02*
X153487619Y-59207995D01*
X154287618Y-60007995D02*
X153830475Y-60007995D01*
X154059047Y-60007995D02*
X154059047Y-59207995D01*
X154059047Y-59207995D02*
X153982856Y-59322280D01*
X153982856Y-59322280D02*
X153906666Y-59398471D01*
X153906666Y-59398471D02*
X153830475Y-59436566D01*
X149479819Y-63774999D02*
X149717914Y-63774999D01*
X149622676Y-64013094D02*
X149717914Y-63774999D01*
X149717914Y-63774999D02*
X149622676Y-63536904D01*
X149908390Y-63917856D02*
X149717914Y-63774999D01*
X149717914Y-63774999D02*
X149908390Y-63632142D01*
X142189580Y-53446666D02*
X142237200Y-53479999D01*
X142237200Y-53479999D02*
X142284819Y-53579999D01*
X142284819Y-53579999D02*
X142284819Y-53646666D01*
X142284819Y-53646666D02*
X142237200Y-53746666D01*
X142237200Y-53746666D02*
X142141961Y-53813333D01*
X142141961Y-53813333D02*
X142046723Y-53846666D01*
X142046723Y-53846666D02*
X141856247Y-53879999D01*
X141856247Y-53879999D02*
X141713390Y-53879999D01*
X141713390Y-53879999D02*
X141522914Y-53846666D01*
X141522914Y-53846666D02*
X141427676Y-53813333D01*
X141427676Y-53813333D02*
X141332438Y-53746666D01*
X141332438Y-53746666D02*
X141284819Y-53646666D01*
X141284819Y-53646666D02*
X141284819Y-53579999D01*
X141284819Y-53579999D02*
X141332438Y-53479999D01*
X141332438Y-53479999D02*
X141380057Y-53446666D01*
X141380057Y-53179999D02*
X141332438Y-53146666D01*
X141332438Y-53146666D02*
X141284819Y-53079999D01*
X141284819Y-53079999D02*
X141284819Y-52913333D01*
X141284819Y-52913333D02*
X141332438Y-52846666D01*
X141332438Y-52846666D02*
X141380057Y-52813333D01*
X141380057Y-52813333D02*
X141475295Y-52779999D01*
X141475295Y-52779999D02*
X141570533Y-52779999D01*
X141570533Y-52779999D02*
X141713390Y-52813333D01*
X141713390Y-52813333D02*
X142284819Y-53213333D01*
X142284819Y-53213333D02*
X142284819Y-52779999D01*
X202440419Y-80273331D02*
X202392800Y-80239998D01*
X202392800Y-80239998D02*
X202345180Y-80139998D01*
X202345180Y-80139998D02*
X202345180Y-80073331D01*
X202345180Y-80073331D02*
X202392800Y-79973331D01*
X202392800Y-79973331D02*
X202488038Y-79906665D01*
X202488038Y-79906665D02*
X202583276Y-79873331D01*
X202583276Y-79873331D02*
X202773752Y-79839998D01*
X202773752Y-79839998D02*
X202916609Y-79839998D01*
X202916609Y-79839998D02*
X203107085Y-79873331D01*
X203107085Y-79873331D02*
X203202323Y-79906665D01*
X203202323Y-79906665D02*
X203297561Y-79973331D01*
X203297561Y-79973331D02*
X203345180Y-80073331D01*
X203345180Y-80073331D02*
X203345180Y-80139998D01*
X203345180Y-80139998D02*
X203297561Y-80239998D01*
X203297561Y-80239998D02*
X203249942Y-80273331D01*
X203011847Y-80873331D02*
X202345180Y-80873331D01*
X203392800Y-80706665D02*
X202678514Y-80539998D01*
X202678514Y-80539998D02*
X202678514Y-80973331D01*
X197290419Y-74925531D02*
X197242800Y-74892198D01*
X197242800Y-74892198D02*
X197195180Y-74792198D01*
X197195180Y-74792198D02*
X197195180Y-74725531D01*
X197195180Y-74725531D02*
X197242800Y-74625531D01*
X197242800Y-74625531D02*
X197338038Y-74558865D01*
X197338038Y-74558865D02*
X197433276Y-74525531D01*
X197433276Y-74525531D02*
X197623752Y-74492198D01*
X197623752Y-74492198D02*
X197766609Y-74492198D01*
X197766609Y-74492198D02*
X197957085Y-74525531D01*
X197957085Y-74525531D02*
X198052323Y-74558865D01*
X198052323Y-74558865D02*
X198147561Y-74625531D01*
X198147561Y-74625531D02*
X198195180Y-74725531D01*
X198195180Y-74725531D02*
X198195180Y-74792198D01*
X198195180Y-74792198D02*
X198147561Y-74892198D01*
X198147561Y-74892198D02*
X198099942Y-74925531D01*
X197861847Y-75525531D02*
X197195180Y-75525531D01*
X198242800Y-75358865D02*
X197528514Y-75192198D01*
X197528514Y-75192198D02*
X197528514Y-75625531D01*
X131659580Y-74208766D02*
X131707200Y-74242099D01*
X131707200Y-74242099D02*
X131754819Y-74342099D01*
X131754819Y-74342099D02*
X131754819Y-74408766D01*
X131754819Y-74408766D02*
X131707200Y-74508766D01*
X131707200Y-74508766D02*
X131611961Y-74575433D01*
X131611961Y-74575433D02*
X131516723Y-74608766D01*
X131516723Y-74608766D02*
X131326247Y-74642099D01*
X131326247Y-74642099D02*
X131183390Y-74642099D01*
X131183390Y-74642099D02*
X130992914Y-74608766D01*
X130992914Y-74608766D02*
X130897676Y-74575433D01*
X130897676Y-74575433D02*
X130802438Y-74508766D01*
X130802438Y-74508766D02*
X130754819Y-74408766D01*
X130754819Y-74408766D02*
X130754819Y-74342099D01*
X130754819Y-74342099D02*
X130802438Y-74242099D01*
X130802438Y-74242099D02*
X130850057Y-74208766D01*
X131088152Y-73608766D02*
X131754819Y-73608766D01*
X130707200Y-73775433D02*
X131421485Y-73942099D01*
X131421485Y-73942099D02*
X131421485Y-73508766D01*
X141726933Y-77432780D02*
X141693600Y-77480400D01*
X141693600Y-77480400D02*
X141593600Y-77528019D01*
X141593600Y-77528019D02*
X141526933Y-77528019D01*
X141526933Y-77528019D02*
X141426933Y-77480400D01*
X141426933Y-77480400D02*
X141360267Y-77385161D01*
X141360267Y-77385161D02*
X141326933Y-77289923D01*
X141326933Y-77289923D02*
X141293600Y-77099447D01*
X141293600Y-77099447D02*
X141293600Y-76956590D01*
X141293600Y-76956590D02*
X141326933Y-76766114D01*
X141326933Y-76766114D02*
X141360267Y-76670876D01*
X141360267Y-76670876D02*
X141426933Y-76575638D01*
X141426933Y-76575638D02*
X141526933Y-76528019D01*
X141526933Y-76528019D02*
X141593600Y-76528019D01*
X141593600Y-76528019D02*
X141693600Y-76575638D01*
X141693600Y-76575638D02*
X141726933Y-76623257D01*
X142326933Y-76861352D02*
X142326933Y-77528019D01*
X142160267Y-76480400D02*
X141993600Y-77194685D01*
X141993600Y-77194685D02*
X142426933Y-77194685D01*
X158659580Y-81572268D02*
X158707200Y-81605601D01*
X158707200Y-81605601D02*
X158754819Y-81705601D01*
X158754819Y-81705601D02*
X158754819Y-81772268D01*
X158754819Y-81772268D02*
X158707200Y-81872268D01*
X158707200Y-81872268D02*
X158611961Y-81938935D01*
X158611961Y-81938935D02*
X158516723Y-81972268D01*
X158516723Y-81972268D02*
X158326247Y-82005601D01*
X158326247Y-82005601D02*
X158183390Y-82005601D01*
X158183390Y-82005601D02*
X157992914Y-81972268D01*
X157992914Y-81972268D02*
X157897676Y-81938935D01*
X157897676Y-81938935D02*
X157802438Y-81872268D01*
X157802438Y-81872268D02*
X157754819Y-81772268D01*
X157754819Y-81772268D02*
X157754819Y-81705601D01*
X157754819Y-81705601D02*
X157802438Y-81605601D01*
X157802438Y-81605601D02*
X157850057Y-81572268D01*
X157754819Y-81338935D02*
X157754819Y-80905601D01*
X157754819Y-80905601D02*
X158135771Y-81138935D01*
X158135771Y-81138935D02*
X158135771Y-81038935D01*
X158135771Y-81038935D02*
X158183390Y-80972268D01*
X158183390Y-80972268D02*
X158231009Y-80938935D01*
X158231009Y-80938935D02*
X158326247Y-80905601D01*
X158326247Y-80905601D02*
X158564342Y-80905601D01*
X158564342Y-80905601D02*
X158659580Y-80938935D01*
X158659580Y-80938935D02*
X158707200Y-80972268D01*
X158707200Y-80972268D02*
X158754819Y-81038935D01*
X158754819Y-81038935D02*
X158754819Y-81238935D01*
X158754819Y-81238935D02*
X158707200Y-81305601D01*
X158707200Y-81305601D02*
X158659580Y-81338935D01*
X136609580Y-80838865D02*
X136657200Y-80872198D01*
X136657200Y-80872198D02*
X136704819Y-80972198D01*
X136704819Y-80972198D02*
X136704819Y-81038865D01*
X136704819Y-81038865D02*
X136657200Y-81138865D01*
X136657200Y-81138865D02*
X136561961Y-81205532D01*
X136561961Y-81205532D02*
X136466723Y-81238865D01*
X136466723Y-81238865D02*
X136276247Y-81272198D01*
X136276247Y-81272198D02*
X136133390Y-81272198D01*
X136133390Y-81272198D02*
X135942914Y-81238865D01*
X135942914Y-81238865D02*
X135847676Y-81205532D01*
X135847676Y-81205532D02*
X135752438Y-81138865D01*
X135752438Y-81138865D02*
X135704819Y-81038865D01*
X135704819Y-81038865D02*
X135704819Y-80972198D01*
X135704819Y-80972198D02*
X135752438Y-80872198D01*
X135752438Y-80872198D02*
X135800057Y-80838865D01*
X135800057Y-80572198D02*
X135752438Y-80538865D01*
X135752438Y-80538865D02*
X135704819Y-80472198D01*
X135704819Y-80472198D02*
X135704819Y-80305532D01*
X135704819Y-80305532D02*
X135752438Y-80238865D01*
X135752438Y-80238865D02*
X135800057Y-80205532D01*
X135800057Y-80205532D02*
X135895295Y-80172198D01*
X135895295Y-80172198D02*
X135990533Y-80172198D01*
X135990533Y-80172198D02*
X136133390Y-80205532D01*
X136133390Y-80205532D02*
X136704819Y-80605532D01*
X136704819Y-80605532D02*
X136704819Y-80172198D01*
X145411779Y-53491064D02*
X145459399Y-53524397D01*
X145459399Y-53524397D02*
X145507018Y-53624397D01*
X145507018Y-53624397D02*
X145507018Y-53691064D01*
X145507018Y-53691064D02*
X145459399Y-53791064D01*
X145459399Y-53791064D02*
X145364160Y-53857731D01*
X145364160Y-53857731D02*
X145268922Y-53891064D01*
X145268922Y-53891064D02*
X145078446Y-53924397D01*
X145078446Y-53924397D02*
X144935589Y-53924397D01*
X144935589Y-53924397D02*
X144745113Y-53891064D01*
X144745113Y-53891064D02*
X144649875Y-53857731D01*
X144649875Y-53857731D02*
X144554637Y-53791064D01*
X144554637Y-53791064D02*
X144507018Y-53691064D01*
X144507018Y-53691064D02*
X144507018Y-53624397D01*
X144507018Y-53624397D02*
X144554637Y-53524397D01*
X144554637Y-53524397D02*
X144602256Y-53491064D01*
X144602256Y-53224397D02*
X144554637Y-53191064D01*
X144554637Y-53191064D02*
X144507018Y-53124397D01*
X144507018Y-53124397D02*
X144507018Y-52957731D01*
X144507018Y-52957731D02*
X144554637Y-52891064D01*
X144554637Y-52891064D02*
X144602256Y-52857731D01*
X144602256Y-52857731D02*
X144697494Y-52824397D01*
X144697494Y-52824397D02*
X144792732Y-52824397D01*
X144792732Y-52824397D02*
X144935589Y-52857731D01*
X144935589Y-52857731D02*
X145507018Y-53257731D01*
X145507018Y-53257731D02*
X145507018Y-52824397D01*
X199940419Y-80331133D02*
X199892800Y-80297800D01*
X199892800Y-80297800D02*
X199845180Y-80197800D01*
X199845180Y-80197800D02*
X199845180Y-80131133D01*
X199845180Y-80131133D02*
X199892800Y-80031133D01*
X199892800Y-80031133D02*
X199988038Y-79964467D01*
X199988038Y-79964467D02*
X200083276Y-79931133D01*
X200083276Y-79931133D02*
X200273752Y-79897800D01*
X200273752Y-79897800D02*
X200416609Y-79897800D01*
X200416609Y-79897800D02*
X200607085Y-79931133D01*
X200607085Y-79931133D02*
X200702323Y-79964467D01*
X200702323Y-79964467D02*
X200797561Y-80031133D01*
X200797561Y-80031133D02*
X200845180Y-80131133D01*
X200845180Y-80131133D02*
X200845180Y-80197800D01*
X200845180Y-80197800D02*
X200797561Y-80297800D01*
X200797561Y-80297800D02*
X200749942Y-80331133D01*
X200511847Y-80931133D02*
X199845180Y-80931133D01*
X200892800Y-80764467D02*
X200178514Y-80597800D01*
X200178514Y-80597800D02*
X200178514Y-81031133D01*
X208118990Y-76342857D02*
X208118990Y-76009524D01*
X207595180Y-76009524D02*
X208595180Y-76009524D01*
X208595180Y-76009524D02*
X208595180Y-76485714D01*
X208118990Y-77200000D02*
X208071371Y-77342857D01*
X208071371Y-77342857D02*
X208023752Y-77390476D01*
X208023752Y-77390476D02*
X207928514Y-77438095D01*
X207928514Y-77438095D02*
X207785657Y-77438095D01*
X207785657Y-77438095D02*
X207690419Y-77390476D01*
X207690419Y-77390476D02*
X207642800Y-77342857D01*
X207642800Y-77342857D02*
X207595180Y-77247619D01*
X207595180Y-77247619D02*
X207595180Y-76866667D01*
X207595180Y-76866667D02*
X208595180Y-76866667D01*
X208595180Y-76866667D02*
X208595180Y-77200000D01*
X208595180Y-77200000D02*
X208547561Y-77295238D01*
X208547561Y-77295238D02*
X208499942Y-77342857D01*
X208499942Y-77342857D02*
X208404704Y-77390476D01*
X208404704Y-77390476D02*
X208309466Y-77390476D01*
X208309466Y-77390476D02*
X208214228Y-77342857D01*
X208214228Y-77342857D02*
X208166609Y-77295238D01*
X208166609Y-77295238D02*
X208118990Y-77200000D01*
X208118990Y-77200000D02*
X208118990Y-76866667D01*
X134109580Y-80838865D02*
X134157200Y-80872198D01*
X134157200Y-80872198D02*
X134204819Y-80972198D01*
X134204819Y-80972198D02*
X134204819Y-81038865D01*
X134204819Y-81038865D02*
X134157200Y-81138865D01*
X134157200Y-81138865D02*
X134061961Y-81205532D01*
X134061961Y-81205532D02*
X133966723Y-81238865D01*
X133966723Y-81238865D02*
X133776247Y-81272198D01*
X133776247Y-81272198D02*
X133633390Y-81272198D01*
X133633390Y-81272198D02*
X133442914Y-81238865D01*
X133442914Y-81238865D02*
X133347676Y-81205532D01*
X133347676Y-81205532D02*
X133252438Y-81138865D01*
X133252438Y-81138865D02*
X133204819Y-81038865D01*
X133204819Y-81038865D02*
X133204819Y-80972198D01*
X133204819Y-80972198D02*
X133252438Y-80872198D01*
X133252438Y-80872198D02*
X133300057Y-80838865D01*
X133300057Y-80572198D02*
X133252438Y-80538865D01*
X133252438Y-80538865D02*
X133204819Y-80472198D01*
X133204819Y-80472198D02*
X133204819Y-80305532D01*
X133204819Y-80305532D02*
X133252438Y-80238865D01*
X133252438Y-80238865D02*
X133300057Y-80205532D01*
X133300057Y-80205532D02*
X133395295Y-80172198D01*
X133395295Y-80172198D02*
X133490533Y-80172198D01*
X133490533Y-80172198D02*
X133633390Y-80205532D01*
X133633390Y-80205532D02*
X134204819Y-80605532D01*
X134204819Y-80605532D02*
X134204819Y-80172198D01*
X157940419Y-76811134D02*
X157892800Y-76777801D01*
X157892800Y-76777801D02*
X157845180Y-76677801D01*
X157845180Y-76677801D02*
X157845180Y-76611134D01*
X157845180Y-76611134D02*
X157892800Y-76511134D01*
X157892800Y-76511134D02*
X157988038Y-76444468D01*
X157988038Y-76444468D02*
X158083276Y-76411134D01*
X158083276Y-76411134D02*
X158273752Y-76377801D01*
X158273752Y-76377801D02*
X158416609Y-76377801D01*
X158416609Y-76377801D02*
X158607085Y-76411134D01*
X158607085Y-76411134D02*
X158702323Y-76444468D01*
X158702323Y-76444468D02*
X158797561Y-76511134D01*
X158797561Y-76511134D02*
X158845180Y-76611134D01*
X158845180Y-76611134D02*
X158845180Y-76677801D01*
X158845180Y-76677801D02*
X158797561Y-76777801D01*
X158797561Y-76777801D02*
X158749942Y-76811134D01*
X158845180Y-77444468D02*
X158845180Y-77111134D01*
X158845180Y-77111134D02*
X158368990Y-77077801D01*
X158368990Y-77077801D02*
X158416609Y-77111134D01*
X158416609Y-77111134D02*
X158464228Y-77177801D01*
X158464228Y-77177801D02*
X158464228Y-77344468D01*
X158464228Y-77344468D02*
X158416609Y-77411134D01*
X158416609Y-77411134D02*
X158368990Y-77444468D01*
X158368990Y-77444468D02*
X158273752Y-77477801D01*
X158273752Y-77477801D02*
X158035657Y-77477801D01*
X158035657Y-77477801D02*
X157940419Y-77444468D01*
X157940419Y-77444468D02*
X157892800Y-77411134D01*
X157892800Y-77411134D02*
X157845180Y-77344468D01*
X157845180Y-77344468D02*
X157845180Y-77177801D01*
X157845180Y-77177801D02*
X157892800Y-77111134D01*
X157892800Y-77111134D02*
X157940419Y-77077801D01*
X202390419Y-74925531D02*
X202342800Y-74892198D01*
X202342800Y-74892198D02*
X202295180Y-74792198D01*
X202295180Y-74792198D02*
X202295180Y-74725531D01*
X202295180Y-74725531D02*
X202342800Y-74625531D01*
X202342800Y-74625531D02*
X202438038Y-74558865D01*
X202438038Y-74558865D02*
X202533276Y-74525531D01*
X202533276Y-74525531D02*
X202723752Y-74492198D01*
X202723752Y-74492198D02*
X202866609Y-74492198D01*
X202866609Y-74492198D02*
X203057085Y-74525531D01*
X203057085Y-74525531D02*
X203152323Y-74558865D01*
X203152323Y-74558865D02*
X203247561Y-74625531D01*
X203247561Y-74625531D02*
X203295180Y-74725531D01*
X203295180Y-74725531D02*
X203295180Y-74792198D01*
X203295180Y-74792198D02*
X203247561Y-74892198D01*
X203247561Y-74892198D02*
X203199942Y-74925531D01*
X202961847Y-75525531D02*
X202295180Y-75525531D01*
X203342800Y-75358865D02*
X202628514Y-75192198D01*
X202628514Y-75192198D02*
X202628514Y-75625531D01*
X139044819Y-68961866D02*
X138568628Y-69195199D01*
X139044819Y-69361866D02*
X138044819Y-69361866D01*
X138044819Y-69361866D02*
X138044819Y-69095199D01*
X138044819Y-69095199D02*
X138092438Y-69028533D01*
X138092438Y-69028533D02*
X138140057Y-68995199D01*
X138140057Y-68995199D02*
X138235295Y-68961866D01*
X138235295Y-68961866D02*
X138378152Y-68961866D01*
X138378152Y-68961866D02*
X138473390Y-68995199D01*
X138473390Y-68995199D02*
X138521009Y-69028533D01*
X138521009Y-69028533D02*
X138568628Y-69095199D01*
X138568628Y-69095199D02*
X138568628Y-69361866D01*
X138044819Y-68728533D02*
X138044819Y-68295199D01*
X138044819Y-68295199D02*
X138425771Y-68528533D01*
X138425771Y-68528533D02*
X138425771Y-68428533D01*
X138425771Y-68428533D02*
X138473390Y-68361866D01*
X138473390Y-68361866D02*
X138521009Y-68328533D01*
X138521009Y-68328533D02*
X138616247Y-68295199D01*
X138616247Y-68295199D02*
X138854342Y-68295199D01*
X138854342Y-68295199D02*
X138949580Y-68328533D01*
X138949580Y-68328533D02*
X138997200Y-68361866D01*
X138997200Y-68361866D02*
X139044819Y-68428533D01*
X139044819Y-68428533D02*
X139044819Y-68628533D01*
X139044819Y-68628533D02*
X138997200Y-68695199D01*
X138997200Y-68695199D02*
X138949580Y-68728533D01*
X155754819Y-81744467D02*
X154754819Y-81744467D01*
X154754819Y-81744467D02*
X154754819Y-81577800D01*
X154754819Y-81577800D02*
X154802438Y-81477800D01*
X154802438Y-81477800D02*
X154897676Y-81411134D01*
X154897676Y-81411134D02*
X154992914Y-81377800D01*
X154992914Y-81377800D02*
X155183390Y-81344467D01*
X155183390Y-81344467D02*
X155326247Y-81344467D01*
X155326247Y-81344467D02*
X155516723Y-81377800D01*
X155516723Y-81377800D02*
X155611961Y-81411134D01*
X155611961Y-81411134D02*
X155707200Y-81477800D01*
X155707200Y-81477800D02*
X155754819Y-81577800D01*
X155754819Y-81577800D02*
X155754819Y-81744467D01*
X155754819Y-80677800D02*
X155754819Y-81077800D01*
X155754819Y-80877800D02*
X154754819Y-80877800D01*
X154754819Y-80877800D02*
X154897676Y-80944467D01*
X154897676Y-80944467D02*
X154992914Y-81011134D01*
X154992914Y-81011134D02*
X155040533Y-81077800D01*
X155029819Y-84149999D02*
X155267914Y-84149999D01*
X155172676Y-84388094D02*
X155267914Y-84149999D01*
X155267914Y-84149999D02*
X155172676Y-83911904D01*
X155458390Y-84292856D02*
X155267914Y-84149999D01*
X155267914Y-84149999D02*
X155458390Y-84007142D01*
D11*
%TO.C,L3*%
X150549100Y-75140051D02*
X150549100Y-75515551D01*
X152250900Y-75515551D02*
X152250900Y-75140051D01*
%TO.C,L2*%
X141956650Y-89990300D02*
X143043350Y-89990300D01*
X143043350Y-87729700D02*
X141956650Y-87729700D01*
%TO.C,C4*%
X203196700Y-49496150D02*
X203196700Y-50608250D01*
X205203300Y-50608250D02*
X205203300Y-49496150D01*
%TO.C,J2*%
X122800000Y-104245300D02*
X131207000Y-104245300D01*
X131207000Y-104245300D02*
X131207000Y-90554700D01*
X131257000Y-90554700D02*
X122800000Y-90554700D01*
D12*
X133381000Y-104880300D02*
G75*
G02*
X132619000Y-104880300I-381000J0D01*
G01*
X132619000Y-104880300D02*
G75*
G02*
X133381000Y-104880300I381000J0D01*
G01*
D13*
%TO.C,REF\u002A\u002A*%
X152670000Y-87310000D02*
X154000000Y-87310000D01*
X152670000Y-88640000D02*
X152670000Y-87310000D01*
X152670000Y-89910000D02*
X152670000Y-112830000D01*
X152670000Y-89910000D02*
X155270000Y-89910000D01*
X152670000Y-112830000D02*
X157870000Y-112830000D01*
X155270000Y-87310000D02*
X157870000Y-87310000D01*
X155270000Y-89910000D02*
X155270000Y-87310000D01*
X157870000Y-87310000D02*
X157870000Y-112830000D01*
D14*
%TO.C,U6*%
X153650001Y-73802800D02*
X155749999Y-73802800D01*
X154675000Y-76852802D02*
X155749999Y-76852802D01*
D11*
%TO.C,C4*%
X200696700Y-49496150D02*
X200696700Y-50608250D01*
X202703300Y-50608250D02*
X202703300Y-49496150D01*
X201776200Y-52922400D02*
G75*
G02*
X201623800Y-52922400I-76200J0D01*
G01*
X201623800Y-52922400D02*
G75*
G02*
X201776200Y-52922400I76200J0D01*
G01*
%TO.C,R11*%
X187731289Y-47616401D02*
X186738311Y-47616401D01*
X187731289Y-51883601D02*
X186738311Y-51883601D01*
%TO.C,J3*%
X162948755Y-69009200D02*
X162948755Y-70553261D01*
X162948755Y-73072941D02*
X162948755Y-74343200D01*
X162948755Y-74343200D02*
X187662955Y-74343200D01*
X165030158Y-69009200D02*
X162948755Y-69009200D01*
X187662955Y-69009200D02*
X185581552Y-69009200D01*
X187662955Y-70553261D02*
X187662955Y-69009200D01*
X187662955Y-74343200D02*
X187662955Y-73072941D01*
D12*
X162694755Y-68463100D02*
G75*
G02*
X161932755Y-68463100I-381000J0D01*
G01*
X161932755Y-68463100D02*
G75*
G02*
X162694755Y-68463100I381000J0D01*
G01*
D11*
%TO.C,C1*%
X140145350Y-94828700D02*
X141308250Y-94828700D01*
X141308250Y-92771300D02*
X140145350Y-92771300D01*
%TO.C,C2*%
X191823000Y-74259749D02*
X191823000Y-75844651D01*
X193677000Y-75844651D02*
X193677000Y-74259749D01*
%TO.C,C4*%
X227848900Y-56696150D02*
X227848900Y-57808250D01*
X229855500Y-57808250D02*
X229855500Y-56696150D01*
X228928400Y-54382000D02*
G75*
G02*
X228776000Y-54382000I-76200J0D01*
G01*
X228776000Y-54382000D02*
G75*
G02*
X228928400Y-54382000I76200J0D01*
G01*
%TO.C,C7*%
X165563000Y-60287549D02*
X165563000Y-61872451D01*
X167417000Y-61872451D02*
X167417000Y-60287549D01*
%TO.C,C2*%
X205773000Y-49339750D02*
X205773000Y-50924652D01*
X207627000Y-50924652D02*
X207627000Y-49339750D01*
%TO.C,R6*%
X137323150Y-87357100D02*
X138384450Y-87357100D01*
X138384450Y-85502900D02*
X137323150Y-85502900D01*
%TO.C,C1*%
X142171300Y-68045350D02*
X142171300Y-69208250D01*
X144228700Y-69208250D02*
X144228700Y-68045350D01*
D15*
%TO.C,U7*%
X137791400Y-73996900D02*
X136191400Y-73996900D01*
X137791400Y-77126900D02*
X136191400Y-77126900D01*
D14*
X139491400Y-76761900D02*
G75*
G02*
X139291400Y-76761900I-100000J0D01*
G01*
X139291400Y-76761900D02*
G75*
G02*
X139491400Y-76761900I100000J0D01*
G01*
D11*
%TO.C,C4*%
X144103500Y-81996150D02*
X144103500Y-83108250D01*
X146110100Y-83108250D02*
X146110100Y-81996150D01*
X145183000Y-79682000D02*
G75*
G02*
X145030600Y-79682000I-76200J0D01*
G01*
X145030600Y-79682000D02*
G75*
G02*
X145183000Y-79682000I76200J0D01*
G01*
%TO.C,C2*%
X191873000Y-79603149D02*
X191873000Y-81188051D01*
X193727000Y-81188051D02*
X193727000Y-79603149D01*
%TO.C,C4*%
X225348900Y-56696150D02*
X225348900Y-57808250D01*
X227355500Y-57808250D02*
X227355500Y-56696150D01*
X226428400Y-54382000D02*
G75*
G02*
X226276000Y-54382000I-76200J0D01*
G01*
X226276000Y-54382000D02*
G75*
G02*
X226428400Y-54382000I76200J0D01*
G01*
%TO.C,L1*%
X142161100Y-73229850D02*
X142161100Y-74316550D01*
X144421700Y-74316550D02*
X144421700Y-73229850D01*
X143367600Y-71309400D02*
G75*
G02*
X143215200Y-71309400I-76200J0D01*
G01*
X143215200Y-71309400D02*
G75*
G02*
X143367600Y-71309400I76200J0D01*
G01*
D15*
%TO.C,U5*%
X140584800Y-81885000D02*
X140584800Y-83485000D01*
X143714800Y-81885000D02*
X143714800Y-83485000D01*
D14*
X143449800Y-80285000D02*
G75*
G02*
X143249800Y-80285000I-100000J0D01*
G01*
X143249800Y-80285000D02*
G75*
G02*
X143449800Y-80285000I100000J0D01*
G01*
D11*
%TO.C,C4*%
X130246700Y-80166149D02*
X130246700Y-81278249D01*
X132253300Y-81278249D02*
X132253300Y-80166149D01*
X131326200Y-83592399D02*
G75*
G02*
X131173800Y-83592399I-76200J0D01*
G01*
X131173800Y-83592399D02*
G75*
G02*
X131326200Y-83592399I76200J0D01*
G01*
%TO.C,C6*%
X138403000Y-52537549D02*
X138403000Y-54122451D01*
X140257000Y-54122451D02*
X140257000Y-52537549D01*
%TO.C,U3*%
X191966400Y-54888000D02*
X191966400Y-55523000D01*
X191966400Y-68477000D02*
X191966400Y-69112000D01*
X191966400Y-69112000D02*
X192601400Y-69112000D01*
X192601400Y-54888000D02*
X191966400Y-54888000D01*
X205555400Y-69112000D02*
X206190400Y-69112000D01*
X206190400Y-54888000D02*
X205555400Y-54888000D01*
X206190400Y-55523000D02*
X206190400Y-54888000D01*
X206190400Y-69112000D02*
X206190400Y-68477000D01*
%TO.C,R10*%
X187781289Y-52616401D02*
X186788311Y-52616401D01*
X187781289Y-56883601D02*
X186788311Y-56883601D01*
D13*
%TO.C,REF\u002A\u002A*%
X123170000Y-82505000D02*
X123170000Y-77365000D01*
X125830000Y-77365000D02*
X123170000Y-77365000D01*
X125830000Y-82505000D02*
X123170000Y-82505000D01*
X125830000Y-82505000D02*
X125830000Y-77365000D01*
X125830000Y-83775000D02*
X125830000Y-85105000D01*
X125830000Y-85105000D02*
X124500000Y-85105000D01*
D11*
%TO.C,C3*%
X152873000Y-70463151D02*
X152873000Y-72048053D01*
X154727000Y-72048053D02*
X154727000Y-70463151D01*
%TO.C,C4*%
X222848900Y-56643950D02*
X222848900Y-57756050D01*
X224855500Y-57756050D02*
X224855500Y-56643950D01*
X223928400Y-54329800D02*
G75*
G02*
X223776000Y-54329800I-76200J0D01*
G01*
X223776000Y-54329800D02*
G75*
G02*
X223928400Y-54329800I76200J0D01*
G01*
X194296700Y-79839550D02*
X194296700Y-80951650D01*
X196303300Y-80951650D02*
X196303300Y-79839550D01*
X195376200Y-77525400D02*
G75*
G02*
X195223800Y-77525400I-76200J0D01*
G01*
X195223800Y-77525400D02*
G75*
G02*
X195376200Y-77525400I76200J0D01*
G01*
%TO.C,J1*%
X122800000Y-70345300D02*
X131207000Y-70345300D01*
X131207000Y-56654700D02*
X122800000Y-56654700D01*
X131207000Y-70345300D02*
X131207000Y-56654700D01*
D12*
X130681000Y-68500000D02*
G75*
G02*
X129919000Y-68500000I-381000J0D01*
G01*
X129919000Y-68500000D02*
G75*
G02*
X130681000Y-68500000I381000J0D01*
G01*
D11*
%TO.C,R8*%
X155097099Y-70645549D02*
X155097099Y-71910049D01*
X157052899Y-71910049D02*
X157052899Y-70645549D01*
%TO.C,R2*%
X139886700Y-68160750D02*
X139886700Y-69374450D01*
X141893300Y-69374450D02*
X141893300Y-68160750D01*
%TO.C,R4*%
X135412900Y-68338350D02*
X135412900Y-69399650D01*
X137267100Y-69399650D02*
X137267100Y-68338350D01*
%TO.C,C4*%
X199246700Y-74496150D02*
X199246700Y-75608250D01*
X201253300Y-75608250D02*
X201253300Y-74496150D01*
X200326200Y-72182000D02*
G75*
G02*
X200173800Y-72182000I-76200J0D01*
G01*
X200173800Y-72182000D02*
G75*
G02*
X200326200Y-72182000I76200J0D01*
G01*
%TO.C,C2*%
X128173000Y-73269449D02*
X128173000Y-74854351D01*
X130027000Y-74854351D02*
X130027000Y-73269449D01*
%TO.C,R9*%
X187781289Y-57616401D02*
X186788311Y-57616401D01*
X187781289Y-61883601D02*
X186788311Y-61883601D01*
%TO.C,C4*%
X196796700Y-79891750D02*
X196796700Y-81003850D01*
X198803300Y-81003850D02*
X198803300Y-79891750D01*
X197876200Y-77577600D02*
G75*
G02*
X197723800Y-77577600I-76200J0D01*
G01*
X197723800Y-77577600D02*
G75*
G02*
X197876200Y-77577600I76200J0D01*
G01*
%TO.C,CRSTL*%
X160323500Y-53874900D02*
X160323500Y-65533500D01*
X160323500Y-65533500D02*
X162162460Y-65533500D01*
X162162460Y-53874900D02*
X160323500Y-53874900D01*
X163437540Y-65533500D02*
X165276500Y-65533500D01*
X165276500Y-53874900D02*
X163437540Y-53874900D01*
X165276500Y-65533500D02*
X165276500Y-53874900D01*
%TO.C,R1*%
X134996700Y-59315550D02*
X134996700Y-60529250D01*
X137003300Y-60529250D02*
X137003300Y-59315550D01*
%TO.C,R5*%
X137323150Y-89577100D02*
X138384450Y-89577100D01*
X138384450Y-87722900D02*
X137323150Y-87722900D01*
%TO.C,C1*%
X144644500Y-68018550D02*
X144644500Y-69181450D01*
X146701900Y-69181450D02*
X146701900Y-68018550D01*
%TO.C,R7*%
X137320150Y-85117100D02*
X138381450Y-85117100D01*
X138381450Y-83262900D02*
X137320150Y-83262900D01*
%TO.C,C6*%
X146653000Y-52609748D02*
X146653000Y-54194650D01*
X148507000Y-54194650D02*
X148507000Y-52609748D01*
%TO.C,U2*%
X139417200Y-62378100D02*
X143582800Y-62378100D01*
X143582800Y-57221900D02*
X139417200Y-57221900D01*
%TO.C,C4*%
X230348900Y-56643950D02*
X230348900Y-57756050D01*
X232355500Y-57756050D02*
X232355500Y-56643950D01*
X231428400Y-54329800D02*
G75*
G02*
X231276000Y-54329800I-76200J0D01*
G01*
X231276000Y-54329800D02*
G75*
G02*
X231428400Y-54329800I76200J0D01*
G01*
%TO.C,C1*%
X140145350Y-92328700D02*
X141308250Y-92328700D01*
X141308250Y-90271300D02*
X140145350Y-90271300D01*
%TO.C,C2*%
X220425200Y-56487550D02*
X220425200Y-58072452D01*
X222279200Y-58072452D02*
X222279200Y-56487550D01*
%TO.C,C7*%
X165533000Y-55387549D02*
X165533000Y-56972451D01*
X167387000Y-56972451D02*
X167387000Y-55387549D01*
%TO.C,C4*%
X194246700Y-74496150D02*
X194246700Y-75608250D01*
X196253300Y-75608250D02*
X196253300Y-74496150D01*
X195326200Y-72182000D02*
G75*
G02*
X195173800Y-72182000I-76200J0D01*
G01*
X195173800Y-72182000D02*
G75*
G02*
X195326200Y-72182000I76200J0D01*
G01*
%TO.C,C2*%
X132773000Y-73269449D02*
X132773000Y-74854351D01*
X134627000Y-74854351D02*
X134627000Y-73269449D01*
%TO.C,U1*%
X149182300Y-57562900D02*
X149182300Y-61728500D01*
X158097700Y-61728500D02*
X158097700Y-57562900D01*
D16*
G36*
X155100500Y-56038900D02*
G01*
X154719500Y-56038900D01*
X154719500Y-55784900D01*
X155100500Y-55784900D01*
X155100500Y-56038900D01*
G37*
D11*
%TO.C,C2*%
X140903000Y-52537549D02*
X140903000Y-54122451D01*
X142757000Y-54122451D02*
X142757000Y-52537549D01*
D13*
%TO.C,REF\u002A\u002A*%
X209115000Y-66195000D02*
X209115000Y-65500000D01*
X209800000Y-66195000D02*
X209115000Y-66195000D01*
X210485000Y-64805000D02*
X214360000Y-64805000D01*
X210485000Y-64891724D02*
X210485000Y-64805000D01*
X210485000Y-66195000D02*
X210485000Y-66108276D01*
X210485000Y-66195000D02*
X214360000Y-66195000D01*
X214360000Y-65105507D02*
X214360000Y-64805000D01*
X214360000Y-66195000D02*
X214360000Y-65894493D01*
D11*
%TO.C,C4*%
X201796700Y-79891750D02*
X201796700Y-81003850D01*
X203803300Y-81003850D02*
X203803300Y-79891750D01*
X202876200Y-77577600D02*
G75*
G02*
X202723800Y-77577600I-76200J0D01*
G01*
X202723800Y-77577600D02*
G75*
G02*
X202876200Y-77577600I76200J0D01*
G01*
X196746700Y-74496150D02*
X196746700Y-75608250D01*
X198753300Y-75608250D02*
X198753300Y-74496150D01*
X197826200Y-72182000D02*
G75*
G02*
X197673800Y-72182000I-76200J0D01*
G01*
X197673800Y-72182000D02*
G75*
G02*
X197826200Y-72182000I76200J0D01*
G01*
X130296700Y-73536050D02*
X130296700Y-74648150D01*
X132303300Y-74648150D02*
X132303300Y-73536050D01*
X131376200Y-71221900D02*
G75*
G02*
X131223800Y-71221900I-76200J0D01*
G01*
X131223800Y-71221900D02*
G75*
G02*
X131376200Y-71221900I76200J0D01*
G01*
X141287550Y-78076500D02*
X142399650Y-78076500D01*
X142399650Y-76069900D02*
X141287550Y-76069900D01*
X144790000Y-77073200D02*
G75*
G02*
X144637600Y-77073200I-76200J0D01*
G01*
X144637600Y-77073200D02*
G75*
G02*
X144790000Y-77073200I76200J0D01*
G01*
%TO.C,C3*%
X157373000Y-80663151D02*
X157373000Y-82248053D01*
X159227000Y-82248053D02*
X159227000Y-80663151D01*
%TO.C,C2*%
X135323000Y-79929748D02*
X135323000Y-81514650D01*
X137177000Y-81514650D02*
X137177000Y-79929748D01*
X144125199Y-52581947D02*
X144125199Y-54166849D01*
X145979199Y-54166849D02*
X145979199Y-52581947D01*
%TO.C,C4*%
X199296700Y-79891750D02*
X199296700Y-81003850D01*
X201303300Y-81003850D02*
X201303300Y-79891750D01*
X200376200Y-77577600D02*
G75*
G02*
X200223800Y-77577600I-76200J0D01*
G01*
X200223800Y-77577600D02*
G75*
G02*
X200376200Y-77577600I76200J0D01*
G01*
%TO.C,C2*%
X132823000Y-79929748D02*
X132823000Y-81514650D01*
X134677000Y-81514650D02*
X134677000Y-79929748D01*
%TO.C,C5*%
X157373000Y-76135350D02*
X157373000Y-77720252D01*
X159227000Y-77720252D02*
X159227000Y-76135350D01*
%TO.C,C4*%
X201746700Y-74443950D02*
X201746700Y-75556050D01*
X203753300Y-75556050D02*
X203753300Y-74443950D01*
X202826200Y-72129800D02*
G75*
G02*
X202673800Y-72129800I-76200J0D01*
G01*
X202673800Y-72129800D02*
G75*
G02*
X202826200Y-72129800I76200J0D01*
G01*
D15*
%TO.C,R3*%
X137740000Y-69465200D02*
X137740000Y-68225200D01*
X139440000Y-69465200D02*
X139440000Y-68225200D01*
D13*
%TO.C,REF\u002A\u002A*%
X213240000Y-61805000D02*
X213240000Y-62105507D01*
X213240000Y-62894493D02*
X213240000Y-63195000D01*
X217115000Y-61805000D02*
X213240000Y-61805000D01*
X217115000Y-61805000D02*
X217115000Y-61891724D01*
X217115000Y-63108276D02*
X217115000Y-63195000D01*
X217115000Y-63195000D02*
X213240000Y-63195000D01*
X217800000Y-61805000D02*
X218485000Y-61805000D01*
X218485000Y-61805000D02*
X218485000Y-62500000D01*
D11*
%TO.C,R12*%
X187731289Y-63116401D02*
X186738311Y-63116401D01*
X187731289Y-67383601D02*
X186738311Y-67383601D01*
%TO.C,D1*%
X154271300Y-79678401D02*
X154271300Y-82777201D01*
X154271300Y-82777201D02*
X154586260Y-82777201D01*
X154586260Y-79678401D02*
X154271300Y-79678401D01*
X156013740Y-82777201D02*
X156328700Y-82777201D01*
X156328700Y-79678401D02*
X156013740Y-79678401D01*
X156328700Y-82777201D02*
X156328700Y-79678401D01*
%TD*%
%LPC*%
D17*
%TO.C,L3*%
X151400000Y-76127901D03*
X151400000Y-74527701D03*
%TD*%
D18*
%TO.C,L2*%
X141223650Y-88860000D03*
X143776350Y-88860000D03*
%TD*%
D19*
%TO.C,C4*%
X204200000Y-51500000D03*
X204200000Y-48604400D03*
%TD*%
D20*
%TO.C,J2*%
X125819999Y-92400000D03*
X125819999Y-102400000D03*
D21*
X133000000Y-102400000D03*
X133000000Y-99900000D03*
X133000000Y-97400000D03*
X133000000Y-94900000D03*
X133000000Y-92400000D03*
%TD*%
D22*
%TO.C,REF\u002A\u002A*%
X154000000Y-88640000D03*
D23*
X156540000Y-88640000D03*
X154000000Y-91180000D03*
X156540000Y-91180000D03*
X154000000Y-93720000D03*
X156540000Y-93720000D03*
X154000000Y-96260000D03*
X156540000Y-96260000D03*
X154000000Y-98800000D03*
X156540000Y-98800000D03*
X154000000Y-101340000D03*
X156540000Y-101340000D03*
X154000000Y-103880000D03*
X156540000Y-103880000D03*
X154000000Y-106420000D03*
X156540000Y-106420000D03*
X154000000Y-108960000D03*
X156540000Y-108960000D03*
X154000000Y-111500000D03*
X156540000Y-111500000D03*
%TD*%
D24*
%TO.C,U6*%
X153924999Y-74377800D03*
X153924999Y-75327801D03*
X153924999Y-76277799D03*
X156474999Y-76277799D03*
X156474999Y-75327801D03*
X156474999Y-74377800D03*
%TD*%
D19*
%TO.C,C4*%
X201700000Y-51500000D03*
X201700000Y-48604400D03*
%TD*%
D25*
%TO.C,R11*%
X188200000Y-51500000D03*
X188200000Y-51000001D03*
X188200000Y-50500002D03*
X188200000Y-50000001D03*
X188200000Y-49500001D03*
X188200000Y-49000000D03*
X188200000Y-48500001D03*
X188200000Y-48000002D03*
X186269600Y-48000002D03*
X186269600Y-48500001D03*
X186269600Y-49000000D03*
X186269600Y-49500001D03*
X186269600Y-50000001D03*
X186269600Y-50500002D03*
X186269600Y-51000001D03*
X186269600Y-51500000D03*
%TD*%
D26*
%TO.C,J3*%
X165553398Y-68463100D03*
X166053524Y-68463100D03*
X166553650Y-68463100D03*
X167053776Y-68463100D03*
X167553902Y-68463100D03*
X168054028Y-68463100D03*
X168554154Y-68463100D03*
X169054280Y-68463100D03*
X169554406Y-68463100D03*
X170054532Y-68463100D03*
X170554658Y-68463100D03*
X171054784Y-68463100D03*
X171554910Y-68463100D03*
X172055036Y-68463100D03*
X172555162Y-68463100D03*
X173055288Y-68463100D03*
X173555414Y-68463100D03*
X174055540Y-68463100D03*
X174555666Y-68463100D03*
X175055792Y-68463100D03*
X175555918Y-68463100D03*
X176056044Y-68463100D03*
X176556170Y-68463100D03*
X177056296Y-68463100D03*
X177556422Y-68463100D03*
X178056548Y-68463100D03*
X178556674Y-68463100D03*
X179056800Y-68463100D03*
X179556926Y-68463100D03*
X180057052Y-68463100D03*
X180557178Y-68463100D03*
X181057304Y-68463100D03*
X181557430Y-68463100D03*
X182057556Y-68463100D03*
X182557682Y-68463100D03*
X183057808Y-68463100D03*
X183557934Y-68463100D03*
X184058060Y-68463100D03*
X184558186Y-68463100D03*
X185058312Y-68463100D03*
D27*
X163405856Y-71813101D03*
X187205854Y-71813101D03*
%TD*%
D28*
%TO.C,C1*%
X139253600Y-93800000D03*
X142200000Y-93800000D03*
%TD*%
D29*
%TO.C,C2*%
X192750000Y-73524399D03*
X192750000Y-76580001D03*
%TD*%
D19*
%TO.C,C4*%
X228852200Y-55804400D03*
X228852200Y-58700000D03*
%TD*%
D29*
%TO.C,C7*%
X166490000Y-59552199D03*
X166490000Y-62607801D03*
%TD*%
%TO.C,C2*%
X206700000Y-51660002D03*
X206700000Y-48604400D03*
%TD*%
D30*
%TO.C,R6*%
X136456800Y-86430000D03*
X139250800Y-86430000D03*
%TD*%
D31*
%TO.C,C1*%
X143200000Y-67153600D03*
X143200000Y-70100000D03*
%TD*%
D32*
%TO.C,U7*%
X138246400Y-76511900D03*
X138246400Y-75561900D03*
X138246400Y-74611900D03*
X135736400Y-74611900D03*
X135736400Y-75561900D03*
X135736400Y-76511900D03*
%TD*%
D19*
%TO.C,C4*%
X145106800Y-81104400D03*
X145106800Y-84000000D03*
%TD*%
D29*
%TO.C,C2*%
X192800000Y-78867799D03*
X192800000Y-81923401D03*
%TD*%
D19*
%TO.C,C4*%
X226352200Y-55804400D03*
X226352200Y-58700000D03*
%TD*%
D33*
%TO.C,FB1*%
X206000000Y-80049300D03*
X206000000Y-78550700D03*
%TD*%
D34*
%TO.C,L1*%
X143291400Y-72496850D03*
X143291400Y-75049550D03*
%TD*%
D35*
%TO.C,U5*%
X143099800Y-81430000D03*
X142149800Y-81430000D03*
X141199800Y-81430000D03*
X141199800Y-83940000D03*
X142149800Y-83940000D03*
X143099800Y-83940000D03*
%TD*%
D19*
%TO.C,C4*%
X131250000Y-82169999D03*
X131250000Y-79274399D03*
%TD*%
D29*
%TO.C,C6*%
X139330000Y-54857801D03*
X139330000Y-51802199D03*
%TD*%
D36*
%TO.C,U3*%
X205078400Y-54278400D03*
X204578400Y-54278400D03*
X204082200Y-54278400D03*
X203574200Y-54278400D03*
X203078400Y-54278400D03*
X202578400Y-54278400D03*
X202075600Y-54278400D03*
X201578400Y-54278400D03*
X201078400Y-54278400D03*
X200577000Y-54278400D03*
X200069000Y-54278400D03*
X199578400Y-54278400D03*
X199078400Y-54278400D03*
X198570400Y-54278400D03*
X198078400Y-54278400D03*
X197579800Y-54278400D03*
X197071800Y-54278400D03*
X196578400Y-54278400D03*
X196081200Y-54278400D03*
X195573200Y-54278400D03*
X195078400Y-54278400D03*
X194582600Y-54278400D03*
X194074600Y-54278400D03*
X193566600Y-54278400D03*
X193078400Y-54278400D03*
D37*
X191356800Y-56005600D03*
X191356800Y-56500000D03*
X191356800Y-56996200D03*
X191356800Y-57504200D03*
X191356800Y-58000000D03*
X191356800Y-58494800D03*
X191356800Y-59002800D03*
X191356800Y-59510800D03*
X191356800Y-60000000D03*
X191356800Y-60501400D03*
X191356800Y-61000000D03*
X191356800Y-61500000D03*
X191356800Y-62000000D03*
X191356800Y-62500000D03*
X191356800Y-63000000D03*
X191356800Y-63498600D03*
X191356800Y-64000000D03*
X191356800Y-64500000D03*
X191356800Y-64997200D03*
X191356800Y-65505200D03*
X191356800Y-66000000D03*
X191356800Y-66495800D03*
X191356800Y-67003800D03*
X191356800Y-67500000D03*
X191356800Y-68000000D03*
D36*
X193084000Y-69721600D03*
X193578400Y-69721600D03*
X194074600Y-69721600D03*
X194582600Y-69721600D03*
X195078400Y-69721600D03*
X195578400Y-69721600D03*
X196081200Y-69721600D03*
X196578400Y-69721600D03*
X197078400Y-69721600D03*
X197579800Y-69721600D03*
X198078400Y-69721600D03*
X198578400Y-69721600D03*
X199078400Y-69721600D03*
X199578400Y-69721600D03*
X200078400Y-69721600D03*
X200577000Y-69721600D03*
X201078400Y-69721600D03*
X201578400Y-69721600D03*
X202075600Y-69721600D03*
X202578400Y-69721600D03*
X203078400Y-69721600D03*
X203574200Y-69721600D03*
X204082200Y-69721600D03*
X204590200Y-69721600D03*
X205078400Y-69721600D03*
D37*
X206800000Y-68000000D03*
X206800000Y-67500000D03*
X206800000Y-67003800D03*
X206800000Y-66495800D03*
X206800000Y-66000000D03*
X206800000Y-65500000D03*
X206800000Y-64997200D03*
X206800000Y-64500000D03*
X206800000Y-64000000D03*
X206800000Y-63498600D03*
X206800000Y-63000000D03*
X206800000Y-62500000D03*
X206800000Y-62000000D03*
X206800000Y-61500000D03*
X206800000Y-61000000D03*
X206800000Y-60501400D03*
X206800000Y-60000000D03*
X206800000Y-59500000D03*
X206800000Y-59002800D03*
X206800000Y-58500000D03*
X206800000Y-58000000D03*
X206800000Y-57504200D03*
X206800000Y-56996200D03*
X206800000Y-56500000D03*
X206800000Y-56000000D03*
D38*
X199078400Y-62000000D03*
%TD*%
D25*
%TO.C,R10*%
X188250000Y-56500000D03*
X188250000Y-56000001D03*
X188250000Y-55500002D03*
X188250000Y-55000001D03*
X188250000Y-54500001D03*
X188250000Y-54000000D03*
X188250000Y-53500001D03*
X188250000Y-53000002D03*
X186319600Y-53000002D03*
X186319600Y-53500001D03*
X186319600Y-54000000D03*
X186319600Y-54500001D03*
X186319600Y-55000001D03*
X186319600Y-55500002D03*
X186319600Y-56000001D03*
X186319600Y-56500000D03*
%TD*%
D22*
%TO.C,REF\u002A\u002A*%
X124500000Y-83775000D03*
D23*
X124500000Y-81235000D03*
X124500000Y-78695000D03*
%TD*%
D39*
%TO.C,REF\u002A\u002A*%
X126100000Y-50600000D03*
%TD*%
D29*
%TO.C,C3*%
X153800000Y-72783403D03*
X153800000Y-69727801D03*
%TD*%
D19*
%TO.C,C4*%
X223852200Y-55752200D03*
X223852200Y-58647800D03*
%TD*%
%TO.C,C4*%
X195300000Y-78947800D03*
X195300000Y-81843400D03*
%TD*%
D20*
%TO.C,J1*%
X125819999Y-58500000D03*
X125819999Y-68500000D03*
D21*
X133000000Y-68500000D03*
X133000000Y-66000000D03*
X133000000Y-63500000D03*
X133000000Y-61000000D03*
X133000000Y-58500000D03*
%TD*%
D40*
%TO.C,R8*%
X156074999Y-72725599D03*
X156074999Y-69829999D03*
%TD*%
D41*
%TO.C,R2*%
X140890000Y-67345200D03*
X140890000Y-70190000D03*
%TD*%
D42*
%TO.C,R4*%
X136340000Y-70266000D03*
X136340000Y-67472000D03*
%TD*%
D19*
%TO.C,C4*%
X200250000Y-73604400D03*
X200250000Y-76500000D03*
%TD*%
D29*
%TO.C,C2*%
X129100000Y-72534099D03*
X129100000Y-75589701D03*
%TD*%
D25*
%TO.C,R9*%
X188250000Y-61500000D03*
X188250000Y-61000001D03*
X188250000Y-60500002D03*
X188250000Y-60000001D03*
X188250000Y-59500001D03*
X188250000Y-59000000D03*
X188250000Y-58500001D03*
X188250000Y-58000002D03*
X186319600Y-58000002D03*
X186319600Y-58500001D03*
X186319600Y-59000000D03*
X186319600Y-59500001D03*
X186319600Y-60000001D03*
X186319600Y-60500002D03*
X186319600Y-61000001D03*
X186319600Y-61500000D03*
%TD*%
D19*
%TO.C,C4*%
X197800000Y-79000000D03*
X197800000Y-81895600D03*
%TD*%
D43*
%TO.C,CRSTL*%
X162800000Y-64200000D03*
X162800000Y-55208400D03*
%TD*%
D41*
%TO.C,R1*%
X136000000Y-58500000D03*
X136000000Y-61344800D03*
%TD*%
D30*
%TO.C,R5*%
X139250800Y-88650000D03*
X136456800Y-88650000D03*
%TD*%
D31*
%TO.C,C1*%
X145673200Y-67126800D03*
X145673200Y-70073200D03*
%TD*%
D30*
%TO.C,R7*%
X139247800Y-84190000D03*
X136453800Y-84190000D03*
%TD*%
D29*
%TO.C,C6*%
X147580000Y-54930000D03*
X147580000Y-51874398D03*
%TD*%
D44*
%TO.C,U2*%
X143963800Y-61705000D03*
X143963800Y-60435000D03*
X143963800Y-59165000D03*
X143963800Y-57895000D03*
X139036200Y-57895000D03*
X139036200Y-59165000D03*
X139036200Y-60435000D03*
X139036200Y-61705000D03*
%TD*%
D19*
%TO.C,C4*%
X231352200Y-55752200D03*
X231352200Y-58647800D03*
%TD*%
D39*
%TO.C,REF\u002A\u002A*%
X234000000Y-50500000D03*
%TD*%
D28*
%TO.C,C1*%
X139253600Y-91300000D03*
X142200000Y-91300000D03*
%TD*%
D29*
%TO.C,C2*%
X221352200Y-55752200D03*
X221352200Y-58807802D03*
%TD*%
%TO.C,C7*%
X166460000Y-57707801D03*
X166460000Y-54652199D03*
%TD*%
D19*
%TO.C,C4*%
X195250000Y-73604400D03*
X195250000Y-76500000D03*
%TD*%
D33*
%TO.C,FB*%
X221000000Y-52201400D03*
X221000000Y-53700000D03*
%TD*%
%TO.C,FB*%
X208800000Y-51560002D03*
X208800000Y-50061402D03*
%TD*%
D39*
%TO.C,*%
X213400000Y-50600000D03*
%TD*%
D29*
%TO.C,C2*%
X133700000Y-72534099D03*
X133700000Y-75589701D03*
%TD*%
D45*
%TO.C,U1*%
X149830000Y-62300000D03*
X151100000Y-62300000D03*
X152370000Y-62300000D03*
X153640000Y-62300000D03*
X154910000Y-62300000D03*
X156180000Y-62300000D03*
X157450000Y-62300000D03*
X157450000Y-56991400D03*
X156180000Y-56991400D03*
X154910000Y-56991400D03*
X153640000Y-56991400D03*
X152370000Y-56991400D03*
X151100000Y-56991400D03*
X149830000Y-56991400D03*
%TD*%
D29*
%TO.C,C2*%
X141830000Y-54857801D03*
X141830000Y-51802199D03*
%TD*%
D46*
%TO.C,REF\u002A\u002A*%
X209800000Y-65500000D03*
D47*
X210800000Y-65500000D03*
X211800000Y-65500000D03*
X212800000Y-65500000D03*
X213800000Y-65500000D03*
%TD*%
D19*
%TO.C,C4*%
X202800000Y-79000000D03*
X202800000Y-81895600D03*
%TD*%
%TO.C,C4*%
X197750000Y-73604400D03*
X197750000Y-76500000D03*
%TD*%
%TO.C,C4*%
X131300000Y-72644300D03*
X131300000Y-75539900D03*
%TD*%
D48*
%TO.C,C4*%
X143291400Y-77073200D03*
X140395800Y-77073200D03*
%TD*%
D29*
%TO.C,C3*%
X158300000Y-82983403D03*
X158300000Y-79927801D03*
%TD*%
%TO.C,C2*%
X136250000Y-82250000D03*
X136250000Y-79194398D03*
%TD*%
%TO.C,C2*%
X145052199Y-54902199D03*
X145052199Y-51846597D03*
%TD*%
D19*
%TO.C,C4*%
X200300000Y-79000000D03*
X200300000Y-81895600D03*
%TD*%
D39*
%TO.C,REF\u002A\u002A*%
X126000000Y-110500000D03*
%TD*%
D33*
%TO.C,FB*%
X206050000Y-73500700D03*
X206050000Y-74999300D03*
%TD*%
D29*
%TO.C,C2*%
X133750000Y-82250000D03*
X133750000Y-79194398D03*
%TD*%
%TO.C,C5*%
X158300000Y-75400000D03*
X158300000Y-78455602D03*
%TD*%
D19*
%TO.C,C4*%
X202750000Y-73552200D03*
X202750000Y-76447800D03*
%TD*%
D49*
%TO.C,R3*%
X138590000Y-70305200D03*
X138590000Y-67385200D03*
%TD*%
D46*
%TO.C,REF\u002A\u002A*%
X217800000Y-62500000D03*
D47*
X216800000Y-62500000D03*
X215800000Y-62500000D03*
X214800000Y-62500000D03*
X213800000Y-62500000D03*
%TD*%
D25*
%TO.C,R12*%
X188200000Y-67000000D03*
X188200000Y-66500001D03*
X188200000Y-66000002D03*
X188200000Y-65500001D03*
X188200000Y-65000001D03*
X188200000Y-64500000D03*
X188200000Y-64000001D03*
X188200000Y-63500002D03*
X186269600Y-63500002D03*
X186269600Y-64000001D03*
X186269600Y-64500000D03*
X186269600Y-65000001D03*
X186269600Y-65500001D03*
X186269600Y-66000002D03*
X186269600Y-66500001D03*
X186269600Y-67000000D03*
%TD*%
D50*
%TO.C,D1*%
X155300000Y-82904201D03*
X155300000Y-79551401D03*
%TD*%
%LPD*%
M02*
