%TF.GenerationSoftware,KiCad,Pcbnew,8.0.8*%
%TF.CreationDate,2025-02-15T01:08:23-07:00*%
%TF.ProjectId,ECE Capstone PCB Design,45434520-4361-4707-9374-6f6e65205043,rev?*%
%TF.SameCoordinates,Original*%
%TF.FileFunction,Profile,NP*%
%FSLAX46Y46*%
G04 Gerber Fmt 4.6, Leading zero omitted, Abs format (unit mm)*
G04 Created by KiCad (PCBNEW 8.0.8) date 2025-02-15 01:08:23*
%MOMM*%
%LPD*%
G01*
G04 APERTURE LIST*
%TA.AperFunction,Profile*%
%ADD10C,0.050000*%
%TD*%
G04 APERTURE END LIST*
D10*
X197750000Y-106950000D02*
X164950000Y-106950000D01*
X237500000Y-50600000D02*
X237500000Y-80000000D01*
X160710000Y-74500000D02*
X189860000Y-74500000D01*
X160700000Y-110500000D02*
G75*
G02*
X157200000Y-114000000I-3500000J0D01*
G01*
X236550000Y-110450000D02*
G75*
G02*
X233050000Y-113950000I-3500000J0D01*
G01*
X211750000Y-104150000D02*
X211750000Y-87450000D01*
X189860000Y-74500000D02*
X189860000Y-83500000D01*
X161450000Y-110450000D02*
G75*
G02*
X164950000Y-106950000I3500000J0D01*
G01*
X122600000Y-110500000D02*
X122600000Y-50600000D01*
X126100000Y-114000000D02*
G75*
G02*
X122600000Y-110500000I0J3500000D01*
G01*
X160700000Y-110500000D02*
X160710000Y-74500000D01*
X233050000Y-113950000D02*
X164950000Y-113950000D01*
X157200000Y-114000000D02*
X126100000Y-114000000D01*
X122600000Y-50600000D02*
G75*
G02*
X126100000Y-47100000I3500000J0D01*
G01*
X237500000Y-80000000D02*
G75*
G02*
X234000000Y-83500000I-3500000J0D01*
G01*
X233050000Y-83950000D02*
G75*
G02*
X236550000Y-87450000I0J-3500000D01*
G01*
X236550000Y-110450000D02*
X236550000Y-87450000D01*
X126100000Y-47100000D02*
X234000000Y-47100000D01*
X197750000Y-104150000D02*
X211750000Y-104150000D01*
X234000000Y-83500000D02*
X189860000Y-83500000D01*
X197750000Y-106950000D02*
X197750000Y-104150000D01*
X234000000Y-47100000D02*
G75*
G02*
X237500000Y-50600000I0J-3500000D01*
G01*
X164950000Y-113950000D02*
G75*
G02*
X161450000Y-110450000I0J3500000D01*
G01*
X215250000Y-83950000D02*
X233050000Y-83950000D01*
X211750000Y-87450000D02*
G75*
G02*
X215250000Y-83950000I3500000J0D01*
G01*
X165590000Y-79490000D02*
X165590000Y-83000000D01*
X174990000Y-101780000D02*
X175000000Y-83000000D01*
X163500000Y-83000000D02*
X165590000Y-83000000D01*
X172590000Y-83000000D02*
X175000000Y-83000000D01*
X172590000Y-79490000D02*
X172590000Y-83000000D01*
X163490000Y-101780000D02*
X163500000Y-83000000D01*
X174990000Y-101780000D02*
X163490000Y-101780000D01*
X165590000Y-79490000D02*
G75*
G02*
X172590000Y-79490000I3500000J0D01*
G01*
M02*
