%TF.GenerationSoftware,KiCad,Pcbnew,8.0.8*%
%TF.CreationDate,2025-02-15T01:08:23-07:00*%
%TF.ProjectId,ECE Capstone PCB Design,45434520-4361-4707-9374-6f6e65205043,rev?*%
%TF.SameCoordinates,Original*%
%TF.FileFunction,Legend,Bot*%
%TF.FilePolarity,Positive*%
%FSLAX46Y46*%
G04 Gerber Fmt 4.6, Leading zero omitted, Abs format (unit mm)*
G04 Created by KiCad (PCBNEW 8.0.8) date 2025-02-15 01:08:23*
%MOMM*%
%LPD*%
G01*
G04 APERTURE LIST*
G04 Aperture macros list*
%AMRoundRect*
0 Rectangle with rounded corners*
0 $1 Rounding radius*
0 $2 $3 $4 $5 $6 $7 $8 $9 X,Y pos of 4 corners*
0 Add a 4 corners polygon primitive as box body*
4,1,4,$2,$3,$4,$5,$6,$7,$8,$9,$2,$3,0*
0 Add four circle primitives for the rounded corners*
1,1,$1+$1,$2,$3*
1,1,$1+$1,$4,$5*
1,1,$1+$1,$6,$7*
1,1,$1+$1,$8,$9*
0 Add four rect primitives between the rounded corners*
20,1,$1+$1,$2,$3,$4,$5,0*
20,1,$1+$1,$4,$5,$6,$7,0*
20,1,$1+$1,$6,$7,$8,$9,0*
20,1,$1+$1,$8,$9,$2,$3,0*%
G04 Aperture macros list end*
%ADD10C,0.150000*%
%ADD11C,0.508000*%
%ADD12C,0.120000*%
%ADD13C,5.400000*%
%ADD14C,1.854200*%
%ADD15C,1.752600*%
%ADD16R,1.700000X1.700000*%
%ADD17O,1.700000X1.700000*%
%ADD18R,0.850000X0.850000*%
%ADD19O,0.850000X0.850000*%
%ADD20RoundRect,0.102000X-0.375000X-1.250000X0.375000X-1.250000X0.375000X1.250000X-0.375000X1.250000X0*%
G04 APERTURE END LIST*
D10*
X167623333Y-107932295D02*
X167956666Y-107551342D01*
X168194761Y-107932295D02*
X168194761Y-107132295D01*
X168194761Y-107132295D02*
X167813809Y-107132295D01*
X167813809Y-107132295D02*
X167718571Y-107170390D01*
X167718571Y-107170390D02*
X167670952Y-107208485D01*
X167670952Y-107208485D02*
X167623333Y-107284676D01*
X167623333Y-107284676D02*
X167623333Y-107398961D01*
X167623333Y-107398961D02*
X167670952Y-107475152D01*
X167670952Y-107475152D02*
X167718571Y-107513247D01*
X167718571Y-107513247D02*
X167813809Y-107551342D01*
X167813809Y-107551342D02*
X168194761Y-107551342D01*
X167194761Y-107513247D02*
X166861428Y-107513247D01*
X166718571Y-107932295D02*
X167194761Y-107932295D01*
X167194761Y-107932295D02*
X167194761Y-107132295D01*
X167194761Y-107132295D02*
X166718571Y-107132295D01*
X165956666Y-107513247D02*
X166289999Y-107513247D01*
X166289999Y-107932295D02*
X166289999Y-107132295D01*
X166289999Y-107132295D02*
X165813809Y-107132295D01*
X165289999Y-107132295D02*
X165289999Y-107322771D01*
X165528094Y-107246580D02*
X165289999Y-107322771D01*
X165289999Y-107322771D02*
X165051904Y-107246580D01*
X165432856Y-107475152D02*
X165289999Y-107322771D01*
X165289999Y-107322771D02*
X165147142Y-107475152D01*
X164528094Y-107132295D02*
X164528094Y-107322771D01*
X164766189Y-107246580D02*
X164528094Y-107322771D01*
X164528094Y-107322771D02*
X164289999Y-107246580D01*
X164670951Y-107475152D02*
X164528094Y-107322771D01*
X164528094Y-107322771D02*
X164385237Y-107475152D01*
X233263459Y-87214819D02*
X233596792Y-86738628D01*
X233834887Y-87214819D02*
X233834887Y-86214819D01*
X233834887Y-86214819D02*
X233453935Y-86214819D01*
X233453935Y-86214819D02*
X233358697Y-86262438D01*
X233358697Y-86262438D02*
X233311078Y-86310057D01*
X233311078Y-86310057D02*
X233263459Y-86405295D01*
X233263459Y-86405295D02*
X233263459Y-86548152D01*
X233263459Y-86548152D02*
X233311078Y-86643390D01*
X233311078Y-86643390D02*
X233358697Y-86691009D01*
X233358697Y-86691009D02*
X233453935Y-86738628D01*
X233453935Y-86738628D02*
X233834887Y-86738628D01*
X232834887Y-86691009D02*
X232501554Y-86691009D01*
X232358697Y-87214819D02*
X232834887Y-87214819D01*
X232834887Y-87214819D02*
X232834887Y-86214819D01*
X232834887Y-86214819D02*
X232358697Y-86214819D01*
X231596792Y-86691009D02*
X231930125Y-86691009D01*
X231930125Y-87214819D02*
X231930125Y-86214819D01*
X231930125Y-86214819D02*
X231453935Y-86214819D01*
X230930125Y-86214819D02*
X230930125Y-86452914D01*
X231168220Y-86357676D02*
X230930125Y-86452914D01*
X230930125Y-86452914D02*
X230692030Y-86357676D01*
X231072982Y-86643390D02*
X230930125Y-86452914D01*
X230930125Y-86452914D02*
X230787268Y-86643390D01*
X230168220Y-86214819D02*
X230168220Y-86452914D01*
X230406315Y-86357676D02*
X230168220Y-86452914D01*
X230168220Y-86452914D02*
X229930125Y-86357676D01*
X230311077Y-86643390D02*
X230168220Y-86452914D01*
X230168220Y-86452914D02*
X230025363Y-86643390D01*
D11*
%TO.C,J2*%
X133381000Y-104880300D02*
G75*
G02*
X132619000Y-104880300I-381000J0D01*
G01*
X132619000Y-104880300D02*
G75*
G02*
X133381000Y-104880300I381000J0D01*
G01*
%TO.C,J3*%
X162694755Y-68463100D02*
G75*
G02*
X161932755Y-68463100I-381000J0D01*
G01*
X161932755Y-68463100D02*
G75*
G02*
X162694755Y-68463100I381000J0D01*
G01*
%TO.C,J1*%
X130681000Y-68500000D02*
G75*
G02*
X129919000Y-68500000I-381000J0D01*
G01*
X129919000Y-68500000D02*
G75*
G02*
X130681000Y-68500000I381000J0D01*
G01*
D12*
%TO.C,REF\u002A\u002A*%
X219365026Y-113095000D02*
X168445026Y-113095000D01*
X168445026Y-113095000D02*
X168445026Y-110495000D01*
X168445026Y-109225000D02*
X168445026Y-107895000D01*
X168445026Y-107895000D02*
X169775026Y-107895000D01*
X168445026Y-110495000D02*
X171045026Y-110495000D01*
X171045026Y-110495000D02*
X171045026Y-107895000D01*
X219365026Y-107895000D02*
X171045026Y-107895000D01*
X219365026Y-113095000D02*
X219365026Y-107895000D01*
X229330126Y-113280000D02*
X229330126Y-87760000D01*
X231930126Y-87760000D02*
X231930126Y-90360000D01*
X229330126Y-87760000D02*
X231930126Y-87760000D01*
X229330126Y-113280000D02*
X234530126Y-113280000D01*
X231930126Y-90360000D02*
X234530126Y-90360000D01*
X234530126Y-113280000D02*
X234530126Y-90360000D01*
X234530126Y-87760000D02*
X234530126Y-89090000D01*
X233200126Y-87760000D02*
X234530126Y-87760000D01*
%TD*%
%LPC*%
D13*
%TO.C,*%
X164950000Y-110450000D03*
%TD*%
%TO.C,*%
X222975000Y-87450000D03*
%TD*%
%TO.C,*%
X222950000Y-110450000D03*
%TD*%
D14*
%TO.C,J2*%
X125819999Y-92400000D03*
X125819999Y-102400000D03*
D15*
X133000000Y-102400000D03*
X133000000Y-99900000D03*
X133000000Y-97400000D03*
X133000000Y-94900000D03*
X133000000Y-92400000D03*
%TD*%
D16*
%TO.C,REF\u002A\u002A*%
X154000000Y-88640000D03*
D17*
X156540000Y-88640000D03*
X154000000Y-91180000D03*
X156540000Y-91180000D03*
X154000000Y-93720000D03*
X156540000Y-93720000D03*
X154000000Y-96260000D03*
X156540000Y-96260000D03*
X154000000Y-98800000D03*
X156540000Y-98800000D03*
X154000000Y-101340000D03*
X156540000Y-101340000D03*
X154000000Y-103880000D03*
X156540000Y-103880000D03*
X154000000Y-106420000D03*
X156540000Y-106420000D03*
X154000000Y-108960000D03*
X156540000Y-108960000D03*
X154000000Y-111500000D03*
X156540000Y-111500000D03*
%TD*%
D16*
%TO.C,REF\u002A\u002A*%
X124500000Y-83775000D03*
D17*
X124500000Y-81235000D03*
X124500000Y-78695000D03*
%TD*%
D13*
%TO.C,REF\u002A\u002A*%
X126100000Y-50600000D03*
%TD*%
D14*
%TO.C,J1*%
X125819999Y-58500000D03*
X125819999Y-68500000D03*
D15*
X133000000Y-68500000D03*
X133000000Y-66000000D03*
X133000000Y-63500000D03*
X133000000Y-61000000D03*
X133000000Y-58500000D03*
%TD*%
D17*
%TO.C,REF\u002A\u002A*%
X218035026Y-111765000D03*
X218035026Y-109225000D03*
X215495026Y-111765000D03*
X215495026Y-109225000D03*
X212955026Y-111765000D03*
X212955026Y-109225000D03*
X210415026Y-111765000D03*
X210415026Y-109225000D03*
X207875026Y-111765000D03*
X207875026Y-109225000D03*
X205335026Y-111765000D03*
X205335026Y-109225000D03*
X202795026Y-111765000D03*
X202795026Y-109225000D03*
X200255026Y-111765000D03*
X200255026Y-109225000D03*
X197715026Y-111765000D03*
X197715026Y-109225000D03*
X195175026Y-111765000D03*
X195175026Y-109225000D03*
X192635026Y-111765000D03*
X192635026Y-109225000D03*
X190095026Y-111765000D03*
X190095026Y-109225000D03*
X187555026Y-111765000D03*
X187555026Y-109225000D03*
X185015026Y-111765000D03*
X185015026Y-109225000D03*
X182475026Y-111765000D03*
X182475026Y-109225000D03*
X179935026Y-111765000D03*
X179935026Y-109225000D03*
X177395026Y-111765000D03*
X177395026Y-109225000D03*
X174855026Y-111765000D03*
X174855026Y-109225000D03*
X172315026Y-111765000D03*
X172315026Y-109225000D03*
X169775026Y-111765000D03*
D16*
X169775026Y-109225000D03*
%TD*%
D13*
%TO.C,REF\u002A\u002A*%
X234000000Y-50500000D03*
%TD*%
%TO.C,*%
X213400000Y-50600000D03*
%TD*%
D17*
%TO.C,REF\u002A\u002A*%
X230660126Y-111950000D03*
X233200126Y-111950000D03*
X230660126Y-109410000D03*
X233200126Y-109410000D03*
X230660126Y-106870000D03*
X233200126Y-106870000D03*
X230660126Y-104330000D03*
X233200126Y-104330000D03*
X230660126Y-101790000D03*
X233200126Y-101790000D03*
X230660126Y-99250000D03*
X233200126Y-99250000D03*
X230660126Y-96710000D03*
X233200126Y-96710000D03*
X230660126Y-94170000D03*
X233200126Y-94170000D03*
X230660126Y-91630000D03*
X233200126Y-91630000D03*
X230660126Y-89090000D03*
D16*
X233200126Y-89090000D03*
%TD*%
D13*
%TO.C,REF\u002A\u002A*%
X126000000Y-110500000D03*
%TD*%
D18*
%TO.C,REF\u002A\u002A*%
X217800000Y-62500000D03*
D19*
X216800000Y-62500000D03*
X215800000Y-62500000D03*
X214800000Y-62500000D03*
X213800000Y-62500000D03*
%TD*%
%TO.C,REF\u002A\u002A*%
X213800000Y-65500000D03*
X212800000Y-65500000D03*
X211800000Y-65500000D03*
X210800000Y-65500000D03*
D18*
X209800000Y-65500000D03*
%TD*%
D20*
%TO.C,REF\u002A\u002A*%
X174220000Y-100270000D03*
X173020000Y-100270000D03*
X171820000Y-100270000D03*
X170520000Y-100270000D03*
X169320000Y-100270000D03*
X168020000Y-100270000D03*
X166820000Y-100270000D03*
X165520000Y-100270000D03*
X164320000Y-100270000D03*
%TD*%
D13*
%TO.C,*%
X169140000Y-79480000D03*
%TD*%
D19*
%TO.C,REF\u002A\u002A*%
X169540000Y-94380000D03*
X168540000Y-94380000D03*
X167540000Y-94380000D03*
X166540000Y-94380000D03*
D18*
X165540000Y-94380000D03*
%TD*%
D19*
%TO.C,REF\u002A\u002A*%
X169540000Y-91380000D03*
X170540000Y-91380000D03*
X171540000Y-91380000D03*
X172540000Y-91380000D03*
D18*
X173540000Y-91380000D03*
%TD*%
%LPD*%
M02*
