%TF.GenerationSoftware,KiCad,Pcbnew,8.0.8*%
%TF.CreationDate,2025-02-15T01:10:02-07:00*%
%TF.ProjectId,ECE Capstone PCB Design,45434520-4361-4707-9374-6f6e65205043,rev?*%
%TF.SameCoordinates,Original*%
%TF.FileFunction,Drillmap*%
%TF.FilePolarity,Positive*%
%FSLAX45Y45*%
G04 Gerber Fmt 4.5, Leading zero omitted, Abs format (unit mm)*
G04 Created by KiCad (PCBNEW 8.0.8) date 2025-02-15 01:10:02*
%MOMM*%
%LPD*%
G01*
G04 APERTURE LIST*
%ADD10C,0.050000*%
%ADD11C,0.200000*%
%ADD12C,0.185420*%
G04 APERTURE END LIST*
D10*
X19775000Y-10695000D02*
X16495000Y-10695000D01*
X23750000Y-5060000D02*
X23750000Y-8000000D01*
X16071000Y-7450000D02*
X18986000Y-7450000D01*
X16070000Y-11050000D02*
G75*
G02*
X15720000Y-11400000I-350000J0D01*
G01*
X23655000Y-11045000D02*
G75*
G02*
X23305000Y-11395000I-350000J0D01*
G01*
X21175000Y-10415000D02*
X21175000Y-8745000D01*
X18986000Y-7450000D02*
X18986000Y-8350000D01*
X16145000Y-11045000D02*
G75*
G02*
X16495000Y-10695000I350000J0D01*
G01*
X12260000Y-11050000D02*
X12260000Y-5060000D01*
X12610000Y-11400000D02*
G75*
G02*
X12260000Y-11050000I0J350000D01*
G01*
X16070000Y-11050000D02*
X16071000Y-7450000D01*
X23305000Y-11395000D02*
X16495000Y-11395000D01*
X15720000Y-11400000D02*
X12610000Y-11400000D01*
X12260000Y-5060000D02*
G75*
G02*
X12610000Y-4710000I350000J0D01*
G01*
X23750000Y-8000000D02*
G75*
G02*
X23400000Y-8350000I-350000J0D01*
G01*
X23305000Y-8395000D02*
G75*
G02*
X23655000Y-8745000I0J-350000D01*
G01*
X23655000Y-11045000D02*
X23655000Y-8745000D01*
X12610000Y-4710000D02*
X23400000Y-4710000D01*
X19775000Y-10415000D02*
X21175000Y-10415000D01*
X23400000Y-8350000D02*
X18986000Y-8350000D01*
X19775000Y-10695000D02*
X19775000Y-10415000D01*
X23400000Y-4710000D02*
G75*
G02*
X23750000Y-5060000I0J-350000D01*
G01*
X16495000Y-11395000D02*
G75*
G02*
X16145000Y-11045000I0J350000D01*
G01*
X21525000Y-8395000D02*
X23305000Y-8395000D01*
X21175000Y-8745000D02*
G75*
G02*
X21525000Y-8395000I350000J0D01*
G01*
X16559000Y-7949000D02*
X16559000Y-8300000D01*
X17499000Y-10178000D02*
X17500000Y-8300000D01*
X16350000Y-8300000D02*
X16559000Y-8300000D01*
X17259000Y-8300000D02*
X17500000Y-8300000D01*
X17259000Y-7949000D02*
X17259000Y-8300000D01*
X16349000Y-10178000D02*
X16350000Y-8300000D01*
X17499000Y-10178000D02*
X16349000Y-10178000D01*
X16559000Y-7949000D02*
G75*
G02*
X17259000Y-7949000I350000J0D01*
G01*
D11*
D12*
X12489290Y-5757290D02*
X12674710Y-5942710D01*
X12674710Y-5757290D02*
X12489290Y-5942710D01*
X12489290Y-6757290D02*
X12674710Y-6942710D01*
X12674710Y-6757290D02*
X12489290Y-6942710D01*
X12489290Y-9147290D02*
X12674710Y-9332710D01*
X12674710Y-9147290D02*
X12489290Y-9332710D01*
X12489290Y-10147290D02*
X12674710Y-10332710D01*
X12674710Y-10147290D02*
X12489290Y-10332710D01*
D11*
X12518277Y-11713984D02*
X12518277Y-11513984D01*
X12518277Y-11513984D02*
X12565896Y-11513984D01*
X12565896Y-11513984D02*
X12594467Y-11523508D01*
X12594467Y-11523508D02*
X12613515Y-11542555D01*
X12613515Y-11542555D02*
X12623039Y-11561603D01*
X12623039Y-11561603D02*
X12632562Y-11599698D01*
X12632562Y-11599698D02*
X12632562Y-11628269D01*
X12632562Y-11628269D02*
X12623039Y-11666365D01*
X12623039Y-11666365D02*
X12613515Y-11685412D01*
X12613515Y-11685412D02*
X12594467Y-11704460D01*
X12594467Y-11704460D02*
X12565896Y-11713984D01*
X12565896Y-11713984D02*
X12518277Y-11713984D01*
X12718277Y-11713984D02*
X12718277Y-11580650D01*
X12718277Y-11618746D02*
X12727801Y-11599698D01*
X12727801Y-11599698D02*
X12737324Y-11590174D01*
X12737324Y-11590174D02*
X12756372Y-11580650D01*
X12756372Y-11580650D02*
X12775420Y-11580650D01*
X12842086Y-11713984D02*
X12842086Y-11580650D01*
X12842086Y-11513984D02*
X12832562Y-11523508D01*
X12832562Y-11523508D02*
X12842086Y-11533031D01*
X12842086Y-11533031D02*
X12851610Y-11523508D01*
X12851610Y-11523508D02*
X12842086Y-11513984D01*
X12842086Y-11513984D02*
X12842086Y-11533031D01*
X12965896Y-11713984D02*
X12946848Y-11704460D01*
X12946848Y-11704460D02*
X12937324Y-11685412D01*
X12937324Y-11685412D02*
X12937324Y-11513984D01*
X13070658Y-11713984D02*
X13051610Y-11704460D01*
X13051610Y-11704460D02*
X13042086Y-11685412D01*
X13042086Y-11685412D02*
X13042086Y-11513984D01*
X13299229Y-11713984D02*
X13299229Y-11513984D01*
X13299229Y-11513984D02*
X13365896Y-11656841D01*
X13365896Y-11656841D02*
X13432562Y-11513984D01*
X13432562Y-11513984D02*
X13432562Y-11713984D01*
X13613515Y-11713984D02*
X13613515Y-11609222D01*
X13613515Y-11609222D02*
X13603991Y-11590174D01*
X13603991Y-11590174D02*
X13584943Y-11580650D01*
X13584943Y-11580650D02*
X13546848Y-11580650D01*
X13546848Y-11580650D02*
X13527801Y-11590174D01*
X13613515Y-11704460D02*
X13594467Y-11713984D01*
X13594467Y-11713984D02*
X13546848Y-11713984D01*
X13546848Y-11713984D02*
X13527801Y-11704460D01*
X13527801Y-11704460D02*
X13518277Y-11685412D01*
X13518277Y-11685412D02*
X13518277Y-11666365D01*
X13518277Y-11666365D02*
X13527801Y-11647317D01*
X13527801Y-11647317D02*
X13546848Y-11637793D01*
X13546848Y-11637793D02*
X13594467Y-11637793D01*
X13594467Y-11637793D02*
X13613515Y-11628269D01*
X13708753Y-11580650D02*
X13708753Y-11780650D01*
X13708753Y-11590174D02*
X13727801Y-11580650D01*
X13727801Y-11580650D02*
X13765896Y-11580650D01*
X13765896Y-11580650D02*
X13784943Y-11590174D01*
X13784943Y-11590174D02*
X13794467Y-11599698D01*
X13794467Y-11599698D02*
X13803991Y-11618746D01*
X13803991Y-11618746D02*
X13803991Y-11675888D01*
X13803991Y-11675888D02*
X13794467Y-11694936D01*
X13794467Y-11694936D02*
X13784943Y-11704460D01*
X13784943Y-11704460D02*
X13765896Y-11713984D01*
X13765896Y-11713984D02*
X13727801Y-11713984D01*
X13727801Y-11713984D02*
X13708753Y-11704460D01*
X13889705Y-11694936D02*
X13899229Y-11704460D01*
X13899229Y-11704460D02*
X13889705Y-11713984D01*
X13889705Y-11713984D02*
X13880182Y-11704460D01*
X13880182Y-11704460D02*
X13889705Y-11694936D01*
X13889705Y-11694936D02*
X13889705Y-11713984D01*
X13889705Y-11590174D02*
X13899229Y-11599698D01*
X13899229Y-11599698D02*
X13889705Y-11609222D01*
X13889705Y-11609222D02*
X13880182Y-11599698D01*
X13880182Y-11599698D02*
X13889705Y-11590174D01*
X13889705Y-11590174D02*
X13889705Y-11609222D01*
D12*
X12072080Y-11949790D02*
X12257500Y-12135210D01*
X12257500Y-11949790D02*
X12072080Y-12135210D01*
D11*
X12623039Y-12133984D02*
X12508753Y-12133984D01*
X12565896Y-12133984D02*
X12565896Y-11933984D01*
X12565896Y-11933984D02*
X12546848Y-11962555D01*
X12546848Y-11962555D02*
X12527801Y-11981603D01*
X12527801Y-11981603D02*
X12508753Y-11991127D01*
X12708753Y-12114936D02*
X12718277Y-12124460D01*
X12718277Y-12124460D02*
X12708753Y-12133984D01*
X12708753Y-12133984D02*
X12699229Y-12124460D01*
X12699229Y-12124460D02*
X12708753Y-12114936D01*
X12708753Y-12114936D02*
X12708753Y-12133984D01*
X12832562Y-12019698D02*
X12813515Y-12010174D01*
X12813515Y-12010174D02*
X12803991Y-12000650D01*
X12803991Y-12000650D02*
X12794467Y-11981603D01*
X12794467Y-11981603D02*
X12794467Y-11972079D01*
X12794467Y-11972079D02*
X12803991Y-11953031D01*
X12803991Y-11953031D02*
X12813515Y-11943508D01*
X12813515Y-11943508D02*
X12832562Y-11933984D01*
X12832562Y-11933984D02*
X12870658Y-11933984D01*
X12870658Y-11933984D02*
X12889705Y-11943508D01*
X12889705Y-11943508D02*
X12899229Y-11953031D01*
X12899229Y-11953031D02*
X12908753Y-11972079D01*
X12908753Y-11972079D02*
X12908753Y-11981603D01*
X12908753Y-11981603D02*
X12899229Y-12000650D01*
X12899229Y-12000650D02*
X12889705Y-12010174D01*
X12889705Y-12010174D02*
X12870658Y-12019698D01*
X12870658Y-12019698D02*
X12832562Y-12019698D01*
X12832562Y-12019698D02*
X12813515Y-12029222D01*
X12813515Y-12029222D02*
X12803991Y-12038746D01*
X12803991Y-12038746D02*
X12794467Y-12057793D01*
X12794467Y-12057793D02*
X12794467Y-12095888D01*
X12794467Y-12095888D02*
X12803991Y-12114936D01*
X12803991Y-12114936D02*
X12813515Y-12124460D01*
X12813515Y-12124460D02*
X12832562Y-12133984D01*
X12832562Y-12133984D02*
X12870658Y-12133984D01*
X12870658Y-12133984D02*
X12889705Y-12124460D01*
X12889705Y-12124460D02*
X12899229Y-12114936D01*
X12899229Y-12114936D02*
X12908753Y-12095888D01*
X12908753Y-12095888D02*
X12908753Y-12057793D01*
X12908753Y-12057793D02*
X12899229Y-12038746D01*
X12899229Y-12038746D02*
X12889705Y-12029222D01*
X12889705Y-12029222D02*
X12870658Y-12019698D01*
X13089705Y-11933984D02*
X12994467Y-11933984D01*
X12994467Y-11933984D02*
X12984943Y-12029222D01*
X12984943Y-12029222D02*
X12994467Y-12019698D01*
X12994467Y-12019698D02*
X13013515Y-12010174D01*
X13013515Y-12010174D02*
X13061134Y-12010174D01*
X13061134Y-12010174D02*
X13080182Y-12019698D01*
X13080182Y-12019698D02*
X13089705Y-12029222D01*
X13089705Y-12029222D02*
X13099229Y-12048269D01*
X13099229Y-12048269D02*
X13099229Y-12095888D01*
X13099229Y-12095888D02*
X13089705Y-12114936D01*
X13089705Y-12114936D02*
X13080182Y-12124460D01*
X13080182Y-12124460D02*
X13061134Y-12133984D01*
X13061134Y-12133984D02*
X13013515Y-12133984D01*
X13013515Y-12133984D02*
X12994467Y-12124460D01*
X12994467Y-12124460D02*
X12984943Y-12114936D01*
X13270658Y-12000650D02*
X13270658Y-12133984D01*
X13223039Y-11924460D02*
X13175420Y-12067317D01*
X13175420Y-12067317D02*
X13299229Y-12067317D01*
X13375420Y-12133984D02*
X13375420Y-12000650D01*
X13375420Y-12019698D02*
X13384943Y-12010174D01*
X13384943Y-12010174D02*
X13403991Y-12000650D01*
X13403991Y-12000650D02*
X13432563Y-12000650D01*
X13432563Y-12000650D02*
X13451610Y-12010174D01*
X13451610Y-12010174D02*
X13461134Y-12029222D01*
X13461134Y-12029222D02*
X13461134Y-12133984D01*
X13461134Y-12029222D02*
X13470658Y-12010174D01*
X13470658Y-12010174D02*
X13489705Y-12000650D01*
X13489705Y-12000650D02*
X13518277Y-12000650D01*
X13518277Y-12000650D02*
X13537324Y-12010174D01*
X13537324Y-12010174D02*
X13546848Y-12029222D01*
X13546848Y-12029222D02*
X13546848Y-12133984D01*
X13642086Y-12133984D02*
X13642086Y-12000650D01*
X13642086Y-12019698D02*
X13651610Y-12010174D01*
X13651610Y-12010174D02*
X13670658Y-12000650D01*
X13670658Y-12000650D02*
X13699229Y-12000650D01*
X13699229Y-12000650D02*
X13718277Y-12010174D01*
X13718277Y-12010174D02*
X13727801Y-12029222D01*
X13727801Y-12029222D02*
X13727801Y-12133984D01*
X13727801Y-12029222D02*
X13737324Y-12010174D01*
X13737324Y-12010174D02*
X13756372Y-12000650D01*
X13756372Y-12000650D02*
X13784943Y-12000650D01*
X13784943Y-12000650D02*
X13803991Y-12010174D01*
X13803991Y-12010174D02*
X13813515Y-12029222D01*
X13813515Y-12029222D02*
X13813515Y-12133984D01*
X14203991Y-11924460D02*
X14032563Y-12181603D01*
X14461134Y-11933984D02*
X14480182Y-11933984D01*
X14480182Y-11933984D02*
X14499229Y-11943508D01*
X14499229Y-11943508D02*
X14508753Y-11953031D01*
X14508753Y-11953031D02*
X14518277Y-11972079D01*
X14518277Y-11972079D02*
X14527801Y-12010174D01*
X14527801Y-12010174D02*
X14527801Y-12057793D01*
X14527801Y-12057793D02*
X14518277Y-12095888D01*
X14518277Y-12095888D02*
X14508753Y-12114936D01*
X14508753Y-12114936D02*
X14499229Y-12124460D01*
X14499229Y-12124460D02*
X14480182Y-12133984D01*
X14480182Y-12133984D02*
X14461134Y-12133984D01*
X14461134Y-12133984D02*
X14442086Y-12124460D01*
X14442086Y-12124460D02*
X14432563Y-12114936D01*
X14432563Y-12114936D02*
X14423039Y-12095888D01*
X14423039Y-12095888D02*
X14413515Y-12057793D01*
X14413515Y-12057793D02*
X14413515Y-12010174D01*
X14413515Y-12010174D02*
X14423039Y-11972079D01*
X14423039Y-11972079D02*
X14432563Y-11953031D01*
X14432563Y-11953031D02*
X14442086Y-11943508D01*
X14442086Y-11943508D02*
X14461134Y-11933984D01*
X14613515Y-12114936D02*
X14623039Y-12124460D01*
X14623039Y-12124460D02*
X14613515Y-12133984D01*
X14613515Y-12133984D02*
X14603991Y-12124460D01*
X14603991Y-12124460D02*
X14613515Y-12114936D01*
X14613515Y-12114936D02*
X14613515Y-12133984D01*
X14746848Y-11933984D02*
X14765896Y-11933984D01*
X14765896Y-11933984D02*
X14784944Y-11943508D01*
X14784944Y-11943508D02*
X14794467Y-11953031D01*
X14794467Y-11953031D02*
X14803991Y-11972079D01*
X14803991Y-11972079D02*
X14813515Y-12010174D01*
X14813515Y-12010174D02*
X14813515Y-12057793D01*
X14813515Y-12057793D02*
X14803991Y-12095888D01*
X14803991Y-12095888D02*
X14794467Y-12114936D01*
X14794467Y-12114936D02*
X14784944Y-12124460D01*
X14784944Y-12124460D02*
X14765896Y-12133984D01*
X14765896Y-12133984D02*
X14746848Y-12133984D01*
X14746848Y-12133984D02*
X14727801Y-12124460D01*
X14727801Y-12124460D02*
X14718277Y-12114936D01*
X14718277Y-12114936D02*
X14708753Y-12095888D01*
X14708753Y-12095888D02*
X14699229Y-12057793D01*
X14699229Y-12057793D02*
X14699229Y-12010174D01*
X14699229Y-12010174D02*
X14708753Y-11972079D01*
X14708753Y-11972079D02*
X14718277Y-11953031D01*
X14718277Y-11953031D02*
X14727801Y-11943508D01*
X14727801Y-11943508D02*
X14746848Y-11933984D01*
X14880182Y-11933984D02*
X15013515Y-11933984D01*
X15013515Y-11933984D02*
X14927801Y-12133984D01*
X15070658Y-11933984D02*
X15194467Y-11933984D01*
X15194467Y-11933984D02*
X15127801Y-12010174D01*
X15127801Y-12010174D02*
X15156372Y-12010174D01*
X15156372Y-12010174D02*
X15175420Y-12019698D01*
X15175420Y-12019698D02*
X15184944Y-12029222D01*
X15184944Y-12029222D02*
X15194467Y-12048269D01*
X15194467Y-12048269D02*
X15194467Y-12095888D01*
X15194467Y-12095888D02*
X15184944Y-12114936D01*
X15184944Y-12114936D02*
X15175420Y-12124460D01*
X15175420Y-12124460D02*
X15156372Y-12133984D01*
X15156372Y-12133984D02*
X15099229Y-12133984D01*
X15099229Y-12133984D02*
X15080182Y-12124460D01*
X15080182Y-12124460D02*
X15070658Y-12114936D01*
X15318277Y-11933984D02*
X15337325Y-11933984D01*
X15337325Y-11933984D02*
X15356372Y-11943508D01*
X15356372Y-11943508D02*
X15365896Y-11953031D01*
X15365896Y-11953031D02*
X15375420Y-11972079D01*
X15375420Y-11972079D02*
X15384944Y-12010174D01*
X15384944Y-12010174D02*
X15384944Y-12057793D01*
X15384944Y-12057793D02*
X15375420Y-12095888D01*
X15375420Y-12095888D02*
X15365896Y-12114936D01*
X15365896Y-12114936D02*
X15356372Y-12124460D01*
X15356372Y-12124460D02*
X15337325Y-12133984D01*
X15337325Y-12133984D02*
X15318277Y-12133984D01*
X15318277Y-12133984D02*
X15299229Y-12124460D01*
X15299229Y-12124460D02*
X15289706Y-12114936D01*
X15289706Y-12114936D02*
X15280182Y-12095888D01*
X15280182Y-12095888D02*
X15270658Y-12057793D01*
X15270658Y-12057793D02*
X15270658Y-12010174D01*
X15270658Y-12010174D02*
X15280182Y-11972079D01*
X15280182Y-11972079D02*
X15289706Y-11953031D01*
X15289706Y-11953031D02*
X15299229Y-11943508D01*
X15299229Y-11943508D02*
X15318277Y-11933984D01*
X15461134Y-11933984D02*
X15461134Y-11972079D01*
X15537325Y-11933984D02*
X15537325Y-11972079D01*
X15832563Y-12210174D02*
X15823039Y-12200650D01*
X15823039Y-12200650D02*
X15803991Y-12172079D01*
X15803991Y-12172079D02*
X15794468Y-12153031D01*
X15794468Y-12153031D02*
X15784944Y-12124460D01*
X15784944Y-12124460D02*
X15775420Y-12076841D01*
X15775420Y-12076841D02*
X15775420Y-12038746D01*
X15775420Y-12038746D02*
X15784944Y-11991127D01*
X15784944Y-11991127D02*
X15794468Y-11962555D01*
X15794468Y-11962555D02*
X15803991Y-11943508D01*
X15803991Y-11943508D02*
X15823039Y-11914936D01*
X15823039Y-11914936D02*
X15832563Y-11905412D01*
X15994468Y-12000650D02*
X15994468Y-12133984D01*
X15946848Y-11924460D02*
X15899229Y-12067317D01*
X15899229Y-12067317D02*
X16023039Y-12067317D01*
X16251610Y-12133984D02*
X16251610Y-11933984D01*
X16337325Y-12133984D02*
X16337325Y-12029222D01*
X16337325Y-12029222D02*
X16327801Y-12010174D01*
X16327801Y-12010174D02*
X16308753Y-12000650D01*
X16308753Y-12000650D02*
X16280182Y-12000650D01*
X16280182Y-12000650D02*
X16261134Y-12010174D01*
X16261134Y-12010174D02*
X16251610Y-12019698D01*
X16461134Y-12133984D02*
X16442087Y-12124460D01*
X16442087Y-12124460D02*
X16432563Y-12114936D01*
X16432563Y-12114936D02*
X16423039Y-12095888D01*
X16423039Y-12095888D02*
X16423039Y-12038746D01*
X16423039Y-12038746D02*
X16432563Y-12019698D01*
X16432563Y-12019698D02*
X16442087Y-12010174D01*
X16442087Y-12010174D02*
X16461134Y-12000650D01*
X16461134Y-12000650D02*
X16489706Y-12000650D01*
X16489706Y-12000650D02*
X16508753Y-12010174D01*
X16508753Y-12010174D02*
X16518277Y-12019698D01*
X16518277Y-12019698D02*
X16527801Y-12038746D01*
X16527801Y-12038746D02*
X16527801Y-12095888D01*
X16527801Y-12095888D02*
X16518277Y-12114936D01*
X16518277Y-12114936D02*
X16508753Y-12124460D01*
X16508753Y-12124460D02*
X16489706Y-12133984D01*
X16489706Y-12133984D02*
X16461134Y-12133984D01*
X16642087Y-12133984D02*
X16623039Y-12124460D01*
X16623039Y-12124460D02*
X16613515Y-12105412D01*
X16613515Y-12105412D02*
X16613515Y-11933984D01*
X16794468Y-12124460D02*
X16775420Y-12133984D01*
X16775420Y-12133984D02*
X16737325Y-12133984D01*
X16737325Y-12133984D02*
X16718277Y-12124460D01*
X16718277Y-12124460D02*
X16708753Y-12105412D01*
X16708753Y-12105412D02*
X16708753Y-12029222D01*
X16708753Y-12029222D02*
X16718277Y-12010174D01*
X16718277Y-12010174D02*
X16737325Y-12000650D01*
X16737325Y-12000650D02*
X16775420Y-12000650D01*
X16775420Y-12000650D02*
X16794468Y-12010174D01*
X16794468Y-12010174D02*
X16803992Y-12029222D01*
X16803992Y-12029222D02*
X16803992Y-12048269D01*
X16803992Y-12048269D02*
X16708753Y-12067317D01*
X16880182Y-12124460D02*
X16899230Y-12133984D01*
X16899230Y-12133984D02*
X16937325Y-12133984D01*
X16937325Y-12133984D02*
X16956373Y-12124460D01*
X16956373Y-12124460D02*
X16965896Y-12105412D01*
X16965896Y-12105412D02*
X16965896Y-12095888D01*
X16965896Y-12095888D02*
X16956373Y-12076841D01*
X16956373Y-12076841D02*
X16937325Y-12067317D01*
X16937325Y-12067317D02*
X16908753Y-12067317D01*
X16908753Y-12067317D02*
X16889706Y-12057793D01*
X16889706Y-12057793D02*
X16880182Y-12038746D01*
X16880182Y-12038746D02*
X16880182Y-12029222D01*
X16880182Y-12029222D02*
X16889706Y-12010174D01*
X16889706Y-12010174D02*
X16908753Y-12000650D01*
X16908753Y-12000650D02*
X16937325Y-12000650D01*
X16937325Y-12000650D02*
X16956373Y-12010174D01*
X17032563Y-12210174D02*
X17042087Y-12200650D01*
X17042087Y-12200650D02*
X17061134Y-12172079D01*
X17061134Y-12172079D02*
X17070658Y-12153031D01*
X17070658Y-12153031D02*
X17080182Y-12124460D01*
X17080182Y-12124460D02*
X17089706Y-12076841D01*
X17089706Y-12076841D02*
X17089706Y-12038746D01*
X17089706Y-12038746D02*
X17080182Y-11991127D01*
X17080182Y-11991127D02*
X17070658Y-11962555D01*
X17070658Y-11962555D02*
X17061134Y-11943508D01*
X17061134Y-11943508D02*
X17042087Y-11914936D01*
X17042087Y-11914936D02*
X17032563Y-11905412D01*
X17394468Y-12210174D02*
X17384944Y-12200650D01*
X17384944Y-12200650D02*
X17365896Y-12172079D01*
X17365896Y-12172079D02*
X17356373Y-12153031D01*
X17356373Y-12153031D02*
X17346849Y-12124460D01*
X17346849Y-12124460D02*
X17337325Y-12076841D01*
X17337325Y-12076841D02*
X17337325Y-12038746D01*
X17337325Y-12038746D02*
X17346849Y-11991127D01*
X17346849Y-11991127D02*
X17356373Y-11962555D01*
X17356373Y-11962555D02*
X17365896Y-11943508D01*
X17365896Y-11943508D02*
X17384944Y-11914936D01*
X17384944Y-11914936D02*
X17394468Y-11905412D01*
X17470658Y-12000650D02*
X17470658Y-12133984D01*
X17470658Y-12019698D02*
X17480182Y-12010174D01*
X17480182Y-12010174D02*
X17499230Y-12000650D01*
X17499230Y-12000650D02*
X17527801Y-12000650D01*
X17527801Y-12000650D02*
X17546849Y-12010174D01*
X17546849Y-12010174D02*
X17556373Y-12029222D01*
X17556373Y-12029222D02*
X17556373Y-12133984D01*
X17680182Y-12133984D02*
X17661134Y-12124460D01*
X17661134Y-12124460D02*
X17651611Y-12114936D01*
X17651611Y-12114936D02*
X17642087Y-12095888D01*
X17642087Y-12095888D02*
X17642087Y-12038746D01*
X17642087Y-12038746D02*
X17651611Y-12019698D01*
X17651611Y-12019698D02*
X17661134Y-12010174D01*
X17661134Y-12010174D02*
X17680182Y-12000650D01*
X17680182Y-12000650D02*
X17708754Y-12000650D01*
X17708754Y-12000650D02*
X17727801Y-12010174D01*
X17727801Y-12010174D02*
X17737325Y-12019698D01*
X17737325Y-12019698D02*
X17746849Y-12038746D01*
X17746849Y-12038746D02*
X17746849Y-12095888D01*
X17746849Y-12095888D02*
X17737325Y-12114936D01*
X17737325Y-12114936D02*
X17727801Y-12124460D01*
X17727801Y-12124460D02*
X17708754Y-12133984D01*
X17708754Y-12133984D02*
X17680182Y-12133984D01*
X17803992Y-12000650D02*
X17880182Y-12000650D01*
X17832563Y-11933984D02*
X17832563Y-12105412D01*
X17832563Y-12105412D02*
X17842087Y-12124460D01*
X17842087Y-12124460D02*
X17861134Y-12133984D01*
X17861134Y-12133984D02*
X17880182Y-12133984D01*
X18099230Y-12000650D02*
X18099230Y-12200650D01*
X18099230Y-12010174D02*
X18118277Y-12000650D01*
X18118277Y-12000650D02*
X18156373Y-12000650D01*
X18156373Y-12000650D02*
X18175420Y-12010174D01*
X18175420Y-12010174D02*
X18184944Y-12019698D01*
X18184944Y-12019698D02*
X18194468Y-12038746D01*
X18194468Y-12038746D02*
X18194468Y-12095888D01*
X18194468Y-12095888D02*
X18184944Y-12114936D01*
X18184944Y-12114936D02*
X18175420Y-12124460D01*
X18175420Y-12124460D02*
X18156373Y-12133984D01*
X18156373Y-12133984D02*
X18118277Y-12133984D01*
X18118277Y-12133984D02*
X18099230Y-12124460D01*
X18308754Y-12133984D02*
X18289706Y-12124460D01*
X18289706Y-12124460D02*
X18280182Y-12105412D01*
X18280182Y-12105412D02*
X18280182Y-11933984D01*
X18470658Y-12133984D02*
X18470658Y-12029222D01*
X18470658Y-12029222D02*
X18461135Y-12010174D01*
X18461135Y-12010174D02*
X18442087Y-12000650D01*
X18442087Y-12000650D02*
X18403992Y-12000650D01*
X18403992Y-12000650D02*
X18384944Y-12010174D01*
X18470658Y-12124460D02*
X18451611Y-12133984D01*
X18451611Y-12133984D02*
X18403992Y-12133984D01*
X18403992Y-12133984D02*
X18384944Y-12124460D01*
X18384944Y-12124460D02*
X18375420Y-12105412D01*
X18375420Y-12105412D02*
X18375420Y-12086365D01*
X18375420Y-12086365D02*
X18384944Y-12067317D01*
X18384944Y-12067317D02*
X18403992Y-12057793D01*
X18403992Y-12057793D02*
X18451611Y-12057793D01*
X18451611Y-12057793D02*
X18470658Y-12048269D01*
X18537325Y-12000650D02*
X18613515Y-12000650D01*
X18565896Y-11933984D02*
X18565896Y-12105412D01*
X18565896Y-12105412D02*
X18575420Y-12124460D01*
X18575420Y-12124460D02*
X18594468Y-12133984D01*
X18594468Y-12133984D02*
X18613515Y-12133984D01*
X18756373Y-12124460D02*
X18737325Y-12133984D01*
X18737325Y-12133984D02*
X18699230Y-12133984D01*
X18699230Y-12133984D02*
X18680182Y-12124460D01*
X18680182Y-12124460D02*
X18670658Y-12105412D01*
X18670658Y-12105412D02*
X18670658Y-12029222D01*
X18670658Y-12029222D02*
X18680182Y-12010174D01*
X18680182Y-12010174D02*
X18699230Y-12000650D01*
X18699230Y-12000650D02*
X18737325Y-12000650D01*
X18737325Y-12000650D02*
X18756373Y-12010174D01*
X18756373Y-12010174D02*
X18765896Y-12029222D01*
X18765896Y-12029222D02*
X18765896Y-12048269D01*
X18765896Y-12048269D02*
X18670658Y-12067317D01*
X18937325Y-12133984D02*
X18937325Y-11933984D01*
X18937325Y-12124460D02*
X18918277Y-12133984D01*
X18918277Y-12133984D02*
X18880182Y-12133984D01*
X18880182Y-12133984D02*
X18861135Y-12124460D01*
X18861135Y-12124460D02*
X18851611Y-12114936D01*
X18851611Y-12114936D02*
X18842087Y-12095888D01*
X18842087Y-12095888D02*
X18842087Y-12038746D01*
X18842087Y-12038746D02*
X18851611Y-12019698D01*
X18851611Y-12019698D02*
X18861135Y-12010174D01*
X18861135Y-12010174D02*
X18880182Y-12000650D01*
X18880182Y-12000650D02*
X18918277Y-12000650D01*
X18918277Y-12000650D02*
X18937325Y-12010174D01*
X19013516Y-12210174D02*
X19023039Y-12200650D01*
X19023039Y-12200650D02*
X19042087Y-12172079D01*
X19042087Y-12172079D02*
X19051611Y-12153031D01*
X19051611Y-12153031D02*
X19061135Y-12124460D01*
X19061135Y-12124460D02*
X19070658Y-12076841D01*
X19070658Y-12076841D02*
X19070658Y-12038746D01*
X19070658Y-12038746D02*
X19061135Y-11991127D01*
X19061135Y-11991127D02*
X19051611Y-11962555D01*
X19051611Y-11962555D02*
X19042087Y-11943508D01*
X19042087Y-11943508D02*
X19023039Y-11914936D01*
X19023039Y-11914936D02*
X19013516Y-11905412D01*
M02*
