M48
; DRILL file {KiCad 8.0.8} date 2025-02-15T01:37:25-0700
; FORMAT={-:-/ absolute / metric / decimal}
; #@! TF.CreationDate,2025-02-15T01:37:25-07:00
; #@! TF.GenerationSoftware,Kicad,Pcbnew,8.0.8
; #@! TF.FileFunction,Plated,1,2,PTH
FMAT,2
METRIC
; #@! TA.AperFunction,Plated,PTH,ViaDrill
T1C0.300
; #@! TA.AperFunction,Plated,PTH,ComponentDrill
T2C0.500
; #@! TA.AperFunction,Plated,PTH,ComponentDrill
T3C2.700
%
G90
G05
T1
X148.25Y-142.05
X148.25Y-145.3
X149.0Y-136.05
X149.0Y-138.05
X149.0Y-140.05
X149.0Y-144.05
X151.0Y-136.05
X151.0Y-138.05
X151.0Y-140.05
X151.2Y-145.85
X152.75Y-140.05
X153.0Y-136.05
X153.0Y-137.55
X155.0Y-136.05
X155.0Y-137.55
X156.0Y-145.05
X157.0Y-136.05
X157.0Y-137.55
X158.0Y-141.05
X158.0Y-143.05
X158.0Y-145.05
T2
X149.55Y-141.99
X150.55Y-141.99
X151.55Y-141.99
X152.55Y-141.99
X153.55Y-138.99
X153.55Y-141.99
X154.55Y-138.99
X155.55Y-138.99
X156.55Y-138.99
X157.55Y-138.99
T3
X153.15Y-127.09
M30
