%TF.GenerationSoftware,KiCad,Pcbnew,8.0.8*%
%TF.CreationDate,2025-02-15T01:37:23-07:00*%
%TF.ProjectId,ECE Capstone PCB Design,45434520-4361-4707-9374-6f6e65205043,rev?*%
%TF.SameCoordinates,Original*%
%TF.FileFunction,Copper,L1,Top*%
%TF.FilePolarity,Positive*%
%FSLAX46Y46*%
G04 Gerber Fmt 4.6, Leading zero omitted, Abs format (unit mm)*
G04 Created by KiCad (PCBNEW 8.0.8) date 2025-02-15 01:37:23*
%MOMM*%
%LPD*%
G01*
G04 APERTURE LIST*
%TA.AperFunction,SMDPad,CuDef*%
%ADD10R,0.750000X2.500000*%
%TD*%
%TA.AperFunction,ComponentPad*%
%ADD11R,0.850000X0.850000*%
%TD*%
%TA.AperFunction,ComponentPad*%
%ADD12O,0.850000X0.850000*%
%TD*%
%TA.AperFunction,ComponentPad*%
%ADD13C,5.400000*%
%TD*%
%TA.AperFunction,ViaPad*%
%ADD14C,0.600000*%
%TD*%
%TA.AperFunction,Conductor*%
%ADD15C,0.200000*%
%TD*%
G04 APERTURE END LIST*
D10*
%TO.P,REF\u002A\u002A,1*%
%TO.N,TDMS2+*%
X148330000Y-147880000D03*
%TO.P,REF\u002A\u002A,3*%
%TO.N,TDMS2-*%
X149430000Y-147880000D03*
%TO.P,REF\u002A\u002A,5*%
%TO.N,DGND*%
X150530000Y-147880000D03*
%TO.P,REF\u002A\u002A,7*%
%TO.N,TDMS0+*%
X151630000Y-147880000D03*
%TO.P,REF\u002A\u002A,9*%
%TO.N,TDMS0-*%
X152730000Y-147880000D03*
%TO.P,REF\u002A\u002A,11*%
%TO.N,DGND*%
X153830000Y-147880000D03*
%TO.P,REF\u002A\u002A,13*%
%TO.N,N/C*%
X154930000Y-147880000D03*
%TO.P,REF\u002A\u002A,15*%
X156030000Y-147880000D03*
%TO.P,REF\u002A\u002A,17*%
%TO.N,DGND*%
X157130000Y-147880000D03*
%TO.P,REF\u002A\u002A,19*%
%TO.N,N/C*%
X158224098Y-147880000D03*
%TD*%
D11*
%TO.P,REF\u002A\u002A,1*%
%TO.N,TDMS2+*%
X149550000Y-141990000D03*
D12*
%TO.P,REF\u002A\u002A,2*%
%TO.N,TDMS2-*%
X150550000Y-141990000D03*
%TO.P,REF\u002A\u002A,3*%
%TO.N,DGND*%
X151550000Y-141990000D03*
%TO.P,REF\u002A\u002A,4*%
%TO.N,TDMS1+*%
X152550000Y-141990000D03*
%TO.P,REF\u002A\u002A,5*%
%TO.N,TDMS1-*%
X153550000Y-141990000D03*
%TD*%
D13*
%TO.P,,1*%
%TO.N,DGND*%
X153150000Y-127090000D03*
%TD*%
D11*
%TO.P,REF\u002A\u002A,1*%
%TO.N,TDMSCLK-*%
X157550000Y-138990000D03*
D12*
%TO.P,REF\u002A\u002A,2*%
%TO.N,TDMSCLK+*%
X156550000Y-138990000D03*
%TO.P,REF\u002A\u002A,3*%
%TO.N,DGND*%
X155550000Y-138990000D03*
%TO.P,REF\u002A\u002A,4*%
%TO.N,TDMS0-*%
X154550000Y-138990000D03*
%TO.P,REF\u002A\u002A,5*%
%TO.N,TDMS0+*%
X153550000Y-138990000D03*
%TD*%
D14*
%TO.N,DGND*%
X158000000Y-145050000D03*
X153000000Y-136050000D03*
X149000000Y-140050000D03*
X148250000Y-145300000D03*
X151200000Y-145850000D03*
X155000000Y-136050000D03*
X149000000Y-138050000D03*
X149000000Y-144050000D03*
X157000000Y-137550000D03*
X151000000Y-140050000D03*
X151000000Y-138050000D03*
X148250000Y-142050000D03*
X158000000Y-141050000D03*
X151000000Y-136050000D03*
X157000000Y-136050000D03*
X156000000Y-145050000D03*
X153000000Y-137550000D03*
X152750000Y-140050000D03*
X155000000Y-137550000D03*
X158000000Y-143050000D03*
X149000000Y-136050000D03*
%TD*%
D15*
%TO.N,TDMS0+*%
X151900000Y-147610000D02*
X151630000Y-147880000D01*
%TO.N,TDMS2-*%
X149430000Y-147880000D02*
X149430000Y-146270000D01*
%TO.N,TDMS0+*%
X151900000Y-145750000D02*
X151900000Y-147610000D01*
X154800000Y-140950000D02*
X154800000Y-142850000D01*
%TO.N,TDMS2+*%
X148400000Y-146500000D02*
X149800000Y-145100000D01*
%TO.N,TDMS2-*%
X149430000Y-146270000D02*
X150500000Y-145200000D01*
%TO.N,TDMS0-*%
X152550000Y-145900000D02*
X152550000Y-147700000D01*
%TO.N,TDMS2-*%
X150500000Y-145200000D02*
X150500000Y-142040000D01*
%TO.N,TDMS0-*%
X155300000Y-140450000D02*
X155300000Y-143150000D01*
X152900000Y-147710000D02*
X152730000Y-147880000D01*
X154550000Y-138990000D02*
X154550000Y-139700000D01*
%TO.N,TDMS2+*%
X149800000Y-142240000D02*
X149550000Y-141990000D01*
%TO.N,TDMS0-*%
X155300000Y-143150000D02*
X152550000Y-145900000D01*
X154550000Y-139700000D02*
X155300000Y-140450000D01*
%TO.N,TDMS2+*%
X148330000Y-147880000D02*
X148400000Y-147810000D01*
%TO.N,TDMS0-*%
X152730000Y-147880000D02*
X152650000Y-147800000D01*
X152550000Y-147700000D02*
X152730000Y-147880000D01*
%TO.N,TDMS2-*%
X150500000Y-142040000D02*
X150550000Y-141990000D01*
%TO.N,TDMS0+*%
X153550000Y-139700000D02*
X154800000Y-140950000D01*
X154800000Y-142850000D02*
X151900000Y-145750000D01*
%TO.N,TDMS2+*%
X148400000Y-147810000D02*
X148400000Y-146500000D01*
X149800000Y-145100000D02*
X149800000Y-142240000D01*
%TO.N,TDMS0+*%
X153550000Y-138990000D02*
X153550000Y-139700000D01*
%TD*%
%TA.AperFunction,Conductor*%
%TO.N,DGND*%
G36*
X153438405Y-123818235D02*
G01*
X153451313Y-123819592D01*
X153779587Y-123871585D01*
X153792270Y-123874280D01*
X154113332Y-123960309D01*
X154125665Y-123964316D01*
X154435971Y-124083432D01*
X154447807Y-124088701D01*
X154743977Y-124239607D01*
X154755191Y-124246083D01*
X155033943Y-124427106D01*
X155044444Y-124434735D01*
X155302749Y-124643907D01*
X155312394Y-124652592D01*
X155547407Y-124887605D01*
X155556092Y-124897250D01*
X155765264Y-125155555D01*
X155772893Y-125166056D01*
X155953913Y-125444802D01*
X155960399Y-125456035D01*
X156111293Y-125752182D01*
X156116572Y-125764039D01*
X156235681Y-126074329D01*
X156239692Y-126086673D01*
X156325717Y-126407723D01*
X156328415Y-126420419D01*
X156380407Y-126748686D01*
X156381764Y-126761594D01*
X156399330Y-127096756D01*
X156399500Y-127103246D01*
X156399500Y-130570118D01*
X156399500Y-130649882D01*
X156430024Y-130723574D01*
X156486426Y-130779976D01*
X156560118Y-130810500D01*
X158685327Y-130810500D01*
X158752366Y-130830185D01*
X158798121Y-130882989D01*
X158809327Y-130934566D01*
X158801137Y-146314731D01*
X158781417Y-146381760D01*
X158728588Y-146427487D01*
X158659425Y-146437393D01*
X158652946Y-146436282D01*
X158618850Y-146429500D01*
X158618846Y-146429500D01*
X157829350Y-146429500D01*
X157829345Y-146429500D01*
X157770868Y-146441131D01*
X157770867Y-146441132D01*
X157704545Y-146485447D01*
X157660230Y-146551769D01*
X157660229Y-146551770D01*
X157648598Y-146610247D01*
X157648598Y-149065500D01*
X157628913Y-149132539D01*
X157576109Y-149178294D01*
X157524598Y-149189500D01*
X156729500Y-149189500D01*
X156662461Y-149169815D01*
X156616706Y-149117011D01*
X156605500Y-149065500D01*
X156605500Y-146610249D01*
X156605499Y-146610247D01*
X156593868Y-146551770D01*
X156593867Y-146551769D01*
X156549552Y-146485447D01*
X156483230Y-146441132D01*
X156483229Y-146441131D01*
X156424752Y-146429500D01*
X156424748Y-146429500D01*
X155635252Y-146429500D01*
X155635247Y-146429500D01*
X155576770Y-146441131D01*
X155576766Y-146441133D01*
X155548890Y-146459760D01*
X155482213Y-146480638D01*
X155414833Y-146462153D01*
X155411110Y-146459760D01*
X155383233Y-146441133D01*
X155383229Y-146441131D01*
X155324752Y-146429500D01*
X155324748Y-146429500D01*
X154535252Y-146429500D01*
X154535247Y-146429500D01*
X154476770Y-146441131D01*
X154476769Y-146441132D01*
X154410447Y-146485447D01*
X154366132Y-146551769D01*
X154366131Y-146551770D01*
X154354500Y-146610247D01*
X154354500Y-149065500D01*
X154334815Y-149132539D01*
X154282011Y-149178294D01*
X154230500Y-149189500D01*
X153429500Y-149189500D01*
X153362461Y-149169815D01*
X153316706Y-149117011D01*
X153305500Y-149065500D01*
X153305500Y-146610249D01*
X153305499Y-146610247D01*
X153293868Y-146551770D01*
X153293867Y-146551769D01*
X153249552Y-146485447D01*
X153183230Y-146441132D01*
X153183229Y-146441131D01*
X153124752Y-146429500D01*
X153124748Y-146429500D01*
X152974500Y-146429500D01*
X152907461Y-146409815D01*
X152861706Y-146357011D01*
X152850500Y-146305500D01*
X152850500Y-146075833D01*
X152870185Y-146008794D01*
X152886819Y-145988152D01*
X153950804Y-144924167D01*
X155540460Y-143334511D01*
X155580021Y-143265989D01*
X155600500Y-143189562D01*
X155600500Y-140410438D01*
X155580021Y-140334011D01*
X155580017Y-140334004D01*
X155540464Y-140265495D01*
X155540458Y-140265487D01*
X154935113Y-139660142D01*
X154901628Y-139598819D01*
X154906612Y-139529127D01*
X154940566Y-139479647D01*
X155021632Y-139407830D01*
X155107921Y-139282819D01*
X155161785Y-139140791D01*
X155180094Y-138990000D01*
X155919906Y-138990000D01*
X155938215Y-139140791D01*
X155992079Y-139282819D01*
X156078368Y-139407830D01*
X156192066Y-139508557D01*
X156326566Y-139579148D01*
X156400308Y-139597324D01*
X156474050Y-139615500D01*
X156474051Y-139615500D01*
X156625950Y-139615500D01*
X156662820Y-139606412D01*
X156773434Y-139579148D01*
X156841258Y-139543551D01*
X156909763Y-139529826D01*
X156969880Y-139553384D01*
X156970293Y-139552767D01*
X156973110Y-139554649D01*
X156974816Y-139555318D01*
X156977029Y-139557268D01*
X157046769Y-139603867D01*
X157046770Y-139603868D01*
X157105247Y-139615499D01*
X157105250Y-139615500D01*
X157105252Y-139615500D01*
X157994750Y-139615500D01*
X157994751Y-139615499D01*
X158009568Y-139612552D01*
X158053229Y-139603868D01*
X158053229Y-139603867D01*
X158053231Y-139603867D01*
X158119552Y-139559552D01*
X158163867Y-139493231D01*
X158163867Y-139493229D01*
X158163868Y-139493229D01*
X158175499Y-139434752D01*
X158175500Y-139434750D01*
X158175500Y-138545249D01*
X158175499Y-138545247D01*
X158163868Y-138486770D01*
X158163867Y-138486769D01*
X158119552Y-138420447D01*
X158053230Y-138376132D01*
X158053229Y-138376131D01*
X157994752Y-138364500D01*
X157994748Y-138364500D01*
X157105252Y-138364500D01*
X157105247Y-138364500D01*
X157046770Y-138376131D01*
X157046769Y-138376132D01*
X156970293Y-138427233D01*
X156968328Y-138424292D01*
X156925215Y-138447822D01*
X156855524Y-138442824D01*
X156841259Y-138436449D01*
X156773434Y-138400852D01*
X156773431Y-138400851D01*
X156625950Y-138364500D01*
X156625949Y-138364500D01*
X156474051Y-138364500D01*
X156474050Y-138364500D01*
X156326567Y-138400851D01*
X156192067Y-138471442D01*
X156078367Y-138572171D01*
X155992080Y-138697179D01*
X155992079Y-138697180D01*
X155992079Y-138697181D01*
X155938215Y-138839209D01*
X155919906Y-138990000D01*
X155180094Y-138990000D01*
X155161785Y-138839209D01*
X155107921Y-138697181D01*
X155021632Y-138572170D01*
X154907934Y-138471443D01*
X154773434Y-138400852D01*
X154773433Y-138400851D01*
X154773432Y-138400851D01*
X154625950Y-138364500D01*
X154625949Y-138364500D01*
X154474051Y-138364500D01*
X154474050Y-138364500D01*
X154326567Y-138400851D01*
X154192064Y-138471443D01*
X154132226Y-138524455D01*
X154068993Y-138554176D01*
X153999729Y-138544992D01*
X153967774Y-138524455D01*
X153907935Y-138471443D01*
X153773432Y-138400851D01*
X153625950Y-138364500D01*
X153625949Y-138364500D01*
X153474051Y-138364500D01*
X153474050Y-138364500D01*
X153326567Y-138400851D01*
X153192067Y-138471442D01*
X153078367Y-138572171D01*
X152992080Y-138697179D01*
X152992079Y-138697180D01*
X152992079Y-138697181D01*
X152938215Y-138839209D01*
X152919906Y-138990000D01*
X152938215Y-139140791D01*
X152992079Y-139282819D01*
X153078368Y-139407830D01*
X153192066Y-139508557D01*
X153192072Y-139508560D01*
X153195931Y-139511224D01*
X153239926Y-139565503D01*
X153249500Y-139613280D01*
X153249500Y-139739562D01*
X153263152Y-139790513D01*
X153269979Y-139815990D01*
X153269982Y-139815995D01*
X153309535Y-139884504D01*
X153309541Y-139884512D01*
X154463181Y-141038152D01*
X154496666Y-141099475D01*
X154499500Y-141125833D01*
X154499500Y-142674167D01*
X154479815Y-142741206D01*
X154463181Y-142761848D01*
X151659541Y-145565487D01*
X151659535Y-145565495D01*
X151619982Y-145634004D01*
X151619979Y-145634009D01*
X151599500Y-145710439D01*
X151599500Y-146305500D01*
X151579815Y-146372539D01*
X151527011Y-146418294D01*
X151475500Y-146429500D01*
X151235247Y-146429500D01*
X151176770Y-146441131D01*
X151176769Y-146441132D01*
X151110447Y-146485447D01*
X151066132Y-146551769D01*
X151066131Y-146551770D01*
X151054500Y-146610247D01*
X151054500Y-149065500D01*
X151034815Y-149132539D01*
X150982011Y-149178294D01*
X150930500Y-149189500D01*
X150129500Y-149189500D01*
X150062461Y-149169815D01*
X150016706Y-149117011D01*
X150005500Y-149065500D01*
X150005500Y-146610249D01*
X150005499Y-146610247D01*
X149993868Y-146551770D01*
X149993867Y-146551769D01*
X149949552Y-146485447D01*
X149889333Y-146445210D01*
X149844528Y-146391597D01*
X149835821Y-146322272D01*
X149865976Y-146259245D01*
X149870524Y-146254446D01*
X150740460Y-145384511D01*
X150780022Y-145315988D01*
X150800500Y-145239562D01*
X150800500Y-145160438D01*
X150800500Y-142639903D01*
X150820185Y-142572864D01*
X150866875Y-142530106D01*
X150907934Y-142508557D01*
X151021632Y-142407830D01*
X151107921Y-142282819D01*
X151161785Y-142140791D01*
X151180094Y-141990000D01*
X151919906Y-141990000D01*
X151938215Y-142140791D01*
X151992079Y-142282819D01*
X152078368Y-142407830D01*
X152192066Y-142508557D01*
X152326566Y-142579148D01*
X152400308Y-142597324D01*
X152474050Y-142615500D01*
X152474051Y-142615500D01*
X152625950Y-142615500D01*
X152675110Y-142603382D01*
X152773434Y-142579148D01*
X152907934Y-142508557D01*
X152967774Y-142455543D01*
X153031006Y-142425823D01*
X153100270Y-142435007D01*
X153132224Y-142455542D01*
X153192066Y-142508557D01*
X153326566Y-142579148D01*
X153400308Y-142597324D01*
X153474050Y-142615500D01*
X153474051Y-142615500D01*
X153625950Y-142615500D01*
X153675110Y-142603382D01*
X153773434Y-142579148D01*
X153907934Y-142508557D01*
X154021632Y-142407830D01*
X154107921Y-142282819D01*
X154161785Y-142140791D01*
X154180094Y-141990000D01*
X154161785Y-141839209D01*
X154107921Y-141697181D01*
X154021632Y-141572170D01*
X153907934Y-141471443D01*
X153773434Y-141400852D01*
X153773433Y-141400851D01*
X153773432Y-141400851D01*
X153625950Y-141364500D01*
X153625949Y-141364500D01*
X153474051Y-141364500D01*
X153474050Y-141364500D01*
X153326567Y-141400851D01*
X153192064Y-141471443D01*
X153132226Y-141524455D01*
X153068993Y-141554176D01*
X152999729Y-141544992D01*
X152967774Y-141524455D01*
X152907935Y-141471443D01*
X152773432Y-141400851D01*
X152625950Y-141364500D01*
X152625949Y-141364500D01*
X152474051Y-141364500D01*
X152474050Y-141364500D01*
X152326567Y-141400851D01*
X152192067Y-141471442D01*
X152078367Y-141572171D01*
X151992080Y-141697179D01*
X151992079Y-141697180D01*
X151992079Y-141697181D01*
X151938215Y-141839209D01*
X151919906Y-141990000D01*
X151180094Y-141990000D01*
X151161785Y-141839209D01*
X151107921Y-141697181D01*
X151021632Y-141572170D01*
X150907934Y-141471443D01*
X150773434Y-141400852D01*
X150773433Y-141400851D01*
X150773432Y-141400851D01*
X150625950Y-141364500D01*
X150625949Y-141364500D01*
X150474051Y-141364500D01*
X150474050Y-141364500D01*
X150326567Y-141400851D01*
X150258743Y-141436448D01*
X150190234Y-141450172D01*
X150130119Y-141426615D01*
X150129707Y-141427233D01*
X150126886Y-141425348D01*
X150125181Y-141424680D01*
X150122968Y-141422730D01*
X150053230Y-141376132D01*
X150053229Y-141376131D01*
X149994752Y-141364500D01*
X149994748Y-141364500D01*
X149105252Y-141364500D01*
X149105247Y-141364500D01*
X149046770Y-141376131D01*
X149046769Y-141376132D01*
X148980447Y-141420447D01*
X148936132Y-141486769D01*
X148936131Y-141486770D01*
X148924500Y-141545247D01*
X148924500Y-142434752D01*
X148936131Y-142493229D01*
X148936132Y-142493230D01*
X148980447Y-142559552D01*
X149046769Y-142603867D01*
X149046770Y-142603868D01*
X149105247Y-142615499D01*
X149105250Y-142615500D01*
X149105252Y-142615500D01*
X149375500Y-142615500D01*
X149442539Y-142635185D01*
X149488294Y-142687989D01*
X149499500Y-142739500D01*
X149499500Y-144924167D01*
X149479815Y-144991206D01*
X149463181Y-145011848D01*
X148159541Y-146315487D01*
X148159537Y-146315492D01*
X148129511Y-146367500D01*
X148078944Y-146415716D01*
X148022124Y-146429500D01*
X147935247Y-146429500D01*
X147876770Y-146441131D01*
X147873581Y-146442453D01*
X147866070Y-146443260D01*
X147864790Y-146443515D01*
X147864767Y-146443400D01*
X147804112Y-146449920D01*
X147741633Y-146418645D01*
X147705981Y-146358555D01*
X147702130Y-146327830D01*
X147710327Y-130934433D01*
X147730047Y-130867405D01*
X147782876Y-130821678D01*
X147834327Y-130810500D01*
X149639880Y-130810500D01*
X149639882Y-130810500D01*
X149713574Y-130779976D01*
X149769976Y-130723574D01*
X149800500Y-130649882D01*
X149800500Y-127103246D01*
X149800670Y-127096756D01*
X149818235Y-126761594D01*
X149819592Y-126748686D01*
X149871586Y-126420409D01*
X149874279Y-126407733D01*
X149960310Y-126086662D01*
X149964314Y-126074340D01*
X150083434Y-125764021D01*
X150088698Y-125752199D01*
X150239611Y-125456014D01*
X150246077Y-125444816D01*
X150427113Y-125166045D01*
X150434727Y-125155564D01*
X150643915Y-124897241D01*
X150652582Y-124887615D01*
X150887615Y-124652582D01*
X150897241Y-124643915D01*
X151155564Y-124434727D01*
X151166045Y-124427113D01*
X151444816Y-124246077D01*
X151456014Y-124239611D01*
X151752199Y-124088698D01*
X151764021Y-124083434D01*
X152074340Y-123964314D01*
X152086662Y-123960310D01*
X152407733Y-123874279D01*
X152420409Y-123871586D01*
X152748688Y-123819591D01*
X152761592Y-123818235D01*
X153093512Y-123800840D01*
X153106488Y-123800840D01*
X153438405Y-123818235D01*
G37*
%TD.AperFunction*%
%TD*%
M02*
