%TF.GenerationSoftware,KiCad,Pcbnew,8.0.8*%
%TF.CreationDate,2025-02-15T01:37:23-07:00*%
%TF.ProjectId,ECE Capstone PCB Design,45434520-4361-4707-9374-6f6e65205043,rev?*%
%TF.SameCoordinates,Original*%
%TF.FileFunction,Legend,Top*%
%TF.FilePolarity,Positive*%
%FSLAX46Y46*%
G04 Gerber Fmt 4.6, Leading zero omitted, Abs format (unit mm)*
G04 Created by KiCad (PCBNEW 8.0.8) date 2025-02-15 01:37:23*
%MOMM*%
%LPD*%
G01*
G04 APERTURE LIST*
G04 Aperture macros list*
%AMRoundRect*
0 Rectangle with rounded corners*
0 $1 Rounding radius*
0 $2 $3 $4 $5 $6 $7 $8 $9 X,Y pos of 4 corners*
0 Add a 4 corners polygon primitive as box body*
4,1,4,$2,$3,$4,$5,$6,$7,$8,$9,$2,$3,0*
0 Add four circle primitives for the rounded corners*
1,1,$1+$1,$2,$3*
1,1,$1+$1,$4,$5*
1,1,$1+$1,$6,$7*
1,1,$1+$1,$8,$9*
0 Add four rect primitives between the rounded corners*
20,1,$1+$1,$2,$3,$4,$5,0*
20,1,$1+$1,$4,$5,$6,$7,0*
20,1,$1+$1,$6,$7,$8,$9,0*
20,1,$1+$1,$8,$9,$2,$3,0*%
G04 Aperture macros list end*
%ADD10C,0.150000*%
%ADD11C,0.120000*%
%ADD12RoundRect,0.102000X-0.375000X-1.250000X0.375000X-1.250000X0.375000X1.250000X-0.375000X1.250000X0*%
%ADD13R,0.850000X0.850000*%
%ADD14O,0.850000X0.850000*%
%ADD15C,5.400000*%
G04 APERTURE END LIST*
D10*
X155216666Y-145362295D02*
X154883333Y-144981342D01*
X154645238Y-145362295D02*
X154645238Y-144562295D01*
X154645238Y-144562295D02*
X155026190Y-144562295D01*
X155026190Y-144562295D02*
X155121428Y-144600390D01*
X155121428Y-144600390D02*
X155169047Y-144638485D01*
X155169047Y-144638485D02*
X155216666Y-144714676D01*
X155216666Y-144714676D02*
X155216666Y-144828961D01*
X155216666Y-144828961D02*
X155169047Y-144905152D01*
X155169047Y-144905152D02*
X155121428Y-144943247D01*
X155121428Y-144943247D02*
X155026190Y-144981342D01*
X155026190Y-144981342D02*
X154645238Y-144981342D01*
X155645238Y-144943247D02*
X155978571Y-144943247D01*
X156121428Y-145362295D02*
X155645238Y-145362295D01*
X155645238Y-145362295D02*
X155645238Y-144562295D01*
X155645238Y-144562295D02*
X156121428Y-144562295D01*
X156883333Y-144943247D02*
X156550000Y-144943247D01*
X156550000Y-145362295D02*
X156550000Y-144562295D01*
X156550000Y-144562295D02*
X157026190Y-144562295D01*
X157550000Y-144562295D02*
X157550000Y-144752771D01*
X157311905Y-144676580D02*
X157550000Y-144752771D01*
X157550000Y-144752771D02*
X157788095Y-144676580D01*
X157407143Y-144905152D02*
X157550000Y-144752771D01*
X157550000Y-144752771D02*
X157692857Y-144905152D01*
X158311905Y-144562295D02*
X158311905Y-144752771D01*
X158073810Y-144676580D02*
X158311905Y-144752771D01*
X158311905Y-144752771D02*
X158550000Y-144676580D01*
X158169048Y-144905152D02*
X158311905Y-144752771D01*
X158311905Y-144752771D02*
X158454762Y-144905152D01*
X149406666Y-140744819D02*
X149073333Y-140268628D01*
X148835238Y-140744819D02*
X148835238Y-139744819D01*
X148835238Y-139744819D02*
X149216190Y-139744819D01*
X149216190Y-139744819D02*
X149311428Y-139792438D01*
X149311428Y-139792438D02*
X149359047Y-139840057D01*
X149359047Y-139840057D02*
X149406666Y-139935295D01*
X149406666Y-139935295D02*
X149406666Y-140078152D01*
X149406666Y-140078152D02*
X149359047Y-140173390D01*
X149359047Y-140173390D02*
X149311428Y-140221009D01*
X149311428Y-140221009D02*
X149216190Y-140268628D01*
X149216190Y-140268628D02*
X148835238Y-140268628D01*
X149835238Y-140221009D02*
X150168571Y-140221009D01*
X150311428Y-140744819D02*
X149835238Y-140744819D01*
X149835238Y-140744819D02*
X149835238Y-139744819D01*
X149835238Y-139744819D02*
X150311428Y-139744819D01*
X151073333Y-140221009D02*
X150740000Y-140221009D01*
X150740000Y-140744819D02*
X150740000Y-139744819D01*
X150740000Y-139744819D02*
X151216190Y-139744819D01*
X151740000Y-139744819D02*
X151740000Y-139982914D01*
X151501905Y-139887676D02*
X151740000Y-139982914D01*
X151740000Y-139982914D02*
X151978095Y-139887676D01*
X151597143Y-140173390D02*
X151740000Y-139982914D01*
X151740000Y-139982914D02*
X151882857Y-140173390D01*
X152501905Y-139744819D02*
X152501905Y-139982914D01*
X152263810Y-139887676D02*
X152501905Y-139982914D01*
X152501905Y-139982914D02*
X152740000Y-139887676D01*
X152359048Y-140173390D02*
X152501905Y-139982914D01*
X152501905Y-139982914D02*
X152644762Y-140173390D01*
X154406666Y-137744819D02*
X154073333Y-137268628D01*
X153835238Y-137744819D02*
X153835238Y-136744819D01*
X153835238Y-136744819D02*
X154216190Y-136744819D01*
X154216190Y-136744819D02*
X154311428Y-136792438D01*
X154311428Y-136792438D02*
X154359047Y-136840057D01*
X154359047Y-136840057D02*
X154406666Y-136935295D01*
X154406666Y-136935295D02*
X154406666Y-137078152D01*
X154406666Y-137078152D02*
X154359047Y-137173390D01*
X154359047Y-137173390D02*
X154311428Y-137221009D01*
X154311428Y-137221009D02*
X154216190Y-137268628D01*
X154216190Y-137268628D02*
X153835238Y-137268628D01*
X154835238Y-137221009D02*
X155168571Y-137221009D01*
X155311428Y-137744819D02*
X154835238Y-137744819D01*
X154835238Y-137744819D02*
X154835238Y-136744819D01*
X154835238Y-136744819D02*
X155311428Y-136744819D01*
X156073333Y-137221009D02*
X155740000Y-137221009D01*
X155740000Y-137744819D02*
X155740000Y-136744819D01*
X155740000Y-136744819D02*
X156216190Y-136744819D01*
X156740000Y-136744819D02*
X156740000Y-136982914D01*
X156501905Y-136887676D02*
X156740000Y-136982914D01*
X156740000Y-136982914D02*
X156978095Y-136887676D01*
X156597143Y-137173390D02*
X156740000Y-136982914D01*
X156740000Y-136982914D02*
X156882857Y-137173390D01*
X157501905Y-136744819D02*
X157501905Y-136982914D01*
X157263810Y-136887676D02*
X157501905Y-136982914D01*
X157501905Y-136982914D02*
X157740000Y-136887676D01*
X157359048Y-137173390D02*
X157501905Y-136982914D01*
X157501905Y-136982914D02*
X157644762Y-137173390D01*
D11*
%TO.C,REF\u002A\u002A*%
X148865000Y-142685000D02*
X148865000Y-141990000D01*
X149550000Y-142685000D02*
X148865000Y-142685000D01*
X150235000Y-141295000D02*
X154110000Y-141295000D01*
X150235000Y-141381724D02*
X150235000Y-141295000D01*
X150235000Y-142685000D02*
X150235000Y-142598276D01*
X150235000Y-142685000D02*
X154110000Y-142685000D01*
X154110000Y-141595507D02*
X154110000Y-141295000D01*
X154110000Y-142685000D02*
X154110000Y-142384493D01*
X152990000Y-138295000D02*
X152990000Y-138595507D01*
X152990000Y-139384493D02*
X152990000Y-139685000D01*
X156865000Y-138295000D02*
X152990000Y-138295000D01*
X156865000Y-138295000D02*
X156865000Y-138381724D01*
X156865000Y-139598276D02*
X156865000Y-139685000D01*
X156865000Y-139685000D02*
X152990000Y-139685000D01*
X157550000Y-138295000D02*
X158235000Y-138295000D01*
X158235000Y-138295000D02*
X158235000Y-138990000D01*
%TD*%
%LPC*%
D12*
%TO.C,REF\u002A\u002A*%
X148330000Y-147880000D03*
X149430000Y-147880000D03*
X150530000Y-147880000D03*
X151630000Y-147880000D03*
X152730000Y-147880000D03*
X153830000Y-147880000D03*
X154930000Y-147880000D03*
X156030000Y-147880000D03*
X157130000Y-147880000D03*
X158224098Y-147880000D03*
%TD*%
D13*
%TO.C,REF\u002A\u002A*%
X149550000Y-141990000D03*
D14*
X150550000Y-141990000D03*
X151550000Y-141990000D03*
X152550000Y-141990000D03*
X153550000Y-141990000D03*
%TD*%
D15*
%TO.C,*%
X153150000Y-127090000D03*
%TD*%
D13*
%TO.C,REF\u002A\u002A*%
X157550000Y-138990000D03*
D14*
X156550000Y-138990000D03*
X155550000Y-138990000D03*
X154550000Y-138990000D03*
X153550000Y-138990000D03*
%TD*%
%LPD*%
M02*
