%TF.GenerationSoftware,KiCad,Pcbnew,8.0.8*%
%TF.CreationDate,2025-02-15T01:37:48-07:00*%
%TF.ProjectId,ECE Capstone PCB Design,45434520-4361-4707-9374-6f6e65205043,rev?*%
%TF.SameCoordinates,Original*%
%TF.FileFunction,Legend,Bot*%
%TF.FilePolarity,Positive*%
%FSLAX46Y46*%
G04 Gerber Fmt 4.6, Leading zero omitted, Abs format (unit mm)*
G04 Created by KiCad (PCBNEW 8.0.8) date 2025-02-15 01:37:48*
%MOMM*%
%LPD*%
G01*
G04 APERTURE LIST*
%ADD10C,0.150000*%
%ADD11C,0.120000*%
%ADD12C,5.400000*%
%ADD13R,1.700000X1.700000*%
%ADD14O,1.700000X1.700000*%
G04 APERTURE END LIST*
D10*
X202823207Y-137232295D02*
X203156540Y-136851342D01*
X203394635Y-137232295D02*
X203394635Y-136432295D01*
X203394635Y-136432295D02*
X203013683Y-136432295D01*
X203013683Y-136432295D02*
X202918445Y-136470390D01*
X202918445Y-136470390D02*
X202870826Y-136508485D01*
X202870826Y-136508485D02*
X202823207Y-136584676D01*
X202823207Y-136584676D02*
X202823207Y-136698961D01*
X202823207Y-136698961D02*
X202870826Y-136775152D01*
X202870826Y-136775152D02*
X202918445Y-136813247D01*
X202918445Y-136813247D02*
X203013683Y-136851342D01*
X203013683Y-136851342D02*
X203394635Y-136851342D01*
X202394635Y-136813247D02*
X202061302Y-136813247D01*
X201918445Y-137232295D02*
X202394635Y-137232295D01*
X202394635Y-137232295D02*
X202394635Y-136432295D01*
X202394635Y-136432295D02*
X201918445Y-136432295D01*
X201156540Y-136813247D02*
X201489873Y-136813247D01*
X201489873Y-137232295D02*
X201489873Y-136432295D01*
X201489873Y-136432295D02*
X201013683Y-136432295D01*
X200489873Y-136432295D02*
X200489873Y-136622771D01*
X200727968Y-136546580D02*
X200489873Y-136622771D01*
X200489873Y-136622771D02*
X200251778Y-136546580D01*
X200632730Y-136775152D02*
X200489873Y-136622771D01*
X200489873Y-136622771D02*
X200347016Y-136775152D01*
X199727968Y-136432295D02*
X199727968Y-136622771D01*
X199966063Y-136546580D02*
X199727968Y-136622771D01*
X199727968Y-136622771D02*
X199489873Y-136546580D01*
X199870825Y-136775152D02*
X199727968Y-136622771D01*
X199727968Y-136622771D02*
X199585111Y-136775152D01*
X268463333Y-116514819D02*
X268796666Y-116038628D01*
X269034761Y-116514819D02*
X269034761Y-115514819D01*
X269034761Y-115514819D02*
X268653809Y-115514819D01*
X268653809Y-115514819D02*
X268558571Y-115562438D01*
X268558571Y-115562438D02*
X268510952Y-115610057D01*
X268510952Y-115610057D02*
X268463333Y-115705295D01*
X268463333Y-115705295D02*
X268463333Y-115848152D01*
X268463333Y-115848152D02*
X268510952Y-115943390D01*
X268510952Y-115943390D02*
X268558571Y-115991009D01*
X268558571Y-115991009D02*
X268653809Y-116038628D01*
X268653809Y-116038628D02*
X269034761Y-116038628D01*
X268034761Y-115991009D02*
X267701428Y-115991009D01*
X267558571Y-116514819D02*
X268034761Y-116514819D01*
X268034761Y-116514819D02*
X268034761Y-115514819D01*
X268034761Y-115514819D02*
X267558571Y-115514819D01*
X266796666Y-115991009D02*
X267129999Y-115991009D01*
X267129999Y-116514819D02*
X267129999Y-115514819D01*
X267129999Y-115514819D02*
X266653809Y-115514819D01*
X266129999Y-115514819D02*
X266129999Y-115752914D01*
X266368094Y-115657676D02*
X266129999Y-115752914D01*
X266129999Y-115752914D02*
X265891904Y-115657676D01*
X266272856Y-115943390D02*
X266129999Y-115752914D01*
X266129999Y-115752914D02*
X265987142Y-115943390D01*
X265368094Y-115514819D02*
X265368094Y-115752914D01*
X265606189Y-115657676D02*
X265368094Y-115752914D01*
X265368094Y-115752914D02*
X265129999Y-115657676D01*
X265510951Y-115943390D02*
X265368094Y-115752914D01*
X265368094Y-115752914D02*
X265225237Y-115943390D01*
D11*
%TO.C,REF\u002A\u002A*%
X203644900Y-137195000D02*
X204974900Y-137195000D01*
X203644900Y-138525000D02*
X203644900Y-137195000D01*
X203644900Y-139795000D02*
X206244900Y-139795000D01*
X203644900Y-142395000D02*
X203644900Y-139795000D01*
X206244900Y-139795000D02*
X206244900Y-137195000D01*
X254564900Y-137195000D02*
X206244900Y-137195000D01*
X254564900Y-142395000D02*
X203644900Y-142395000D01*
X254564900Y-142395000D02*
X254564900Y-137195000D01*
X264530000Y-117060000D02*
X267130000Y-117060000D01*
X264530000Y-142580000D02*
X264530000Y-117060000D01*
X264530000Y-142580000D02*
X269730000Y-142580000D01*
X267130000Y-117060000D02*
X267130000Y-119660000D01*
X267130000Y-119660000D02*
X269730000Y-119660000D01*
X268400000Y-117060000D02*
X269730000Y-117060000D01*
X269730000Y-117060000D02*
X269730000Y-118390000D01*
X269730000Y-142580000D02*
X269730000Y-119660000D01*
%TD*%
%LPC*%
D12*
%TO.C,*%
X258174874Y-116750000D03*
%TD*%
D13*
%TO.C,REF\u002A\u002A*%
X204974900Y-138525000D03*
D14*
X204974900Y-141065000D03*
X207514900Y-138525000D03*
X207514900Y-141065000D03*
X210054900Y-138525000D03*
X210054900Y-141065000D03*
X212594900Y-138525000D03*
X212594900Y-141065000D03*
X215134900Y-138525000D03*
X215134900Y-141065000D03*
X217674900Y-138525000D03*
X217674900Y-141065000D03*
X220214900Y-138525000D03*
X220214900Y-141065000D03*
X222754900Y-138525000D03*
X222754900Y-141065000D03*
X225294900Y-138525000D03*
X225294900Y-141065000D03*
X227834900Y-138525000D03*
X227834900Y-141065000D03*
X230374900Y-138525000D03*
X230374900Y-141065000D03*
X232914900Y-138525000D03*
X232914900Y-141065000D03*
X235454900Y-138525000D03*
X235454900Y-141065000D03*
X237994900Y-138525000D03*
X237994900Y-141065000D03*
X240534900Y-138525000D03*
X240534900Y-141065000D03*
X243074900Y-138525000D03*
X243074900Y-141065000D03*
X245614900Y-138525000D03*
X245614900Y-141065000D03*
X248154900Y-138525000D03*
X248154900Y-141065000D03*
X250694900Y-138525000D03*
X250694900Y-141065000D03*
X253234900Y-138525000D03*
X253234900Y-141065000D03*
%TD*%
D13*
%TO.C,REF\u002A\u002A*%
X268400000Y-118390000D03*
D14*
X265860000Y-118390000D03*
X268400000Y-120930000D03*
X265860000Y-120930000D03*
X268400000Y-123470000D03*
X265860000Y-123470000D03*
X268400000Y-126010000D03*
X265860000Y-126010000D03*
X268400000Y-128550000D03*
X265860000Y-128550000D03*
X268400000Y-131090000D03*
X265860000Y-131090000D03*
X268400000Y-133630000D03*
X265860000Y-133630000D03*
X268400000Y-136170000D03*
X265860000Y-136170000D03*
X268400000Y-138710000D03*
X265860000Y-138710000D03*
X268400000Y-141250000D03*
X265860000Y-141250000D03*
%TD*%
D12*
%TO.C,*%
X258149874Y-139750000D03*
%TD*%
%TO.C,*%
X200149874Y-139750000D03*
%TD*%
%LPD*%
M02*
