%TF.GenerationSoftware,KiCad,Pcbnew,8.0.8*%
%TF.CreationDate,2025-02-15T01:37:50-07:00*%
%TF.ProjectId,ECE Capstone PCB Design,45434520-4361-4707-9374-6f6e65205043,rev?*%
%TF.SameCoordinates,Original*%
%TF.FileFunction,Drillmap*%
%TF.FilePolarity,Positive*%
%FSLAX45Y45*%
G04 Gerber Fmt 4.5, Leading zero omitted, Abs format (unit mm)*
G04 Created by KiCad (PCBNEW 8.0.8) date 2025-02-15 01:37:50*
%MOMM*%
%LPD*%
G01*
G04 APERTURE LIST*
%ADD10C,0.050000*%
%ADD11C,0.200000*%
%ADD12C,0.100000*%
%ADD13C,0.270000*%
G04 APERTURE END LIST*
D10*
X23294987Y-13625000D02*
X20014987Y-13625000D01*
X23294987Y-13345000D02*
X24694987Y-13345000D01*
X27174987Y-13975000D02*
G75*
G02*
X26824987Y-14324997I-349997J0D01*
G01*
X19664987Y-13975000D02*
G75*
G02*
X20014987Y-13624997I350003J0D01*
G01*
X24694987Y-11675000D02*
G75*
G02*
X25044987Y-11324997I350003J0D01*
G01*
X27174987Y-13975000D02*
X27174987Y-11675000D01*
X24694987Y-13345000D02*
X24694987Y-11675000D01*
X25044987Y-11325000D02*
X26824987Y-11325000D01*
X26824987Y-14325000D02*
X20014987Y-14325000D01*
X26824987Y-11325000D02*
G75*
G02*
X27174990Y-11675000I3J-350000D01*
G01*
X23294987Y-13625000D02*
X23294987Y-13345000D01*
X20014987Y-14325000D02*
G75*
G02*
X19664990Y-13975000I3J350000D01*
G01*
D11*
D12*
X20447490Y-13802500D02*
X20547490Y-13902500D01*
X20547490Y-13802500D02*
X20447490Y-13902500D01*
X20447490Y-14056500D02*
X20547490Y-14156500D01*
X20547490Y-14056500D02*
X20447490Y-14156500D01*
X20701490Y-13802500D02*
X20801490Y-13902500D01*
X20801490Y-13802500D02*
X20701490Y-13902500D01*
X20701490Y-14056500D02*
X20801490Y-14156500D01*
X20801490Y-14056500D02*
X20701490Y-14156500D01*
X20955490Y-13802500D02*
X21055490Y-13902500D01*
X21055490Y-13802500D02*
X20955490Y-13902500D01*
X20955490Y-14056500D02*
X21055490Y-14156500D01*
X21055490Y-14056500D02*
X20955490Y-14156500D01*
X21209490Y-13802500D02*
X21309490Y-13902500D01*
X21309490Y-13802500D02*
X21209490Y-13902500D01*
X21209490Y-14056500D02*
X21309490Y-14156500D01*
X21309490Y-14056500D02*
X21209490Y-14156500D01*
X21463490Y-13802500D02*
X21563490Y-13902500D01*
X21563490Y-13802500D02*
X21463490Y-13902500D01*
X21463490Y-14056500D02*
X21563490Y-14156500D01*
X21563490Y-14056500D02*
X21463490Y-14156500D01*
X21717490Y-13802500D02*
X21817490Y-13902500D01*
X21817490Y-13802500D02*
X21717490Y-13902500D01*
X21717490Y-14056500D02*
X21817490Y-14156500D01*
X21817490Y-14056500D02*
X21717490Y-14156500D01*
X21971490Y-13802500D02*
X22071490Y-13902500D01*
X22071490Y-13802500D02*
X21971490Y-13902500D01*
X21971490Y-14056500D02*
X22071490Y-14156500D01*
X22071490Y-14056500D02*
X21971490Y-14156500D01*
X22225490Y-13802500D02*
X22325490Y-13902500D01*
X22325490Y-13802500D02*
X22225490Y-13902500D01*
X22225490Y-14056500D02*
X22325490Y-14156500D01*
X22325490Y-14056500D02*
X22225490Y-14156500D01*
X22479490Y-13802500D02*
X22579490Y-13902500D01*
X22579490Y-13802500D02*
X22479490Y-13902500D01*
X22479490Y-14056500D02*
X22579490Y-14156500D01*
X22579490Y-14056500D02*
X22479490Y-14156500D01*
X22733490Y-13802500D02*
X22833490Y-13902500D01*
X22833490Y-13802500D02*
X22733490Y-13902500D01*
X22733490Y-14056500D02*
X22833490Y-14156500D01*
X22833490Y-14056500D02*
X22733490Y-14156500D01*
X22987490Y-13802500D02*
X23087490Y-13902500D01*
X23087490Y-13802500D02*
X22987490Y-13902500D01*
X22987490Y-14056500D02*
X23087490Y-14156500D01*
X23087490Y-14056500D02*
X22987490Y-14156500D01*
X23241490Y-13802500D02*
X23341490Y-13902500D01*
X23341490Y-13802500D02*
X23241490Y-13902500D01*
X23241490Y-14056500D02*
X23341490Y-14156500D01*
X23341490Y-14056500D02*
X23241490Y-14156500D01*
X23495490Y-13802500D02*
X23595490Y-13902500D01*
X23595490Y-13802500D02*
X23495490Y-13902500D01*
X23495490Y-14056500D02*
X23595490Y-14156500D01*
X23595490Y-14056500D02*
X23495490Y-14156500D01*
X23749490Y-13802500D02*
X23849490Y-13902500D01*
X23849490Y-13802500D02*
X23749490Y-13902500D01*
X23749490Y-14056500D02*
X23849490Y-14156500D01*
X23849490Y-14056500D02*
X23749490Y-14156500D01*
X24003490Y-13802500D02*
X24103490Y-13902500D01*
X24103490Y-13802500D02*
X24003490Y-13902500D01*
X24003490Y-14056500D02*
X24103490Y-14156500D01*
X24103490Y-14056500D02*
X24003490Y-14156500D01*
X24257490Y-13802500D02*
X24357490Y-13902500D01*
X24357490Y-13802500D02*
X24257490Y-13902500D01*
X24257490Y-14056500D02*
X24357490Y-14156500D01*
X24357490Y-14056500D02*
X24257490Y-14156500D01*
X24511490Y-13802500D02*
X24611490Y-13902500D01*
X24611490Y-13802500D02*
X24511490Y-13902500D01*
X24511490Y-14056500D02*
X24611490Y-14156500D01*
X24611490Y-14056500D02*
X24511490Y-14156500D01*
X24765490Y-13802500D02*
X24865490Y-13902500D01*
X24865490Y-13802500D02*
X24765490Y-13902500D01*
X24765490Y-14056500D02*
X24865490Y-14156500D01*
X24865490Y-14056500D02*
X24765490Y-14156500D01*
X25019490Y-13802500D02*
X25119490Y-13902500D01*
X25119490Y-13802500D02*
X25019490Y-13902500D01*
X25019490Y-14056500D02*
X25119490Y-14156500D01*
X25119490Y-14056500D02*
X25019490Y-14156500D01*
X25273490Y-13802500D02*
X25373490Y-13902500D01*
X25373490Y-13802500D02*
X25273490Y-13902500D01*
X25273490Y-14056500D02*
X25373490Y-14156500D01*
X25373490Y-14056500D02*
X25273490Y-14156500D01*
X26536000Y-11789000D02*
X26636000Y-11889000D01*
X26636000Y-11789000D02*
X26536000Y-11889000D01*
X26536000Y-12043000D02*
X26636000Y-12143000D01*
X26636000Y-12043000D02*
X26536000Y-12143000D01*
X26536000Y-12297000D02*
X26636000Y-12397000D01*
X26636000Y-12297000D02*
X26536000Y-12397000D01*
X26536000Y-12551000D02*
X26636000Y-12651000D01*
X26636000Y-12551000D02*
X26536000Y-12651000D01*
X26536000Y-12805000D02*
X26636000Y-12905000D01*
X26636000Y-12805000D02*
X26536000Y-12905000D01*
X26536000Y-13059000D02*
X26636000Y-13159000D01*
X26636000Y-13059000D02*
X26536000Y-13159000D01*
X26536000Y-13313000D02*
X26636000Y-13413000D01*
X26636000Y-13313000D02*
X26536000Y-13413000D01*
X26536000Y-13567000D02*
X26636000Y-13667000D01*
X26636000Y-13567000D02*
X26536000Y-13667000D01*
X26536000Y-13821000D02*
X26636000Y-13921000D01*
X26636000Y-13821000D02*
X26536000Y-13921000D01*
X26536000Y-14075000D02*
X26636000Y-14175000D01*
X26636000Y-14075000D02*
X26536000Y-14175000D01*
X26790000Y-11789000D02*
X26890000Y-11889000D01*
X26890000Y-11789000D02*
X26790000Y-11889000D01*
X26790000Y-12043000D02*
X26890000Y-12143000D01*
X26890000Y-12043000D02*
X26790000Y-12143000D01*
X26790000Y-12297000D02*
X26890000Y-12397000D01*
X26890000Y-12297000D02*
X26790000Y-12397000D01*
X26790000Y-12551000D02*
X26890000Y-12651000D01*
X26890000Y-12551000D02*
X26790000Y-12651000D01*
X26790000Y-12805000D02*
X26890000Y-12905000D01*
X26890000Y-12805000D02*
X26790000Y-12905000D01*
X26790000Y-13059000D02*
X26890000Y-13159000D01*
X26890000Y-13059000D02*
X26790000Y-13159000D01*
X26790000Y-13313000D02*
X26890000Y-13413000D01*
X26890000Y-13313000D02*
X26790000Y-13413000D01*
X26790000Y-13567000D02*
X26890000Y-13667000D01*
X26890000Y-13567000D02*
X26790000Y-13667000D01*
X26790000Y-13821000D02*
X26890000Y-13921000D01*
X26890000Y-13821000D02*
X26790000Y-13921000D01*
X26790000Y-14075000D02*
X26890000Y-14175000D01*
X26890000Y-14075000D02*
X26790000Y-14175000D01*
D13*
X20149987Y-13975000D02*
G75*
G02*
X19879987Y-13975000I-135000J0D01*
G01*
X19879987Y-13975000D02*
G75*
G02*
X20149987Y-13975000I135000J0D01*
G01*
X25949987Y-13975000D02*
G75*
G02*
X25679987Y-13975000I-135000J0D01*
G01*
X25679987Y-13975000D02*
G75*
G02*
X25949987Y-13975000I135000J0D01*
G01*
X25952487Y-11675000D02*
G75*
G02*
X25682487Y-11675000I-135000J0D01*
G01*
X25682487Y-11675000D02*
G75*
G02*
X25952487Y-11675000I135000J0D01*
G01*
D11*
X19923264Y-14638984D02*
X19923264Y-14438984D01*
X19923264Y-14438984D02*
X19970883Y-14438984D01*
X19970883Y-14438984D02*
X19999455Y-14448508D01*
X19999455Y-14448508D02*
X20018502Y-14467555D01*
X20018502Y-14467555D02*
X20028026Y-14486603D01*
X20028026Y-14486603D02*
X20037550Y-14524698D01*
X20037550Y-14524698D02*
X20037550Y-14553269D01*
X20037550Y-14553269D02*
X20028026Y-14591365D01*
X20028026Y-14591365D02*
X20018502Y-14610412D01*
X20018502Y-14610412D02*
X19999455Y-14629460D01*
X19999455Y-14629460D02*
X19970883Y-14638984D01*
X19970883Y-14638984D02*
X19923264Y-14638984D01*
X20123264Y-14638984D02*
X20123264Y-14505650D01*
X20123264Y-14543746D02*
X20132788Y-14524698D01*
X20132788Y-14524698D02*
X20142312Y-14515174D01*
X20142312Y-14515174D02*
X20161359Y-14505650D01*
X20161359Y-14505650D02*
X20180407Y-14505650D01*
X20247074Y-14638984D02*
X20247074Y-14505650D01*
X20247074Y-14438984D02*
X20237550Y-14448508D01*
X20237550Y-14448508D02*
X20247074Y-14458031D01*
X20247074Y-14458031D02*
X20256598Y-14448508D01*
X20256598Y-14448508D02*
X20247074Y-14438984D01*
X20247074Y-14438984D02*
X20247074Y-14458031D01*
X20370883Y-14638984D02*
X20351836Y-14629460D01*
X20351836Y-14629460D02*
X20342312Y-14610412D01*
X20342312Y-14610412D02*
X20342312Y-14438984D01*
X20475645Y-14638984D02*
X20456598Y-14629460D01*
X20456598Y-14629460D02*
X20447074Y-14610412D01*
X20447074Y-14610412D02*
X20447074Y-14438984D01*
X20704217Y-14638984D02*
X20704217Y-14438984D01*
X20704217Y-14438984D02*
X20770883Y-14581841D01*
X20770883Y-14581841D02*
X20837550Y-14438984D01*
X20837550Y-14438984D02*
X20837550Y-14638984D01*
X21018502Y-14638984D02*
X21018502Y-14534222D01*
X21018502Y-14534222D02*
X21008979Y-14515174D01*
X21008979Y-14515174D02*
X20989931Y-14505650D01*
X20989931Y-14505650D02*
X20951836Y-14505650D01*
X20951836Y-14505650D02*
X20932788Y-14515174D01*
X21018502Y-14629460D02*
X20999455Y-14638984D01*
X20999455Y-14638984D02*
X20951836Y-14638984D01*
X20951836Y-14638984D02*
X20932788Y-14629460D01*
X20932788Y-14629460D02*
X20923264Y-14610412D01*
X20923264Y-14610412D02*
X20923264Y-14591365D01*
X20923264Y-14591365D02*
X20932788Y-14572317D01*
X20932788Y-14572317D02*
X20951836Y-14562793D01*
X20951836Y-14562793D02*
X20999455Y-14562793D01*
X20999455Y-14562793D02*
X21018502Y-14553269D01*
X21113740Y-14505650D02*
X21113740Y-14705650D01*
X21113740Y-14515174D02*
X21132788Y-14505650D01*
X21132788Y-14505650D02*
X21170883Y-14505650D01*
X21170883Y-14505650D02*
X21189931Y-14515174D01*
X21189931Y-14515174D02*
X21199455Y-14524698D01*
X21199455Y-14524698D02*
X21208979Y-14543746D01*
X21208979Y-14543746D02*
X21208979Y-14600888D01*
X21208979Y-14600888D02*
X21199455Y-14619936D01*
X21199455Y-14619936D02*
X21189931Y-14629460D01*
X21189931Y-14629460D02*
X21170883Y-14638984D01*
X21170883Y-14638984D02*
X21132788Y-14638984D01*
X21132788Y-14638984D02*
X21113740Y-14629460D01*
X21294693Y-14619936D02*
X21304217Y-14629460D01*
X21304217Y-14629460D02*
X21294693Y-14638984D01*
X21294693Y-14638984D02*
X21285169Y-14629460D01*
X21285169Y-14629460D02*
X21294693Y-14619936D01*
X21294693Y-14619936D02*
X21294693Y-14638984D01*
X21294693Y-14515174D02*
X21304217Y-14524698D01*
X21304217Y-14524698D02*
X21294693Y-14534222D01*
X21294693Y-14534222D02*
X21285169Y-14524698D01*
X21285169Y-14524698D02*
X21294693Y-14515174D01*
X21294693Y-14515174D02*
X21294693Y-14534222D01*
D12*
X19562487Y-14917500D02*
X19662487Y-15017500D01*
X19662487Y-14917500D02*
X19562487Y-15017500D01*
D11*
X20028026Y-15058984D02*
X19913740Y-15058984D01*
X19970883Y-15058984D02*
X19970883Y-14858984D01*
X19970883Y-14858984D02*
X19951836Y-14887555D01*
X19951836Y-14887555D02*
X19932788Y-14906603D01*
X19932788Y-14906603D02*
X19913740Y-14916127D01*
X20113740Y-15039936D02*
X20123264Y-15049460D01*
X20123264Y-15049460D02*
X20113740Y-15058984D01*
X20113740Y-15058984D02*
X20104217Y-15049460D01*
X20104217Y-15049460D02*
X20113740Y-15039936D01*
X20113740Y-15039936D02*
X20113740Y-15058984D01*
X20247074Y-14858984D02*
X20266121Y-14858984D01*
X20266121Y-14858984D02*
X20285169Y-14868508D01*
X20285169Y-14868508D02*
X20294693Y-14878031D01*
X20294693Y-14878031D02*
X20304217Y-14897079D01*
X20304217Y-14897079D02*
X20313740Y-14935174D01*
X20313740Y-14935174D02*
X20313740Y-14982793D01*
X20313740Y-14982793D02*
X20304217Y-15020888D01*
X20304217Y-15020888D02*
X20294693Y-15039936D01*
X20294693Y-15039936D02*
X20285169Y-15049460D01*
X20285169Y-15049460D02*
X20266121Y-15058984D01*
X20266121Y-15058984D02*
X20247074Y-15058984D01*
X20247074Y-15058984D02*
X20228026Y-15049460D01*
X20228026Y-15049460D02*
X20218502Y-15039936D01*
X20218502Y-15039936D02*
X20208979Y-15020888D01*
X20208979Y-15020888D02*
X20199455Y-14982793D01*
X20199455Y-14982793D02*
X20199455Y-14935174D01*
X20199455Y-14935174D02*
X20208979Y-14897079D01*
X20208979Y-14897079D02*
X20218502Y-14878031D01*
X20218502Y-14878031D02*
X20228026Y-14868508D01*
X20228026Y-14868508D02*
X20247074Y-14858984D01*
X20437550Y-14858984D02*
X20456598Y-14858984D01*
X20456598Y-14858984D02*
X20475645Y-14868508D01*
X20475645Y-14868508D02*
X20485169Y-14878031D01*
X20485169Y-14878031D02*
X20494693Y-14897079D01*
X20494693Y-14897079D02*
X20504217Y-14935174D01*
X20504217Y-14935174D02*
X20504217Y-14982793D01*
X20504217Y-14982793D02*
X20494693Y-15020888D01*
X20494693Y-15020888D02*
X20485169Y-15039936D01*
X20485169Y-15039936D02*
X20475645Y-15049460D01*
X20475645Y-15049460D02*
X20456598Y-15058984D01*
X20456598Y-15058984D02*
X20437550Y-15058984D01*
X20437550Y-15058984D02*
X20418502Y-15049460D01*
X20418502Y-15049460D02*
X20408979Y-15039936D01*
X20408979Y-15039936D02*
X20399455Y-15020888D01*
X20399455Y-15020888D02*
X20389931Y-14982793D01*
X20389931Y-14982793D02*
X20389931Y-14935174D01*
X20389931Y-14935174D02*
X20399455Y-14897079D01*
X20399455Y-14897079D02*
X20408979Y-14878031D01*
X20408979Y-14878031D02*
X20418502Y-14868508D01*
X20418502Y-14868508D02*
X20437550Y-14858984D01*
X20628026Y-14858984D02*
X20647074Y-14858984D01*
X20647074Y-14858984D02*
X20666121Y-14868508D01*
X20666121Y-14868508D02*
X20675645Y-14878031D01*
X20675645Y-14878031D02*
X20685169Y-14897079D01*
X20685169Y-14897079D02*
X20694693Y-14935174D01*
X20694693Y-14935174D02*
X20694693Y-14982793D01*
X20694693Y-14982793D02*
X20685169Y-15020888D01*
X20685169Y-15020888D02*
X20675645Y-15039936D01*
X20675645Y-15039936D02*
X20666121Y-15049460D01*
X20666121Y-15049460D02*
X20647074Y-15058984D01*
X20647074Y-15058984D02*
X20628026Y-15058984D01*
X20628026Y-15058984D02*
X20608979Y-15049460D01*
X20608979Y-15049460D02*
X20599455Y-15039936D01*
X20599455Y-15039936D02*
X20589931Y-15020888D01*
X20589931Y-15020888D02*
X20580407Y-14982793D01*
X20580407Y-14982793D02*
X20580407Y-14935174D01*
X20580407Y-14935174D02*
X20589931Y-14897079D01*
X20589931Y-14897079D02*
X20599455Y-14878031D01*
X20599455Y-14878031D02*
X20608979Y-14868508D01*
X20608979Y-14868508D02*
X20628026Y-14858984D01*
X20780407Y-15058984D02*
X20780407Y-14925650D01*
X20780407Y-14944698D02*
X20789931Y-14935174D01*
X20789931Y-14935174D02*
X20808979Y-14925650D01*
X20808979Y-14925650D02*
X20837550Y-14925650D01*
X20837550Y-14925650D02*
X20856598Y-14935174D01*
X20856598Y-14935174D02*
X20866121Y-14954222D01*
X20866121Y-14954222D02*
X20866121Y-15058984D01*
X20866121Y-14954222D02*
X20875645Y-14935174D01*
X20875645Y-14935174D02*
X20894693Y-14925650D01*
X20894693Y-14925650D02*
X20923264Y-14925650D01*
X20923264Y-14925650D02*
X20942312Y-14935174D01*
X20942312Y-14935174D02*
X20951836Y-14954222D01*
X20951836Y-14954222D02*
X20951836Y-15058984D01*
X21047074Y-15058984D02*
X21047074Y-14925650D01*
X21047074Y-14944698D02*
X21056598Y-14935174D01*
X21056598Y-14935174D02*
X21075645Y-14925650D01*
X21075645Y-14925650D02*
X21104217Y-14925650D01*
X21104217Y-14925650D02*
X21123264Y-14935174D01*
X21123264Y-14935174D02*
X21132788Y-14954222D01*
X21132788Y-14954222D02*
X21132788Y-15058984D01*
X21132788Y-14954222D02*
X21142312Y-14935174D01*
X21142312Y-14935174D02*
X21161360Y-14925650D01*
X21161360Y-14925650D02*
X21189931Y-14925650D01*
X21189931Y-14925650D02*
X21208979Y-14935174D01*
X21208979Y-14935174D02*
X21218502Y-14954222D01*
X21218502Y-14954222D02*
X21218502Y-15058984D01*
X21608979Y-14849460D02*
X21437550Y-15106603D01*
X21866122Y-14858984D02*
X21885169Y-14858984D01*
X21885169Y-14858984D02*
X21904217Y-14868508D01*
X21904217Y-14868508D02*
X21913741Y-14878031D01*
X21913741Y-14878031D02*
X21923264Y-14897079D01*
X21923264Y-14897079D02*
X21932788Y-14935174D01*
X21932788Y-14935174D02*
X21932788Y-14982793D01*
X21932788Y-14982793D02*
X21923264Y-15020888D01*
X21923264Y-15020888D02*
X21913741Y-15039936D01*
X21913741Y-15039936D02*
X21904217Y-15049460D01*
X21904217Y-15049460D02*
X21885169Y-15058984D01*
X21885169Y-15058984D02*
X21866122Y-15058984D01*
X21866122Y-15058984D02*
X21847074Y-15049460D01*
X21847074Y-15049460D02*
X21837550Y-15039936D01*
X21837550Y-15039936D02*
X21828026Y-15020888D01*
X21828026Y-15020888D02*
X21818503Y-14982793D01*
X21818503Y-14982793D02*
X21818503Y-14935174D01*
X21818503Y-14935174D02*
X21828026Y-14897079D01*
X21828026Y-14897079D02*
X21837550Y-14878031D01*
X21837550Y-14878031D02*
X21847074Y-14868508D01*
X21847074Y-14868508D02*
X21866122Y-14858984D01*
X22018503Y-15039936D02*
X22028026Y-15049460D01*
X22028026Y-15049460D02*
X22018503Y-15058984D01*
X22018503Y-15058984D02*
X22008979Y-15049460D01*
X22008979Y-15049460D02*
X22018503Y-15039936D01*
X22018503Y-15039936D02*
X22018503Y-15058984D01*
X22151836Y-14858984D02*
X22170884Y-14858984D01*
X22170884Y-14858984D02*
X22189931Y-14868508D01*
X22189931Y-14868508D02*
X22199455Y-14878031D01*
X22199455Y-14878031D02*
X22208979Y-14897079D01*
X22208979Y-14897079D02*
X22218503Y-14935174D01*
X22218503Y-14935174D02*
X22218503Y-14982793D01*
X22218503Y-14982793D02*
X22208979Y-15020888D01*
X22208979Y-15020888D02*
X22199455Y-15039936D01*
X22199455Y-15039936D02*
X22189931Y-15049460D01*
X22189931Y-15049460D02*
X22170884Y-15058984D01*
X22170884Y-15058984D02*
X22151836Y-15058984D01*
X22151836Y-15058984D02*
X22132788Y-15049460D01*
X22132788Y-15049460D02*
X22123264Y-15039936D01*
X22123264Y-15039936D02*
X22113741Y-15020888D01*
X22113741Y-15020888D02*
X22104217Y-14982793D01*
X22104217Y-14982793D02*
X22104217Y-14935174D01*
X22104217Y-14935174D02*
X22113741Y-14897079D01*
X22113741Y-14897079D02*
X22123264Y-14878031D01*
X22123264Y-14878031D02*
X22132788Y-14868508D01*
X22132788Y-14868508D02*
X22151836Y-14858984D01*
X22285169Y-14858984D02*
X22408979Y-14858984D01*
X22408979Y-14858984D02*
X22342312Y-14935174D01*
X22342312Y-14935174D02*
X22370883Y-14935174D01*
X22370883Y-14935174D02*
X22389931Y-14944698D01*
X22389931Y-14944698D02*
X22399455Y-14954222D01*
X22399455Y-14954222D02*
X22408979Y-14973269D01*
X22408979Y-14973269D02*
X22408979Y-15020888D01*
X22408979Y-15020888D02*
X22399455Y-15039936D01*
X22399455Y-15039936D02*
X22389931Y-15049460D01*
X22389931Y-15049460D02*
X22370883Y-15058984D01*
X22370883Y-15058984D02*
X22313741Y-15058984D01*
X22313741Y-15058984D02*
X22294693Y-15049460D01*
X22294693Y-15049460D02*
X22285169Y-15039936D01*
X22504217Y-15058984D02*
X22542312Y-15058984D01*
X22542312Y-15058984D02*
X22561360Y-15049460D01*
X22561360Y-15049460D02*
X22570883Y-15039936D01*
X22570883Y-15039936D02*
X22589931Y-15011365D01*
X22589931Y-15011365D02*
X22599455Y-14973269D01*
X22599455Y-14973269D02*
X22599455Y-14897079D01*
X22599455Y-14897079D02*
X22589931Y-14878031D01*
X22589931Y-14878031D02*
X22580407Y-14868508D01*
X22580407Y-14868508D02*
X22561360Y-14858984D01*
X22561360Y-14858984D02*
X22523264Y-14858984D01*
X22523264Y-14858984D02*
X22504217Y-14868508D01*
X22504217Y-14868508D02*
X22494693Y-14878031D01*
X22494693Y-14878031D02*
X22485169Y-14897079D01*
X22485169Y-14897079D02*
X22485169Y-14944698D01*
X22485169Y-14944698D02*
X22494693Y-14963746D01*
X22494693Y-14963746D02*
X22504217Y-14973269D01*
X22504217Y-14973269D02*
X22523264Y-14982793D01*
X22523264Y-14982793D02*
X22561360Y-14982793D01*
X22561360Y-14982793D02*
X22580407Y-14973269D01*
X22580407Y-14973269D02*
X22589931Y-14963746D01*
X22589931Y-14963746D02*
X22599455Y-14944698D01*
X22770883Y-14925650D02*
X22770883Y-15058984D01*
X22723264Y-14849460D02*
X22675645Y-14992317D01*
X22675645Y-14992317D02*
X22799455Y-14992317D01*
X22866122Y-14858984D02*
X22866122Y-14897079D01*
X22942312Y-14858984D02*
X22942312Y-14897079D01*
X23237550Y-15135174D02*
X23228026Y-15125650D01*
X23228026Y-15125650D02*
X23208979Y-15097079D01*
X23208979Y-15097079D02*
X23199455Y-15078031D01*
X23199455Y-15078031D02*
X23189931Y-15049460D01*
X23189931Y-15049460D02*
X23180407Y-15001841D01*
X23180407Y-15001841D02*
X23180407Y-14963746D01*
X23180407Y-14963746D02*
X23189931Y-14916127D01*
X23189931Y-14916127D02*
X23199455Y-14887555D01*
X23199455Y-14887555D02*
X23208979Y-14868508D01*
X23208979Y-14868508D02*
X23228026Y-14839936D01*
X23228026Y-14839936D02*
X23237550Y-14830412D01*
X23399455Y-14858984D02*
X23361360Y-14858984D01*
X23361360Y-14858984D02*
X23342312Y-14868508D01*
X23342312Y-14868508D02*
X23332788Y-14878031D01*
X23332788Y-14878031D02*
X23313741Y-14906603D01*
X23313741Y-14906603D02*
X23304217Y-14944698D01*
X23304217Y-14944698D02*
X23304217Y-15020888D01*
X23304217Y-15020888D02*
X23313741Y-15039936D01*
X23313741Y-15039936D02*
X23323264Y-15049460D01*
X23323264Y-15049460D02*
X23342312Y-15058984D01*
X23342312Y-15058984D02*
X23380407Y-15058984D01*
X23380407Y-15058984D02*
X23399455Y-15049460D01*
X23399455Y-15049460D02*
X23408979Y-15039936D01*
X23408979Y-15039936D02*
X23418503Y-15020888D01*
X23418503Y-15020888D02*
X23418503Y-14973269D01*
X23418503Y-14973269D02*
X23408979Y-14954222D01*
X23408979Y-14954222D02*
X23399455Y-14944698D01*
X23399455Y-14944698D02*
X23380407Y-14935174D01*
X23380407Y-14935174D02*
X23342312Y-14935174D01*
X23342312Y-14935174D02*
X23323264Y-14944698D01*
X23323264Y-14944698D02*
X23313741Y-14954222D01*
X23313741Y-14954222D02*
X23304217Y-14973269D01*
X23542312Y-14858984D02*
X23561360Y-14858984D01*
X23561360Y-14858984D02*
X23580407Y-14868508D01*
X23580407Y-14868508D02*
X23589931Y-14878031D01*
X23589931Y-14878031D02*
X23599455Y-14897079D01*
X23599455Y-14897079D02*
X23608979Y-14935174D01*
X23608979Y-14935174D02*
X23608979Y-14982793D01*
X23608979Y-14982793D02*
X23599455Y-15020888D01*
X23599455Y-15020888D02*
X23589931Y-15039936D01*
X23589931Y-15039936D02*
X23580407Y-15049460D01*
X23580407Y-15049460D02*
X23561360Y-15058984D01*
X23561360Y-15058984D02*
X23542312Y-15058984D01*
X23542312Y-15058984D02*
X23523264Y-15049460D01*
X23523264Y-15049460D02*
X23513741Y-15039936D01*
X23513741Y-15039936D02*
X23504217Y-15020888D01*
X23504217Y-15020888D02*
X23494693Y-14982793D01*
X23494693Y-14982793D02*
X23494693Y-14935174D01*
X23494693Y-14935174D02*
X23504217Y-14897079D01*
X23504217Y-14897079D02*
X23513741Y-14878031D01*
X23513741Y-14878031D02*
X23523264Y-14868508D01*
X23523264Y-14868508D02*
X23542312Y-14858984D01*
X23847074Y-15058984D02*
X23847074Y-14858984D01*
X23932788Y-15058984D02*
X23932788Y-14954222D01*
X23932788Y-14954222D02*
X23923265Y-14935174D01*
X23923265Y-14935174D02*
X23904217Y-14925650D01*
X23904217Y-14925650D02*
X23875645Y-14925650D01*
X23875645Y-14925650D02*
X23856598Y-14935174D01*
X23856598Y-14935174D02*
X23847074Y-14944698D01*
X24056598Y-15058984D02*
X24037550Y-15049460D01*
X24037550Y-15049460D02*
X24028026Y-15039936D01*
X24028026Y-15039936D02*
X24018503Y-15020888D01*
X24018503Y-15020888D02*
X24018503Y-14963746D01*
X24018503Y-14963746D02*
X24028026Y-14944698D01*
X24028026Y-14944698D02*
X24037550Y-14935174D01*
X24037550Y-14935174D02*
X24056598Y-14925650D01*
X24056598Y-14925650D02*
X24085169Y-14925650D01*
X24085169Y-14925650D02*
X24104217Y-14935174D01*
X24104217Y-14935174D02*
X24113741Y-14944698D01*
X24113741Y-14944698D02*
X24123265Y-14963746D01*
X24123265Y-14963746D02*
X24123265Y-15020888D01*
X24123265Y-15020888D02*
X24113741Y-15039936D01*
X24113741Y-15039936D02*
X24104217Y-15049460D01*
X24104217Y-15049460D02*
X24085169Y-15058984D01*
X24085169Y-15058984D02*
X24056598Y-15058984D01*
X24237550Y-15058984D02*
X24218503Y-15049460D01*
X24218503Y-15049460D02*
X24208979Y-15030412D01*
X24208979Y-15030412D02*
X24208979Y-14858984D01*
X24389931Y-15049460D02*
X24370884Y-15058984D01*
X24370884Y-15058984D02*
X24332788Y-15058984D01*
X24332788Y-15058984D02*
X24313741Y-15049460D01*
X24313741Y-15049460D02*
X24304217Y-15030412D01*
X24304217Y-15030412D02*
X24304217Y-14954222D01*
X24304217Y-14954222D02*
X24313741Y-14935174D01*
X24313741Y-14935174D02*
X24332788Y-14925650D01*
X24332788Y-14925650D02*
X24370884Y-14925650D01*
X24370884Y-14925650D02*
X24389931Y-14935174D01*
X24389931Y-14935174D02*
X24399455Y-14954222D01*
X24399455Y-14954222D02*
X24399455Y-14973269D01*
X24399455Y-14973269D02*
X24304217Y-14992317D01*
X24475646Y-15049460D02*
X24494693Y-15058984D01*
X24494693Y-15058984D02*
X24532788Y-15058984D01*
X24532788Y-15058984D02*
X24551836Y-15049460D01*
X24551836Y-15049460D02*
X24561360Y-15030412D01*
X24561360Y-15030412D02*
X24561360Y-15020888D01*
X24561360Y-15020888D02*
X24551836Y-15001841D01*
X24551836Y-15001841D02*
X24532788Y-14992317D01*
X24532788Y-14992317D02*
X24504217Y-14992317D01*
X24504217Y-14992317D02*
X24485169Y-14982793D01*
X24485169Y-14982793D02*
X24475646Y-14963746D01*
X24475646Y-14963746D02*
X24475646Y-14954222D01*
X24475646Y-14954222D02*
X24485169Y-14935174D01*
X24485169Y-14935174D02*
X24504217Y-14925650D01*
X24504217Y-14925650D02*
X24532788Y-14925650D01*
X24532788Y-14925650D02*
X24551836Y-14935174D01*
X24628027Y-15135174D02*
X24637550Y-15125650D01*
X24637550Y-15125650D02*
X24656598Y-15097079D01*
X24656598Y-15097079D02*
X24666122Y-15078031D01*
X24666122Y-15078031D02*
X24675646Y-15049460D01*
X24675646Y-15049460D02*
X24685169Y-15001841D01*
X24685169Y-15001841D02*
X24685169Y-14963746D01*
X24685169Y-14963746D02*
X24675646Y-14916127D01*
X24675646Y-14916127D02*
X24666122Y-14887555D01*
X24666122Y-14887555D02*
X24656598Y-14868508D01*
X24656598Y-14868508D02*
X24637550Y-14839936D01*
X24637550Y-14839936D02*
X24628027Y-14830412D01*
X19662487Y-15231500D02*
G75*
G02*
X19462487Y-15231500I-100000J0D01*
G01*
X19462487Y-15231500D02*
G75*
G02*
X19662487Y-15231500I100000J0D01*
G01*
X19913740Y-15142031D02*
X19923264Y-15132508D01*
X19923264Y-15132508D02*
X19942312Y-15122984D01*
X19942312Y-15122984D02*
X19989931Y-15122984D01*
X19989931Y-15122984D02*
X20008979Y-15132508D01*
X20008979Y-15132508D02*
X20018502Y-15142031D01*
X20018502Y-15142031D02*
X20028026Y-15161079D01*
X20028026Y-15161079D02*
X20028026Y-15180127D01*
X20028026Y-15180127D02*
X20018502Y-15208698D01*
X20018502Y-15208698D02*
X19904217Y-15322984D01*
X19904217Y-15322984D02*
X20028026Y-15322984D01*
X20113740Y-15303936D02*
X20123264Y-15313460D01*
X20123264Y-15313460D02*
X20113740Y-15322984D01*
X20113740Y-15322984D02*
X20104217Y-15313460D01*
X20104217Y-15313460D02*
X20113740Y-15303936D01*
X20113740Y-15303936D02*
X20113740Y-15322984D01*
X20189931Y-15122984D02*
X20323264Y-15122984D01*
X20323264Y-15122984D02*
X20237550Y-15322984D01*
X20437550Y-15122984D02*
X20456598Y-15122984D01*
X20456598Y-15122984D02*
X20475645Y-15132508D01*
X20475645Y-15132508D02*
X20485169Y-15142031D01*
X20485169Y-15142031D02*
X20494693Y-15161079D01*
X20494693Y-15161079D02*
X20504217Y-15199174D01*
X20504217Y-15199174D02*
X20504217Y-15246793D01*
X20504217Y-15246793D02*
X20494693Y-15284888D01*
X20494693Y-15284888D02*
X20485169Y-15303936D01*
X20485169Y-15303936D02*
X20475645Y-15313460D01*
X20475645Y-15313460D02*
X20456598Y-15322984D01*
X20456598Y-15322984D02*
X20437550Y-15322984D01*
X20437550Y-15322984D02*
X20418502Y-15313460D01*
X20418502Y-15313460D02*
X20408979Y-15303936D01*
X20408979Y-15303936D02*
X20399455Y-15284888D01*
X20399455Y-15284888D02*
X20389931Y-15246793D01*
X20389931Y-15246793D02*
X20389931Y-15199174D01*
X20389931Y-15199174D02*
X20399455Y-15161079D01*
X20399455Y-15161079D02*
X20408979Y-15142031D01*
X20408979Y-15142031D02*
X20418502Y-15132508D01*
X20418502Y-15132508D02*
X20437550Y-15122984D01*
X20628026Y-15122984D02*
X20647074Y-15122984D01*
X20647074Y-15122984D02*
X20666121Y-15132508D01*
X20666121Y-15132508D02*
X20675645Y-15142031D01*
X20675645Y-15142031D02*
X20685169Y-15161079D01*
X20685169Y-15161079D02*
X20694693Y-15199174D01*
X20694693Y-15199174D02*
X20694693Y-15246793D01*
X20694693Y-15246793D02*
X20685169Y-15284888D01*
X20685169Y-15284888D02*
X20675645Y-15303936D01*
X20675645Y-15303936D02*
X20666121Y-15313460D01*
X20666121Y-15313460D02*
X20647074Y-15322984D01*
X20647074Y-15322984D02*
X20628026Y-15322984D01*
X20628026Y-15322984D02*
X20608979Y-15313460D01*
X20608979Y-15313460D02*
X20599455Y-15303936D01*
X20599455Y-15303936D02*
X20589931Y-15284888D01*
X20589931Y-15284888D02*
X20580407Y-15246793D01*
X20580407Y-15246793D02*
X20580407Y-15199174D01*
X20580407Y-15199174D02*
X20589931Y-15161079D01*
X20589931Y-15161079D02*
X20599455Y-15142031D01*
X20599455Y-15142031D02*
X20608979Y-15132508D01*
X20608979Y-15132508D02*
X20628026Y-15122984D01*
X20780407Y-15322984D02*
X20780407Y-15189650D01*
X20780407Y-15208698D02*
X20789931Y-15199174D01*
X20789931Y-15199174D02*
X20808979Y-15189650D01*
X20808979Y-15189650D02*
X20837550Y-15189650D01*
X20837550Y-15189650D02*
X20856598Y-15199174D01*
X20856598Y-15199174D02*
X20866121Y-15218222D01*
X20866121Y-15218222D02*
X20866121Y-15322984D01*
X20866121Y-15218222D02*
X20875645Y-15199174D01*
X20875645Y-15199174D02*
X20894693Y-15189650D01*
X20894693Y-15189650D02*
X20923264Y-15189650D01*
X20923264Y-15189650D02*
X20942312Y-15199174D01*
X20942312Y-15199174D02*
X20951836Y-15218222D01*
X20951836Y-15218222D02*
X20951836Y-15322984D01*
X21047074Y-15322984D02*
X21047074Y-15189650D01*
X21047074Y-15208698D02*
X21056598Y-15199174D01*
X21056598Y-15199174D02*
X21075645Y-15189650D01*
X21075645Y-15189650D02*
X21104217Y-15189650D01*
X21104217Y-15189650D02*
X21123264Y-15199174D01*
X21123264Y-15199174D02*
X21132788Y-15218222D01*
X21132788Y-15218222D02*
X21132788Y-15322984D01*
X21132788Y-15218222D02*
X21142312Y-15199174D01*
X21142312Y-15199174D02*
X21161360Y-15189650D01*
X21161360Y-15189650D02*
X21189931Y-15189650D01*
X21189931Y-15189650D02*
X21208979Y-15199174D01*
X21208979Y-15199174D02*
X21218502Y-15218222D01*
X21218502Y-15218222D02*
X21218502Y-15322984D01*
X21608979Y-15113460D02*
X21437550Y-15370603D01*
X21866122Y-15122984D02*
X21885169Y-15122984D01*
X21885169Y-15122984D02*
X21904217Y-15132508D01*
X21904217Y-15132508D02*
X21913741Y-15142031D01*
X21913741Y-15142031D02*
X21923264Y-15161079D01*
X21923264Y-15161079D02*
X21932788Y-15199174D01*
X21932788Y-15199174D02*
X21932788Y-15246793D01*
X21932788Y-15246793D02*
X21923264Y-15284888D01*
X21923264Y-15284888D02*
X21913741Y-15303936D01*
X21913741Y-15303936D02*
X21904217Y-15313460D01*
X21904217Y-15313460D02*
X21885169Y-15322984D01*
X21885169Y-15322984D02*
X21866122Y-15322984D01*
X21866122Y-15322984D02*
X21847074Y-15313460D01*
X21847074Y-15313460D02*
X21837550Y-15303936D01*
X21837550Y-15303936D02*
X21828026Y-15284888D01*
X21828026Y-15284888D02*
X21818503Y-15246793D01*
X21818503Y-15246793D02*
X21818503Y-15199174D01*
X21818503Y-15199174D02*
X21828026Y-15161079D01*
X21828026Y-15161079D02*
X21837550Y-15142031D01*
X21837550Y-15142031D02*
X21847074Y-15132508D01*
X21847074Y-15132508D02*
X21866122Y-15122984D01*
X22018503Y-15303936D02*
X22028026Y-15313460D01*
X22028026Y-15313460D02*
X22018503Y-15322984D01*
X22018503Y-15322984D02*
X22008979Y-15313460D01*
X22008979Y-15313460D02*
X22018503Y-15303936D01*
X22018503Y-15303936D02*
X22018503Y-15322984D01*
X22218503Y-15322984D02*
X22104217Y-15322984D01*
X22161360Y-15322984D02*
X22161360Y-15122984D01*
X22161360Y-15122984D02*
X22142312Y-15151555D01*
X22142312Y-15151555D02*
X22123264Y-15170603D01*
X22123264Y-15170603D02*
X22104217Y-15180127D01*
X22342312Y-15122984D02*
X22361360Y-15122984D01*
X22361360Y-15122984D02*
X22380407Y-15132508D01*
X22380407Y-15132508D02*
X22389931Y-15142031D01*
X22389931Y-15142031D02*
X22399455Y-15161079D01*
X22399455Y-15161079D02*
X22408979Y-15199174D01*
X22408979Y-15199174D02*
X22408979Y-15246793D01*
X22408979Y-15246793D02*
X22399455Y-15284888D01*
X22399455Y-15284888D02*
X22389931Y-15303936D01*
X22389931Y-15303936D02*
X22380407Y-15313460D01*
X22380407Y-15313460D02*
X22361360Y-15322984D01*
X22361360Y-15322984D02*
X22342312Y-15322984D01*
X22342312Y-15322984D02*
X22323264Y-15313460D01*
X22323264Y-15313460D02*
X22313741Y-15303936D01*
X22313741Y-15303936D02*
X22304217Y-15284888D01*
X22304217Y-15284888D02*
X22294693Y-15246793D01*
X22294693Y-15246793D02*
X22294693Y-15199174D01*
X22294693Y-15199174D02*
X22304217Y-15161079D01*
X22304217Y-15161079D02*
X22313741Y-15142031D01*
X22313741Y-15142031D02*
X22323264Y-15132508D01*
X22323264Y-15132508D02*
X22342312Y-15122984D01*
X22580407Y-15122984D02*
X22542312Y-15122984D01*
X22542312Y-15122984D02*
X22523264Y-15132508D01*
X22523264Y-15132508D02*
X22513741Y-15142031D01*
X22513741Y-15142031D02*
X22494693Y-15170603D01*
X22494693Y-15170603D02*
X22485169Y-15208698D01*
X22485169Y-15208698D02*
X22485169Y-15284888D01*
X22485169Y-15284888D02*
X22494693Y-15303936D01*
X22494693Y-15303936D02*
X22504217Y-15313460D01*
X22504217Y-15313460D02*
X22523264Y-15322984D01*
X22523264Y-15322984D02*
X22561360Y-15322984D01*
X22561360Y-15322984D02*
X22580407Y-15313460D01*
X22580407Y-15313460D02*
X22589931Y-15303936D01*
X22589931Y-15303936D02*
X22599455Y-15284888D01*
X22599455Y-15284888D02*
X22599455Y-15237269D01*
X22599455Y-15237269D02*
X22589931Y-15218222D01*
X22589931Y-15218222D02*
X22580407Y-15208698D01*
X22580407Y-15208698D02*
X22561360Y-15199174D01*
X22561360Y-15199174D02*
X22523264Y-15199174D01*
X22523264Y-15199174D02*
X22504217Y-15208698D01*
X22504217Y-15208698D02*
X22494693Y-15218222D01*
X22494693Y-15218222D02*
X22485169Y-15237269D01*
X22666122Y-15122984D02*
X22789931Y-15122984D01*
X22789931Y-15122984D02*
X22723264Y-15199174D01*
X22723264Y-15199174D02*
X22751836Y-15199174D01*
X22751836Y-15199174D02*
X22770883Y-15208698D01*
X22770883Y-15208698D02*
X22780407Y-15218222D01*
X22780407Y-15218222D02*
X22789931Y-15237269D01*
X22789931Y-15237269D02*
X22789931Y-15284888D01*
X22789931Y-15284888D02*
X22780407Y-15303936D01*
X22780407Y-15303936D02*
X22770883Y-15313460D01*
X22770883Y-15313460D02*
X22751836Y-15322984D01*
X22751836Y-15322984D02*
X22694693Y-15322984D01*
X22694693Y-15322984D02*
X22675645Y-15313460D01*
X22675645Y-15313460D02*
X22666122Y-15303936D01*
X22866122Y-15122984D02*
X22866122Y-15161079D01*
X22942312Y-15122984D02*
X22942312Y-15161079D01*
X23237550Y-15399174D02*
X23228026Y-15389650D01*
X23228026Y-15389650D02*
X23208979Y-15361079D01*
X23208979Y-15361079D02*
X23199455Y-15342031D01*
X23199455Y-15342031D02*
X23189931Y-15313460D01*
X23189931Y-15313460D02*
X23180407Y-15265841D01*
X23180407Y-15265841D02*
X23180407Y-15227746D01*
X23180407Y-15227746D02*
X23189931Y-15180127D01*
X23189931Y-15180127D02*
X23199455Y-15151555D01*
X23199455Y-15151555D02*
X23208979Y-15132508D01*
X23208979Y-15132508D02*
X23228026Y-15103936D01*
X23228026Y-15103936D02*
X23237550Y-15094412D01*
X23294693Y-15122984D02*
X23418503Y-15122984D01*
X23418503Y-15122984D02*
X23351836Y-15199174D01*
X23351836Y-15199174D02*
X23380407Y-15199174D01*
X23380407Y-15199174D02*
X23399455Y-15208698D01*
X23399455Y-15208698D02*
X23408979Y-15218222D01*
X23408979Y-15218222D02*
X23418503Y-15237269D01*
X23418503Y-15237269D02*
X23418503Y-15284888D01*
X23418503Y-15284888D02*
X23408979Y-15303936D01*
X23408979Y-15303936D02*
X23399455Y-15313460D01*
X23399455Y-15313460D02*
X23380407Y-15322984D01*
X23380407Y-15322984D02*
X23323264Y-15322984D01*
X23323264Y-15322984D02*
X23304217Y-15313460D01*
X23304217Y-15313460D02*
X23294693Y-15303936D01*
X23656598Y-15322984D02*
X23656598Y-15122984D01*
X23742312Y-15322984D02*
X23742312Y-15218222D01*
X23742312Y-15218222D02*
X23732788Y-15199174D01*
X23732788Y-15199174D02*
X23713741Y-15189650D01*
X23713741Y-15189650D02*
X23685169Y-15189650D01*
X23685169Y-15189650D02*
X23666122Y-15199174D01*
X23666122Y-15199174D02*
X23656598Y-15208698D01*
X23866122Y-15322984D02*
X23847074Y-15313460D01*
X23847074Y-15313460D02*
X23837550Y-15303936D01*
X23837550Y-15303936D02*
X23828026Y-15284888D01*
X23828026Y-15284888D02*
X23828026Y-15227746D01*
X23828026Y-15227746D02*
X23837550Y-15208698D01*
X23837550Y-15208698D02*
X23847074Y-15199174D01*
X23847074Y-15199174D02*
X23866122Y-15189650D01*
X23866122Y-15189650D02*
X23894693Y-15189650D01*
X23894693Y-15189650D02*
X23913741Y-15199174D01*
X23913741Y-15199174D02*
X23923265Y-15208698D01*
X23923265Y-15208698D02*
X23932788Y-15227746D01*
X23932788Y-15227746D02*
X23932788Y-15284888D01*
X23932788Y-15284888D02*
X23923265Y-15303936D01*
X23923265Y-15303936D02*
X23913741Y-15313460D01*
X23913741Y-15313460D02*
X23894693Y-15322984D01*
X23894693Y-15322984D02*
X23866122Y-15322984D01*
X24047074Y-15322984D02*
X24028026Y-15313460D01*
X24028026Y-15313460D02*
X24018503Y-15294412D01*
X24018503Y-15294412D02*
X24018503Y-15122984D01*
X24199455Y-15313460D02*
X24180407Y-15322984D01*
X24180407Y-15322984D02*
X24142312Y-15322984D01*
X24142312Y-15322984D02*
X24123265Y-15313460D01*
X24123265Y-15313460D02*
X24113741Y-15294412D01*
X24113741Y-15294412D02*
X24113741Y-15218222D01*
X24113741Y-15218222D02*
X24123265Y-15199174D01*
X24123265Y-15199174D02*
X24142312Y-15189650D01*
X24142312Y-15189650D02*
X24180407Y-15189650D01*
X24180407Y-15189650D02*
X24199455Y-15199174D01*
X24199455Y-15199174D02*
X24208979Y-15218222D01*
X24208979Y-15218222D02*
X24208979Y-15237269D01*
X24208979Y-15237269D02*
X24113741Y-15256317D01*
X24285169Y-15313460D02*
X24304217Y-15322984D01*
X24304217Y-15322984D02*
X24342312Y-15322984D01*
X24342312Y-15322984D02*
X24361360Y-15313460D01*
X24361360Y-15313460D02*
X24370884Y-15294412D01*
X24370884Y-15294412D02*
X24370884Y-15284888D01*
X24370884Y-15284888D02*
X24361360Y-15265841D01*
X24361360Y-15265841D02*
X24342312Y-15256317D01*
X24342312Y-15256317D02*
X24313741Y-15256317D01*
X24313741Y-15256317D02*
X24294693Y-15246793D01*
X24294693Y-15246793D02*
X24285169Y-15227746D01*
X24285169Y-15227746D02*
X24285169Y-15218222D01*
X24285169Y-15218222D02*
X24294693Y-15199174D01*
X24294693Y-15199174D02*
X24313741Y-15189650D01*
X24313741Y-15189650D02*
X24342312Y-15189650D01*
X24342312Y-15189650D02*
X24361360Y-15199174D01*
X24437550Y-15399174D02*
X24447074Y-15389650D01*
X24447074Y-15389650D02*
X24466122Y-15361079D01*
X24466122Y-15361079D02*
X24475646Y-15342031D01*
X24475646Y-15342031D02*
X24485169Y-15313460D01*
X24485169Y-15313460D02*
X24494693Y-15265841D01*
X24494693Y-15265841D02*
X24494693Y-15227746D01*
X24494693Y-15227746D02*
X24485169Y-15180127D01*
X24485169Y-15180127D02*
X24475646Y-15151555D01*
X24475646Y-15151555D02*
X24466122Y-15132508D01*
X24466122Y-15132508D02*
X24447074Y-15103936D01*
X24447074Y-15103936D02*
X24437550Y-15094412D01*
M02*
