%TF.GenerationSoftware,KiCad,Pcbnew,8.0.8*%
%TF.CreationDate,2025-02-24T22:20:16-07:00*%
%TF.ProjectId,ECE Capstone PCB Design,45434520-4361-4707-9374-6f6e65205043,rev?*%
%TF.SameCoordinates,Original*%
%TF.FileFunction,Copper,L2,Bot*%
%TF.FilePolarity,Positive*%
%FSLAX46Y46*%
G04 Gerber Fmt 4.6, Leading zero omitted, Abs format (unit mm)*
G04 Created by KiCad (PCBNEW 8.0.8) date 2025-02-24 22:20:16*
%MOMM*%
%LPD*%
G01*
G04 APERTURE LIST*
%TA.AperFunction,ComponentPad*%
%ADD10R,0.850000X0.850000*%
%TD*%
%TA.AperFunction,ComponentPad*%
%ADD11O,0.850000X0.850000*%
%TD*%
%TA.AperFunction,ComponentPad*%
%ADD12C,5.400000*%
%TD*%
%TA.AperFunction,SMDPad,CuDef*%
%ADD13R,0.750000X2.500000*%
%TD*%
%TA.AperFunction,ViaPad*%
%ADD14C,0.600000*%
%TD*%
%TA.AperFunction,Conductor*%
%ADD15C,0.200000*%
%TD*%
G04 APERTURE END LIST*
D10*
%TO.P,REF\u002A\u002A,1*%
%TO.N,TDMS2+*%
X149550000Y-141990000D03*
D11*
%TO.P,REF\u002A\u002A,2*%
%TO.N,TDMS2-*%
X150550000Y-141990000D03*
%TO.P,REF\u002A\u002A,3*%
%TO.N,DGND*%
X151550000Y-141990000D03*
%TO.P,REF\u002A\u002A,4*%
%TO.N,TDMS1+*%
X152550000Y-141990000D03*
%TO.P,REF\u002A\u002A,5*%
%TO.N,TDMS1-*%
X153550000Y-141990000D03*
%TD*%
D12*
%TO.P,,1*%
%TO.N,DGND*%
X153150000Y-127090000D03*
%TD*%
D13*
%TO.P,REF\u002A\u002A,2*%
%TO.N,DGND*%
X148330000Y-147880000D03*
%TO.P,REF\u002A\u002A,4*%
%TO.N,TDMS1+*%
X149530000Y-147880000D03*
%TO.P,REF\u002A\u002A,6*%
%TO.N,TDMS1-*%
X150830000Y-147880000D03*
%TO.P,REF\u002A\u002A,8*%
%TO.N,DGND*%
X152030000Y-147880000D03*
%TO.P,REF\u002A\u002A,10*%
%TO.N,TDMSCLK+*%
X153330000Y-147880000D03*
%TO.P,REF\u002A\u002A,12*%
%TO.N,TDMSCLK-*%
X154530000Y-147880000D03*
%TO.P,REF\u002A\u002A,14*%
%TO.N,N/C*%
X155830000Y-147880000D03*
%TO.P,REF\u002A\u002A,16*%
X157030000Y-147880000D03*
%TO.P,REF\u002A\u002A,18*%
%TO.N,D+5V*%
X158230000Y-147880000D03*
%TD*%
D10*
%TO.P,REF\u002A\u002A,1*%
%TO.N,TDMSCLK-*%
X157550000Y-138990000D03*
D11*
%TO.P,REF\u002A\u002A,2*%
%TO.N,TDMSCLK+*%
X156550000Y-138990000D03*
%TO.P,REF\u002A\u002A,3*%
%TO.N,DGND*%
X155550000Y-138990000D03*
%TO.P,REF\u002A\u002A,4*%
%TO.N,TDMS0-*%
X154550000Y-138990000D03*
%TO.P,REF\u002A\u002A,5*%
%TO.N,TDMS0+*%
X153550000Y-138990000D03*
%TD*%
D14*
%TO.N,DGND*%
X149000000Y-140050000D03*
X158000000Y-141050000D03*
X151000000Y-140050000D03*
X153000000Y-136050000D03*
X155000000Y-136050000D03*
X157000000Y-136050000D03*
X148250000Y-142050000D03*
X151000000Y-136050000D03*
X158000000Y-145050000D03*
X149000000Y-144050000D03*
X157000000Y-137550000D03*
X153000000Y-137550000D03*
X152750000Y-140050000D03*
X155000000Y-137550000D03*
X158000000Y-143050000D03*
X151000000Y-138050000D03*
X156000000Y-145050000D03*
X149000000Y-136050000D03*
X148250000Y-145300000D03*
X149000000Y-138050000D03*
%TD*%
D15*
%TO.N,TDMSCLK-*%
X157550000Y-139300000D02*
X157550000Y-138990000D01*
%TO.N,TDMS1+*%
X152725000Y-142875000D02*
X152725000Y-142165000D01*
%TO.N,TDMSCLK+*%
X153550000Y-147660000D02*
X153550000Y-145200000D01*
%TO.N,TDMSCLK-*%
X156750000Y-142800000D02*
X156750000Y-140100000D01*
X156750000Y-140100000D02*
X157550000Y-139300000D01*
%TO.N,TDMS1-*%
X150830000Y-147880000D02*
X150550000Y-147600000D01*
%TO.N,TDMSCLK+*%
X156150000Y-139390000D02*
X156550000Y-138990000D01*
X153330000Y-147880000D02*
X153400000Y-147810000D01*
X156150000Y-142600000D02*
X156150000Y-139390000D01*
X153330000Y-147880000D02*
X153550000Y-147660000D01*
%TO.N,TDMSCLK-*%
X154350000Y-145200000D02*
X156750000Y-142800000D01*
X154350000Y-147700000D02*
X154350000Y-145200000D01*
X154530000Y-147880000D02*
X154350000Y-147700000D01*
%TO.N,TDMS1+*%
X149530000Y-147880000D02*
X149750000Y-147660000D01*
X149750000Y-145850000D02*
X152725000Y-142875000D01*
X149750000Y-147660000D02*
X149750000Y-145850000D01*
%TO.N,TDMSCLK+*%
X153550000Y-145200000D02*
X156150000Y-142600000D01*
%TO.N,TDMS1-*%
X153550000Y-142950000D02*
X153550000Y-141990000D01*
X150550000Y-145950000D02*
X153550000Y-142950000D01*
X150550000Y-147600000D02*
X150550000Y-145950000D01*
%TO.N,TDMS1+*%
X152725000Y-142165000D02*
X152550000Y-141990000D01*
%TD*%
%TA.AperFunction,Conductor*%
%TO.N,DGND*%
G36*
X150005703Y-127807459D02*
G01*
X150043477Y-127866237D01*
X150043654Y-127866845D01*
X150124812Y-128148552D01*
X150262353Y-128480609D01*
X150262355Y-128480613D01*
X150436215Y-128795189D01*
X150436218Y-128795194D01*
X150644193Y-129088306D01*
X150716843Y-129169601D01*
X152034727Y-127851716D01*
X152120278Y-127969466D01*
X152270534Y-128119722D01*
X152388281Y-128205270D01*
X151070397Y-129523155D01*
X151151693Y-129595806D01*
X151444805Y-129803781D01*
X151444810Y-129803784D01*
X151759386Y-129977644D01*
X151759390Y-129977646D01*
X152091447Y-130115187D01*
X152436805Y-130214683D01*
X152436814Y-130214685D01*
X152791141Y-130274887D01*
X152791153Y-130274889D01*
X153150000Y-130295041D01*
X153508846Y-130274889D01*
X153508858Y-130274887D01*
X153863185Y-130214685D01*
X153863194Y-130214683D01*
X154208552Y-130115187D01*
X154540609Y-129977646D01*
X154540613Y-129977644D01*
X154855189Y-129803784D01*
X154855194Y-129803781D01*
X155148306Y-129595806D01*
X155229601Y-129523155D01*
X153911717Y-128205270D01*
X154029466Y-128119722D01*
X154179722Y-127969466D01*
X154265271Y-127851717D01*
X155583155Y-129169601D01*
X155655806Y-129088306D01*
X155863781Y-128795194D01*
X155863784Y-128795189D01*
X156037644Y-128480613D01*
X156037646Y-128480609D01*
X156160939Y-128182952D01*
X156204780Y-128128548D01*
X156271074Y-128106483D01*
X156338773Y-128123762D01*
X156386384Y-128174899D01*
X156399500Y-128230404D01*
X156399500Y-130570118D01*
X156399500Y-130649882D01*
X156430024Y-130723574D01*
X156486426Y-130779976D01*
X156560118Y-130810500D01*
X158685327Y-130810500D01*
X158752366Y-130830185D01*
X158798121Y-130882989D01*
X158809327Y-130934566D01*
X158801137Y-146313557D01*
X158781417Y-146380586D01*
X158728588Y-146426313D01*
X158659425Y-146436219D01*
X158652947Y-146435109D01*
X158624748Y-146429500D01*
X157835252Y-146429500D01*
X157835247Y-146429500D01*
X157776770Y-146441131D01*
X157776769Y-146441132D01*
X157700293Y-146492233D01*
X157698078Y-146488918D01*
X157656358Y-146511699D01*
X157586666Y-146506715D01*
X157561036Y-146490243D01*
X157559707Y-146492233D01*
X157483230Y-146441132D01*
X157483229Y-146441131D01*
X157424752Y-146429500D01*
X157424748Y-146429500D01*
X156635252Y-146429500D01*
X156635247Y-146429500D01*
X156576770Y-146441131D01*
X156576769Y-146441132D01*
X156500293Y-146492233D01*
X156498078Y-146488918D01*
X156456358Y-146511699D01*
X156386666Y-146506715D01*
X156361036Y-146490243D01*
X156359707Y-146492233D01*
X156283230Y-146441132D01*
X156283229Y-146441131D01*
X156224752Y-146429500D01*
X156224748Y-146429500D01*
X155435252Y-146429500D01*
X155435247Y-146429500D01*
X155376770Y-146441131D01*
X155376769Y-146441132D01*
X155310447Y-146485447D01*
X155283102Y-146526373D01*
X155229489Y-146571178D01*
X155160164Y-146579885D01*
X155097137Y-146549730D01*
X155076898Y-146526373D01*
X155049552Y-146485447D01*
X154983230Y-146441132D01*
X154983229Y-146441131D01*
X154924752Y-146429500D01*
X154924748Y-146429500D01*
X154774500Y-146429500D01*
X154707461Y-146409815D01*
X154661706Y-146357011D01*
X154650500Y-146305500D01*
X154650500Y-145375833D01*
X154670185Y-145308794D01*
X154686819Y-145288152D01*
X155015431Y-144959540D01*
X156990460Y-142984511D01*
X157030022Y-142915988D01*
X157050500Y-142839562D01*
X157050500Y-142760438D01*
X157050500Y-140275833D01*
X157070185Y-140208794D01*
X157086819Y-140188152D01*
X157623152Y-139651819D01*
X157684475Y-139618334D01*
X157710833Y-139615500D01*
X157994750Y-139615500D01*
X157994751Y-139615499D01*
X158009568Y-139612552D01*
X158053229Y-139603868D01*
X158053229Y-139603867D01*
X158053231Y-139603867D01*
X158119552Y-139559552D01*
X158163867Y-139493231D01*
X158163867Y-139493229D01*
X158163868Y-139493229D01*
X158175499Y-139434752D01*
X158175500Y-139434750D01*
X158175500Y-138545249D01*
X158175499Y-138545247D01*
X158163868Y-138486770D01*
X158163867Y-138486769D01*
X158119552Y-138420447D01*
X158053230Y-138376132D01*
X158053229Y-138376131D01*
X157994752Y-138364500D01*
X157994748Y-138364500D01*
X157105252Y-138364500D01*
X157105247Y-138364500D01*
X157046770Y-138376131D01*
X157046769Y-138376132D01*
X156970293Y-138427233D01*
X156968328Y-138424292D01*
X156925215Y-138447822D01*
X156855524Y-138442824D01*
X156841259Y-138436449D01*
X156773434Y-138400852D01*
X156773431Y-138400851D01*
X156625950Y-138364500D01*
X156625949Y-138364500D01*
X156474051Y-138364500D01*
X156474050Y-138364500D01*
X156347679Y-138395647D01*
X156277876Y-138392578D01*
X156225854Y-138358222D01*
X156172356Y-138298806D01*
X156015051Y-138184516D01*
X155837412Y-138105426D01*
X155800000Y-138097473D01*
X155800000Y-138940272D01*
X155761940Y-138848386D01*
X155691614Y-138778060D01*
X155599728Y-138740000D01*
X155500272Y-138740000D01*
X155408386Y-138778060D01*
X155338060Y-138848386D01*
X155300000Y-138940272D01*
X155300000Y-138097473D01*
X155262585Y-138105426D01*
X155262580Y-138105428D01*
X155084953Y-138184513D01*
X154927645Y-138298805D01*
X154874143Y-138358224D01*
X154814656Y-138394871D01*
X154752319Y-138395647D01*
X154625950Y-138364500D01*
X154625949Y-138364500D01*
X154474051Y-138364500D01*
X154474050Y-138364500D01*
X154326567Y-138400851D01*
X154192064Y-138471443D01*
X154132226Y-138524455D01*
X154068993Y-138554176D01*
X153999729Y-138544992D01*
X153967774Y-138524455D01*
X153907935Y-138471443D01*
X153773432Y-138400851D01*
X153625950Y-138364500D01*
X153625949Y-138364500D01*
X153474051Y-138364500D01*
X153474050Y-138364500D01*
X153326567Y-138400851D01*
X153192067Y-138471442D01*
X153078367Y-138572171D01*
X152992080Y-138697179D01*
X152992079Y-138697180D01*
X152961406Y-138778060D01*
X152938215Y-138839209D01*
X152919906Y-138990000D01*
X152938215Y-139140791D01*
X152992079Y-139282819D01*
X153078368Y-139407830D01*
X153192066Y-139508557D01*
X153326566Y-139579148D01*
X153360131Y-139587421D01*
X153474050Y-139615500D01*
X153474051Y-139615500D01*
X153625950Y-139615500D01*
X153675110Y-139603382D01*
X153773434Y-139579148D01*
X153907934Y-139508557D01*
X153967774Y-139455543D01*
X154031006Y-139425823D01*
X154100270Y-139435007D01*
X154132224Y-139455542D01*
X154192066Y-139508557D01*
X154326566Y-139579148D01*
X154360131Y-139587421D01*
X154474050Y-139615500D01*
X154474051Y-139615500D01*
X154625948Y-139615500D01*
X154625949Y-139615500D01*
X154752320Y-139584352D01*
X154822122Y-139587421D01*
X154874145Y-139621777D01*
X154927643Y-139681193D01*
X155084950Y-139795484D01*
X155262587Y-139874573D01*
X155299999Y-139882524D01*
X155300000Y-139882524D01*
X155300000Y-139039728D01*
X155338060Y-139131614D01*
X155408386Y-139201940D01*
X155500272Y-139240000D01*
X155599728Y-139240000D01*
X155691614Y-139201940D01*
X155761940Y-139131614D01*
X155800000Y-139039728D01*
X155800000Y-139882524D01*
X155803535Y-139885387D01*
X155843247Y-139942874D01*
X155849500Y-139981753D01*
X155849500Y-142424167D01*
X155829815Y-142491206D01*
X155813181Y-142511848D01*
X153309541Y-145015487D01*
X153309535Y-145015495D01*
X153269982Y-145084004D01*
X153269979Y-145084009D01*
X153249500Y-145160439D01*
X153249500Y-146305500D01*
X153229815Y-146372539D01*
X153177011Y-146418294D01*
X153125500Y-146429500D01*
X152935247Y-146429500D01*
X152876770Y-146441131D01*
X152876769Y-146441132D01*
X152810447Y-146485447D01*
X152766132Y-146551769D01*
X152766131Y-146551770D01*
X152754500Y-146610247D01*
X152754500Y-149065500D01*
X152734815Y-149132539D01*
X152682011Y-149178294D01*
X152630500Y-149189500D01*
X151529500Y-149189500D01*
X151462461Y-149169815D01*
X151416706Y-149117011D01*
X151405500Y-149065500D01*
X151405500Y-146610249D01*
X151405499Y-146610247D01*
X151393868Y-146551770D01*
X151393867Y-146551769D01*
X151349552Y-146485447D01*
X151283230Y-146441132D01*
X151283229Y-146441131D01*
X151224752Y-146429500D01*
X151224748Y-146429500D01*
X150974500Y-146429500D01*
X150907461Y-146409815D01*
X150861706Y-146357011D01*
X150850500Y-146305500D01*
X150850500Y-146125833D01*
X150870185Y-146058794D01*
X150886819Y-146038152D01*
X151965431Y-144959540D01*
X153790460Y-143134511D01*
X153830022Y-143065988D01*
X153850500Y-142989562D01*
X153850500Y-142910438D01*
X153850500Y-142613280D01*
X153870185Y-142546241D01*
X153904069Y-142511224D01*
X153907923Y-142508562D01*
X153907934Y-142508557D01*
X154021632Y-142407830D01*
X154107921Y-142282819D01*
X154161785Y-142140791D01*
X154180094Y-141990000D01*
X154161785Y-141839209D01*
X154107921Y-141697181D01*
X154021632Y-141572170D01*
X153907934Y-141471443D01*
X153773434Y-141400852D01*
X153773433Y-141400851D01*
X153773432Y-141400851D01*
X153625950Y-141364500D01*
X153625949Y-141364500D01*
X153474051Y-141364500D01*
X153474050Y-141364500D01*
X153326567Y-141400851D01*
X153192064Y-141471443D01*
X153132226Y-141524455D01*
X153068993Y-141554176D01*
X152999729Y-141544992D01*
X152967774Y-141524455D01*
X152907935Y-141471443D01*
X152773432Y-141400851D01*
X152625950Y-141364500D01*
X152625949Y-141364500D01*
X152474051Y-141364500D01*
X152474050Y-141364500D01*
X152347679Y-141395647D01*
X152277876Y-141392578D01*
X152225854Y-141358222D01*
X152172356Y-141298806D01*
X152015051Y-141184516D01*
X151837412Y-141105426D01*
X151800000Y-141097473D01*
X151800000Y-141940272D01*
X151761940Y-141848386D01*
X151691614Y-141778060D01*
X151599728Y-141740000D01*
X151500272Y-141740000D01*
X151408386Y-141778060D01*
X151338060Y-141848386D01*
X151300000Y-141940272D01*
X151300000Y-141097473D01*
X151262585Y-141105426D01*
X151262580Y-141105428D01*
X151084953Y-141184513D01*
X150927645Y-141298805D01*
X150874143Y-141358224D01*
X150814656Y-141394871D01*
X150752319Y-141395647D01*
X150625950Y-141364500D01*
X150625949Y-141364500D01*
X150474051Y-141364500D01*
X150474050Y-141364500D01*
X150326567Y-141400851D01*
X150258743Y-141436448D01*
X150190234Y-141450172D01*
X150130119Y-141426615D01*
X150129707Y-141427233D01*
X150126886Y-141425348D01*
X150125181Y-141424680D01*
X150122968Y-141422730D01*
X150053230Y-141376132D01*
X150053229Y-141376131D01*
X149994752Y-141364500D01*
X149994748Y-141364500D01*
X149105252Y-141364500D01*
X149105247Y-141364500D01*
X149046770Y-141376131D01*
X149046769Y-141376132D01*
X148980447Y-141420447D01*
X148936132Y-141486769D01*
X148936131Y-141486770D01*
X148924500Y-141545247D01*
X148924500Y-142434752D01*
X148936131Y-142493229D01*
X148936132Y-142493230D01*
X148980447Y-142559552D01*
X149046769Y-142603867D01*
X149046770Y-142603868D01*
X149105247Y-142615499D01*
X149105250Y-142615500D01*
X149105252Y-142615500D01*
X149994750Y-142615500D01*
X149994751Y-142615499D01*
X150009568Y-142612552D01*
X150053229Y-142603868D01*
X150053229Y-142603867D01*
X150053231Y-142603867D01*
X150119552Y-142559552D01*
X150119551Y-142559552D01*
X150129707Y-142552767D01*
X150131674Y-142555711D01*
X150174736Y-142532187D01*
X150244429Y-142537158D01*
X150258740Y-142543550D01*
X150289229Y-142559552D01*
X150326566Y-142579148D01*
X150474050Y-142615500D01*
X150474051Y-142615500D01*
X150625948Y-142615500D01*
X150625949Y-142615500D01*
X150752320Y-142584352D01*
X150822122Y-142587421D01*
X150874145Y-142621777D01*
X150927643Y-142681193D01*
X151084950Y-142795484D01*
X151262587Y-142874573D01*
X151299999Y-142882524D01*
X151300000Y-142882524D01*
X151300000Y-142039728D01*
X151338060Y-142131614D01*
X151408386Y-142201940D01*
X151500272Y-142240000D01*
X151599728Y-142240000D01*
X151691614Y-142201940D01*
X151761940Y-142131614D01*
X151800000Y-142039728D01*
X151800000Y-142882524D01*
X151837412Y-142874573D01*
X152015050Y-142795484D01*
X152073299Y-142753163D01*
X152139105Y-142729682D01*
X152207159Y-142745507D01*
X152255855Y-142795612D01*
X152269731Y-142864090D01*
X152244383Y-142929199D01*
X152233867Y-142941161D01*
X149565489Y-145609540D01*
X149509541Y-145665487D01*
X149509535Y-145665495D01*
X149469982Y-145734004D01*
X149469979Y-145734009D01*
X149449500Y-145810439D01*
X149449500Y-146305500D01*
X149429815Y-146372539D01*
X149377011Y-146418294D01*
X149325500Y-146429500D01*
X149135247Y-146429500D01*
X149076770Y-146441131D01*
X149076769Y-146441132D01*
X149010447Y-146485447D01*
X148966132Y-146551769D01*
X148966131Y-146551770D01*
X148954500Y-146610247D01*
X148954500Y-149065500D01*
X148934815Y-149132539D01*
X148882011Y-149178294D01*
X148830500Y-149189500D01*
X147824673Y-149189500D01*
X147757634Y-149169815D01*
X147711879Y-149117011D01*
X147700673Y-149065434D01*
X147701997Y-146579885D01*
X147710327Y-130934433D01*
X147730047Y-130867405D01*
X147782876Y-130821678D01*
X147834327Y-130810500D01*
X149639880Y-130810500D01*
X149639882Y-130810500D01*
X149713574Y-130779976D01*
X149769976Y-130723574D01*
X149800500Y-130649882D01*
X149800500Y-127901172D01*
X149820185Y-127834133D01*
X149872989Y-127788378D01*
X149942147Y-127778434D01*
X150005703Y-127807459D01*
G37*
%TD.AperFunction*%
%TD*%
M02*
