%TF.GenerationSoftware,KiCad,Pcbnew,8.0.8*%
%TF.CreationDate,2025-02-15T01:37:23-07:00*%
%TF.ProjectId,ECE Capstone PCB Design,45434520-4361-4707-9374-6f6e65205043,rev?*%
%TF.SameCoordinates,Original*%
%TF.FileFunction,Copper,L2,Bot*%
%TF.FilePolarity,Positive*%
%FSLAX46Y46*%
G04 Gerber Fmt 4.6, Leading zero omitted, Abs format (unit mm)*
G04 Created by KiCad (PCBNEW 8.0.8) date 2025-02-15 01:37:23*
%MOMM*%
%LPD*%
G01*
G04 APERTURE LIST*
%TA.AperFunction,SMDPad,CuDef*%
%ADD10R,0.750000X2.500000*%
%TD*%
%TA.AperFunction,ComponentPad*%
%ADD11R,0.850000X0.850000*%
%TD*%
%TA.AperFunction,ComponentPad*%
%ADD12O,0.850000X0.850000*%
%TD*%
%TA.AperFunction,ComponentPad*%
%ADD13C,5.400000*%
%TD*%
%TA.AperFunction,ViaPad*%
%ADD14C,0.600000*%
%TD*%
%TA.AperFunction,Conductor*%
%ADD15C,0.200000*%
%TD*%
G04 APERTURE END LIST*
D10*
%TO.P,REF\u002A\u002A,2*%
%TO.N,DGND*%
X148330000Y-147880000D03*
%TO.P,REF\u002A\u002A,4*%
%TO.N,TDMS1+*%
X149530000Y-147880000D03*
%TO.P,REF\u002A\u002A,6*%
%TO.N,TDMS1-*%
X150830000Y-147880000D03*
%TO.P,REF\u002A\u002A,8*%
%TO.N,DGND*%
X152030000Y-147880000D03*
%TO.P,REF\u002A\u002A,10*%
%TO.N,TDMSCLK+*%
X153330000Y-147880000D03*
%TO.P,REF\u002A\u002A,12*%
%TO.N,TDMSCLK-*%
X154530000Y-147880000D03*
%TO.P,REF\u002A\u002A,14*%
%TO.N,N/C*%
X155830000Y-147880000D03*
%TO.P,REF\u002A\u002A,16*%
X157030000Y-147880000D03*
%TO.P,REF\u002A\u002A,18*%
%TO.N,D+5V*%
X158230000Y-147880000D03*
%TD*%
D11*
%TO.P,REF\u002A\u002A,1*%
%TO.N,TDMS2+*%
X149550000Y-141990000D03*
D12*
%TO.P,REF\u002A\u002A,2*%
%TO.N,TDMS2-*%
X150550000Y-141990000D03*
%TO.P,REF\u002A\u002A,3*%
%TO.N,DGND*%
X151550000Y-141990000D03*
%TO.P,REF\u002A\u002A,4*%
%TO.N,TDMS1+*%
X152550000Y-141990000D03*
%TO.P,REF\u002A\u002A,5*%
%TO.N,TDMS1-*%
X153550000Y-141990000D03*
%TD*%
D13*
%TO.P,,1*%
%TO.N,DGND*%
X153150000Y-127090000D03*
%TD*%
D11*
%TO.P,REF\u002A\u002A,1*%
%TO.N,TDMSCLK-*%
X157550000Y-138990000D03*
D12*
%TO.P,REF\u002A\u002A,2*%
%TO.N,TDMSCLK+*%
X156550000Y-138990000D03*
%TO.P,REF\u002A\u002A,3*%
%TO.N,DGND*%
X155550000Y-138990000D03*
%TO.P,REF\u002A\u002A,4*%
%TO.N,TDMS0-*%
X154550000Y-138990000D03*
%TO.P,REF\u002A\u002A,5*%
%TO.N,TDMS0+*%
X153550000Y-138990000D03*
%TD*%
D14*
%TO.N,DGND*%
X158000000Y-145050000D03*
X153000000Y-136050000D03*
X149000000Y-140050000D03*
X148250000Y-145300000D03*
X151200000Y-145850000D03*
X155000000Y-136050000D03*
X149000000Y-138050000D03*
X149000000Y-144050000D03*
X157000000Y-137550000D03*
X151000000Y-140050000D03*
X151000000Y-138050000D03*
X148250000Y-142050000D03*
X158000000Y-141050000D03*
X151000000Y-136050000D03*
X157000000Y-136050000D03*
X156000000Y-145050000D03*
X153000000Y-137550000D03*
X152750000Y-140050000D03*
X155000000Y-137550000D03*
X158000000Y-143050000D03*
X149000000Y-136050000D03*
%TD*%
D15*
%TO.N,TDMSCLK-*%
X157550000Y-139300000D02*
X157550000Y-138990000D01*
%TO.N,TDMSCLK+*%
X153330000Y-147880000D02*
X153400000Y-147810000D01*
%TO.N,TDMS1-*%
X150550000Y-145400000D02*
X153550000Y-142400000D01*
%TO.N,TDMSCLK-*%
X154350000Y-145200000D02*
X156750000Y-142800000D01*
X154350000Y-147700000D02*
X154350000Y-145200000D01*
%TO.N,TDMS1-*%
X153550000Y-142400000D02*
X153550000Y-141990000D01*
%TO.N,TDMSCLK+*%
X153330000Y-147880000D02*
X153550000Y-147660000D01*
%TO.N,TDMS1+*%
X149530000Y-147880000D02*
X149750000Y-147660000D01*
%TO.N,TDMSCLK+*%
X156150000Y-142600000D02*
X156150000Y-139390000D01*
%TO.N,TDMSCLK-*%
X156750000Y-142800000D02*
X156750000Y-140100000D01*
%TO.N,TDMS1+*%
X152550000Y-142500000D02*
X152550000Y-141990000D01*
%TO.N,TDMS1-*%
X150830000Y-147880000D02*
X150550000Y-147600000D01*
%TO.N,TDMS1+*%
X149750000Y-147660000D02*
X149750000Y-145300000D01*
%TO.N,TDMS1-*%
X150550000Y-147600000D02*
X150550000Y-145400000D01*
%TO.N,TDMS1+*%
X149750000Y-145300000D02*
X152550000Y-142500000D01*
%TO.N,TDMSCLK+*%
X156150000Y-139390000D02*
X156550000Y-138990000D01*
%TO.N,TDMSCLK-*%
X156750000Y-140100000D02*
X157550000Y-139300000D01*
X154530000Y-147880000D02*
X154350000Y-147700000D01*
%TO.N,TDMSCLK+*%
X153550000Y-147660000D02*
X153550000Y-145200000D01*
X153550000Y-145200000D02*
X156150000Y-142600000D01*
%TD*%
%TA.AperFunction,Conductor*%
%TO.N,DGND*%
G36*
X153438405Y-123818235D02*
G01*
X153451313Y-123819592D01*
X153779587Y-123871585D01*
X153792270Y-123874280D01*
X154113332Y-123960309D01*
X154125665Y-123964316D01*
X154435971Y-124083432D01*
X154447807Y-124088701D01*
X154743977Y-124239607D01*
X154755191Y-124246083D01*
X155033943Y-124427106D01*
X155044444Y-124434735D01*
X155302749Y-124643907D01*
X155312394Y-124652592D01*
X155547407Y-124887605D01*
X155556092Y-124897250D01*
X155765264Y-125155555D01*
X155772893Y-125166056D01*
X155953913Y-125444802D01*
X155960399Y-125456035D01*
X156111293Y-125752182D01*
X156116572Y-125764039D01*
X156235681Y-126074329D01*
X156239692Y-126086673D01*
X156325717Y-126407723D01*
X156328415Y-126420419D01*
X156380407Y-126748686D01*
X156381764Y-126761594D01*
X156399330Y-127096756D01*
X156399500Y-127103246D01*
X156399500Y-130570118D01*
X156399500Y-130649882D01*
X156430024Y-130723574D01*
X156486426Y-130779976D01*
X156560118Y-130810500D01*
X158685327Y-130810500D01*
X158752366Y-130830185D01*
X158798121Y-130882989D01*
X158809327Y-130934566D01*
X158801137Y-146313557D01*
X158781417Y-146380586D01*
X158728588Y-146426313D01*
X158659425Y-146436219D01*
X158652947Y-146435109D01*
X158624748Y-146429500D01*
X157835252Y-146429500D01*
X157835247Y-146429500D01*
X157776770Y-146441131D01*
X157776769Y-146441132D01*
X157700293Y-146492233D01*
X157698078Y-146488918D01*
X157656358Y-146511699D01*
X157586666Y-146506715D01*
X157561036Y-146490243D01*
X157559707Y-146492233D01*
X157483230Y-146441132D01*
X157483229Y-146441131D01*
X157424752Y-146429500D01*
X157424748Y-146429500D01*
X156635252Y-146429500D01*
X156635247Y-146429500D01*
X156576770Y-146441131D01*
X156576769Y-146441132D01*
X156500293Y-146492233D01*
X156498078Y-146488918D01*
X156456358Y-146511699D01*
X156386666Y-146506715D01*
X156361036Y-146490243D01*
X156359707Y-146492233D01*
X156283230Y-146441132D01*
X156283229Y-146441131D01*
X156224752Y-146429500D01*
X156224748Y-146429500D01*
X155435252Y-146429500D01*
X155435247Y-146429500D01*
X155376770Y-146441131D01*
X155376769Y-146441132D01*
X155310447Y-146485447D01*
X155283102Y-146526373D01*
X155229489Y-146571178D01*
X155160164Y-146579885D01*
X155097137Y-146549730D01*
X155076898Y-146526373D01*
X155049552Y-146485447D01*
X154983230Y-146441132D01*
X154983229Y-146441131D01*
X154924752Y-146429500D01*
X154924748Y-146429500D01*
X154774500Y-146429500D01*
X154707461Y-146409815D01*
X154661706Y-146357011D01*
X154650500Y-146305500D01*
X154650500Y-145375833D01*
X154670185Y-145308794D01*
X154686819Y-145288152D01*
X155015431Y-144959540D01*
X156990460Y-142984511D01*
X157030022Y-142915988D01*
X157050500Y-142839562D01*
X157050500Y-142760438D01*
X157050500Y-140275833D01*
X157070185Y-140208794D01*
X157086819Y-140188152D01*
X157623152Y-139651819D01*
X157684475Y-139618334D01*
X157710833Y-139615500D01*
X157994750Y-139615500D01*
X157994751Y-139615499D01*
X158009568Y-139612552D01*
X158053229Y-139603868D01*
X158053229Y-139603867D01*
X158053231Y-139603867D01*
X158119552Y-139559552D01*
X158163867Y-139493231D01*
X158163867Y-139493229D01*
X158163868Y-139493229D01*
X158175499Y-139434752D01*
X158175500Y-139434750D01*
X158175500Y-138545249D01*
X158175499Y-138545247D01*
X158163868Y-138486770D01*
X158163867Y-138486769D01*
X158119552Y-138420447D01*
X158053230Y-138376132D01*
X158053229Y-138376131D01*
X157994752Y-138364500D01*
X157994748Y-138364500D01*
X157105252Y-138364500D01*
X157105247Y-138364500D01*
X157046770Y-138376131D01*
X157046769Y-138376132D01*
X156970293Y-138427233D01*
X156968328Y-138424292D01*
X156925215Y-138447822D01*
X156855524Y-138442824D01*
X156841259Y-138436449D01*
X156773434Y-138400852D01*
X156773431Y-138400851D01*
X156625950Y-138364500D01*
X156625949Y-138364500D01*
X156474051Y-138364500D01*
X156474050Y-138364500D01*
X156326567Y-138400851D01*
X156192067Y-138471442D01*
X156078367Y-138572171D01*
X155992080Y-138697179D01*
X155992079Y-138697180D01*
X155938215Y-138839208D01*
X155919906Y-138990000D01*
X155934976Y-139114123D01*
X155923515Y-139183046D01*
X155910263Y-139204545D01*
X155909539Y-139205487D01*
X155869982Y-139274004D01*
X155869979Y-139274009D01*
X155849500Y-139350439D01*
X155849500Y-142424167D01*
X155829815Y-142491206D01*
X155813181Y-142511848D01*
X153309541Y-145015487D01*
X153309535Y-145015495D01*
X153269982Y-145084004D01*
X153269979Y-145084009D01*
X153249500Y-145160439D01*
X153249500Y-146305500D01*
X153229815Y-146372539D01*
X153177011Y-146418294D01*
X153125500Y-146429500D01*
X152935247Y-146429500D01*
X152876770Y-146441131D01*
X152876769Y-146441132D01*
X152810447Y-146485447D01*
X152766132Y-146551769D01*
X152766131Y-146551770D01*
X152754500Y-146610247D01*
X152754500Y-149065500D01*
X152734815Y-149132539D01*
X152682011Y-149178294D01*
X152630500Y-149189500D01*
X151529500Y-149189500D01*
X151462461Y-149169815D01*
X151416706Y-149117011D01*
X151405500Y-149065500D01*
X151405500Y-146610249D01*
X151405499Y-146610247D01*
X151393868Y-146551770D01*
X151393867Y-146551769D01*
X151349552Y-146485447D01*
X151283230Y-146441132D01*
X151283229Y-146441131D01*
X151224752Y-146429500D01*
X151224748Y-146429500D01*
X150974500Y-146429500D01*
X150907461Y-146409815D01*
X150861706Y-146357011D01*
X150850500Y-146305500D01*
X150850500Y-145575833D01*
X150870185Y-145508794D01*
X150886819Y-145488152D01*
X153790458Y-142584513D01*
X153792221Y-142582216D01*
X153795608Y-142579363D01*
X153796208Y-142578764D01*
X153796259Y-142578815D01*
X153832980Y-142547895D01*
X153907934Y-142508557D01*
X154021632Y-142407830D01*
X154107921Y-142282819D01*
X154161785Y-142140791D01*
X154180094Y-141990000D01*
X154161785Y-141839209D01*
X154107921Y-141697181D01*
X154021632Y-141572170D01*
X153907934Y-141471443D01*
X153773434Y-141400852D01*
X153773433Y-141400851D01*
X153773432Y-141400851D01*
X153625950Y-141364500D01*
X153625949Y-141364500D01*
X153474051Y-141364500D01*
X153474050Y-141364500D01*
X153326567Y-141400851D01*
X153192064Y-141471443D01*
X153132226Y-141524455D01*
X153068993Y-141554176D01*
X152999729Y-141544992D01*
X152967774Y-141524455D01*
X152907935Y-141471443D01*
X152773432Y-141400851D01*
X152625950Y-141364500D01*
X152625949Y-141364500D01*
X152474051Y-141364500D01*
X152474050Y-141364500D01*
X152326567Y-141400851D01*
X152192067Y-141471442D01*
X152078367Y-141572171D01*
X151992080Y-141697179D01*
X151992079Y-141697180D01*
X151992079Y-141697181D01*
X151938215Y-141839209D01*
X151919906Y-141990000D01*
X151938215Y-142140791D01*
X151992079Y-142282819D01*
X152076359Y-142404919D01*
X152098241Y-142471271D01*
X152080776Y-142538923D01*
X152061989Y-142563038D01*
X149565489Y-145059540D01*
X149509541Y-145115487D01*
X149509535Y-145115495D01*
X149469982Y-145184004D01*
X149469979Y-145184009D01*
X149449500Y-145260439D01*
X149449500Y-146305500D01*
X149429815Y-146372539D01*
X149377011Y-146418294D01*
X149325500Y-146429500D01*
X149135247Y-146429500D01*
X149076770Y-146441131D01*
X149076769Y-146441132D01*
X149010447Y-146485447D01*
X148966132Y-146551769D01*
X148966131Y-146551770D01*
X148954500Y-146610247D01*
X148954500Y-149065500D01*
X148934815Y-149132539D01*
X148882011Y-149178294D01*
X148830500Y-149189500D01*
X147824673Y-149189500D01*
X147757634Y-149169815D01*
X147711879Y-149117011D01*
X147700673Y-149065434D01*
X147701997Y-146579885D01*
X147704678Y-141545247D01*
X148924500Y-141545247D01*
X148924500Y-142434752D01*
X148936131Y-142493229D01*
X148936132Y-142493230D01*
X148980447Y-142559552D01*
X149046769Y-142603867D01*
X149046770Y-142603868D01*
X149105247Y-142615499D01*
X149105250Y-142615500D01*
X149105252Y-142615500D01*
X149994750Y-142615500D01*
X149994751Y-142615499D01*
X150009568Y-142612552D01*
X150053229Y-142603868D01*
X150053229Y-142603867D01*
X150053231Y-142603867D01*
X150119552Y-142559552D01*
X150119551Y-142559552D01*
X150129707Y-142552767D01*
X150131674Y-142555711D01*
X150174736Y-142532187D01*
X150244429Y-142537158D01*
X150258740Y-142543550D01*
X150325834Y-142578764D01*
X150326566Y-142579148D01*
X150474050Y-142615500D01*
X150474051Y-142615500D01*
X150625950Y-142615500D01*
X150675110Y-142603382D01*
X150773434Y-142579148D01*
X150907934Y-142508557D01*
X151021632Y-142407830D01*
X151107921Y-142282819D01*
X151161785Y-142140791D01*
X151180094Y-141990000D01*
X151161785Y-141839209D01*
X151107921Y-141697181D01*
X151021632Y-141572170D01*
X150907934Y-141471443D01*
X150773434Y-141400852D01*
X150773433Y-141400851D01*
X150773432Y-141400851D01*
X150625950Y-141364500D01*
X150625949Y-141364500D01*
X150474051Y-141364500D01*
X150474050Y-141364500D01*
X150326567Y-141400851D01*
X150258743Y-141436448D01*
X150190234Y-141450172D01*
X150130119Y-141426615D01*
X150129707Y-141427233D01*
X150126886Y-141425348D01*
X150125181Y-141424680D01*
X150122968Y-141422730D01*
X150053230Y-141376132D01*
X150053229Y-141376131D01*
X149994752Y-141364500D01*
X149994748Y-141364500D01*
X149105252Y-141364500D01*
X149105247Y-141364500D01*
X149046770Y-141376131D01*
X149046769Y-141376132D01*
X148980447Y-141420447D01*
X148936132Y-141486769D01*
X148936131Y-141486770D01*
X148924500Y-141545247D01*
X147704678Y-141545247D01*
X147706038Y-138990000D01*
X152919906Y-138990000D01*
X152938215Y-139140791D01*
X152992079Y-139282819D01*
X153078368Y-139407830D01*
X153192066Y-139508557D01*
X153326566Y-139579148D01*
X153400308Y-139597324D01*
X153474050Y-139615500D01*
X153474051Y-139615500D01*
X153625950Y-139615500D01*
X153675110Y-139603382D01*
X153773434Y-139579148D01*
X153907934Y-139508557D01*
X153967774Y-139455543D01*
X154031006Y-139425823D01*
X154100270Y-139435007D01*
X154132224Y-139455542D01*
X154192066Y-139508557D01*
X154326566Y-139579148D01*
X154400308Y-139597324D01*
X154474050Y-139615500D01*
X154474051Y-139615500D01*
X154625950Y-139615500D01*
X154675110Y-139603382D01*
X154773434Y-139579148D01*
X154907934Y-139508557D01*
X155021632Y-139407830D01*
X155107921Y-139282819D01*
X155161785Y-139140791D01*
X155180094Y-138990000D01*
X155161785Y-138839209D01*
X155107921Y-138697181D01*
X155021632Y-138572170D01*
X154907934Y-138471443D01*
X154773434Y-138400852D01*
X154773433Y-138400851D01*
X154773432Y-138400851D01*
X154625950Y-138364500D01*
X154625949Y-138364500D01*
X154474051Y-138364500D01*
X154474050Y-138364500D01*
X154326567Y-138400851D01*
X154192064Y-138471443D01*
X154132226Y-138524455D01*
X154068993Y-138554176D01*
X153999729Y-138544992D01*
X153967774Y-138524455D01*
X153907935Y-138471443D01*
X153773432Y-138400851D01*
X153625950Y-138364500D01*
X153625949Y-138364500D01*
X153474051Y-138364500D01*
X153474050Y-138364500D01*
X153326567Y-138400851D01*
X153192067Y-138471442D01*
X153078367Y-138572171D01*
X152992080Y-138697179D01*
X152992079Y-138697180D01*
X152992079Y-138697181D01*
X152938215Y-138839209D01*
X152919906Y-138990000D01*
X147706038Y-138990000D01*
X147710327Y-130934433D01*
X147730047Y-130867405D01*
X147782876Y-130821678D01*
X147834327Y-130810500D01*
X149639880Y-130810500D01*
X149639882Y-130810500D01*
X149713574Y-130779976D01*
X149769976Y-130723574D01*
X149800500Y-130649882D01*
X149800500Y-127103246D01*
X149800670Y-127096756D01*
X149818235Y-126761594D01*
X149819592Y-126748686D01*
X149871586Y-126420409D01*
X149874279Y-126407733D01*
X149960310Y-126086662D01*
X149964314Y-126074340D01*
X150083434Y-125764021D01*
X150088698Y-125752199D01*
X150239611Y-125456014D01*
X150246077Y-125444816D01*
X150427113Y-125166045D01*
X150434727Y-125155564D01*
X150643915Y-124897241D01*
X150652582Y-124887615D01*
X150887615Y-124652582D01*
X150897241Y-124643915D01*
X151155564Y-124434727D01*
X151166045Y-124427113D01*
X151444816Y-124246077D01*
X151456014Y-124239611D01*
X151752199Y-124088698D01*
X151764021Y-124083434D01*
X152074340Y-123964314D01*
X152086662Y-123960310D01*
X152407733Y-123874279D01*
X152420409Y-123871586D01*
X152748688Y-123819591D01*
X152761592Y-123818235D01*
X153093512Y-123800840D01*
X153106488Y-123800840D01*
X153438405Y-123818235D01*
G37*
%TD.AperFunction*%
%TD*%
M02*
