M48
; DRILL file {KiCad 8.0.8} date 2025-02-15T01:31:12-0700
; FORMAT={-:-/ absolute / metric / decimal}
; #@! TF.CreationDate,2025-02-15T01:31:12-07:00
; #@! TF.GenerationSoftware,Kicad,Pcbnew,8.0.8
; #@! TF.FileFunction,Plated,1,2,PTH
FMAT,2
METRIC
; #@! TA.AperFunction,Plated,PTH,ViaDrill
T1C0.300
; #@! TA.AperFunction,Plated,PTH,ViaDrill
T2C0.500
; #@! TA.AperFunction,Plated,PTH,ComponentDrill
T3C0.500
; #@! TA.AperFunction,Plated,PTH,ViaDrill
T4C0.700
; #@! TA.AperFunction,Plated,PTH,ComponentDrill
T5C1.000
; #@! TA.AperFunction,Plated,PTH,ComponentDrill
T6C1.245
; #@! TA.AperFunction,Plated,PTH,ComponentDrill
T7C2.700
%
G90
G05
T1
X124.0Y-86.0
X124.0Y-88.0
X124.0Y-90.0
X124.2Y-72.5
X125.0Y-55.0
X125.0Y-63.5
X125.0Y-100.0
X126.0Y-74.0
X126.0Y-76.0
X126.0Y-78.0
X126.0Y-80.0
X126.0Y-86.0
X126.0Y-88.0
X126.0Y-90.0
X127.0Y-77.0
X127.5Y-55.0
X127.5Y-75.0
X127.8Y-72.7
X128.0Y-78.0
X128.0Y-80.0
X128.0Y-82.0
X128.0Y-86.0
X128.0Y-88.0
X128.0Y-90.0
X128.7Y-71.7
X128.9Y-67.3
X129.0Y-58.8
X129.0Y-77.0
X129.6Y-71.7
X129.9Y-82.2
X130.0Y-50.0
X130.0Y-52.5
X130.0Y-55.0
X130.0Y-78.0
X130.0Y-84.0
X130.0Y-86.0
X130.0Y-88.0
X130.0Y-90.0
X130.0Y-92.0
X130.0Y-94.0
X130.0Y-98.0
X130.0Y-100.0
X130.0Y-102.0
X130.0Y-104.0
X131.7Y-71.7
X131.75Y-59.75
X131.75Y-62.25
X131.75Y-64.75
X132.0Y-88.0
X132.0Y-90.0
X132.0Y-104.0
X132.5Y-50.0
X132.5Y-52.5
X132.5Y-78.0
X132.5Y-82.2
X133.0Y-84.0
X133.0Y-86.0
X133.3Y-71.6
X133.5Y-77.0
X134.0Y-56.5
X134.0Y-90.0
X134.0Y-104.0
X134.1Y-71.6
X135.0Y-50.0
X135.0Y-52.5
X135.0Y-71.6
X135.0Y-72.6
X135.0Y-78.0
X135.0Y-82.2
X135.0Y-84.0
X135.0Y-86.0
X135.0Y-88.0
X135.0Y-110.0
X136.0Y-64.5
X136.0Y-66.0
X136.0Y-92.0
X136.0Y-94.0
X136.0Y-104.0
X136.1Y-62.6
X136.5Y-56.6
X136.8Y-72.4
X137.0Y-73.5
X137.5Y-50.0
X137.5Y-52.5
X137.8Y-71.7
X137.8Y-82.2
X138.0Y-64.5
X138.0Y-66.0
X138.0Y-94.0
X138.0Y-104.0
X140.0Y-50.0
X140.0Y-64.5
X140.0Y-66.0
X140.0Y-82.5
X140.0Y-104.0
X140.3Y-75.7
X140.5Y-87.0
X140.8Y-71.6
X140.8Y-73.5
X140.9Y-79.2
X140.9Y-95.0
X141.5Y-62.5
X141.9Y-64.5
X142.0Y-66.0
X142.0Y-104.0
X142.5Y-50.0
X142.5Y-87.0
X143.4Y-90.7
X143.4Y-92.5
X143.5Y-80.0
X143.5Y-85.5
X143.7Y-66.0
X144.0Y-95.0
X144.0Y-104.0
X144.5Y-71.5
X144.7Y-63.4
X145.0Y-50.0
X145.0Y-76.0
X145.0Y-78.0
X145.0Y-87.0
X145.0Y-110.0
X145.5Y-85.5
X145.5Y-90.5
X146.0Y-60.25
X146.0Y-75.0
X146.0Y-77.0
X146.0Y-79.0
X146.0Y-93.0
X146.0Y-95.0
X146.0Y-104.0
X146.2Y-66.0
X146.26Y-96.26
X146.4Y-56.0
X146.5Y-71.5
X146.5Y-88.5
X147.5Y-50.0
X147.75Y-62.0
X148.2Y-64.7
X149.25Y-65.3
X150.0Y-50.0
X150.0Y-52.5
X150.0Y-54.5
X150.0Y-91.0
X150.0Y-93.0
X150.0Y-95.0
X150.0Y-108.2
X150.1Y-66.1
X150.5Y-84.0
X150.5Y-86.0
X150.6Y-64.4
X150.75Y-67.15
X151.0Y-71.0
X151.0Y-78.0
X151.0Y-81.0
X151.0Y-105.0
X151.5Y-54.5
X151.8Y-90.3
X152.0Y-85.0
X152.0Y-87.0
X152.0Y-93.0
X152.0Y-95.0
X152.0Y-103.5
X152.0Y-113.0
X152.5Y-50.0
X152.5Y-52.5
X152.6Y-108.5
X152.75Y-54.5
X152.9Y-75.628
X153.5Y-68.5
X154.0Y-66.5
X154.0Y-81.0
X154.0Y-84.0
X154.2Y-64.3
X154.25Y-54.5
X154.5Y-68.5
X155.0Y-50.0
X155.0Y-52.5
X155.0Y-78.0
X155.5Y-55.0
X156.0Y-66.5
X156.0Y-68.5
X156.8Y-85.1
X157.0Y-78.0
X157.0Y-80.0
X157.0Y-113.0
X157.5Y-50.0
X157.5Y-52.5
X157.5Y-55.0
X157.5Y-68.5
X157.5Y-70.0
X158.5Y-56.0
X158.5Y-73.5
X158.7Y-65.8
X158.75Y-60.0
X158.75Y-62.75
X159.0Y-54.0
X159.0Y-68.5
X159.0Y-70.0
X159.0Y-84.6
X159.0Y-88.0
X159.0Y-90.0
X159.0Y-92.0
X159.0Y-94.0
X159.0Y-96.0
X159.0Y-98.0
X159.0Y-100.0
X159.0Y-102.0
X159.0Y-104.0
X159.0Y-106.0
X159.0Y-109.0
X159.0Y-111.0
X159.4Y-109.9
X160.0Y-50.0
X160.0Y-52.0
X160.5Y-68.5
X160.5Y-70.0
X161.4Y-63.4
X161.5Y-56.0
X162.5Y-50.0
X162.5Y-52.0
X164.0Y-55.0
X164.0Y-68.0
X164.5Y-64.5
X165.0Y-50.0
X165.0Y-52.0
X165.5Y-70.5
X166.6Y-66.7
X167.054Y-69.7
X167.5Y-50.0
X167.5Y-52.5
X167.8Y-72.7
X168.0Y-58.0
X168.0Y-60.0
X168.75Y-54.25
X169.0Y-70.0
X170.0Y-50.0
X170.0Y-52.5
X170.0Y-58.0
X170.0Y-60.0
X171.0Y-70.0
X171.555Y-56.5
X171.555Y-67.055
X172.055Y-57.25
X172.055Y-66.055
X172.5Y-50.0
X172.555Y-56.5
X172.555Y-67.055
X173.0Y-70.0
X173.055Y-57.25
X173.055Y-66.055
X173.555Y-56.5
X173.555Y-67.055
X174.056Y-57.25
X174.056Y-66.056
X174.1Y-72.7
X174.556Y-56.5
X174.556Y-67.056
X175.0Y-70.0
X175.056Y-57.25
X175.056Y-66.056
X175.556Y-51.5
X175.556Y-67.056
X176.056Y-52.25
X176.056Y-66.056
X176.556Y-51.5
X176.556Y-67.056
X177.0Y-70.0
X177.056Y-52.25
X177.056Y-66.056
X177.556Y-51.5
X177.556Y-67.056
X178.057Y-52.25
X178.057Y-66.057
X178.557Y-51.5
X178.557Y-67.057
X179.0Y-73.0
X179.057Y-52.25
X179.057Y-66.057
X179.9Y-69.7
X180.2Y-62.8
X180.5Y-65.0
X181.0Y-67.0
X181.0Y-70.5
X181.7Y-57.2
X182.0Y-63.5
X182.0Y-73.0
X182.1Y-66.0
X182.1Y-67.3
X183.1Y-52.2
X183.5Y-70.5
X184.0Y-63.5
X184.0Y-67.0
X184.2Y-65.5
X185.5Y-73.5
X187.0Y-68.0
X188.3Y-68.2
X189.3Y-68.2
X189.5Y-73.5
X189.8Y-64.2
X190.0Y-57.4
X190.0Y-70.5
X191.0Y-79.0
X191.0Y-81.0
X191.25Y-74.75
X191.75Y-82.75
X192.0Y-69.0
X192.75Y-62.0
X192.75Y-77.5
X193.5Y-67.75
X194.0Y-56.75
X194.0Y-72.0
X194.0Y-82.75
X194.75Y-77.5
X196.0Y-72.0
X196.2Y-53.0
X196.4Y-66.5
X196.5Y-75.25
X196.5Y-82.75
X197.75Y-48.75
X198.0Y-72.0
X199.0Y-75.25
X199.0Y-82.75
X199.7Y-50.8
X200.0Y-48.75
X200.0Y-72.0
X200.4Y-51.9
X200.5Y-47.75
X201.078Y-68.5
X201.25Y-52.5
X201.5Y-75.25
X201.5Y-82.75
X202.0Y-72.0
X202.578Y-55.672
X202.75Y-52.5
X203.0Y-47.75
X203.5Y-56.7
X203.5Y-67.75
X204.0Y-52.9
X204.0Y-72.0
X204.0Y-76.25
X204.25Y-81.25
X204.25Y-82.75
X204.5Y-74.75
X204.7Y-52.6
X205.5Y-47.75
X205.5Y-58.75
X205.5Y-62.0
X205.5Y-63.8
X205.5Y-65.2
X205.75Y-81.25
X205.75Y-82.75
X206.0Y-72.0
X206.5Y-53.0
X206.5Y-54.0
X206.5Y-55.0
X206.5Y-77.0
X206.9Y-69.1
X207.7Y-68.6
X207.75Y-47.75
X208.0Y-53.0
X208.0Y-54.0
X208.0Y-55.0
X208.0Y-70.5
X208.0Y-72.5
X208.0Y-79.0
X208.0Y-81.0
X208.0Y-82.75
X208.25Y-75.0
X209.5Y-58.0
X210.0Y-70.5
X210.0Y-72.5
X210.0Y-75.0
X210.0Y-77.0
X210.0Y-79.0
X210.0Y-81.0
X210.0Y-82.75
X210.5Y-57.1
X210.5Y-58.0
X211.1Y-64.3
X211.75Y-62.25
X212.0Y-56.0
X212.0Y-57.0
X212.0Y-58.0
X212.0Y-70.5
X212.0Y-72.5
X212.0Y-75.0
X212.0Y-77.0
X212.0Y-79.0
X212.0Y-81.0
X212.0Y-82.75
X212.5Y-67.0
X212.5Y-69.0
X213.9Y-60.4
X214.0Y-56.0
X214.0Y-57.0
X214.0Y-58.0
X214.0Y-68.5
X214.0Y-70.5
X216.0Y-56.0
X216.0Y-57.0
X216.0Y-59.0
X216.0Y-68.5
X216.0Y-70.5
X217.0Y-49.0
X217.0Y-51.0
X217.0Y-53.0
X217.0Y-60.0
X217.0Y-64.0
X217.0Y-66.0
X218.0Y-56.0
X218.0Y-57.0
X218.0Y-59.0
X218.0Y-61.0
X218.0Y-65.0
X218.0Y-67.0
X218.0Y-68.5
X218.0Y-70.5
X219.0Y-49.0
X219.0Y-51.0
X219.0Y-54.0
X220.0Y-57.0
X220.0Y-59.0
X220.0Y-61.0
X220.0Y-62.75
X220.0Y-64.75
X220.0Y-66.75
X220.0Y-68.5
X220.0Y-70.5
X220.0Y-80.0
X221.0Y-49.0
X221.0Y-51.0
X222.0Y-61.0
X223.0Y-49.0
X223.0Y-51.0
X223.0Y-53.0
X224.0Y-61.0
X225.0Y-49.0
X225.0Y-51.0
X225.0Y-53.0
X225.0Y-70.0
X226.0Y-61.0
X227.0Y-49.0
X227.0Y-51.0
X227.0Y-53.0
X228.0Y-61.0
X229.0Y-49.0
X229.0Y-51.0
X229.0Y-53.0
X230.0Y-61.0
X230.0Y-80.0
X231.0Y-53.0
X232.0Y-61.0
X234.0Y-55.0
X234.0Y-57.0
X234.0Y-59.0
X234.0Y-61.0
X235.0Y-55.0
X235.0Y-70.0
T2
X138.0Y-79.194
X138.1Y-73.6
X142.15Y-85.35
X146.25Y-73.7
X151.75Y-72.75
X204.6Y-80.1
X205.2Y-76.5
X208.8Y-49.0
X219.35Y-52.3
T3
X209.8Y-65.5
X210.8Y-65.5
X211.8Y-65.5
X212.8Y-65.5
X213.8Y-62.5
X213.8Y-65.5
X214.8Y-62.5
X215.8Y-62.5
X216.8Y-62.5
X217.8Y-62.5
T4
X133.5Y-54.9
X137.0Y-91.3
X139.254Y-95.504
X139.6Y-56.5
X146.0Y-57.0
X146.0Y-58.75
X147.5Y-57.0
T5
X124.5Y-78.695
X124.5Y-81.235
X124.5Y-83.775
X154.0Y-88.64
X154.0Y-91.18
X154.0Y-93.72
X154.0Y-96.26
X154.0Y-98.8
X154.0Y-101.34
X154.0Y-103.88
X154.0Y-106.42
X154.0Y-108.96
X154.0Y-111.5
X156.54Y-88.64
X156.54Y-91.18
X156.54Y-93.72
X156.54Y-96.26
X156.54Y-98.8
X156.54Y-101.34
X156.54Y-103.88
X156.54Y-106.42
X156.54Y-108.96
X156.54Y-111.5
T6
X133.0Y-58.5
X133.0Y-61.0
X133.0Y-63.5
X133.0Y-66.0
X133.0Y-68.5
X133.0Y-92.4
X133.0Y-94.9
X133.0Y-97.4
X133.0Y-99.9
X133.0Y-102.4
T7
X126.0Y-110.5
X126.1Y-50.6
X213.4Y-50.6
X234.0Y-50.5
M30
