%TF.GenerationSoftware,KiCad,Pcbnew,8.0.8*%
%TF.CreationDate,2025-02-15T01:31:07-07:00*%
%TF.ProjectId,ECE Capstone PCB Design,45434520-4361-4707-9374-6f6e65205043,rev?*%
%TF.SameCoordinates,Original*%
%TF.FileFunction,Copper,L2,Bot*%
%TF.FilePolarity,Positive*%
%FSLAX46Y46*%
G04 Gerber Fmt 4.6, Leading zero omitted, Abs format (unit mm)*
G04 Created by KiCad (PCBNEW 8.0.8) date 2025-02-15 01:31:07*
%MOMM*%
%LPD*%
G01*
G04 APERTURE LIST*
%TA.AperFunction,Conductor*%
%ADD10C,0.200000*%
%TD*%
%TA.AperFunction,ComponentPad*%
%ADD11C,1.752600*%
%TD*%
%TA.AperFunction,ComponentPad*%
%ADD12R,1.700000X1.700000*%
%TD*%
%TA.AperFunction,ComponentPad*%
%ADD13O,1.700000X1.700000*%
%TD*%
%TA.AperFunction,ComponentPad*%
%ADD14C,5.400000*%
%TD*%
%TA.AperFunction,ComponentPad*%
%ADD15R,0.850000X0.850000*%
%TD*%
%TA.AperFunction,ComponentPad*%
%ADD16O,0.850000X0.850000*%
%TD*%
%TA.AperFunction,ViaPad*%
%ADD17C,0.600000*%
%TD*%
%TA.AperFunction,ViaPad*%
%ADD18C,0.800000*%
%TD*%
%TA.AperFunction,ViaPad*%
%ADD19C,1.000000*%
%TD*%
%TA.AperFunction,Conductor*%
%ADD20C,0.750000*%
%TD*%
%TA.AperFunction,Conductor*%
%ADD21C,1.000000*%
%TD*%
%TA.AperFunction,Conductor*%
%ADD22C,0.558800*%
%TD*%
G04 APERTURE END LIST*
D10*
%TO.N,+3.3V*%
X205450000Y-50500000D02*
X205050000Y-50150000D01*
X205850000Y-50150000D01*
X205450000Y-50500000D01*
%TA.AperFunction,Conductor*%
G36*
X205450000Y-50500000D02*
G01*
X205050000Y-50150000D01*
X205850000Y-50150000D01*
X205450000Y-50500000D01*
G37*
%TD.AperFunction*%
X168300000Y-71900000D02*
X165800000Y-71900000D01*
X167050000Y-70650000D01*
X168300000Y-71900000D01*
%TA.AperFunction,Conductor*%
G36*
X168300000Y-71900000D02*
G01*
X165800000Y-71900000D01*
X167050000Y-70650000D01*
X168300000Y-71900000D01*
G37*
%TD.AperFunction*%
X146500000Y-63000000D02*
X145000000Y-61400000D01*
X146500000Y-61400000D01*
X146500000Y-63000000D01*
%TA.AperFunction,Conductor*%
G36*
X146500000Y-63000000D02*
G01*
X145000000Y-61400000D01*
X146500000Y-61400000D01*
X146500000Y-63000000D01*
G37*
%TD.AperFunction*%
X202750000Y-50625000D02*
X202200000Y-50125000D01*
X201900000Y-50125000D01*
X203350000Y-50100000D01*
X202750000Y-50625000D01*
%TA.AperFunction,Conductor*%
G36*
X202750000Y-50625000D02*
G01*
X202200000Y-50125000D01*
X201900000Y-50125000D01*
X203350000Y-50100000D01*
X202750000Y-50625000D01*
G37*
%TD.AperFunction*%
X153500000Y-72750000D02*
X153500000Y-72000000D01*
X154250000Y-72000000D01*
X153500000Y-72750000D01*
%TA.AperFunction,Conductor*%
G36*
X153500000Y-72750000D02*
G01*
X153500000Y-72000000D01*
X154250000Y-72000000D01*
X153500000Y-72750000D01*
G37*
%TD.AperFunction*%
%TO.N,Net-(U3-DVDD)*%
X193750000Y-62500000D02*
X193250000Y-62000000D01*
X193750000Y-61500000D01*
X193750000Y-62500000D01*
%TA.AperFunction,Conductor*%
G36*
X193750000Y-62500000D02*
G01*
X193250000Y-62000000D01*
X193750000Y-61500000D01*
X193750000Y-62500000D01*
G37*
%TD.AperFunction*%
%TO.N,+3.3V*%
X207500000Y-50300000D02*
X207075000Y-49850000D01*
X207500000Y-49400000D01*
X207500000Y-50300000D01*
%TA.AperFunction,Conductor*%
G36*
X207500000Y-50300000D02*
G01*
X207075000Y-49850000D01*
X207500000Y-49400000D01*
X207500000Y-50300000D01*
G37*
%TD.AperFunction*%
%TO.N,Net-(U3-AVDD)*%
X204750000Y-65000000D02*
X204500000Y-65000000D01*
X204500000Y-64000000D01*
X204750000Y-64000000D01*
X204750000Y-65000000D01*
%TA.AperFunction,Conductor*%
G36*
X204750000Y-65000000D02*
G01*
X204500000Y-65000000D01*
X204500000Y-64000000D01*
X204750000Y-64000000D01*
X204750000Y-65000000D01*
G37*
%TD.AperFunction*%
%TO.N,7V*%
X138900000Y-80000000D02*
X138100000Y-79200000D01*
X138800000Y-78600000D01*
X138900000Y-78500000D01*
X138900000Y-80000000D01*
%TA.AperFunction,Conductor*%
G36*
X138900000Y-80000000D02*
G01*
X138100000Y-79200000D01*
X138800000Y-78600000D01*
X138900000Y-78500000D01*
X138900000Y-80000000D01*
G37*
%TD.AperFunction*%
%TO.N,Net-(U3-AVDD)*%
X205000000Y-62000000D02*
X204500000Y-62500000D01*
X204500000Y-61500000D01*
X205000000Y-62000000D01*
%TA.AperFunction,Conductor*%
G36*
X205000000Y-62000000D02*
G01*
X204500000Y-62500000D01*
X204500000Y-61500000D01*
X205000000Y-62000000D01*
G37*
%TD.AperFunction*%
X205000000Y-64000000D02*
X204500000Y-64500000D01*
X204500000Y-63500000D01*
X205000000Y-64000000D01*
%TA.AperFunction,Conductor*%
G36*
X205000000Y-64000000D02*
G01*
X204500000Y-64500000D01*
X204500000Y-63500000D01*
X205000000Y-64000000D01*
G37*
%TD.AperFunction*%
%TO.N,+3.3V*%
X164000000Y-71750000D02*
X161500000Y-71750000D01*
X162750000Y-70500000D01*
X164000000Y-71750000D01*
%TA.AperFunction,Conductor*%
G36*
X164000000Y-71750000D02*
G01*
X161500000Y-71750000D01*
X162750000Y-70500000D01*
X164000000Y-71750000D01*
G37*
%TD.AperFunction*%
%TO.N,Net-(U3-AVDD)*%
X205000000Y-65000000D02*
X204500000Y-65500000D01*
X204500000Y-64500000D01*
X205000000Y-65000000D01*
%TA.AperFunction,Conductor*%
G36*
X205000000Y-65000000D02*
G01*
X204500000Y-65500000D01*
X204500000Y-64500000D01*
X205000000Y-65000000D01*
G37*
%TD.AperFunction*%
%TO.N,+3.3V*%
X204850000Y-78600000D02*
X204250000Y-78600000D01*
X203150000Y-77400000D01*
X204900000Y-77000000D01*
X204850000Y-78600000D01*
%TA.AperFunction,Conductor*%
G36*
X204850000Y-78600000D02*
G01*
X204250000Y-78600000D01*
X203150000Y-77400000D01*
X204900000Y-77000000D01*
X204850000Y-78600000D01*
G37*
%TD.AperFunction*%
%TD*%
D11*
%TO.P,J2,1,1*%
%TO.N,BT4*%
X133000000Y-102400000D03*
%TO.P,J2,2,2*%
%TO.N,BT3*%
X133000000Y-99900000D03*
%TO.P,J2,3,3*%
%TO.N,BT2*%
X133000000Y-97400000D03*
%TO.P,J2,4,4*%
%TO.N,BT1*%
X133000000Y-94900000D03*
%TO.P,J2,5,5*%
%TO.N,BT0*%
X133000000Y-92400000D03*
%TD*%
D12*
%TO.P,REF\u002A\u002A,1*%
%TO.N,+5V*%
X154000000Y-88640000D03*
D13*
%TO.P,REF\u002A\u002A,2*%
%TO.N,/PWRON_D*%
X156540000Y-88640000D03*
%TO.P,REF\u002A\u002A,3*%
%TO.N,/Rasberry PI (clock output)*%
X154000000Y-91180000D03*
%TO.P,REF\u002A\u002A,4*%
%TO.N,/Rasberry PI (RX interupt active low)*%
X156540000Y-91180000D03*
%TO.P,REF\u002A\u002A,5*%
%TO.N,/Rasberry PI (TX interupt active low)*%
X154000000Y-93720000D03*
%TO.P,REF\u002A\u002A,6*%
%TO.N,/Rasberry PI (interupt active low)*%
X156540000Y-93720000D03*
%TO.P,REF\u002A\u002A,7*%
%TO.N,Net-(J3-Pad5)*%
X154000000Y-96260000D03*
%TO.P,REF\u002A\u002A,8*%
%TO.N,BT0*%
X156540000Y-96260000D03*
%TO.P,REF\u002A\u002A,9*%
%TO.N,BT1*%
X154000000Y-98800000D03*
%TO.P,REF\u002A\u002A,10*%
%TO.N,BT2*%
X156540000Y-98800000D03*
%TO.P,REF\u002A\u002A,11*%
%TO.N,BT3*%
X154000000Y-101340000D03*
%TO.P,REF\u002A\u002A,12*%
%TO.N,BT4*%
X156540000Y-101340000D03*
%TO.P,REF\u002A\u002A,13*%
%TO.N,/PWM*%
X154000000Y-103880000D03*
%TO.P,REF\u002A\u002A,14*%
%TO.N,N/C*%
X156540000Y-103880000D03*
%TO.P,REF\u002A\u002A,15*%
%TO.N,/Rasberry PI (SPI input)*%
X154000000Y-106420000D03*
%TO.P,REF\u002A\u002A,16*%
%TO.N,/Rasberry PI (chip select)*%
X156540000Y-106420000D03*
%TO.P,REF\u002A\u002A,17*%
%TO.N,/PWRON*%
X154000000Y-108960000D03*
%TO.P,REF\u002A\u002A,18*%
%TO.N,/Rasberry PI (SPI output)*%
X156540000Y-108960000D03*
%TO.P,REF\u002A\u002A,19*%
%TO.N,/GND*%
X154000000Y-111500000D03*
%TO.P,REF\u002A\u002A,20*%
%TO.N,/Rasberry PI (SPI clock input)*%
X156540000Y-111500000D03*
%TD*%
D12*
%TO.P,REF\u002A\u002A,1*%
%TO.N,/GND*%
X124500000Y-83775000D03*
D13*
%TO.P,REF\u002A\u002A,2*%
%TO.N,Net-(J3-Pad5)*%
X124500000Y-81235000D03*
%TO.P,REF\u002A\u002A,3*%
%TO.N,+3.3V*%
X124500000Y-78695000D03*
%TD*%
D14*
%TO.P,REF\u002A\u002A,1*%
%TO.N,/GND*%
X126100000Y-50600000D03*
%TD*%
D11*
%TO.P,J1,1,1*%
%TO.N,/GND*%
X133000000Y-68500000D03*
%TO.P,J1,2,2*%
%TO.N,7V*%
X133000000Y-66000000D03*
%TO.P,J1,3,3*%
%TO.N,12V*%
X133000000Y-63500000D03*
%TO.P,J1,4,4*%
%TO.N,/CAN Bus connection H*%
X133000000Y-61000000D03*
%TO.P,J1,5,5*%
%TO.N,/CAN Bus connection L*%
X133000000Y-58500000D03*
%TD*%
D14*
%TO.P,REF\u002A\u002A,1*%
%TO.N,/GND*%
X234000000Y-50500000D03*
%TD*%
%TO.P,,1*%
%TO.N,/GND*%
X213400000Y-50600000D03*
%TD*%
D15*
%TO.P,REF\u002A\u002A,1*%
%TO.N,Net-(U3-RX2+)*%
X209800000Y-65500000D03*
D16*
%TO.P,REF\u002A\u002A,2*%
%TO.N,Net-(U3-RX2-)*%
X210800000Y-65500000D03*
%TO.P,REF\u002A\u002A,3*%
%TO.N,/GND*%
X211800000Y-65500000D03*
%TO.P,REF\u002A\u002A,4*%
%TO.N,Net-(U3-RX1+)*%
X212800000Y-65500000D03*
%TO.P,REF\u002A\u002A,5*%
%TO.N,Net-(U3-RX1-)*%
X213800000Y-65500000D03*
%TD*%
D14*
%TO.P,REF\u002A\u002A,1*%
%TO.N,/GND*%
X126000000Y-110500000D03*
%TD*%
D15*
%TO.P,REF\u002A\u002A,1*%
%TO.N,Net-(U3-RXC-)*%
X217800000Y-62500000D03*
D16*
%TO.P,REF\u002A\u002A,2*%
%TO.N,Net-(U3-RXC+)*%
X216800000Y-62500000D03*
%TO.P,REF\u002A\u002A,3*%
%TO.N,/GND*%
X215800000Y-62500000D03*
%TO.P,REF\u002A\u002A,4*%
%TO.N,Net-(U3-RX0-)*%
X214800000Y-62500000D03*
%TO.P,REF\u002A\u002A,5*%
%TO.N,Net-(U3-RX0+)*%
X213800000Y-62500000D03*
%TD*%
D17*
%TO.N,+3.3V*%
X204000000Y-52900000D03*
X202750000Y-52500000D03*
D18*
X219350000Y-52300000D03*
X205200000Y-76500000D03*
X146250000Y-73700000D03*
D17*
X135000000Y-71600000D03*
D19*
X147500000Y-57000000D03*
D18*
X204600000Y-80100000D03*
X208800000Y-49000000D03*
D17*
X136800000Y-72400000D03*
D19*
X139600000Y-56500000D03*
D17*
X167053776Y-69700000D03*
D19*
%TO.N,+5V*%
X139253600Y-95503600D03*
X146000000Y-57000000D03*
X146000000Y-58750000D03*
X133500000Y-54900000D03*
X137000000Y-91300000D03*
D17*
%TO.N,Net-(U3-OVDD)*%
X190000000Y-57400000D03*
X196200000Y-53000000D03*
X189800000Y-64200000D03*
X189300000Y-68200000D03*
%TO.N,Net-(U3-AVDD)*%
X205500000Y-58750000D03*
X205500000Y-65200000D03*
X206000000Y-72000000D03*
X205500000Y-62000000D03*
X205500000Y-63800000D03*
%TO.N,Net-(U3-DVDD)*%
X202578400Y-55671600D03*
X192750000Y-62000000D03*
X201078400Y-68500000D03*
D18*
%TO.N,7V*%
X138000000Y-79194398D03*
X142149800Y-85350200D03*
X138100000Y-73600000D03*
%TO.N,12V*%
X151750000Y-72750000D03*
D17*
%TO.N,/GND*%
X146000000Y-77000000D03*
X135000000Y-88000000D03*
X152500000Y-50000000D03*
X160500000Y-68500000D03*
X234000000Y-55000000D03*
X158750000Y-60000000D03*
X132500000Y-82200000D03*
X146400000Y-56000000D03*
X126000000Y-80000000D03*
X223000000Y-53000000D03*
X159000000Y-54000000D03*
X194750000Y-77500000D03*
X232000000Y-61000000D03*
X220000000Y-80000000D03*
X141500000Y-62500000D03*
X159000000Y-88000000D03*
X126000000Y-90000000D03*
X145000000Y-78000000D03*
X167800000Y-72700000D03*
X169000000Y-70000000D03*
X140000000Y-82500000D03*
X150500000Y-84000000D03*
X230000000Y-61000000D03*
X220000000Y-66750000D03*
X131700000Y-71700000D03*
X193500000Y-67750000D03*
X124000000Y-88000000D03*
X185500000Y-73500000D03*
X206900000Y-69100000D03*
X128000000Y-80000000D03*
X211100000Y-64300000D03*
X152000000Y-93000000D03*
X135000000Y-50000000D03*
X220000000Y-61000000D03*
X130000000Y-86000000D03*
X198000000Y-72000000D03*
X126000000Y-76000000D03*
X161400000Y-63400000D03*
X145000000Y-110000000D03*
X136000000Y-92000000D03*
X218000000Y-70500000D03*
X227000000Y-49000000D03*
X143500000Y-80000000D03*
X131750000Y-59750000D03*
X135000000Y-78000000D03*
X130000000Y-52500000D03*
X217000000Y-49000000D03*
X216000000Y-70500000D03*
X159000000Y-106000000D03*
X130000000Y-84000000D03*
X219000000Y-49000000D03*
X136000000Y-64500000D03*
X138000000Y-94000000D03*
X214000000Y-68500000D03*
X154000000Y-66500000D03*
X207750000Y-47750000D03*
X208000000Y-82750000D03*
X228000000Y-61000000D03*
X165500000Y-70500000D03*
X206500000Y-77000000D03*
X210000000Y-82750000D03*
X150000000Y-95000000D03*
X151800000Y-90300000D03*
X130000000Y-78000000D03*
X131750000Y-64750000D03*
X210500000Y-57100000D03*
X212000000Y-82750000D03*
X216000000Y-56000000D03*
X124200000Y-72500000D03*
X220000000Y-64750000D03*
X130000000Y-98000000D03*
X179000000Y-73000000D03*
X133500000Y-77000000D03*
X208000000Y-70500000D03*
X212500000Y-69000000D03*
X137800000Y-82200000D03*
X159000000Y-68500000D03*
X234000000Y-59000000D03*
X153500000Y-68500000D03*
X151000000Y-71000000D03*
X194000000Y-56750000D03*
X213900000Y-60400000D03*
X130000000Y-88000000D03*
X218000000Y-61000000D03*
X182000000Y-73000000D03*
X125000000Y-55000000D03*
X199000000Y-75250000D03*
X150000000Y-108200000D03*
X216000000Y-57000000D03*
X128000000Y-88000000D03*
X135000000Y-86000000D03*
X146000000Y-79000000D03*
X212000000Y-70500000D03*
X152000000Y-85000000D03*
X138000000Y-64500000D03*
X164000000Y-68000000D03*
X230000000Y-80000000D03*
X132500000Y-52500000D03*
X180500000Y-65000000D03*
X159000000Y-100000000D03*
X126000000Y-74000000D03*
X152000000Y-95000000D03*
X170000000Y-50000000D03*
X132500000Y-50000000D03*
X191750000Y-82750000D03*
X191000000Y-79000000D03*
X222000000Y-61000000D03*
X208000000Y-79000000D03*
X216000000Y-68500000D03*
X216000000Y-59000000D03*
X151000000Y-81000000D03*
X127000000Y-77000000D03*
X157500000Y-68500000D03*
X159000000Y-90000000D03*
X205750000Y-82750000D03*
X128000000Y-78000000D03*
X129600000Y-71700000D03*
X203500000Y-56700000D03*
X210000000Y-77000000D03*
X147500000Y-50000000D03*
X229000000Y-49000000D03*
X217000000Y-64000000D03*
X220000000Y-59000000D03*
X217000000Y-60000000D03*
X132500000Y-78000000D03*
X130000000Y-102000000D03*
X130000000Y-90000000D03*
X199700000Y-50800000D03*
X156000000Y-66500000D03*
X124000000Y-90000000D03*
X159000000Y-92000000D03*
X227000000Y-53000000D03*
X136100000Y-62600000D03*
X208000000Y-53000000D03*
X146500000Y-88500000D03*
X136500000Y-56600000D03*
X170000000Y-52500000D03*
X181000000Y-70500000D03*
X157500000Y-52500000D03*
X218000000Y-57000000D03*
X152000000Y-113000000D03*
X167500000Y-50000000D03*
X125000000Y-100000000D03*
X159000000Y-84600000D03*
X212000000Y-81000000D03*
X141900000Y-64500000D03*
X184000000Y-67000000D03*
X194000000Y-72000000D03*
X170000000Y-58000000D03*
X208000000Y-55000000D03*
X201500000Y-75250000D03*
X166600000Y-66700000D03*
X159000000Y-98000000D03*
X152500000Y-52500000D03*
X155000000Y-78000000D03*
X135000000Y-72600000D03*
X142000000Y-66000000D03*
X135000000Y-52500000D03*
X140000000Y-104000000D03*
X152000000Y-87000000D03*
X197750000Y-48750000D03*
X214000000Y-58000000D03*
X170000000Y-60000000D03*
X182000000Y-63500000D03*
X135000000Y-82200000D03*
X210000000Y-72500000D03*
X229000000Y-51000000D03*
X138000000Y-104000000D03*
X199000000Y-82750000D03*
X158700000Y-65800000D03*
X129000000Y-58800000D03*
X223000000Y-51000000D03*
X140000000Y-66000000D03*
X140900000Y-95000000D03*
X194000000Y-82750000D03*
X211750000Y-62250000D03*
X135000000Y-84000000D03*
X212000000Y-57000000D03*
X205500000Y-47750000D03*
X187000000Y-68000000D03*
X192750000Y-77500000D03*
X183100000Y-52200000D03*
X159000000Y-111000000D03*
X143400000Y-92500000D03*
X159400000Y-109900000D03*
X160000000Y-50000000D03*
X206500000Y-55000000D03*
X145500000Y-85500000D03*
X130000000Y-50000000D03*
X134100000Y-71600000D03*
X128700000Y-71700000D03*
X158500000Y-73500000D03*
X145000000Y-50000000D03*
X221000000Y-49000000D03*
X220000000Y-57000000D03*
X126000000Y-86000000D03*
X168000000Y-58000000D03*
X177000000Y-70000000D03*
X137500000Y-50000000D03*
X131750000Y-62250000D03*
X175000000Y-70000000D03*
X235000000Y-55000000D03*
X172500000Y-50000000D03*
X132000000Y-104000000D03*
X150000000Y-93000000D03*
X203500000Y-67750000D03*
X145500000Y-90500000D03*
X191250000Y-74750000D03*
X136000000Y-104000000D03*
X134000000Y-56500000D03*
X234000000Y-57000000D03*
X210000000Y-81000000D03*
X125000000Y-63500000D03*
X191000000Y-81000000D03*
X196500000Y-82750000D03*
X209500000Y-58000000D03*
X133300000Y-71600000D03*
X144000000Y-95000000D03*
X128000000Y-86000000D03*
X128900000Y-67300000D03*
X154500000Y-68500000D03*
X146500000Y-71500000D03*
X126000000Y-88000000D03*
X154000000Y-84000000D03*
X142500000Y-87000000D03*
X150000000Y-52500000D03*
X214000000Y-70500000D03*
X218000000Y-65000000D03*
X130000000Y-92000000D03*
X159000000Y-104000000D03*
X168000000Y-60000000D03*
X221000000Y-51000000D03*
X157000000Y-113000000D03*
X124000000Y-86000000D03*
X146000000Y-93000000D03*
X137500000Y-52500000D03*
X151000000Y-78000000D03*
X156000000Y-68500000D03*
X147750000Y-62000000D03*
X132000000Y-90000000D03*
X212000000Y-75000000D03*
X146000000Y-60250000D03*
X219000000Y-51000000D03*
X157000000Y-80000000D03*
X190000000Y-70500000D03*
X204250000Y-81250000D03*
X225000000Y-49000000D03*
X130000000Y-104000000D03*
X140000000Y-64500000D03*
X225000000Y-51000000D03*
X218000000Y-56000000D03*
X206500000Y-53000000D03*
X129000000Y-77000000D03*
X217000000Y-53000000D03*
X133000000Y-86000000D03*
X159000000Y-102000000D03*
X204000000Y-76250000D03*
X206500000Y-54000000D03*
X210000000Y-79000000D03*
X133000000Y-84000000D03*
X225000000Y-53000000D03*
X207700000Y-68600000D03*
X142500000Y-50000000D03*
X212000000Y-79000000D03*
X146000000Y-95000000D03*
X224000000Y-61000000D03*
X160000000Y-52000000D03*
X203000000Y-47750000D03*
X156800000Y-85100000D03*
X162500000Y-52000000D03*
X146000000Y-75000000D03*
X214000000Y-56000000D03*
X196000000Y-72000000D03*
X210500000Y-58000000D03*
X155000000Y-52500000D03*
X220000000Y-68500000D03*
X208000000Y-72500000D03*
X235000000Y-70000000D03*
X227000000Y-51000000D03*
X200000000Y-72000000D03*
X134000000Y-90000000D03*
X218000000Y-67000000D03*
X196500000Y-75250000D03*
X150000000Y-50000000D03*
X204250000Y-82750000D03*
X204000000Y-72000000D03*
X157500000Y-55000000D03*
X174100000Y-72700000D03*
X208000000Y-54000000D03*
X196400000Y-66500000D03*
X212500000Y-67000000D03*
X140800000Y-73500000D03*
X130000000Y-100000000D03*
X167500000Y-52500000D03*
X154000000Y-81000000D03*
X151000000Y-105000000D03*
X140000000Y-50000000D03*
X155000000Y-50000000D03*
X143700000Y-66000000D03*
X184200000Y-65500000D03*
X201500000Y-82750000D03*
X130000000Y-55000000D03*
X138000000Y-66000000D03*
X129900000Y-82200000D03*
X140800000Y-71600000D03*
X152600000Y-108500000D03*
X145000000Y-76000000D03*
X218000000Y-68500000D03*
X183500000Y-70500000D03*
X217000000Y-51000000D03*
X210000000Y-70500000D03*
X208250000Y-75000000D03*
X127500000Y-55000000D03*
X214000000Y-57000000D03*
X212000000Y-58000000D03*
X126000000Y-78000000D03*
X159000000Y-70000000D03*
X208000000Y-81000000D03*
X162500000Y-50000000D03*
X234000000Y-61000000D03*
X173000000Y-70000000D03*
X144500000Y-71500000D03*
X159000000Y-94000000D03*
X212000000Y-56000000D03*
X128000000Y-90000000D03*
X212000000Y-77000000D03*
X158750000Y-62750000D03*
X142000000Y-104000000D03*
X144000000Y-104000000D03*
X181700000Y-57200000D03*
X137000000Y-73500000D03*
X217000000Y-66000000D03*
X130000000Y-94000000D03*
X136000000Y-94000000D03*
X218000000Y-59000000D03*
X164000000Y-55000000D03*
X192000000Y-69000000D03*
X159000000Y-109000000D03*
X157500000Y-70000000D03*
X223000000Y-49000000D03*
X146200000Y-66000000D03*
X143400000Y-90700000D03*
X184000000Y-63500000D03*
X220000000Y-62750000D03*
X220000000Y-70500000D03*
X157000000Y-78000000D03*
X140300000Y-75700000D03*
X127800000Y-72700000D03*
X171000000Y-70000000D03*
X161500000Y-56000000D03*
X202000000Y-72000000D03*
X127500000Y-75000000D03*
X159000000Y-96000000D03*
X200000000Y-48750000D03*
X146000000Y-104000000D03*
X180200000Y-62800000D03*
X145000000Y-87000000D03*
X165000000Y-50000000D03*
X150000000Y-91000000D03*
X135000000Y-110000000D03*
X229000000Y-53000000D03*
X134000000Y-104000000D03*
X128000000Y-82000000D03*
X140900000Y-79200000D03*
X137800000Y-71700000D03*
X165000000Y-52000000D03*
X226000000Y-61000000D03*
X189500000Y-73500000D03*
X152000000Y-103500000D03*
X157500000Y-50000000D03*
X210000000Y-75000000D03*
X212000000Y-72500000D03*
X150500000Y-86000000D03*
X132000000Y-88000000D03*
X231000000Y-53000000D03*
X219000000Y-54000000D03*
X205750000Y-81250000D03*
X200500000Y-47750000D03*
X164500000Y-64500000D03*
X204500000Y-74750000D03*
X225000000Y-70000000D03*
X168750000Y-54250000D03*
X136000000Y-66000000D03*
X140500000Y-87000000D03*
X143500000Y-85500000D03*
X144700000Y-63400000D03*
X160500000Y-70000000D03*
%TO.N,/ACTIVE*%
X181000000Y-67000000D03*
X201250000Y-52500000D03*
%TO.N,/Rasberry PI (SPI input)*%
X152750000Y-54500000D03*
X150100000Y-66100000D03*
%TO.N,/Rasberry PI (chip select)*%
X150000000Y-54500000D03*
X149250000Y-65300000D03*
%TO.N,/Rasberry PI (SPI clock input)*%
X154250000Y-54500000D03*
X148200000Y-64700000D03*
%TO.N,/Rasberry PI (SPI output)*%
X151500000Y-54500000D03*
X150600000Y-64400000D03*
%TO.N,/Rasberry PI (RX interupt active low)*%
X155500000Y-55000000D03*
X154200000Y-64300000D03*
%TO.N,/Rasberry PI (TX interupt active low)*%
X158500000Y-56000000D03*
X150750000Y-67150000D03*
%TO.N,/PWRON*%
X188300000Y-68200000D03*
X204700000Y-52600000D03*
%TO.N,/PWRON_D*%
X179900000Y-69700000D03*
X200400000Y-51900000D03*
%TO.N,/PWM*%
X152900000Y-75627801D03*
%TO.N,Net-(J3-Pad5)*%
X146260000Y-96260000D03*
%TO.N,GO7*%
X175055792Y-57250000D03*
X175055792Y-66055792D03*
%TO.N,GO6*%
X174555666Y-67055666D03*
X174555666Y-56500000D03*
%TO.N,GO5*%
X174055540Y-66055540D03*
X174055540Y-57250000D03*
%TO.N,GO4*%
X173555414Y-56500000D03*
X173555414Y-67055414D03*
%TO.N,GO3*%
X173055288Y-57250000D03*
X173055288Y-66055288D03*
%TO.N,GO2*%
X172555162Y-67055162D03*
X172555162Y-56500000D03*
%TO.N,GO1*%
X172055036Y-57250000D03*
X172055036Y-66055036D03*
%TO.N,GO0*%
X171554910Y-56500000D03*
X171554910Y-67054910D03*
%TO.N,BO7*%
X179056800Y-52250000D03*
X179056800Y-66056800D03*
%TO.N,BO6*%
X178556674Y-51500000D03*
X178556674Y-67056674D03*
%TO.N,BO5*%
X178056548Y-52250000D03*
X178056548Y-66056548D03*
%TO.N,BO4*%
X177556422Y-67056422D03*
X177556422Y-51500000D03*
%TO.N,BO3*%
X177056296Y-52250000D03*
X177056296Y-66056296D03*
%TO.N,BO2*%
X176556170Y-51500000D03*
X176556170Y-67056170D03*
%TO.N,BO1*%
X176056044Y-66056044D03*
X176056044Y-52250000D03*
%TO.N,BO0*%
X175555918Y-51500000D03*
X175555918Y-67055918D03*
%TO.N,DISPENO*%
X182100000Y-67300000D03*
X182100000Y-66000000D03*
%TD*%
D20*
%TO.N,+3.3V*%
X205550000Y-49850000D02*
X174900000Y-49850000D01*
X162800000Y-61950000D02*
X162800000Y-71800000D01*
X157200000Y-71800000D02*
X162800000Y-71800000D01*
D10*
X202750000Y-49850000D02*
X202750000Y-52500000D01*
D20*
X153375000Y-71875000D02*
X153375000Y-73125000D01*
D10*
X204000000Y-52900000D02*
X204200000Y-52900000D01*
D20*
X206725000Y-49850000D02*
X205550000Y-49850000D01*
X195850000Y-77450000D02*
X204250000Y-77450000D01*
D10*
X204200000Y-52900000D02*
X204500000Y-53200000D01*
D20*
X174900000Y-49850000D02*
X162800000Y-61950000D01*
X153300000Y-71800000D02*
X153375000Y-71875000D01*
X146500000Y-61250000D02*
X145250000Y-61250000D01*
X211450000Y-54575000D02*
X217075000Y-54575000D01*
D10*
X135800000Y-72400000D02*
X135000000Y-71600000D01*
D20*
X153300000Y-71800000D02*
X157200000Y-71800000D01*
X152350000Y-74150000D02*
X153375000Y-73125000D01*
X146500000Y-65000000D02*
X153300000Y-71800000D01*
X154700000Y-71800000D02*
X157200000Y-71800000D01*
X208800000Y-49000000D02*
X208450000Y-48650000D01*
X140500000Y-56500000D02*
X139600000Y-56500000D01*
D10*
X136800000Y-72400000D02*
X135800000Y-72400000D01*
D20*
X146250000Y-73700000D02*
X146700000Y-74150000D01*
X162800000Y-71800000D02*
X190200000Y-71800000D01*
X190200000Y-71800000D02*
X195850000Y-77450000D01*
D10*
X204500000Y-53200000D02*
X204900000Y-53200000D01*
X205450000Y-49950000D02*
X205550000Y-49850000D01*
X167053776Y-71271224D02*
X167050000Y-71275000D01*
D20*
X219350000Y-52300000D02*
X219375000Y-52300000D01*
X204600000Y-77800000D02*
X204600000Y-80100000D01*
X204250000Y-77450000D02*
X205200000Y-76500000D01*
X153375000Y-73125000D02*
X154700000Y-71800000D01*
D10*
X167053776Y-69700000D02*
X167053776Y-71271224D01*
D20*
X207925000Y-48650000D02*
X206725000Y-49850000D01*
X208450000Y-48650000D02*
X207925000Y-48650000D01*
X206725000Y-49850000D02*
X211450000Y-54575000D01*
D10*
X204900000Y-53200000D02*
X205450000Y-52650000D01*
D20*
X145250000Y-61250000D02*
X140500000Y-56500000D01*
X146700000Y-74150000D02*
X152350000Y-74150000D01*
X204250000Y-77450000D02*
X204600000Y-77800000D01*
X217075000Y-54575000D02*
X219350000Y-52300000D01*
D10*
X205450000Y-52650000D02*
X205450000Y-49950000D01*
D20*
X146500000Y-61250000D02*
X146500000Y-65000000D01*
X147500000Y-57000000D02*
X147500000Y-60250000D01*
X147500000Y-60250000D02*
X146500000Y-61250000D01*
D21*
%TO.N,+5V*%
X139650000Y-95900000D02*
X141700000Y-95900000D01*
D20*
X130800000Y-57600000D02*
X130800000Y-85100000D01*
X130800000Y-85100000D02*
X137000000Y-91300000D01*
D21*
X139253600Y-95503600D02*
X139650000Y-95900000D01*
X141700000Y-95900000D02*
X148960000Y-88640000D01*
X148960000Y-88640000D02*
X154000000Y-88640000D01*
D10*
X154067107Y-88640000D02*
X154000000Y-88640000D01*
X154360000Y-88640000D02*
X154000000Y-88640000D01*
D22*
X146000000Y-57000000D02*
X146000000Y-58750000D01*
D20*
X133500000Y-54900000D02*
X130800000Y-57600000D01*
D10*
%TO.N,Net-(U3-OVDD)*%
X189300000Y-64700000D02*
X189800000Y-64200000D01*
X194100000Y-53000000D02*
X190000000Y-57100000D01*
X189800000Y-58200000D02*
X189800000Y-64200000D01*
X190000000Y-57400000D02*
X190000000Y-58000000D01*
X189300000Y-68200000D02*
X189300000Y-64700000D01*
X190000000Y-58000000D02*
X189800000Y-58200000D01*
X190000000Y-57100000D02*
X190000000Y-57400000D01*
X196200000Y-53000000D02*
X194100000Y-53000000D01*
%TO.N,Net-(U3-AVDD)*%
X206000000Y-69000000D02*
X206000000Y-72000000D01*
X205500000Y-62000000D02*
X204500000Y-62000000D01*
X204500000Y-65000000D02*
X204500000Y-67500000D01*
X204500000Y-67500000D02*
X206000000Y-69000000D01*
X205300000Y-64000000D02*
X204500000Y-64000000D01*
X205500000Y-58750000D02*
X204500000Y-59750000D01*
X204500000Y-62000000D02*
X204500000Y-64000000D01*
X205300000Y-65000000D02*
X204500000Y-65000000D01*
X205500000Y-63800000D02*
X205300000Y-64000000D01*
X205500000Y-65200000D02*
X205300000Y-65000000D01*
X204500000Y-64000000D02*
X204500000Y-65000000D01*
X204500000Y-59750000D02*
X204500000Y-62000000D01*
%TO.N,Net-(U3-DVDD)*%
X192750000Y-62000000D02*
X193750000Y-62000000D01*
X193750000Y-62000000D02*
X193750000Y-65750000D01*
X193750000Y-59500000D02*
X193750000Y-62000000D01*
X202250000Y-56000000D02*
X197250000Y-56000000D01*
X195500000Y-67500000D02*
X200078400Y-67500000D01*
X193750000Y-65750000D02*
X195500000Y-67500000D01*
X200078400Y-67500000D02*
X201078400Y-68500000D01*
X202578400Y-55671600D02*
X202250000Y-56000000D01*
X197250000Y-56000000D02*
X193750000Y-59500000D01*
D20*
%TO.N,7V*%
X139000000Y-78194398D02*
X139000000Y-74600000D01*
X139000000Y-74600000D02*
X139000000Y-72700000D01*
X140000000Y-86000000D02*
X141500000Y-86000000D01*
X138100000Y-73600000D02*
X139000000Y-74500000D01*
X139000000Y-80194398D02*
X139000000Y-85000000D01*
X139000000Y-72700000D02*
X138100000Y-73600000D01*
X141500000Y-86000000D02*
X142149800Y-85350200D01*
X139000000Y-70250000D02*
X134750000Y-66000000D01*
X139000000Y-74500000D02*
X139000000Y-74600000D01*
X139000000Y-70250000D02*
X139000000Y-74500000D01*
X138000000Y-79194398D02*
X139000000Y-78194398D01*
X139000000Y-78194398D02*
X139000000Y-80194398D01*
X134750000Y-66000000D02*
X133000000Y-66000000D01*
X139000000Y-85000000D02*
X140000000Y-86000000D01*
X138000000Y-79194398D02*
X139000000Y-80194398D01*
%TO.N,12V*%
X142400000Y-63500000D02*
X133000000Y-63500000D01*
X151750000Y-72750000D02*
X151650000Y-72750000D01*
X151650000Y-72750000D02*
X142400000Y-63500000D01*
D10*
%TO.N,/ACTIVE*%
X194000000Y-52100000D02*
X196700000Y-52100000D01*
X189200000Y-56900000D02*
X194000000Y-52100000D01*
X181000000Y-66200000D02*
X182200000Y-65000000D01*
X187600000Y-65000000D02*
X189200000Y-63400000D01*
X197400000Y-52800000D02*
X200950000Y-52800000D01*
X181000000Y-67000000D02*
X181000000Y-66200000D01*
X196700000Y-52100000D02*
X197400000Y-52800000D01*
X182200000Y-65000000D02*
X187600000Y-65000000D01*
X189200000Y-63400000D02*
X189200000Y-56900000D01*
X200950000Y-52800000D02*
X201250000Y-52500000D01*
%TO.N,/Rasberry PI (SPI input)*%
X150100000Y-66100000D02*
X152000000Y-64200000D01*
X152000000Y-64200000D02*
X152000000Y-55250000D01*
X152000000Y-55250000D02*
X152750000Y-54500000D01*
%TO.N,/Rasberry PI (chip select)*%
X149250000Y-65300000D02*
X149250000Y-55250000D01*
X149250000Y-55250000D02*
X150000000Y-54500000D01*
%TO.N,/Rasberry PI (SPI clock input)*%
X149250000Y-53750000D02*
X153500000Y-53750000D01*
X148200000Y-64700000D02*
X148500000Y-64400000D01*
X153500000Y-53750000D02*
X154250000Y-54500000D01*
X148500000Y-54500000D02*
X149250000Y-53750000D01*
X148500000Y-64400000D02*
X148500000Y-54500000D01*
%TO.N,/Rasberry PI (SPI output)*%
X150600000Y-64400000D02*
X150600000Y-55400000D01*
X150600000Y-55400000D02*
X151500000Y-54500000D01*
%TO.N,/Rasberry PI (RX interupt active low)*%
X154500000Y-64000000D02*
X154500000Y-55500000D01*
X154500000Y-55500000D02*
X155000000Y-55000000D01*
X154200000Y-64300000D02*
X154500000Y-64000000D01*
X155000000Y-55000000D02*
X155500000Y-55000000D01*
%TO.N,/Rasberry PI (TX interupt active low)*%
X154550000Y-65700000D02*
X155500000Y-64750000D01*
X155500000Y-64750000D02*
X155500000Y-61750000D01*
X152200000Y-65700000D02*
X154550000Y-65700000D01*
X159000000Y-58250000D02*
X159000000Y-56500000D01*
X155500000Y-61750000D02*
X159000000Y-58250000D01*
X150750000Y-67150000D02*
X152200000Y-65700000D01*
X159000000Y-56500000D02*
X158500000Y-56000000D01*
%TO.N,/PWRON*%
X204400000Y-52300000D02*
X203800000Y-52300000D01*
X194200000Y-52400000D02*
X189500000Y-57100000D01*
X188500000Y-68000000D02*
X188300000Y-68200000D01*
X204700000Y-52600000D02*
X204400000Y-52300000D01*
X188500000Y-64600000D02*
X188500000Y-68000000D01*
X203000000Y-53100000D02*
X197200000Y-53100000D01*
X189500000Y-57100000D02*
X189500000Y-63600000D01*
X197200000Y-53100000D02*
X196500000Y-52400000D01*
X203800000Y-52300000D02*
X203000000Y-53100000D01*
X196500000Y-52400000D02*
X194200000Y-52400000D01*
X189500000Y-63600000D02*
X188500000Y-64600000D01*
%TO.N,/PWRON_D*%
X193900000Y-51700000D02*
X188800000Y-56800000D01*
X188800000Y-63200000D02*
X187300000Y-64700000D01*
X179900000Y-66700000D02*
X179900000Y-69700000D01*
X200200000Y-51700000D02*
X193900000Y-51700000D01*
X181900000Y-64700000D02*
X179900000Y-66700000D01*
X200400000Y-51900000D02*
X200200000Y-51700000D01*
X188800000Y-56800000D02*
X188800000Y-63200000D01*
X187300000Y-64700000D02*
X181900000Y-64700000D01*
%TO.N,/PWM*%
X155900000Y-102600000D02*
X157400000Y-102600000D01*
X154620000Y-103880000D02*
X155900000Y-102600000D01*
X157900000Y-102100000D02*
X157900000Y-82000000D01*
X153880000Y-104000000D02*
X154000000Y-103880000D01*
X157900000Y-82000000D02*
X152900000Y-77000000D01*
X157400000Y-102600000D02*
X157900000Y-102100000D01*
X154000000Y-103880000D02*
X154620000Y-103880000D01*
X152900000Y-77000000D02*
X152900000Y-75627801D01*
%TO.N,Net-(J3-Pad5)*%
X154000000Y-96260000D02*
X146260000Y-96260000D01*
%TO.N,GO7*%
X175055792Y-66055792D02*
X175055792Y-57250000D01*
%TO.N,GO6*%
X174555666Y-67055666D02*
X174555666Y-56500000D01*
%TO.N,GO5*%
X174055540Y-66055540D02*
X174055540Y-57250000D01*
%TO.N,GO4*%
X173555414Y-67055414D02*
X173555414Y-56500000D01*
%TO.N,GO3*%
X173055288Y-66055288D02*
X173055288Y-57250000D01*
%TO.N,GO2*%
X172555162Y-67055162D02*
X172555162Y-56500000D01*
%TO.N,GO1*%
X172055036Y-57250000D02*
X172055036Y-66055036D01*
%TO.N,GO0*%
X171554910Y-67054910D02*
X171554910Y-56500000D01*
%TO.N,BO7*%
X179056800Y-66056800D02*
X179056800Y-52250000D01*
%TO.N,BO6*%
X178556674Y-67056674D02*
X178556674Y-51500000D01*
%TO.N,BO5*%
X178056548Y-66056548D02*
X178056548Y-52250000D01*
%TO.N,BO4*%
X177556422Y-67056422D02*
X177556422Y-51500000D01*
%TO.N,BO3*%
X177056296Y-66056296D02*
X177056296Y-52250000D01*
%TO.N,BO2*%
X176556170Y-67056170D02*
X176556170Y-51500000D01*
%TO.N,BO1*%
X176056044Y-66056044D02*
X176056044Y-52250000D01*
%TO.N,BO0*%
X175555918Y-67055918D02*
X175555918Y-51500000D01*
%TO.N,BT1*%
X133300000Y-94900000D02*
X133000000Y-94900000D01*
X154000000Y-98800000D02*
X137200000Y-98800000D01*
X137200000Y-98800000D02*
X133300000Y-94900000D01*
%TO.N,BT2*%
X156540000Y-98800000D02*
X155340000Y-100000000D01*
X133300000Y-97400000D02*
X133000000Y-97400000D01*
X135900000Y-100000000D02*
X133300000Y-97400000D01*
X155340000Y-100000000D02*
X135900000Y-100000000D01*
%TO.N,BT3*%
X154000000Y-101340000D02*
X134440000Y-101340000D01*
X134440000Y-101340000D02*
X133000000Y-99900000D01*
%TO.N,BT0*%
X138100000Y-97500000D02*
X133000000Y-92400000D01*
X155300000Y-97500000D02*
X138100000Y-97500000D01*
X156540000Y-96260000D02*
X155300000Y-97500000D01*
X133000000Y-92400000D02*
X133300000Y-92400000D01*
%TO.N,BT4*%
X156540000Y-101340000D02*
X156460000Y-101340000D01*
X156460000Y-101340000D02*
X155200000Y-102600000D01*
X133000000Y-102400000D02*
X133300000Y-102400000D01*
X155200000Y-102600000D02*
X133200000Y-102600000D01*
X133200000Y-102600000D02*
X133000000Y-102400000D01*
%TO.N,DISPENO*%
X182100000Y-66000000D02*
X182100000Y-67300000D01*
%TD*%
%TA.AperFunction,Conductor*%
%TO.N,/GND*%
G36*
X212482312Y-47320185D02*
G01*
X212528067Y-47372989D01*
X212538011Y-47442147D01*
X212508986Y-47505703D01*
X212450208Y-47543477D01*
X212449600Y-47543654D01*
X212341447Y-47574812D01*
X212009390Y-47712353D01*
X212009386Y-47712355D01*
X211694810Y-47886215D01*
X211694805Y-47886218D01*
X211401693Y-48094194D01*
X211401685Y-48094199D01*
X211320397Y-48166842D01*
X211320397Y-48166843D01*
X212638282Y-49484728D01*
X212520534Y-49570278D01*
X212370278Y-49720534D01*
X212284728Y-49838282D01*
X210966843Y-48520397D01*
X210966842Y-48520397D01*
X210894199Y-48601685D01*
X210894194Y-48601693D01*
X210686218Y-48894805D01*
X210686215Y-48894810D01*
X210512355Y-49209386D01*
X210512353Y-49209390D01*
X210374812Y-49541447D01*
X210275316Y-49886805D01*
X210275314Y-49886814D01*
X210215112Y-50241141D01*
X210215110Y-50241153D01*
X210194958Y-50600000D01*
X210215110Y-50958846D01*
X210215112Y-50958858D01*
X210275314Y-51313185D01*
X210275316Y-51313194D01*
X210374812Y-51658552D01*
X210512353Y-51990609D01*
X210512355Y-51990613D01*
X210686215Y-52305189D01*
X210686218Y-52305194D01*
X210894193Y-52598306D01*
X210966843Y-52679601D01*
X212284727Y-51361716D01*
X212370278Y-51479466D01*
X212520534Y-51629722D01*
X212638281Y-51715270D01*
X211320397Y-53033155D01*
X211401693Y-53105806D01*
X211694805Y-53313781D01*
X211694810Y-53313784D01*
X212009386Y-53487644D01*
X212009390Y-53487646D01*
X212341447Y-53625187D01*
X212686805Y-53724683D01*
X212686814Y-53724685D01*
X213041141Y-53784887D01*
X213041153Y-53784889D01*
X213400000Y-53805041D01*
X213758846Y-53784889D01*
X213758858Y-53784887D01*
X214113185Y-53724685D01*
X214113194Y-53724683D01*
X214458552Y-53625187D01*
X214790609Y-53487646D01*
X214790613Y-53487644D01*
X215105189Y-53313784D01*
X215105194Y-53313781D01*
X215398306Y-53105806D01*
X215479601Y-53033155D01*
X214161717Y-51715270D01*
X214279466Y-51629722D01*
X214429722Y-51479466D01*
X214515270Y-51361717D01*
X215833155Y-52679601D01*
X215905806Y-52598306D01*
X216113781Y-52305194D01*
X216113784Y-52305189D01*
X216287644Y-51990613D01*
X216287646Y-51990609D01*
X216425187Y-51658552D01*
X216524683Y-51313194D01*
X216524685Y-51313185D01*
X216584887Y-50958858D01*
X216584889Y-50958846D01*
X216605041Y-50600000D01*
X216584889Y-50241153D01*
X216584887Y-50241141D01*
X216524685Y-49886814D01*
X216524683Y-49886805D01*
X216425187Y-49541447D01*
X216287646Y-49209390D01*
X216287644Y-49209386D01*
X216113784Y-48894810D01*
X216113781Y-48894805D01*
X215905806Y-48601693D01*
X215833155Y-48520397D01*
X214515270Y-49838281D01*
X214429722Y-49720534D01*
X214279466Y-49570278D01*
X214161717Y-49484728D01*
X215479602Y-48166843D01*
X215398306Y-48094193D01*
X215105194Y-47886218D01*
X215105189Y-47886215D01*
X214790613Y-47712355D01*
X214790609Y-47712353D01*
X214458552Y-47574812D01*
X214350400Y-47543654D01*
X214291430Y-47506180D01*
X214262081Y-47442773D01*
X214271671Y-47373565D01*
X214317156Y-47320528D01*
X214384094Y-47300502D01*
X214384727Y-47300500D01*
X232738884Y-47300500D01*
X232805923Y-47320185D01*
X232851678Y-47372989D01*
X232861622Y-47442147D01*
X232832597Y-47505703D01*
X232786336Y-47539061D01*
X232609390Y-47612353D01*
X232609386Y-47612355D01*
X232294810Y-47786215D01*
X232294805Y-47786218D01*
X232001693Y-47994194D01*
X232001685Y-47994199D01*
X231920397Y-48066842D01*
X231920397Y-48066843D01*
X233238282Y-49384728D01*
X233120534Y-49470278D01*
X232970278Y-49620534D01*
X232884728Y-49738282D01*
X231566843Y-48420397D01*
X231566842Y-48420397D01*
X231494199Y-48501685D01*
X231494194Y-48501693D01*
X231286218Y-48794805D01*
X231286215Y-48794810D01*
X231112355Y-49109386D01*
X231112353Y-49109390D01*
X230974812Y-49441447D01*
X230875316Y-49786805D01*
X230875314Y-49786814D01*
X230815112Y-50141141D01*
X230815110Y-50141153D01*
X230794958Y-50500000D01*
X230815110Y-50858846D01*
X230815112Y-50858858D01*
X230875314Y-51213185D01*
X230875316Y-51213194D01*
X230974812Y-51558552D01*
X231112353Y-51890609D01*
X231112355Y-51890613D01*
X231286215Y-52205189D01*
X231286218Y-52205194D01*
X231494193Y-52498306D01*
X231566843Y-52579601D01*
X232884727Y-51261716D01*
X232970278Y-51379466D01*
X233120534Y-51529722D01*
X233238281Y-51615270D01*
X231920397Y-52933155D01*
X232001693Y-53005806D01*
X232294805Y-53213781D01*
X232294810Y-53213784D01*
X232609386Y-53387644D01*
X232609390Y-53387646D01*
X232941447Y-53525187D01*
X233286805Y-53624683D01*
X233286814Y-53624685D01*
X233641141Y-53684887D01*
X233641153Y-53684889D01*
X234000000Y-53705041D01*
X234358846Y-53684889D01*
X234358858Y-53684887D01*
X234713185Y-53624685D01*
X234713194Y-53624683D01*
X235058552Y-53525187D01*
X235390609Y-53387646D01*
X235390613Y-53387644D01*
X235705189Y-53213784D01*
X235705194Y-53213781D01*
X235998306Y-53005806D01*
X236079601Y-52933155D01*
X234761717Y-51615270D01*
X234879466Y-51529722D01*
X235029722Y-51379466D01*
X235115271Y-51261717D01*
X236433155Y-52579601D01*
X236505806Y-52498306D01*
X236713781Y-52205194D01*
X236713784Y-52205189D01*
X236887644Y-51890613D01*
X236887646Y-51890609D01*
X237025187Y-51558552D01*
X237056346Y-51450399D01*
X237093820Y-51391429D01*
X237157227Y-51362080D01*
X237226435Y-51371670D01*
X237279472Y-51417155D01*
X237299498Y-51484093D01*
X237299500Y-51484726D01*
X237299500Y-79996753D01*
X237299330Y-80003243D01*
X237281764Y-80338405D01*
X237280407Y-80351313D01*
X237228415Y-80679580D01*
X237225717Y-80692276D01*
X237139692Y-81013326D01*
X237135681Y-81025670D01*
X237016572Y-81335960D01*
X237011293Y-81347817D01*
X236860399Y-81643964D01*
X236853909Y-81655204D01*
X236672893Y-81933943D01*
X236665264Y-81944444D01*
X236456092Y-82202749D01*
X236447407Y-82212394D01*
X236212394Y-82447407D01*
X236202749Y-82456092D01*
X235944444Y-82665264D01*
X235933943Y-82672893D01*
X235655204Y-82853909D01*
X235643964Y-82860399D01*
X235347817Y-83011293D01*
X235335960Y-83016572D01*
X235025670Y-83135681D01*
X235013326Y-83139692D01*
X234692276Y-83225717D01*
X234679580Y-83228415D01*
X234351313Y-83280407D01*
X234338405Y-83281764D01*
X234003244Y-83299330D01*
X233996754Y-83299500D01*
X190184500Y-83299500D01*
X190117461Y-83279815D01*
X190071706Y-83227011D01*
X190060500Y-83175500D01*
X190060500Y-74460119D01*
X190060499Y-74460116D01*
X190052980Y-74441964D01*
X190029976Y-74386426D01*
X189973574Y-74330024D01*
X189937706Y-74315167D01*
X189899883Y-74299500D01*
X189899882Y-74299500D01*
X160710057Y-74299500D01*
X160705624Y-74299498D01*
X160670174Y-74299489D01*
X160670173Y-74299489D01*
X160670166Y-74299489D01*
X160670124Y-74299497D01*
X160632319Y-74315156D01*
X160632292Y-74315167D01*
X160596446Y-74330003D01*
X160567374Y-74359075D01*
X160567354Y-74359094D01*
X160540034Y-74386399D01*
X160524325Y-74424326D01*
X160524311Y-74424360D01*
X160509500Y-74460087D01*
X160509500Y-74499697D01*
X160499514Y-110448047D01*
X160499500Y-110448196D01*
X160499500Y-110496753D01*
X160499330Y-110503243D01*
X160481764Y-110838405D01*
X160480407Y-110851313D01*
X160428415Y-111179580D01*
X160425717Y-111192276D01*
X160339692Y-111513326D01*
X160335681Y-111525670D01*
X160216572Y-111835960D01*
X160211293Y-111847817D01*
X160060399Y-112143964D01*
X160053909Y-112155204D01*
X159872893Y-112433943D01*
X159865264Y-112444444D01*
X159656092Y-112702749D01*
X159647407Y-112712394D01*
X159412394Y-112947407D01*
X159402749Y-112956092D01*
X159144444Y-113165264D01*
X159133943Y-113172893D01*
X158855204Y-113353909D01*
X158843964Y-113360399D01*
X158547817Y-113511293D01*
X158535960Y-113516572D01*
X158225670Y-113635681D01*
X158213326Y-113639692D01*
X157892276Y-113725717D01*
X157879580Y-113728415D01*
X157551313Y-113780407D01*
X157538405Y-113781764D01*
X157203244Y-113799330D01*
X157196754Y-113799500D01*
X126984727Y-113799500D01*
X126917688Y-113779815D01*
X126871933Y-113727011D01*
X126861989Y-113657853D01*
X126891014Y-113594297D01*
X126949792Y-113556523D01*
X126950400Y-113556346D01*
X127058552Y-113525187D01*
X127390609Y-113387646D01*
X127390613Y-113387644D01*
X127705189Y-113213784D01*
X127705194Y-113213781D01*
X127998306Y-113005806D01*
X128079601Y-112933155D01*
X126761717Y-111615271D01*
X126879466Y-111529722D01*
X127029722Y-111379466D01*
X127115271Y-111261717D01*
X128433155Y-112579601D01*
X128505806Y-112498306D01*
X128713781Y-112205194D01*
X128713784Y-112205189D01*
X128887644Y-111890613D01*
X128887646Y-111890609D01*
X129025187Y-111558552D01*
X129114080Y-111249999D01*
X152669364Y-111249999D01*
X152669364Y-111250000D01*
X153566988Y-111250000D01*
X153534075Y-111307007D01*
X153500000Y-111434174D01*
X153500000Y-111565826D01*
X153534075Y-111692993D01*
X153566988Y-111750000D01*
X152669364Y-111750000D01*
X152726567Y-111963486D01*
X152726570Y-111963492D01*
X152826399Y-112177578D01*
X152961894Y-112371082D01*
X153128917Y-112538105D01*
X153322421Y-112673600D01*
X153536507Y-112773429D01*
X153536516Y-112773433D01*
X153750000Y-112830634D01*
X153750000Y-111933012D01*
X153807007Y-111965925D01*
X153934174Y-112000000D01*
X154065826Y-112000000D01*
X154192993Y-111965925D01*
X154250000Y-111933012D01*
X154250000Y-112830633D01*
X154463483Y-112773433D01*
X154463492Y-112773429D01*
X154677578Y-112673600D01*
X154871082Y-112538105D01*
X155038105Y-112371082D01*
X155173600Y-112177578D01*
X155273429Y-111963492D01*
X155273432Y-111963486D01*
X155330636Y-111750000D01*
X154433012Y-111750000D01*
X154465925Y-111692993D01*
X154500000Y-111565826D01*
X154500000Y-111500000D01*
X155584901Y-111500000D01*
X155603252Y-111686331D01*
X155603253Y-111686333D01*
X155657604Y-111865502D01*
X155745862Y-112030623D01*
X155745864Y-112030626D01*
X155864642Y-112175357D01*
X156009373Y-112294135D01*
X156009376Y-112294137D01*
X156153332Y-112371082D01*
X156174499Y-112382396D01*
X156344426Y-112433943D01*
X156353666Y-112436746D01*
X156353668Y-112436747D01*
X156370374Y-112438392D01*
X156540000Y-112455099D01*
X156726331Y-112436747D01*
X156905501Y-112382396D01*
X157070625Y-112294136D01*
X157215357Y-112175357D01*
X157334136Y-112030625D01*
X157422396Y-111865501D01*
X157476747Y-111686331D01*
X157495099Y-111500000D01*
X157476747Y-111313669D01*
X157422396Y-111134499D01*
X157403903Y-111099901D01*
X157334137Y-110969376D01*
X157334135Y-110969373D01*
X157215357Y-110824642D01*
X157070626Y-110705864D01*
X157070623Y-110705862D01*
X156905502Y-110617604D01*
X156726333Y-110563253D01*
X156726331Y-110563252D01*
X156540000Y-110544901D01*
X156353668Y-110563252D01*
X156353666Y-110563253D01*
X156174497Y-110617604D01*
X156009376Y-110705862D01*
X156009373Y-110705864D01*
X155864642Y-110824642D01*
X155745864Y-110969373D01*
X155745862Y-110969376D01*
X155657604Y-111134497D01*
X155603253Y-111313666D01*
X155603252Y-111313668D01*
X155584901Y-111500000D01*
X154500000Y-111500000D01*
X154500000Y-111434174D01*
X154465925Y-111307007D01*
X154433012Y-111250000D01*
X155330636Y-111250000D01*
X155330635Y-111249999D01*
X155273432Y-111036513D01*
X155273429Y-111036507D01*
X155173600Y-110822422D01*
X155173599Y-110822420D01*
X155038113Y-110628926D01*
X155038108Y-110628920D01*
X154871082Y-110461894D01*
X154677578Y-110326399D01*
X154463492Y-110226570D01*
X154463486Y-110226567D01*
X154250000Y-110169364D01*
X154250000Y-111066988D01*
X154192993Y-111034075D01*
X154065826Y-111000000D01*
X153934174Y-111000000D01*
X153807007Y-111034075D01*
X153750000Y-111066988D01*
X153750000Y-110169364D01*
X153749999Y-110169364D01*
X153536513Y-110226567D01*
X153536507Y-110226570D01*
X153322422Y-110326399D01*
X153322420Y-110326400D01*
X153128926Y-110461886D01*
X153128920Y-110461891D01*
X152961891Y-110628920D01*
X152961886Y-110628926D01*
X152826400Y-110822420D01*
X152826399Y-110822422D01*
X152726570Y-111036507D01*
X152726567Y-111036513D01*
X152669364Y-111249999D01*
X129114080Y-111249999D01*
X129124683Y-111213194D01*
X129124685Y-111213185D01*
X129184887Y-110858858D01*
X129184889Y-110858846D01*
X129205041Y-110500000D01*
X129184889Y-110141153D01*
X129184887Y-110141141D01*
X129124685Y-109786814D01*
X129124683Y-109786805D01*
X129025187Y-109441447D01*
X128887646Y-109109390D01*
X128887644Y-109109386D01*
X128805081Y-108960000D01*
X153044901Y-108960000D01*
X153063252Y-109146331D01*
X153063253Y-109146333D01*
X153117604Y-109325502D01*
X153205862Y-109490623D01*
X153205864Y-109490626D01*
X153324642Y-109635357D01*
X153469373Y-109754135D01*
X153469376Y-109754137D01*
X153541048Y-109792446D01*
X153634499Y-109842396D01*
X153813666Y-109896746D01*
X153813668Y-109896747D01*
X153830374Y-109898392D01*
X154000000Y-109915099D01*
X154186331Y-109896747D01*
X154365501Y-109842396D01*
X154530625Y-109754136D01*
X154675357Y-109635357D01*
X154794136Y-109490625D01*
X154882396Y-109325501D01*
X154936747Y-109146331D01*
X154955099Y-108960000D01*
X155584901Y-108960000D01*
X155603252Y-109146331D01*
X155603253Y-109146333D01*
X155657604Y-109325502D01*
X155745862Y-109490623D01*
X155745864Y-109490626D01*
X155864642Y-109635357D01*
X156009373Y-109754135D01*
X156009376Y-109754137D01*
X156081048Y-109792446D01*
X156174499Y-109842396D01*
X156353666Y-109896746D01*
X156353668Y-109896747D01*
X156370374Y-109898392D01*
X156540000Y-109915099D01*
X156726331Y-109896747D01*
X156905501Y-109842396D01*
X157070625Y-109754136D01*
X157215357Y-109635357D01*
X157334136Y-109490625D01*
X157422396Y-109325501D01*
X157476747Y-109146331D01*
X157495099Y-108960000D01*
X157476747Y-108773669D01*
X157422396Y-108594499D01*
X157372791Y-108501693D01*
X157334137Y-108429376D01*
X157334135Y-108429373D01*
X157215357Y-108284642D01*
X157070626Y-108165864D01*
X157070623Y-108165862D01*
X156905502Y-108077604D01*
X156726333Y-108023253D01*
X156726331Y-108023252D01*
X156540000Y-108004901D01*
X156353668Y-108023252D01*
X156353666Y-108023253D01*
X156174497Y-108077604D01*
X156009376Y-108165862D01*
X156009373Y-108165864D01*
X155864642Y-108284642D01*
X155745864Y-108429373D01*
X155745862Y-108429376D01*
X155657604Y-108594497D01*
X155603253Y-108773666D01*
X155603252Y-108773668D01*
X155584901Y-108960000D01*
X154955099Y-108960000D01*
X154936747Y-108773669D01*
X154882396Y-108594499D01*
X154832791Y-108501693D01*
X154794137Y-108429376D01*
X154794135Y-108429373D01*
X154675357Y-108284642D01*
X154530626Y-108165864D01*
X154530623Y-108165862D01*
X154365502Y-108077604D01*
X154186333Y-108023253D01*
X154186331Y-108023252D01*
X154000000Y-108004901D01*
X153813668Y-108023252D01*
X153813666Y-108023253D01*
X153634497Y-108077604D01*
X153469376Y-108165862D01*
X153469373Y-108165864D01*
X153324642Y-108284642D01*
X153205864Y-108429373D01*
X153205862Y-108429376D01*
X153117604Y-108594497D01*
X153063253Y-108773666D01*
X153063252Y-108773668D01*
X153044901Y-108960000D01*
X128805081Y-108960000D01*
X128713784Y-108794810D01*
X128713781Y-108794805D01*
X128505806Y-108501693D01*
X128433155Y-108420397D01*
X127115270Y-109738281D01*
X127029722Y-109620534D01*
X126879466Y-109470278D01*
X126761717Y-109384728D01*
X128079602Y-108066843D01*
X127998306Y-107994193D01*
X127705194Y-107786218D01*
X127705189Y-107786215D01*
X127390613Y-107612355D01*
X127390609Y-107612353D01*
X127058552Y-107474812D01*
X126713194Y-107375316D01*
X126713185Y-107375314D01*
X126358858Y-107315112D01*
X126358846Y-107315110D01*
X126000000Y-107294958D01*
X125641153Y-107315110D01*
X125641141Y-107315112D01*
X125286814Y-107375314D01*
X125286805Y-107375316D01*
X124941447Y-107474812D01*
X124609390Y-107612353D01*
X124609386Y-107612355D01*
X124294810Y-107786215D01*
X124294805Y-107786218D01*
X124001693Y-107994194D01*
X124001685Y-107994199D01*
X123920397Y-108066842D01*
X123920397Y-108066843D01*
X125238282Y-109384728D01*
X125120534Y-109470278D01*
X124970278Y-109620534D01*
X124884728Y-109738282D01*
X123566843Y-108420397D01*
X123566842Y-108420397D01*
X123494199Y-108501685D01*
X123494194Y-108501693D01*
X123286218Y-108794805D01*
X123286215Y-108794810D01*
X123112356Y-109109385D01*
X123039061Y-109286336D01*
X122995220Y-109340739D01*
X122928926Y-109362804D01*
X122861227Y-109345525D01*
X122813616Y-109294388D01*
X122800500Y-109238883D01*
X122800500Y-106420000D01*
X153044901Y-106420000D01*
X153063252Y-106606331D01*
X153063253Y-106606333D01*
X153117604Y-106785502D01*
X153205862Y-106950623D01*
X153205864Y-106950626D01*
X153324642Y-107095357D01*
X153469373Y-107214135D01*
X153469376Y-107214137D01*
X153620583Y-107294958D01*
X153634499Y-107302396D01*
X153813666Y-107356746D01*
X153813668Y-107356747D01*
X153830374Y-107358392D01*
X154000000Y-107375099D01*
X154186331Y-107356747D01*
X154365501Y-107302396D01*
X154530625Y-107214136D01*
X154675357Y-107095357D01*
X154794136Y-106950625D01*
X154882396Y-106785501D01*
X154936747Y-106606331D01*
X154955099Y-106420000D01*
X155584901Y-106420000D01*
X155603252Y-106606331D01*
X155603253Y-106606333D01*
X155657604Y-106785502D01*
X155745862Y-106950623D01*
X155745864Y-106950626D01*
X155864642Y-107095357D01*
X156009373Y-107214135D01*
X156009376Y-107214137D01*
X156160583Y-107294958D01*
X156174499Y-107302396D01*
X156353666Y-107356746D01*
X156353668Y-107356747D01*
X156370374Y-107358392D01*
X156540000Y-107375099D01*
X156726331Y-107356747D01*
X156905501Y-107302396D01*
X157070625Y-107214136D01*
X157215357Y-107095357D01*
X157334136Y-106950625D01*
X157422396Y-106785501D01*
X157476747Y-106606331D01*
X157495099Y-106420000D01*
X157476747Y-106233669D01*
X157422396Y-106054499D01*
X157334136Y-105889375D01*
X157334135Y-105889373D01*
X157215357Y-105744642D01*
X157070626Y-105625864D01*
X157070623Y-105625862D01*
X156905502Y-105537604D01*
X156726333Y-105483253D01*
X156726331Y-105483252D01*
X156540000Y-105464901D01*
X156353668Y-105483252D01*
X156353666Y-105483253D01*
X156174497Y-105537604D01*
X156009376Y-105625862D01*
X156009373Y-105625864D01*
X155864642Y-105744642D01*
X155745864Y-105889373D01*
X155745862Y-105889376D01*
X155657604Y-106054497D01*
X155603253Y-106233666D01*
X155603252Y-106233668D01*
X155584901Y-106420000D01*
X154955099Y-106420000D01*
X154936747Y-106233669D01*
X154882396Y-106054499D01*
X154794136Y-105889375D01*
X154794135Y-105889373D01*
X154675357Y-105744642D01*
X154530626Y-105625864D01*
X154530623Y-105625862D01*
X154365502Y-105537604D01*
X154186333Y-105483253D01*
X154186331Y-105483252D01*
X154000000Y-105464901D01*
X153813668Y-105483252D01*
X153813666Y-105483253D01*
X153634497Y-105537604D01*
X153469376Y-105625862D01*
X153469373Y-105625864D01*
X153324642Y-105744642D01*
X153205864Y-105889373D01*
X153205862Y-105889376D01*
X153117604Y-106054497D01*
X153063253Y-106233666D01*
X153063252Y-106233668D01*
X153044901Y-106420000D01*
X122800500Y-106420000D01*
X122800500Y-102311250D01*
X124692399Y-102311250D01*
X124692399Y-102488749D01*
X124720163Y-102664047D01*
X124775012Y-102832852D01*
X124832312Y-102945307D01*
X124855589Y-102990991D01*
X124959914Y-103134582D01*
X125085417Y-103260085D01*
X125229008Y-103364410D01*
X125292787Y-103396907D01*
X125387146Y-103444986D01*
X125387148Y-103444986D01*
X125387151Y-103444988D01*
X125477631Y-103474387D01*
X125555951Y-103499835D01*
X125731250Y-103527600D01*
X125731255Y-103527600D01*
X125908748Y-103527600D01*
X126084046Y-103499835D01*
X126252847Y-103444988D01*
X126410990Y-103364410D01*
X126554581Y-103260085D01*
X126680084Y-103134582D01*
X126784409Y-102990991D01*
X126864987Y-102832848D01*
X126919834Y-102664047D01*
X126947599Y-102488749D01*
X126947599Y-102311250D01*
X126919834Y-102135952D01*
X126886261Y-102032627D01*
X126864987Y-101967152D01*
X126864985Y-101967149D01*
X126864985Y-101967147D01*
X126784408Y-101809008D01*
X126781810Y-101805432D01*
X126680084Y-101665418D01*
X126554581Y-101539915D01*
X126410990Y-101435590D01*
X126377398Y-101418474D01*
X126252851Y-101355013D01*
X126084046Y-101300164D01*
X125908748Y-101272400D01*
X125908743Y-101272400D01*
X125731255Y-101272400D01*
X125731250Y-101272400D01*
X125555951Y-101300164D01*
X125387146Y-101355013D01*
X125229007Y-101435590D01*
X125149731Y-101493188D01*
X125085417Y-101539915D01*
X125085415Y-101539917D01*
X125085414Y-101539917D01*
X124959916Y-101665415D01*
X124959916Y-101665416D01*
X124959914Y-101665418D01*
X124917112Y-101724330D01*
X124855589Y-101809008D01*
X124775012Y-101967147D01*
X124720163Y-102135952D01*
X124692399Y-102311250D01*
X122800500Y-102311250D01*
X122800500Y-92311250D01*
X124692399Y-92311250D01*
X124692399Y-92488749D01*
X124720163Y-92664047D01*
X124775012Y-92832852D01*
X124832312Y-92945307D01*
X124855589Y-92990991D01*
X124959914Y-93134582D01*
X125085417Y-93260085D01*
X125229008Y-93364410D01*
X125303723Y-93402479D01*
X125387146Y-93444986D01*
X125387148Y-93444986D01*
X125387151Y-93444988D01*
X125458107Y-93468043D01*
X125555951Y-93499835D01*
X125731250Y-93527600D01*
X125731255Y-93527600D01*
X125908748Y-93527600D01*
X126084046Y-93499835D01*
X126086351Y-93499086D01*
X126252847Y-93444988D01*
X126410990Y-93364410D01*
X126554581Y-93260085D01*
X126680084Y-93134582D01*
X126784409Y-92990991D01*
X126864987Y-92832848D01*
X126919834Y-92664047D01*
X126947599Y-92488749D01*
X126947599Y-92400000D01*
X132018474Y-92400000D01*
X132037333Y-92591484D01*
X132037334Y-92591486D01*
X132093188Y-92775614D01*
X132093189Y-92775616D01*
X132093190Y-92775618D01*
X132093191Y-92775621D01*
X132183887Y-92945301D01*
X132183892Y-92945308D01*
X132305955Y-93094044D01*
X132355353Y-93134583D01*
X132454693Y-93216109D01*
X132454696Y-93216110D01*
X132454698Y-93216112D01*
X132624378Y-93306808D01*
X132624379Y-93306808D01*
X132624386Y-93306812D01*
X132808514Y-93362666D01*
X132808513Y-93362666D01*
X132825682Y-93364356D01*
X133000000Y-93381526D01*
X133191486Y-93362666D01*
X133375614Y-93306812D01*
X133455894Y-93263900D01*
X133524295Y-93249659D01*
X133589539Y-93274658D01*
X133602028Y-93285578D01*
X137930024Y-97613574D01*
X137986426Y-97669976D01*
X138060118Y-97700500D01*
X138060120Y-97700500D01*
X153545636Y-97700500D01*
X153612675Y-97720185D01*
X153658430Y-97772989D01*
X153668374Y-97842147D01*
X153639349Y-97905703D01*
X153604089Y-97933858D01*
X153469376Y-98005862D01*
X153469373Y-98005864D01*
X153324642Y-98124642D01*
X153205864Y-98269373D01*
X153205862Y-98269376D01*
X153117604Y-98434496D01*
X153094246Y-98511497D01*
X153055948Y-98569935D01*
X152992136Y-98598391D01*
X152975586Y-98599500D01*
X137334412Y-98599500D01*
X137267373Y-98579815D01*
X137246731Y-98563181D01*
X133971550Y-95288000D01*
X133938065Y-95226677D01*
X133940571Y-95164323D01*
X133949501Y-95134884D01*
X133962666Y-95091486D01*
X133981526Y-94900000D01*
X133962666Y-94708514D01*
X133906812Y-94524386D01*
X133901334Y-94514137D01*
X133816112Y-94354698D01*
X133816110Y-94354696D01*
X133816109Y-94354693D01*
X133730703Y-94250625D01*
X133694044Y-94205955D01*
X133545308Y-94083892D01*
X133545301Y-94083887D01*
X133375621Y-93993191D01*
X133375618Y-93993190D01*
X133375617Y-93993189D01*
X133375614Y-93993188D01*
X133191486Y-93937334D01*
X133191484Y-93937333D01*
X133191486Y-93937333D01*
X133000000Y-93918474D01*
X132808515Y-93937333D01*
X132699799Y-93970311D01*
X132624386Y-93993188D01*
X132624383Y-93993189D01*
X132624381Y-93993190D01*
X132624378Y-93993191D01*
X132454698Y-94083887D01*
X132454691Y-94083892D01*
X132305955Y-94205955D01*
X132183892Y-94354691D01*
X132183887Y-94354698D01*
X132093191Y-94524378D01*
X132093190Y-94524381D01*
X132037333Y-94708515D01*
X132018474Y-94900000D01*
X132037333Y-95091484D01*
X132040029Y-95100371D01*
X132093188Y-95275614D01*
X132093189Y-95275617D01*
X132093190Y-95275618D01*
X132093191Y-95275621D01*
X132183887Y-95445301D01*
X132183892Y-95445308D01*
X132305955Y-95594044D01*
X132364883Y-95642404D01*
X132454693Y-95716109D01*
X132454696Y-95716110D01*
X132454698Y-95716112D01*
X132624378Y-95806808D01*
X132624379Y-95806808D01*
X132624386Y-95806812D01*
X132808514Y-95862666D01*
X132808513Y-95862666D01*
X132825682Y-95864356D01*
X133000000Y-95881526D01*
X133191486Y-95862666D01*
X133375614Y-95806812D01*
X133545307Y-95716109D01*
X133616203Y-95657925D01*
X133680511Y-95630613D01*
X133749378Y-95642404D01*
X133782548Y-95666098D01*
X137086426Y-98969976D01*
X137160118Y-99000500D01*
X137239882Y-99000500D01*
X152975586Y-99000500D01*
X153042625Y-99020185D01*
X153088380Y-99072989D01*
X153094246Y-99088503D01*
X153117604Y-99165503D01*
X153205862Y-99330623D01*
X153205864Y-99330626D01*
X153324642Y-99475357D01*
X153451720Y-99579647D01*
X153491054Y-99637392D01*
X153492925Y-99707237D01*
X153456737Y-99767005D01*
X153393982Y-99797721D01*
X153373055Y-99799500D01*
X136034412Y-99799500D01*
X135967373Y-99779815D01*
X135946731Y-99763181D01*
X133971550Y-97788000D01*
X133938065Y-97726677D01*
X133940571Y-97664323D01*
X133962666Y-97591486D01*
X133981526Y-97400000D01*
X133962666Y-97208514D01*
X133906812Y-97024386D01*
X133816109Y-96854693D01*
X133752813Y-96777566D01*
X133694044Y-96705955D01*
X133545308Y-96583892D01*
X133545301Y-96583887D01*
X133375621Y-96493191D01*
X133375618Y-96493190D01*
X133375617Y-96493189D01*
X133375614Y-96493188D01*
X133191486Y-96437334D01*
X133191484Y-96437333D01*
X133191486Y-96437333D01*
X133000000Y-96418474D01*
X132808515Y-96437333D01*
X132699799Y-96470311D01*
X132624386Y-96493188D01*
X132624383Y-96493189D01*
X132624381Y-96493190D01*
X132624378Y-96493191D01*
X132454698Y-96583887D01*
X132454691Y-96583892D01*
X132305955Y-96705955D01*
X132183892Y-96854691D01*
X132183887Y-96854698D01*
X132093191Y-97024378D01*
X132093190Y-97024381D01*
X132093189Y-97024383D01*
X132093188Y-97024386D01*
X132082046Y-97061116D01*
X132037333Y-97208515D01*
X132018474Y-97400000D01*
X132037333Y-97591484D01*
X132044034Y-97613574D01*
X132093188Y-97775614D01*
X132093189Y-97775617D01*
X132093190Y-97775618D01*
X132093191Y-97775621D01*
X132183887Y-97945301D01*
X132183892Y-97945308D01*
X132305955Y-98094044D01*
X132364883Y-98142404D01*
X132454693Y-98216109D01*
X132454696Y-98216110D01*
X132454698Y-98216112D01*
X132624378Y-98306808D01*
X132624379Y-98306808D01*
X132624386Y-98306812D01*
X132808514Y-98362666D01*
X132808513Y-98362666D01*
X132825682Y-98364356D01*
X133000000Y-98381526D01*
X133191486Y-98362666D01*
X133375614Y-98306812D01*
X133545307Y-98216109D01*
X133616203Y-98157925D01*
X133680511Y-98130613D01*
X133749378Y-98142404D01*
X133782548Y-98166098D01*
X135730024Y-100113574D01*
X135786426Y-100169976D01*
X135860118Y-100200500D01*
X135860120Y-100200500D01*
X153646117Y-100200500D01*
X153713156Y-100220185D01*
X153758911Y-100272989D01*
X153768855Y-100342147D01*
X153739830Y-100405703D01*
X153682113Y-100443160D01*
X153634497Y-100457604D01*
X153469376Y-100545862D01*
X153469373Y-100545864D01*
X153324642Y-100664642D01*
X153205864Y-100809373D01*
X153205862Y-100809376D01*
X153117604Y-100974496D01*
X153094246Y-101051497D01*
X153055948Y-101109935D01*
X152992136Y-101138391D01*
X152975586Y-101139500D01*
X134574412Y-101139500D01*
X134507373Y-101119815D01*
X134486731Y-101103181D01*
X133885578Y-100502028D01*
X133852093Y-100440705D01*
X133857077Y-100371013D01*
X133863898Y-100355899D01*
X133906812Y-100275614D01*
X133962666Y-100091486D01*
X133981526Y-99900000D01*
X133962666Y-99708514D01*
X133906812Y-99524386D01*
X133906808Y-99524378D01*
X133816112Y-99354698D01*
X133816110Y-99354696D01*
X133816109Y-99354693D01*
X133778986Y-99309458D01*
X133694044Y-99205955D01*
X133545308Y-99083892D01*
X133545301Y-99083887D01*
X133375621Y-98993191D01*
X133375618Y-98993190D01*
X133375617Y-98993189D01*
X133375614Y-98993188D01*
X133191486Y-98937334D01*
X133191484Y-98937333D01*
X133191486Y-98937333D01*
X133000000Y-98918474D01*
X132808515Y-98937333D01*
X132717109Y-98965061D01*
X132624386Y-98993188D01*
X132624383Y-98993189D01*
X132624381Y-98993190D01*
X132624378Y-98993191D01*
X132454698Y-99083887D01*
X132454691Y-99083892D01*
X132305955Y-99205955D01*
X132183892Y-99354691D01*
X132183887Y-99354698D01*
X132093191Y-99524378D01*
X132093190Y-99524381D01*
X132093189Y-99524383D01*
X132093188Y-99524386D01*
X132071981Y-99594297D01*
X132037333Y-99708515D01*
X132018474Y-99900000D01*
X132037333Y-100091484D01*
X132037334Y-100091486D01*
X132093188Y-100275614D01*
X132093189Y-100275616D01*
X132093190Y-100275618D01*
X132093191Y-100275621D01*
X132183887Y-100445301D01*
X132183892Y-100445308D01*
X132305955Y-100594044D01*
X132391980Y-100664642D01*
X132454693Y-100716109D01*
X132454696Y-100716110D01*
X132454698Y-100716112D01*
X132624378Y-100806808D01*
X132624379Y-100806808D01*
X132624386Y-100806812D01*
X132808514Y-100862666D01*
X132808513Y-100862666D01*
X132825682Y-100864356D01*
X133000000Y-100881526D01*
X133191486Y-100862666D01*
X133375614Y-100806812D01*
X133455894Y-100763900D01*
X133524295Y-100749659D01*
X133589539Y-100774658D01*
X133602028Y-100785578D01*
X134326426Y-101509976D01*
X134400118Y-101540500D01*
X134479883Y-101540500D01*
X152975586Y-101540500D01*
X153042625Y-101560185D01*
X153088380Y-101612989D01*
X153094246Y-101628503D01*
X153117604Y-101705503D01*
X153205862Y-101870623D01*
X153205864Y-101870626D01*
X153324642Y-102015357D01*
X153436441Y-102107108D01*
X153469375Y-102134136D01*
X153529255Y-102166142D01*
X153579098Y-102215104D01*
X153594559Y-102283241D01*
X153570728Y-102348921D01*
X153515170Y-102391290D01*
X153470801Y-102399500D01*
X134093864Y-102399500D01*
X134026825Y-102379815D01*
X133981070Y-102327011D01*
X133970461Y-102287654D01*
X133962666Y-102208515D01*
X133941847Y-102139883D01*
X133906812Y-102024386D01*
X133906808Y-102024378D01*
X133816112Y-101854698D01*
X133816110Y-101854696D01*
X133816109Y-101854693D01*
X133765260Y-101792733D01*
X133694044Y-101705955D01*
X133545308Y-101583892D01*
X133545301Y-101583887D01*
X133375621Y-101493191D01*
X133375618Y-101493190D01*
X133375617Y-101493189D01*
X133375614Y-101493188D01*
X133191486Y-101437334D01*
X133191484Y-101437333D01*
X133191486Y-101437333D01*
X133000000Y-101418474D01*
X132808515Y-101437333D01*
X132699799Y-101470311D01*
X132624386Y-101493188D01*
X132624383Y-101493189D01*
X132624381Y-101493190D01*
X132624378Y-101493191D01*
X132454698Y-101583887D01*
X132454691Y-101583892D01*
X132305955Y-101705955D01*
X132183892Y-101854691D01*
X132183887Y-101854698D01*
X132093191Y-102024378D01*
X132093190Y-102024381D01*
X132093189Y-102024383D01*
X132093188Y-102024386D01*
X132084427Y-102053269D01*
X132037333Y-102208515D01*
X132018474Y-102400000D01*
X132037333Y-102591484D01*
X132037334Y-102591486D01*
X132093188Y-102775614D01*
X132093189Y-102775617D01*
X132093190Y-102775618D01*
X132093191Y-102775621D01*
X132183887Y-102945301D01*
X132183892Y-102945308D01*
X132305955Y-103094044D01*
X132355353Y-103134583D01*
X132454693Y-103216109D01*
X132454696Y-103216110D01*
X132454698Y-103216112D01*
X132624378Y-103306808D01*
X132624379Y-103306808D01*
X132624386Y-103306812D01*
X132808514Y-103362666D01*
X132808513Y-103362666D01*
X132825682Y-103364356D01*
X133000000Y-103381526D01*
X133191486Y-103362666D01*
X133375614Y-103306812D01*
X133545307Y-103216109D01*
X133694044Y-103094044D01*
X133816109Y-102945307D01*
X133854764Y-102872989D01*
X133858475Y-102866047D01*
X133907437Y-102816203D01*
X133967833Y-102800500D01*
X153508218Y-102800500D01*
X153575257Y-102820185D01*
X153621012Y-102872989D01*
X153630956Y-102942147D01*
X153601931Y-103005703D01*
X153566671Y-103033858D01*
X153469376Y-103085862D01*
X153469373Y-103085864D01*
X153324642Y-103204642D01*
X153205864Y-103349373D01*
X153205862Y-103349376D01*
X153117604Y-103514497D01*
X153063253Y-103693666D01*
X153063252Y-103693668D01*
X153044901Y-103880000D01*
X153063252Y-104066331D01*
X153063253Y-104066333D01*
X153117604Y-104245502D01*
X153205862Y-104410623D01*
X153205864Y-104410626D01*
X153324642Y-104555357D01*
X153469373Y-104674135D01*
X153469376Y-104674137D01*
X153634497Y-104762395D01*
X153634499Y-104762396D01*
X153813666Y-104816746D01*
X153813668Y-104816747D01*
X153830374Y-104818392D01*
X154000000Y-104835099D01*
X154186331Y-104816747D01*
X154365501Y-104762396D01*
X154530625Y-104674136D01*
X154675357Y-104555357D01*
X154794136Y-104410625D01*
X154882396Y-104245501D01*
X154936747Y-104066331D01*
X154955099Y-103880000D01*
X154955099Y-103879999D01*
X154955099Y-103879812D01*
X154955126Y-103879717D01*
X154955696Y-103873938D01*
X154956792Y-103874045D01*
X154974784Y-103812773D01*
X154991418Y-103792131D01*
X155089883Y-103693666D01*
X155512675Y-103270873D01*
X155573996Y-103237390D01*
X155643687Y-103242374D01*
X155699621Y-103284245D01*
X155724038Y-103349710D01*
X155709713Y-103417008D01*
X155657603Y-103514499D01*
X155603253Y-103693666D01*
X155603252Y-103693668D01*
X155584901Y-103880000D01*
X155603252Y-104066331D01*
X155603253Y-104066333D01*
X155657604Y-104245502D01*
X155745862Y-104410623D01*
X155745864Y-104410626D01*
X155864642Y-104555357D01*
X156009373Y-104674135D01*
X156009376Y-104674137D01*
X156174497Y-104762395D01*
X156174499Y-104762396D01*
X156353666Y-104816746D01*
X156353668Y-104816747D01*
X156370374Y-104818392D01*
X156540000Y-104835099D01*
X156726331Y-104816747D01*
X156905501Y-104762396D01*
X157070625Y-104674136D01*
X157215357Y-104555357D01*
X157334136Y-104410625D01*
X157422396Y-104245501D01*
X157476747Y-104066331D01*
X157495099Y-103880000D01*
X157476747Y-103693669D01*
X157422396Y-103514499D01*
X157385241Y-103444986D01*
X157334137Y-103349376D01*
X157334135Y-103349373D01*
X157215357Y-103204642D01*
X157070626Y-103085864D01*
X157070623Y-103085862D01*
X156973329Y-103033858D01*
X156923485Y-102984896D01*
X156908024Y-102916758D01*
X156931856Y-102851079D01*
X156987413Y-102808710D01*
X157031782Y-102800500D01*
X157439880Y-102800500D01*
X157439882Y-102800500D01*
X157513574Y-102769976D01*
X158069976Y-102213574D01*
X158100500Y-102139882D01*
X158100500Y-102060118D01*
X158100500Y-81960118D01*
X158069976Y-81886426D01*
X158013574Y-81830024D01*
X153136819Y-76953269D01*
X153103334Y-76891946D01*
X153100500Y-76865588D01*
X153100500Y-76045055D01*
X153120185Y-75978016D01*
X153136819Y-75957373D01*
X153138339Y-75955852D01*
X153138342Y-75955851D01*
X153228050Y-75866143D01*
X153285646Y-75753105D01*
X153285646Y-75753103D01*
X153285647Y-75753102D01*
X153285647Y-75753101D01*
X153305492Y-75627804D01*
X153305492Y-75627797D01*
X153285647Y-75502500D01*
X153285647Y-75502499D01*
X153285646Y-75502497D01*
X153228050Y-75389459D01*
X153228046Y-75389455D01*
X153228045Y-75389453D01*
X153138347Y-75299755D01*
X153138344Y-75299753D01*
X153138342Y-75299751D01*
X153025304Y-75242155D01*
X153025303Y-75242154D01*
X153025300Y-75242153D01*
X152900003Y-75222309D01*
X152899997Y-75222309D01*
X152774699Y-75242153D01*
X152774698Y-75242153D01*
X152699337Y-75280552D01*
X152661658Y-75299751D01*
X152661657Y-75299752D01*
X152661652Y-75299755D01*
X152571954Y-75389453D01*
X152571951Y-75389458D01*
X152514352Y-75502499D01*
X152514352Y-75502500D01*
X152494508Y-75627797D01*
X152494508Y-75627804D01*
X152514352Y-75753101D01*
X152514352Y-75753102D01*
X152514354Y-75753105D01*
X152571950Y-75866143D01*
X152661658Y-75955851D01*
X152661660Y-75955852D01*
X152663181Y-75957373D01*
X152696666Y-76018696D01*
X152699500Y-76045055D01*
X152699500Y-77039883D01*
X152730024Y-77113574D01*
X157663181Y-82046731D01*
X157696666Y-82108054D01*
X157699500Y-82134412D01*
X157699500Y-88352047D01*
X157679815Y-88419086D01*
X157627011Y-88464841D01*
X157557853Y-88474785D01*
X157494297Y-88445760D01*
X157456840Y-88388043D01*
X157422395Y-88274497D01*
X157334137Y-88109376D01*
X157334135Y-88109373D01*
X157215357Y-87964642D01*
X157070626Y-87845864D01*
X157070623Y-87845862D01*
X156905502Y-87757604D01*
X156726333Y-87703253D01*
X156726331Y-87703252D01*
X156540000Y-87684901D01*
X156353668Y-87703252D01*
X156353666Y-87703253D01*
X156174497Y-87757604D01*
X156009376Y-87845862D01*
X156009373Y-87845864D01*
X155864642Y-87964642D01*
X155745864Y-88109373D01*
X155745862Y-88109376D01*
X155657604Y-88274497D01*
X155603253Y-88453666D01*
X155603252Y-88453668D01*
X155584901Y-88640000D01*
X155603252Y-88826331D01*
X155603253Y-88826333D01*
X155657604Y-89005502D01*
X155745862Y-89170623D01*
X155745864Y-89170626D01*
X155864642Y-89315357D01*
X156009373Y-89434135D01*
X156009376Y-89434137D01*
X156132415Y-89499902D01*
X156174499Y-89522396D01*
X156306562Y-89562457D01*
X156353666Y-89576746D01*
X156353668Y-89576747D01*
X156370374Y-89578392D01*
X156540000Y-89595099D01*
X156726331Y-89576747D01*
X156905501Y-89522396D01*
X157070625Y-89434136D01*
X157215357Y-89315357D01*
X157334136Y-89170625D01*
X157422396Y-89005501D01*
X157456840Y-88891953D01*
X157495137Y-88833518D01*
X157558949Y-88805061D01*
X157628016Y-88815622D01*
X157680410Y-88861846D01*
X157699500Y-88927952D01*
X157699500Y-90892047D01*
X157679815Y-90959086D01*
X157627011Y-91004841D01*
X157557853Y-91014785D01*
X157494297Y-90985760D01*
X157456840Y-90928043D01*
X157422395Y-90814497D01*
X157334137Y-90649376D01*
X157334135Y-90649373D01*
X157215357Y-90504642D01*
X157070626Y-90385864D01*
X157070623Y-90385862D01*
X156905502Y-90297604D01*
X156726333Y-90243253D01*
X156726331Y-90243252D01*
X156540000Y-90224901D01*
X156353668Y-90243252D01*
X156353666Y-90243253D01*
X156174497Y-90297604D01*
X156009376Y-90385862D01*
X156009373Y-90385864D01*
X155864642Y-90504642D01*
X155745864Y-90649373D01*
X155745862Y-90649376D01*
X155657604Y-90814497D01*
X155603253Y-90993666D01*
X155603252Y-90993668D01*
X155584901Y-91180000D01*
X155603252Y-91366331D01*
X155603253Y-91366333D01*
X155657604Y-91545502D01*
X155745862Y-91710623D01*
X155745864Y-91710626D01*
X155864642Y-91855357D01*
X156009373Y-91974135D01*
X156009376Y-91974137D01*
X156174497Y-92062395D01*
X156174499Y-92062396D01*
X156353666Y-92116746D01*
X156353668Y-92116747D01*
X156370374Y-92118392D01*
X156540000Y-92135099D01*
X156726331Y-92116747D01*
X156905501Y-92062396D01*
X157070625Y-91974136D01*
X157215357Y-91855357D01*
X157334136Y-91710625D01*
X157391747Y-91602841D01*
X157422393Y-91545507D01*
X157422395Y-91545502D01*
X157422396Y-91545501D01*
X157456840Y-91431953D01*
X157495137Y-91373518D01*
X157558949Y-91345061D01*
X157628016Y-91355622D01*
X157680410Y-91401846D01*
X157699500Y-91467952D01*
X157699500Y-93432047D01*
X157679815Y-93499086D01*
X157627011Y-93544841D01*
X157557853Y-93554785D01*
X157494297Y-93525760D01*
X157456840Y-93468043D01*
X157436506Y-93401015D01*
X157422396Y-93354499D01*
X157396906Y-93306810D01*
X157334137Y-93189376D01*
X157334135Y-93189373D01*
X157215357Y-93044642D01*
X157070626Y-92925864D01*
X157070623Y-92925862D01*
X156905502Y-92837604D01*
X156726333Y-92783253D01*
X156726331Y-92783252D01*
X156540000Y-92764901D01*
X156353668Y-92783252D01*
X156353666Y-92783253D01*
X156174497Y-92837604D01*
X156009376Y-92925862D01*
X156009373Y-92925864D01*
X155864642Y-93044642D01*
X155745864Y-93189373D01*
X155745862Y-93189376D01*
X155657604Y-93354497D01*
X155603253Y-93533666D01*
X155603252Y-93533668D01*
X155584901Y-93720000D01*
X155603252Y-93906331D01*
X155603253Y-93906333D01*
X155657604Y-94085502D01*
X155745862Y-94250623D01*
X155745864Y-94250626D01*
X155864642Y-94395357D01*
X156009373Y-94514135D01*
X156009376Y-94514137D01*
X156174497Y-94602395D01*
X156174499Y-94602396D01*
X156353666Y-94656746D01*
X156353668Y-94656747D01*
X156370374Y-94658392D01*
X156540000Y-94675099D01*
X156726331Y-94656747D01*
X156905501Y-94602396D01*
X157070625Y-94514136D01*
X157215357Y-94395357D01*
X157334136Y-94250625D01*
X157422396Y-94085501D01*
X157456840Y-93971953D01*
X157495137Y-93913518D01*
X157558949Y-93885061D01*
X157628016Y-93895622D01*
X157680410Y-93941846D01*
X157699500Y-94007952D01*
X157699500Y-95972047D01*
X157679815Y-96039086D01*
X157627011Y-96084841D01*
X157557853Y-96094785D01*
X157494297Y-96065760D01*
X157456840Y-96008043D01*
X157424181Y-95900383D01*
X157422396Y-95894499D01*
X157410539Y-95872316D01*
X157334137Y-95729376D01*
X157334135Y-95729373D01*
X157215357Y-95584642D01*
X157070626Y-95465864D01*
X157070623Y-95465862D01*
X156905502Y-95377604D01*
X156726333Y-95323253D01*
X156726331Y-95323252D01*
X156540000Y-95304901D01*
X156353668Y-95323252D01*
X156353666Y-95323253D01*
X156174497Y-95377604D01*
X156009376Y-95465862D01*
X156009373Y-95465864D01*
X155864642Y-95584642D01*
X155745864Y-95729373D01*
X155745862Y-95729376D01*
X155657604Y-95894497D01*
X155603253Y-96073666D01*
X155603252Y-96073668D01*
X155584901Y-96260000D01*
X155603252Y-96446331D01*
X155603253Y-96446333D01*
X155657602Y-96625497D01*
X155657603Y-96625500D01*
X155695532Y-96696461D01*
X155709773Y-96764864D01*
X155684772Y-96830108D01*
X155673854Y-96842594D01*
X155253269Y-97263181D01*
X155191946Y-97296666D01*
X155165588Y-97299500D01*
X154566617Y-97299500D01*
X154499578Y-97279815D01*
X154453823Y-97227011D01*
X154443879Y-97157853D01*
X154472904Y-97094297D01*
X154508164Y-97066142D01*
X154530623Y-97054137D01*
X154530626Y-97054135D01*
X154675357Y-96935357D01*
X154741552Y-96854698D01*
X154794136Y-96790625D01*
X154882396Y-96625501D01*
X154936747Y-96446331D01*
X154955099Y-96260000D01*
X154936747Y-96073669D01*
X154882396Y-95894499D01*
X154870539Y-95872316D01*
X154794137Y-95729376D01*
X154794135Y-95729373D01*
X154675357Y-95584642D01*
X154530626Y-95465864D01*
X154530623Y-95465862D01*
X154365502Y-95377604D01*
X154186333Y-95323253D01*
X154186331Y-95323252D01*
X154000000Y-95304901D01*
X153813668Y-95323252D01*
X153813666Y-95323253D01*
X153634497Y-95377604D01*
X153469376Y-95465862D01*
X153469373Y-95465864D01*
X153324642Y-95584642D01*
X153205864Y-95729373D01*
X153205862Y-95729376D01*
X153117604Y-95894496D01*
X153094246Y-95971497D01*
X153055948Y-96029935D01*
X152992136Y-96058391D01*
X152975586Y-96059500D01*
X146677255Y-96059500D01*
X146610216Y-96039815D01*
X146589574Y-96023181D01*
X146498347Y-95931954D01*
X146498344Y-95931952D01*
X146498342Y-95931950D01*
X146385304Y-95874354D01*
X146385303Y-95874353D01*
X146385300Y-95874352D01*
X146260003Y-95854508D01*
X146259997Y-95854508D01*
X146134699Y-95874352D01*
X146134698Y-95874352D01*
X146059337Y-95912751D01*
X146021658Y-95931950D01*
X146021657Y-95931951D01*
X146021652Y-95931954D01*
X145931954Y-96021652D01*
X145931951Y-96021657D01*
X145874352Y-96134698D01*
X145874352Y-96134699D01*
X145854508Y-96259996D01*
X145854508Y-96260003D01*
X145874352Y-96385300D01*
X145874352Y-96385301D01*
X145891254Y-96418472D01*
X145931950Y-96498342D01*
X145931952Y-96498344D01*
X145931954Y-96498347D01*
X146021652Y-96588045D01*
X146021654Y-96588046D01*
X146021658Y-96588050D01*
X146134696Y-96645646D01*
X146134697Y-96645646D01*
X146134699Y-96645647D01*
X146259997Y-96665492D01*
X146260000Y-96665492D01*
X146260003Y-96665492D01*
X146385300Y-96645647D01*
X146385301Y-96645647D01*
X146385302Y-96645646D01*
X146385304Y-96645646D01*
X146498342Y-96588050D01*
X146538440Y-96547952D01*
X146589574Y-96496819D01*
X146650897Y-96463334D01*
X146677255Y-96460500D01*
X152975586Y-96460500D01*
X153042625Y-96480185D01*
X153088380Y-96532989D01*
X153094246Y-96548503D01*
X153117604Y-96625503D01*
X153205862Y-96790623D01*
X153205864Y-96790626D01*
X153324642Y-96935357D01*
X153469373Y-97054135D01*
X153469376Y-97054137D01*
X153491836Y-97066142D01*
X153541680Y-97115104D01*
X153557141Y-97183242D01*
X153533309Y-97248921D01*
X153477752Y-97291290D01*
X153433383Y-97299500D01*
X138234412Y-97299500D01*
X138167373Y-97279815D01*
X138146731Y-97263181D01*
X136387148Y-95503598D01*
X138647918Y-95503598D01*
X138647918Y-95503600D01*
X138652038Y-95534893D01*
X138653099Y-95551079D01*
X138653099Y-95582656D01*
X138661271Y-95613157D01*
X138664434Y-95629058D01*
X138668556Y-95660363D01*
X138668557Y-95660367D01*
X138680638Y-95689534D01*
X138685850Y-95704888D01*
X138694021Y-95735380D01*
X138694025Y-95735390D01*
X138709805Y-95762721D01*
X138716978Y-95777265D01*
X138729064Y-95806441D01*
X138729066Y-95806443D01*
X138729068Y-95806447D01*
X138748283Y-95831488D01*
X138757294Y-95844973D01*
X138773081Y-95872316D01*
X138795406Y-95894641D01*
X138806088Y-95906821D01*
X138825318Y-95931882D01*
X138825319Y-95931883D01*
X138850369Y-95951104D01*
X138862564Y-95961799D01*
X139165139Y-96264374D01*
X139165149Y-96264385D01*
X139169479Y-96268715D01*
X139169480Y-96268716D01*
X139281284Y-96380520D01*
X139347023Y-96418474D01*
X139418215Y-96459577D01*
X139570942Y-96500500D01*
X139570943Y-96500500D01*
X141613331Y-96500500D01*
X141613347Y-96500501D01*
X141620943Y-96500501D01*
X141779054Y-96500501D01*
X141779057Y-96500501D01*
X141931785Y-96459577D01*
X142002977Y-96418474D01*
X142068716Y-96380520D01*
X142180520Y-96268716D01*
X142180520Y-96268714D01*
X142190724Y-96258511D01*
X142190727Y-96258506D01*
X144729233Y-93720000D01*
X153044901Y-93720000D01*
X153063252Y-93906331D01*
X153063253Y-93906333D01*
X153117604Y-94085502D01*
X153205862Y-94250623D01*
X153205864Y-94250626D01*
X153324642Y-94395357D01*
X153469373Y-94514135D01*
X153469376Y-94514137D01*
X153634497Y-94602395D01*
X153634499Y-94602396D01*
X153813666Y-94656746D01*
X153813668Y-94656747D01*
X153830374Y-94658392D01*
X154000000Y-94675099D01*
X154186331Y-94656747D01*
X154365501Y-94602396D01*
X154530625Y-94514136D01*
X154675357Y-94395357D01*
X154794136Y-94250625D01*
X154882396Y-94085501D01*
X154936747Y-93906331D01*
X154955099Y-93720000D01*
X154936747Y-93533669D01*
X154882396Y-93354499D01*
X154856906Y-93306810D01*
X154794137Y-93189376D01*
X154794135Y-93189373D01*
X154675357Y-93044642D01*
X154530626Y-92925864D01*
X154530623Y-92925862D01*
X154365502Y-92837604D01*
X154186333Y-92783253D01*
X154186331Y-92783252D01*
X154000000Y-92764901D01*
X153813668Y-92783252D01*
X153813666Y-92783253D01*
X153634497Y-92837604D01*
X153469376Y-92925862D01*
X153469373Y-92925864D01*
X153324642Y-93044642D01*
X153205864Y-93189373D01*
X153205862Y-93189376D01*
X153117604Y-93354497D01*
X153063253Y-93533666D01*
X153063252Y-93533668D01*
X153044901Y-93720000D01*
X144729233Y-93720000D01*
X147269234Y-91180000D01*
X153044901Y-91180000D01*
X153063252Y-91366331D01*
X153063253Y-91366333D01*
X153117604Y-91545502D01*
X153205862Y-91710623D01*
X153205864Y-91710626D01*
X153324642Y-91855357D01*
X153469373Y-91974135D01*
X153469376Y-91974137D01*
X153634497Y-92062395D01*
X153634499Y-92062396D01*
X153813666Y-92116746D01*
X153813668Y-92116747D01*
X153830374Y-92118392D01*
X154000000Y-92135099D01*
X154186331Y-92116747D01*
X154365501Y-92062396D01*
X154530625Y-91974136D01*
X154675357Y-91855357D01*
X154794136Y-91710625D01*
X154882396Y-91545501D01*
X154936747Y-91366331D01*
X154955099Y-91180000D01*
X154936747Y-90993669D01*
X154882396Y-90814499D01*
X154829190Y-90714956D01*
X154794137Y-90649376D01*
X154794135Y-90649373D01*
X154675357Y-90504642D01*
X154530626Y-90385864D01*
X154530623Y-90385862D01*
X154365502Y-90297604D01*
X154186333Y-90243253D01*
X154186331Y-90243252D01*
X154000000Y-90224901D01*
X153813668Y-90243252D01*
X153813666Y-90243253D01*
X153634497Y-90297604D01*
X153469376Y-90385862D01*
X153469373Y-90385864D01*
X153324642Y-90504642D01*
X153205864Y-90649373D01*
X153205862Y-90649376D01*
X153117604Y-90814497D01*
X153063253Y-90993666D01*
X153063252Y-90993668D01*
X153044901Y-91180000D01*
X147269234Y-91180000D01*
X149172416Y-89276819D01*
X149233739Y-89243334D01*
X149260097Y-89240500D01*
X152925501Y-89240500D01*
X152992540Y-89260185D01*
X153038295Y-89312989D01*
X153049501Y-89364500D01*
X153049501Y-89499902D01*
X153055330Y-89529212D01*
X153077542Y-89562457D01*
X153094219Y-89573599D01*
X153110787Y-89584669D01*
X153110790Y-89584669D01*
X153110791Y-89584670D01*
X153120647Y-89586630D01*
X153140101Y-89590500D01*
X154859898Y-89590499D01*
X154889213Y-89584669D01*
X154922457Y-89562457D01*
X154944669Y-89529213D01*
X154950500Y-89499899D01*
X154950499Y-87780102D01*
X154944669Y-87750787D01*
X154944668Y-87750785D01*
X154922457Y-87717542D01*
X154889214Y-87695332D01*
X154889215Y-87695332D01*
X154889213Y-87695331D01*
X154889211Y-87695330D01*
X154889208Y-87695329D01*
X154859901Y-87689500D01*
X153140105Y-87689500D01*
X153140097Y-87689501D01*
X153110787Y-87695330D01*
X153077542Y-87717542D01*
X153055332Y-87750785D01*
X153055329Y-87750791D01*
X153049500Y-87780098D01*
X153049500Y-87915500D01*
X153029815Y-87982539D01*
X152977011Y-88028294D01*
X152925500Y-88039500D01*
X148880940Y-88039500D01*
X148840019Y-88050464D01*
X148840019Y-88050465D01*
X148802751Y-88060451D01*
X148728214Y-88080423D01*
X148728209Y-88080426D01*
X148591290Y-88159475D01*
X148591282Y-88159481D01*
X148479478Y-88271286D01*
X141487584Y-95263181D01*
X141426261Y-95296666D01*
X141399903Y-95299500D01*
X139950097Y-95299500D01*
X139883058Y-95279815D01*
X139862416Y-95263181D01*
X139711799Y-95112564D01*
X139701104Y-95100369D01*
X139681883Y-95075319D01*
X139681882Y-95075318D01*
X139656821Y-95056088D01*
X139644638Y-95045403D01*
X139622316Y-95023081D01*
X139622315Y-95023080D01*
X139594973Y-95007294D01*
X139581488Y-94998283D01*
X139556447Y-94979068D01*
X139556443Y-94979066D01*
X139556441Y-94979064D01*
X139527265Y-94966978D01*
X139512721Y-94959805D01*
X139485390Y-94944025D01*
X139485380Y-94944021D01*
X139454888Y-94935850D01*
X139439534Y-94930638D01*
X139410367Y-94918557D01*
X139410363Y-94918556D01*
X139379058Y-94914434D01*
X139363157Y-94911271D01*
X139350145Y-94907784D01*
X139332657Y-94903099D01*
X139332656Y-94903099D01*
X139301080Y-94903099D01*
X139284895Y-94902038D01*
X139253601Y-94897918D01*
X139253599Y-94897918D01*
X139222305Y-94902038D01*
X139206120Y-94903099D01*
X139174543Y-94903099D01*
X139174535Y-94903100D01*
X139144042Y-94911270D01*
X139128141Y-94914434D01*
X139096835Y-94918556D01*
X139067665Y-94930638D01*
X139052318Y-94935848D01*
X139027970Y-94942373D01*
X139021815Y-94944023D01*
X139021814Y-94944023D01*
X139021812Y-94944024D01*
X138994473Y-94959808D01*
X138979931Y-94966980D01*
X138950758Y-94979064D01*
X138950757Y-94979064D01*
X138925708Y-94998285D01*
X138912228Y-95007293D01*
X138884880Y-95023082D01*
X138862559Y-95045403D01*
X138850371Y-95056092D01*
X138825317Y-95075317D01*
X138806092Y-95100371D01*
X138795403Y-95112559D01*
X138773082Y-95134880D01*
X138757293Y-95162228D01*
X138748285Y-95175708D01*
X138729064Y-95200757D01*
X138729064Y-95200758D01*
X138716980Y-95229931D01*
X138709808Y-95244473D01*
X138694024Y-95271812D01*
X138685848Y-95302318D01*
X138680638Y-95317665D01*
X138668556Y-95346835D01*
X138664434Y-95378141D01*
X138661270Y-95394042D01*
X138653100Y-95424535D01*
X138653099Y-95424543D01*
X138653099Y-95456119D01*
X138652038Y-95472304D01*
X138647918Y-95503598D01*
X136387148Y-95503598D01*
X133885578Y-93002028D01*
X133852093Y-92940705D01*
X133857077Y-92871013D01*
X133863898Y-92855899D01*
X133906812Y-92775614D01*
X133962666Y-92591486D01*
X133981526Y-92400000D01*
X133962666Y-92208514D01*
X133906812Y-92024386D01*
X133906808Y-92024378D01*
X133816112Y-91854698D01*
X133816110Y-91854696D01*
X133816109Y-91854693D01*
X133778616Y-91809008D01*
X133694044Y-91705955D01*
X133545308Y-91583892D01*
X133545301Y-91583887D01*
X133375621Y-91493191D01*
X133375618Y-91493190D01*
X133375617Y-91493189D01*
X133375614Y-91493188D01*
X133191486Y-91437334D01*
X133191484Y-91437333D01*
X133191486Y-91437333D01*
X133000000Y-91418474D01*
X132808515Y-91437333D01*
X132707579Y-91467952D01*
X132624386Y-91493188D01*
X132624383Y-91493189D01*
X132624381Y-91493190D01*
X132624378Y-91493191D01*
X132454698Y-91583887D01*
X132454691Y-91583892D01*
X132305955Y-91705955D01*
X132183892Y-91854691D01*
X132183887Y-91854698D01*
X132093191Y-92024378D01*
X132093190Y-92024381D01*
X132037333Y-92208515D01*
X132018474Y-92400000D01*
X126947599Y-92400000D01*
X126947599Y-92311250D01*
X126919834Y-92135952D01*
X126894386Y-92057632D01*
X126864987Y-91967152D01*
X126864985Y-91967149D01*
X126864985Y-91967147D01*
X126822478Y-91883724D01*
X126784409Y-91809009D01*
X126680084Y-91665418D01*
X126554581Y-91539915D01*
X126410990Y-91435590D01*
X126403858Y-91431956D01*
X126252851Y-91355013D01*
X126084046Y-91300164D01*
X125908748Y-91272400D01*
X125908743Y-91272400D01*
X125731255Y-91272400D01*
X125731250Y-91272400D01*
X125555951Y-91300164D01*
X125387146Y-91355013D01*
X125229007Y-91435590D01*
X125149731Y-91493188D01*
X125085417Y-91539915D01*
X125085415Y-91539917D01*
X125085414Y-91539917D01*
X124959916Y-91665415D01*
X124959916Y-91665416D01*
X124959914Y-91665418D01*
X124915110Y-91727084D01*
X124855589Y-91809008D01*
X124775012Y-91967147D01*
X124720163Y-92135952D01*
X124692399Y-92311250D01*
X122800500Y-92311250D01*
X122800500Y-82877155D01*
X123150000Y-82877155D01*
X123150000Y-83525000D01*
X124066988Y-83525000D01*
X124034075Y-83582007D01*
X124000000Y-83709174D01*
X124000000Y-83840826D01*
X124034075Y-83967993D01*
X124066988Y-84025000D01*
X123150000Y-84025000D01*
X123150000Y-84672844D01*
X123156401Y-84732372D01*
X123156403Y-84732379D01*
X123206645Y-84867086D01*
X123206649Y-84867093D01*
X123292809Y-84982187D01*
X123292812Y-84982190D01*
X123407906Y-85068350D01*
X123407913Y-85068354D01*
X123542620Y-85118596D01*
X123542627Y-85118598D01*
X123602155Y-85124999D01*
X123602172Y-85125000D01*
X124250000Y-85125000D01*
X124250000Y-84208012D01*
X124307007Y-84240925D01*
X124434174Y-84275000D01*
X124565826Y-84275000D01*
X124692993Y-84240925D01*
X124750000Y-84208012D01*
X124750000Y-85125000D01*
X125397828Y-85125000D01*
X125397844Y-85124999D01*
X125457372Y-85118598D01*
X125457379Y-85118596D01*
X125592086Y-85068354D01*
X125592093Y-85068350D01*
X125707187Y-84982190D01*
X125707190Y-84982187D01*
X125793350Y-84867093D01*
X125793354Y-84867086D01*
X125843596Y-84732379D01*
X125843598Y-84732372D01*
X125849999Y-84672844D01*
X125850000Y-84672827D01*
X125850000Y-84025000D01*
X124933012Y-84025000D01*
X124965925Y-83967993D01*
X125000000Y-83840826D01*
X125000000Y-83709174D01*
X124965925Y-83582007D01*
X124933012Y-83525000D01*
X125850000Y-83525000D01*
X125850000Y-82877172D01*
X125849999Y-82877155D01*
X125843598Y-82817627D01*
X125843596Y-82817620D01*
X125793354Y-82682913D01*
X125793350Y-82682906D01*
X125707190Y-82567812D01*
X125707187Y-82567809D01*
X125592093Y-82481649D01*
X125592086Y-82481645D01*
X125457379Y-82431403D01*
X125457372Y-82431401D01*
X125397844Y-82425000D01*
X124639090Y-82425000D01*
X124572051Y-82405315D01*
X124526296Y-82352511D01*
X124516352Y-82283353D01*
X124545377Y-82219797D01*
X124604155Y-82182023D01*
X124626936Y-82177597D01*
X124686331Y-82171747D01*
X124865501Y-82117396D01*
X125030625Y-82029136D01*
X125175357Y-81910357D01*
X125294136Y-81765625D01*
X125382396Y-81600501D01*
X125436747Y-81421331D01*
X125455099Y-81235000D01*
X125436747Y-81048669D01*
X125382396Y-80869499D01*
X125294136Y-80704375D01*
X125294135Y-80704373D01*
X125175357Y-80559642D01*
X125030626Y-80440864D01*
X125030623Y-80440862D01*
X124865502Y-80352604D01*
X124686333Y-80298253D01*
X124686331Y-80298252D01*
X124500000Y-80279901D01*
X124313668Y-80298252D01*
X124313666Y-80298253D01*
X124134497Y-80352604D01*
X123969376Y-80440862D01*
X123969373Y-80440864D01*
X123824642Y-80559642D01*
X123705864Y-80704373D01*
X123705862Y-80704376D01*
X123617604Y-80869497D01*
X123563253Y-81048666D01*
X123563252Y-81048668D01*
X123544901Y-81235000D01*
X123563252Y-81421331D01*
X123563253Y-81421333D01*
X123617604Y-81600502D01*
X123705862Y-81765623D01*
X123705864Y-81765626D01*
X123824642Y-81910357D01*
X123969373Y-82029135D01*
X123969376Y-82029137D01*
X124117021Y-82108054D01*
X124134499Y-82117396D01*
X124313666Y-82171746D01*
X124313668Y-82171747D01*
X124373064Y-82177597D01*
X124437851Y-82203758D01*
X124478210Y-82260792D01*
X124481327Y-82330592D01*
X124446213Y-82390997D01*
X124384015Y-82422828D01*
X124360910Y-82425000D01*
X123602155Y-82425000D01*
X123542627Y-82431401D01*
X123542620Y-82431403D01*
X123407913Y-82481645D01*
X123407906Y-82481649D01*
X123292812Y-82567809D01*
X123292809Y-82567812D01*
X123206649Y-82682906D01*
X123206645Y-82682913D01*
X123156403Y-82817620D01*
X123156401Y-82817627D01*
X123150000Y-82877155D01*
X122800500Y-82877155D01*
X122800500Y-78695000D01*
X123544901Y-78695000D01*
X123563252Y-78881331D01*
X123563253Y-78881333D01*
X123617604Y-79060502D01*
X123705862Y-79225623D01*
X123705864Y-79225626D01*
X123824642Y-79370357D01*
X123969373Y-79489135D01*
X123969376Y-79489137D01*
X124132899Y-79576541D01*
X124134499Y-79577396D01*
X124313666Y-79631746D01*
X124313668Y-79631747D01*
X124330374Y-79633392D01*
X124500000Y-79650099D01*
X124686331Y-79631747D01*
X124865501Y-79577396D01*
X125030625Y-79489136D01*
X125175357Y-79370357D01*
X125294136Y-79225625D01*
X125382396Y-79060501D01*
X125436747Y-78881331D01*
X125455099Y-78695000D01*
X125436747Y-78508669D01*
X125382396Y-78329499D01*
X125382395Y-78329497D01*
X125294137Y-78164376D01*
X125294135Y-78164373D01*
X125175357Y-78019642D01*
X125030626Y-77900864D01*
X125030623Y-77900862D01*
X124865502Y-77812604D01*
X124686333Y-77758253D01*
X124686331Y-77758252D01*
X124500000Y-77739901D01*
X124313668Y-77758252D01*
X124313666Y-77758253D01*
X124134497Y-77812604D01*
X123969376Y-77900862D01*
X123969373Y-77900864D01*
X123824642Y-78019642D01*
X123705864Y-78164373D01*
X123705862Y-78164376D01*
X123617604Y-78329497D01*
X123563253Y-78508666D01*
X123563252Y-78508668D01*
X123544901Y-78695000D01*
X122800500Y-78695000D01*
X122800500Y-68411250D01*
X124692399Y-68411250D01*
X124692399Y-68588749D01*
X124720163Y-68764047D01*
X124775012Y-68932852D01*
X124851542Y-69083049D01*
X124855589Y-69090991D01*
X124959914Y-69234582D01*
X125085417Y-69360085D01*
X125229008Y-69464410D01*
X125303723Y-69502479D01*
X125387146Y-69544986D01*
X125387148Y-69544986D01*
X125387151Y-69544988D01*
X125477631Y-69574387D01*
X125555951Y-69599835D01*
X125731250Y-69627600D01*
X125731255Y-69627600D01*
X125908748Y-69627600D01*
X126084046Y-69599835D01*
X126252847Y-69544988D01*
X126410990Y-69464410D01*
X126554581Y-69360085D01*
X126680084Y-69234582D01*
X126784409Y-69090991D01*
X126864987Y-68932848D01*
X126919834Y-68764047D01*
X126947599Y-68588749D01*
X126947599Y-68411250D01*
X126919834Y-68235952D01*
X126880323Y-68114352D01*
X126864987Y-68067152D01*
X126864985Y-68067149D01*
X126864985Y-68067147D01*
X126819516Y-67977911D01*
X126784409Y-67909009D01*
X126680084Y-67765418D01*
X126554581Y-67639915D01*
X126410990Y-67535590D01*
X126252851Y-67455013D01*
X126084046Y-67400164D01*
X125908748Y-67372400D01*
X125908743Y-67372400D01*
X125731255Y-67372400D01*
X125731250Y-67372400D01*
X125555951Y-67400164D01*
X125387146Y-67455013D01*
X125229007Y-67535590D01*
X125201615Y-67555492D01*
X125085417Y-67639915D01*
X125085415Y-67639917D01*
X125085414Y-67639917D01*
X124959916Y-67765415D01*
X124959916Y-67765416D01*
X124959914Y-67765418D01*
X124933718Y-67801474D01*
X124855589Y-67909008D01*
X124775012Y-68067147D01*
X124720163Y-68235952D01*
X124692399Y-68411250D01*
X122800500Y-68411250D01*
X122800500Y-58411250D01*
X124692399Y-58411250D01*
X124692399Y-58588749D01*
X124720163Y-58764047D01*
X124775012Y-58932852D01*
X124848993Y-59078045D01*
X124855589Y-59090991D01*
X124959914Y-59234582D01*
X125085417Y-59360085D01*
X125229008Y-59464410D01*
X125303723Y-59502479D01*
X125387146Y-59544986D01*
X125387148Y-59544986D01*
X125387151Y-59544988D01*
X125456042Y-59567372D01*
X125555951Y-59599835D01*
X125731250Y-59627600D01*
X125731255Y-59627600D01*
X125908748Y-59627600D01*
X126084046Y-59599835D01*
X126252847Y-59544988D01*
X126410990Y-59464410D01*
X126554581Y-59360085D01*
X126680084Y-59234582D01*
X126784409Y-59090991D01*
X126864987Y-58932848D01*
X126919834Y-58764047D01*
X126922059Y-58749997D01*
X126947599Y-58588749D01*
X126947599Y-58411250D01*
X126919834Y-58235952D01*
X126894386Y-58157632D01*
X126864987Y-58067152D01*
X126864985Y-58067149D01*
X126864985Y-58067147D01*
X126784408Y-57909008D01*
X126680084Y-57765418D01*
X126554581Y-57639915D01*
X126413480Y-57537399D01*
X130324500Y-57537399D01*
X130324500Y-85037399D01*
X130324500Y-85162601D01*
X130330110Y-85183536D01*
X130356905Y-85283536D01*
X130419504Y-85391962D01*
X130419506Y-85391965D01*
X136374678Y-91347137D01*
X136408163Y-91408460D01*
X136409936Y-91418632D01*
X136414956Y-91456760D01*
X136414956Y-91456762D01*
X136467614Y-91583891D01*
X136475464Y-91602841D01*
X136571718Y-91728282D01*
X136697159Y-91824536D01*
X136843238Y-91885044D01*
X136921619Y-91895363D01*
X136999999Y-91905682D01*
X137000000Y-91905682D01*
X137000001Y-91905682D01*
X137052254Y-91898802D01*
X137156762Y-91885044D01*
X137302841Y-91824536D01*
X137428282Y-91728282D01*
X137524536Y-91602841D01*
X137585044Y-91456762D01*
X137605660Y-91300165D01*
X137605682Y-91300001D01*
X137605682Y-91299998D01*
X137585044Y-91143239D01*
X137585044Y-91143238D01*
X137524536Y-90997159D01*
X137428282Y-90871718D01*
X137302841Y-90775464D01*
X137156762Y-90714956D01*
X137118632Y-90709936D01*
X137054735Y-90681669D01*
X137047137Y-90674678D01*
X131311819Y-84939360D01*
X131278334Y-84878037D01*
X131275500Y-84851679D01*
X131275500Y-71599996D01*
X134594508Y-71599996D01*
X134594508Y-71600003D01*
X134614352Y-71725300D01*
X134614352Y-71725301D01*
X134614354Y-71725304D01*
X134671950Y-71838342D01*
X134671952Y-71838344D01*
X134671954Y-71838347D01*
X134761652Y-71928045D01*
X134761654Y-71928046D01*
X134761658Y-71928050D01*
X134874696Y-71985646D01*
X134874697Y-71985646D01*
X134874699Y-71985647D01*
X134999997Y-72005492D01*
X134999998Y-72005492D01*
X134999998Y-72005491D01*
X135000000Y-72005492D01*
X135042866Y-71998702D01*
X135112156Y-72007655D01*
X135149944Y-72033494D01*
X135630024Y-72513574D01*
X135686426Y-72569976D01*
X135760118Y-72600500D01*
X136382745Y-72600500D01*
X136449784Y-72620185D01*
X136470426Y-72636819D01*
X136561652Y-72728045D01*
X136561654Y-72728046D01*
X136561658Y-72728050D01*
X136674696Y-72785646D01*
X136674697Y-72785646D01*
X136674699Y-72785647D01*
X136799997Y-72805492D01*
X136800000Y-72805492D01*
X136800003Y-72805492D01*
X136925300Y-72785647D01*
X136925301Y-72785647D01*
X136925302Y-72785646D01*
X136925304Y-72785646D01*
X137038342Y-72728050D01*
X137128050Y-72638342D01*
X137185646Y-72525304D01*
X137185646Y-72525302D01*
X137185647Y-72525301D01*
X137185647Y-72525300D01*
X137205492Y-72400003D01*
X137205492Y-72399996D01*
X137185647Y-72274699D01*
X137185647Y-72274698D01*
X137167125Y-72238347D01*
X137128050Y-72161658D01*
X137128046Y-72161654D01*
X137128045Y-72161652D01*
X137038347Y-72071954D01*
X137038344Y-72071952D01*
X137038342Y-72071950D01*
X136925304Y-72014354D01*
X136925303Y-72014353D01*
X136925300Y-72014352D01*
X136800003Y-71994508D01*
X136799997Y-71994508D01*
X136674699Y-72014352D01*
X136674698Y-72014352D01*
X136599337Y-72052751D01*
X136561658Y-72071950D01*
X136561657Y-72071951D01*
X136561652Y-72071954D01*
X136470426Y-72163181D01*
X136409103Y-72196666D01*
X136382745Y-72199500D01*
X135934412Y-72199500D01*
X135867373Y-72179815D01*
X135846731Y-72163181D01*
X135433494Y-71749944D01*
X135400009Y-71688621D01*
X135398702Y-71642869D01*
X135405492Y-71600000D01*
X135405492Y-71599997D01*
X135405492Y-71599996D01*
X135385647Y-71474699D01*
X135385647Y-71474698D01*
X135385646Y-71474696D01*
X135328050Y-71361658D01*
X135328046Y-71361654D01*
X135328045Y-71361652D01*
X135238347Y-71271954D01*
X135238344Y-71271952D01*
X135238342Y-71271950D01*
X135125304Y-71214354D01*
X135125303Y-71214353D01*
X135125300Y-71214352D01*
X135000003Y-71194508D01*
X134999997Y-71194508D01*
X134874699Y-71214352D01*
X134874698Y-71214352D01*
X134799337Y-71252751D01*
X134761658Y-71271950D01*
X134761657Y-71271951D01*
X134761652Y-71271954D01*
X134671954Y-71361652D01*
X134671951Y-71361657D01*
X134614352Y-71474698D01*
X134614352Y-71474699D01*
X134594508Y-71599996D01*
X131275500Y-71599996D01*
X131275500Y-68499994D01*
X131618983Y-68499994D01*
X131618983Y-68500005D01*
X131637817Y-68727304D01*
X131693809Y-68948415D01*
X131785430Y-69157287D01*
X131865935Y-69280509D01*
X132420158Y-68726286D01*
X132448525Y-68794770D01*
X132516628Y-68896693D01*
X132603307Y-68983372D01*
X132705230Y-69051475D01*
X132773712Y-69079841D01*
X132218089Y-69635463D01*
X132218089Y-69635465D01*
X132244646Y-69656135D01*
X132244652Y-69656139D01*
X132445250Y-69764698D01*
X132445255Y-69764700D01*
X132660976Y-69838757D01*
X132885958Y-69876300D01*
X133114042Y-69876300D01*
X133339023Y-69838757D01*
X133554744Y-69764700D01*
X133554749Y-69764698D01*
X133755348Y-69656138D01*
X133755349Y-69656137D01*
X133781909Y-69635464D01*
X133781910Y-69635463D01*
X133226287Y-69079841D01*
X133294770Y-69051475D01*
X133396693Y-68983372D01*
X133483372Y-68896693D01*
X133551475Y-68794770D01*
X133579841Y-68726287D01*
X134134063Y-69280510D01*
X134214565Y-69157294D01*
X134214570Y-69157286D01*
X134306190Y-68948415D01*
X134362182Y-68727304D01*
X134381017Y-68500005D01*
X134381017Y-68499994D01*
X134362182Y-68272695D01*
X134306190Y-68051584D01*
X134214569Y-67842712D01*
X134134063Y-67719488D01*
X133579840Y-68273711D01*
X133551475Y-68205230D01*
X133483372Y-68103307D01*
X133396693Y-68016628D01*
X133294770Y-67948525D01*
X133226287Y-67920158D01*
X133781909Y-67364535D01*
X133755342Y-67343858D01*
X133554749Y-67235301D01*
X133554744Y-67235299D01*
X133339021Y-67161241D01*
X133334050Y-67159983D01*
X133334626Y-67157705D01*
X133280543Y-67131059D01*
X133244513Y-67071196D01*
X133246566Y-67001357D01*
X133286051Y-66943714D01*
X133328466Y-66921113D01*
X133375614Y-66906812D01*
X133545307Y-66816109D01*
X133694044Y-66694044D01*
X133816109Y-66545307D01*
X133818387Y-66541044D01*
X133867349Y-66491202D01*
X133927744Y-66475500D01*
X134501679Y-66475500D01*
X134568718Y-66495185D01*
X134589360Y-66511819D01*
X138488181Y-70410639D01*
X138521666Y-70471962D01*
X138524500Y-70498320D01*
X138524500Y-72451678D01*
X138504815Y-72518717D01*
X138488181Y-72539359D01*
X137892509Y-73135030D01*
X137871869Y-73151664D01*
X137768870Y-73217858D01*
X137768866Y-73217862D01*
X137674625Y-73326622D01*
X137674622Y-73326628D01*
X137614834Y-73457543D01*
X137594353Y-73600000D01*
X137614834Y-73742456D01*
X137660504Y-73842457D01*
X137674623Y-73873373D01*
X137768872Y-73982143D01*
X137871868Y-74048334D01*
X137892510Y-74064969D01*
X138488181Y-74660640D01*
X138521666Y-74721963D01*
X138524500Y-74748321D01*
X138524500Y-77946076D01*
X138504815Y-78013115D01*
X138488181Y-78033757D01*
X137792509Y-78729428D01*
X137771869Y-78746062D01*
X137668870Y-78812256D01*
X137668866Y-78812260D01*
X137574625Y-78921020D01*
X137574622Y-78921026D01*
X137514834Y-79051941D01*
X137494353Y-79194398D01*
X137514834Y-79336854D01*
X137530135Y-79370357D01*
X137574623Y-79467771D01*
X137668872Y-79576541D01*
X137754773Y-79631746D01*
X137771868Y-79642732D01*
X137792510Y-79659367D01*
X138488181Y-80355037D01*
X138521666Y-80416360D01*
X138524500Y-80442718D01*
X138524500Y-84937399D01*
X138524500Y-85062601D01*
X138535826Y-85104869D01*
X138556905Y-85183536D01*
X138619504Y-85291962D01*
X138619506Y-85291965D01*
X139615164Y-86287622D01*
X139615174Y-86287633D01*
X139708037Y-86380496D01*
X139762250Y-86411795D01*
X139816464Y-86443095D01*
X139816467Y-86443095D01*
X139816470Y-86443097D01*
X139897087Y-86464699D01*
X139937399Y-86475501D01*
X139937400Y-86475501D01*
X140070197Y-86475501D01*
X140070213Y-86475500D01*
X141562599Y-86475500D01*
X141562601Y-86475500D01*
X141683536Y-86443095D01*
X141791964Y-86380495D01*
X142357293Y-85815164D01*
X142377931Y-85798534D01*
X142480925Y-85732345D01*
X142480925Y-85732344D01*
X142480928Y-85732343D01*
X142575177Y-85623573D01*
X142634965Y-85492657D01*
X142655447Y-85350200D01*
X142634965Y-85207743D01*
X142575177Y-85076827D01*
X142480928Y-84968057D01*
X142359853Y-84890247D01*
X142359851Y-84890246D01*
X142359849Y-84890245D01*
X142359850Y-84890245D01*
X142221763Y-84849700D01*
X142221761Y-84849700D01*
X142077839Y-84849700D01*
X142077836Y-84849700D01*
X141939749Y-84890245D01*
X141818673Y-84968056D01*
X141724423Y-85076826D01*
X141711616Y-85104869D01*
X141686504Y-85141035D01*
X141339360Y-85488181D01*
X141278037Y-85521666D01*
X141251679Y-85524500D01*
X140248320Y-85524500D01*
X140181281Y-85504815D01*
X140160639Y-85488181D01*
X139511819Y-84839360D01*
X139478334Y-84778037D01*
X139475500Y-84751679D01*
X139475500Y-80267001D01*
X139475501Y-80266988D01*
X139475501Y-80124202D01*
X139475500Y-80124184D01*
X139475500Y-78267001D01*
X139475501Y-78266988D01*
X139475501Y-78124202D01*
X139475500Y-78124184D01*
X139475500Y-70322603D01*
X139475501Y-70322590D01*
X139475501Y-70187400D01*
X139475500Y-70187396D01*
X139443097Y-70066470D01*
X139443095Y-70066467D01*
X139443095Y-70066464D01*
X139397272Y-69987095D01*
X139397272Y-69987094D01*
X139380497Y-69958039D01*
X139380496Y-69958038D01*
X139380495Y-69958036D01*
X139291964Y-69869505D01*
X139291963Y-69869504D01*
X139287633Y-69865174D01*
X139287622Y-69865164D01*
X135041965Y-65619506D01*
X135041964Y-65619505D01*
X134933536Y-65556905D01*
X134933537Y-65556905D01*
X134893224Y-65546103D01*
X134812601Y-65524500D01*
X134812599Y-65524500D01*
X133927744Y-65524500D01*
X133860705Y-65504815D01*
X133818387Y-65458955D01*
X133816109Y-65454693D01*
X133807850Y-65444629D01*
X133694044Y-65305955D01*
X133545308Y-65183892D01*
X133545301Y-65183887D01*
X133375621Y-65093191D01*
X133375618Y-65093190D01*
X133375617Y-65093189D01*
X133375614Y-65093188D01*
X133191486Y-65037334D01*
X133191484Y-65037333D01*
X133191486Y-65037333D01*
X133000000Y-65018474D01*
X132808515Y-65037333D01*
X132716987Y-65065098D01*
X132624386Y-65093188D01*
X132624383Y-65093189D01*
X132624381Y-65093190D01*
X132624378Y-65093191D01*
X132454698Y-65183887D01*
X132454691Y-65183892D01*
X132305955Y-65305955D01*
X132183892Y-65454691D01*
X132183887Y-65454698D01*
X132093191Y-65624378D01*
X132093190Y-65624381D01*
X132093189Y-65624383D01*
X132093188Y-65624386D01*
X132078759Y-65671954D01*
X132037333Y-65808515D01*
X132018474Y-66000000D01*
X132037333Y-66191484D01*
X132047592Y-66225304D01*
X132093188Y-66375614D01*
X132093189Y-66375617D01*
X132093190Y-66375618D01*
X132093191Y-66375621D01*
X132183887Y-66545301D01*
X132183890Y-66545305D01*
X132183891Y-66545307D01*
X132191404Y-66554462D01*
X132305955Y-66694044D01*
X132388337Y-66761652D01*
X132454693Y-66816109D01*
X132454696Y-66816110D01*
X132454698Y-66816112D01*
X132624378Y-66906808D01*
X132624379Y-66906808D01*
X132624386Y-66906812D01*
X132671532Y-66921113D01*
X132729968Y-66959410D01*
X132758425Y-67023222D01*
X132747864Y-67092289D01*
X132701640Y-67144683D01*
X132665624Y-67158696D01*
X132665950Y-67159983D01*
X132660978Y-67161241D01*
X132445255Y-67235299D01*
X132445250Y-67235301D01*
X132244650Y-67343862D01*
X132218089Y-67364534D01*
X132218089Y-67364536D01*
X132773712Y-67920158D01*
X132705230Y-67948525D01*
X132603307Y-68016628D01*
X132516628Y-68103307D01*
X132448525Y-68205230D01*
X132420158Y-68273712D01*
X131865934Y-67719488D01*
X131785431Y-67842709D01*
X131693809Y-68051584D01*
X131637817Y-68272695D01*
X131618983Y-68499994D01*
X131275500Y-68499994D01*
X131275500Y-63500000D01*
X132018474Y-63500000D01*
X132037333Y-63691484D01*
X132037334Y-63691486D01*
X132093188Y-63875614D01*
X132093189Y-63875617D01*
X132093190Y-63875618D01*
X132093191Y-63875621D01*
X132183887Y-64045301D01*
X132183890Y-64045305D01*
X132183891Y-64045307D01*
X132187565Y-64049784D01*
X132305955Y-64194044D01*
X132404231Y-64274696D01*
X132454693Y-64316109D01*
X132454696Y-64316110D01*
X132454698Y-64316112D01*
X132624378Y-64406808D01*
X132624379Y-64406808D01*
X132624386Y-64406812D01*
X132808514Y-64462666D01*
X132808513Y-64462666D01*
X132825682Y-64464356D01*
X133000000Y-64481526D01*
X133191486Y-64462666D01*
X133375614Y-64406812D01*
X133545307Y-64316109D01*
X133694044Y-64194044D01*
X133816109Y-64045307D01*
X133818387Y-64041044D01*
X133867349Y-63991202D01*
X133927744Y-63975500D01*
X142151679Y-63975500D01*
X142218718Y-63995185D01*
X142239360Y-64011819D01*
X151358036Y-73130495D01*
X151466464Y-73193095D01*
X151587399Y-73225500D01*
X151587404Y-73225500D01*
X151587830Y-73225556D01*
X151606579Y-73229517D01*
X151642432Y-73240045D01*
X151678038Y-73250500D01*
X151678039Y-73250500D01*
X151821962Y-73250500D01*
X151821962Y-73250499D01*
X151960053Y-73209953D01*
X152081128Y-73132143D01*
X152175377Y-73023373D01*
X152235165Y-72892457D01*
X152255647Y-72750000D01*
X152235165Y-72607543D01*
X152175377Y-72476627D01*
X152081128Y-72367857D01*
X151960053Y-72290047D01*
X151960050Y-72290045D01*
X151852323Y-72258414D01*
X151799577Y-72227118D01*
X142691965Y-63119506D01*
X142691964Y-63119505D01*
X142583536Y-63056905D01*
X142583537Y-63056905D01*
X142543224Y-63046103D01*
X142462601Y-63024500D01*
X142462599Y-63024500D01*
X133927744Y-63024500D01*
X133860705Y-63004815D01*
X133818387Y-62958955D01*
X133816109Y-62954693D01*
X133816106Y-62954689D01*
X133694044Y-62805955D01*
X133545308Y-62683892D01*
X133545301Y-62683887D01*
X133375621Y-62593191D01*
X133375618Y-62593190D01*
X133375617Y-62593189D01*
X133375614Y-62593188D01*
X133191486Y-62537334D01*
X133191484Y-62537333D01*
X133191486Y-62537333D01*
X133000000Y-62518474D01*
X132808515Y-62537333D01*
X132699799Y-62570311D01*
X132624386Y-62593188D01*
X132624383Y-62593189D01*
X132624381Y-62593190D01*
X132624378Y-62593191D01*
X132454698Y-62683887D01*
X132454691Y-62683892D01*
X132305955Y-62805955D01*
X132183892Y-62954691D01*
X132183887Y-62954698D01*
X132093191Y-63124378D01*
X132093190Y-63124381D01*
X132093189Y-63124383D01*
X132093188Y-63124386D01*
X132072923Y-63191192D01*
X132037333Y-63308515D01*
X132018474Y-63500000D01*
X131275500Y-63500000D01*
X131275500Y-61000000D01*
X132018474Y-61000000D01*
X132037333Y-61191484D01*
X132037334Y-61191486D01*
X132093188Y-61375614D01*
X132093189Y-61375617D01*
X132093190Y-61375618D01*
X132093191Y-61375621D01*
X132183887Y-61545301D01*
X132183892Y-61545308D01*
X132305955Y-61694044D01*
X132388337Y-61761652D01*
X132454693Y-61816109D01*
X132454696Y-61816110D01*
X132454698Y-61816112D01*
X132624378Y-61906808D01*
X132624379Y-61906808D01*
X132624386Y-61906812D01*
X132808514Y-61962666D01*
X132808513Y-61962666D01*
X132825682Y-61964356D01*
X133000000Y-61981526D01*
X133191486Y-61962666D01*
X133375614Y-61906812D01*
X133545307Y-61816109D01*
X133694044Y-61694044D01*
X133816109Y-61545307D01*
X133906812Y-61375614D01*
X133962666Y-61191486D01*
X133981526Y-61000000D01*
X133962666Y-60808514D01*
X133906812Y-60624386D01*
X133862757Y-60541965D01*
X133816112Y-60454698D01*
X133816110Y-60454696D01*
X133816109Y-60454693D01*
X133739123Y-60360885D01*
X133694044Y-60305955D01*
X133567924Y-60202452D01*
X133545307Y-60183891D01*
X133545305Y-60183890D01*
X133545301Y-60183887D01*
X133375621Y-60093191D01*
X133375618Y-60093190D01*
X133375617Y-60093189D01*
X133375614Y-60093188D01*
X133191486Y-60037334D01*
X133191484Y-60037333D01*
X133191486Y-60037333D01*
X133000000Y-60018474D01*
X132808515Y-60037333D01*
X132705054Y-60068718D01*
X132624386Y-60093188D01*
X132624383Y-60093189D01*
X132624381Y-60093190D01*
X132624378Y-60093191D01*
X132454698Y-60183887D01*
X132454691Y-60183892D01*
X132305955Y-60305955D01*
X132183892Y-60454691D01*
X132183887Y-60454698D01*
X132093191Y-60624378D01*
X132093190Y-60624381D01*
X132093189Y-60624383D01*
X132093188Y-60624386D01*
X132070311Y-60699799D01*
X132037333Y-60808515D01*
X132018474Y-61000000D01*
X131275500Y-61000000D01*
X131275500Y-58500000D01*
X132018474Y-58500000D01*
X132037333Y-58691484D01*
X132037334Y-58691486D01*
X132093188Y-58875614D01*
X132093189Y-58875617D01*
X132093190Y-58875618D01*
X132093191Y-58875621D01*
X132183887Y-59045301D01*
X132183892Y-59045308D01*
X132305955Y-59194044D01*
X132355353Y-59234583D01*
X132454693Y-59316109D01*
X132454696Y-59316110D01*
X132454698Y-59316112D01*
X132624378Y-59406808D01*
X132624379Y-59406808D01*
X132624386Y-59406812D01*
X132808514Y-59462666D01*
X132808513Y-59462666D01*
X132825682Y-59464356D01*
X133000000Y-59481526D01*
X133191486Y-59462666D01*
X133375614Y-59406812D01*
X133545307Y-59316109D01*
X133694044Y-59194044D01*
X133816109Y-59045307D01*
X133906812Y-58875614D01*
X133962666Y-58691486D01*
X133981526Y-58500000D01*
X133962666Y-58308514D01*
X133906812Y-58124386D01*
X133902109Y-58115587D01*
X133816112Y-57954698D01*
X133816110Y-57954696D01*
X133816109Y-57954693D01*
X133778616Y-57909008D01*
X133694044Y-57805955D01*
X133545308Y-57683892D01*
X133545301Y-57683887D01*
X133375621Y-57593191D01*
X133375618Y-57593190D01*
X133375617Y-57593189D01*
X133375614Y-57593188D01*
X133191486Y-57537334D01*
X133191484Y-57537333D01*
X133191486Y-57537333D01*
X133000000Y-57518474D01*
X132808515Y-57537333D01*
X132699799Y-57570311D01*
X132624386Y-57593188D01*
X132624383Y-57593189D01*
X132624381Y-57593190D01*
X132624378Y-57593191D01*
X132454698Y-57683887D01*
X132454691Y-57683892D01*
X132305955Y-57805955D01*
X132183892Y-57954691D01*
X132183887Y-57954698D01*
X132093191Y-58124378D01*
X132093190Y-58124381D01*
X132093189Y-58124383D01*
X132093188Y-58124386D01*
X132075521Y-58182626D01*
X132037333Y-58308515D01*
X132018474Y-58500000D01*
X131275500Y-58500000D01*
X131275500Y-57848319D01*
X131295185Y-57781280D01*
X131311814Y-57760643D01*
X132572458Y-56499998D01*
X138994318Y-56499998D01*
X138994318Y-56500001D01*
X139014955Y-56656760D01*
X139014956Y-56656762D01*
X139057767Y-56760118D01*
X139075464Y-56802841D01*
X139171718Y-56928282D01*
X139297159Y-57024536D01*
X139443238Y-57085044D01*
X139521619Y-57095363D01*
X139599999Y-57105682D01*
X139600000Y-57105682D01*
X139600001Y-57105682D01*
X139652254Y-57098802D01*
X139756762Y-57085044D01*
X139902836Y-57024538D01*
X139902837Y-57024538D01*
X139902837Y-57024537D01*
X139902841Y-57024536D01*
X139933353Y-57001123D01*
X139998520Y-56975930D01*
X140008838Y-56975500D01*
X140251679Y-56975500D01*
X140318718Y-56995185D01*
X140339360Y-57011819D01*
X144813455Y-61485914D01*
X144832841Y-61511043D01*
X144850080Y-61540550D01*
X145921959Y-62683887D01*
X145990963Y-62757491D01*
X146022453Y-62819862D01*
X146024500Y-62842300D01*
X146024500Y-64937399D01*
X146024500Y-65062601D01*
X146056905Y-65183536D01*
X146095277Y-65250000D01*
X146119504Y-65291962D01*
X146119506Y-65291965D01*
X152863181Y-72035640D01*
X152896666Y-72096963D01*
X152899500Y-72123321D01*
X152899500Y-72876679D01*
X152879815Y-72943718D01*
X152863181Y-72964360D01*
X152189360Y-73638181D01*
X152128037Y-73671666D01*
X152101679Y-73674500D01*
X146948321Y-73674500D01*
X146881282Y-73654815D01*
X146860640Y-73638181D01*
X146713295Y-73490836D01*
X146688182Y-73454667D01*
X146675377Y-73426627D01*
X146581128Y-73317857D01*
X146460053Y-73240047D01*
X146460051Y-73240046D01*
X146460049Y-73240045D01*
X146460050Y-73240045D01*
X146321963Y-73199500D01*
X146321961Y-73199500D01*
X146178039Y-73199500D01*
X146178036Y-73199500D01*
X146039949Y-73240045D01*
X145918873Y-73317856D01*
X145824623Y-73426626D01*
X145824622Y-73426628D01*
X145764834Y-73557543D01*
X145744353Y-73700000D01*
X145764834Y-73842456D01*
X145778953Y-73873371D01*
X145824623Y-73973373D01*
X145918872Y-74082143D01*
X146021868Y-74148334D01*
X146042510Y-74164969D01*
X146319505Y-74441964D01*
X146408036Y-74530495D01*
X146516464Y-74593095D01*
X146637399Y-74625500D01*
X146637401Y-74625500D01*
X152412599Y-74625500D01*
X152412601Y-74625500D01*
X152533536Y-74593095D01*
X152641964Y-74530495D01*
X153755495Y-73416964D01*
X154860640Y-72311819D01*
X154921963Y-72278334D01*
X154948321Y-72275500D01*
X157137399Y-72275500D01*
X162737399Y-72275500D01*
X189951679Y-72275500D01*
X190018718Y-72295185D01*
X190039360Y-72311819D01*
X195465164Y-77737622D01*
X195465174Y-77737633D01*
X195558037Y-77830496D01*
X195612250Y-77861795D01*
X195666464Y-77893095D01*
X195666467Y-77893095D01*
X195666470Y-77893097D01*
X195747087Y-77914699D01*
X195787399Y-77925501D01*
X195787400Y-77925501D01*
X195920197Y-77925501D01*
X195920213Y-77925500D01*
X203298386Y-77925500D01*
X203365425Y-77945185D01*
X203389793Y-77965710D01*
X204091907Y-78731652D01*
X204122697Y-78794372D01*
X204124500Y-78815442D01*
X204124500Y-79909405D01*
X204115967Y-79948633D01*
X204117333Y-79949035D01*
X204114835Y-79957542D01*
X204094353Y-80100000D01*
X204114834Y-80242456D01*
X204126038Y-80266988D01*
X204174623Y-80373373D01*
X204268872Y-80482143D01*
X204389947Y-80559953D01*
X204389950Y-80559954D01*
X204389949Y-80559954D01*
X204528036Y-80600499D01*
X204528038Y-80600500D01*
X204528039Y-80600500D01*
X204671962Y-80600500D01*
X204671962Y-80600499D01*
X204810053Y-80559953D01*
X204931128Y-80482143D01*
X205025377Y-80373373D01*
X205085165Y-80242457D01*
X205105647Y-80100000D01*
X205085165Y-79957543D01*
X205085163Y-79957538D01*
X205082667Y-79949035D01*
X205084032Y-79948633D01*
X205075500Y-79909405D01*
X205075500Y-77965139D01*
X205075561Y-77961266D01*
X205077691Y-77893094D01*
X205095458Y-77324548D01*
X205117226Y-77258157D01*
X205131711Y-77240746D01*
X205407493Y-76964964D01*
X205428131Y-76948334D01*
X205476967Y-76916950D01*
X205531128Y-76882143D01*
X205625377Y-76773373D01*
X205685165Y-76642457D01*
X205705647Y-76500000D01*
X205685165Y-76357543D01*
X205625377Y-76226627D01*
X205531128Y-76117857D01*
X205410053Y-76040047D01*
X205410051Y-76040046D01*
X205410049Y-76040045D01*
X205410050Y-76040045D01*
X205271963Y-75999500D01*
X205271961Y-75999500D01*
X205128039Y-75999500D01*
X205128036Y-75999500D01*
X204989949Y-76040045D01*
X204868873Y-76117856D01*
X204774623Y-76226626D01*
X204761816Y-76254669D01*
X204736704Y-76290835D01*
X204089360Y-76938181D01*
X204028037Y-76971666D01*
X204001679Y-76974500D01*
X196098320Y-76974500D01*
X196031281Y-76954815D01*
X196010639Y-76938181D01*
X190491965Y-71419506D01*
X190491964Y-71419505D01*
X190383536Y-71356905D01*
X190383537Y-71356905D01*
X190343224Y-71346103D01*
X190262601Y-71324500D01*
X190262599Y-71324500D01*
X168066482Y-71324500D01*
X167999443Y-71304815D01*
X167978801Y-71288181D01*
X167290595Y-70599975D01*
X167257110Y-70538652D01*
X167254276Y-70512294D01*
X167254276Y-70117254D01*
X167273961Y-70050215D01*
X167290595Y-70029572D01*
X167292115Y-70028051D01*
X167292118Y-70028050D01*
X167381826Y-69938342D01*
X167439422Y-69825304D01*
X167439422Y-69825302D01*
X167439423Y-69825301D01*
X167439423Y-69825300D01*
X167459268Y-69700003D01*
X167459268Y-69699996D01*
X167439423Y-69574699D01*
X167439423Y-69574698D01*
X167424284Y-69544986D01*
X167381826Y-69461658D01*
X167381822Y-69461654D01*
X167381821Y-69461652D01*
X167292123Y-69371954D01*
X167292120Y-69371952D01*
X167292118Y-69371950D01*
X167179080Y-69314354D01*
X167179079Y-69314353D01*
X167179076Y-69314352D01*
X167053779Y-69294508D01*
X167053773Y-69294508D01*
X166928475Y-69314352D01*
X166928474Y-69314352D01*
X166858937Y-69349784D01*
X166815434Y-69371950D01*
X166815433Y-69371951D01*
X166815428Y-69371954D01*
X166725730Y-69461652D01*
X166725727Y-69461657D01*
X166725726Y-69461658D01*
X166724324Y-69464410D01*
X166668128Y-69574698D01*
X166668128Y-69574699D01*
X166648284Y-69699996D01*
X166648284Y-69700003D01*
X166668128Y-69825300D01*
X166668128Y-69825301D01*
X166686581Y-69861517D01*
X166725726Y-69938342D01*
X166815434Y-70028050D01*
X166815436Y-70028051D01*
X166816957Y-70029572D01*
X166850442Y-70090895D01*
X166853276Y-70117254D01*
X166853276Y-70504742D01*
X166833591Y-70571781D01*
X166816957Y-70592423D01*
X166121199Y-71288181D01*
X166059876Y-71321666D01*
X166033518Y-71324500D01*
X163916482Y-71324500D01*
X163849443Y-71304815D01*
X163828801Y-71288181D01*
X163311819Y-70771199D01*
X163278334Y-70709876D01*
X163275500Y-70683518D01*
X163275500Y-62198321D01*
X163295185Y-62131282D01*
X163311819Y-62110640D01*
X168922463Y-56499996D01*
X171149418Y-56499996D01*
X171149418Y-56500003D01*
X171169262Y-56625300D01*
X171169262Y-56625301D01*
X171185292Y-56656760D01*
X171226860Y-56738342D01*
X171316568Y-56828050D01*
X171316570Y-56828051D01*
X171318091Y-56829572D01*
X171351576Y-56890895D01*
X171354410Y-56917254D01*
X171354410Y-66637655D01*
X171334725Y-66704694D01*
X171318091Y-66725336D01*
X171226864Y-66816562D01*
X171226861Y-66816567D01*
X171226860Y-66816568D01*
X171224116Y-66821954D01*
X171169262Y-66929608D01*
X171169262Y-66929609D01*
X171149418Y-67054906D01*
X171149418Y-67054913D01*
X171169262Y-67180210D01*
X171169262Y-67180211D01*
X171187715Y-67216427D01*
X171226860Y-67293252D01*
X171226862Y-67293254D01*
X171226864Y-67293257D01*
X171316562Y-67382955D01*
X171316564Y-67382956D01*
X171316568Y-67382960D01*
X171429606Y-67440556D01*
X171429607Y-67440556D01*
X171429609Y-67440557D01*
X171554907Y-67460402D01*
X171554910Y-67460402D01*
X171554913Y-67460402D01*
X171680210Y-67440557D01*
X171680211Y-67440557D01*
X171680212Y-67440556D01*
X171680214Y-67440556D01*
X171793252Y-67382960D01*
X171882960Y-67293252D01*
X171940556Y-67180214D01*
X171940556Y-67180211D01*
X171944486Y-67172499D01*
X171992460Y-67121702D01*
X172060281Y-67104907D01*
X172126416Y-67127444D01*
X172165455Y-67172497D01*
X172227111Y-67293502D01*
X172227116Y-67293509D01*
X172316814Y-67383207D01*
X172316816Y-67383208D01*
X172316820Y-67383212D01*
X172429858Y-67440808D01*
X172429859Y-67440808D01*
X172429861Y-67440809D01*
X172555159Y-67460654D01*
X172555162Y-67460654D01*
X172555165Y-67460654D01*
X172680462Y-67440809D01*
X172680463Y-67440809D01*
X172680464Y-67440808D01*
X172680466Y-67440808D01*
X172793504Y-67383212D01*
X172883212Y-67293504D01*
X172940808Y-67180466D01*
X172940808Y-67180463D01*
X172944738Y-67172751D01*
X172992712Y-67121954D01*
X173060533Y-67105159D01*
X173126668Y-67127696D01*
X173165707Y-67172749D01*
X173227363Y-67293754D01*
X173227368Y-67293761D01*
X173317066Y-67383459D01*
X173317068Y-67383460D01*
X173317072Y-67383464D01*
X173430110Y-67441060D01*
X173430111Y-67441060D01*
X173430113Y-67441061D01*
X173555411Y-67460906D01*
X173555414Y-67460906D01*
X173555417Y-67460906D01*
X173680714Y-67441061D01*
X173680715Y-67441061D01*
X173680716Y-67441060D01*
X173680718Y-67441060D01*
X173793756Y-67383464D01*
X173883464Y-67293756D01*
X173941060Y-67180718D01*
X173941060Y-67180715D01*
X173944990Y-67173003D01*
X173992964Y-67122206D01*
X174060785Y-67105411D01*
X174126920Y-67127948D01*
X174165959Y-67173001D01*
X174227615Y-67294006D01*
X174227620Y-67294013D01*
X174317318Y-67383711D01*
X174317320Y-67383712D01*
X174317324Y-67383716D01*
X174430362Y-67441312D01*
X174430363Y-67441312D01*
X174430365Y-67441313D01*
X174555663Y-67461158D01*
X174555666Y-67461158D01*
X174555669Y-67461158D01*
X174680966Y-67441313D01*
X174680967Y-67441313D01*
X174680968Y-67441312D01*
X174680970Y-67441312D01*
X174794008Y-67383716D01*
X174883716Y-67294008D01*
X174941312Y-67180970D01*
X174941312Y-67180967D01*
X174945242Y-67173255D01*
X174993216Y-67122458D01*
X175061037Y-67105663D01*
X175127172Y-67128200D01*
X175166211Y-67173253D01*
X175227867Y-67294258D01*
X175227872Y-67294265D01*
X175317570Y-67383963D01*
X175317572Y-67383964D01*
X175317576Y-67383968D01*
X175430614Y-67441564D01*
X175430615Y-67441564D01*
X175430617Y-67441565D01*
X175555915Y-67461410D01*
X175555918Y-67461410D01*
X175555921Y-67461410D01*
X175681218Y-67441565D01*
X175681219Y-67441565D01*
X175681220Y-67441564D01*
X175681222Y-67441564D01*
X175794260Y-67383968D01*
X175883968Y-67294260D01*
X175941564Y-67181222D01*
X175941564Y-67181219D01*
X175945494Y-67173507D01*
X175993468Y-67122710D01*
X176061289Y-67105915D01*
X176127424Y-67128452D01*
X176166463Y-67173505D01*
X176228119Y-67294510D01*
X176228124Y-67294517D01*
X176317822Y-67384215D01*
X176317824Y-67384216D01*
X176317828Y-67384220D01*
X176430866Y-67441816D01*
X176430867Y-67441816D01*
X176430869Y-67441817D01*
X176556167Y-67461662D01*
X176556170Y-67461662D01*
X176556173Y-67461662D01*
X176681470Y-67441817D01*
X176681471Y-67441817D01*
X176681472Y-67441816D01*
X176681474Y-67441816D01*
X176794512Y-67384220D01*
X176884220Y-67294512D01*
X176941816Y-67181474D01*
X176941816Y-67181471D01*
X176945746Y-67173759D01*
X176993720Y-67122962D01*
X177061541Y-67106167D01*
X177127676Y-67128704D01*
X177166715Y-67173757D01*
X177228371Y-67294762D01*
X177228376Y-67294769D01*
X177318074Y-67384467D01*
X177318076Y-67384468D01*
X177318080Y-67384472D01*
X177431118Y-67442068D01*
X177431119Y-67442068D01*
X177431121Y-67442069D01*
X177556419Y-67461914D01*
X177556422Y-67461914D01*
X177556425Y-67461914D01*
X177681722Y-67442069D01*
X177681723Y-67442069D01*
X177681724Y-67442068D01*
X177681726Y-67442068D01*
X177794764Y-67384472D01*
X177884472Y-67294764D01*
X177942068Y-67181726D01*
X177942068Y-67181723D01*
X177945998Y-67174011D01*
X177993972Y-67123214D01*
X178061793Y-67106419D01*
X178127928Y-67128956D01*
X178166967Y-67174009D01*
X178228623Y-67295014D01*
X178228628Y-67295021D01*
X178318326Y-67384719D01*
X178318328Y-67384720D01*
X178318332Y-67384724D01*
X178431370Y-67442320D01*
X178431371Y-67442320D01*
X178431373Y-67442321D01*
X178556671Y-67462166D01*
X178556674Y-67462166D01*
X178556677Y-67462166D01*
X178681974Y-67442321D01*
X178681975Y-67442321D01*
X178681976Y-67442320D01*
X178681978Y-67442320D01*
X178795016Y-67384724D01*
X178884724Y-67295016D01*
X178942320Y-67181978D01*
X178942320Y-67181976D01*
X178942321Y-67181975D01*
X178942321Y-67181974D01*
X178962166Y-67056677D01*
X178962166Y-67056670D01*
X178942321Y-66931373D01*
X178942321Y-66931372D01*
X178932276Y-66911658D01*
X178884724Y-66818332D01*
X178884720Y-66818328D01*
X178884719Y-66818326D01*
X178793493Y-66727100D01*
X178760008Y-66665777D01*
X178757174Y-66639419D01*
X178757174Y-66555974D01*
X178776859Y-66488935D01*
X178829663Y-66443180D01*
X178898821Y-66433236D01*
X178921856Y-66440539D01*
X178922217Y-66439431D01*
X178931499Y-66442447D01*
X179056797Y-66462292D01*
X179056800Y-66462292D01*
X179056803Y-66462292D01*
X179182100Y-66442447D01*
X179182101Y-66442447D01*
X179182102Y-66442446D01*
X179182104Y-66442446D01*
X179295142Y-66384850D01*
X179384850Y-66295142D01*
X179442446Y-66182104D01*
X179442446Y-66182102D01*
X179442447Y-66182101D01*
X179442447Y-66182100D01*
X179462292Y-66056803D01*
X179462292Y-66056796D01*
X179442447Y-65931499D01*
X179442447Y-65931498D01*
X179430541Y-65908132D01*
X179384850Y-65818458D01*
X179384846Y-65818454D01*
X179384845Y-65818452D01*
X179293619Y-65727226D01*
X179260134Y-65665903D01*
X179257300Y-65639545D01*
X179257300Y-52667254D01*
X179276985Y-52600215D01*
X179293619Y-52579572D01*
X179295139Y-52578051D01*
X179295142Y-52578050D01*
X179384850Y-52488342D01*
X179442446Y-52375304D01*
X179442446Y-52375302D01*
X179442447Y-52375301D01*
X179442447Y-52375300D01*
X179462292Y-52250003D01*
X179462292Y-52249996D01*
X179442447Y-52124699D01*
X179442447Y-52124698D01*
X179439145Y-52118218D01*
X179384850Y-52011658D01*
X179384846Y-52011654D01*
X179384845Y-52011652D01*
X179295147Y-51921954D01*
X179295144Y-51921952D01*
X179295142Y-51921950D01*
X179182104Y-51864354D01*
X179182103Y-51864353D01*
X179182100Y-51864352D01*
X179056803Y-51844508D01*
X179056795Y-51844508D01*
X179051136Y-51845404D01*
X178981843Y-51836446D01*
X178928393Y-51791447D01*
X178907757Y-51724694D01*
X178921260Y-51666635D01*
X178942320Y-51625304D01*
X178942320Y-51625301D01*
X178942321Y-51625300D01*
X178962166Y-51500003D01*
X178962166Y-51499996D01*
X178942321Y-51374699D01*
X178942321Y-51374698D01*
X178935892Y-51362080D01*
X178884724Y-51261658D01*
X178884720Y-51261654D01*
X178884719Y-51261652D01*
X178795021Y-51171954D01*
X178795018Y-51171952D01*
X178795016Y-51171950D01*
X178681978Y-51114354D01*
X178681977Y-51114353D01*
X178681974Y-51114352D01*
X178556677Y-51094508D01*
X178556671Y-51094508D01*
X178431373Y-51114352D01*
X178431372Y-51114352D01*
X178356011Y-51152751D01*
X178318332Y-51171950D01*
X178318331Y-51171951D01*
X178318326Y-51171954D01*
X178228628Y-51261652D01*
X178228625Y-51261657D01*
X178167033Y-51382537D01*
X178119058Y-51433333D01*
X178051237Y-51450128D01*
X177985102Y-51427590D01*
X177946063Y-51382537D01*
X177940526Y-51371670D01*
X177884472Y-51261658D01*
X177884468Y-51261654D01*
X177884467Y-51261652D01*
X177794769Y-51171954D01*
X177794766Y-51171952D01*
X177794764Y-51171950D01*
X177681726Y-51114354D01*
X177681725Y-51114353D01*
X177681722Y-51114352D01*
X177556425Y-51094508D01*
X177556419Y-51094508D01*
X177431121Y-51114352D01*
X177431120Y-51114352D01*
X177355759Y-51152751D01*
X177318080Y-51171950D01*
X177318079Y-51171951D01*
X177318074Y-51171954D01*
X177228376Y-51261652D01*
X177228373Y-51261657D01*
X177166781Y-51382537D01*
X177118806Y-51433333D01*
X177050985Y-51450128D01*
X176984850Y-51427590D01*
X176945811Y-51382537D01*
X176940274Y-51371670D01*
X176884220Y-51261658D01*
X176884216Y-51261654D01*
X176884215Y-51261652D01*
X176794517Y-51171954D01*
X176794514Y-51171952D01*
X176794512Y-51171950D01*
X176681474Y-51114354D01*
X176681473Y-51114353D01*
X176681470Y-51114352D01*
X176556173Y-51094508D01*
X176556167Y-51094508D01*
X176430869Y-51114352D01*
X176430868Y-51114352D01*
X176355507Y-51152751D01*
X176317828Y-51171950D01*
X176317827Y-51171951D01*
X176317822Y-51171954D01*
X176228124Y-51261652D01*
X176228121Y-51261657D01*
X176166529Y-51382537D01*
X176118554Y-51433333D01*
X176050733Y-51450128D01*
X175984598Y-51427590D01*
X175945559Y-51382537D01*
X175940022Y-51371670D01*
X175883968Y-51261658D01*
X175883964Y-51261654D01*
X175883963Y-51261652D01*
X175794265Y-51171954D01*
X175794262Y-51171952D01*
X175794260Y-51171950D01*
X175681222Y-51114354D01*
X175681221Y-51114353D01*
X175681218Y-51114352D01*
X175555921Y-51094508D01*
X175555915Y-51094508D01*
X175430617Y-51114352D01*
X175430616Y-51114352D01*
X175355255Y-51152751D01*
X175317576Y-51171950D01*
X175317575Y-51171951D01*
X175317570Y-51171954D01*
X175227872Y-51261652D01*
X175227869Y-51261657D01*
X175170270Y-51374698D01*
X175170270Y-51374699D01*
X175150426Y-51499996D01*
X175150426Y-51500003D01*
X175170270Y-51625300D01*
X175170270Y-51625301D01*
X175172523Y-51629722D01*
X175227868Y-51738342D01*
X175317576Y-51828050D01*
X175317578Y-51828051D01*
X175319099Y-51829572D01*
X175352584Y-51890895D01*
X175355418Y-51917254D01*
X175355418Y-56750825D01*
X175335733Y-56817864D01*
X175282929Y-56863619D01*
X175213771Y-56873563D01*
X175190734Y-56866262D01*
X175190375Y-56867369D01*
X175181092Y-56864352D01*
X175055795Y-56844508D01*
X175055787Y-56844508D01*
X175050128Y-56845404D01*
X174980835Y-56836446D01*
X174927385Y-56791447D01*
X174906749Y-56724694D01*
X174920252Y-56666635D01*
X174941312Y-56625304D01*
X174941312Y-56625301D01*
X174941313Y-56625300D01*
X174961158Y-56500003D01*
X174961158Y-56499996D01*
X174941313Y-56374699D01*
X174941313Y-56374698D01*
X174941312Y-56374696D01*
X174883716Y-56261658D01*
X174883712Y-56261654D01*
X174883711Y-56261652D01*
X174794013Y-56171954D01*
X174794010Y-56171952D01*
X174794008Y-56171950D01*
X174680970Y-56114354D01*
X174680969Y-56114353D01*
X174680966Y-56114352D01*
X174555669Y-56094508D01*
X174555663Y-56094508D01*
X174430365Y-56114352D01*
X174430364Y-56114352D01*
X174360513Y-56149944D01*
X174317324Y-56171950D01*
X174317323Y-56171951D01*
X174317318Y-56171954D01*
X174227620Y-56261652D01*
X174227617Y-56261657D01*
X174227616Y-56261658D01*
X174170020Y-56374696D01*
X174166025Y-56382537D01*
X174118050Y-56433333D01*
X174050229Y-56450128D01*
X173984094Y-56427590D01*
X173945055Y-56382537D01*
X173941060Y-56374696D01*
X173883464Y-56261658D01*
X173883460Y-56261654D01*
X173883459Y-56261652D01*
X173793761Y-56171954D01*
X173793758Y-56171952D01*
X173793756Y-56171950D01*
X173680718Y-56114354D01*
X173680717Y-56114353D01*
X173680714Y-56114352D01*
X173555417Y-56094508D01*
X173555411Y-56094508D01*
X173430113Y-56114352D01*
X173430112Y-56114352D01*
X173360261Y-56149944D01*
X173317072Y-56171950D01*
X173317071Y-56171951D01*
X173317066Y-56171954D01*
X173227368Y-56261652D01*
X173227365Y-56261657D01*
X173227364Y-56261658D01*
X173169768Y-56374696D01*
X173165773Y-56382537D01*
X173117798Y-56433333D01*
X173049977Y-56450128D01*
X172983842Y-56427590D01*
X172944803Y-56382537D01*
X172940808Y-56374696D01*
X172883212Y-56261658D01*
X172883208Y-56261654D01*
X172883207Y-56261652D01*
X172793509Y-56171954D01*
X172793506Y-56171952D01*
X172793504Y-56171950D01*
X172680466Y-56114354D01*
X172680465Y-56114353D01*
X172680462Y-56114352D01*
X172555165Y-56094508D01*
X172555159Y-56094508D01*
X172429861Y-56114352D01*
X172429860Y-56114352D01*
X172360009Y-56149944D01*
X172316820Y-56171950D01*
X172316819Y-56171951D01*
X172316814Y-56171954D01*
X172227116Y-56261652D01*
X172227113Y-56261657D01*
X172227112Y-56261658D01*
X172169516Y-56374696D01*
X172165521Y-56382537D01*
X172117546Y-56433333D01*
X172049725Y-56450128D01*
X171983590Y-56427590D01*
X171944551Y-56382537D01*
X171940556Y-56374696D01*
X171882960Y-56261658D01*
X171882956Y-56261654D01*
X171882955Y-56261652D01*
X171793257Y-56171954D01*
X171793254Y-56171952D01*
X171793252Y-56171950D01*
X171680214Y-56114354D01*
X171680213Y-56114353D01*
X171680210Y-56114352D01*
X171554913Y-56094508D01*
X171554907Y-56094508D01*
X171429609Y-56114352D01*
X171429608Y-56114352D01*
X171359757Y-56149944D01*
X171316568Y-56171950D01*
X171316567Y-56171951D01*
X171316562Y-56171954D01*
X171226864Y-56261652D01*
X171226861Y-56261657D01*
X171169262Y-56374698D01*
X171169262Y-56374699D01*
X171149418Y-56499996D01*
X168922463Y-56499996D01*
X175060640Y-50361819D01*
X175121963Y-50328334D01*
X175148321Y-50325500D01*
X201864121Y-50325500D01*
X201891715Y-50328609D01*
X201900000Y-50330500D01*
X202072613Y-50330500D01*
X202139652Y-50350185D01*
X202156022Y-50362745D01*
X202508912Y-50683554D01*
X202545275Y-50743213D01*
X202549500Y-50775305D01*
X202549500Y-52082745D01*
X202529815Y-52149784D01*
X202513181Y-52170426D01*
X202421954Y-52261652D01*
X202421951Y-52261657D01*
X202421950Y-52261658D01*
X202409727Y-52285647D01*
X202364352Y-52374698D01*
X202364352Y-52374699D01*
X202344508Y-52499996D01*
X202344508Y-52500003D01*
X202364352Y-52625300D01*
X202364354Y-52625306D01*
X202412199Y-52719205D01*
X202425096Y-52787874D01*
X202398820Y-52852614D01*
X202341714Y-52892872D01*
X202301715Y-52899500D01*
X201698285Y-52899500D01*
X201631246Y-52879815D01*
X201585491Y-52827011D01*
X201575547Y-52757853D01*
X201587801Y-52719205D01*
X201635645Y-52625306D01*
X201635647Y-52625300D01*
X201655492Y-52500003D01*
X201655492Y-52499996D01*
X201635647Y-52374699D01*
X201635647Y-52374698D01*
X201635645Y-52374695D01*
X201578050Y-52261658D01*
X201578046Y-52261654D01*
X201578045Y-52261652D01*
X201488347Y-52171954D01*
X201488344Y-52171952D01*
X201488342Y-52171950D01*
X201375304Y-52114354D01*
X201375303Y-52114353D01*
X201375300Y-52114352D01*
X201250003Y-52094508D01*
X201249997Y-52094508D01*
X201124699Y-52114352D01*
X201124698Y-52114352D01*
X201055161Y-52149784D01*
X201011658Y-52171950D01*
X201011657Y-52171951D01*
X201011655Y-52171951D01*
X200952110Y-52231497D01*
X200907531Y-52255837D01*
X200896055Y-52312478D01*
X200864353Y-52374695D01*
X200864352Y-52374699D01*
X200845316Y-52494897D01*
X200815387Y-52558032D01*
X200756076Y-52594964D01*
X200722843Y-52599500D01*
X197534411Y-52599500D01*
X197467372Y-52579815D01*
X197446730Y-52563181D01*
X196995731Y-52112181D01*
X196962246Y-52050858D01*
X196967230Y-51981166D01*
X197009102Y-51925233D01*
X197074566Y-51900816D01*
X197083412Y-51900500D01*
X199888681Y-51900500D01*
X199955720Y-51920185D01*
X200001475Y-51972989D01*
X200011154Y-52005101D01*
X200014354Y-52025304D01*
X200071950Y-52138342D01*
X200071952Y-52138344D01*
X200071954Y-52138347D01*
X200161652Y-52228045D01*
X200161654Y-52228046D01*
X200161658Y-52228050D01*
X200274696Y-52285646D01*
X200274697Y-52285646D01*
X200274699Y-52285647D01*
X200399997Y-52305492D01*
X200400000Y-52305492D01*
X200400003Y-52305492D01*
X200525300Y-52285647D01*
X200525301Y-52285647D01*
X200525302Y-52285646D01*
X200525304Y-52285646D01*
X200638342Y-52228050D01*
X200697890Y-52168501D01*
X200742467Y-52144160D01*
X200753944Y-52087521D01*
X200785646Y-52025304D01*
X200785647Y-52025300D01*
X200805492Y-51900003D01*
X200805492Y-51899996D01*
X200785647Y-51774699D01*
X200785647Y-51774698D01*
X200767123Y-51738343D01*
X200728050Y-51661658D01*
X200728046Y-51661654D01*
X200728045Y-51661652D01*
X200638347Y-51571954D01*
X200638344Y-51571952D01*
X200638342Y-51571950D01*
X200525304Y-51514354D01*
X200525303Y-51514353D01*
X200525300Y-51514352D01*
X200400003Y-51494508D01*
X200399998Y-51494508D01*
X200309994Y-51508763D01*
X200251861Y-51501882D01*
X200251861Y-51501883D01*
X200251850Y-51501880D01*
X200243141Y-51500850D01*
X200239883Y-51499500D01*
X200239882Y-51499500D01*
X193939882Y-51499500D01*
X193860118Y-51499500D01*
X193860116Y-51499500D01*
X193786425Y-51530024D01*
X188630024Y-56686425D01*
X188599500Y-56760116D01*
X188599500Y-63065588D01*
X188579815Y-63132627D01*
X188563181Y-63153269D01*
X187253269Y-64463181D01*
X187191946Y-64496666D01*
X187165588Y-64499500D01*
X181860116Y-64499500D01*
X181786425Y-64530024D01*
X179730024Y-66586425D01*
X179699500Y-66660116D01*
X179699500Y-69282745D01*
X179679815Y-69349784D01*
X179663181Y-69370426D01*
X179571954Y-69461652D01*
X179571951Y-69461657D01*
X179571950Y-69461658D01*
X179570548Y-69464410D01*
X179514352Y-69574698D01*
X179514352Y-69574699D01*
X179494508Y-69699996D01*
X179494508Y-69700003D01*
X179514352Y-69825300D01*
X179514352Y-69825301D01*
X179532805Y-69861517D01*
X179571950Y-69938342D01*
X179571952Y-69938344D01*
X179571954Y-69938347D01*
X179661652Y-70028045D01*
X179661654Y-70028046D01*
X179661658Y-70028050D01*
X179774696Y-70085646D01*
X179774697Y-70085646D01*
X179774699Y-70085647D01*
X179899997Y-70105492D01*
X179900000Y-70105492D01*
X179900003Y-70105492D01*
X180025300Y-70085647D01*
X180025301Y-70085647D01*
X180025302Y-70085646D01*
X180025304Y-70085646D01*
X180138342Y-70028050D01*
X180228050Y-69938342D01*
X180285646Y-69825304D01*
X180285646Y-69825302D01*
X180285647Y-69825301D01*
X180285647Y-69825300D01*
X180305492Y-69700003D01*
X180305492Y-69699996D01*
X180285647Y-69574699D01*
X180285647Y-69574698D01*
X180270508Y-69544986D01*
X180228050Y-69461658D01*
X180228046Y-69461654D01*
X180228045Y-69461652D01*
X180136819Y-69370426D01*
X180103334Y-69309103D01*
X180100500Y-69282745D01*
X180100500Y-66834412D01*
X180120185Y-66767373D01*
X180136819Y-66746731D01*
X180587819Y-66295731D01*
X180649142Y-66262246D01*
X180718834Y-66267230D01*
X180774767Y-66309102D01*
X180799184Y-66374566D01*
X180799500Y-66383412D01*
X180799500Y-66582745D01*
X180779815Y-66649784D01*
X180763181Y-66670426D01*
X180671954Y-66761652D01*
X180671951Y-66761657D01*
X180671950Y-66761658D01*
X180669038Y-66767373D01*
X180614352Y-66874698D01*
X180614352Y-66874699D01*
X180594508Y-66999996D01*
X180594508Y-67000003D01*
X180614352Y-67125300D01*
X180614352Y-67125301D01*
X180617286Y-67131059D01*
X180671950Y-67238342D01*
X180671952Y-67238344D01*
X180671954Y-67238347D01*
X180761652Y-67328045D01*
X180761654Y-67328046D01*
X180761658Y-67328050D01*
X180874696Y-67385646D01*
X180874697Y-67385646D01*
X180874699Y-67385647D01*
X180999997Y-67405492D01*
X181000000Y-67405492D01*
X181000003Y-67405492D01*
X181125300Y-67385647D01*
X181125301Y-67385647D01*
X181125302Y-67385646D01*
X181125304Y-67385646D01*
X181238342Y-67328050D01*
X181328050Y-67238342D01*
X181385646Y-67125304D01*
X181385646Y-67125302D01*
X181385647Y-67125301D01*
X181385647Y-67125300D01*
X181405492Y-67000003D01*
X181405492Y-66999996D01*
X181385647Y-66874699D01*
X181385647Y-66874698D01*
X181358772Y-66821954D01*
X181328050Y-66761658D01*
X181328046Y-66761654D01*
X181328045Y-66761652D01*
X181236819Y-66670426D01*
X181203334Y-66609103D01*
X181200500Y-66582745D01*
X181200500Y-66334412D01*
X181220185Y-66267373D01*
X181236819Y-66246731D01*
X181358250Y-66125300D01*
X181493581Y-65989968D01*
X181554902Y-65956485D01*
X181624593Y-65961469D01*
X181680527Y-66003340D01*
X181703733Y-66058252D01*
X181714353Y-66125301D01*
X181714352Y-66125301D01*
X181714354Y-66125304D01*
X181771950Y-66238342D01*
X181861658Y-66328050D01*
X181861660Y-66328051D01*
X181863181Y-66329572D01*
X181896666Y-66390895D01*
X181899500Y-66417254D01*
X181899500Y-66882745D01*
X181879815Y-66949784D01*
X181863181Y-66970426D01*
X181771954Y-67061652D01*
X181771951Y-67061657D01*
X181714352Y-67174698D01*
X181714352Y-67174699D01*
X181694508Y-67299996D01*
X181694508Y-67300003D01*
X181714352Y-67425300D01*
X181714352Y-67425301D01*
X181732093Y-67460118D01*
X181771950Y-67538342D01*
X181771952Y-67538344D01*
X181771954Y-67538347D01*
X181861652Y-67628045D01*
X181861654Y-67628046D01*
X181861658Y-67628050D01*
X181974696Y-67685646D01*
X181974697Y-67685646D01*
X181974699Y-67685647D01*
X182099997Y-67705492D01*
X182100000Y-67705492D01*
X182100003Y-67705492D01*
X182225300Y-67685647D01*
X182225301Y-67685647D01*
X182225302Y-67685646D01*
X182225304Y-67685646D01*
X182338342Y-67628050D01*
X182428050Y-67538342D01*
X182485646Y-67425304D01*
X182485646Y-67425302D01*
X182485647Y-67425301D01*
X182485647Y-67425300D01*
X182505492Y-67300003D01*
X182505492Y-67299996D01*
X182485647Y-67174699D01*
X182485647Y-67174698D01*
X182478149Y-67159983D01*
X182428050Y-67061658D01*
X182428046Y-67061654D01*
X182428045Y-67061652D01*
X182336819Y-66970426D01*
X182303334Y-66909103D01*
X182300500Y-66882745D01*
X182300500Y-66417254D01*
X182320185Y-66350215D01*
X182336819Y-66329572D01*
X182338339Y-66328051D01*
X182338342Y-66328050D01*
X182428050Y-66238342D01*
X182485646Y-66125304D01*
X182485646Y-66125302D01*
X182485647Y-66125301D01*
X182485647Y-66125300D01*
X182505492Y-66000003D01*
X182505492Y-65999996D01*
X182485647Y-65874699D01*
X182485647Y-65874698D01*
X182483241Y-65869976D01*
X182428050Y-65761658D01*
X182428046Y-65761654D01*
X182428045Y-65761652D01*
X182338347Y-65671954D01*
X182338344Y-65671952D01*
X182338342Y-65671950D01*
X182225304Y-65614354D01*
X182225302Y-65614353D01*
X182225301Y-65614353D01*
X182158252Y-65603733D01*
X182095118Y-65573803D01*
X182058187Y-65514492D01*
X182059185Y-65444629D01*
X182089966Y-65393583D01*
X182246733Y-65236816D01*
X182308054Y-65203334D01*
X182334412Y-65200500D01*
X187639880Y-65200500D01*
X187639882Y-65200500D01*
X187713574Y-65169976D01*
X188087819Y-64795731D01*
X188149142Y-64762246D01*
X188218834Y-64767230D01*
X188274767Y-64809102D01*
X188299184Y-64874566D01*
X188299500Y-64883412D01*
X188299500Y-67688680D01*
X188279815Y-67755719D01*
X188227011Y-67801474D01*
X188194900Y-67811153D01*
X188174698Y-67814353D01*
X188174696Y-67814353D01*
X188174696Y-67814354D01*
X188061658Y-67871950D01*
X188061657Y-67871951D01*
X188061652Y-67871954D01*
X187971954Y-67961652D01*
X187971951Y-67961657D01*
X187971950Y-67961658D01*
X187963669Y-67977911D01*
X187914352Y-68074698D01*
X187914352Y-68074699D01*
X187894508Y-68199996D01*
X187894508Y-68200003D01*
X187914352Y-68325300D01*
X187914352Y-68325301D01*
X187914354Y-68325304D01*
X187971950Y-68438342D01*
X187971952Y-68438344D01*
X187971954Y-68438347D01*
X188061652Y-68528045D01*
X188061654Y-68528046D01*
X188061658Y-68528050D01*
X188174696Y-68585646D01*
X188174697Y-68585646D01*
X188174699Y-68585647D01*
X188299997Y-68605492D01*
X188300000Y-68605492D01*
X188300003Y-68605492D01*
X188425300Y-68585647D01*
X188425301Y-68585647D01*
X188425302Y-68585646D01*
X188425304Y-68585646D01*
X188538342Y-68528050D01*
X188628050Y-68438342D01*
X188685646Y-68325304D01*
X188685646Y-68325302D01*
X188689515Y-68317710D01*
X188737490Y-68266914D01*
X188805311Y-68250119D01*
X188871446Y-68272657D01*
X188910485Y-68317710D01*
X188914353Y-68325302D01*
X188914354Y-68325304D01*
X188971950Y-68438342D01*
X188971952Y-68438344D01*
X188971954Y-68438347D01*
X189061652Y-68528045D01*
X189061654Y-68528046D01*
X189061658Y-68528050D01*
X189174696Y-68585646D01*
X189174697Y-68585646D01*
X189174699Y-68585647D01*
X189299997Y-68605492D01*
X189300000Y-68605492D01*
X189300003Y-68605492D01*
X189425300Y-68585647D01*
X189425301Y-68585647D01*
X189425302Y-68585646D01*
X189425304Y-68585646D01*
X189538342Y-68528050D01*
X189628050Y-68438342D01*
X189685646Y-68325304D01*
X189685646Y-68325302D01*
X189685647Y-68325301D01*
X189685647Y-68325300D01*
X189705492Y-68200003D01*
X189705492Y-68199996D01*
X189685647Y-68074699D01*
X189685647Y-68074698D01*
X189681802Y-68067152D01*
X189628050Y-67961658D01*
X189628046Y-67961654D01*
X189628045Y-67961652D01*
X189536819Y-67870426D01*
X189503334Y-67809103D01*
X189500500Y-67782745D01*
X189500500Y-64834411D01*
X189520185Y-64767372D01*
X189536810Y-64746739D01*
X189650057Y-64633491D01*
X189711376Y-64600009D01*
X189757130Y-64598702D01*
X189800000Y-64605492D01*
X189800000Y-64605491D01*
X189800001Y-64605492D01*
X189800003Y-64605492D01*
X189925300Y-64585647D01*
X189925301Y-64585647D01*
X189925302Y-64585646D01*
X189925304Y-64585646D01*
X190038342Y-64528050D01*
X190128050Y-64438342D01*
X190185646Y-64325304D01*
X190185646Y-64325302D01*
X190185647Y-64325301D01*
X190185647Y-64325300D01*
X190205492Y-64200003D01*
X190205492Y-64199996D01*
X190185647Y-64074699D01*
X190185647Y-64074698D01*
X190174422Y-64052668D01*
X190128050Y-63961658D01*
X190128046Y-63961654D01*
X190128045Y-63961652D01*
X190036819Y-63870426D01*
X190003334Y-63809103D01*
X190000500Y-63782745D01*
X190000500Y-61999996D01*
X192344508Y-61999996D01*
X192344508Y-62000003D01*
X192364352Y-62125300D01*
X192364352Y-62125301D01*
X192364354Y-62125304D01*
X192421950Y-62238342D01*
X192421952Y-62238344D01*
X192421954Y-62238347D01*
X192511652Y-62328045D01*
X192511654Y-62328046D01*
X192511658Y-62328050D01*
X192624696Y-62385646D01*
X192624697Y-62385646D01*
X192624699Y-62385647D01*
X192749997Y-62405492D01*
X192750000Y-62405492D01*
X192750003Y-62405492D01*
X192875300Y-62385647D01*
X192875301Y-62385647D01*
X192875302Y-62385646D01*
X192875304Y-62385646D01*
X192988342Y-62328050D01*
X193050206Y-62266185D01*
X193111527Y-62232702D01*
X193181219Y-62237686D01*
X193225567Y-62266187D01*
X193513181Y-62553801D01*
X193546666Y-62615124D01*
X193549500Y-62641482D01*
X193549500Y-65789883D01*
X193557218Y-65808515D01*
X193580024Y-65863574D01*
X195386426Y-67669976D01*
X195460118Y-67700500D01*
X195539882Y-67700500D01*
X199943988Y-67700500D01*
X200011027Y-67720185D01*
X200031669Y-67736819D01*
X200644904Y-68350054D01*
X200678389Y-68411377D01*
X200679697Y-68457130D01*
X200672908Y-68500000D01*
X200672908Y-68500003D01*
X200692752Y-68625300D01*
X200692752Y-68625301D01*
X200692754Y-68625304D01*
X200750350Y-68738342D01*
X200750352Y-68738344D01*
X200750354Y-68738347D01*
X200840052Y-68828045D01*
X200840054Y-68828046D01*
X200840058Y-68828050D01*
X200953096Y-68885646D01*
X200953097Y-68885646D01*
X200953099Y-68885647D01*
X201078397Y-68905492D01*
X201078400Y-68905492D01*
X201078403Y-68905492D01*
X201203700Y-68885647D01*
X201203701Y-68885647D01*
X201203702Y-68885646D01*
X201203704Y-68885646D01*
X201316742Y-68828050D01*
X201406450Y-68738342D01*
X201464046Y-68625304D01*
X201464046Y-68625302D01*
X201464047Y-68625301D01*
X201464047Y-68625300D01*
X201483892Y-68500003D01*
X201483892Y-68499996D01*
X201464047Y-68374699D01*
X201464047Y-68374698D01*
X201438879Y-68325304D01*
X201406450Y-68261658D01*
X201406446Y-68261654D01*
X201406445Y-68261652D01*
X201316747Y-68171954D01*
X201316744Y-68171952D01*
X201316742Y-68171950D01*
X201203704Y-68114354D01*
X201203703Y-68114353D01*
X201203700Y-68114352D01*
X201078403Y-68094508D01*
X201078401Y-68094508D01*
X201078400Y-68094508D01*
X201067777Y-68096190D01*
X201035530Y-68101297D01*
X200966237Y-68092340D01*
X200928454Y-68066504D01*
X200191974Y-67330024D01*
X200118283Y-67299500D01*
X200118282Y-67299500D01*
X195634412Y-67299500D01*
X195567373Y-67279815D01*
X195546731Y-67263181D01*
X193986819Y-65703269D01*
X193953334Y-65641946D01*
X193950500Y-65615588D01*
X193950500Y-62535878D01*
X193953610Y-62508282D01*
X193955499Y-62500005D01*
X193955500Y-62499999D01*
X193955500Y-61500016D01*
X193955500Y-61500000D01*
X193955500Y-61499996D01*
X204294500Y-61499996D01*
X204294500Y-62500007D01*
X204295791Y-62523007D01*
X204297117Y-62529670D01*
X204299500Y-62553864D01*
X204299500Y-63464121D01*
X204296391Y-63491714D01*
X204294500Y-63499996D01*
X204294500Y-65500007D01*
X204295791Y-65523007D01*
X204297117Y-65529670D01*
X204299500Y-65553864D01*
X204299500Y-67539883D01*
X204330024Y-67613574D01*
X205763181Y-69046730D01*
X205796666Y-69108053D01*
X205799500Y-69134411D01*
X205799500Y-71582745D01*
X205779815Y-71649784D01*
X205763181Y-71670426D01*
X205671954Y-71761652D01*
X205671951Y-71761657D01*
X205614352Y-71874698D01*
X205614352Y-71874699D01*
X205594508Y-71999996D01*
X205594508Y-72000003D01*
X205614352Y-72125300D01*
X205614352Y-72125301D01*
X205614354Y-72125304D01*
X205671950Y-72238342D01*
X205671952Y-72238344D01*
X205671954Y-72238347D01*
X205761652Y-72328045D01*
X205761654Y-72328046D01*
X205761658Y-72328050D01*
X205874696Y-72385646D01*
X205874697Y-72385646D01*
X205874699Y-72385647D01*
X205999997Y-72405492D01*
X206000000Y-72405492D01*
X206000003Y-72405492D01*
X206125300Y-72385647D01*
X206125301Y-72385647D01*
X206125302Y-72385646D01*
X206125304Y-72385646D01*
X206238342Y-72328050D01*
X206328050Y-72238342D01*
X206385646Y-72125304D01*
X206385646Y-72125302D01*
X206385647Y-72125301D01*
X206385647Y-72125300D01*
X206405492Y-72000003D01*
X206405492Y-71999996D01*
X206385647Y-71874699D01*
X206385647Y-71874698D01*
X206367125Y-71838347D01*
X206328050Y-71761658D01*
X206328046Y-71761654D01*
X206328045Y-71761652D01*
X206236819Y-71670426D01*
X206203334Y-71609103D01*
X206200500Y-71582745D01*
X206200500Y-68960119D01*
X206200499Y-68960116D01*
X206177873Y-68905492D01*
X206169976Y-68886426D01*
X206113574Y-68830024D01*
X206106509Y-68822959D01*
X206106502Y-68822953D01*
X204736819Y-67453269D01*
X204703334Y-67391946D01*
X204700500Y-67365588D01*
X204700500Y-65641482D01*
X204720185Y-65574443D01*
X204736819Y-65553801D01*
X204835931Y-65454689D01*
X204943367Y-65347252D01*
X205004688Y-65313769D01*
X205074379Y-65318753D01*
X205130313Y-65360624D01*
X205141526Y-65378632D01*
X205165307Y-65425304D01*
X205171951Y-65438343D01*
X205171954Y-65438347D01*
X205261652Y-65528045D01*
X205261654Y-65528046D01*
X205261658Y-65528050D01*
X205374696Y-65585646D01*
X205374697Y-65585646D01*
X205374699Y-65585647D01*
X205499997Y-65605492D01*
X205500000Y-65605492D01*
X205500003Y-65605492D01*
X205625300Y-65585647D01*
X205625301Y-65585647D01*
X205625302Y-65585646D01*
X205625304Y-65585646D01*
X205738342Y-65528050D01*
X205828050Y-65438342D01*
X205885646Y-65325304D01*
X205885646Y-65325302D01*
X205885647Y-65325301D01*
X205885647Y-65325300D01*
X205905492Y-65200003D01*
X205905492Y-65199996D01*
X205885647Y-65074699D01*
X205885647Y-65074698D01*
X205882153Y-65067840D01*
X205880756Y-65065098D01*
X209274500Y-65065098D01*
X209274500Y-65934894D01*
X209274501Y-65934902D01*
X209280330Y-65964212D01*
X209302542Y-65997457D01*
X209319219Y-66008599D01*
X209335787Y-66019669D01*
X209335790Y-66019669D01*
X209335791Y-66019670D01*
X209345647Y-66021630D01*
X209365101Y-66025500D01*
X210234898Y-66025499D01*
X210264213Y-66019669D01*
X210297457Y-65997457D01*
X210319669Y-65964213D01*
X210319669Y-65964210D01*
X210321381Y-65961649D01*
X210374992Y-65916842D01*
X210444316Y-65908132D01*
X210499972Y-65932160D01*
X210506044Y-65936819D01*
X210534982Y-65959024D01*
X210662817Y-66011974D01*
X210785702Y-66028152D01*
X210799999Y-66030035D01*
X210800000Y-66030035D01*
X210800001Y-66030035D01*
X210824453Y-66026815D01*
X210937183Y-66011974D01*
X210937185Y-66011973D01*
X210943209Y-66011180D01*
X211012244Y-66021945D01*
X211051545Y-66051147D01*
X211177639Y-66191190D01*
X211177642Y-66191192D01*
X211334950Y-66305484D01*
X211512587Y-66384573D01*
X211549999Y-66392524D01*
X211550000Y-66392524D01*
X211550000Y-65549728D01*
X211588060Y-65641614D01*
X211658386Y-65711940D01*
X211750272Y-65750000D01*
X211849728Y-65750000D01*
X211941614Y-65711940D01*
X212011940Y-65641614D01*
X212050000Y-65549728D01*
X212050000Y-66392524D01*
X212087412Y-66384573D01*
X212265049Y-66305484D01*
X212422356Y-66191193D01*
X212548453Y-66051147D01*
X212607940Y-66014499D01*
X212656790Y-66011180D01*
X212662815Y-66011973D01*
X212662817Y-66011974D01*
X212765539Y-66025498D01*
X212799999Y-66030035D01*
X212800000Y-66030035D01*
X212800001Y-66030035D01*
X212812947Y-66028330D01*
X212937183Y-66011974D01*
X213065018Y-65959024D01*
X213174791Y-65874791D01*
X213201624Y-65839821D01*
X213258052Y-65798619D01*
X213327798Y-65794464D01*
X213388718Y-65828676D01*
X213398376Y-65839822D01*
X213425137Y-65874698D01*
X213425209Y-65874791D01*
X213534982Y-65959024D01*
X213534983Y-65959024D01*
X213534984Y-65959025D01*
X213577593Y-65976674D01*
X213662817Y-66011974D01*
X213785702Y-66028152D01*
X213799999Y-66030035D01*
X213800000Y-66030035D01*
X213800001Y-66030035D01*
X213812947Y-66028330D01*
X213937183Y-66011974D01*
X214065018Y-65959024D01*
X214174791Y-65874791D01*
X214259024Y-65765018D01*
X214311974Y-65637183D01*
X214330035Y-65500000D01*
X214311974Y-65362817D01*
X214259024Y-65234983D01*
X214174791Y-65125209D01*
X214174789Y-65125208D01*
X214174789Y-65125207D01*
X214091971Y-65061658D01*
X214065018Y-65040976D01*
X214065017Y-65040975D01*
X214065015Y-65040974D01*
X213937186Y-64988027D01*
X213937184Y-64988026D01*
X213937183Y-64988026D01*
X213845727Y-64975985D01*
X213800001Y-64969965D01*
X213799999Y-64969965D01*
X213738567Y-64978053D01*
X213662817Y-64988026D01*
X213662816Y-64988026D01*
X213662813Y-64988027D01*
X213534985Y-65040974D01*
X213425206Y-65125211D01*
X213398375Y-65160179D01*
X213341947Y-65201382D01*
X213272201Y-65205536D01*
X213211281Y-65171323D01*
X213201625Y-65160179D01*
X213174791Y-65125209D01*
X213133065Y-65093191D01*
X213065018Y-65040976D01*
X213065017Y-65040975D01*
X213065015Y-65040974D01*
X212937186Y-64988027D01*
X212937184Y-64988026D01*
X212937183Y-64988026D01*
X212845727Y-64975985D01*
X212800001Y-64969965D01*
X212799998Y-64969965D01*
X212656789Y-64988819D01*
X212587754Y-64978053D01*
X212548454Y-64948852D01*
X212422360Y-64808809D01*
X212422357Y-64808807D01*
X212265051Y-64694516D01*
X212087412Y-64615426D01*
X212050000Y-64607473D01*
X212050000Y-65450272D01*
X212011940Y-65358386D01*
X211941614Y-65288060D01*
X211849728Y-65250000D01*
X211750272Y-65250000D01*
X211658386Y-65288060D01*
X211588060Y-65358386D01*
X211550000Y-65450272D01*
X211550000Y-64607473D01*
X211512585Y-64615426D01*
X211512580Y-64615428D01*
X211334953Y-64694513D01*
X211177646Y-64808804D01*
X211051545Y-64948853D01*
X210992058Y-64985501D01*
X210943209Y-64988819D01*
X210800001Y-64969965D01*
X210799999Y-64969965D01*
X210738567Y-64978053D01*
X210662817Y-64988026D01*
X210662816Y-64988026D01*
X210662813Y-64988027D01*
X210534984Y-65040974D01*
X210534982Y-65040976D01*
X210499973Y-65067840D01*
X210434804Y-65093034D01*
X210366359Y-65078996D01*
X210321383Y-65038352D01*
X210297457Y-65002542D01*
X210264214Y-64980332D01*
X210264215Y-64980332D01*
X210264213Y-64980331D01*
X210264211Y-64980330D01*
X210264208Y-64980329D01*
X210234901Y-64974500D01*
X209365105Y-64974500D01*
X209365097Y-64974501D01*
X209335787Y-64980330D01*
X209302542Y-65002542D01*
X209280332Y-65035785D01*
X209280329Y-65035791D01*
X209274500Y-65065098D01*
X205880756Y-65065098D01*
X205828050Y-64961658D01*
X205828046Y-64961654D01*
X205828045Y-64961652D01*
X205738347Y-64871954D01*
X205738344Y-64871952D01*
X205738342Y-64871950D01*
X205625304Y-64814354D01*
X205625303Y-64814353D01*
X205625300Y-64814352D01*
X205500003Y-64794508D01*
X205499998Y-64794508D01*
X205409994Y-64808763D01*
X205351861Y-64801882D01*
X205351861Y-64801883D01*
X205351850Y-64801880D01*
X205343141Y-64800850D01*
X205339883Y-64799500D01*
X205339882Y-64799500D01*
X205141482Y-64799500D01*
X205074443Y-64779815D01*
X205053801Y-64763181D01*
X204991819Y-64701199D01*
X204958334Y-64639876D01*
X204955500Y-64613518D01*
X204955500Y-64386482D01*
X204975185Y-64319443D01*
X204991819Y-64298801D01*
X205053801Y-64236819D01*
X205115124Y-64203334D01*
X205141482Y-64200500D01*
X205339881Y-64200500D01*
X205339882Y-64200500D01*
X205343139Y-64199150D01*
X205351845Y-64198120D01*
X205351861Y-64198117D01*
X205351861Y-64198118D01*
X205409995Y-64191236D01*
X205453438Y-64198117D01*
X205499999Y-64205492D01*
X205500000Y-64205492D01*
X205500003Y-64205492D01*
X205625300Y-64185647D01*
X205625301Y-64185647D01*
X205625302Y-64185646D01*
X205625304Y-64185646D01*
X205738342Y-64128050D01*
X205828050Y-64038342D01*
X205885646Y-63925304D01*
X205885646Y-63925302D01*
X205885647Y-63925301D01*
X205885647Y-63925300D01*
X205905492Y-63800003D01*
X205905492Y-63799996D01*
X205885647Y-63674699D01*
X205885647Y-63674698D01*
X205858469Y-63621359D01*
X205828050Y-63561658D01*
X205828046Y-63561654D01*
X205828045Y-63561652D01*
X205738347Y-63471954D01*
X205738344Y-63471952D01*
X205738342Y-63471950D01*
X205625304Y-63414354D01*
X205625303Y-63414353D01*
X205625300Y-63414352D01*
X205500003Y-63394508D01*
X205499997Y-63394508D01*
X205374699Y-63414352D01*
X205374698Y-63414352D01*
X205312197Y-63446199D01*
X205261658Y-63471950D01*
X205261657Y-63471951D01*
X205261652Y-63471954D01*
X205171954Y-63561652D01*
X205171947Y-63561661D01*
X205141530Y-63621359D01*
X205093556Y-63672155D01*
X205025735Y-63688950D01*
X204959600Y-63666412D01*
X204943365Y-63652745D01*
X204736819Y-63446199D01*
X204703334Y-63384876D01*
X204700500Y-63358518D01*
X204700500Y-62641482D01*
X204720185Y-62574443D01*
X204736819Y-62553801D01*
X204790621Y-62499999D01*
X213269965Y-62499999D01*
X213269965Y-62500000D01*
X213288026Y-62637181D01*
X213288027Y-62637186D01*
X213340974Y-62765015D01*
X213340975Y-62765017D01*
X213340976Y-62765018D01*
X213425209Y-62874791D01*
X213534982Y-62959024D01*
X213534983Y-62959024D01*
X213534984Y-62959025D01*
X213547512Y-62964214D01*
X213662817Y-63011974D01*
X213785702Y-63028152D01*
X213799999Y-63030035D01*
X213800000Y-63030035D01*
X213800001Y-63030035D01*
X213812947Y-63028330D01*
X213937183Y-63011974D01*
X214065018Y-62959024D01*
X214174791Y-62874791D01*
X214201624Y-62839821D01*
X214258052Y-62798619D01*
X214327798Y-62794464D01*
X214388718Y-62828676D01*
X214398375Y-62839821D01*
X214425209Y-62874791D01*
X214534982Y-62959024D01*
X214534983Y-62959024D01*
X214534984Y-62959025D01*
X214547512Y-62964214D01*
X214662817Y-63011974D01*
X214785702Y-63028152D01*
X214799999Y-63030035D01*
X214800000Y-63030035D01*
X214800001Y-63030035D01*
X214824453Y-63026815D01*
X214937183Y-63011974D01*
X214937185Y-63011973D01*
X214943209Y-63011180D01*
X215012244Y-63021945D01*
X215051545Y-63051147D01*
X215177639Y-63191190D01*
X215177642Y-63191192D01*
X215334950Y-63305484D01*
X215512587Y-63384573D01*
X215549999Y-63392524D01*
X215550000Y-63392524D01*
X215550000Y-62549728D01*
X215588060Y-62641614D01*
X215658386Y-62711940D01*
X215750272Y-62750000D01*
X215849728Y-62750000D01*
X215941614Y-62711940D01*
X216011940Y-62641614D01*
X216050000Y-62549728D01*
X216050000Y-63392524D01*
X216087412Y-63384573D01*
X216265049Y-63305484D01*
X216422356Y-63191193D01*
X216548453Y-63051147D01*
X216607940Y-63014499D01*
X216656790Y-63011180D01*
X216662815Y-63011973D01*
X216662817Y-63011974D01*
X216757959Y-63024500D01*
X216799999Y-63030035D01*
X216800000Y-63030035D01*
X216800001Y-63030035D01*
X216812947Y-63028330D01*
X216937183Y-63011974D01*
X217065018Y-62959024D01*
X217100026Y-62932160D01*
X217165194Y-62906966D01*
X217233639Y-62921004D01*
X217278617Y-62961648D01*
X217302542Y-62997457D01*
X217313555Y-63004815D01*
X217335787Y-63019669D01*
X217335790Y-63019669D01*
X217335791Y-63019670D01*
X217345647Y-63021630D01*
X217365101Y-63025500D01*
X218234898Y-63025499D01*
X218264213Y-63019669D01*
X218297457Y-62997457D01*
X218319669Y-62964213D01*
X218325500Y-62934899D01*
X218325499Y-62065102D01*
X218319669Y-62035787D01*
X218297457Y-62002542D01*
X218271951Y-61985501D01*
X218264213Y-61980331D01*
X218264211Y-61980330D01*
X218264208Y-61980329D01*
X218234901Y-61974500D01*
X217365105Y-61974500D01*
X217365097Y-61974501D01*
X217335787Y-61980330D01*
X217302541Y-62002543D01*
X217278616Y-62038352D01*
X217225004Y-62083158D01*
X217155680Y-62091867D01*
X217100027Y-62067839D01*
X217065018Y-62040976D01*
X217065016Y-62040975D01*
X216937186Y-61988027D01*
X216937184Y-61988026D01*
X216937183Y-61988026D01*
X216845727Y-61975985D01*
X216800001Y-61969965D01*
X216799998Y-61969965D01*
X216656789Y-61988819D01*
X216587754Y-61978053D01*
X216548454Y-61948852D01*
X216422360Y-61808809D01*
X216422357Y-61808807D01*
X216265051Y-61694516D01*
X216087412Y-61615426D01*
X216050000Y-61607473D01*
X216050000Y-62450272D01*
X216011940Y-62358386D01*
X215941614Y-62288060D01*
X215849728Y-62250000D01*
X215750272Y-62250000D01*
X215658386Y-62288060D01*
X215588060Y-62358386D01*
X215550000Y-62450272D01*
X215550000Y-61607473D01*
X215512585Y-61615426D01*
X215512580Y-61615428D01*
X215334953Y-61694513D01*
X215177646Y-61808804D01*
X215051545Y-61948853D01*
X214992058Y-61985501D01*
X214943209Y-61988819D01*
X214800001Y-61969965D01*
X214799999Y-61969965D01*
X214738567Y-61978053D01*
X214662817Y-61988026D01*
X214662816Y-61988026D01*
X214662813Y-61988027D01*
X214534985Y-62040974D01*
X214425206Y-62125211D01*
X214398375Y-62160179D01*
X214341947Y-62201382D01*
X214272201Y-62205536D01*
X214211281Y-62171323D01*
X214201625Y-62160179D01*
X214174791Y-62125209D01*
X214096458Y-62065101D01*
X214065018Y-62040976D01*
X214065017Y-62040975D01*
X214065015Y-62040974D01*
X213937186Y-61988027D01*
X213937184Y-61988026D01*
X213937183Y-61988026D01*
X213845727Y-61975985D01*
X213800001Y-61969965D01*
X213799999Y-61969965D01*
X213738567Y-61978053D01*
X213662817Y-61988026D01*
X213662816Y-61988026D01*
X213662813Y-61988027D01*
X213534985Y-62040974D01*
X213425209Y-62125209D01*
X213340974Y-62234985D01*
X213288027Y-62362813D01*
X213288026Y-62362816D01*
X213288026Y-62362817D01*
X213285020Y-62385647D01*
X213269965Y-62499999D01*
X204790621Y-62499999D01*
X204840348Y-62450272D01*
X205024434Y-62266185D01*
X205085755Y-62232702D01*
X205155446Y-62237686D01*
X205199794Y-62266187D01*
X205261652Y-62328045D01*
X205261654Y-62328046D01*
X205261658Y-62328050D01*
X205374696Y-62385646D01*
X205374697Y-62385646D01*
X205374699Y-62385647D01*
X205499997Y-62405492D01*
X205500000Y-62405492D01*
X205500003Y-62405492D01*
X205625300Y-62385647D01*
X205625301Y-62385647D01*
X205625302Y-62385646D01*
X205625304Y-62385646D01*
X205738342Y-62328050D01*
X205828050Y-62238342D01*
X205885646Y-62125304D01*
X205885646Y-62125302D01*
X205885647Y-62125301D01*
X205885647Y-62125300D01*
X205905492Y-62000003D01*
X205905492Y-61999996D01*
X205885647Y-61874699D01*
X205885647Y-61874698D01*
X205885646Y-61874696D01*
X205828050Y-61761658D01*
X205828046Y-61761654D01*
X205828045Y-61761652D01*
X205738347Y-61671954D01*
X205738344Y-61671952D01*
X205738342Y-61671950D01*
X205625304Y-61614354D01*
X205625303Y-61614353D01*
X205625300Y-61614352D01*
X205500003Y-61594508D01*
X205499997Y-61594508D01*
X205374699Y-61614352D01*
X205374698Y-61614352D01*
X205331379Y-61636425D01*
X205261658Y-61671950D01*
X205261657Y-61671951D01*
X205261655Y-61671951D01*
X205199794Y-61733813D01*
X205138470Y-61767297D01*
X205068779Y-61762312D01*
X205024432Y-61733812D01*
X204736819Y-61446199D01*
X204703334Y-61384876D01*
X204700500Y-61358518D01*
X204700500Y-59884411D01*
X204720185Y-59817372D01*
X204736815Y-59796734D01*
X205350056Y-59183492D01*
X205411377Y-59150009D01*
X205457130Y-59148702D01*
X205500000Y-59155492D01*
X205500000Y-59155491D01*
X205500001Y-59155492D01*
X205500003Y-59155492D01*
X205625300Y-59135647D01*
X205625301Y-59135647D01*
X205625302Y-59135646D01*
X205625304Y-59135646D01*
X205738342Y-59078050D01*
X205828050Y-58988342D01*
X205885646Y-58875304D01*
X205885646Y-58875302D01*
X205885647Y-58875301D01*
X205885647Y-58875300D01*
X205905492Y-58750003D01*
X205905492Y-58749996D01*
X205885647Y-58624699D01*
X205885647Y-58624698D01*
X205885646Y-58624696D01*
X205828050Y-58511658D01*
X205828046Y-58511654D01*
X205828045Y-58511652D01*
X205738347Y-58421954D01*
X205738344Y-58421952D01*
X205738342Y-58421950D01*
X205625304Y-58364354D01*
X205625303Y-58364353D01*
X205625300Y-58364352D01*
X205500003Y-58344508D01*
X205499997Y-58344508D01*
X205374699Y-58364352D01*
X205374698Y-58364352D01*
X205299337Y-58402751D01*
X205261658Y-58421950D01*
X205261657Y-58421951D01*
X205261652Y-58421954D01*
X205171954Y-58511652D01*
X205171951Y-58511657D01*
X205114352Y-58624698D01*
X205114352Y-58624699D01*
X205094508Y-58749996D01*
X205094508Y-58749997D01*
X205094508Y-58750000D01*
X205096733Y-58764047D01*
X205101297Y-58792867D01*
X205092341Y-58862161D01*
X205066504Y-58899944D01*
X204386426Y-59580024D01*
X204330025Y-59636424D01*
X204330024Y-59636425D01*
X204299500Y-59710116D01*
X204299500Y-61464121D01*
X204296391Y-61491714D01*
X204294500Y-61499996D01*
X193955500Y-61499996D01*
X193954208Y-61476991D01*
X193954207Y-61476988D01*
X193952883Y-61470331D01*
X193950500Y-61446137D01*
X193950500Y-59634411D01*
X193970185Y-59567372D01*
X193986819Y-59546730D01*
X197296730Y-56236819D01*
X197358053Y-56203334D01*
X197384411Y-56200500D01*
X202289880Y-56200500D01*
X202289882Y-56200500D01*
X202363574Y-56169976D01*
X202428454Y-56105094D01*
X202489776Y-56071609D01*
X202535530Y-56070302D01*
X202578400Y-56077092D01*
X202578400Y-56077091D01*
X202578401Y-56077092D01*
X202578403Y-56077092D01*
X202703700Y-56057247D01*
X202703701Y-56057247D01*
X202703702Y-56057246D01*
X202703704Y-56057246D01*
X202816742Y-55999650D01*
X202906450Y-55909942D01*
X202964046Y-55796904D01*
X202964046Y-55796902D01*
X202964047Y-55796901D01*
X202964047Y-55796900D01*
X202983892Y-55671603D01*
X202983892Y-55671596D01*
X202964047Y-55546299D01*
X202964047Y-55546298D01*
X202957990Y-55534411D01*
X202906450Y-55433258D01*
X202906446Y-55433254D01*
X202906445Y-55433252D01*
X202816747Y-55343554D01*
X202816744Y-55343552D01*
X202816742Y-55343550D01*
X202703704Y-55285954D01*
X202703703Y-55285953D01*
X202703700Y-55285952D01*
X202578403Y-55266108D01*
X202578397Y-55266108D01*
X202453099Y-55285952D01*
X202453098Y-55285952D01*
X202391435Y-55317372D01*
X202340058Y-55343550D01*
X202340057Y-55343551D01*
X202340052Y-55343554D01*
X202250354Y-55433252D01*
X202250351Y-55433257D01*
X202192752Y-55546298D01*
X202192752Y-55546299D01*
X202172908Y-55671596D01*
X202172908Y-55675500D01*
X202171565Y-55680070D01*
X202171381Y-55681238D01*
X202171230Y-55681214D01*
X202153223Y-55742539D01*
X202100419Y-55788294D01*
X202048908Y-55799500D01*
X197289882Y-55799500D01*
X197210117Y-55799500D01*
X197188533Y-55808440D01*
X197188532Y-55808440D01*
X197136426Y-55830023D01*
X197108225Y-55858224D01*
X197080024Y-55886426D01*
X197080023Y-55886427D01*
X193618985Y-59347464D01*
X193580024Y-59386425D01*
X193549500Y-59460116D01*
X193549500Y-61358518D01*
X193529815Y-61425557D01*
X193513181Y-61446199D01*
X193225567Y-61733812D01*
X193164244Y-61767297D01*
X193094552Y-61762313D01*
X193050205Y-61733812D01*
X192988347Y-61671954D01*
X192988344Y-61671952D01*
X192988342Y-61671950D01*
X192875304Y-61614354D01*
X192875303Y-61614353D01*
X192875300Y-61614352D01*
X192750003Y-61594508D01*
X192749997Y-61594508D01*
X192624699Y-61614352D01*
X192624698Y-61614352D01*
X192581379Y-61636425D01*
X192511658Y-61671950D01*
X192511657Y-61671951D01*
X192511652Y-61671954D01*
X192421954Y-61761652D01*
X192421951Y-61761657D01*
X192421950Y-61761658D01*
X192419077Y-61767297D01*
X192364352Y-61874698D01*
X192364352Y-61874699D01*
X192344508Y-61999996D01*
X190000500Y-61999996D01*
X190000500Y-58334412D01*
X190020185Y-58267373D01*
X190036819Y-58246731D01*
X190100924Y-58182626D01*
X190169976Y-58113574D01*
X190200500Y-58039882D01*
X190200500Y-57960118D01*
X190200500Y-57817254D01*
X190220185Y-57750215D01*
X190236819Y-57729572D01*
X190238339Y-57728051D01*
X190238342Y-57728050D01*
X190328050Y-57638342D01*
X190385646Y-57525304D01*
X190385646Y-57525302D01*
X190385647Y-57525301D01*
X190385647Y-57525300D01*
X190405492Y-57400003D01*
X190405492Y-57399996D01*
X190385647Y-57274699D01*
X190385646Y-57274697D01*
X190385646Y-57274696D01*
X190333116Y-57171601D01*
X190320221Y-57102935D01*
X190346497Y-57038195D01*
X190355912Y-57027637D01*
X194146731Y-53236819D01*
X194208054Y-53203334D01*
X194234412Y-53200500D01*
X195782745Y-53200500D01*
X195849784Y-53220185D01*
X195870426Y-53236819D01*
X195961652Y-53328045D01*
X195961654Y-53328046D01*
X195961658Y-53328050D01*
X196074696Y-53385646D01*
X196074697Y-53385646D01*
X196074699Y-53385647D01*
X196199997Y-53405492D01*
X196200000Y-53405492D01*
X196200003Y-53405492D01*
X196325300Y-53385647D01*
X196325301Y-53385647D01*
X196325302Y-53385646D01*
X196325304Y-53385646D01*
X196438342Y-53328050D01*
X196528050Y-53238342D01*
X196585646Y-53125304D01*
X196596266Y-53058250D01*
X196626194Y-52995118D01*
X196685506Y-52958186D01*
X196755368Y-52959184D01*
X196806420Y-52989969D01*
X197022953Y-53206502D01*
X197022956Y-53206506D01*
X197030024Y-53213574D01*
X197086426Y-53269976D01*
X197138530Y-53291558D01*
X197138532Y-53291559D01*
X197147473Y-53295262D01*
X197160117Y-53300500D01*
X203039880Y-53300500D01*
X203039882Y-53300500D01*
X203113574Y-53269976D01*
X203408467Y-52975082D01*
X203469786Y-52941600D01*
X203539477Y-52946584D01*
X203595411Y-52988455D01*
X203614072Y-53024438D01*
X203614351Y-53025299D01*
X203614354Y-53025304D01*
X203671950Y-53138342D01*
X203671952Y-53138344D01*
X203671954Y-53138347D01*
X203761652Y-53228045D01*
X203761654Y-53228046D01*
X203761658Y-53228050D01*
X203874696Y-53285646D01*
X203874697Y-53285646D01*
X203874699Y-53285647D01*
X203999997Y-53305492D01*
X204000000Y-53305492D01*
X204000003Y-53305492D01*
X204125300Y-53285647D01*
X204125301Y-53285646D01*
X204125304Y-53285646D01*
X204162151Y-53266871D01*
X204230816Y-53253975D01*
X204295557Y-53280250D01*
X204306125Y-53289675D01*
X204330024Y-53313574D01*
X204386426Y-53369976D01*
X204460118Y-53400500D01*
X204460120Y-53400500D01*
X204939880Y-53400500D01*
X204939882Y-53400500D01*
X205013574Y-53369976D01*
X205546132Y-52837415D01*
X205546135Y-52837414D01*
X205563573Y-52819976D01*
X205563574Y-52819976D01*
X205619976Y-52763574D01*
X205650500Y-52689882D01*
X205650500Y-50653893D01*
X205670185Y-50586854D01*
X205692845Y-50560573D01*
X205762073Y-50499999D01*
X205926437Y-50356179D01*
X205989852Y-50326849D01*
X206008092Y-50325500D01*
X206476679Y-50325500D01*
X206543718Y-50345185D01*
X206564360Y-50361819D01*
X211158036Y-54955495D01*
X211266464Y-55018095D01*
X211387399Y-55050500D01*
X211387401Y-55050500D01*
X217137599Y-55050500D01*
X217137601Y-55050500D01*
X217258536Y-55018095D01*
X217366964Y-54955495D01*
X219557493Y-52764964D01*
X219578131Y-52748334D01*
X219593680Y-52738342D01*
X219681128Y-52682143D01*
X219775377Y-52573373D01*
X219807557Y-52502908D01*
X219812959Y-52492431D01*
X219818095Y-52483536D01*
X219818096Y-52483531D01*
X219818830Y-52481759D01*
X219824800Y-52465151D01*
X219835165Y-52442457D01*
X219841132Y-52400948D01*
X219844097Y-52386495D01*
X219850500Y-52362602D01*
X219850500Y-52344667D01*
X219851762Y-52327020D01*
X219855647Y-52299999D01*
X219851762Y-52272977D01*
X219850500Y-52255331D01*
X219850500Y-52237400D01*
X219848918Y-52231497D01*
X219844093Y-52213491D01*
X219841132Y-52199050D01*
X219840479Y-52194508D01*
X219835165Y-52157543D01*
X219824794Y-52134835D01*
X219818822Y-52118218D01*
X219818096Y-52116466D01*
X219812956Y-52107562D01*
X219807551Y-52097077D01*
X219797476Y-52075017D01*
X219775377Y-52026627D01*
X219681128Y-51917857D01*
X219560053Y-51840047D01*
X219560051Y-51840046D01*
X219560049Y-51840045D01*
X219560050Y-51840045D01*
X219421963Y-51799500D01*
X219421961Y-51799500D01*
X219278039Y-51799500D01*
X219278036Y-51799500D01*
X219139949Y-51840045D01*
X219018873Y-51917856D01*
X219018872Y-51917856D01*
X219018872Y-51917857D01*
X219015325Y-51921951D01*
X218924623Y-52026626D01*
X218911816Y-52054669D01*
X218886704Y-52090835D01*
X216914360Y-54063181D01*
X216853037Y-54096666D01*
X216826679Y-54099500D01*
X211698321Y-54099500D01*
X211631282Y-54079815D01*
X211610640Y-54063181D01*
X207741819Y-50194360D01*
X207708334Y-50133037D01*
X207705500Y-50106679D01*
X207705500Y-49593321D01*
X207725185Y-49526282D01*
X207741819Y-49505640D01*
X208085640Y-49161819D01*
X208146963Y-49128334D01*
X208173321Y-49125500D01*
X208201679Y-49125500D01*
X208268718Y-49145185D01*
X208289360Y-49161819D01*
X208336702Y-49209161D01*
X208361814Y-49245328D01*
X208367589Y-49257972D01*
X208374623Y-49273373D01*
X208468872Y-49382143D01*
X208589947Y-49459953D01*
X208589950Y-49459954D01*
X208589949Y-49459954D01*
X208728036Y-49500499D01*
X208728038Y-49500500D01*
X208728039Y-49500500D01*
X208871962Y-49500500D01*
X208871962Y-49500499D01*
X209010053Y-49459953D01*
X209131128Y-49382143D01*
X209225377Y-49273373D01*
X209285165Y-49142457D01*
X209305647Y-49000000D01*
X209285165Y-48857543D01*
X209225377Y-48726627D01*
X209131128Y-48617857D01*
X209028127Y-48551662D01*
X209007491Y-48535032D01*
X208741965Y-48269506D01*
X208741964Y-48269505D01*
X208633536Y-48206905D01*
X208633537Y-48206905D01*
X208593224Y-48196103D01*
X208512601Y-48174500D01*
X207987601Y-48174500D01*
X207862399Y-48174500D01*
X207781775Y-48196103D01*
X207741463Y-48206905D01*
X207633037Y-48269504D01*
X207633034Y-48269506D01*
X206564360Y-49338181D01*
X206503037Y-49371666D01*
X206476679Y-49374500D01*
X205612601Y-49374500D01*
X174962601Y-49374500D01*
X174837399Y-49374500D01*
X174756775Y-49396103D01*
X174716463Y-49406905D01*
X174608037Y-49469504D01*
X174608034Y-49469506D01*
X162419506Y-61658034D01*
X162419504Y-61658037D01*
X162356905Y-61766463D01*
X162324500Y-61887400D01*
X162324500Y-70583518D01*
X162304815Y-70650557D01*
X162288181Y-70671199D01*
X161671199Y-71288181D01*
X161609876Y-71321666D01*
X161583518Y-71324500D01*
X153548321Y-71324500D01*
X153481282Y-71304815D01*
X153460640Y-71288181D01*
X149322455Y-67149996D01*
X150344508Y-67149996D01*
X150344508Y-67150003D01*
X150364352Y-67275300D01*
X150364352Y-67275301D01*
X150376935Y-67299996D01*
X150421950Y-67388342D01*
X150421952Y-67388344D01*
X150421954Y-67388347D01*
X150511652Y-67478045D01*
X150511654Y-67478046D01*
X150511658Y-67478050D01*
X150624696Y-67535646D01*
X150624697Y-67535646D01*
X150624699Y-67535647D01*
X150749997Y-67555492D01*
X150750000Y-67555492D01*
X150750003Y-67555492D01*
X150875300Y-67535647D01*
X150875301Y-67535647D01*
X150875302Y-67535646D01*
X150875304Y-67535646D01*
X150988342Y-67478050D01*
X151078050Y-67388342D01*
X151135646Y-67275304D01*
X151135646Y-67275302D01*
X151135647Y-67275301D01*
X151135647Y-67275300D01*
X151155492Y-67150003D01*
X151155492Y-67150000D01*
X151151959Y-67127696D01*
X151148702Y-67107131D01*
X151157656Y-67037841D01*
X151183491Y-67000057D01*
X152246731Y-65936819D01*
X152308054Y-65903334D01*
X152334412Y-65900500D01*
X154589880Y-65900500D01*
X154589882Y-65900500D01*
X154663574Y-65869976D01*
X155669976Y-64863574D01*
X155700500Y-64789882D01*
X155700500Y-64710118D01*
X155700500Y-61884410D01*
X155720185Y-61817371D01*
X155736814Y-61796734D01*
X159096132Y-58437415D01*
X159096135Y-58437414D01*
X159113573Y-58419976D01*
X159113574Y-58419976D01*
X159169976Y-58363574D01*
X159200500Y-58289882D01*
X159200500Y-56460118D01*
X159169976Y-56386426D01*
X159113574Y-56330024D01*
X158933494Y-56149944D01*
X158900009Y-56088621D01*
X158898702Y-56042869D01*
X158905492Y-56000000D01*
X158905492Y-55999997D01*
X158905492Y-55999996D01*
X158885647Y-55874699D01*
X158885647Y-55874698D01*
X158862884Y-55830024D01*
X158828050Y-55761658D01*
X158828046Y-55761654D01*
X158828045Y-55761652D01*
X158738347Y-55671954D01*
X158738344Y-55671952D01*
X158738342Y-55671950D01*
X158625304Y-55614354D01*
X158625303Y-55614353D01*
X158625300Y-55614352D01*
X158500003Y-55594508D01*
X158499997Y-55594508D01*
X158374699Y-55614352D01*
X158374698Y-55614352D01*
X158299337Y-55652751D01*
X158261658Y-55671950D01*
X158261657Y-55671951D01*
X158261652Y-55671954D01*
X158171954Y-55761652D01*
X158171951Y-55761657D01*
X158114352Y-55874698D01*
X158114352Y-55874699D01*
X158094508Y-55999996D01*
X158094508Y-56000003D01*
X158114352Y-56125300D01*
X158114352Y-56125301D01*
X158114354Y-56125304D01*
X158171950Y-56238342D01*
X158171952Y-56238344D01*
X158171954Y-56238347D01*
X158261652Y-56328045D01*
X158261654Y-56328046D01*
X158261658Y-56328050D01*
X158374696Y-56385646D01*
X158374697Y-56385646D01*
X158374699Y-56385647D01*
X158499997Y-56405492D01*
X158499998Y-56405492D01*
X158499998Y-56405491D01*
X158500000Y-56405492D01*
X158542866Y-56398702D01*
X158612156Y-56407655D01*
X158649944Y-56433494D01*
X158763181Y-56546731D01*
X158796666Y-56608054D01*
X158799500Y-56634412D01*
X158799500Y-58115587D01*
X158779815Y-58182626D01*
X158763181Y-58203268D01*
X155330024Y-61636425D01*
X155299500Y-61710116D01*
X155299500Y-64615588D01*
X155279815Y-64682627D01*
X155263181Y-64703269D01*
X154503269Y-65463181D01*
X154441946Y-65496666D01*
X154415588Y-65499500D01*
X152239882Y-65499500D01*
X152160118Y-65499500D01*
X152160116Y-65499500D01*
X152160114Y-65499501D01*
X152086428Y-65530021D01*
X152086426Y-65530023D01*
X150899944Y-66716504D01*
X150838621Y-66749989D01*
X150792867Y-66751297D01*
X150750000Y-66744508D01*
X150749999Y-66744508D01*
X150749998Y-66744508D01*
X150749997Y-66744508D01*
X150624699Y-66764352D01*
X150624698Y-66764352D01*
X150549337Y-66802751D01*
X150511658Y-66821950D01*
X150511657Y-66821951D01*
X150511652Y-66821954D01*
X150421954Y-66911652D01*
X150421951Y-66911657D01*
X150421950Y-66911658D01*
X150408232Y-66938581D01*
X150364352Y-67024698D01*
X150364352Y-67024699D01*
X150344508Y-67149996D01*
X149322455Y-67149996D01*
X147011819Y-64839360D01*
X146978334Y-64778037D01*
X146975500Y-64751679D01*
X146975500Y-61498319D01*
X146995185Y-61431280D01*
X147011815Y-61410642D01*
X147781754Y-60640702D01*
X147781759Y-60640699D01*
X147791962Y-60630495D01*
X147791964Y-60630495D01*
X147880495Y-60541964D01*
X147943095Y-60433536D01*
X147962561Y-60360890D01*
X147975501Y-60312601D01*
X147975501Y-60187399D01*
X147975501Y-60179804D01*
X147975500Y-60179786D01*
X147975500Y-57408838D01*
X147995185Y-57341799D01*
X148001114Y-57333364D01*
X148024536Y-57302841D01*
X148059055Y-57219505D01*
X148060939Y-57214957D01*
X148104780Y-57160553D01*
X148171074Y-57138488D01*
X148238773Y-57155767D01*
X148286384Y-57206904D01*
X148299500Y-57262409D01*
X148299500Y-64172842D01*
X148279815Y-64239881D01*
X148227011Y-64285636D01*
X148194898Y-64295315D01*
X148074698Y-64314352D01*
X147999337Y-64352751D01*
X147961658Y-64371950D01*
X147961657Y-64371951D01*
X147961652Y-64371954D01*
X147871954Y-64461652D01*
X147871951Y-64461657D01*
X147871950Y-64461658D01*
X147871174Y-64463181D01*
X147814352Y-64574698D01*
X147814352Y-64574699D01*
X147794508Y-64699996D01*
X147794508Y-64700003D01*
X147814352Y-64825300D01*
X147814352Y-64825301D01*
X147821516Y-64839360D01*
X147871950Y-64938342D01*
X147871952Y-64938344D01*
X147871954Y-64938347D01*
X147961652Y-65028045D01*
X147961654Y-65028046D01*
X147961658Y-65028050D01*
X148074696Y-65085646D01*
X148074697Y-65085646D01*
X148074699Y-65085647D01*
X148199997Y-65105492D01*
X148200000Y-65105492D01*
X148200003Y-65105492D01*
X148325300Y-65085647D01*
X148325301Y-65085647D01*
X148325302Y-65085646D01*
X148325304Y-65085646D01*
X148438342Y-65028050D01*
X148528050Y-64938342D01*
X148585646Y-64825304D01*
X148585646Y-64825302D01*
X148585647Y-64825301D01*
X148585647Y-64825300D01*
X148605492Y-64700003D01*
X148605492Y-64699997D01*
X148598703Y-64657134D01*
X148607658Y-64587840D01*
X148633496Y-64550054D01*
X148669974Y-64513576D01*
X148669974Y-64513575D01*
X148669976Y-64513574D01*
X148700500Y-64439882D01*
X148700500Y-64360118D01*
X148700500Y-54634412D01*
X148720185Y-54567373D01*
X148736819Y-54546731D01*
X149296731Y-53986819D01*
X149358054Y-53953334D01*
X149384412Y-53950500D01*
X149684825Y-53950500D01*
X149751864Y-53970185D01*
X149797619Y-54022989D01*
X149807563Y-54092147D01*
X149778538Y-54155703D01*
X149768460Y-54164951D01*
X149768558Y-54165049D01*
X149671954Y-54261652D01*
X149671951Y-54261657D01*
X149614352Y-54374698D01*
X149614352Y-54374699D01*
X149594508Y-54499996D01*
X149594508Y-54499997D01*
X149594508Y-54500000D01*
X149600423Y-54537352D01*
X149601297Y-54542867D01*
X149592341Y-54612161D01*
X149566504Y-54649944D01*
X149136426Y-55080024D01*
X149080025Y-55136424D01*
X149080024Y-55136425D01*
X149049500Y-55210116D01*
X149049500Y-64882745D01*
X149029815Y-64949784D01*
X149013181Y-64970426D01*
X148921954Y-65061652D01*
X148921951Y-65061657D01*
X148921950Y-65061658D01*
X148909727Y-65085647D01*
X148864352Y-65174698D01*
X148864352Y-65174699D01*
X148844508Y-65299996D01*
X148844508Y-65300003D01*
X148864352Y-65425300D01*
X148864352Y-65425301D01*
X148879331Y-65454698D01*
X148921950Y-65538342D01*
X148921952Y-65538344D01*
X148921954Y-65538347D01*
X149011652Y-65628045D01*
X149011654Y-65628046D01*
X149011658Y-65628050D01*
X149124696Y-65685646D01*
X149124697Y-65685646D01*
X149124699Y-65685647D01*
X149249997Y-65705492D01*
X149250000Y-65705492D01*
X149250003Y-65705492D01*
X149375300Y-65685647D01*
X149375301Y-65685647D01*
X149375302Y-65685646D01*
X149375304Y-65685646D01*
X149488342Y-65628050D01*
X149578050Y-65538342D01*
X149635646Y-65425304D01*
X149635646Y-65425302D01*
X149635647Y-65425301D01*
X149635647Y-65425300D01*
X149655492Y-65300003D01*
X149655492Y-65299996D01*
X149635647Y-65174699D01*
X149635647Y-65174698D01*
X149633241Y-65169976D01*
X149578050Y-65061658D01*
X149578046Y-65061654D01*
X149578045Y-65061652D01*
X149486819Y-64970426D01*
X149453334Y-64909103D01*
X149450500Y-64882745D01*
X149450500Y-55384411D01*
X149470185Y-55317372D01*
X149486815Y-55296734D01*
X149850056Y-54933492D01*
X149911377Y-54900009D01*
X149957130Y-54898702D01*
X150000000Y-54905492D01*
X150000000Y-54905491D01*
X150000001Y-54905492D01*
X150000003Y-54905492D01*
X150125300Y-54885647D01*
X150125301Y-54885647D01*
X150125302Y-54885646D01*
X150125304Y-54885646D01*
X150238342Y-54828050D01*
X150328050Y-54738342D01*
X150385646Y-54625304D01*
X150385646Y-54625302D01*
X150385647Y-54625301D01*
X150385647Y-54625300D01*
X150405492Y-54500003D01*
X150405492Y-54499996D01*
X150385647Y-54374699D01*
X150385647Y-54374698D01*
X150362884Y-54330024D01*
X150328050Y-54261658D01*
X150328046Y-54261654D01*
X150328045Y-54261652D01*
X150231442Y-54165049D01*
X150233314Y-54163176D01*
X150199627Y-54119496D01*
X150193643Y-54049883D01*
X150226245Y-53988085D01*
X150287082Y-53953724D01*
X150315175Y-53950500D01*
X151184825Y-53950500D01*
X151251864Y-53970185D01*
X151297619Y-54022989D01*
X151307563Y-54092147D01*
X151278538Y-54155703D01*
X151268460Y-54164951D01*
X151268558Y-54165049D01*
X151171954Y-54261652D01*
X151171951Y-54261657D01*
X151114352Y-54374698D01*
X151114352Y-54374699D01*
X151094508Y-54499996D01*
X151094508Y-54499997D01*
X151094508Y-54500000D01*
X151100423Y-54537352D01*
X151101297Y-54542867D01*
X151092341Y-54612161D01*
X151066504Y-54649944D01*
X150486426Y-55230024D01*
X150430025Y-55286424D01*
X150430024Y-55286425D01*
X150399500Y-55360116D01*
X150399500Y-63982745D01*
X150379815Y-64049784D01*
X150363181Y-64070426D01*
X150271954Y-64161652D01*
X150271951Y-64161657D01*
X150271950Y-64161658D01*
X150255099Y-64194730D01*
X150214352Y-64274698D01*
X150214352Y-64274699D01*
X150194508Y-64399996D01*
X150194508Y-64400003D01*
X150214352Y-64525300D01*
X150214352Y-64525301D01*
X150226965Y-64550054D01*
X150271950Y-64638342D01*
X150271952Y-64638344D01*
X150271954Y-64638347D01*
X150361652Y-64728045D01*
X150361654Y-64728046D01*
X150361658Y-64728050D01*
X150474696Y-64785646D01*
X150474697Y-64785646D01*
X150474699Y-64785647D01*
X150599997Y-64805492D01*
X150600000Y-64805492D01*
X150600003Y-64805492D01*
X150725300Y-64785647D01*
X150725301Y-64785647D01*
X150725302Y-64785646D01*
X150725304Y-64785646D01*
X150838342Y-64728050D01*
X150838348Y-64728043D01*
X150843793Y-64724088D01*
X150905850Y-64701943D01*
X150915572Y-64657255D01*
X150924088Y-64643793D01*
X150928043Y-64638348D01*
X150928050Y-64638342D01*
X150985646Y-64525304D01*
X150985646Y-64525302D01*
X150985647Y-64525301D01*
X150985647Y-64525300D01*
X151005492Y-64400003D01*
X151005492Y-64399996D01*
X150985647Y-64274699D01*
X150985647Y-64274698D01*
X150985646Y-64274696D01*
X150928050Y-64161658D01*
X150928046Y-64161654D01*
X150928045Y-64161652D01*
X150836819Y-64070426D01*
X150803334Y-64009103D01*
X150800500Y-63982745D01*
X150800500Y-55534411D01*
X150820185Y-55467372D01*
X150836815Y-55446734D01*
X151350056Y-54933492D01*
X151411377Y-54900009D01*
X151457130Y-54898702D01*
X151500000Y-54905492D01*
X151500000Y-54905491D01*
X151500001Y-54905492D01*
X151500003Y-54905492D01*
X151625300Y-54885647D01*
X151625301Y-54885647D01*
X151625302Y-54885646D01*
X151625304Y-54885646D01*
X151738342Y-54828050D01*
X151828050Y-54738342D01*
X151885646Y-54625304D01*
X151885646Y-54625302D01*
X151885647Y-54625301D01*
X151885647Y-54625300D01*
X151905492Y-54500003D01*
X151905492Y-54499996D01*
X151885647Y-54374699D01*
X151885647Y-54374698D01*
X151862884Y-54330024D01*
X151828050Y-54261658D01*
X151828046Y-54261654D01*
X151828045Y-54261652D01*
X151731442Y-54165049D01*
X151733314Y-54163176D01*
X151699627Y-54119496D01*
X151693643Y-54049883D01*
X151726245Y-53988085D01*
X151787082Y-53953724D01*
X151815175Y-53950500D01*
X152434825Y-53950500D01*
X152501864Y-53970185D01*
X152547619Y-54022989D01*
X152557563Y-54092147D01*
X152528538Y-54155703D01*
X152518460Y-54164951D01*
X152518558Y-54165049D01*
X152421954Y-54261652D01*
X152421951Y-54261657D01*
X152364352Y-54374698D01*
X152364352Y-54374699D01*
X152344508Y-54499996D01*
X152344508Y-54499997D01*
X152344508Y-54500000D01*
X152350423Y-54537352D01*
X152351297Y-54542867D01*
X152342341Y-54612161D01*
X152316504Y-54649944D01*
X151886426Y-55080024D01*
X151830025Y-55136424D01*
X151830024Y-55136425D01*
X151799500Y-55210116D01*
X151799500Y-64065587D01*
X151779815Y-64132626D01*
X151763181Y-64153268D01*
X151112085Y-64804363D01*
X151050762Y-64837848D01*
X151039437Y-64837038D01*
X151014880Y-64900121D01*
X151004363Y-64912085D01*
X150249944Y-65666504D01*
X150188621Y-65699989D01*
X150142867Y-65701297D01*
X150100000Y-65694508D01*
X150099999Y-65694508D01*
X150099998Y-65694508D01*
X150099997Y-65694508D01*
X149974699Y-65714352D01*
X149974698Y-65714352D01*
X149904737Y-65750000D01*
X149861658Y-65771950D01*
X149861657Y-65771951D01*
X149861652Y-65771954D01*
X149771954Y-65861652D01*
X149771951Y-65861657D01*
X149771950Y-65861658D01*
X149752751Y-65899337D01*
X149714352Y-65974698D01*
X149714352Y-65974699D01*
X149694508Y-66099996D01*
X149694508Y-66100003D01*
X149714352Y-66225300D01*
X149714352Y-66225301D01*
X149732805Y-66261517D01*
X149771950Y-66338342D01*
X149771952Y-66338344D01*
X149771954Y-66338347D01*
X149861652Y-66428045D01*
X149861654Y-66428046D01*
X149861658Y-66428050D01*
X149974696Y-66485646D01*
X149974697Y-66485646D01*
X149974699Y-66485647D01*
X150099997Y-66505492D01*
X150100000Y-66505492D01*
X150100003Y-66505492D01*
X150225300Y-66485647D01*
X150225301Y-66485647D01*
X150225302Y-66485646D01*
X150225304Y-66485646D01*
X150338342Y-66428050D01*
X150428050Y-66338342D01*
X150485646Y-66225304D01*
X150485646Y-66225302D01*
X150485647Y-66225301D01*
X150485647Y-66225300D01*
X150505492Y-66100003D01*
X150505492Y-66100000D01*
X150503342Y-66086426D01*
X150498702Y-66057131D01*
X150507656Y-65987841D01*
X150533491Y-65950057D01*
X152169976Y-64313574D01*
X152175600Y-64299996D01*
X153794508Y-64299996D01*
X153794508Y-64300003D01*
X153814352Y-64425300D01*
X153814352Y-64425301D01*
X153821781Y-64439880D01*
X153871950Y-64538342D01*
X153871952Y-64538344D01*
X153871954Y-64538347D01*
X153961652Y-64628045D01*
X153961654Y-64628046D01*
X153961658Y-64628050D01*
X154074696Y-64685646D01*
X154074697Y-64685646D01*
X154074699Y-64685647D01*
X154199997Y-64705492D01*
X154200000Y-64705492D01*
X154200003Y-64705492D01*
X154325300Y-64685647D01*
X154325301Y-64685647D01*
X154325302Y-64685646D01*
X154325304Y-64685646D01*
X154438342Y-64628050D01*
X154528050Y-64538342D01*
X154585646Y-64425304D01*
X154585646Y-64425302D01*
X154585647Y-64425301D01*
X154585647Y-64425300D01*
X154605492Y-64300003D01*
X154605492Y-64299997D01*
X154598703Y-64257134D01*
X154607658Y-64187840D01*
X154633496Y-64150054D01*
X154669974Y-64113576D01*
X154669974Y-64113575D01*
X154669976Y-64113574D01*
X154700500Y-64039882D01*
X154700500Y-63960118D01*
X154700500Y-55634412D01*
X154720185Y-55567373D01*
X154736819Y-55546731D01*
X154878058Y-55405492D01*
X155020899Y-55262650D01*
X155082220Y-55229167D01*
X155151911Y-55234151D01*
X155196259Y-55262652D01*
X155261652Y-55328045D01*
X155261654Y-55328046D01*
X155261658Y-55328050D01*
X155374696Y-55385646D01*
X155374697Y-55385646D01*
X155374699Y-55385647D01*
X155499997Y-55405492D01*
X155500000Y-55405492D01*
X155500003Y-55405492D01*
X155625300Y-55385647D01*
X155625301Y-55385647D01*
X155625302Y-55385646D01*
X155625304Y-55385646D01*
X155738342Y-55328050D01*
X155828050Y-55238342D01*
X155885646Y-55125304D01*
X155885646Y-55125302D01*
X155885647Y-55125301D01*
X155885647Y-55125300D01*
X155905492Y-55000003D01*
X155905492Y-54999996D01*
X155885647Y-54874699D01*
X155885647Y-54874698D01*
X155874521Y-54852862D01*
X155828050Y-54761658D01*
X155828046Y-54761654D01*
X155828045Y-54761652D01*
X155738347Y-54671954D01*
X155738344Y-54671952D01*
X155738342Y-54671950D01*
X155625304Y-54614354D01*
X155625303Y-54614353D01*
X155625300Y-54614352D01*
X155500003Y-54594508D01*
X155499997Y-54594508D01*
X155374699Y-54614352D01*
X155374698Y-54614352D01*
X155304847Y-54649944D01*
X155261658Y-54671950D01*
X155261657Y-54671951D01*
X155261652Y-54671954D01*
X155170426Y-54763181D01*
X155109103Y-54796666D01*
X155082745Y-54799500D01*
X154960116Y-54799500D01*
X154886425Y-54830024D01*
X154330024Y-55386425D01*
X154299500Y-55460116D01*
X154299500Y-63772842D01*
X154279815Y-63839881D01*
X154227011Y-63885636D01*
X154194898Y-63895315D01*
X154074698Y-63914352D01*
X153999337Y-63952751D01*
X153961658Y-63971950D01*
X153961657Y-63971951D01*
X153961652Y-63971954D01*
X153871954Y-64061652D01*
X153871951Y-64061657D01*
X153871950Y-64061658D01*
X153852751Y-64099337D01*
X153814352Y-64174698D01*
X153814352Y-64174699D01*
X153794508Y-64299996D01*
X152175600Y-64299996D01*
X152200500Y-64239882D01*
X152200500Y-64160118D01*
X152200500Y-55384411D01*
X152220185Y-55317372D01*
X152236815Y-55296734D01*
X152600056Y-54933492D01*
X152661377Y-54900009D01*
X152707130Y-54898702D01*
X152750000Y-54905492D01*
X152750000Y-54905491D01*
X152750001Y-54905492D01*
X152750003Y-54905492D01*
X152875300Y-54885647D01*
X152875301Y-54885647D01*
X152875302Y-54885646D01*
X152875304Y-54885646D01*
X152988342Y-54828050D01*
X153078050Y-54738342D01*
X153135646Y-54625304D01*
X153135646Y-54625302D01*
X153135647Y-54625301D01*
X153135647Y-54625300D01*
X153155492Y-54500003D01*
X153155492Y-54499996D01*
X153135647Y-54374699D01*
X153135647Y-54374698D01*
X153112884Y-54330024D01*
X153078050Y-54261658D01*
X153078046Y-54261654D01*
X153078045Y-54261652D01*
X152981442Y-54165049D01*
X152983314Y-54163176D01*
X152949627Y-54119496D01*
X152943643Y-54049883D01*
X152976245Y-53988085D01*
X153037082Y-53953724D01*
X153065175Y-53950500D01*
X153365588Y-53950500D01*
X153432627Y-53970185D01*
X153453269Y-53986819D01*
X153816504Y-54350054D01*
X153849989Y-54411377D01*
X153851297Y-54457130D01*
X153844508Y-54500000D01*
X153844508Y-54500003D01*
X153864352Y-54625300D01*
X153864352Y-54625301D01*
X153876909Y-54649944D01*
X153921950Y-54738342D01*
X153921952Y-54738344D01*
X153921954Y-54738347D01*
X154011652Y-54828045D01*
X154011654Y-54828046D01*
X154011658Y-54828050D01*
X154124696Y-54885646D01*
X154124697Y-54885646D01*
X154124699Y-54885647D01*
X154249997Y-54905492D01*
X154250000Y-54905492D01*
X154250003Y-54905492D01*
X154375300Y-54885647D01*
X154375301Y-54885647D01*
X154375302Y-54885646D01*
X154375304Y-54885646D01*
X154488342Y-54828050D01*
X154578050Y-54738342D01*
X154635646Y-54625304D01*
X154635646Y-54625302D01*
X154635647Y-54625301D01*
X154635647Y-54625300D01*
X154655492Y-54500003D01*
X154655492Y-54499996D01*
X154635647Y-54374699D01*
X154635647Y-54374698D01*
X154612884Y-54330024D01*
X154578050Y-54261658D01*
X154578046Y-54261654D01*
X154578045Y-54261652D01*
X154488347Y-54171954D01*
X154488344Y-54171952D01*
X154488342Y-54171950D01*
X154375304Y-54114354D01*
X154375303Y-54114353D01*
X154375300Y-54114352D01*
X154250003Y-54094508D01*
X154250001Y-54094508D01*
X154250000Y-54094508D01*
X154239377Y-54096190D01*
X154207130Y-54101297D01*
X154137837Y-54092340D01*
X154100054Y-54066504D01*
X153613574Y-53580024D01*
X153539883Y-53549500D01*
X153539882Y-53549500D01*
X149289882Y-53549500D01*
X149210118Y-53549500D01*
X149210116Y-53549500D01*
X149136425Y-53580024D01*
X148330024Y-54386425D01*
X148299500Y-54460116D01*
X148299500Y-56737591D01*
X148279815Y-56804630D01*
X148227011Y-56850385D01*
X148157853Y-56860329D01*
X148094297Y-56831304D01*
X148060939Y-56785044D01*
X148024536Y-56697159D01*
X147928282Y-56571718D01*
X147802841Y-56475464D01*
X147656762Y-56414956D01*
X147656760Y-56414955D01*
X147500001Y-56394318D01*
X147499999Y-56394318D01*
X147343239Y-56414955D01*
X147343237Y-56414956D01*
X147197160Y-56475463D01*
X147071718Y-56571718D01*
X146975463Y-56697160D01*
X146914956Y-56843237D01*
X146914955Y-56843239D01*
X146894318Y-56999998D01*
X146894318Y-57000001D01*
X146914955Y-57156760D01*
X146914957Y-57156765D01*
X146975461Y-57302836D01*
X146975461Y-57302837D01*
X146975463Y-57302839D01*
X146975464Y-57302841D01*
X146998876Y-57333353D01*
X147024070Y-57398520D01*
X147024500Y-57408838D01*
X147024500Y-60001679D01*
X147004815Y-60068718D01*
X146988181Y-60089360D01*
X146339360Y-60738181D01*
X146278037Y-60771666D01*
X146251679Y-60774500D01*
X145498321Y-60774500D01*
X145431282Y-60754815D01*
X145410640Y-60738181D01*
X141672457Y-56999998D01*
X145394318Y-56999998D01*
X145394318Y-57000001D01*
X145414955Y-57156760D01*
X145414956Y-57156762D01*
X145435725Y-57206904D01*
X145475464Y-57302841D01*
X145571718Y-57428282D01*
X145571721Y-57428284D01*
X145571724Y-57428288D01*
X145577469Y-57434034D01*
X145576538Y-57434964D01*
X145612787Y-57484604D01*
X145620100Y-57526557D01*
X145620100Y-58223442D01*
X145600415Y-58290481D01*
X145577208Y-58315708D01*
X145577468Y-58315967D01*
X145571724Y-58321711D01*
X145571719Y-58321716D01*
X145571718Y-58321718D01*
X145503018Y-58411250D01*
X145475463Y-58447160D01*
X145414956Y-58593237D01*
X145414955Y-58593239D01*
X145394318Y-58749998D01*
X145394318Y-58750001D01*
X145414955Y-58906760D01*
X145414956Y-58906762D01*
X145475464Y-59052841D01*
X145571718Y-59178282D01*
X145697159Y-59274536D01*
X145843238Y-59335044D01*
X145921619Y-59345363D01*
X145999999Y-59355682D01*
X146000000Y-59355682D01*
X146000001Y-59355682D01*
X146062422Y-59347464D01*
X146156762Y-59335044D01*
X146302841Y-59274536D01*
X146428282Y-59178282D01*
X146524536Y-59052841D01*
X146585044Y-58906762D01*
X146598802Y-58802254D01*
X146605682Y-58750001D01*
X146605682Y-58749998D01*
X146589186Y-58624698D01*
X146585044Y-58593238D01*
X146524536Y-58447159D01*
X146428282Y-58321718D01*
X146428278Y-58321714D01*
X146428275Y-58321711D01*
X146422532Y-58315967D01*
X146423460Y-58315038D01*
X146387207Y-58265381D01*
X146379900Y-58223442D01*
X146379900Y-57526557D01*
X146399585Y-57459518D01*
X146422791Y-57434294D01*
X146422531Y-57434034D01*
X146428275Y-57428288D01*
X146428276Y-57428286D01*
X146428282Y-57428282D01*
X146524536Y-57302841D01*
X146585044Y-57156762D01*
X146605682Y-57000000D01*
X146585044Y-56843238D01*
X146524536Y-56697159D01*
X146428282Y-56571718D01*
X146302841Y-56475464D01*
X146156762Y-56414956D01*
X146156760Y-56414955D01*
X146000001Y-56394318D01*
X145999999Y-56394318D01*
X145843239Y-56414955D01*
X145843237Y-56414956D01*
X145697160Y-56475463D01*
X145571718Y-56571718D01*
X145475463Y-56697160D01*
X145414956Y-56843237D01*
X145414955Y-56843239D01*
X145394318Y-56999998D01*
X141672457Y-56999998D01*
X140791965Y-56119506D01*
X140791964Y-56119505D01*
X140683536Y-56056905D01*
X140683537Y-56056905D01*
X140643224Y-56046103D01*
X140562601Y-56024500D01*
X140562599Y-56024500D01*
X140008838Y-56024500D01*
X139941799Y-56004815D01*
X139933364Y-55998885D01*
X139902841Y-55975464D01*
X139902838Y-55975463D01*
X139902836Y-55975461D01*
X139756765Y-55914957D01*
X139756760Y-55914955D01*
X139600001Y-55894318D01*
X139599999Y-55894318D01*
X139443239Y-55914955D01*
X139443237Y-55914956D01*
X139297160Y-55975463D01*
X139171718Y-56071718D01*
X139075463Y-56197160D01*
X139014956Y-56343237D01*
X139014955Y-56343239D01*
X138994318Y-56499998D01*
X132572458Y-56499998D01*
X133547137Y-55525319D01*
X133608458Y-55491836D01*
X133618611Y-55490066D01*
X133656762Y-55485044D01*
X133802841Y-55424536D01*
X133928282Y-55328282D01*
X134024536Y-55202841D01*
X134085044Y-55056762D01*
X134098802Y-54952254D01*
X134105682Y-54900001D01*
X134105682Y-54899998D01*
X134090064Y-54781368D01*
X134085044Y-54743238D01*
X134024536Y-54597159D01*
X133928282Y-54471718D01*
X133802841Y-54375464D01*
X133800994Y-54374699D01*
X133656762Y-54314956D01*
X133656760Y-54314955D01*
X133500001Y-54294318D01*
X133499999Y-54294318D01*
X133343239Y-54314955D01*
X133343237Y-54314956D01*
X133197160Y-54375463D01*
X133071718Y-54471718D01*
X132975463Y-54597160D01*
X132914956Y-54743237D01*
X132914956Y-54743238D01*
X132909936Y-54781368D01*
X132881669Y-54845264D01*
X132874678Y-54852862D01*
X130490594Y-57236945D01*
X130490595Y-57236946D01*
X130419503Y-57308037D01*
X130356905Y-57416463D01*
X130343791Y-57465406D01*
X130324500Y-57537399D01*
X126413480Y-57537399D01*
X126410990Y-57535590D01*
X126374046Y-57516766D01*
X126252851Y-57455013D01*
X126084046Y-57400164D01*
X125908748Y-57372400D01*
X125908743Y-57372400D01*
X125731255Y-57372400D01*
X125731250Y-57372400D01*
X125555951Y-57400164D01*
X125387146Y-57455013D01*
X125229007Y-57535590D01*
X125170567Y-57578050D01*
X125085417Y-57639915D01*
X125085415Y-57639917D01*
X125085414Y-57639917D01*
X124959916Y-57765415D01*
X124959916Y-57765416D01*
X124959914Y-57765418D01*
X124922253Y-57817254D01*
X124855589Y-57909008D01*
X124775012Y-58067147D01*
X124720163Y-58235952D01*
X124692399Y-58411250D01*
X122800500Y-58411250D01*
X122800500Y-51584726D01*
X122820185Y-51517687D01*
X122872989Y-51471932D01*
X122942147Y-51461988D01*
X123005703Y-51491013D01*
X123043477Y-51549791D01*
X123043654Y-51550399D01*
X123074812Y-51658552D01*
X123212353Y-51990609D01*
X123212355Y-51990613D01*
X123386215Y-52305189D01*
X123386218Y-52305194D01*
X123594193Y-52598306D01*
X123666843Y-52679601D01*
X124984728Y-51361716D01*
X125070278Y-51479466D01*
X125220534Y-51629722D01*
X125338281Y-51715270D01*
X124020397Y-53033155D01*
X124101693Y-53105806D01*
X124394805Y-53313781D01*
X124394810Y-53313784D01*
X124709386Y-53487644D01*
X124709390Y-53487646D01*
X125041447Y-53625187D01*
X125386805Y-53724683D01*
X125386814Y-53724685D01*
X125741141Y-53784887D01*
X125741153Y-53784889D01*
X126100000Y-53805041D01*
X126458846Y-53784889D01*
X126458858Y-53784887D01*
X126813185Y-53724685D01*
X126813194Y-53724683D01*
X127158552Y-53625187D01*
X127490609Y-53487646D01*
X127490613Y-53487644D01*
X127805189Y-53313784D01*
X127805194Y-53313781D01*
X128098306Y-53105806D01*
X128179601Y-53033155D01*
X126861717Y-51715270D01*
X126979466Y-51629722D01*
X127129722Y-51479466D01*
X127215270Y-51361717D01*
X128533155Y-52679601D01*
X128605806Y-52598306D01*
X128813781Y-52305194D01*
X128813784Y-52305189D01*
X128987644Y-51990613D01*
X128987646Y-51990609D01*
X129125187Y-51658552D01*
X129224683Y-51313194D01*
X129224685Y-51313185D01*
X129284887Y-50958858D01*
X129284889Y-50958846D01*
X129305041Y-50600000D01*
X129284889Y-50241153D01*
X129284887Y-50241141D01*
X129224685Y-49886814D01*
X129224683Y-49886805D01*
X129125187Y-49541447D01*
X128987646Y-49209390D01*
X128987644Y-49209386D01*
X128813784Y-48894810D01*
X128813781Y-48894805D01*
X128605806Y-48601693D01*
X128533155Y-48520397D01*
X127215270Y-49838281D01*
X127129722Y-49720534D01*
X126979466Y-49570278D01*
X126861716Y-49484728D01*
X128179602Y-48166843D01*
X128098306Y-48094193D01*
X127805194Y-47886218D01*
X127805189Y-47886215D01*
X127490613Y-47712355D01*
X127490609Y-47712353D01*
X127158552Y-47574812D01*
X127050400Y-47543654D01*
X126991430Y-47506180D01*
X126962081Y-47442773D01*
X126971671Y-47373565D01*
X127017156Y-47320528D01*
X127084094Y-47300502D01*
X127084727Y-47300500D01*
X212415273Y-47300500D01*
X212482312Y-47320185D01*
G37*
%TD.AperFunction*%
%TD*%
M02*
