%TF.GenerationSoftware,KiCad,Pcbnew,8.0.8*%
%TF.CreationDate,2025-02-15T01:31:07-07:00*%
%TF.ProjectId,ECE Capstone PCB Design,45434520-4361-4707-9374-6f6e65205043,rev?*%
%TF.SameCoordinates,Original*%
%TF.FileFunction,Legend,Bot*%
%TF.FilePolarity,Positive*%
%FSLAX46Y46*%
G04 Gerber Fmt 4.6, Leading zero omitted, Abs format (unit mm)*
G04 Created by KiCad (PCBNEW 8.0.8) date 2025-02-15 01:31:07*
%MOMM*%
%LPD*%
G01*
G04 APERTURE LIST*
%ADD10C,0.508000*%
%ADD11C,1.854200*%
%ADD12C,1.752600*%
%ADD13R,1.700000X1.700000*%
%ADD14O,1.700000X1.700000*%
%ADD15C,5.400000*%
%ADD16R,0.850000X0.850000*%
%ADD17O,0.850000X0.850000*%
G04 APERTURE END LIST*
D10*
%TO.C,J2*%
X133381000Y-104880300D02*
G75*
G02*
X132619000Y-104880300I-381000J0D01*
G01*
X132619000Y-104880300D02*
G75*
G02*
X133381000Y-104880300I381000J0D01*
G01*
%TO.C,J3*%
X162694755Y-68463100D02*
G75*
G02*
X161932755Y-68463100I-381000J0D01*
G01*
X161932755Y-68463100D02*
G75*
G02*
X162694755Y-68463100I381000J0D01*
G01*
%TO.C,J1*%
X130681000Y-68500000D02*
G75*
G02*
X129919000Y-68500000I-381000J0D01*
G01*
X129919000Y-68500000D02*
G75*
G02*
X130681000Y-68500000I381000J0D01*
G01*
%TD*%
%LPC*%
D11*
%TO.C,J2*%
X125819999Y-92400000D03*
X125819999Y-102400000D03*
D12*
X133000000Y-102400000D03*
X133000000Y-99900000D03*
X133000000Y-97400000D03*
X133000000Y-94900000D03*
X133000000Y-92400000D03*
%TD*%
D13*
%TO.C,REF\u002A\u002A*%
X154000000Y-88640000D03*
D14*
X156540000Y-88640000D03*
X154000000Y-91180000D03*
X156540000Y-91180000D03*
X154000000Y-93720000D03*
X156540000Y-93720000D03*
X154000000Y-96260000D03*
X156540000Y-96260000D03*
X154000000Y-98800000D03*
X156540000Y-98800000D03*
X154000000Y-101340000D03*
X156540000Y-101340000D03*
X154000000Y-103880000D03*
X156540000Y-103880000D03*
X154000000Y-106420000D03*
X156540000Y-106420000D03*
X154000000Y-108960000D03*
X156540000Y-108960000D03*
X154000000Y-111500000D03*
X156540000Y-111500000D03*
%TD*%
D13*
%TO.C,REF\u002A\u002A*%
X124500000Y-83775000D03*
D14*
X124500000Y-81235000D03*
X124500000Y-78695000D03*
%TD*%
D15*
%TO.C,REF\u002A\u002A*%
X126100000Y-50600000D03*
%TD*%
D11*
%TO.C,J1*%
X125819999Y-58500000D03*
X125819999Y-68500000D03*
D12*
X133000000Y-68500000D03*
X133000000Y-66000000D03*
X133000000Y-63500000D03*
X133000000Y-61000000D03*
X133000000Y-58500000D03*
%TD*%
D15*
%TO.C,REF\u002A\u002A*%
X234000000Y-50500000D03*
%TD*%
%TO.C,*%
X213400000Y-50600000D03*
%TD*%
D16*
%TO.C,REF\u002A\u002A*%
X209800000Y-65500000D03*
D17*
X210800000Y-65500000D03*
X211800000Y-65500000D03*
X212800000Y-65500000D03*
X213800000Y-65500000D03*
%TD*%
D15*
%TO.C,REF\u002A\u002A*%
X126000000Y-110500000D03*
%TD*%
D16*
%TO.C,REF\u002A\u002A*%
X217800000Y-62500000D03*
D17*
X216800000Y-62500000D03*
X215800000Y-62500000D03*
X214800000Y-62500000D03*
X213800000Y-62500000D03*
%TD*%
%LPD*%
M02*
